<?xml version="1.0" encoding="UTF-8" standalone="no"?>
<svg
   width="1024"
   height="1024"
   version="1.1"
   id="svg253"
   sodipodi:docname="melon.svg"
   xml:space="preserve"
   inkscape:version="1.2.2 (b0a8486541, 2022-12-01)"
   inkscape:export-filename="../Desktop/melon.svg"
   inkscape:export-xdpi="96"
   inkscape:export-ydpi="96"
   xmlns:inkscape="http://www.inkscape.org/namespaces/inkscape"
   xmlns:sodipodi="http://sodipodi.sourceforge.net/DTD/sodipodi-0.dtd"
   xmlns="http://www.w3.org/2000/svg"
   xmlns:svg="http://www.w3.org/2000/svg"><defs
     id="defs257" /><sodipodi:namedview
     id="namedview255"
     pagecolor="#ffffff"
     bordercolor="#999999"
     borderopacity="1"
     inkscape:showpageshadow="0"
     inkscape:pageopacity="0"
     inkscape:pagecheckerboard="0"
     inkscape:deskcolor="#d1d1d1"
     showgrid="false"
     inkscape:zoom="0.34112378"
     inkscape:cx="334.18954"
     inkscape:cy="630.26975"
     inkscape:window-width="1366"
     inkscape:window-height="696"
     inkscape:window-x="0"
     inkscape:window-y="0"
     inkscape:window-maximized="1"
     inkscape:current-layer="svg253" /><path
     id="path4096"
     style="display:inline;fill:#000000;fill-opacity:1"
     inkscape:label="Right"
     d="m 690.19727,473.60352 c -4.70325,0 -9.40565,1.79481 -12.99415,5.38281 l -19.95507,19.95508 c -7.177,7.17599 -7.177,18.81324 0,25.99023 l 19.95507,19.95313 c 7.177,7.17599 18.81325,7.17599 25.99024,0 l 19.95312,-19.95508 c 7.177,-7.176 7.177,-18.81324 0,-25.99024 l -19.95312,-19.95312 c -3.5885,-3.588 -8.29285,-5.38281 -12.99609,-5.38281 z" /><path
     id="path4099"
     style="display:inline;fill:#000000;fill-opacity:1"
     inkscape:label="Left"
     d="m 502.74609,657.38086 c -4.70324,0 -9.40564,1.79286 -12.99414,5.38086 l -19.95312,19.95508 c -7.17699,7.17599 -7.17699,18.81224 0,25.99023 l 19.95312,19.95313 c 7.177,7.17699 18.81324,7.17699 25.99024,0 l 19.95312,-19.95508 c 7.177,-7.17699 7.177,-18.81129 0,-25.98828 l -19.95312,-19.95508 c -3.5885,-3.588 -8.29285,-5.38086 -12.9961,-5.38086 z" /><path
     id="path4091"
     style="display:inline;fill:#000000;fill-opacity:1"
     inkscape:label="Top"
     d="m 462.83789,320.51562 c -2.50796,-0.0843 -4.99308,0.16266 -7.04883,0.64454 -9.58499,2.24599 -17.89844,8.94922 -17.89844,8.94922 L 324.52148,443.47852 c 0,0 -6.70322,8.3154 -8.94921,17.90039 -1.285,5.48299 -0.90058,14.01444 2.98242,17.89843 l 59.66797,59.66797 c 3.88399,3.883 12.41544,4.26742 17.89843,2.98242 9.58499,-2.24599 17.90039,-8.94921 17.90039,-8.94921 L 527.39062,419.60938 c 0,-10e-6 6.70323,-8.31345 8.94922,-17.89844 1.285,-5.482 0.89962,-14.0164 -2.98437,-17.90039 l -59.66602,-59.66602 c -2.42749,-2.4275 -6.67162,-3.48847 -10.85156,-3.62891 z" /><path
     id="path166"
     inkscape:label="Inner"
     d="m 512.03125,170.38086 a 91.889,91.889 0 0 0 -24.94336,3.44922 c -23.07698,6.50799 -42.80566,26.2373 -82.26562,65.69726 L 239.52734,404.82227 c -39.45896,39.45896 -59.18927,59.18864 -65.69726,82.26562 a 91.888,91.888 0 0 0 0,49.88477 c 6.50799,23.07797 26.2373,42.80566 65.69726,82.26562 L 404.82227,784.5332 c 39.45896,39.45896 59.18864,59.18828 82.26562,65.69727 a 91.888,91.888 0 0 0 49.88477,0 c 23.07697,-6.50899 42.80566,-26.23831 82.26562,-65.69727 L 784.5332,619.23828 c 39.45896,-39.45796 59.18828,-59.18765 65.69727,-82.26562 a 91.888,91.888 0 0 0 0,-49.88477 C 843.72148,464.01091 823.99216,444.28223 784.5332,404.82227 L 619.23828,239.52734 c -39.45896,-39.45896 -59.18865,-59.18927 -82.26562,-65.69726 a 91.889,91.889 0 0 0 -24.94141,-3.44922 z m -21.4082,66.20703 c 7.28309,0.24462 14.67555,2.09157 18.90429,6.32031 l 103.96094,103.96094 c 6.76499,6.76499 7.43626,21.63451 5.19727,31.1875 -3.913,16.69998 -15.59375,31.1875 -15.59375,31.1875 L 405.56836,606.76758 c 0,0 -14.48752,11.67975 -31.1875,15.59375 -9.55299,2.238 -24.42151,1.56677 -31.1875,-5.19922 L 239.23242,513.20312 c -6.76599,-6.76599 -7.43526,-21.6355 -5.19726,-31.1875 3.91399,-16.69998 15.59375,-31.1875 15.59375,-31.1875 L 447.15234,253.30469 c 0,0 14.48752,-11.67976 31.1875,-15.59375 3.58238,-0.83963 7.91335,-1.26982 12.28321,-1.12305 z m 169.00976,172.68555 c 7.28309,0.24462 14.67555,2.09156 18.9043,6.32031 l 103.96094,103.96094 c 6.76599,6.76499 7.43526,21.63255 5.19726,31.18554 -3.91399,16.69999 -15.59375,31.18946 -15.59375,31.18946 L 574.57812,779.45312 c 0,0 -14.48751,11.67976 -31.1875,15.59376 -9.55299,2.23799 -24.4215,1.56872 -31.1875,-5.19727 L 408.24219,685.88867 c -6.765,-6.76599 -7.43431,-21.63551 -5.19531,-31.1875 3.91399,-16.69998 15.59374,-31.1875 15.59374,-31.1875 L 616.16211,425.99023 c 0,0 14.48852,-11.67975 31.1875,-15.59375 3.58237,-0.83962 7.91335,-1.26981 12.2832,-1.12304 z"
     style="display:inline" /><path
     id="path132"
     style="display:inline;stroke:none"
     inkscape:label="Outer"
     d="m 512,54.808594 a 132.32,132.32 0 0 0 -35.91797,4.966797 c -33.23097,9.37199 -61.64195,37.784525 -118.46289,94.605469 L 154.38086,357.61914 C 97.559916,414.44008 69.147381,442.85106 59.775391,476.08203 a 132.318,132.318 0 0 0 0,71.83594 c 9.37199,33.23097 37.784525,61.64195 94.605469,118.46289 l 203.23828,203.23828 c 56.82094,56.82094 85.23192,85.23348 118.46289,94.60547 a 132.319,132.319 0 0 0 71.83594,0 c 33.23097,-9.37199 61.64195,-37.78453 118.46289,-94.60547 L 869.61914,666.38086 c 56.82094,-56.82094 85.23348,-85.23192 94.60547,-118.46289 a 132.32,132.32 0 0 0 0,-71.83594 C 954.85262,442.85106 926.44008,414.44008 869.61914,357.61914 L 666.38086,154.38086 C 609.55992,97.559916 581.14894,69.147381 547.91797,59.775391 A 132.32,132.32 0 0 0 512,54.808594 Z m -0.11914,71.693356 a 110.266,110.266 0 0 1 29.92969,4.14063 c 27.69397,7.80999 51.36779,31.48598 98.71875,78.83594 l 174.13086,174.13086 c 47.35095,47.35095 71.02594,71.02673 78.83593,98.7207 a 110.265,110.265 0 0 1 0,59.85937 c -7.80999,27.69398 -31.48498,51.37075 -78.83593,98.72071 L 640.5293,815.04297 c -47.35096,47.34995 -71.02578,71.02594 -98.71875,78.83594 a 110.265,110.265 0 0 1 -59.86133,0 c -27.69397,-7.81 -51.3688,-31.48499 -98.71875,-78.83594 L 209.09766,640.91016 C 161.7477,593.5602 138.07171,569.88343 130.26172,542.18945 a 110.266,110.266 0 0 1 0,-59.85937 c 7.80999,-27.69397 31.48498,-51.36975 78.83594,-98.7207 L 383.23047,209.47852 c 47.34995,-47.34996 71.02478,-71.02595 98.71875,-78.83594 a 110.266,110.266 0 0 1 29.93164,-4.14063 z" /><filter
     id="a"
     x="0"
     y="0"
     width="1024"
     height="1024"
     filterUnits="userSpaceOnUse"
     primitiveUnits="userSpaceOnUse"
     color-interpolation-filters="sRGB"><feGaussianBlur
       stdDeviation="18.378"
       id="feGaussianBlur134" /><feOffset
       dy="7.351"
       result="offsetblur"
       id="feOffset136" /><feFlood
       flood-color="#000"
       flood-opacity=".4"
       id="feFlood138" /><feComposite
       in2="offsetblur"
       operator="in"
       id="feComposite140" /><feMerge
       id="feMerge146"><feMergeNode
         id="feMergeNode142" /><feMergeNode
         in="SourceGraphic"
         id="feMergeNode144" /></feMerge></filter><filter
     id="b"
     x="0"
     y="0"
     width="1024"
     height="1024"
     filterUnits="userSpaceOnUse"
     primitiveUnits="userSpaceOnUse"
     color-interpolation-filters="sRGB"><feGaussianBlur
       stdDeviation="18.378"
       id="feGaussianBlur151" /><feOffset
       dy="7.351"
       result="offsetblur"
       id="feOffset153" /><feFlood
       flood-color="#000"
       flood-opacity=".4"
       id="feFlood155" /><feComposite
       in2="offsetblur"
       operator="in"
       id="feComposite157" /><feMerge
       id="feMerge163"><feMergeNode
         id="feMergeNode159" /><feMergeNode
         in="SourceGraphic"
         id="feMergeNode161" /></feMerge></filter><filter
     id="c"
     x="0"
     y="0"
     width="1024"
     height="1024"
     filterUnits="userSpaceOnUse"
     primitiveUnits="userSpaceOnUse"
     color-interpolation-filters="sRGB"><feGaussianBlur
       stdDeviation="3.676"
       id="feGaussianBlur168" /><feOffset
       dx="5.198"
       dy="5.198"
       result="offsetblur"
       id="feOffset170" /><feFlood
       flood-color="#000"
       flood-opacity=".104"
       id="feFlood172" /><feComposite
       in2="offsetblur"
       operator="in"
       id="feComposite174" /><feMerge
       id="feMerge180"><feMergeNode
         id="feMergeNode176" /><feMergeNode
         in="SourceGraphic"
         id="feMergeNode178" /></feMerge></filter><filter
     id="d"
     x="0"
     y="0"
     width="1024"
     height="1024"
     filterUnits="userSpaceOnUse"
     primitiveUnits="userSpaceOnUse"
     color-interpolation-filters="sRGB"><feGaussianBlur
       stdDeviation="3.676"
       id="feGaussianBlur185" /><feOffset
       dx="5.198"
       dy="5.198"
       result="offsetblur"
       id="feOffset187" /><feFlood
       flood-color="#000"
       flood-opacity=".104"
       id="feFlood189" /><feComposite
       in2="offsetblur"
       operator="in"
       id="feComposite191" /><feMerge
       id="feMerge197"><feMergeNode
         id="feMergeNode193" /><feMergeNode
         in="SourceGraphic"
         id="feMergeNode195" /></feMerge></filter><filter
     id="e"
     x="0"
     y="0"
     width="1024"
     height="1024"
     filterUnits="userSpaceOnUse"
     primitiveUnits="userSpaceOnUse"
     color-interpolation-filters="sRGB"><feGaussianBlur
       stdDeviation="3.676"
       id="feGaussianBlur202" /><feOffset
       dx="5.198"
       dy="5.198"
       result="offsetblur"
       id="feOffset204" /><feFlood
       flood-color="#000"
       flood-opacity=".35"
       id="feFlood206" /><feComposite
       in2="offsetblur"
       operator="in"
       id="feComposite208" /><feMerge
       id="feMerge214"><feMergeNode
         id="feMergeNode210" /><feMergeNode
         in="SourceGraphic"
         id="feMergeNode212" /></feMerge></filter><filter
     id="f"
     x="0"
     y="0"
     width="1024"
     height="1024"
     filterUnits="userSpaceOnUse"
     primitiveUnits="userSpaceOnUse"
     color-interpolation-filters="sRGB"><feGaussianBlur
       stdDeviation="3.676"
       id="feGaussianBlur219" /><feOffset
       dx="5.198"
       dy="5.198"
       result="offsetblur"
       id="feOffset221" /><feFlood
       flood-color="#000"
       flood-opacity=".35"
       id="feFlood223" /><feComposite
       in2="offsetblur"
       operator="in"
       id="feComposite225" /><feMerge
       id="feMerge231"><feMergeNode
         id="feMergeNode227" /><feMergeNode
         in="SourceGraphic"
         id="feMergeNode229" /></feMerge></filter><filter
     id="g"
     x="0"
     y="0"
     width="1024"
     height="1024"
     filterUnits="userSpaceOnUse"
     primitiveUnits="userSpaceOnUse"
     color-interpolation-filters="sRGB"><feGaussianBlur
       stdDeviation="3.676"
       id="feGaussianBlur236" /><feOffset
       dx="5.198"
       dy="5.198"
       result="offsetblur"
       id="feOffset238" /><feFlood
       flood-color="#000"
       flood-opacity=".35"
       id="feFlood240" /><feComposite
       in2="offsetblur"
       operator="in"
       id="feComposite242" /><feMerge
       id="feMerge248"><feMergeNode
         id="feMergeNode244" /><feMergeNode
         in="SourceGraphic"
         id="feMergeNode246" /></feMerge></filter></svg>
