<?xml version="1.0" encoding="UTF-8" standalone="no"?>
<!-- Created with Inkscape (http://www.inkscape.org/) -->

<svg
   width="256"
   height="256"
   viewBox="0 0 256 256"
   version="1.1"
   id="root"
   xml:space="preserve"
   xmlns="http://www.w3.org/2000/svg"
   xmlns:svg="http://www.w3.org/2000/svg"
   xmlns:rdf="http://www.w3.org/1999/02/22-rdf-syntax-ns#"
   xmlns:cc="http://creativecommons.org/ns#"
   xmlns:dc="http://purl.org/dc/elements/1.1/"><defs
     id="defs4517" /><metadata
     id="metadata4520"><rdf:RDF><cc:Work
         rdf:about=""><dc:format>image/svg+xml</dc:format><dc:type
           rdf:resource="http://purl.org/dc/dcmitype/StillImage" /><dc:title /><cc:license
           rdf:resource="http://creativecommons.org/publicdomain/zero/1.0/" /></cc:Work><cc:License
         rdf:about="http://creativecommons.org/publicdomain/zero/1.0/"><cc:permits
           rdf:resource="http://creativecommons.org/ns#Reproduction" /><cc:permits
           rdf:resource="http://creativecommons.org/ns#Distribution" /><cc:permits
           rdf:resource="http://creativecommons.org/ns#DerivativeWorks" /></cc:License></rdf:RDF></metadata><g
     id="layer1"
     transform="translate(0,-229.26666)"><path
       id="path2"
       d="M 106.06004,0.00229474 C 47.34004,2.8822947 3.4119749,47.688141 0.00197488,106.18814 v 380.75101 c 2.79000002,54.54 42.59717412,98.29871 96.59717412,105.16871 4.640001,0.58667 11.292691,0.8878 19.959361,0.89447 h 74.95111 a 0.49,0.49 0 0 0 0.49068,-0.49068 L 191.90829,0.00229474 Z M 430.48016,57.007866 a 0.48,0.48 0 0 0 -0.48045,0.480456 l 0.092,592.509358 h 85.84825 c 58.7,-3.56 103.53807,-47.70675 106.05807,-106.68675 V 163.56172 c -2.15334,-35.22667 -16.57681,-63.17287 -43.27681,-83.839539 -18.8,-14.55 -42.64112,-22.704315 -66.22112,-22.714315 -27.39333,-0.01333 -54.73327,-0.01333 -82.01994,0 z M 283.75202,204.49758 a 0.5,0.62 6.9 0 0 -0.51112,0.5009 l -11.3316,55.98332 a 0.68,0.66 5.8 0 1 -0.65935,0.51624 H 230.4981 a 0.5,0.5 0 0 0 -0.49579,0.5009 v 32.00142 a 0.45,0.49 89.4 0 0 0.49579,0.44979 l 33.99991,-0.15845 a 0.49,0.39 4.3 0 1 0.5009,0.46001 l -8.54087,41.98877 a 0.74,0.64 5.2 0 1 -0.71046,0.51113 h -24.99903 a 0.75,0.75 0 0 0 -0.74624,0.74624 v 31.25007 a 0.5,0.5 0 0 0 0.49579,0.5009 h 18.75311 a 0.49,0.42 4.8 0 1 0.49067,0.5009 l -11.32137,55.84021 a 0.38,0.56 7.6 0 0 0.32711,0.65935 h 32.75278 a 0.44,0.89 9.2 0 0 0.53157,-0.74113 l 11.22937,-55.50798 a 0.62,0.77 6.3 0 1 0.61846,-0.61846 l 15.87038,-0.17378 15.07813,0.0307 a 0.63,0.63 0 0 1 0.62357,0.75135 l -10.98403,55.49776 a 0.56,0.64 6.3 0 0 0.53156,0.76157 h 31.75098 a 0.64,0.72 6.6 0 0 0.6389,-0.56735 l 11.34183,-55.93221 a 0.51,0.62 6.8 0 1 0.52134,-0.5009 h 41.24764 a 0.5,0.5 0 0 0 0.5009,-0.5009 v -31.49541 a 0.5,0.5 0 0 0 -0.5009,-0.5009 h -34.50081 a 0.44,0.41 5.3 0 1 -0.43957,-0.49068 l 8.54087,-41.94277 a 0.65,0.72 6.5 0 1 0.64913,-0.56735 h 25.75038 a 0.5,0.5 0 0 0 0.5009,-0.5009 v -31.50052 a 0.5,0.75 0 0 0 -0.5009,-0.75135 h -18.748 a 0.69,0.62 5.1 0 1 -0.69001,-0.73602 l 11.42871,-55.76354 a 0.49,0.42 4.8 0 0 -0.49068,-0.5009 h -33.24856 a 0.55,0.55 0 0 0 -0.54179,0.44468 l -11.08115,56.13666 a 0.51,0.53 6.3 0 1 -0.5009,0.41912 l -16.52973,-0.0358 -14.429,-0.16356 a 0.44,0.46 6.5 0 1 -0.41913,-0.5469 l 11.26005,-55.70221 a 0.51,0.46 5.1 0 0 -0.51112,-0.55201 z m 29.99782,89.71234 16.24861,0.10223 a 0.43,0.36 4.4 0 1 0.43957,0.42934 l -8.25975,41.98877 a 0.62,0.49 4.4 0 1 -0.5878,0.39868 l -15.56881,0.0818 -15.55348,-0.0102 a 0.44,0.38 4.7 0 1 -0.44979,-0.44979 l 8.39265,-42.07055 a 0.41,0.41 0 0 1 0.43956,-0.33223 c 4.96,0.32 9.92591,0.27533 14.89924,-0.13801 z"
       transform="matrix(0.38212411,0,0,0.38212411,9.1594016,233.07633)" /></g></svg>
