<?xml version="1.0" encoding="UTF-8" ?>
<!DOCTYPE svg PUBLIC "-//W3C//DTD SVG 1.1//EN" "http://www.w3.org/Graphics/SVG/1.1/DTD/svg11.dtd">
<svg width="421pt" height="341pt" viewBox="0 0 421 341" version="1.1" xmlns="http://www.w3.org/2000/svg">
<g id="#ffffffff">
<path fill="#ffffff" opacity="1.00" d=" M 30.39 0.00 L 298.92 0.00 C 306.88 0.51 315.08 2.55 321.39 7.66 C 325.11 10.61 327.94 15.03 327.93 19.91 C 328.14 30.50 328.15 41.09 328.21 51.69 C 345.26 50.53 362.78 53.75 377.59 62.50 C 403.42 77.12 420.49 105.81 421.00 135.50 L 421.00 139.96 C 420.37 156.95 414.62 173.75 404.35 187.34 C 391.19 205.15 370.72 217.32 348.79 220.36 C 341.51 221.52 334.13 221.11 326.80 221.24 C 326.52 233.19 327.41 245.32 324.71 257.08 C 319.82 280.16 305.18 300.38 286.44 314.36 C 262.79 332.19 233.01 340.81 203.57 341.00 L 124.58 341.00 C 96.06 340.76 67.26 332.60 43.99 315.83 C 26.59 303.38 12.43 285.84 5.88 265.32 C 2.91 256.20 1.62 246.59 1.72 237.01 C 1.75 197.98 0.91 158.96 0.42 119.94 C 0.37 115.98 0.45 112.01 0.00 108.07 L 0.00 45.98 C 0.34 37.00 0.20 28.02 0.52 19.05 C 0.73 14.55 3.46 10.58 6.84 7.79 C 13.42 2.43 22.05 0.30 30.39 0.00 M 40.72 41.70 C 37.62 44.18 35.54 48.00 35.75 52.04 C 34.69 110.02 36.78 167.99 36.81 225.98 C 37.01 247.73 48.60 268.23 65.27 281.77 C 84.37 297.60 109.34 305.40 133.98 305.56 C 154.32 305.64 174.66 305.59 195.01 305.59 C 215.57 305.69 236.34 300.72 254.02 290.05 C 271.88 279.40 286.61 262.45 291.91 242.08 C 295.12 230.66 293.97 218.71 294.22 207.00 C 294.57 155.33 296.16 103.66 295.21 51.99 C 295.47 47.44 292.72 43.36 289.15 40.80 C 283.07 36.43 275.35 35.22 268.02 35.39 C 222.60 35.51 177.16 35.20 131.75 35.55 C 131.92 59.00 131.83 82.46 131.98 105.92 C 140.48 112.12 149.04 118.24 157.58 124.39 C 161.28 127.18 165.16 130.97 165.08 135.96 C 165.10 163.68 165.17 191.41 165.05 219.13 C 164.23 226.06 156.50 230.01 150.04 229.65 C 130.34 229.59 110.63 229.73 90.92 229.58 C 84.42 229.38 77.05 224.20 77.79 217.05 C 77.83 190.04 77.77 163.02 77.82 136.01 C 77.77 129.90 83.16 125.88 87.67 122.70 C 96.23 116.55 104.93 110.56 113.25 104.09 C 113.10 81.20 113.17 58.30 113.03 35.41 C 95.70 35.39 78.37 35.40 61.04 35.41 C 53.87 35.39 46.36 37.04 40.72 41.70 M 330.71 92.88 C 330.65 122.25 330.53 151.62 330.30 180.98 C 344.28 182.71 359.30 178.43 369.28 168.25 C 375.28 162.30 378.67 154.25 380.53 146.13 C 384.09 128.49 375.97 109.16 360.88 99.37 C 352.10 93.47 341.06 91.89 330.71 92.88 Z" />
</g>
<g id="#7bb2f7ff">
<path fill="#7bb2f7" opacity="1.00" d=" M 40.72 41.70 C 46.36 37.04 53.87 35.39 61.04 35.41 C 78.37 35.40 95.70 35.39 113.03 35.41 C 113.17 58.30 113.10 81.20 113.25 104.09 C 104.93 110.56 96.23 116.55 87.67 122.70 C 83.16 125.88 77.77 129.90 77.82 136.01 C 77.77 163.02 77.83 190.04 77.79 217.05 C 77.05 224.20 84.42 229.38 90.92 229.58 C 110.63 229.73 130.34 229.59 150.04 229.65 C 156.50 230.01 164.23 226.06 165.05 219.13 C 165.17 191.41 165.10 163.68 165.08 135.96 C 165.16 130.97 161.28 127.18 157.58 124.39 C 149.04 118.24 140.48 112.12 131.98 105.92 C 131.83 82.46 131.92 59.00 131.75 35.55 C 177.16 35.20 222.60 35.51 268.02 35.39 C 275.35 35.22 283.07 36.43 289.15 40.80 C 292.72 43.36 295.47 47.44 295.21 51.99 C 296.16 103.66 294.57 155.33 294.22 207.00 C 293.97 218.71 295.12 230.66 291.91 242.08 C 286.61 262.45 271.88 279.40 254.02 290.05 C 236.34 300.72 215.57 305.69 195.01 305.59 C 174.66 305.59 154.32 305.64 133.98 305.56 C 109.34 305.40 84.37 297.60 65.27 281.77 C 48.60 268.23 37.01 247.73 36.81 225.98 C 36.78 167.99 34.69 110.02 35.75 52.04 C 35.54 48.00 37.62 44.18 40.72 41.70 Z" />
</g>
</svg>
