<?xml version="1.0" encoding="UTF-8" standalone="no"?>
<!-- vectorico.com  -->

<svg
   version="1.1"
   id="amazon"
   x="0px"
   y="0px"
   viewBox="0 0 88.582565 94.933182"
   xml:space="preserve"
   sodipodi:docname="amazon-icon.svg"
   width="88.582565"
   height="94.933182"
   inkscape:version="1.1.2 (0a00cf5339, 2022-02-04)"
   xmlns:inkscape="http://www.inkscape.org/namespaces/inkscape"
   xmlns:sodipodi="http://sodipodi.sourceforge.net/DTD/sodipodi-0.dtd"
   xmlns="http://www.w3.org/2000/svg"
   xmlns:svg="http://www.w3.org/2000/svg"><defs
   id="defs13" /><sodipodi:namedview
   id="namedview11"
   pagecolor="#ffffff"
   bordercolor="#666666"
   borderopacity="1.0"
   inkscape:pageshadow="2"
   inkscape:pageopacity="0.0"
   inkscape:pagecheckerboard="0"
   showgrid="false"
   width="256px"
   inkscape:zoom="1.09125"
   inkscape:cx="-252.92096"
   inkscape:cy="-21.993127"
   inkscape:window-width="2560"
   inkscape:window-height="1371"
   inkscape:window-x="0"
   inkscape:window-y="32"
   inkscape:window-maximized="1"
   inkscape:current-layer="amazon"
   fit-margin-top="0"
   fit-margin-left="0"
   fit-margin-right="0"
   fit-margin-bottom="0" />
<style
   type="text/css"
   id="style2">
	.st0{fill:#F39700;}
</style>
<path
   class="st0"
   d="m 0.075,73.50313 c 8.5,9.9 19.9,17 32.6,20.3 11.4,2.3 23.3,1.1 33.9,-3.7 5.3,-2.4 10.1,-5.8 14.2,-10 0.4,-0.6 0.2,-1.4 -0.4,-1.8 -0.5,-0.2 -1.2,-0.2 -1.7,0 -7.8,4 -16.2,6.8 -24.8,8.3 -9.1,1 -18.3,0.4 -27.1,-1.9 -9,-3 -17.6,-7.3 -25.4,-12.8 -0.6,-0.2 -1.2,0.1 -1.3,0.7 -0.1,0.4 -0.1,0.7 0,0.9 z"
   id="path4" />
<path
   class="st0"
   d="m 72.175,75.60313 c 3.4,-0.7 6.9,-0.8 10.4,-0.5 0,0 0.1,0 0.1,0 1.1,0.3 1.8,1.4 1.6,2.6 -0.7,3.4 -1.8,6.7 -3.2,9.8 -0.1,0.3 0.1,0.6 0.4,0.7 0.2,0.1 0.3,0 0.5,-0.1 4.2,-3.3 6.6,-8.3 6.6,-13.7 0.1,-1.4 -0.8,-2.6 -2.2,-2.8 -5.1,-0.9 -10.3,0.2 -14.7,3 -0.2,0.2 -0.3,0.5 -0.1,0.8 0.2,0.2 0.4,0.3 0.6,0.2 z"
   id="path6" />
<path
   d="m 54.575,62.10313 c -1.8,2 -3.9,3.8 -6.2,5.4 -4.3,2.5 -9.2,3.9 -14.2,4 -4.4,-0.1 -8.7,-1.6 -12.2,-4.2 -5.9,-5.4 -8.2,-13.6 -5.8,-21.3 2.2,-6.7 7.3,-12.1 13.9,-14.6 7.2,-2.2 14.7,-3.3 22.3,-3.3 v -7.9 c -0.5,-3.6 -3.4,-6.4 -7,-6.8 -2.3,-0.3 -4.5,0 -6.6,0.9 -3,1.4 -5.1,4.1 -5.8,7.4 -0.5,1 -1.6,1.6 -2.7,1.4 0,0 -10.8,-1 -10.8,-1 -1,-0.3 -1.7,-1.1 -1.8,-2.2 0.8,-5.4 3.6,-10.1000005 7.7,-13.5000005 5.5,-4.2 12.3,-6.49999996 19.3,-6.39999996 6.4,0.1 12.7,2.09999996 18,5.89999996 4.4,3.7 6.8,9.2000005 6.5,14.9000005 v 27.3 c 0.1,2.3 0.7,4.6 1.7,6.6 l 3.4,4.9 c 0.4,0.8 0.4,1.6 0,2.4 l -10,8.5 c -0.9,0.5 -1.9,0.4 -2.7,-0.1 -2.6,-2.5 -5,-5.3 -7,-8.3 z m -2.3,-24.8 c -3.1,-0.1 -6.3,0.1 -9.4,0.6 -3.8,0.8 -7,3.3 -8.9,6.7 -1.5,3.7 -1.3,7.9 0.7,11.5 2.4,3 6.5,4 10,2.6 4.1,-2.6 6.9,-6.9 7.6,-11.8 v -9.6"
   id="path8" />
</svg>
