<?xml version="1.0" encoding="UTF-8" standalone="no"?>
<svg
   width="224.34299pt"
   height="193.16287pt"
   viewBox="0 0 224.34299 193.16287"
   version="1.1"
   id="svg3"
   sodipodi:docname="clipboardyd.svg"
   inkscape:export-filename="clipboardyd.png"
   inkscape:export-xdpi="23.855515"
   inkscape:export-ydpi="23.855515"
   inkscape:version="1.4.2 (ebf0e940d0, 2025-05-08)"
   xmlns:inkscape="http://www.inkscape.org/namespaces/inkscape"
   xmlns:sodipodi="http://sodipodi.sourceforge.net/DTD/sodipodi-0.dtd"
   xmlns="http://www.w3.org/2000/svg"
   xmlns:svg="http://www.w3.org/2000/svg">
  <defs
     id="defs3" />
  <sodipodi:namedview
     id="namedview3"
     pagecolor="#505050"
     bordercolor="#ffffff"
     borderopacity="1"
     inkscape:showpageshadow="0"
     inkscape:pageopacity="0"
     inkscape:pagecheckerboard="1"
     inkscape:deskcolor="#505050"
     inkscape:document-units="pt"
     inkscape:zoom="1.554878"
     inkscape:cx="120.9098"
     inkscape:cy="105.79608"
     inkscape:window-width="1920"
     inkscape:window-height="1052"
     inkscape:window-x="0"
     inkscape:window-y="0"
     inkscape:window-maximized="1"
     inkscape:current-layer="svg3" />
  <g
     id="#f6f6f6ff"
     transform="translate(-319.30577,-40.627134)" />
  <g
     id="#f8000eff"
     transform="translate(-319.30577,-40.627134)">
    <path
       fill="#f8000e"
       opacity="1"
       d="m 398.71,40.73 c 4.91,-0.04 9.83,-0.02 14.76,-0.02 0.24,16.02 0.16,32.07 -0.97,48.05 -1.46,23.97 -3.77,48.37 -12.56,70.94 -8.43,21.87 -21.38,42.63 -39.97,57.25 -11.66,9.13 -25.76,15.5 -40.58,16.84 -0.14,-15.87 -0.07,-31.75 -0.04,-47.62 12.56,-2.17 24.02,-8.31 34.41,-15.46 15.17,-10.46 27.96,-25.05 34.05,-42.63 9.92,-27.95 10.8,-58 10.9,-87.35 z"
       id="path1" />
    <path
       fill="#f8000e"
       opacity="1"
       d="m 422.82,40.93 c 5.84,-0.21 11.78,-0.71 17.57,0.35 0,19.58 0.2,39.15 0.29,58.72 1.3,26.85 0.44,53.93 4.95,80.53 3.03,18.45 8.08,36.82 17.46,53.11 -20.37,0.16 -40.73,0.1 -61.1,0.03 10.34,-18.98 14.82,-40.46 17.46,-61.72 1.27,-12.12 2.2,-24.28 2.26,-36.47 1.36,-31.49 0.44,-63.05 1.11,-94.55 z"
       id="path2" />
    <path
       fill="#f8000e"
       opacity="1"
       d="m 449.34,41.08 c 4.78,-0.6 9.64,-0.53 14.44,-0.08 1.17,10.64 -0.02,21.42 1.2,32.07 1.36,21.33 4.28,43.06 13.23,62.69 8.31,17.66 23.45,31.23 40.16,40.85 7.83,4.3 16.12,8.28 25.11,9.33 0.31,15.94 0.1,31.88 0.09,47.83 -17.48,-1.48 -33.8,-10 -46.58,-21.78 -18.65,-17.21 -31.03,-40.33 -38.26,-64.45 -6.32,-22.28 -7.71,-45.54 -9.04,-68.53 -0.26,-12.64 -0.52,-25.29 -0.35,-37.93 z"
       id="path3" />
  </g>
</svg>
