<?xml version="1.0" encoding="UTF-8" standalone="no"?>
<svg
   width="235.94615pt"
   height="234.91457pt"
   viewBox="0 0 235.94615 234.91457"
   version="1.1"
   id="svg51"
   sodipodi:docname="basilisk.svg"
   inkscape:version="1.4.2 (ebf0e940d0, 2025-05-08)"
   xmlns:inkscape="http://www.inkscape.org/namespaces/inkscape"
   xmlns:sodipodi="http://sodipodi.sourceforge.net/DTD/sodipodi-0.dtd"
   xmlns="http://www.w3.org/2000/svg"
   xmlns:svg="http://www.w3.org/2000/svg">
  <defs
     id="defs51" />
  <sodipodi:namedview
     id="namedview51"
     pagecolor="#505050"
     bordercolor="#ffffff"
     borderopacity="1"
     inkscape:showpageshadow="0"
     inkscape:pageopacity="0"
     inkscape:pagecheckerboard="1"
     inkscape:deskcolor="#505050"
     inkscape:document-units="pt"
     inkscape:zoom="2.4726563"
     inkscape:cx="152.66983"
     inkscape:cy="157.72512"
     inkscape:window-width="1920"
     inkscape:window-height="1052"
     inkscape:window-x="0"
     inkscape:window-y="0"
     inkscape:window-maximized="1"
     inkscape:current-layer="svg51" />
  <g
     id="#4a4a4aff"
     transform="translate(-13.631762,-9.71)">
    <path
       fill="#4a4a4a"
       opacity="1"
       d="m 156.28,9.71 c 2.69,1.95 5.15,4.19 7.73,6.29 -3.35,4.81 -7.41,9.12 -10.35,14.21 -12.71,9.05 -20.81,23.69 -22.77,39.08 -9.22,20.13 -15.65,41.8 -17.21,63.94 11.53,-0.06 23.06,0.07 34.59,-0.06 -4.57,2.9 -8.47,6.68 -12.13,10.62 -10.98,-0.2 -21.97,-0.05 -32.95,-0.08 -0.28,-3.41 -0.52,-6.83 -0.35,-10.25 1.18,-2.7 1.17,-5.66 1.35,-8.54 1.69,-19.01 7.24,-37.47 14.6,-55.01 4.05,-10.7 9.8,-20.63 15.93,-30.25 0.38,-0.52 0.76,-1.05 1.14,-1.57 6.21,-9.87 13.03,-19.36 20.42,-28.38 z"
       id="path1" />
    <path
       fill="#4a4a4a"
       opacity="1"
       d="m 120.24,40.85 c 2.41,-0.07 5,-0.49 7.24,0.7 1.98,1.79 0.1,4.25 -0.54,6.21 -2.08,4.33 -2.73,9.67 -6.82,12.73 -1.66,-2.06 -3.44,-4.02 -5.34,-5.86 1.77,-4.61 3.65,-9.18 5.46,-13.78 z"
       id="path2" />
    <path
       fill="#4a4a4a"
       opacity="1"
       d="m 28.06,48.53 c 18.54,-2.44 37.32,-1.21 55.96,-1.51 6.64,0.52 13.88,-0.58 19.92,2.79 -0.32,1.63 -0.62,3.25 -0.95,4.88 -16.68,-0.4 -33.36,-0.03 -50.04,-0.19 -6.67,-0.21 -13.18,1.66 -19.8,2.07 -3.97,-0.31 -3.96,-5.19 -5.09,-8.04 z"
       id="path3" />
    <path
       fill="#4a4a4a"
       opacity="1"
       d="m 165.01,65.17 c 3.82,0.11 7.64,-0.05 11.47,0.17 0.05,8.44 0.05,16.88 0,25.32 -3.84,0.22 -7.68,0.07 -11.52,0.15 0.06,-8.55 -0.04,-17.09 0.05,-25.64 z"
       id="path4" />
    <path
       fill="#4a4a4a"
       opacity="1"
       d="m 160.58,167.21 c 12.77,-2.27 24.99,-6.73 36.97,-11.59 2.05,2.76 4.02,5.57 5.98,8.39 -1.15,0.71 -2.29,1.44 -3.53,1.98 -13.82,6.03 -28.4,10.29 -43.26,12.81 -1.42,0.2 -2.84,0.43 -4.2,0.86 -1.87,0.35 -3.78,0.39 -5.67,0.46 0.47,3.28 1.08,6.55 1.17,9.88 0.15,4.84 1.7,9.49 2.05,14.31 -5.94,-9.19 -6.52,-20.75 -6.02,-31.39 0.59,-5.51 1.49,-11.17 3.98,-16.18 0.03,1.82 0.11,3.63 0.03,5.45 -0.7,2.22 -1.05,4.53 -1.19,6.85 2.32,0.08 4.63,-0.22 6.84,-0.97 2.29,-0.2 4.6,-0.32 6.85,-0.86 z"
       id="path5" />
    <path
       fill="#4a4a4a"
       opacity="1"
       d="m 80.35,163.38 c 0.31,0.09 0.91,0.27 1.21,0.36 2.77,0.85 5.64,1.5 8.12,3.06 -1.24,2.8 -1.48,6.3 -3.61,8.55 -3.14,0.61 -6.25,-0.6 -8.83,-2.31 0.97,-3.24 2.01,-6.46 3.11,-9.66 z"
       id="path6" />
    <path
       fill="#4a4a4a"
       opacity="1"
       d="m 143.04,217.98 c 4.31,3.55 8.84,6.97 14.02,9.16 1.52,3.43 3,6.88 4.7,10.23 -3.02,1.73 -6.06,3.42 -9.05,5.2 -4.03,-7.84 -7.18,-16.14 -9.67,-24.59 z"
       id="path7" />
  </g>
  <g
     id="#f64a05fb"
     transform="translate(-13.631762,-9.71)">
    <path
       fill="#f64a05"
       opacity="1"
       d="m 153.66,30.21 c 15.56,-11.08 37.54,-12.61 54.32,-3.4 5.8,3.04 10.21,8.01 14.65,12.71 l 0.45,0.47 c 3.14,4.9 5.77,10.12 7.46,15.71 2.19,10.83 2.04,22.54 -3.12,32.55 -2.97,4.78 -6.53,9.25 -10.93,12.8 -5.31,4.7 -11.41,8.35 -17.23,12.34 1.29,0.82 2.6,1.62 3.92,2.4 3.87,2.11 7.74,4.21 11.54,6.44 2.9,2 5.54,4.34 8.18,6.67 4.69,5.79 8.64,12.13 11.2,19.16 0.18,0.46 0.54,1.37 0.72,1.82 2.37,11.85 2.98,24.22 0.02,36.04 -0.74,2.6 -1.67,5.14 -2.46,7.73 -2.9,7.07 -7.31,13.36 -12.15,19.23 -9.07,9.9 -21.41,17.05 -34.89,18.49 -9.58,0.66 -19.47,-0.1 -28.28,-4.23 -5.18,-2.19 -9.71,-5.61 -14.02,-9.16 -1.79,-1.61 -3.45,-3.36 -4.99,-5.21 -7.53,-8.87 -12.16,-20.14 -12.84,-31.76 -0.23,-3.58 -0.16,-7.17 0.19,-10.73 0.92,-9.64 4.63,-18.97 10.74,-26.49 3.66,-3.94 7.56,-7.72 12.13,-10.62 2.85,-1.75 5.72,-3.49 8.66,-5.1 1.62,-0.93 3.17,-1.99 4.69,-3.08 -4.18,-4 -10.12,-5.44 -14.65,-9.05 C 133.43,104.8 129.08,86.11 130.89,69.29 132.85,53.9 140.95,39.26 153.66,30.21 m 16.69,-5.67 c -14.93,3.87 -27.15,15.52 -33.36,29.44 -5.27,13.15 -5.92,28.22 -1.59,41.73 3.58,10.51 11.51,19.64 21.82,23.96 2.61,1.08 5.19,2.59 6.32,5.33 -1.24,2.93 -4.4,3.98 -6.9,5.53 -8.37,4.53 -16.48,10.21 -21.77,18.28 -8.16,12 -9.2,27.55 -6.31,41.43 2.77,12.37 10.92,22.89 20.95,30.35 9.04,6.57 20.45,9.25 31.51,8.78 12.68,0 25.1,-5.4 34.03,-14.32 12.27,-11.17 19.68,-27.4 19.8,-44.02 0.64,-14.24 -3,-29.34 -12.88,-40.02 -5.86,-6.59 -13.96,-10.43 -21.57,-14.56 -1.43,-0.8 -3.9,-2.36 -2.21,-4.17 4.46,-4.39 10.3,-7.02 15.05,-11.07 6.35,-5.51 12.77,-11.78 14.99,-20.18 2.68,-10.03 2.1,-20.97 -1.65,-30.65 -5.15,-12.16 -15.79,-22.12 -28.65,-25.56 -8.95,-2.44 -18.56,-2.35 -27.58,-0.28 z"
       id="path8" />
    <path
       fill="#f64a05"
       opacity="1"
       d="m 13.78,28 c -0.14,-3.28 3.29,-5.24 6.24,-4.78 24.63,1.65 49.33,0.82 73.99,1.02 8.36,0.22 16.69,-0.72 25.04,-0.75 2.16,0.28 5.48,0.84 5.71,3.56 0.22,2.12 -0.93,4.06 -1.55,6.03 -0.83,2.15 -1.6,4.33 -2.44,6.48 -0.14,0.32 -0.4,0.96 -0.53,1.29 -1.81,4.6 -3.69,9.17 -5.46,13.78 -0.76,1.95 -1.48,3.9 -2.2,5.86 -12.35,33.79 -23.96,67.86 -36.03,101.75 -1.19,3.35 -2.38,6.7 -3.54,10.06 -4.61,13.23 -9.12,26.49 -13.35,39.85 l -0.26,0.72 c -1.75,5.04 -2.96,10.32 -5.3,15.14 -2.45,2.88 -9.36,3.34 -10.34,-1.08 1.11,-4.85 3.06,-9.47 4.65,-14.19 5.26,-14.48 10.33,-29.03 15.4,-43.58 1.16,-3.31 2.32,-6.63 3.47,-9.94 8.8,-25.19 17.61,-50.37 26.39,-75.56 2.77,-7.91 5.62,-15.79 8,-23.83 0.49,-1.7 0.95,-3.41 1.32,-5.14 0.33,-1.63 0.63,-3.25 0.95,-4.88 -6.04,-3.37 -13.28,-2.27 -19.92,-2.79 -18.64,0.3 -37.42,-0.93 -55.96,1.51 -1.53,0.25 -3.05,0.51 -4.57,0.82 -0.47,0.13 -1.42,0.38 -1.89,0.5 -1.83,0.53 -3.67,1.02 -5.55,1.31 C 14.26,43.6 13.23,35.77 13.78,28 m 2.11,0.03 c -0.04,6.92 -0.65,14.38 2.12,20.84 12.24,-3.93 25.2,-3.65 37.9,-3.87 13.55,0.15 27.12,-0.33 40.65,0.56 3.14,0.61 7.08,0.86 9.03,3.8 0.38,2.25 -0.34,4.51 -0.81,6.69 -3.1,12.24 -7.85,23.97 -11.84,35.93 -15.18,42.89 -29.74,85.99 -45.3,128.73 -0.79,2.31 -1.75,4.63 -1.67,7.12 2.28,-0.06 6.09,1.19 6.96,-1.81 2.63,-6.4 4.11,-13.18 6.4,-19.69 14.61,-44 30.57,-87.52 45.74,-131.32 5.1,-14.86 11.27,-29.32 16.85,-44 0.59,-1.63 1.91,-4.94 -0.91,-5.18 -7.99,-0.69 -16.03,0.51 -24.04,0.35 -25.65,-0.24 -51.32,0.6 -76.94,-0.95 -1.96,-0.35 -4.33,0.36 -4.14,2.8 z"
       id="path9" />
    <path
       fill="#f64a05"
       opacity="1"
       d="m 179.26,27.5 c 9.01,-0.15 18.03,3.42 24.37,9.85 8.75,8.36 13.25,20.65 12.79,32.66 0.44,11.75 -4.45,23.48 -12.81,31.69 -4.54,5.11 -10.79,9.11 -17.73,9.58 -4.88,-0.06 -9.3,-2.47 -13.56,-4.59 -8.47,-4.28 -16.4,-10.3 -21.09,-18.71 -6.84,-12.36 -7.13,-28.11 -0.97,-40.78 5.24,-11.07 16.32,-19.98 29,-19.7 m -21.7,12.04 c -4.27,5.37 -7.83,11.59 -8.61,18.52 -1.33,3.3 -1.02,7.12 -0.81,10.63 -0.18,8.86 3.18,18.24 9.49,24.58 2.19,2.89 5,5.42 8.19,7.19 5.56,3.75 11.54,7.31 18.2,8.61 6.74,0.71 12.52,-3.51 17.35,-7.66 6.15,-6.46 11.22,-14.34 12.55,-23.31 1.54,-10.6 0.44,-22.1 -5.39,-31.32 -1.35,-2.75 -3.53,-4.94 -5.42,-7.32 -4.82,-4.61 -10.85,-8.58 -17.61,-9.27 -10.15,-2.14 -21.17,1.46 -27.94,9.35 z"
       id="path10" />
    <path
       fill="#f64a05"
       opacity="1"
       d="m 175.23,126.47 c 3.9,0.04 7.5,1.84 11,3.39 6.94,3.75 13.69,8.05 19.35,13.6 9.19,9.31 13.83,22.53 13.42,35.52 0.32,14.05 -5.37,28.63 -16.53,37.49 -12.79,10.38 -33.27,11.04 -45.68,-0.32 -10.5,-9.18 -15,-23.57 -14.82,-37.2 -0.43,-14.44 5.02,-28.72 14.14,-39.8 4.71,-6.1 11.16,-11.84 19.12,-12.68 m -10.06,6.57 c -4.25,3.7 -8.29,7.75 -11.26,12.57 -2.57,3.25 -4.67,7.12 -5.86,11.13 -2.49,5.01 -3.39,10.67 -3.98,16.18 -0.5,10.64 0.08,22.2 6.02,31.39 1.22,2.96 3.35,5.56 5.56,7.87 l 0.16,0.6 c 4.62,4.03 9.84,7.72 15.99,8.83 10.97,2.06 23.73,-0.28 31.43,-8.89 7.13,-5.69 11.39,-14.81 12.97,-23.78 2.09,-12.53 0.7,-26.09 -6.27,-36.96 l -0.44,-0.2 c -1.09,-3.04 -3.77,-4.99 -5.89,-7.27 -3.96,-4.19 -8.84,-7.36 -13.75,-10.32 l -0.51,0.03 c -4.47,-3.21 -10.12,-6.25 -15.77,-5.31 -2.97,0.78 -6.44,1.92 -8.4,4.13 z"
       id="path11" />
  </g>
  <g
     id="#ff8a00ff"
     transform="translate(-13.631762,-9.71)">
    <path
       fill="#ff8a00"
       opacity="1"
       d="m 170.35,24.54 c 9.02,-2.07 18.63,-2.16 27.58,0.28 12.86,3.44 23.5,13.4 28.65,25.56 3.75,9.68 4.33,20.62 1.65,30.65 -2.22,8.4 -8.64,14.67 -14.99,20.18 -4.75,4.05 -10.59,6.68 -15.05,11.07 -1.69,1.81 0.78,3.37 2.21,4.17 7.61,4.13 15.71,7.97 21.57,14.56 9.88,10.68 13.52,25.78 12.88,40.02 -0.12,16.62 -7.53,32.85 -19.8,44.02 -8.93,8.92 -21.35,14.32 -34.03,14.32 -11.06,0.47 -22.47,-2.21 -31.51,-8.78 -10.03,-7.46 -18.18,-17.98 -20.95,-30.35 -2.89,-13.88 -1.85,-29.43 6.31,-41.43 5.29,-8.07 13.4,-13.75 21.77,-18.28 2.5,-1.55 5.66,-2.6 6.9,-5.53 -1.13,-2.74 -3.71,-4.25 -6.32,-5.33 -10.31,-4.32 -18.24,-13.45 -21.82,-23.96 -4.33,-13.51 -3.68,-28.58 1.59,-41.73 6.21,-13.92 18.43,-25.57 33.36,-29.44 m 8.91,2.96 c -12.68,-0.28 -23.76,8.63 -29,19.7 -6.16,12.67 -5.87,28.42 0.97,40.78 4.69,8.41 12.62,14.43 21.09,18.71 4.26,2.12 8.68,4.53 13.56,4.59 6.94,-0.47 13.19,-4.47 17.73,-9.58 8.36,-8.21 13.25,-19.94 12.81,-31.69 0.46,-12.01 -4.04,-24.3 -12.79,-32.66 -6.34,-6.43 -15.36,-10 -24.37,-9.85 m -4.03,98.97 c -7.96,0.84 -14.41,6.58 -19.12,12.68 -9.12,11.08 -14.57,25.36 -14.14,39.8 -0.18,13.63 4.32,28.02 14.82,37.2 12.41,11.36 32.89,10.7 45.68,0.32 11.16,-8.86 16.85,-23.44 16.53,-37.49 0.41,-12.99 -4.23,-26.21 -13.42,-35.52 -5.66,-5.55 -12.41,-9.85 -19.35,-13.6 -3.5,-1.55 -7.1,-3.35 -11,-3.39 z"
       id="path12" />
    <path
       fill="#ff8a00"
       opacity="1"
       d="m 15.89,28.03 c -0.19,-2.44 2.18,-3.15 4.14,-2.8 25.62,1.55 51.29,0.71 76.94,0.95 8.01,0.16 16.05,-1.04 24.04,-0.35 2.82,0.24 1.5,3.55 0.91,5.18 -5.58,14.68 -11.75,29.14 -16.85,44 -15.17,43.8 -31.13,87.32 -45.74,131.32 -2.29,6.51 -3.77,13.29 -6.4,19.69 -0.87,3 -4.68,1.75 -6.96,1.81 -0.08,-2.49 0.88,-4.81 1.67,-7.12 15.56,-42.74 30.12,-85.84 45.3,-128.73 3.99,-11.96 8.74,-23.69 11.84,-35.93 0.47,-2.18 1.19,-4.44 0.81,-6.69 -1.95,-2.94 -5.89,-3.19 -9.03,-3.8 C 83.03,44.67 69.46,45.15 55.91,45 43.21,45.22 30.25,44.94 18.01,48.87 15.24,42.41 15.85,34.95 15.89,28.03 Z"
       id="path13" />
  </g>
  <g
     id="#00000049"
     transform="translate(-13.631762,-9.71)">
    <path
       fill="#000000"
       opacity="0.29"
       d="m 185.5,30.19 c 6.76,0.69 12.79,4.66 17.61,9.27 -12.01,0.08 -24.02,-0.01 -36.03,0.05 -0.2,-0.33 -0.61,-1 -0.82,-1.33 5.89,-3.9 12.75,-5.49 19.24,-7.99 z"
       id="path14" />
    <path
       fill="#000000"
       opacity="0.29"
       d="m 120.77,39.56 c 0.84,-2.15 1.61,-4.33 2.44,-6.48 4.59,0.61 9.59,1 12.65,5.01 -0.38,0.52 -0.76,1.05 -1.14,1.57 -4.65,-0.25 -9.31,-0.2 -13.95,-0.1 z"
       id="path15" />
    <path
       fill="#000000"
       opacity="0.29"
       d="m 234.5,49.94 c 2.33,1.18 3.37,3.72 4.63,5.87 7.4,14.82 7.86,33.78 -1.4,47.91 -0.8,1.47 -1.95,2.7 -3.28,3.71 0.07,-2.68 0.16,-5.36 0.17,-8.05 4.21,-5.46 5.37,-12.64 5.09,-19.38 -0.04,-7.28 -0.3,-15.53 -5.23,-21.36 0.08,-2.49 0.06,-4.98 0.03,-7.47 z"
       id="path16" />
    <path
       fill="#000000"
       opacity="0.29"
       d="m 234.45,138.88 c 3.55,1.61 5.03,5.45 7.15,8.45 4.53,6.78 6.35,14.88 7.82,22.78 0.29,4.62 -0.02,9.27 0.14,13.9 0.27,8.18 -2.56,15.98 -5.23,23.59 -7.48,16.1 -21.18,29.87 -38.49,34.91 -8.43,2.06 -17.31,2.97 -25.86,1.09 -6.57,-0.33 -12.35,-3.64 -18.22,-6.23 -1.7,-3.35 -3.18,-6.8 -4.7,-10.23 8.81,4.13 18.7,4.89 28.28,4.23 2.42,1.87 5.61,1.2 8.42,1.07 12,-1 22.9,-8.91 28.22,-19.62 1.31,-0.02 2.63,-0.04 3.95,-0.06 2.89,0.05 5.78,0.08 8.68,0.04 -0.01,-0.61 -0.01,-1.82 -0.01,-2.43 3.41,-3.07 4.69,-7.61 6.02,-11.84 4.65,-14.86 3.95,-31.78 -3.35,-45.68 -0.71,-1.04 -1.1,-2.62 -2.45,-2.97 -0.14,-3.67 -0.46,-7.33 -0.37,-11 z"
       id="path17" />
    <path
       fill="#000000"
       opacity="0.29"
       d="m 62.05,212.82 c 4.29,-0.12 8.58,-0.08 12.87,-0.04 -2.22,7.07 -4.58,14.1 -6.95,21.12 -1.11,3.43 -4.04,7.17 -8.06,6.51 -4.15,0.37 -5.06,-4.66 -4.47,-7.78 1.69,-6.76 4.93,-13.04 6.61,-19.81 z"
       id="path18" />
  </g>
  <g
     id="#e3e3e3ff"
     transform="translate(-13.631762,-9.71)">
    <path
       fill="#e3e3e3"
       opacity="1"
       d="m 222.63,39.52 c 3.96,0.01 7.91,-0.03 11.87,-0.02 0.01,3.48 -0.03,6.96 0,10.44 l 0.01,1.23 c -1.17,-3.95 -4.58,-6.5 -7.34,-9.3 -1.04,-1.21 -2.68,-1.38 -4.09,-1.88 z"
       id="path19" />
    <path
       fill="#e3e3e3"
       opacity="1"
       d="m 148.95,58.06 c 0.78,-6.93 4.34,-13.15 8.61,-18.52 3.17,-0.03 6.35,-0.02 9.52,-0.03 -7.45,4.68 -13.15,11.4 -18.13,18.55 z"
       id="path20" />
    <path
       fill="#e3e3e3"
       opacity="1"
       d="m 176.65,45.62 c 7.65,-4.46 17.28,-5.02 25.41,-1.56 2.1,1.03 4.22,2.05 6.47,2.72 5.83,9.22 6.93,20.72 5.39,31.32 -1.33,8.97 -6.4,16.85 -12.55,23.31 -4.83,4.15 -10.61,8.37 -17.35,7.66 -6.66,-1.3 -12.64,-4.86 -18.2,-8.61 -0.46,-4.02 -3.21,-7.21 -4.18,-11.07 -1.67,-5.26 -1.26,-10.84 -1.2,-16.27 0.79,-11.02 6.92,-21.49 16.21,-27.5 m -11.64,19.55 c -0.09,8.55 0.01,17.09 -0.05,25.64 3.84,-0.08 7.68,0.07 11.52,-0.15 0.05,-8.44 0.05,-16.88 0,-25.32 -3.83,-0.22 -7.65,-0.06 -11.47,-0.17 z"
       id="path21" />
    <path
       fill="#e3e3e3"
       opacity="1"
       d="m 113.68,133.23 c 1.56,-22.14 7.99,-43.81 17.21,-63.94 -1.81,16.82 2.54,35.51 16.08,46.65 2.12,4.94 6.41,8.28 9.96,12.13 -2.94,1.61 -5.81,3.35 -8.66,5.1 -11.53,0.13 -23.06,0 -34.59,0.06 z"
       id="path22" />
    <path
       fill="#e3e3e3"
       opacity="1"
       d="m 199.26,113.39 c 5.82,-3.99 11.92,-7.64 17.23,-12.34 0.17,1.24 0.29,2.61 -0.62,3.62 -3.36,4.53 -7.51,8.71 -12.69,11.12 -1.32,-0.78 -2.63,-1.58 -3.92,-2.4 z"
       id="path23" />
    <path
       fill="#e3e3e3"
       opacity="1"
       d="m 226.25,113.36 c 2.96,-2.28 5.44,-5.09 8.16,-7.64 0.01,0.43 0.03,1.28 0.04,1.71 0.07,10.48 0.08,20.97 0,31.45 -0.09,3.67 0.23,7.33 0.37,11 -0.18,-0.45 -0.54,-1.36 -0.72,-1.82 -0.27,-4.32 1.19,-10.13 -3.04,-12.98 -2.62,-2.2 -5.36,-4.23 -8.16,-6.18 -2.64,-2.33 -5.28,-4.67 -8.18,-6.67 3.33,-3.59 7.76,-5.81 11.53,-8.87 z"
       id="path24" />
    <path
       fill="#e3e3e3"
       opacity="1"
       d="m 153.91,145.61 c 2.97,-4.82 7.01,-8.87 11.26,-12.57 0.66,1.05 1.35,2.07 2.06,3.09 -3.21,4.52 -8.55,6.94 -13.32,9.48 z"
       id="path25" />
    <path
       fill="#e3e3e3"
       opacity="1"
       d="m 172.71,148.67 c 4.17,-4.25 9.71,-8.14 15.99,-7.24 7.89,1.14 13.85,6.99 20.79,10.35 l 0.44,0.2 c 6.97,10.87 8.36,24.43 6.27,36.96 -1.58,8.97 -5.84,18.09 -12.97,23.78 -13.77,0.1 -27.53,-0.05 -41.3,0.07 -2.15,-2.48 -3.42,-5.56 -4.07,-8.75 -2.2,-8.23 -1.49,-16.83 -1.12,-25.24 14.86,-2.52 29.44,-6.78 43.26,-12.81 1.24,-0.54 2.38,-1.27 3.53,-1.98 -1.96,-2.82 -3.93,-5.63 -5.98,-8.39 -11.98,4.86 -24.2,9.32 -36.97,11.59 2.63,-6.98 7.05,-13.14 12.13,-18.54 z"
       id="path26" />
  </g>
  <g
     id="#6e6e6eff"
     transform="translate(-13.631762,-9.71)">
    <path
       fill="#6e6e6e"
       opacity="1"
       d="m 120.24,40.85 c 0.13,-0.33 0.39,-0.97 0.53,-1.29 4.64,-0.1 9.3,-0.15 13.95,0.1 -6.13,9.62 -11.88,19.55 -15.93,30.25 -7.36,17.54 -12.91,36 -14.6,55.01 -0.18,2.88 -0.17,5.84 -1.35,8.54 -0.08,-1.48 -0.16,-2.96 -0.25,-4.43 -1.66,7.03 -4.86,13.55 -6.87,20.48 -1.49,5.22 -4.23,10.05 -5.26,15.39 -0.06,1.34 1.45,1.5 2.39,1.8 10.65,2.49 21.6,3.83 32.55,3.58 -0.35,3.56 -0.42,7.15 -0.19,10.73 -7.77,-0.05 -15.52,-0.75 -23.21,-1.83 -4.84,-0.6 -9.58,-2.3 -14.51,-1.79 -4.27,11.67 -8.32,23.46 -11.82,35.39 h -0.75 c -4.29,-0.04 -8.58,-0.08 -12.87,0.04 -0.66,0.01 -1.98,0.03 -2.65,0.05 l 0.26,-0.72 c 1.41,-0.4 3.02,-0.3 4.33,-1.01 3.33,-7.67 5.4,-15.81 8.43,-23.59 1.58,-4.52 3.65,-8.95 4.24,-13.75 -1.22,-0.5 -2.43,-1 -3.65,-1.5 1.16,-3.36 2.35,-6.71 3.54,-10.06 1.27,0.37 2.54,0.75 3.8,1.14 -1.1,3.2 -2.14,6.42 -3.11,9.66 2.58,1.71 5.69,2.92 8.83,2.31 2.13,-2.25 2.37,-5.75 3.61,-8.55 -2.48,-1.56 -5.35,-2.21 -8.12,-3.06 2.41,-8.3 5.39,-16.43 8.38,-24.53 7.66,-23.51 16.71,-46.55 23.93,-70.2 1.06,-2.9 0.71,-6.1 -1.29,-8.52 0.72,-1.96 1.44,-3.91 2.2,-5.86 1.9,1.84 3.68,3.8 5.34,5.86 4.09,-3.06 4.74,-8.4 6.82,-12.73 0.64,-1.96 2.52,-4.42 0.54,-6.21 -2.24,-1.19 -4.83,-0.77 -7.24,-0.7 z"
       id="path27" />
    <path
       fill="#6e6e6e"
       opacity="1"
       d="m 148.14,68.69 c 3.44,-8.54 8.72,-16.64 16.73,-21.49 -2.83,6.54 -6.8,12.66 -8.18,19.77 -2.41,8.68 -1.17,17.72 0.94,26.3 -6.31,-6.34 -9.67,-15.72 -9.49,-24.58 z"
       id="path28" />
    <path
       fill="#6e6e6e"
       opacity="1"
       d="m 23.49,49.35 c 1.52,-0.31 3.04,-0.57 4.57,-0.82 1.13,2.85 1.12,7.73 5.09,8.04 6.62,-0.41 13.13,-2.28 19.8,-2.07 16.68,0.16 33.36,-0.21 50.04,0.19 -0.37,1.73 -0.83,3.44 -1.32,5.14 C 97.31,57.85 92.55,59.04 87.98,59.11 73.96,58.1 59.9,59.02 45.89,59.61 39.94,59.7 33.59,63.13 27.93,60.07 25.11,57.23 24.54,53.04 23.49,49.35 Z"
       id="path29" />
    <path
       fill="#6e6e6e"
       opacity="1"
       d="m 230.54,55.7 c 1.17,1.25 2.25,2.6 3.24,4.01 0.17,-0.26 0.52,-0.8 0.7,-1.07 0.17,13.58 -0.09,27.16 0.14,40.74 -0.01,2.69 -0.1,5.37 -0.17,8.05 -0.01,-0.43 -0.03,-1.28 -0.04,-1.71 -0.08,-1.95 -0.27,-3.89 -0.52,-5.82 -4.27,4.63 -8.33,9.98 -14.54,12.05 3.29,-7.1 7.88,-13.87 8.84,-21.81 -0.19,-0.47 -0.58,-1.42 -0.77,-1.89 5.16,-10.01 5.31,-21.72 3.12,-32.55 z"
       id="path30" />
    <path
       fill="#6e6e6e"
       opacity="1"
       d="m 73.37,65.34 c 3.8,-0.03 7.6,-0.04 11.4,-0.07 0.23,8.47 0.3,16.96 -0.05,25.42 -3.79,0.04 -7.59,0.03 -11.39,-0.06 C 73.3,82.2 73.24,73.77 73.37,65.34 Z"
       id="path31" />
    <path
       fill="#6e6e6e"
       opacity="1"
       d="m 173.57,128.91 c 5.65,-0.94 11.3,2.1 15.77,5.31 -3.86,-0.04 -7.6,1.13 -11.41,1.36 -2.41,-1.33 -3.05,-4.41 -4.36,-6.67 z"
       id="path32" />
    <path
       fill="#6e6e6e"
       opacity="1"
       d="m 148.08,162.19 c 3.09,-4.64 7,-9.03 12.05,-11.55 0.32,0.3 0.95,0.91 1.27,1.21 -2.56,5.41 -5.91,10.46 -7.67,16.22 -2.21,0.75 -4.52,1.05 -6.84,0.97 0.14,-2.32 0.49,-4.63 1.19,-6.85 z"
       id="path33" />
    <path
       fill="#6e6e6e"
       opacity="1"
       d="m 52.88,164.66 c 1.12,-3.36 3.29,-6.63 6.05,-8.79 2.88,0.85 5.58,2.21 8.35,3.35 -1.15,3.31 -2.31,6.63 -3.47,9.94 -3.67,-1.45 -7.28,-3.02 -10.93,-4.5 z"
       id="path34" />
    <path
       fill="#6e6e6e"
       opacity="1"
       d="m 146.87,180.12 c 1.89,-0.07 3.8,-0.11 5.67,-0.46 -2.62,10.88 -0.23,22.09 3.11,32.52 -2.21,-2.31 -4.34,-4.91 -5.56,-7.87 -0.35,-4.82 -1.9,-9.47 -2.05,-14.31 -0.09,-3.33 -0.7,-6.6 -1.17,-9.88 z"
       id="path35" />
    <path
       fill="#6e6e6e"
       opacity="1"
       d="m 232.38,193.65 c 0.79,-2.59 1.72,-5.13 2.46,-7.73 -0.62,8.13 -0.23,16.3 -0.24,24.45 0,0.61 0,1.82 0.01,2.43 -2.9,0.04 -5.79,0.01 -8.68,-0.04 1.05,-0.52 2.08,-1.08 3.11,-1.63 1.73,-5.67 3.48,-11.5 3.34,-17.48 z"
       id="path36" />
  </g>
  <g
     id="#9e9e9eff"
     transform="translate(-13.631762,-9.71)">
    <path
       fill="#9e9e9e"
       opacity="1"
       d="m 167.08,39.51 c 12.01,-0.06 24.02,0.03 36.03,-0.05 1.89,2.38 4.07,4.57 5.42,7.32 -2.25,-0.67 -4.37,-1.69 -6.47,-2.72 -8.13,-3.46 -17.76,-2.9 -25.41,1.56 -9.29,6.01 -15.42,16.48 -16.21,27.5 -0.06,5.43 -0.47,11.01 1.2,16.27 0.97,3.86 3.72,7.05 4.18,11.07 -3.19,-1.77 -6,-4.3 -8.19,-7.19 -2.11,-8.58 -3.35,-17.62 -0.94,-26.3 1.38,-7.11 5.35,-13.23 8.18,-19.77 -8.01,4.85 -13.29,12.95 -16.73,21.49 -0.21,-3.51 -0.52,-7.33 0.81,-10.63 4.98,-7.15 10.68,-13.87 18.13,-18.55 z"
       id="path37" />
    <path
       fill="#9e9e9e"
       opacity="1"
       d="m 223.08,39.99 c 1.41,0.5 3.05,0.67 4.09,1.88 2.76,2.8 6.17,5.35 7.34,9.3 0.03,2.49 0.05,4.98 -0.03,7.47 -0.18,0.27 -0.53,0.81 -0.7,1.07 -0.99,-1.41 -2.07,-2.76 -3.24,-4.01 -1.69,-5.59 -4.32,-10.81 -7.46,-15.71 z"
       id="path38" />
    <path
       fill="#9e9e9e"
       opacity="1"
       d="m 21.6,49.85 c 0.47,-0.12 1.42,-0.37 1.89,-0.5 1.05,3.69 1.62,7.88 4.44,10.72 5.66,3.06 12.01,-0.37 17.96,-0.46 14.01,-0.59 28.07,-1.51 42.09,-0.5 4.57,-0.07 9.33,-1.26 13.69,0.72 -2.38,8.04 -5.23,15.92 -8,23.83 -8.78,25.19 -17.59,50.37 -26.39,75.56 -2.77,-1.14 -5.47,-2.5 -8.35,-3.35 -2.76,2.16 -4.93,5.43 -6.05,8.79 3.65,1.48 7.26,3.05 10.93,4.5 -5.07,14.55 -10.14,29.1 -15.4,43.58 -9,-0.1 -18.02,0.24 -27.01,-0.16 0.3,-54.24 -0.1,-108.49 0.2,-162.73 m 51.77,15.49 c -0.13,8.43 -0.07,16.86 -0.04,25.29 3.8,0.09 7.6,0.1 11.39,0.06 0.35,-8.46 0.28,-16.95 0.05,-25.42 -3.8,0.03 -7.6,0.04 -11.4,0.07 z"
       id="path39" />
    <path
       fill="#9e9e9e"
       opacity="1"
       d="m 76.55,162.24 c 12.07,-33.89 23.68,-67.96 36.03,-101.75 2,2.42 2.35,5.62 1.29,8.52 -7.22,23.65 -16.27,46.69 -23.93,70.2 -2.99,8.1 -5.97,16.23 -8.38,24.53 -0.3,-0.09 -0.9,-0.27 -1.21,-0.36 -1.26,-0.39 -2.53,-0.77 -3.8,-1.14 z"
       id="path40" />
    <path
       fill="#9e9e9e"
       opacity="1"
       d="m 227.42,88.25 c 0.19,0.47 0.58,1.42 0.77,1.89 -0.96,7.94 -5.55,14.71 -8.84,21.81 6.21,-2.07 10.27,-7.42 14.54,-12.05 0.25,1.93 0.44,3.87 0.52,5.82 -2.72,2.55 -5.2,5.36 -8.16,7.64 -3.77,3.06 -8.2,5.28 -11.53,8.87 -3.8,-2.23 -7.67,-4.33 -11.54,-6.44 5.18,-2.41 9.33,-6.59 12.69,-11.12 0.91,-1.01 0.79,-2.38 0.62,-3.62 4.4,-3.55 7.96,-8.02 10.93,-12.8 z"
       id="path41" />
    <path
       fill="#9e9e9e"
       opacity="1"
       d="m 146.97,115.94 c 4.53,3.61 10.47,5.05 14.65,9.05 -1.52,1.09 -3.07,2.15 -4.69,3.08 -3.55,-3.85 -7.84,-7.19 -9.96,-12.13 z"
       id="path42" />
    <path
       fill="#9e9e9e"
       opacity="1"
       d="m 95.72,149.51 c 2.01,-6.93 5.21,-13.45 6.87,-20.48 0.09,1.47 0.17,2.95 0.25,4.43 -0.17,3.42 0.07,6.84 0.35,10.25 10.98,0.03 21.97,-0.12 32.95,0.08 -6.11,7.52 -9.82,16.85 -10.74,26.49 -10.95,0.25 -21.9,-1.09 -32.55,-3.58 -0.94,-0.3 -2.45,-0.46 -2.39,-1.8 1.03,-5.34 3.77,-10.17 5.26,-15.39 z"
       id="path43" />
    <path
       fill="#9e9e9e"
       opacity="1"
       d="m 165.17,133.04 c 1.96,-2.21 5.43,-3.35 8.4,-4.13 1.31,2.26 1.95,5.34 4.36,6.67 3.81,-0.23 7.55,-1.4 11.41,-1.36 l 0.51,-0.03 c 4.91,2.96 9.79,6.13 13.75,10.32 2.12,2.28 4.8,4.23 5.89,7.27 -6.94,-3.36 -12.9,-9.21 -20.79,-10.35 -6.28,-0.9 -11.82,2.99 -15.99,7.24 -5.08,5.4 -9.5,11.56 -12.13,18.54 -2.25,0.54 -4.56,0.66 -6.85,0.86 1.76,-5.76 5.11,-10.81 7.67,-16.22 -0.32,-0.3 -0.95,-0.91 -1.27,-1.21 -5.05,2.52 -8.96,6.91 -12.05,11.55 0.08,-1.82 0,-3.63 -0.03,-5.45 1.19,-4.01 3.29,-7.88 5.86,-11.13 4.77,-2.54 10.11,-4.96 13.32,-9.48 -0.71,-1.02 -1.4,-2.04 -2.06,-3.09 z"
       id="path44" />
    <path
       fill="#9e9e9e"
       opacity="1"
       d="m 222.9,128.9 c 2.8,1.95 5.54,3.98 8.16,6.18 4.23,2.85 2.77,8.66 3.04,12.98 -2.56,-7.03 -6.51,-13.37 -11.2,-19.16 z"
       id="path45" />
    <path
       fill="#9e9e9e"
       opacity="1"
       d="m 73.01,172.3 c 1.22,0.5 2.43,1 3.65,1.5 -0.59,4.8 -2.66,9.23 -4.24,13.75 -3.03,7.78 -5.1,15.92 -8.43,23.59 -1.31,0.71 -2.92,0.61 -4.33,1.01 4.23,-13.36 8.74,-26.62 13.35,-39.85 z"
       id="path46" />
    <path
       fill="#9e9e9e"
       opacity="1"
       d="m 87.49,177.39 c 4.93,-0.51 9.67,1.19 14.51,1.79 7.69,1.08 15.44,1.78 23.21,1.83 0.68,11.62 5.31,22.89 12.84,31.76 -20.79,-0.02 -41.59,-0.05 -62.38,0.01 3.5,-11.93 7.55,-23.72 11.82,-35.39 z"
       id="path47" />
    <path
       fill="#9e9e9e"
       opacity="1"
       d="m 152.54,179.66 c 1.36,-0.43 2.78,-0.66 4.2,-0.86 -0.37,8.41 -1.08,17.01 1.12,25.24 0.65,3.19 1.92,6.27 4.07,8.75 -2.04,0.02 -4.08,0 -6.12,-0.01 l -0.16,-0.6 c -3.34,-10.43 -5.73,-21.64 -3.11,-32.52 z"
       id="path48" />
    <path
       fill="#9e9e9e"
       opacity="1"
       d="m 232.38,193.65 c 0.14,5.98 -1.61,11.81 -3.34,17.48 -1.03,0.55 -2.06,1.11 -3.11,1.63 -1.32,0.02 -2.64,0.04 -3.95,0.06 l -1.75,0.06 c 4.84,-5.87 9.25,-12.16 12.15,-19.23 z"
       id="path49" />
  </g>
  <g
     id="#00000070"
     transform="translate(-13.631762,-9.71)">
    <path
       fill="#000000"
       opacity="0.44"
       d="m 234.48,58.64 c 4.93,5.83 5.19,14.08 5.23,21.36 0.28,6.74 -0.88,13.92 -5.09,19.38 -0.23,-13.58 0.03,-27.16 -0.14,-40.74 z"
       id="path50" />
    <path
       fill="#000000"
       opacity="0.44"
       d="m 234.82,149.88 c 1.35,0.35 1.74,1.93 2.45,2.97 7.3,13.9 8,30.82 3.35,45.68 -1.33,4.23 -2.61,8.77 -6.02,11.84 0.01,-8.15 -0.38,-16.32 0.24,-24.45 2.96,-11.82 2.35,-24.19 -0.02,-36.04 z"
       id="path51" />
  </g>
</svg>
