<?xml version="1.0" encoding="UTF-8" standalone="no"?>
<svg
   width="507.23621pt"
   height="492.0687pt"
   viewBox="0 0 507.23621 492.0687"
   version="1.1"
   id="svg1"
   sodipodi:docname="battlenet.svg"
   inkscape:version="1.4.2 (ebf0e940d0, 2025-05-08)"
   xmlns:inkscape="http://www.inkscape.org/namespaces/inkscape"
   xmlns:sodipodi="http://sodipodi.sourceforge.net/DTD/sodipodi-0.dtd"
   xmlns="http://www.w3.org/2000/svg"
   xmlns:svg="http://www.w3.org/2000/svg">
  <defs
     id="defs1" />
  <sodipodi:namedview
     id="namedview1"
     pagecolor="#505050"
     bordercolor="#ffffff"
     borderopacity="1"
     inkscape:showpageshadow="0"
     inkscape:pageopacity="0"
     inkscape:pagecheckerboard="1"
     inkscape:deskcolor="#505050"
     inkscape:document-units="pt"
     inkscape:zoom="0.903125"
     inkscape:cx="338.2699"
     inkscape:cy="463.391"
     inkscape:window-width="1920"
     inkscape:window-height="1052"
     inkscape:window-x="0"
     inkscape:window-y="0"
     inkscape:window-maximized="1"
     inkscape:current-layer="svg1" />
  <g
     id="#0290ffff"
     transform="translate(-386.21337,-12.07339)">
    <path
       fill="#0290ff"
       opacity="1"
       d="m 536.93,20.92 c 12.35,-7.97 27.79,-10.54 42.16,-7.77 20.21,3.73 38.01,15.22 53.43,28.37 29.1,25.39 51.12,57.85 69.25,91.71 -16.45,-3.69 -33.01,-6.93 -49.73,-9.1 C 640.2,110.73 627,97.99 610.85,89.94 599.9,84.46 587,81.77 574.99,85.13 c -8.51,2.32 -15.21,8.82 -19.7,16.19 -6.73,11.09 -9.89,23.9 -11.94,36.59 48.96,-3.85 98.39,0.14 146.39,10.26 33.25,7.15 66.01,17.13 96.91,31.45 13.15,-32.89 24.28,-67.76 22.64,-103.61 0.08,-3.61 -1.51,-7.62 0.67,-10.88 2.59,1.48 3.81,4.27 4.64,6.99 5.6,18.37 6.79,37.85 5.27,56.93 -1.66,20.72 -6.43,41.08 -12.77,60.84 17.78,9.53 34.81,20.67 49.82,34.2 12,10.92 22.86,23.48 29.82,38.26 5.53,11.65 8.18,24.95 5.88,37.76 -2.23,13.48 -9.78,25.61 -19.7,34.81 -13.95,13.04 -31.61,21.36 -49.6,27.27 -35.22,11.26 -72.61,13.96 -109.38,12.76 11.46,-12.31 22.22,-25.26 32.67,-38.43 16.68,-3.84 33.66,-8.31 48.26,-17.63 10.99,-6.85 20.6,-17.05 23.93,-29.85 2.38,-8.94 -0.16,-18.41 -4.62,-26.26 -6.25,-10.96 -15.46,-19.87 -25.19,-27.75 -16.5,34.78 -37.46,67.37 -61.38,97.5 -27.9,34.9 -59.79,66.89 -96.22,92.89 21.77,27.73 46.21,54.72 77.73,71.49 3.16,1.99 7.5,2.64 9.43,6.15 -3.62,2.08 -7.81,0.68 -11.55,-0.22 -28.62,-7.58 -53.68,-24.75 -75.15,-44.69 -6.82,-6.33 -13.29,-13.03 -19.55,-19.91 -17.44,10.82 -35.9,20.23 -55.5,26.48 -17.92,5.67 -37.23,8.88 -55.88,5.13 -14.47,-2.81 -28.02,-11.04 -36.43,-23.25 -8.57,-12.09 -12.09,-27.02 -12.75,-41.64 -0.91,-21.46 3.69,-42.74 10.24,-63.06 9,-27.13 21.99,-52.79 37.07,-77.03 5.02,16.1 10.6,32.03 17.02,47.63 -5.86,17.86 -10.54,36.68 -8.65,55.63 1.11,11.57 5.51,23.23 14.06,31.36 6.81,6.37 16.4,8.74 25.52,8.61 12.19,-0.18 24.1,-3.58 35.38,-8 -21.59,-31.53 -39.25,-65.67 -53.21,-101.22 -16.4,-41.95 -28.15,-85.95 -32.41,-130.86 -34.93,5.05 -70.56,12.82 -100.8,31.86 -2.99,1.63 -5.46,4.4 -8.9,5.06 -1.54,-0.83 -0.62,-2.7 -0.04,-3.84 2.74,-4.44 6.82,-7.84 10.54,-11.42 27.17,-24.39 62.58,-37.07 97.72,-44.76 -0.8,-28.13 1.38,-56.91 11.38,-83.45 6.09,-15.89 15.7,-31.2 30.27,-40.55 m 4.25,143.4 c -0.02,79 23.49,157.61 65.35,224.49 4.95,-3.17 10.07,-6.07 15.01,-9.27 61.49,-39.26 111.84,-95.2 146.13,-159.47 -68.15,-39.72 -147.84,-58.31 -226.49,-55.75 z"
       id="path1" />
  </g>
  <g
     id="#191c25ff"
     transform="translate(-386.21337,-12.07339)" />
</svg>
