<?xml version="1.0" encoding="UTF-8" standalone="no"?>
<svg
   width="720.94452pt"
   height="398.73001pt"
   viewBox="0 0 720.94452 398.73001"
   version="1.1"
   id="svg15"
   sodipodi:docname="box.svg"
   inkscape:version="1.4.2 (ebf0e940d0, 2025-05-08)"
   xmlns:inkscape="http://www.inkscape.org/namespaces/inkscape"
   xmlns:sodipodi="http://sodipodi.sourceforge.net/DTD/sodipodi-0.dtd"
   xmlns="http://www.w3.org/2000/svg"
   xmlns:svg="http://www.w3.org/2000/svg">
  <defs
     id="defs15" />
  <sodipodi:namedview
     id="namedview15"
     pagecolor="#505050"
     bordercolor="#ffffff"
     borderopacity="1"
     inkscape:showpageshadow="0"
     inkscape:pageopacity="0"
     inkscape:pagecheckerboard="1"
     inkscape:deskcolor="#505050"
     inkscape:document-units="pt"
     inkscape:zoom="0.81884766"
     inkscape:cx="1016.6726"
     inkscape:cy="275.99761"
     inkscape:window-width="1920"
     inkscape:window-height="1052"
     inkscape:window-x="0"
     inkscape:window-y="0"
     inkscape:window-maximized="1"
     inkscape:current-layer="svg15" />
  <g
     id="#3e733bff"
     transform="translate(-5.11,-7.97)">
    <path
       fill="#3e733b"
       opacity="1"
       d="m 356.47,8.81 c 1.24,-1.2 3.04,-0.72 4.57,-0.84 7.02,0.12 14.03,-0.09 21.04,0.09 0.37,0.18 1.12,0.53 1.49,0.71 103.48,0.16 206.96,0.01 310.44,0.08 2.63,-0.2 5.01,1.13 7.61,1.29 4.74,2.94 9.9,5.44 13.75,9.58 3.07,4.12 6.64,8.14 8.12,13.16 0.66,3.67 1.65,7.31 1.49,11.07 0,35.19 0.1,70.39 -0.05,105.58 -1.89,2.15 -0.61,5.41 -0.88,8.02 0.68,1.02 1.32,2.05 1.98,3.09 l -0.9,0.76 c -0.33,13.17 0,26.37 -0.16,39.55 0.06,1.6 -0.29,3.43 0.96,4.7 -1.55,0.92 -0.74,2.93 -0.96,4.37 0.11,27.17 -0.08,54.34 0.1,81.51 0.76,0.81 1.08,1.8 0.96,2.98 -2.38,3.03 -0.73,7.48 -0.88,11.08 l 0.85,0.77 c -1.72,1.74 -0.87,4.39 -1.08,6.57 0.2,1.91 -0.47,4.21 1.07,5.73 -2.75,1.36 0.64,4.25 -0.76,5.88 1.54,1.01 -0.69,2.16 -0.23,3.44 -0.14,18.17 0.38,36.36 -0.48,54.51 -2.68,2.57 -3.49,6.41 -5.77,9.3 -6.2,8.38 -15.93,15.18 -26.71,14.9 -111.36,-0.02 -222.73,0 -334.1,0.01 -12.73,-1.19 -23.55,-10.83 -28.77,-22.14 -1.33,-4.33 -2.77,-8.92 -1.91,-13.48 0.37,-2.6 0.41,-5.23 0.31,-7.85 -0.26,-96.39 -0.04,-192.79 -0.11,-289.19 -0.1,-5.09 0.22,-10.2 -0.17,-15.29 -0.82,-7.51 -0.29,-15.11 -0.25,-22.65 0.21,-0.41 0.62,-1.21 0.82,-1.61 0.06,-0.52 0.17,-1.55 0.23,-2.06 0.6,-0.97 1.22,-1.94 1.83,-2.91 0.03,-0.52 0.09,-1.58 0.12,-2.1 2.84,-2.68 4.81,-6.12 7.17,-9.2 2.48,-1.54 4.54,-3.7 7.17,-4.99 1.89,-0.71 3.67,-1.69 5.08,-3.16 1.01,-0.05 2.02,-0.12 3.04,-0.19 1,-1.17 2.62,-0.8 3.97,-1.07 m -8.91,24.3 c -0.01,6.37 -0.3,12.78 0.23,19.14 6.75,0.29 13.53,0.28 20.29,0.07 0.29,-0.34 0.89,-1 1.19,-1.33 0.38,-5.67 0.1,-11.36 0.17,-17.04 0.17,-1.43 -0.78,-3.2 -2.34,-3.24 -5.38,-0.19 -10.77,-0.05 -16.15,-0.07 -1.5,-0.16 -3.57,0.67 -3.39,2.47 m 46.67,19.25 c -8.54,2.13 -15.49,8.36 -20.2,15.6 -3.52,5.27 -4.86,11.75 -4.51,18.02 0.17,81.69 0.16,163.38 0.06,245.07 -0.4,14.58 10.97,27.58 24.47,31.78 8.84,2 17.99,0.87 26.97,1.17 33.66,-0.59 67.33,-0.36 101,-0.44 41.98,0.07 83.98,-0.14 125.95,0.38 18.44,0.7 35.39,-16.51 34.05,-34.96 -0.07,-82.68 0.04,-165.37 -0.06,-248.05 -1.5,-13.16 -11.7,-24.65 -24.3,-28.43 -4.79,-1.23 -9.78,-0.98 -14.68,-0.99 -80.32,0.13 -160.64,0.13 -240.96,-0.07 -2.63,0.01 -5.25,0.3 -7.79,0.92 z"
       id="path1" />
  </g>
  <g
     id="#c6c48eff"
     transform="translate(-5.11,-7.97)">
    <path
       fill="#c6c48e"
       opacity="1"
       d="m 347.56,33.11 c -0.18,-1.8 1.89,-2.63 3.39,-2.47 5.38,0.02 10.77,-0.12 16.15,0.07 1.56,0.04 2.51,1.81 2.34,3.24 -0.07,5.68 0.21,11.37 -0.17,17.04 -0.3,0.33 -0.9,0.99 -1.19,1.33 -6.76,0.21 -13.54,0.22 -20.29,-0.07 -0.53,-6.36 -0.24,-12.77 -0.23,-19.14 z"
       id="path2" />
  </g>
  <g
     id="#ff3000ff"
     transform="translate(-5.11,-7.97)">
    <path
       fill="#ff3000"
       opacity="1"
       d="m 233.99,55.92 c 12.93,-1.96 24.86,-8.21 37.99,-9.09 4.74,-0.58 9.41,0.72 14.14,0.92 l 0.73,0.49 c 10.67,1.84 20.72,6.15 31.26,8.61 3.01,0.83 6.1,1.37 9.18,1.9 0.39,5.09 0.07,10.2 0.17,15.29 0.07,96.4 -0.15,192.8 0.11,289.19 -19.9,2.57 -39.48,7.71 -59.61,8.35 -10.99,0.15 -22.22,-1.4 -32.24,-6.15 -7.32,-3.18 -13.65,-8.18 -19.44,-13.6 -5.07,-4.94 -9.41,-10.64 -13.08,-16.68 15.16,8.11 32.71,11.65 49.82,9.91 8.64,-0.99 17.53,-3.05 24.56,-8.43 4.36,-3.09 7.56,-7.56 9.73,-12.4 1.92,-5.5 2.03,-11.77 -0.48,-17.1 -2.49,-4.98 -7.38,-8.67 -12.86,-9.59 -3.55,-0.26 -7.16,-0.32 -10.68,0.32 -7.11,1.11 -12.81,5.83 -19.35,8.46 -24.69,11.53 -55.27,11.98 -79.09,-2.02 -7.79,-4.63 -15.87,-9.2 -24.88,-10.91 -9.39,-1.92 -19.17,-0.59 -28.32,1.93 -4.85,1.28 -9.55,3.07 -14.39,4.4 6.8,-4.92 13.91,-9.46 21.58,-12.92 8.03,-3.34 16.54,-5.7 25.23,-6.34 8.98,-0.29 18.02,-0.35 26.94,0.9 7.66,0.31 15.4,0.85 23.03,-0.21 9.46,-1.94 19.37,-6.5 24.26,-15.26 2.75,-5.26 0.83,-11.9 -3.66,-15.53 -8.04,-6.98 -19.77,-7 -29.63,-4.77 -8.46,2.53 -17.15,4.5 -26.02,4.71 -23.11,0.15 -46.36,-9.02 -62.47,-25.73 -5.45,-5.65 -11.46,-11.03 -18.74,-14.2 -8.05,-3.69 -17.09,-4.32 -25.82,-3.84 -13.96,0.95 -27.58,4.38 -41.2,7.28 -1.3,0.15 -2.6,0.29 -3.91,0.42 0.96,-1.03 1.92,-2.06 2.87,-3.08 14.22,-13.54 30.72,-25.2 49.28,-31.94 17.73,-6.42 37.51,-6.32 55.3,-0.2 9.89,3.29 19,8.64 29.12,11.28 9.35,2.49 19.2,4.14 28.84,2.49 13.01,-1.39 27.08,-8.85 30.57,-22.36 2.01,-6.76 0.01,-14.39 -4.81,-19.47 -5.61,-6.18 -13.96,-8.99 -22.02,-10.15 -5.16,-0.53 -10.47,-0.69 -15.53,0.62 -1.89,0.48 -3.79,0.91 -5.7,1.29 -4.76,1.23 -9.42,2.81 -13.79,5.09 -0.5,0.26 -1.51,0.78 -2.01,1.04 -0.42,0.23 -1.27,0.68 -1.7,0.9 6.77,-13.56 18.12,-25.13 32.33,-30.77 12.47,-5.04 26.43,-5.66 39.55,-3.19 14.05,2.93 25.81,11.6 38.67,17.44 1.42,0.51 2.84,1.07 4.25,1.65 4.99,1.66 10.52,2.37 15.59,0.61 7.39,-2.5 13.49,-8.12 17.49,-14.71 3.69,-6.17 4.65,-14.38 0.8,-20.7 -3.73,-6.84 -11.51,-10.22 -18.89,-11.38 -8.97,-0.95 -18.08,0.68 -27.01,-1.01 -10.41,-1.24 -20.09,-6.63 -26.86,-14.59 -2.58,-3.05 -4.48,-6.59 -6.43,-10.05 -2.07,-4.51 -4.26,-9.06 -5.35,-13.93 5.54,4.42 12.4,7.64 19.61,7.59 4.32,-0.02 8.73,0.25 12.97,-0.78 z"
       id="path3" />
  </g>
  <g
     id="#767b81ff"
     transform="translate(-5.11,-7.97)">
    <path
       fill="#767b81"
       opacity="1"
       d="m 394.23,52.36 c 2.54,-0.62 5.16,-0.91 7.79,-0.92 80.32,0.2 160.64,0.2 240.96,0.07 4.9,0.01 9.89,-0.24 14.68,0.99 12.6,3.78 22.8,15.27 24.3,28.43 0.1,82.68 -0.01,165.37 0.06,248.05 1.34,18.45 -15.61,35.66 -34.05,34.96 -41.97,-0.52 -83.97,-0.31 -125.95,-0.38 -33.67,0.08 -67.34,-0.15 -101,0.44 -8.98,-0.3 -18.13,0.83 -26.97,-1.17 -13.5,-4.2 -24.87,-17.2 -24.47,-31.78 0.1,-81.69 0.11,-163.38 -0.06,-245.07 -0.35,-6.27 0.99,-12.75 4.51,-18.02 4.71,-7.24 11.66,-13.47 20.2,-15.6 m 3.98,13.85 c -5.81,1.78 -10.73,6.3 -13.09,11.91 -1.63,4.1 -1.03,8.6 -1.12,12.91 -0.09,13.65 0.23,27.3 -0.27,40.95 -0.09,47.01 -0.11,94.03 -0.01,141.05 0.23,18.99 0.38,37.99 0.26,56.98 -0.5,10.23 8.81,19.62 18.96,19.55 81.69,0.17 163.37,0.13 245.06,0.02 9.09,0.27 17.79,-6.82 19.4,-15.74 0.5,-6.25 0.68,-12.54 0.6,-18.81 0.01,-55.68 -0.02,-111.37 0.01,-167.06 -0.55,-20.66 -0.22,-41.34 -0.33,-62.01 0.87,-10.65 -9.05,-20.73 -19.66,-20.31 -81.34,-0.19 -162.69,-0.2 -244.03,0.01 -1.94,0.05 -3.89,0.13 -5.78,0.55 z"
       id="path4" />
  </g>
  <g
     id="#272524ff"
     transform="translate(-5.11,-7.97)">
    <path
       fill="#272524"
       opacity="1"
       d="m 398.21,66.21 c 1.89,-0.42 3.84,-0.5 5.78,-0.55 81.34,-0.21 162.69,-0.2 244.03,-0.01 10.61,-0.42 20.53,9.66 19.66,20.31 0.11,20.67 -0.22,41.35 0.33,62.01 -0.03,55.69 0,111.38 -0.01,167.06 0.08,6.27 -0.1,12.56 -0.6,18.81 -1.61,8.92 -10.31,16.01 -19.4,15.74 -81.69,0.11 -163.37,0.15 -245.06,-0.02 -10.15,0.07 -19.46,-9.32 -18.96,-19.55 0.12,-18.99 -0.03,-37.99 -0.26,-56.98 -0.1,-47.02 -0.08,-94.04 0.01,-141.05 0.5,-13.65 0.18,-27.3 0.27,-40.95 0.09,-4.31 -0.51,-8.81 1.12,-12.91 2.36,-5.61 7.28,-10.13 13.09,-11.91 M 469,88.14 c -1.66,4.87 -2.51,9.97 -3.55,14.99 -14.6,68.86 -29.19,137.72 -43.79,206.57 -1.07,5.03 -2.53,10.03 -2.63,15.21 49.98,0.06 99.97,0.01 149.96,0.01 15.41,0.08 30.53,-8.04 39.09,-20.85 5.65,-7.26 7.82,-16.37 9.57,-25.2 7.9,-36.91 15.64,-73.84 23.5,-110.76 1.77,-8.6 0.85,-18.33 -5.07,-25.21 -5.92,-8.14 -16.5,-10.75 -26.08,-10.63 -22.41,0.01 -44.82,0.26 -67.22,-0.15 2.86,-14.66 5.99,-29.28 9.14,-43.89 C 524.28,87.99 496.64,88.17 469,88.14 Z"
       id="path5" />
    <path
       fill="#272524"
       opacity="1"
       d="m 213.19,73.09 c 6.77,7.96 16.45,13.35 26.86,14.59 8.93,1.69 18.04,0.06 27.01,1.01 7.38,1.16 15.16,4.54 18.89,11.38 3.85,6.32 2.89,14.53 -0.8,20.7 2.78,-5.04 3.38,-11.05 2.07,-16.61 -2.06,-6.92 -8.31,-11.86 -15.15,-13.6 -9.48,-2.68 -19.52,0.38 -29.05,-1.87 -4.28,0.16 -8.07,-2.07 -12.27,-2.43 -6.79,-2.92 -13.11,-7.2 -17.56,-13.17 z"
       id="path6" />
    <path
       fill="#272524"
       opacity="1"
       d="m 160.47,141.42 c 5.06,-1.31 10.37,-1.15 15.53,-0.62 8.06,1.16 16.41,3.97 22.02,10.15 4.82,5.08 6.82,12.71 4.81,19.47 -0.03,-3.55 0.09,-7.11 -0.3,-10.64 -2.72,-9.18 -11.59,-14.82 -20.47,-16.98 -6.99,-2.24 -14.39,-0.92 -21.59,-1.38 z"
       id="path7" />
    <path
       fill="#272524"
       opacity="1"
       d="m 534.91,170.76 c 7.45,-0.1 14.94,-0.36 22.39,0.13 -0.39,4.69 -1.75,9.22 -2.66,13.82 -6.93,33.34 -14.09,66.64 -21.06,99.97 -0.1,1.3 -1.12,2.69 -2.57,2.49 -6.76,0.1 -13.53,0.14 -20.28,-0.13 -0.09,-1.34 -0.03,-2.68 0.17,-4 5.02,-23.09 9.75,-46.25 14.72,-69.36 3.16,-14.29 5.77,-28.72 9.29,-42.92 z"
       id="path8" />
    <path
       fill="#272524"
       opacity="1"
       d="m 114.3,179.01 c 13.63,4.09 26.12,12.71 40.75,12.97 5.66,1.27 11.47,0.72 17.21,0.8 -9.64,1.65 -19.49,0 -28.84,-2.49 -10.12,-2.64 -19.23,-7.99 -29.12,-11.28 z"
       id="path9" />
    <path
       fill="#272524"
       opacity="1"
       d="m 10.76,213.81 c 13.62,-2.9 27.24,-6.33 41.2,-7.28 8.73,-0.48 17.77,0.15 25.82,3.84 7.28,3.17 13.29,8.55 18.74,14.2 16.11,16.71 39.36,25.88 62.47,25.73 8.87,-0.21 17.56,-2.18 26.02,-4.71 9.86,-2.23 21.59,-2.21 29.63,4.77 4.49,3.63 6.41,10.27 3.66,15.53 0.72,-3.28 0.47,-6.63 0.22,-9.94 -1.58,-2.28 -3.4,-4.38 -5.59,-6.09 -3.59,-2.21 -7.36,-4.27 -11.68,-4.51 -5.31,-1.6 -10.71,-0.02 -16,0.69 -8.68,3.24 -17.92,5.05 -27.2,4.57 -6.51,0.31 -12.96,-0.43 -19.32,-1.63 -5.93,-2.01 -11.93,-3.81 -17.74,-6.17 -9.51,-4.95 -18.47,-11.08 -25.9,-18.86 -3.54,-3.84 -7.71,-6.98 -11.92,-10.03 -5.08,-3.45 -11.16,-4.99 -17.09,-6.26 -6.7,-0.31 -13.42,-0.16 -20.13,-0.02 -4.36,0.64 -8.68,1.51 -13.06,2.03 -1.83,1.68 -4.76,0.08 -6.81,1.48 -4.56,0.48 -9.23,1.08 -13.33,3.27 -2.53,0.43 -5.1,0.64 -7.64,1.03 1.39,-1.57 2.64,-3.41 4.61,-4.3 -0.95,1.02 -1.91,2.05 -2.87,3.08 1.31,-0.13 2.61,-0.27 3.91,-0.42 z"
       id="path10" />
    <path
       fill="#272524"
       opacity="1"
       d="m 111.65,295.32 c 9.15,-2.52 18.93,-3.85 28.32,-1.93 9.01,1.71 17.09,6.28 24.88,10.91 23.82,14 54.4,13.55 79.09,2.02 6.54,-2.63 12.24,-7.35 19.35,-8.46 -9.17,3.7 -17.61,8.99 -26.86,12.51 -7.42,1.79 -14.73,4.34 -22.35,5.17 -6.04,0.04 -12.09,0.14 -18.12,-0.08 -8.63,-1.51 -17.13,-3.86 -25.23,-7.21 -2.44,-1.22 -4.68,-2.83 -7.15,-4.01 -4.71,-2.2 -8.83,-5.62 -13.9,-7.05 -7.32,-3.58 -15.63,-4.16 -23.65,-3.89 -4.9,-0.22 -9.55,1.57 -14.38,2.02 z"
       id="path11" />
    <path
       fill="#272524"
       opacity="1"
       d="m 216.28,351.83 c 5.79,5.42 12.12,10.42 19.44,13.6 10.02,4.75 21.25,6.3 32.24,6.15 20.13,-0.64 39.71,-5.78 59.61,-8.35 0.1,2.62 0.06,5.25 -0.31,7.85 0.02,-2.49 -0.01,-4.97 -0.02,-7.44 -8.65,1.38 -17.24,3.19 -25.89,4.62 -1.67,0.36 -3.44,0.32 -4.97,1.16 -2.84,-0.02 -5.61,0.5 -8.37,1.1 -3.4,0.1 -6.81,0.15 -10.15,0.88 -13.47,0.83 -27.43,0.85 -40.18,-4.17 -2.6,-1.39 -5.1,-2.99 -7.84,-4.11 -4.79,-3.38 -9.91,-6.65 -13.56,-11.29 z"
       id="path12" />
  </g>
  <g
     id="#000000ff"
     transform="translate(-5.11,-7.97)">
    <path
       fill="#000000"
       opacity="1"
       d="m 469,88.14 c 27.64,0.03 55.28,-0.15 82.92,0.09 -3.15,14.61 -6.28,29.23 -9.14,43.89 22.4,0.41 44.81,0.16 67.22,0.15 9.58,-0.12 20.16,2.49 26.08,10.63 5.92,6.88 6.84,16.61 5.07,25.21 -7.86,36.92 -15.6,73.85 -23.5,110.76 -1.75,8.83 -3.92,17.94 -9.57,25.2 -8.56,12.81 -23.68,20.93 -39.09,20.85 -49.99,0 -99.98,0.05 -149.96,-0.01 0.1,-5.18 1.56,-10.18 2.63,-15.21 14.6,-68.85 29.19,-137.71 43.79,-206.57 1.04,-5.02 1.89,-10.12 3.55,-14.99 m 9.16,21.95 c -2.64,11.23 -4.71,22.6 -7.3,33.85 -2.23,11.02 -4.53,22.05 -6.99,33.02 -1.49,7.73 -3.21,15.41 -4.77,23.11 -0.51,1.93 -0.8,3.9 -1.34,5.81 -0.18,1.08 -0.36,2.16 -0.53,3.25 -2.03,8.21 -3.35,16.59 -5.39,24.8 -0.25,1.67 -0.53,3.34 -1.01,4.96 -1.31,6.34 -2.59,12.68 -4,19 -0.52,2.75 -1.13,5.47 -1.68,8.22 -0.47,1.92 -0.74,3.88 -1.3,5.78 -1.19,6.08 -2.59,12.11 -3.73,18.2 -0.53,1.91 -0.83,3.86 -1.32,5.78 -0.21,1.08 -0.4,2.16 -0.6,3.24 -0.49,1.92 -0.82,3.89 -1.35,5.81 -0.41,2.18 -0.81,4.36 -1.32,6.53 43.16,0.04 86.31,0 129.47,0.02 5.37,-0.05 10.92,-0.42 15.88,-2.66 1.18,-0.48 2.36,-0.96 3.56,-1.44 6.18,-3.71 11.56,-8.78 14.87,-15.27 1.44,-3.31 2.79,-6.69 3.54,-10.24 1.96,-8.18 3.42,-16.48 5.35,-24.66 0.58,-3.05 1.16,-6.1 1.95,-9.1 2.08,-10.75 4.62,-21.42 6.7,-32.18 2,-8.19 3.35,-16.52 5.39,-24.7 0.17,-1.12 0.36,-2.24 0.56,-3.35 0.5,-1.61 0.78,-3.27 1.05,-4.93 1.66,-6.91 3,-13.9 4.36,-20.87 0.43,-5.32 -1.66,-11.08 -6.43,-13.88 -1.22,-0.46 -2.43,-0.94 -3.61,-1.49 -5.05,-0.67 -10.14,-0.46 -15.21,-0.48 -25.61,0 -51.22,-0.01 -76.82,0 0.34,-6.91 2.53,-13.55 3.69,-20.34 0.5,-1.92 0.73,-3.89 1.29,-5.8 0.79,-4.44 1.98,-8.8 2.72,-13.26 0.47,-1.68 0.7,-3.41 0.87,-5.14 -17.99,0.05 -35.99,-0.03 -53.97,0.03 -2.41,1.91 -1.73,5.66 -2.58,8.38 z"
       id="path13" />
    <path
       fill="#000000"
       opacity="1"
       d="m 522.77,158.87 c 0.22,-0.58 0.66,-1.75 0.88,-2.34 17.04,0.01 34.09,0 51.13,0.01 -0.89,6.25 -2.51,12.36 -3.62,18.57 -1.14,4.64 -2.05,9.33 -3.01,14.01 -1.38,6.32 -2.74,12.65 -3.98,18.99 -0.96,3.51 -1.44,7.13 -2.39,10.64 -1.27,6.38 -2.55,12.77 -4.02,19.1 -0.19,1.09 -0.37,2.18 -0.55,3.27 -2.21,9.59 -4.2,19.23 -6.1,28.88 -0.52,1.64 -0.82,3.33 -1.21,5 -0.6,3.3 -1.27,6.58 -2.1,9.83 -0.88,5.34 -2.23,10.59 -3.31,15.89 -14.82,0.17 -29.64,0.04 -44.46,0.07 -2.28,0.02 -4.54,0.38 -6.8,0.58 0.18,-5.24 1.85,-10.27 2.64,-15.43 0.84,-2.97 1.35,-6.02 1.98,-9.04 0.46,-1.63 0.73,-3.3 0.98,-4.97 1.52,-6.29 2.78,-12.65 4.03,-19.01 0.81,-2.97 1.33,-6.02 1.97,-9.03 0.51,-1.92 0.72,-3.89 1.29,-5.79 1.14,-6.09 2.62,-12.11 3.73,-18.2 0.53,-1.91 0.85,-3.86 1.32,-5.78 0.52,-2.74 1.22,-5.45 1.67,-8.21 1.44,-6.31 2.71,-12.67 4,-19.02 0.54,-1.9 0.85,-3.86 1.31,-5.78 1.49,-7.42 3.18,-14.81 4.62,-22.24 m 12.14,11.89 c -3.52,14.2 -6.13,28.63 -9.29,42.92 -4.97,23.11 -9.7,46.27 -14.72,69.36 -0.2,1.32 -0.26,2.66 -0.17,4 6.75,0.27 13.52,0.23 20.28,0.13 1.45,0.2 2.47,-1.19 2.57,-2.49 6.97,-33.33 14.13,-66.63 21.06,-99.97 0.91,-4.6 2.27,-9.13 2.66,-13.82 -7.45,-0.49 -14.94,-0.23 -22.39,-0.13 z"
       id="path14" />
  </g>
  <g
     id="#ffffffff"
     transform="translate(-5.11,-7.97)">
    <path
       fill="#ffffff"
       opacity="1"
       d="m 478.16,110.09 c 0.85,-2.72 0.17,-6.47 2.58,-8.38 17.98,-0.06 35.98,0.02 53.97,-0.03 -0.17,1.73 -0.4,3.46 -0.87,5.14 -0.74,4.46 -1.93,8.82 -2.72,13.26 -0.56,1.91 -0.79,3.88 -1.29,5.8 -1.16,6.79 -3.35,13.43 -3.69,20.34 25.6,-0.01 51.21,0 76.82,0 5.07,0.02 10.16,-0.19 15.21,0.48 1.18,0.55 2.39,1.03 3.61,1.49 4.77,2.8 6.86,8.56 6.43,13.88 -1.36,6.97 -2.7,13.96 -4.36,20.87 -0.27,1.66 -0.55,3.32 -1.05,4.93 -0.2,1.11 -0.39,2.23 -0.56,3.35 -2.04,8.18 -3.39,16.51 -5.39,24.7 -2.08,10.76 -4.62,21.43 -6.7,32.18 -0.79,3 -1.37,6.05 -1.95,9.1 -1.93,8.18 -3.39,16.48 -5.35,24.66 -0.75,3.55 -2.1,6.93 -3.54,10.24 -3.31,6.49 -8.69,11.56 -14.87,15.27 -1.2,0.48 -2.38,0.96 -3.56,1.44 -4.96,2.24 -10.51,2.61 -15.88,2.66 -43.16,-0.02 -86.31,0.02 -129.47,-0.02 0.51,-2.17 0.91,-4.35 1.32,-6.53 0.53,-1.92 0.86,-3.89 1.35,-5.81 0.2,-1.08 0.39,-2.16 0.6,-3.24 0.49,-1.92 0.79,-3.87 1.32,-5.78 1.14,-6.09 2.54,-12.12 3.73,-18.2 0.56,-1.9 0.83,-3.86 1.3,-5.78 0.55,-2.75 1.16,-5.47 1.68,-8.22 1.41,-6.32 2.69,-12.66 4,-19 0.48,-1.62 0.76,-3.29 1.01,-4.96 2.04,-8.21 3.36,-16.59 5.39,-24.8 0.17,-1.09 0.35,-2.17 0.53,-3.25 0.54,-1.91 0.83,-3.88 1.34,-5.81 1.56,-7.7 3.28,-15.38 4.77,-23.11 2.46,-10.97 4.76,-22 6.99,-33.02 2.59,-11.25 4.66,-22.62 7.3,-33.85 m 44.61,48.78 c -1.44,7.43 -3.13,14.82 -4.62,22.24 -0.46,1.92 -0.77,3.88 -1.31,5.78 -1.29,6.35 -2.56,12.71 -4,19.02 -0.45,2.76 -1.15,5.47 -1.67,8.21 -0.47,1.92 -0.79,3.87 -1.32,5.78 -1.11,6.09 -2.59,12.11 -3.73,18.2 -0.57,1.9 -0.78,3.87 -1.29,5.79 -0.64,3.01 -1.16,6.06 -1.97,9.03 -1.25,6.36 -2.51,12.72 -4.03,19.01 -0.25,1.67 -0.52,3.34 -0.98,4.97 -0.63,3.02 -1.14,6.07 -1.98,9.04 -0.79,5.16 -2.46,10.19 -2.64,15.43 2.26,-0.2 4.52,-0.56 6.8,-0.58 14.82,-0.03 29.64,0.1 44.46,-0.07 1.08,-5.3 2.43,-10.55 3.31,-15.89 0.83,-3.25 1.5,-6.53 2.1,-9.83 0.39,-1.67 0.69,-3.36 1.21,-5 1.9,-9.65 3.89,-19.29 6.1,-28.88 0.18,-1.09 0.36,-2.18 0.55,-3.27 1.47,-6.33 2.75,-12.72 4.02,-19.1 0.95,-3.51 1.43,-7.13 2.39,-10.64 1.24,-6.34 2.6,-12.67 3.98,-18.99 0.96,-4.68 1.87,-9.37 3.01,-14.01 1.11,-6.21 2.73,-12.32 3.62,-18.57 -17.04,-0.01 -34.09,0 -51.13,-0.01 -0.22,0.59 -0.66,1.76 -0.88,2.34 z"
       id="path15" />
  </g>
</svg>
