<?xml version="1.0" encoding="UTF-8" ?>
<!DOCTYPE svg PUBLIC "-//W3C//DTD SVG 1.1//EN" "http://www.w3.org/Graphics/SVG/1.1/DTD/svg11.dtd">
<svg width="512pt" height="512pt" viewBox="0 0 512 512" version="1.1" xmlns="http://www.w3.org/2000/svg">
<g id="#2e2722ff">
<path fill="#2e2722" opacity="1.00" d=" M 125.44 16.68 C 130.60 16.13 135.78 15.99 140.96 16.00 C 218.64 16.01 296.32 15.98 374.00 16.01 C 400.99 15.96 427.85 25.28 449.03 42.00 C 473.35 60.96 490.14 89.36 494.62 119.90 C 496.44 131.19 495.93 142.66 496.00 154.04 C 495.98 227.35 496.04 300.66 495.97 373.97 C 495.88 406.60 481.76 438.75 458.09 461.15 C 435.76 482.66 405.01 495.10 373.99 494.99 C 295.31 495.01 216.63 495.01 137.96 494.99 C 108.58 495.06 79.41 483.93 57.47 464.42 C 35.58 445.20 20.84 417.98 17.09 389.07 C 15.68 379.12 16.04 369.05 16.00 359.04 C 16.01 285.36 15.98 211.68 16.01 138.00 C 16.01 116.30 21.94 94.63 33.08 76.00 C 52.32 43.22 87.54 20.35 125.44 16.68 M 123.43 37.56 C 103.11 40.47 83.82 49.87 68.87 63.91 C 50.48 80.97 38.64 105.01 36.83 130.07 C 36.46 136.03 36.55 142.01 36.54 147.98 C 36.54 219.66 36.54 291.34 36.54 363.02 C 36.55 369.68 36.43 376.36 36.99 383.00 C 38.95 403.10 47.20 422.51 60.20 437.95 C 74.67 455.29 94.99 467.69 117.12 472.32 C 128.89 475.04 141.04 474.37 153.03 474.45 C 226.68 474.44 300.33 474.47 373.98 474.44 C 393.69 474.63 413.28 468.56 429.70 457.73 C 457.44 439.55 475.57 407.24 475.43 373.94 C 475.50 300.96 475.44 227.98 475.46 155.00 C 475.39 146.69 475.65 138.36 475.16 130.05 C 473.37 105.24 461.74 81.41 443.65 64.39 C 425.11 46.71 399.69 36.31 374.02 36.56 C 296.99 36.52 219.96 36.56 142.93 36.54 C 136.42 36.55 129.87 36.55 123.43 37.56 Z" />
<path fill="#2e2722" opacity="1.00" d=" M 239.54 121.36 C 254.61 118.60 270.15 118.07 285.30 120.63 C 301.79 123.49 317.78 130.74 329.56 142.83 C 332.98 146.34 336.18 150.07 338.96 154.12 C 335.49 151.30 332.82 147.66 329.52 144.67 C 326.69 144.13 325.11 141.50 322.86 139.99 C 315.10 134.53 305.88 131.79 297.00 128.76 C 289.44 127.02 281.74 126.23 274.04 125.51 C 269.34 125.77 264.45 124.80 259.92 126.33 C 255.25 126.36 250.65 127.01 246.06 127.82 C 244.04 128.35 241.98 128.72 239.94 129.14 C 238.60 129.52 237.26 129.90 235.92 130.30 C 235.41 130.38 234.37 130.54 233.86 130.62 C 231.90 131.36 229.93 132.07 227.97 132.80 C 226.93 133.11 225.89 133.41 224.84 133.71 C 203.17 142.73 184.55 159.57 174.64 181.00 C 170.26 188.72 168.51 197.50 165.62 205.81 C 165.33 207.16 165.04 208.52 164.72 209.86 C 164.37 211.20 164.02 212.54 163.65 213.87 C 163.35 215.55 163.04 217.23 162.71 218.90 C 162.38 220.58 162.04 222.26 161.68 223.93 C 161.46 225.95 161.17 227.98 160.66 229.96 C 160.08 235.32 159.05 240.63 159.30 246.05 C 157.81 254.63 158.35 263.39 158.58 272.06 C 160.05 276.56 158.97 281.37 159.59 286.00 C 160.92 292.63 161.14 299.48 162.67 306.11 C 163.05 307.76 163.40 309.42 163.76 311.09 C 164.31 313.38 164.52 315.74 164.68 318.09 C 167.91 324.46 168.46 331.90 172.05 338.05 C 173.02 342.42 175.24 346.38 178.13 349.77 C 178.69 351.24 179.29 352.70 179.87 354.18 C 175.72 349.08 172.95 343.08 169.73 337.39 C 165.48 329.00 162.79 319.92 160.06 310.95 C 150.00 269.97 150.40 225.88 164.50 185.87 C 166.43 179.73 169.58 174.09 172.49 168.37 C 180.97 153.14 193.99 140.70 209.09 132.09 C 218.53 126.80 228.96 123.49 239.54 121.36 Z" />
<path fill="#2e2722" opacity="1.00" d=" M 360.96 188.72 C 373.12 185.79 385.29 182.86 397.50 180.10 C 399.53 179.76 401.58 179.48 403.62 179.20 C 403.63 181.59 403.65 183.99 403.66 186.39 C 402.09 186.62 400.54 186.85 398.99 187.14 C 397.63 187.53 396.29 187.92 394.94 188.31 C 393.96 188.48 392.98 188.66 392.01 188.85 C 388.69 189.73 385.32 190.40 381.99 191.25 C 380.63 191.55 379.29 191.87 377.94 192.21 C 376.59 192.54 375.26 192.88 373.94 193.27 C 372.28 193.57 370.64 193.86 369.00 194.19 C 367.63 194.59 366.28 195.01 364.93 195.44 C 363.47 195.48 362.01 195.52 360.56 195.56 C 360.00 193.47 359.46 191.38 358.97 189.28 C 359.47 189.14 360.46 188.86 360.96 188.72 Z" />
<path fill="#2e2722" opacity="1.00" d=" M 378.99 378.00 C 391.04 361.25 399.74 342.17 405.16 322.29 C 406.87 323.04 408.67 323.55 410.53 323.79 C 410.55 326.20 410.59 328.66 409.88 330.99 C 409.51 331.99 409.14 332.99 408.79 333.99 C 408.14 337.09 407.04 340.06 405.75 342.94 C 404.82 345.62 403.86 348.30 402.82 350.94 C 401.50 353.92 400.10 356.87 398.68 359.80 C 391.25 375.63 381.38 390.57 368.03 402.02 C 357.58 412.79 344.58 420.76 330.92 426.82 C 329.26 427.46 327.60 428.11 325.94 428.76 C 324.29 429.48 322.64 430.19 320.98 430.89 C 319.66 431.20 318.32 431.46 316.99 431.73 C 315.97 432.13 314.96 432.54 313.95 432.95 C 312.23 433.25 310.51 433.48 308.78 433.69 C 307.58 434.20 306.37 434.70 305.18 435.23 C 299.49 436.23 293.82 437.67 288.01 437.53 C 284.31 437.65 280.48 437.04 276.91 438.29 C 270.94 438.23 264.77 439.20 258.94 437.67 C 254.62 437.27 250.16 438.16 245.97 436.74 C 243.66 436.58 241.34 436.48 239.04 436.30 C 236.36 435.65 233.63 435.35 230.93 434.87 C 229.24 434.56 227.56 434.18 225.91 433.71 C 224.96 433.57 224.00 433.44 223.05 433.31 C 221.38 432.77 219.69 432.28 218.02 431.75 C 216.67 431.47 215.33 431.19 214.01 430.87 C 212.30 430.34 210.60 429.80 208.90 429.28 C 205.97 428.10 203.02 426.99 200.09 425.84 C 189.55 421.38 179.74 415.30 170.66 408.37 C 164.75 404.34 160.31 398.65 155.43 393.52 C 153.15 391.04 150.48 388.78 149.19 385.58 C 163.76 402.71 183.19 415.55 204.49 422.65 C 227.78 430.28 252.58 432.34 276.96 431.09 C 300.65 429.93 324.10 422.89 344.23 410.27 C 357.54 401.58 369.30 390.59 378.99 378.00 Z" />
</g>
<g id="#00a3e1ff">
<path fill="#00a3e1" opacity="1.00" d=" M 123.43 37.56 C 129.87 36.55 136.42 36.55 142.93 36.54 C 219.96 36.56 296.99 36.52 374.02 36.56 C 399.69 36.31 425.11 46.71 443.65 64.39 C 461.74 81.41 473.37 105.24 475.16 130.05 C 475.65 138.36 475.39 146.69 475.46 155.00 C 475.44 227.98 475.50 300.96 475.43 373.94 C 475.57 407.24 457.44 439.55 429.70 457.73 C 413.28 468.56 393.69 474.63 373.98 474.44 C 300.33 474.47 226.68 474.44 153.03 474.45 C 141.04 474.37 128.89 475.04 117.12 472.32 C 94.99 467.69 74.67 455.29 60.20 437.95 C 47.20 422.51 38.95 403.10 36.99 383.00 C 36.43 376.36 36.55 369.68 36.54 363.02 C 36.54 291.34 36.54 219.66 36.54 147.98 C 36.55 142.01 36.46 136.03 36.83 130.07 C 38.64 105.01 50.48 80.97 68.87 63.91 C 83.82 49.87 103.11 40.47 123.43 37.56 M 233.84 82.34 C 201.29 88.25 170.05 103.89 147.67 128.52 C 139.88 137.94 132.25 147.70 126.82 158.71 C 109.05 192.00 103.96 230.72 106.09 268.00 C 107.12 287.32 110.77 306.48 116.47 324.96 C 122.43 342.85 130.12 360.35 141.28 375.65 C 143.89 378.98 146.67 382.18 149.19 385.58 C 150.48 388.78 153.15 391.04 155.43 393.52 C 160.31 398.65 164.75 404.34 170.66 408.37 C 179.74 415.30 189.55 421.38 200.09 425.84 C 203.02 426.99 205.97 428.10 208.90 429.28 C 210.60 429.80 212.30 430.34 214.01 430.87 C 215.33 431.19 216.67 431.47 218.02 431.75 C 219.69 432.28 221.38 432.77 223.05 433.31 C 224.00 433.44 224.96 433.57 225.91 433.71 C 227.56 434.18 229.24 434.56 230.93 434.87 C 233.63 435.35 236.36 435.65 239.04 436.30 C 241.34 436.48 243.66 436.58 245.97 436.74 C 250.16 438.16 254.62 437.27 258.94 437.67 C 264.77 439.20 270.94 438.23 276.91 438.29 C 280.48 437.04 284.31 437.65 288.01 437.53 C 293.82 437.67 299.49 436.23 305.18 435.23 C 306.37 434.70 307.58 434.20 308.78 433.69 C 310.51 433.48 312.23 433.25 313.95 432.95 C 314.96 432.54 315.97 432.13 316.99 431.73 C 318.32 431.46 319.66 431.20 320.98 430.89 C 322.64 430.19 324.29 429.48 325.94 428.76 C 327.60 428.11 329.26 427.46 330.92 426.82 C 344.58 420.76 357.58 412.79 368.03 402.02 C 381.38 390.57 391.25 375.63 398.68 359.80 C 400.10 356.87 401.50 353.92 402.82 350.94 C 403.86 348.30 404.82 345.62 405.75 342.94 C 407.04 340.06 408.14 337.09 408.79 333.99 C 409.14 332.99 409.51 331.99 409.88 330.99 C 410.59 328.66 410.55 326.20 410.53 323.79 C 408.67 323.55 406.87 323.04 405.16 322.29 C 405.64 320.64 406.18 318.99 406.76 317.37 C 391.44 312.94 375.74 309.90 360.49 305.25 C 355.90 326.72 347.31 347.97 332.06 364.11 C 316.83 379.92 295.68 389.50 273.88 391.34 C 246.42 394.51 217.91 386.82 195.78 370.25 C 190.00 365.38 184.30 360.36 179.87 354.18 C 179.29 352.70 178.69 351.24 178.13 349.77 C 175.24 346.38 173.02 342.42 172.05 338.05 C 168.46 331.90 167.91 324.46 164.68 318.09 C 164.52 315.74 164.31 313.38 163.76 311.09 C 163.40 309.42 163.05 307.76 162.67 306.11 C 161.14 299.48 160.92 292.63 159.59 286.00 C 158.97 281.37 160.05 276.56 158.58 272.06 C 158.35 263.39 157.81 254.63 159.30 246.05 C 159.05 240.63 160.08 235.32 160.66 229.96 C 161.17 227.98 161.46 225.95 161.68 223.93 C 162.04 222.26 162.38 220.58 162.71 218.90 C 163.04 217.23 163.35 215.55 163.65 213.87 C 164.02 212.54 164.37 211.20 164.72 209.86 C 165.04 208.52 165.33 207.16 165.62 205.81 C 168.51 197.50 170.26 188.72 174.64 181.00 C 184.55 159.57 203.17 142.73 224.84 133.71 C 225.89 133.41 226.93 133.11 227.97 132.80 C 229.93 132.07 231.90 131.36 233.86 130.62 C 234.37 130.54 235.41 130.38 235.92 130.30 C 237.26 129.90 238.60 129.52 239.94 129.14 C 241.98 128.72 244.04 128.35 246.06 127.82 C 250.65 127.01 255.25 126.36 259.92 126.33 C 264.45 124.80 269.34 125.77 274.04 125.51 C 281.74 126.23 289.44 127.02 297.00 128.76 C 305.88 131.79 315.10 134.53 322.86 139.99 C 325.11 141.50 326.69 144.13 329.52 144.67 C 332.82 147.66 335.49 151.30 338.96 154.12 C 346.62 164.93 351.74 177.36 355.63 189.97 C 357.40 189.53 359.18 189.13 360.96 188.72 C 360.46 188.86 359.47 189.14 358.97 189.28 C 359.46 191.38 360.00 193.47 360.56 195.56 C 362.01 195.52 363.47 195.48 364.93 195.44 C 366.28 195.01 367.63 194.59 369.00 194.19 C 370.64 193.86 372.28 193.57 373.94 193.27 C 375.26 192.88 376.59 192.54 377.94 192.21 C 379.29 191.87 380.63 191.55 381.99 191.25 C 385.32 190.40 388.69 189.73 392.01 188.85 C 392.98 188.66 393.96 188.48 394.94 188.31 C 396.29 187.92 397.63 187.53 398.99 187.14 C 400.54 186.85 402.09 186.62 403.66 186.39 C 403.65 183.99 403.63 181.59 403.62 179.20 C 401.58 179.48 399.53 179.76 397.50 180.10 C 398.62 179.85 399.74 179.59 400.86 179.33 C 396.76 166.22 391.78 153.27 384.43 141.61 C 368.91 115.56 343.70 95.28 314.59 86.51 C 288.60 78.29 260.58 77.81 233.84 82.34 Z" />
</g>
<g id="#fefefeff">
<path fill="#fefefe" opacity="1.00" d=" M 233.84 82.34 C 260.58 77.81 288.60 78.29 314.59 86.51 C 343.70 95.28 368.91 115.56 384.43 141.61 C 391.78 153.27 396.76 166.22 400.86 179.33 C 399.74 179.59 398.62 179.85 397.50 180.10 C 385.29 182.86 373.12 185.79 360.96 188.72 C 359.18 189.13 357.40 189.53 355.63 189.97 C 351.74 177.36 346.62 164.93 338.96 154.12 C 336.18 150.07 332.98 146.34 329.56 142.83 C 317.78 130.74 301.79 123.49 285.30 120.63 C 270.15 118.07 254.61 118.60 239.54 121.36 C 228.96 123.49 218.53 126.80 209.09 132.09 C 193.99 140.70 180.97 153.14 172.49 168.37 C 169.58 174.09 166.43 179.73 164.50 185.87 C 150.40 225.88 150.00 269.97 160.06 310.95 C 162.79 319.92 165.48 329.00 169.73 337.39 C 172.95 343.08 175.72 349.08 179.87 354.18 C 184.30 360.36 190.00 365.38 195.78 370.25 C 217.91 386.82 246.42 394.51 273.88 391.34 C 295.68 389.50 316.83 379.92 332.06 364.11 C 347.31 347.97 355.90 326.72 360.49 305.25 C 375.74 309.90 391.44 312.94 406.76 317.37 C 406.18 318.99 405.64 320.64 405.16 322.29 C 399.74 342.17 391.04 361.25 378.99 378.00 C 369.30 390.59 357.54 401.58 344.23 410.27 C 324.10 422.89 300.65 429.93 276.96 431.09 C 252.58 432.34 227.78 430.28 204.49 422.65 C 183.19 415.55 163.76 402.71 149.19 385.58 C 146.67 382.18 143.89 378.98 141.28 375.65 C 130.12 360.35 122.43 342.85 116.47 324.96 C 110.77 306.48 107.12 287.32 106.09 268.00 C 103.96 230.72 109.05 192.00 126.82 158.71 C 132.25 147.70 139.88 137.94 147.67 128.52 C 170.05 103.89 201.29 88.25 233.84 82.34 Z" />
</g>
</svg>
