<?xml version="1.0" encoding="UTF-8" ?>
<!DOCTYPE svg PUBLIC "-//W3C//DTD SVG 1.1//EN" "http://www.w3.org/Graphics/SVG/1.1/DTD/svg11.dtd">
<svg width="240pt" height="240pt" viewBox="0 0 240 240" version="1.1" xmlns="http://www.w3.org/2000/svg">
<g id="#e32400ff">
<path fill="#e32400" opacity="1.00" d=" M 0.00 0.00 L 34.13 0.00 C 34.27 20.01 34.27 40.01 34.13 60.02 C 31.55 61.38 29.56 63.87 30.02 66.96 C 29.99 102.31 29.99 137.67 30.02 173.03 C 29.57 176.11 31.54 178.63 34.14 179.98 C 34.32 199.99 34.16 219.99 34.22 240.00 L 0.00 240.00 L 0.00 0.00 Z" />
</g>
<g id="#ff6a00ff">
<path fill="#ff6a00" opacity="1.00" d=" M 34.13 0.00 L 68.24 0.00 C 68.28 20.00 68.32 40.00 68.21 60.00 C 56.85 60.03 45.49 59.96 34.13 60.02 C 34.27 40.01 34.27 20.01 34.13 0.00 Z" />
<path fill="#ff6a00" opacity="1.00" d=" M 38.22 73.96 C 37.89 71.70 39.56 69.11 42.01 69.24 C 50.75 69.05 59.49 69.25 68.24 69.17 C 68.25 103.06 68.25 136.94 68.24 170.83 C 59.50 170.75 50.75 170.95 42.01 170.77 C 40.43 170.90 39.20 169.69 38.48 168.42 C 37.99 165.65 38.25 162.82 38.20 160.02 C 38.24 131.34 38.20 102.65 38.22 73.96 M 47.67 101.56 C 45.18 104.79 45.46 109.12 45.06 112.97 C 45.03 120.79 44.47 128.80 46.47 136.43 C 47.73 140.65 52.37 141.39 56.02 142.38 C 58.52 141.60 61.34 141.21 63.25 139.24 C 64.94 137.62 65.54 135.29 66.34 133.17 C 66.31 130.31 66.36 127.44 66.43 124.58 C 63.53 124.61 60.63 124.61 57.73 124.61 C 57.75 128.21 57.67 131.83 57.30 135.42 C 56.58 135.16 55.14 134.66 54.42 134.40 C 54.00 124.84 53.99 115.18 54.43 105.61 C 55.15 105.35 56.60 104.81 57.33 104.54 C 57.76 108.72 57.76 112.93 57.70 117.13 C 60.60 117.13 63.51 117.14 66.41 117.16 C 66.22 112.06 67.10 106.48 64.40 101.87 C 62.62 98.94 58.94 98.58 55.97 97.63 C 53.07 98.55 49.66 98.98 47.67 101.56 Z" />
<path fill="#ff6a00" opacity="1.00" d=" M 34.14 179.98 C 45.50 180.04 56.86 179.97 68.22 180.00 C 68.34 200.00 68.23 220.00 68.28 240.00 L 34.22 240.00 C 34.16 219.99 34.32 199.99 34.14 179.98 Z" />
</g>
<g id="#fecb3eff">
<path fill="#fecb3e" opacity="1.00" d=" M 68.24 0.00 L 102.54 0.00 C 102.59 20.00 102.47 40.00 102.60 60.00 C 91.14 60.00 79.68 60.00 68.21 60.00 C 68.32 40.00 68.28 20.00 68.24 0.00 Z" />
<path fill="#fecb3e" opacity="1.00" d=" M 68.24 69.17 C 79.68 69.15 91.13 69.17 102.58 69.16 C 102.63 79.00 102.28 88.84 102.80 98.67 C 99.99 98.70 97.17 98.71 94.36 98.69 C 94.38 112.90 94.40 127.12 94.35 141.33 C 97.10 141.31 99.85 141.30 102.60 141.30 C 102.51 151.15 102.54 160.99 102.58 170.84 C 91.13 170.83 79.68 170.85 68.24 170.83 C 68.25 136.94 68.25 103.06 68.24 69.17 M 75.34 98.79 C 73.16 100.66 70.56 102.81 70.50 105.95 C 70.37 112.31 69.23 118.65 69.95 125.01 C 70.37 128.29 70.25 131.60 70.59 134.88 C 71.05 137.65 73.37 139.48 75.35 141.22 C 76.94 141.51 78.53 141.85 80.11 142.26 C 84.34 141.63 89.10 139.69 89.99 134.98 C 91.07 125.07 91.07 115.01 90.01 105.10 C 89.15 100.35 84.34 98.38 80.08 97.76 C 78.51 98.15 76.93 98.49 75.34 98.79 Z" />
<path fill="#fecb3e" opacity="1.00" d=" M 78.57 105.54 C 79.31 105.35 80.77 104.96 81.51 104.77 C 82.07 111.51 81.67 118.29 81.80 125.05 C 81.73 128.28 82.07 131.58 81.41 134.77 C 80.72 134.82 79.35 134.93 78.66 134.99 C 78.38 125.18 78.52 115.36 78.57 105.54 Z" />
<path fill="#fecb3e" opacity="1.00" d=" M 68.22 180.00 C 79.68 180.00 91.14 180.00 102.61 180.00 C 102.62 200.00 102.28 220.01 102.77 240.00 L 68.28 240.00 C 68.23 220.00 68.34 200.00 68.22 180.00 Z" />
</g>
<g id="#669c35ff">
<path fill="#669c35" opacity="1.00" d=" M 102.54 0.00 L 136.85 0.00 C 136.84 20.00 136.86 40.00 136.84 60.00 C 125.43 60.00 114.02 60.00 102.60 60.00 C 102.47 40.00 102.59 20.00 102.54 0.00 Z" />
<path fill="#669c35" opacity="1.00" d=" M 102.58 69.16 C 114.00 69.14 125.43 69.17 136.85 69.15 C 136.85 79.00 136.85 88.86 136.85 98.71 C 134.41 98.72 131.98 98.71 129.54 98.71 C 129.55 112.91 129.56 127.11 129.54 141.32 C 132.03 141.31 134.51 141.30 137.00 141.29 C 136.65 151.14 136.94 161.00 136.85 170.85 C 125.42 170.83 114.00 170.86 102.58 170.84 C 102.54 160.99 102.51 151.15 102.60 141.30 C 104.58 141.30 106.56 141.31 108.54 141.32 C 108.52 138.48 108.50 135.65 108.49 132.81 C 106.68 132.82 104.87 132.83 103.06 132.83 C 102.92 121.45 103.35 110.05 102.80 98.67 C 102.28 88.84 102.63 79.00 102.58 69.16 M 110.85 98.72 C 111.04 112.91 111.42 127.10 110.80 141.29 C 116.00 141.30 121.19 141.29 126.39 141.32 C 126.38 138.48 126.37 135.63 126.36 132.79 C 124.24 132.82 122.12 132.84 120.00 132.88 C 119.99 129.68 119.99 126.48 120.01 123.28 C 121.80 123.34 123.60 123.40 125.39 123.46 C 125.39 120.80 125.39 118.14 125.41 115.49 C 123.60 115.53 121.80 115.57 119.99 115.62 C 119.99 112.68 119.99 109.75 120.03 106.82 C 121.89 106.84 123.75 106.87 125.62 106.89 C 125.59 104.15 125.58 101.41 125.58 98.67 C 120.67 98.72 115.76 98.71 110.85 98.72 Z" />
<path fill="#669c35" opacity="1.00" d=" M 102.61 180.00 C 114.02 180.00 125.43 180.00 136.84 180.00 C 136.86 200.00 136.85 220.00 136.85 240.00 L 102.77 240.00 C 102.28 220.01 102.62 200.00 102.61 180.00 Z" />
</g>
<g id="#00c7fcff">
<path fill="#00c7fc" opacity="1.00" d=" M 136.85 0.00 L 171.21 0.00 C 171.21 20.00 171.20 40.00 171.22 60.00 C 159.76 60.00 148.30 60.00 136.84 60.00 C 136.86 40.00 136.84 20.00 136.85 0.00 Z" />
<path fill="#00c7fc" opacity="1.00" d=" M 136.85 69.15 C 145.25 69.21 153.66 69.07 162.06 69.19 C 164.51 68.97 166.27 71.63 165.99 73.89 C 166.01 104.60 166.00 135.31 165.99 166.02 C 166.30 168.30 164.55 171.02 162.06 170.81 C 153.66 170.92 145.25 170.79 136.85 170.85 C 136.94 161.00 136.65 151.14 137.00 141.29 C 137.24 132.11 136.22 122.92 137.14 113.75 C 138.74 122.88 139.58 132.12 140.82 141.31 C 142.54 141.31 144.26 141.31 145.98 141.31 C 147.29 131.81 147.65 122.18 149.52 112.77 C 149.32 122.28 149.33 131.80 149.31 141.32 C 151.95 141.30 154.60 141.30 157.24 141.30 C 157.22 127.10 157.22 112.91 157.24 98.71 C 153.39 98.72 149.54 98.72 145.69 98.69 C 145.33 103.78 144.48 108.82 144.33 113.93 C 143.80 115.38 143.29 116.84 142.78 118.30 C 142.32 111.74 141.58 105.20 140.63 98.69 C 139.69 98.69 137.80 98.71 136.85 98.71 C 136.85 88.86 136.85 79.00 136.85 69.15 Z" />
<path fill="#00c7fc" opacity="1.00" d=" M 136.84 180.00 C 148.30 180.00 159.76 180.00 171.22 180.00 C 171.17 200.00 171.28 220.00 171.16 240.00 L 136.85 240.00 C 136.85 220.00 136.86 200.00 136.84 180.00 Z" />
</g>
<g id="#0061ffff">
<path fill="#0061ff" opacity="1.00" d=" M 171.21 0.00 L 204.52 0.00 C 204.45 19.98 204.42 39.96 204.53 59.93 C 193.43 60.06 182.32 59.98 171.22 60.00 C 171.20 40.00 171.21 20.00 171.21 0.00 Z" />
<path fill="#0061ff" opacity="1.00" d=" M 178.42 69.53 C 184.24 68.76 190.18 69.29 196.05 69.20 C 198.75 69.00 201.89 71.06 201.75 73.98 C 201.81 89.65 201.81 105.33 201.75 121.00 C 201.91 123.96 198.70 126.03 195.97 125.80 C 190.97 125.88 185.97 125.87 180.98 125.80 C 178.27 126.05 175.04 124.05 175.18 121.09 C 175.09 105.37 175.11 89.65 175.18 73.93 C 174.97 71.86 176.71 70.32 178.42 69.53 M 182.33 73.45 C 180.05 74.17 178.82 76.71 179.01 78.99 C 178.99 91.34 178.99 103.70 179.01 116.05 C 178.79 118.51 180.38 121.44 183.04 121.65 C 186.66 121.83 190.30 121.83 193.92 121.65 C 196.16 121.49 197.76 119.15 197.58 117.00 C 197.61 103.99 197.61 90.98 197.58 77.97 C 197.81 75.47 195.59 73.00 193.03 73.29 C 189.46 73.25 185.88 73.08 182.33 73.45 Z" />
<path fill="#0061ff" opacity="1.00" d=" M 185.41 144.45 C 193.52 142.32 202.38 149.72 201.78 158.04 C 201.71 164.04 196.65 169.34 190.96 170.63 C 182.57 172.55 173.91 164.30 175.21 155.86 C 175.86 150.51 180.33 145.91 185.41 144.45 M 186.33 150.39 C 181.99 151.59 179.49 157.22 182.03 161.09 C 184.46 166.23 192.67 166.12 194.98 160.94 C 198.49 155.64 192.14 148.15 186.33 150.39 Z" />
<path fill="#0061ff" opacity="1.00" d=" M 171.22 180.00 C 182.32 180.02 193.43 179.94 204.53 180.07 C 204.37 200.04 204.57 220.02 204.42 240.00 L 171.16 240.00 C 171.28 220.00 171.17 200.00 171.22 180.00 Z" />
</g>
<g id="#9929bdff">
<path fill="#9929bd" opacity="1.00" d=" M 204.52 0.00 L 240.00 0.00 L 240.00 240.00 L 204.42 240.00 C 204.57 220.02 204.37 200.04 204.53 180.07 C 207.43 179.57 210.16 177.33 209.93 174.14 C 210.08 138.43 209.98 102.71 209.98 66.99 C 210.52 63.46 207.97 60.41 204.53 59.93 C 204.42 39.96 204.45 19.98 204.52 0.00 Z" />
</g>
<g id="#000000ff">
<path fill="#000000" opacity="1.00" d=" M 34.13 60.02 C 45.49 59.96 56.85 60.03 68.21 60.00 C 79.68 60.00 91.14 60.00 102.60 60.00 C 114.02 60.00 125.43 60.00 136.84 60.00 C 148.30 60.00 159.76 60.00 171.22 60.00 C 182.32 59.98 193.43 60.06 204.53 59.93 C 207.97 60.41 210.52 63.46 209.98 66.99 C 209.98 102.71 210.08 138.43 209.93 174.14 C 210.16 177.33 207.43 179.57 204.53 180.07 C 193.43 179.94 182.32 180.02 171.22 180.00 C 159.76 180.00 148.30 180.00 136.84 180.00 C 125.43 180.00 114.02 180.00 102.61 180.00 C 91.14 180.00 79.68 180.00 68.22 180.00 C 56.86 179.97 45.50 180.04 34.14 179.98 C 31.54 178.63 29.57 176.11 30.02 173.03 C 29.99 137.67 29.99 102.31 30.02 66.96 C 29.56 63.87 31.55 61.38 34.13 60.02 M 38.22 73.96 C 38.20 102.65 38.24 131.34 38.20 160.02 C 38.25 162.82 37.99 165.65 38.48 168.42 C 39.20 169.69 40.43 170.90 42.01 170.77 C 50.75 170.95 59.50 170.75 68.24 170.83 C 79.68 170.85 91.13 170.83 102.58 170.84 C 114.00 170.86 125.42 170.83 136.85 170.85 C 145.25 170.79 153.66 170.92 162.06 170.81 C 164.55 171.02 166.30 168.30 165.99 166.02 C 166.00 135.31 166.01 104.60 165.99 73.89 C 166.27 71.63 164.51 68.97 162.06 69.19 C 153.66 69.07 145.25 69.21 136.85 69.15 C 125.43 69.17 114.00 69.14 102.58 69.16 C 91.13 69.17 79.68 69.15 68.24 69.17 C 59.49 69.25 50.75 69.05 42.01 69.24 C 39.56 69.11 37.89 71.70 38.22 73.96 M 178.42 69.53 C 176.71 70.32 174.97 71.86 175.18 73.93 C 175.11 89.65 175.09 105.37 175.18 121.09 C 175.04 124.05 178.27 126.05 180.98 125.80 C 185.97 125.87 190.97 125.88 195.97 125.80 C 198.70 126.03 201.91 123.96 201.75 121.00 C 201.81 105.33 201.81 89.65 201.75 73.98 C 201.89 71.06 198.75 69.00 196.05 69.20 C 190.18 69.29 184.24 68.76 178.42 69.53 M 185.41 144.45 C 180.33 145.91 175.86 150.51 175.21 155.86 C 173.91 164.30 182.57 172.55 190.96 170.63 C 196.65 169.34 201.71 164.04 201.78 158.04 C 202.38 149.72 193.52 142.32 185.41 144.45 Z" />
<path fill="#000000" opacity="1.00" d=" M 182.33 73.45 C 185.88 73.08 189.46 73.25 193.03 73.29 C 195.59 73.00 197.81 75.47 197.58 77.97 C 197.61 90.98 197.61 103.99 197.58 117.00 C 197.76 119.15 196.16 121.49 193.92 121.65 C 190.30 121.83 186.66 121.83 183.04 121.65 C 180.38 121.44 178.79 118.51 179.01 116.05 C 178.99 103.70 178.99 91.34 179.01 78.99 C 178.82 76.71 180.05 74.17 182.33 73.45 Z" />
<path fill="#000000" opacity="1.00" d=" M 47.67 101.56 C 49.66 98.98 53.07 98.55 55.97 97.63 C 58.94 98.58 62.62 98.94 64.40 101.87 C 67.10 106.48 66.22 112.06 66.41 117.16 C 63.51 117.14 60.60 117.13 57.70 117.13 C 57.76 112.93 57.76 108.72 57.33 104.54 C 56.60 104.81 55.15 105.35 54.43 105.61 C 53.99 115.18 54.00 124.84 54.42 134.40 C 55.14 134.66 56.58 135.16 57.30 135.42 C 57.67 131.83 57.75 128.21 57.73 124.61 C 60.63 124.61 63.53 124.61 66.43 124.58 C 66.36 127.44 66.31 130.31 66.34 133.17 C 65.54 135.29 64.94 137.62 63.25 139.24 C 61.34 141.21 58.52 141.60 56.02 142.38 C 52.37 141.39 47.73 140.65 46.47 136.43 C 44.47 128.80 45.03 120.79 45.06 112.97 C 45.46 109.12 45.18 104.79 47.67 101.56 Z" />
<path fill="#000000" opacity="1.00" d=" M 75.34 98.79 C 76.93 98.49 78.51 98.15 80.08 97.76 C 84.34 98.38 89.15 100.35 90.01 105.10 C 91.07 115.01 91.07 125.07 89.99 134.98 C 89.10 139.69 84.34 141.63 80.11 142.26 C 78.53 141.85 76.94 141.51 75.35 141.22 C 73.37 139.48 71.05 137.65 70.59 134.88 C 70.25 131.60 70.37 128.29 69.95 125.01 C 69.23 118.65 70.37 112.31 70.50 105.95 C 70.56 102.81 73.16 100.66 75.34 98.79 M 78.57 105.54 C 78.52 115.36 78.38 125.18 78.66 134.99 C 79.35 134.93 80.72 134.82 81.41 134.77 C 82.07 131.58 81.73 128.28 81.80 125.05 C 81.67 118.29 82.07 111.51 81.51 104.77 C 80.77 104.96 79.31 105.35 78.57 105.54 Z" />
<path fill="#000000" opacity="1.00" d=" M 94.35 141.33 C 94.40 127.12 94.38 112.90 94.36 98.69 C 97.17 98.71 99.99 98.70 102.80 98.67 C 103.35 110.05 102.92 121.45 103.06 132.83 C 104.87 132.83 106.68 132.82 108.49 132.81 C 108.50 135.65 108.52 138.48 108.54 141.32 C 106.56 141.31 104.58 141.30 102.60 141.30 C 99.85 141.30 97.10 141.31 94.35 141.33 Z" />
<path fill="#000000" opacity="1.00" d=" M 110.85 98.72 C 115.76 98.71 120.67 98.72 125.58 98.67 C 125.58 101.41 125.59 104.15 125.62 106.89 C 123.75 106.87 121.89 106.84 120.03 106.82 C 119.99 109.75 119.99 112.68 119.99 115.62 C 121.80 115.57 123.60 115.53 125.41 115.49 C 125.39 118.14 125.39 120.80 125.39 123.46 C 123.60 123.40 121.80 123.34 120.01 123.28 C 119.99 126.48 119.99 129.68 120.00 132.88 C 122.12 132.84 124.24 132.82 126.36 132.79 C 126.37 135.63 126.38 138.48 126.39 141.32 C 121.19 141.29 116.00 141.30 110.80 141.29 C 111.42 127.10 111.04 112.91 110.85 98.72 Z" />
<path fill="#000000" opacity="1.00" d=" M 129.54 98.71 C 131.98 98.71 134.41 98.72 136.85 98.71 C 137.80 98.71 139.69 98.69 140.63 98.69 C 141.58 105.20 142.32 111.74 142.78 118.30 C 143.29 116.84 143.80 115.38 144.33 113.93 C 144.48 108.82 145.33 103.78 145.69 98.69 C 149.54 98.72 153.39 98.72 157.24 98.71 C 157.22 112.91 157.22 127.10 157.24 141.30 C 154.60 141.30 151.95 141.30 149.31 141.32 C 149.33 131.80 149.32 122.28 149.52 112.77 C 147.65 122.18 147.29 131.81 145.98 141.31 C 144.26 141.31 142.54 141.31 140.82 141.31 C 139.58 132.12 138.74 122.88 137.14 113.75 C 136.22 122.92 137.24 132.11 137.00 141.29 C 134.51 141.30 132.03 141.31 129.54 141.32 C 129.56 127.11 129.55 112.91 129.54 98.71 Z" />
<path fill="#000000" opacity="1.00" d=" M 186.33 150.39 C 192.14 148.15 198.49 155.64 194.98 160.94 C 192.67 166.12 184.46 166.23 182.03 161.09 C 179.49 157.22 181.99 151.59 186.33 150.39 Z" />
</g>
</svg>
