<?xml version="1.0" encoding="UTF-8" standalone="no"?>
<svg
   width="190.0031pt"
   height="240.0031pt"
   viewBox="0 0 190.0031 240.0031"
   version="1.1"
   id="svg33"
   sodipodi:docname="desmume.svg"
   inkscape:version="1.4.2 (ebf0e940d0, 2025-05-08)"
   xmlns:inkscape="http://www.inkscape.org/namespaces/inkscape"
   xmlns:sodipodi="http://sodipodi.sourceforge.net/DTD/sodipodi-0.dtd"
   xmlns="http://www.w3.org/2000/svg"
   xmlns:svg="http://www.w3.org/2000/svg">
  <defs
     id="defs33" />
  <sodipodi:namedview
     id="namedview33"
     pagecolor="#505050"
     bordercolor="#ffffff"
     borderopacity="1"
     inkscape:showpageshadow="0"
     inkscape:pageopacity="0"
     inkscape:pagecheckerboard="1"
     inkscape:deskcolor="#505050"
     inkscape:document-units="pt"
     inkscape:zoom="1.3005"
     inkscape:cx="160.32295"
     inkscape:cy="160.32295"
     inkscape:window-width="1920"
     inkscape:window-height="1052"
     inkscape:window-x="0"
     inkscape:window-y="0"
     inkscape:window-maximized="1"
     inkscape:current-layer="svg33" />
  <g
     id="#000000ff"
     transform="translate(-149.99845,-129.99845)">
    <path
       fill="#000000"
       opacity="1"
       d="m 170,130.01 c 48.33,-0.02 96.66,-0.01 144.99,0 0.03,49.99 -0.01,99.99 0.02,149.98 8.33,0.04 16.65,-0.02 24.98,0.02 0.01,29.99 0.02,59.99 0,89.98 -44.99,0.01 -89.99,0.02 -134.98,0 -0.03,-23.33 0.01,-46.65 -0.02,-69.98 -8.33,-0.04 -16.66,0.02 -24.98,-0.02 -0.03,-19.99 0.01,-39.99 -0.02,-59.98 -9.99,-0.04 -19.99,0.02 -29.98,-0.02 -0.02,-31.66 -0.01,-63.32 0,-94.98 6.66,-0.04 13.32,0.02 19.99,-0.02 -0.01,-4.99 0.01,-9.99 0,-14.98 M 184.99,145 c 0.02,5 0,10 0.02,15 -6.67,0.01 -13.34,0 -20.01,0.01 -0.01,3.17 -0.01,6.34 0.05,9.52 -0.12,5.15 -0.01,10.32 -0.05,15.48 -0.03,6.67 0.03,13.34 0,20.01 -0.01,6.66 0.01,13.31 0.01,19.97 11.66,-0.01 23.32,-0.01 34.98,0 0,-6.29 0.03,-12.58 0.01,-18.87 -0.03,-6.7 0.01,-13.41 0,-20.11 -0.02,-6.67 0.01,-13.33 0,-20 -0.01,-7.01 0,-14.01 0.01,-21.01 -5.01,0 -10.01,0 -15.02,0 m 30,0 c 0.01,8.35 0.02,16.7 0.01,25.06 -0.02,6.98 0.02,13.96 0,20.94 -0.02,6.35 0.02,12.7 0.01,19.06 -0.03,4.98 -0.01,9.96 0,14.94 11.66,-0.02 23.32,-0.02 34.98,0 0,-7 0.02,-13.99 0.01,-20.98 -0.05,-9.68 0.02,-19.35 0.01,-29.03 -5.01,0.01 -10.01,0.01 -15.02,0 -0.01,9.68 0.05,19.35 0.01,29.03 0,3.66 -0.01,7.33 -0.01,11 -1.65,-0.05 -3.31,-0.05 -4.96,0 -0.03,-2 -0.03,-4 -0.05,-5.99 0.02,-6.02 0.03,-12.03 0.02,-18.04 -0.03,-7.02 0.03,-14.04 -0.01,-21.07 6.66,0.19 13.33,-0.01 20,0.08 0,-3.34 0.01,-6.67 0,-10 -6.67,0.01 -13.34,0.01 -20.01,0 0.04,-1.67 0.04,-3.33 0,-5 6.67,0 13.35,0 20.02,0 0,-3.33 0,-6.67 0,-10.01 C 238.33,145 226.66,145 214.99,145 m 50.01,0 c 0,8.33 0.01,16.66 0,25 6.74,0.08 13.49,-0.28 20.21,0.27 -0.47,8.06 -0.11,16.14 -0.16,24.21 -0.11,5.21 -0.03,10.41 -0.03,15.62 -0.02,1.64 -0.04,3.28 -0.05,4.92 -1.66,-0.05 -3.31,-0.05 -4.96,0 0.01,-3.35 -0.02,-6.69 -0.01,-10.04 -0.04,-10 0.02,-19.99 0.01,-29.99 C 275,175 270,175 264.99,174.99 264.98,185 265.04,195 265,205 c -0.02,6.67 0.01,13.33 0.01,19.99 11.66,-0.01 23.32,-0.01 34.98,0.01 0,-5.37 0.04,-10.73 -0.01,-16.09 0,-4.81 0.07,-9.62 -0.03,-14.42 0.07,-7.81 0.05,-15.61 0.05,-23.41 -0.03,-3.7 0,-7.39 0,-11.08 -6.68,0.01 -13.35,0.01 -20.02,0 0.04,-1.67 0.04,-3.33 0,-5 6.67,0 13.35,0 20.02,0 0,-3.33 0,-6.67 0,-10.01 C 288.33,145 276.66,145 265,145 m -70,90 c -0.02,7.98 0.03,15.97 0.02,23.96 -0.07,8.67 0.01,17.34 0,26.02 4.99,-0.01 9.97,-0.01 14.96,-0.01 -0.01,-8.67 0.07,-17.34 0,-26.01 -0.03,-4.66 0.03,-9.32 0.03,-13.98 1.66,0.05 3.32,0.05 4.99,0 -0.02,5 0.06,10.01 0.01,15.01 -0.05,8.33 0.02,16.66 0.02,24.98 4.98,0 9.96,0 14.94,0 0,-8.32 0.06,-16.65 0.02,-24.97 -0.05,-5.01 0.02,-10.01 0.01,-15.02 1.66,0.05 3.33,0.05 4.99,0 0,5 0.07,10 0.02,15.01 -0.05,8.32 0.02,16.65 0.02,24.99 4.98,-0.01 9.96,-0.01 14.94,0 0,-8.33 0.07,-16.66 0.02,-24.99 -0.03,-8.33 0.03,-16.66 0.01,-24.99 -18.33,0 -36.67,0 -55,0 m 70,0 c -0.02,8.33 0.03,16.67 0.01,25.01 -0.04,8.32 0.01,16.65 0.01,24.97 11.65,-0.02 23.31,-0.02 34.96,0 -0.01,-8.33 0.06,-16.66 0.01,-24.99 -0.03,-8.33 0.03,-16.66 0.01,-24.99 -5,0 -10,0 -15,0 -0.02,8.33 0.04,16.66 0.01,24.99 -0.02,5.01 -0.01,10.02 -0.02,15.04 -1.66,-0.05 -3.33,-0.05 -4.98,0 -0.01,-5.01 0,-10.01 -0.02,-15.02 -0.03,-8.34 0.03,-16.68 0.01,-25.01 -5,0 -10,0 -15,0 m -45,60 c -0.02,5.33 0,10.66 0.02,16 -0.06,6.31 -0.01,12.62 0,18.94 -0.06,8.34 0,16.69 0,25.04 4.98,0.02 9.97,0.02 14.96,-0.01 0,-7.98 0.07,-15.96 -0.01,-23.93 0.02,-6.68 0.08,-13.36 0,-20.04 0.01,-2.01 0.03,-4.02 0.06,-6.02 1.65,0.04 3.31,0.04 4.96,0 0.01,4.67 0.07,9.33 0.03,14 -0.07,12 0.01,23.99 0.01,35.99 4.98,0.01 9.96,0.01 14.94,0 0,-11.99 0.08,-23.98 0.01,-35.96 -0.04,-4.68 0.01,-9.35 0.03,-14.03 1.65,0.04 3.3,0.04 4.96,0 0.03,2 0.05,4 0.06,6.01 -0.08,6.39 -0.02,12.77 0,19.16 -0.08,8.28 -0.01,16.55 -0.01,24.82 4.99,0.03 9.97,0.03 14.96,0 0.01,-8.7 0.05,-17.39 0,-26.09 0.01,-5.96 0.06,-11.92 0,-17.88 0.02,-5.34 0.04,-10.67 0.02,-16 -18.33,0 -36.67,0 -55,0 m 70,0 c -0.02,4.65 0,9.31 0.03,13.96 -0.08,6.66 -0.02,13.32 0,19.98 -0.09,8.68 0,17.36 -0.01,26.04 11.65,0 23.31,0 34.96,0 0.02,-9.99 0.03,-19.99 0.02,-29.98 -5,-0.02 -10,-0.01 -15,0 -0.02,6.67 0.02,13.35 -0.01,20.02 -1.67,-0.04 -3.33,-0.04 -4.98,0.01 -0.01,-5.32 0,-10.64 -0.02,-15.96 -0.07,-3.03 0.03,-6.05 0.02,-9.06 6.66,-0.03 13.32,0.01 19.98,-0.02 0.02,-3.33 0.02,-6.66 0.01,-9.99 -6.69,0.01 -13.39,-0.05 -20.08,0.04 0.04,-1.69 0.08,-3.37 0.12,-5.04 6.65,-0.01 13.3,0.02 19.95,-0.01 0.01,-3.33 0.02,-6.66 0.01,-9.99 -11.67,0 -23.33,0 -35,0 z"
       id="path1" />
    <path
       fill="#000000"
       opacity="1"
       d="m 180.01,169.99 c 1.66,0.03 3.32,0.03 4.98,0 0,5.33 0.03,10.67 0.02,16.01 -0.03,6.31 0.02,12.63 -0.01,18.94 0.02,3.36 -0.03,6.72 -0.01,10.08 -1.66,-0.05 -3.32,-0.05 -4.98,0 0.02,-3.34 -0.03,-6.67 -0.01,-10 -0.03,-6.67 0.02,-13.34 0,-20 -0.02,-5.02 0,-10.02 0.01,-15.03 z"
       id="path2" />
  </g>
  <g
     id="#f2f3f9ff"
     transform="translate(-149.99845,-129.99845)">
    <path
       fill="#f2f3f9"
       opacity="1"
       d="m 184.99,145 c 5.01,0 10.01,0 15.02,0 -0.01,7 -0.02,14 -0.01,21.01 -8.01,0.03 -16.03,0.03 -24.04,-0.09 -4.06,-0.43 -7.15,2.7 -10.91,3.61 -0.06,-3.18 -0.06,-6.35 -0.05,-9.52 6.67,-0.01 13.34,0 20.01,-0.01 -0.02,-5 0,-10 -0.02,-15 z"
       id="path3" />
  </g>
  <g
     id="#f3f3f9ff"
     transform="translate(-149.99845,-129.99845)">
    <path
       fill="#f3f3f9"
       opacity="1"
       d="m 214.99,145 c 11.67,0 23.34,0 35.01,-0.01 0,3.34 0,6.68 0,10.01 -6.67,0 -13.35,0 -20.02,0 0.04,1.67 0.04,3.33 0,5 6.67,0.01 13.34,0.01 20.01,0 0.01,3.33 0,6.66 0,10 -6.67,-0.09 -13.34,0.11 -20,-0.08 -5,-0.37 -10.01,-0.46 -14.99,0.14 0.01,-8.36 0,-16.71 -0.01,-25.06 z"
       id="path4" />
    <path
       fill="#f3f3f9"
       opacity="1"
       d="m 265,145 c 11.66,0 23.33,0 35,-0.01 0,3.34 0,6.68 0,10.01 -6.67,0 -13.35,0 -20.02,0 0.04,1.67 0.04,3.33 0,5 6.67,0.01 13.34,0.01 20.02,0 0,3.69 -0.03,7.38 0,11.08 -4.88,-0.99 -9.86,-0.49 -14.79,-0.81 -6.72,-0.55 -13.47,-0.19 -20.21,-0.27 0.01,-8.34 0,-16.67 0,-25 z"
       id="path5" />
  </g>
  <g
     id="#eaebf5ff"
     transform="translate(-149.99845,-129.99845)">
    <path
       fill="#eaebf5"
       opacity="1"
       d="m 165.05,169.53 c 3.76,-0.91 6.85,-4.04 10.91,-3.61 8.01,0.12 16.03,0.12 24.04,0.09 0.01,6.67 -0.02,13.33 0,20 -5,0 -10,0 -14.99,-0.01 0.01,-5.34 -0.02,-10.68 -0.02,-16.01 -1.66,0.03 -3.32,0.03 -4.98,0 C 180,175 179.98,180 180,185.02 c -5,0 -10,0 -15,-0.01 0.04,-5.16 -0.07,-10.33 0.05,-15.48 z"
       id="path6" />
  </g>
  <g
     id="#e8e8f4ff"
     transform="translate(-149.99845,-129.99845)">
    <path
       fill="#e8e8f4"
       opacity="1"
       d="m 215,170.06 c 4.98,-0.6 9.99,-0.51 14.99,-0.14 0.04,7.03 -0.02,14.05 0.01,21.07 -5,-0.01 -10,-0.01 -15,0.01 0.02,-6.98 -0.02,-13.96 0,-20.94 z"
       id="path7" />
  </g>
  <g
     id="#e8e7f4ff"
     transform="translate(-149.99845,-129.99845)">
    <path
       fill="#e8e7f4"
       opacity="1"
       d="m 285.21,170.27 c 4.93,0.32 9.91,-0.18 14.79,0.81 0,7.8 0.02,15.6 -0.05,23.41 -3.1,-0.91 -6.31,-3.98 -9.64,-2.25 -1.78,0.69 -3.51,1.49 -5.26,2.24 0.05,-8.07 -0.31,-16.15 0.16,-24.21 z"
       id="path8" />
  </g>
  <g
     id="#e4e4f2ff"
     transform="translate(-149.99845,-129.99845)">
    <path
       fill="#e4e4f2"
       opacity="1"
       d="m 234.99,174.99 c 5.01,0.01 10.01,0.01 15.02,0 0.01,9.68 -0.06,19.35 -0.01,29.03 -5,0.02 -10,0.02 -15,0 0.04,-9.68 -0.02,-19.35 -0.01,-29.03 z"
       id="path9" />
  </g>
  <g
     id="#e3e3f2ff"
     transform="translate(-149.99845,-129.99845)">
    <path
       fill="#e3e3f2"
       opacity="1"
       d="m 264.99,174.99 c 5.01,0.01 10.01,0.01 15.02,0 0.01,10 -0.05,19.99 -0.01,29.99 -5,-0.03 -10,-0.02 -15,0.02 0.04,-10 -0.02,-20 -0.01,-30.01 z"
       id="path10" />
  </g>
  <g
     id="#e0e1f0ff"
     transform="translate(-149.99845,-129.99845)">
    <path
       fill="#e0e1f0"
       opacity="1"
       d="m 165,185.01 c 5,0.01 10,0.01 15,0.01 0.02,6.66 -0.03,13.33 0,20 -5,0.04 -10,0.04 -15,0 0.03,-6.67 -0.03,-13.34 0,-20.01 z"
       id="path11" />
  </g>
  <g
     id="#e0e0f0ff"
     transform="translate(-149.99845,-129.99845)">
    <path
       fill="#e0e0f0"
       opacity="1"
       d="m 185.01,186 c 4.99,0.01 9.99,0.01 14.99,0.01 0.01,6.7 -0.03,13.41 0,20.11 -4.97,-0.72 -9.98,-1.14 -15,-1.18 0.03,-6.31 -0.02,-12.63 0.01,-18.94 z"
       id="path12" />
  </g>
  <g
     id="#ddddefff"
     transform="translate(-149.99845,-129.99845)">
    <path
       fill="#ddddef"
       opacity="1"
       d="m 215,191 c 5,-0.02 10,-0.02 15,-0.01 0.01,6.01 0,12.02 -0.02,18.04 -4.99,0.34 -9.98,0.66 -14.97,1.03 0.01,-6.36 -0.03,-12.71 -0.01,-19.06 z"
       id="path13" />
  </g>
  <g
     id="#dcdceeff"
     transform="translate(-149.99845,-129.99845)">
    <path
       fill="#dcdcee"
       opacity="1"
       d="m 290.31,192.24 c 3.33,-1.73 6.54,1.34 9.64,2.25 0.1,4.8 0.03,9.61 0.03,14.42 -4.95,0.74 -9.95,1.14 -14.96,1.19 0,-5.21 -0.08,-10.41 0.03,-15.62 1.75,-0.75 3.48,-1.55 5.26,-2.24 z"
       id="path14" />
  </g>
  <g
     id="#d2d2e9ff"
     transform="translate(-149.99845,-129.99845)">
    <path
       fill="#d2d2e9"
       opacity="1"
       d="m 235,204.02 c 5,0.02 10,0.02 15,0 0.01,6.99 -0.01,13.98 -0.01,20.98 -11.66,-0.02 -23.32,-0.02 -34.98,0 -0.01,-4.98 -0.03,-9.96 0,-14.94 4.99,-0.37 9.98,-0.69 14.97,-1.03 0.02,1.99 0.02,3.99 0.05,5.99 1.65,-0.05 3.31,-0.05 4.96,0 0,-3.67 0.01,-7.34 0.01,-11 z"
       id="path15" />
    <path
       fill="#d2d2e9"
       opacity="1"
       d="m 165,205.02 c 5,0.04 10,0.04 15,0 -0.02,3.33 0.03,6.66 0.01,10 1.66,-0.05 3.32,-0.05 4.98,0 -0.02,-3.36 0.03,-6.72 0.01,-10.08 5.02,0.04 10.03,0.46 15,1.18 0.02,6.29 -0.01,12.58 -0.01,18.87 -11.66,-0.01 -23.32,-0.01 -34.98,0 0,-6.66 -0.02,-13.31 -0.01,-19.97 z"
       id="path16" />
    <path
       fill="#d2d2e9"
       opacity="1"
       d="m 265,205 c 5,-0.04 10,-0.05 15,-0.02 -0.01,3.35 0.02,6.69 0.01,10.04 1.65,-0.05 3.3,-0.05 4.96,0 0.01,-1.64 0.03,-3.28 0.05,-4.92 5.01,-0.05 10.01,-0.45 14.96,-1.19 0.05,5.36 0.01,10.72 0.01,16.09 -11.66,-0.02 -23.32,-0.02 -34.98,-0.01 0,-6.66 -0.03,-13.32 -0.01,-19.99 z"
       id="path17" />
  </g>
  <g
     id="#bdbddfff"
     transform="translate(-149.99845,-129.99845)">
    <path
       fill="#bdbddf"
       opacity="1"
       d="m 195,235 c 18.33,0 36.67,0 55,0 0.02,8.33 -0.04,16.66 -0.01,24.99 -5,-0.01 -9.99,-0.02 -14.98,0 0.05,-5.01 -0.02,-10.01 -0.02,-15.01 -1.66,0.05 -3.33,0.05 -4.99,0 0.01,5.01 -0.06,10.01 -0.01,15.02 -4.99,-0.02 -9.99,-0.02 -14.98,-0.01 0.05,-5 -0.03,-10.01 -0.01,-15.01 -1.67,0.05 -3.33,0.05 -4.99,0 0,4.66 -0.06,9.32 -0.03,13.98 -4.95,0.84 -10.01,0.84 -14.96,0 0.01,-7.99 -0.04,-15.98 -0.02,-23.96 z"
       id="path18" />
    <path
       fill="#bdbddf"
       opacity="1"
       d="m 285,235 c 5,0 10,0 15,0 0.02,8.33 -0.04,16.66 -0.01,24.99 -5,-0.01 -9.99,-0.01 -14.98,0 0.03,-8.33 -0.03,-16.66 -0.01,-24.99 z"
       id="path19" />
  </g>
  <g
     id="#bdbddeff"
     transform="translate(-149.99845,-129.99845)">
    <path
       fill="#bdbdde"
       opacity="1"
       d="m 265,235 c 5,0 10,0 15,0 0.02,8.33 -0.04,16.67 -0.01,25.01 -4.99,0.01 -9.99,0.01 -14.98,0 0.02,-8.34 -0.03,-16.68 -0.01,-25.01 z"
       id="path20" />
  </g>
  <g
     id="#ababd6ff"
     transform="translate(-149.99845,-129.99845)">
    <path
       fill="#ababd6"
       opacity="1"
       d="m 195.02,258.96 c 4.95,0.84 10.01,0.84 14.96,0 0.07,8.67 -0.01,17.34 0,26.01 -4.99,0 -9.97,0 -14.96,0.01 0.01,-8.68 -0.07,-17.35 0,-26.02 z"
       id="path21" />
    <path
       fill="#ababd6"
       opacity="1"
       d="m 215.01,259.99 c 4.99,-0.01 9.99,-0.01 14.98,0.01 0.04,8.32 -0.02,16.65 -0.02,24.97 -4.98,0 -9.96,0 -14.94,0 0,-8.32 -0.07,-16.65 -0.02,-24.98 z"
       id="path22" />
    <path
       fill="#ababd6"
       opacity="1"
       d="m 235.01,259.99 c 4.99,-0.02 9.98,-0.01 14.98,0 0.05,8.33 -0.02,16.66 -0.02,24.99 -4.98,-0.01 -9.96,-0.01 -14.94,0 0,-8.34 -0.07,-16.67 -0.02,-24.99 z"
       id="path23" />
  </g>
  <g
     id="#ababd5ff"
     transform="translate(-149.99845,-129.99845)">
    <path
       fill="#ababd5"
       opacity="1"
       d="m 265.01,260.01 c 4.99,0.01 9.99,0.01 14.98,0 0.02,5.01 0.01,10.01 0.02,15.02 1.65,-0.05 3.32,-0.05 4.98,0 0.01,-5.02 0,-10.03 0.02,-15.04 4.99,-0.01 9.98,-0.01 14.98,0 0.05,8.33 -0.02,16.66 -0.01,24.99 -11.65,-0.02 -23.31,-0.02 -34.96,0 0,-8.32 -0.05,-16.65 -0.01,-24.97 z"
       id="path24" />
  </g>
  <g
     id="#9797cbff"
     transform="translate(-149.99845,-129.99845)">
    <path
       fill="#9797cb"
       opacity="1"
       d="m 220,295 c 18.33,0 36.67,0 55,0 0.02,5.33 0,10.66 -0.02,16 -4.98,-0.02 -9.97,-0.02 -14.95,-0.01 -0.01,-2.01 -0.03,-4.01 -0.06,-6.01 -1.66,0.04 -3.31,0.04 -4.96,0 -0.02,4.68 -0.07,9.35 -0.03,14.03 -4.99,-0.01 -9.97,-0.03 -14.96,-0.03 0.04,-4.67 -0.02,-9.33 -0.03,-14 -1.65,0.04 -3.31,0.04 -4.96,0 -0.03,2 -0.05,4.01 -0.06,6.02 -4.99,-0.01 -9.97,-0.01 -14.95,0 -0.02,-5.34 -0.04,-10.67 -0.02,-16 z"
       id="path25" />
  </g>
  <g
     id="#9898ccff"
     transform="translate(-149.99845,-129.99845)">
    <path
       fill="#9898cc"
       opacity="1"
       d="m 290,295 c 11.67,0 23.33,0 35,0 0.01,3.33 0,6.66 -0.01,9.99 -6.65,0.03 -13.3,0 -19.95,0.01 -0.04,1.67 -0.08,3.35 -0.12,5.04 -4.99,0.14 -9.97,-0.26 -14.89,-1.08 C 290,304.31 289.98,299.65 290,295 Z"
       id="path26" />
  </g>
  <g
     id="#8f8fc7ff"
     transform="translate(-149.99845,-129.99845)">
    <path
       fill="#8f8fc7"
       opacity="1"
       d="m 290.03,308.96 c 4.92,0.82 9.9,1.22 14.89,1.08 6.69,-0.09 13.39,-0.03 20.08,-0.04 0.01,3.33 0.01,6.66 -0.01,9.99 -6.66,0.03 -13.32,-0.01 -19.98,0.02 0.01,3.01 -0.09,6.03 -0.02,9.06 -4.99,-0.25 -9.97,-0.39 -14.96,-0.13 -0.02,-6.66 -0.08,-13.32 0,-19.98 z"
       id="path27" />
  </g>
  <g
     id="#8d8dc7ff"
     transform="translate(-149.99845,-129.99845)">
    <path
       fill="#8d8dc7"
       opacity="1"
       d="m 220.02,311 c 4.98,-0.01 9.96,-0.01 14.95,0 0.08,6.68 0.02,13.36 0,20.04 -4.94,-0.82 -9.95,-1.17 -14.95,-1.1 -0.01,-6.32 -0.06,-12.63 0,-18.94 z"
       id="path28" />
  </g>
  <g
     id="#8d8dc6ff"
     transform="translate(-149.99845,-129.99845)">
    <path
       fill="#8d8dc6"
       opacity="1"
       d="m 260.03,310.99 c 4.98,-0.01 9.97,-0.01 14.95,0.01 0.06,5.96 0.01,11.92 0,17.88 -5,0.19 -9.99,0.66 -14.95,1.27 -0.02,-6.39 -0.08,-12.77 0,-19.16 z"
       id="path29" />
  </g>
  <g
     id="#8686c3ff"
     transform="translate(-149.99845,-129.99845)">
    <path
       fill="#8686c3"
       opacity="1"
       d="m 240.02,318.98 c 4.99,0 9.97,0.02 14.96,0.03 0.07,11.98 -0.01,23.97 -0.01,35.96 -4.98,0.01 -9.96,0.01 -14.94,0 0,-12 -0.08,-23.99 -0.01,-35.99 z"
       id="path30" />
  </g>
  <g
     id="#8484c2ff"
     transform="translate(-149.99845,-129.99845)">
    <path
       fill="#8484c2"
       opacity="1"
       d="m 310,325 c 5,-0.01 10,-0.02 15,0 0.01,9.99 0,19.99 -0.02,29.98 -11.65,0 -23.31,0 -34.96,0 0.01,-8.68 -0.08,-17.36 0.01,-26.04 4.99,-0.26 9.97,-0.12 14.96,0.13 0.02,5.32 0.01,10.64 0.02,15.96 1.65,-0.05 3.31,-0.05 4.98,-0.01 0.03,-6.67 -0.01,-13.35 0.01,-20.02 z"
       id="path31" />
  </g>
  <g
     id="#8483c2ff"
     transform="translate(-149.99845,-129.99845)">
    <path
       fill="#8483c2"
       opacity="1"
       d="m 260.03,330.15 c 4.96,-0.61 9.95,-1.08 14.95,-1.27 0.05,8.7 0.01,17.39 0,26.09 -4.99,0.03 -9.97,0.03 -14.96,0 0,-8.27 -0.07,-16.54 0.01,-24.82 z"
       id="path32" />
  </g>
  <g
     id="#8383c2ff"
     transform="translate(-149.99845,-129.99845)">
    <path
       fill="#8383c2"
       opacity="1"
       d="m 220.02,329.94 c 5,-0.07 10.01,0.28 14.95,1.1 0.08,7.97 0.01,15.95 0.01,23.93 -4.99,0.03 -9.98,0.03 -14.96,0.01 0,-8.35 -0.06,-16.7 0,-25.04 z"
       id="path33" />
  </g>
</svg>
