<?xml version="1.0" encoding="UTF-8" ?>
<!DOCTYPE svg PUBLIC "-//W3C//DTD SVG 1.1//EN" "http://www.w3.org/Graphics/SVG/1.1/DTD/svg11.dtd">
<svg width="512pt" height="512pt" viewBox="0 0 512 512" version="1.1" xmlns="http://www.w3.org/2000/svg">
<g id="#231f20ff">
<path fill="#231f20" opacity="1.00" d=" M 342.29 0.00 L 342.46 0.00 C 353.14 0.34 363.86 4.97 370.50 13.50 C 374.41 18.23 376.50 24.10 378.09 29.95 C 383.91 49.44 389.71 68.94 395.56 88.42 C 414.76 92.85 433.93 97.43 453.11 101.92 C 458.04 103.07 463.10 104.05 467.60 106.45 C 477.68 111.59 485.01 121.90 486.30 133.17 C 488.44 149.13 490.69 165.07 492.84 181.03 C 493.87 188.71 492.37 196.71 488.46 203.41 C 485.87 208.00 482.06 211.70 478.48 215.49 C 472.98 221.32 467.50 227.17 461.98 232.97 C 454.76 240.62 444.02 245.14 433.47 243.97 C 435.31 254.55 431.27 265.54 424.04 273.29 C 425.09 276.15 426.13 279.05 426.23 282.13 C 459.60 284.07 489.31 310.76 496.58 343.11 C 499.21 360.71 501.49 378.37 504.00 395.99 C 507.12 417.16 501.28 438.99 489.97 456.94 C 481.45 470.38 470.45 482.25 457.70 491.75 C 441.78 503.49 422.61 511.53 402.65 512.00 L 400.42 512.00 C 386.15 511.57 371.95 507.62 359.67 500.30 C 346.76 492.28 340.16 475.38 344.65 460.79 C 330.43 458.51 317.54 450.68 307.23 440.84 C 293.44 427.56 283.81 409.01 284.04 389.57 C 282.21 389.51 280.38 389.45 278.56 389.40 C 280.59 403.03 277.39 417.05 271.31 429.28 C 266.72 438.53 260.37 446.77 253.32 454.26 C 238.61 469.88 223.93 485.54 209.17 501.12 C 203.45 507.18 195.55 510.87 187.34 512.00 L 180.30 512.00 C 172.28 511.26 164.57 507.80 158.74 502.23 C 122.55 468.10 86.32 434.00 50.16 399.84 C 43.29 393.44 39.62 384.27 39.01 375.00 C 37.06 360.30 35.07 345.61 33.10 330.92 C 31.73 320.65 35.18 309.89 42.28 302.34 C 54.69 289.08 67.19 275.90 79.64 262.67 C 83.59 258.40 87.95 254.53 92.18 250.54 C 67.63 226.84 42.49 203.73 17.81 180.16 C 12.44 174.76 8.90 167.57 7.93 160.01 C 5.81 143.96 3.76 127.90 1.61 111.86 C -0.04 101.45 3.81 90.57 11.01 83.00 C 20.38 73.04 29.76 63.08 39.15 53.14 C 46.30 45.63 53.14 37.72 61.43 31.42 C 75.87 20.10 93.56 12.89 111.88 11.40 C 138.66 9.08 165.98 17.39 187.38 33.55 C 209.32 49.93 227.37 73.13 233.36 100.23 C 240.59 91.25 249.04 83.32 256.80 74.79 C 264.07 66.80 275.12 62.03 285.97 63.33 C 283.98 52.61 288.12 41.32 295.61 33.58 C 302.92 25.88 310.14 18.10 317.50 10.45 C 323.96 3.81 333.11 0.29 342.29 0.00 M 337.38 32.09 L 337.41 32.37 C 330.50 39.48 323.75 46.74 316.94 53.94 C 315.00 55.75 314.43 58.58 315.38 61.04 C 318.83 72.35 322.05 83.74 325.66 95.00 C 326.09 97.62 327.16 100.14 327.84 102.72 C 326.86 102.50 324.90 102.05 323.92 101.83 C 316.88 100.19 309.86 98.48 302.82 96.85 C 296.84 95.51 290.89 94.02 284.90 92.69 C 283.40 92.24 281.89 92.70 280.42 92.98 L 280.43 93.22 C 272.45 100.59 265.38 108.94 257.79 116.73 C 254.29 119.61 255.40 125.93 259.80 127.23 C 264.45 128.57 269.24 129.39 273.93 130.63 C 280.87 132.33 287.83 133.92 294.79 135.53 C 301.83 137.34 308.96 138.82 316.03 140.53 C 321.40 141.91 326.84 143.04 332.23 144.37 C 335.07 145.06 337.93 145.69 340.78 146.38 C 341.23 147.74 341.68 149.10 342.16 150.45 C 344.47 158.97 347.07 167.44 349.76 175.85 C 351.83 183.62 354.16 191.37 356.71 199.01 C 358.87 207.68 361.79 216.26 364.27 224.89 C 364.92 227.94 367.87 230.28 371.03 229.87 C 373.82 229.64 375.57 227.22 377.38 225.39 C 383.75 218.43 390.42 211.74 396.69 204.70 C 399.30 201.72 397.30 197.70 396.42 194.46 C 392.84 181.93 388.60 169.54 385.48 156.91 C 399.38 160.20 413.28 163.45 427.18 166.77 C 429.84 167.65 432.80 166.80 434.59 164.65 C 441.54 157.25 448.56 149.93 455.45 142.48 C 457.64 140.31 457.85 136.53 455.83 134.19 C 454.22 132.14 451.47 131.85 449.13 131.23 C 424.06 125.53 399.09 119.33 374.00 113.74 C 373.52 113.55 372.58 113.18 372.11 112.99 C 370.20 106.93 368.62 100.77 366.57 94.76 C 364.29 86.61 361.83 78.49 359.33 70.39 C 357.05 62.63 354.83 54.84 352.37 47.13 C 350.98 42.45 349.78 37.68 348.09 33.09 C 346.26 28.84 340.15 28.66 337.38 32.09 M 105.43 42.15 L 105.43 42.23 C 97.54 44.04 89.98 47.35 83.32 51.96 C 76.57 56.46 70.90 62.30 65.43 68.23 L 65.44 68.34 C 54.49 79.79 43.67 91.39 32.79 102.91 C 30.06 105.27 30.01 109.88 32.78 112.22 C 39.22 118.36 45.74 124.41 52.19 130.53 C 55.83 134.00 59.51 137.41 63.16 140.85 C 68.11 145.60 73.13 150.28 78.16 154.93 L 78.13 155.01 C 83.18 159.76 88.26 164.49 93.29 169.27 C 96.26 172.08 99.25 174.87 102.22 177.68 C 106.56 181.78 110.88 185.88 115.28 189.91 L 115.26 189.97 C 119.00 193.49 122.71 197.03 126.49 200.51 C 129.98 203.91 133.57 207.22 137.13 210.55 C 138.88 212.19 140.49 214.02 142.51 215.34 C 144.96 216.74 148.22 216.07 150.06 213.99 C 161.10 202.36 172.07 190.68 183.07 179.02 C 191.91 169.65 199.50 158.81 203.66 146.52 C 208.45 132.87 208.13 117.81 204.07 104.02 C 198.87 85.93 186.78 70.51 172.15 58.98 C 168.75 56.35 165.20 53.90 161.48 51.74 C 156.82 49.05 151.92 46.74 146.84 44.96 C 142.90 43.65 138.89 42.55 134.81 41.79 C 129.62 40.92 124.37 40.43 119.11 40.50 C 114.51 40.65 109.93 41.20 105.43 42.15 M 229.01 159.18 L 228.64 159.91 L 228.21 159.57 C 219.98 161.67 212.66 166.50 206.24 171.94 L 206.25 172.02 C 197.07 179.97 189.59 190.14 185.71 201.72 C 182.01 212.52 181.78 224.27 183.97 235.41 C 185.52 243.57 188.38 251.45 192.28 258.77 C 194.86 263.59 197.88 268.18 201.29 272.46 L 201.26 272.54 C 206.59 279.17 212.67 285.17 219.21 290.61 L 219.18 290.67 C 223.79 294.30 228.56 297.72 233.60 300.72 C 237.67 303.10 241.90 305.18 246.30 306.88 L 246.27 306.93 C 250.48 308.49 254.75 309.92 259.16 310.81 L 259.14 310.88 C 263.02 311.68 266.94 312.29 270.90 312.58 C 280.68 313.27 290.66 311.67 299.59 307.55 C 312.47 301.64 323.05 291.35 330.47 279.38 C 338.06 267.10 340.86 252.15 338.80 237.90 C 336.26 218.29 325.48 200.61 311.55 186.93 C 307.15 182.43 302.38 178.29 297.32 174.55 C 293.47 171.58 289.32 169.02 285.05 166.70 C 278.19 162.99 270.82 160.21 263.22 158.46 C 256.93 157.11 250.50 156.36 244.06 156.55 C 238.99 156.94 233.79 157.41 229.01 159.18 M 121.24 264.95 L 121.25 265.07 C 111.62 271.18 104.03 279.82 96.26 288.04 L 96.27 288.10 C 92.97 291.48 89.75 294.95 86.51 298.40 C 79.05 306.31 71.57 314.20 64.15 322.15 C 61.73 324.41 61.69 328.61 64.11 330.87 C 69.73 336.26 75.40 341.60 81.12 346.89 L 81.10 346.95 C 83.83 349.51 86.53 352.10 89.32 354.61 L 89.29 354.72 C 95.97 360.94 102.62 367.19 109.27 373.45 C 113.22 377.24 117.22 380.98 121.24 384.71 L 121.23 384.79 C 124.78 388.07 128.27 391.43 131.84 394.70 C 136.42 399.14 141.11 403.47 145.77 407.83 C 149.56 411.49 153.41 415.10 157.29 418.67 L 157.26 418.76 C 162.62 423.76 167.98 428.76 173.28 433.83 C 175.90 435.69 179.71 435.33 181.80 432.83 C 196.98 416.72 212.24 400.66 227.34 384.47 C 236.84 374.13 244.55 360.60 243.16 346.10 C 242.06 330.15 231.76 315.65 217.88 308.07 C 208.27 302.86 196.63 301.77 186.23 305.16 C 186.10 301.48 186.62 297.81 186.39 294.13 C 185.33 286.98 182.12 280.21 177.44 274.72 C 173.52 270.33 169.00 266.32 163.72 263.69 L 163.33 264.14 L 163.23 263.35 C 159.59 261.41 155.61 260.24 151.65 259.18 L 151.43 259.81 L 151.50 259.27 C 147.00 258.55 142.42 258.31 137.87 258.77 C 131.93 259.51 126.24 261.67 121.24 264.95 M 353.95 275.61 C 344.92 279.15 336.67 284.52 329.63 291.17 C 317.17 302.83 307.44 318.56 306.72 335.99 C 305.80 347.94 310.28 359.92 318.22 368.82 C 323.68 375.02 330.52 380.07 338.30 382.97 L 338.27 383.02 C 343.97 385.12 350.03 386.30 356.12 386.09 C 365.52 385.49 374.07 381.04 382.03 376.35 C 389.80 371.73 397.38 366.78 405.06 362.02 C 410.55 358.89 416.00 354.11 422.72 354.75 C 426.70 355.94 430.70 358.58 431.82 362.80 C 433.31 368.92 430.44 375.07 426.80 379.86 C 421.90 386.20 415.94 391.89 408.79 395.61 C 402.88 398.48 395.66 398.38 390.07 394.81 C 387.30 392.87 383.52 393.67 381.36 396.13 L 381.39 396.43 C 376.62 404.01 372.05 411.71 367.42 419.37 C 365.57 422.05 366.35 426.15 369.16 427.85 C 371.62 429.28 374.26 430.36 376.90 431.40 C 385.35 434.70 394.69 435.61 403.64 434.12 C 419.70 431.13 434.01 421.91 445.30 410.35 C 456.14 399.22 465.09 385.56 467.89 370.06 C 470.04 359.41 468.82 347.96 463.63 338.33 C 456.33 324.79 442.96 314.24 427.61 311.75 L 427.63 311.65 C 422.41 310.88 417.01 310.94 411.92 312.29 L 411.67 313.00 L 411.22 312.61 C 402.94 314.38 395.38 318.60 388.25 323.04 C 379.69 328.41 371.29 334.04 362.66 339.30 C 357.56 342.17 349.91 345.11 345.36 339.72 C 340.78 333.66 344.21 325.68 348.56 320.56 C 352.81 315.75 357.75 311.03 364.21 309.51 C 367.91 308.94 371.62 309.61 375.06 311.04 C 378.02 312.43 381.74 310.95 383.13 308.03 C 387.33 300.60 391.55 293.16 395.71 285.70 C 397.51 282.93 396.62 278.79 393.71 277.17 C 386.49 273.07 378.06 271.29 369.80 271.84 C 364.36 272.32 359.04 273.67 353.95 275.61 Z" />
<path fill="#231f20" opacity="1.00" d=" M 97.01 84.29 C 101.08 81.19 105.94 79.19 111.04 78.66 C 115.97 78.32 120.93 78.91 125.69 80.23 C 129.37 81.31 132.96 82.73 136.32 84.60 C 141.70 87.57 146.59 91.36 150.98 95.65 C 154.42 99.03 157.65 102.64 160.48 106.56 C 167.56 116.04 170.88 128.65 167.37 140.18 C 164.47 150.97 155.15 157.89 148.13 165.95 C 144.57 162.51 140.95 159.13 137.34 155.75 C 133.72 152.34 130.11 148.91 126.48 145.51 C 122.01 141.32 117.59 137.08 113.11 132.90 C 109.88 129.85 106.66 126.79 103.41 123.75 C 98.71 119.37 94.09 114.90 89.37 110.53 C 86.26 107.62 83.15 104.71 80.09 101.74 C 85.76 95.95 90.96 89.68 97.01 84.29 Z" />
<path fill="#231f20" opacity="1.00" d=" M 230.26 196.56 C 236.19 192.55 243.88 192.34 250.48 194.71 C 257.63 197.08 264.11 201.09 270.08 205.63 C 274.08 208.73 277.88 212.09 281.51 215.62 C 286.36 220.34 290.98 225.33 294.99 230.80 C 296.99 233.61 298.85 236.54 300.30 239.67 C 303.81 246.93 303.88 255.89 300.13 263.06 C 296.76 269.16 290.97 274.13 284.06 275.64 C 280.08 276.22 276.01 275.92 272.13 274.86 C 268.01 273.68 264.11 271.86 260.41 269.72 C 256.07 267.17 252.03 264.15 248.15 260.94 C 243.29 256.88 238.72 252.49 234.41 247.86 C 228.18 241.05 222.36 233.51 219.48 224.64 C 218.32 220.56 217.86 216.20 218.93 212.05 C 220.47 205.63 225.04 200.38 230.26 196.56 Z" />
<path fill="#231f20" opacity="1.00" d=" M 133.25 299.33 C 137.16 297.27 142.02 296.09 146.00 298.66 C 149.79 301.43 153.47 305.12 154.13 309.99 C 155.05 314.41 153.08 318.85 150.16 322.09 C 146.16 326.58 141.88 330.82 137.82 335.26 C 135.67 337.53 133.52 339.78 131.43 342.10 C 130.09 341.02 128.79 339.89 127.55 338.71 C 123.42 334.74 119.25 330.83 115.08 326.91 C 113.47 325.42 111.88 323.91 110.30 322.39 C 112.53 319.99 114.77 317.59 117.03 315.21 C 122.47 309.96 126.90 303.56 133.25 299.33 Z" />
<path fill="#231f20" opacity="1.00" d=" M 183.03 338.96 C 191.74 335.29 202.10 341.99 203.45 351.02 C 204.14 356.25 201.37 361.18 197.95 364.91 C 191.89 371.45 185.71 377.88 179.62 384.40 C 179.20 384.83 178.36 385.71 177.94 386.15 C 173.13 381.66 168.38 377.11 163.58 372.61 C 161.00 370.18 158.34 367.82 155.90 365.24 C 160.04 360.91 164.10 356.50 168.23 352.16 C 172.95 347.56 176.81 341.72 183.03 338.96 Z" />
</g>
<g id="#58c558ff">
<path fill="#58c558" opacity="1.00" d=" M 337.38 32.09 C 340.15 28.66 346.26 28.84 348.09 33.09 C 349.78 37.68 350.98 42.45 352.37 47.13 C 351.63 48.92 350.88 50.71 350.47 52.61 C 344.53 83.22 338.17 113.76 332.23 144.37 C 326.84 143.04 321.40 141.91 316.03 140.53 C 318.84 127.67 321.13 114.70 323.92 101.83 C 324.90 102.05 326.86 102.50 327.84 102.72 C 327.16 100.14 326.09 97.62 325.66 95.00 C 326.49 92.64 327.40 90.29 327.86 87.82 C 330.81 71.85 334.27 55.98 337.29 40.02 C 337.82 37.50 337.75 34.91 337.41 32.37 L 337.38 32.09 Z" />
</g>
<g id="#65cb65ff">
<path fill="#65cb65" opacity="1.00" d=" M 316.94 53.94 C 323.75 46.74 330.50 39.48 337.41 32.37 C 337.75 34.91 337.82 37.50 337.29 40.02 C 334.27 55.98 330.81 71.85 327.86 87.82 C 327.40 90.29 326.49 92.64 325.66 95.00 C 322.05 83.74 318.83 72.35 315.38 61.04 C 314.43 58.58 315.00 55.75 316.94 53.94 Z" />
</g>
<g id="#ec7e5eff">
<path fill="#ec7e5e" opacity="1.00" d=" M 105.43 42.15 C 109.93 41.20 114.51 40.65 119.11 40.50 C 117.10 53.36 112.84 65.77 111.04 78.66 C 105.94 79.19 101.08 81.19 97.01 84.29 C 98.36 74.78 101.24 65.57 103.13 56.16 C 104.06 51.55 106.02 47.03 105.43 42.23 L 105.43 42.15 Z" />
</g>
<g id="#ea704bff">
<path fill="#ea704b" opacity="1.00" d=" M 119.11 40.50 C 124.37 40.43 129.62 40.92 134.81 41.79 C 131.42 54.52 128.98 67.48 125.69 80.23 C 120.93 78.91 115.97 78.32 111.04 78.66 C 112.84 65.77 117.10 53.36 119.11 40.50 Z" />
</g>
<g id="#e86138ff">
<path fill="#e86138" opacity="1.00" d=" M 134.81 41.79 C 138.89 42.55 142.90 43.65 146.84 44.96 C 144.23 54.55 142.33 64.31 139.96 73.96 C 139.00 77.57 138.96 81.68 136.32 84.60 C 132.96 82.73 129.37 81.31 125.69 80.23 C 128.98 67.48 131.42 54.52 134.81 41.79 Z" />
</g>
<g id="#ee9075ff">
<path fill="#ee9075" opacity="1.00" d=" M 83.32 51.96 C 89.98 47.35 97.54 44.04 105.43 42.23 C 106.02 47.03 104.06 51.55 103.13 56.16 C 101.24 65.57 98.36 74.78 97.01 84.29 C 90.96 89.68 85.76 95.95 80.09 101.74 C 83.15 104.71 86.26 107.62 89.37 110.53 C 86.63 119.20 85.22 128.21 82.96 137.01 C 81.32 142.97 80.73 149.25 78.16 154.93 C 73.13 150.28 68.11 145.60 63.16 140.85 C 65.00 136.05 65.90 130.97 67.08 125.99 C 71.88 104.86 76.83 83.77 81.69 62.66 C 82.66 59.17 83.48 55.60 83.32 51.96 Z" />
</g>
<g id="#e55224ff">
<path fill="#e55224" opacity="1.00" d=" M 146.84 44.96 C 151.92 46.74 156.82 49.05 161.48 51.74 C 157.72 66.31 154.94 81.13 150.98 95.65 C 146.59 91.36 141.70 87.57 136.32 84.60 C 138.96 81.68 139.00 77.57 139.96 73.96 C 142.33 64.31 144.23 54.55 146.84 44.96 Z" />
</g>
<g id="#4bbe4bff">
<path fill="#4bbe4b" opacity="1.00" d=" M 350.47 52.61 C 350.88 50.71 351.63 48.92 352.37 47.13 C 354.83 54.84 357.05 62.63 359.33 70.39 C 358.49 72.59 357.67 74.81 357.21 77.12 C 353.68 95.48 349.88 113.78 346.32 132.13 C 345.03 138.26 344.03 144.46 342.16 150.45 C 341.68 149.10 341.23 147.74 340.78 146.38 C 337.93 145.69 335.07 145.06 332.23 144.37 C 338.17 113.76 344.53 83.22 350.47 52.61 Z" />
</g>
<g id="#e34311ff">
<path fill="#e34311" opacity="1.00" d=" M 161.48 51.74 C 165.20 53.90 168.75 56.35 172.15 58.98 C 169.21 73.26 165.58 87.40 162.52 101.66 C 162.19 103.42 161.37 105.02 160.48 106.56 C 157.65 102.64 154.42 99.03 150.98 95.65 C 154.94 81.13 157.72 66.31 161.48 51.74 Z" />
<path fill="#e34311" opacity="1.00" d=" M 137.34 155.75 C 140.95 159.13 144.57 162.51 148.13 165.95 C 146.47 169.78 145.68 173.91 144.81 177.98 C 142.33 188.85 139.78 199.71 137.13 210.55 C 133.57 207.22 129.98 203.91 126.49 200.51 C 128.21 195.84 129.35 190.98 130.32 186.10 C 132.67 175.99 135.01 165.87 137.34 155.75 Z" />
</g>
<g id="#f0a08aff">
<path fill="#f0a08a" opacity="1.00" d=" M 65.43 68.23 C 70.90 62.30 76.57 56.46 83.32 51.96 C 83.48 55.60 82.66 59.17 81.69 62.66 C 76.83 83.77 71.88 104.86 67.08 125.99 C 65.90 130.97 65.00 136.05 63.16 140.85 C 59.51 137.41 55.83 134.00 52.19 130.53 C 56.44 113.75 60.00 96.79 64.04 79.96 C 65.04 76.17 66.15 72.28 65.44 68.34 L 65.43 68.23 Z" />
</g>
<g id="#e23904ff">
<path fill="#e23904" opacity="1.00" d=" M 172.15 58.98 C 186.78 70.51 198.87 85.93 204.07 104.02 C 208.13 117.81 208.45 132.87 203.66 146.52 C 199.50 158.81 191.91 169.65 183.07 179.02 C 172.07 190.68 161.10 202.36 150.06 213.99 C 148.22 216.07 144.96 216.74 142.51 215.34 C 140.49 214.02 138.88 212.19 137.13 210.55 C 139.78 199.71 142.33 188.85 144.81 177.98 C 145.68 173.91 146.47 169.78 148.13 165.95 C 155.15 157.89 164.47 150.97 167.37 140.18 C 170.88 128.65 167.56 116.04 160.48 106.56 C 161.37 105.02 162.19 103.42 162.52 101.66 C 165.58 87.40 169.21 73.26 172.15 58.98 Z" />
</g>
<g id="#f2ad9bff">
<path fill="#f2ad9b" opacity="1.00" d=" M 32.79 102.91 C 43.67 91.39 54.49 79.79 65.44 68.34 C 66.15 72.28 65.04 76.17 64.04 79.96 C 60.00 96.79 56.44 113.75 52.19 130.53 C 45.74 124.41 39.22 118.36 32.78 112.22 C 30.01 109.88 30.06 105.27 32.79 102.91 Z" />
</g>
<g id="#40b840ff">
<path fill="#40b840" opacity="1.00" d=" M 357.21 77.12 C 357.67 74.81 358.49 72.59 359.33 70.39 C 361.83 78.49 364.29 86.61 366.57 94.76 C 362.15 113.43 359.20 132.41 355.25 151.18 C 353.35 159.39 352.44 167.84 349.76 175.85 C 347.07 167.44 344.47 158.97 342.16 150.45 C 344.03 144.46 345.03 138.26 346.32 132.13 C 349.88 113.78 353.68 95.48 357.21 77.12 Z" />
</g>
<g id="#80d880ff">
<path fill="#80d880" opacity="1.00" d=" M 280.42 92.98 C 281.89 92.70 283.40 92.24 284.90 92.69 C 290.89 94.02 296.84 95.51 302.82 96.85 C 299.93 109.69 297.89 122.73 294.79 135.53 C 287.83 133.92 280.87 132.33 273.93 130.63 C 276.02 120.41 277.94 110.16 280.14 99.97 C 280.66 97.75 280.65 95.47 280.43 93.22 L 280.42 92.98 Z" />
</g>
<g id="#8fe08fff">
<path fill="#8fe08f" opacity="1.00" d=" M 257.79 116.73 C 265.38 108.94 272.45 100.59 280.43 93.22 C 280.65 95.47 280.66 97.75 280.14 99.97 C 277.94 110.16 276.02 120.41 273.93 130.63 C 269.24 129.39 264.45 128.57 259.80 127.23 C 255.40 125.93 254.29 119.61 257.79 116.73 Z" />
</g>
<g id="#34b234ff">
<path fill="#34b234" opacity="1.00" d=" M 366.57 94.76 C 368.62 100.77 370.20 106.93 372.11 112.99 C 372.58 113.18 373.52 113.55 374.00 113.74 C 370.44 135.68 365.40 157.37 361.27 179.21 C 359.83 185.83 359.09 192.63 356.71 199.01 C 354.16 191.37 351.83 183.62 349.76 175.85 C 352.44 167.84 353.35 159.39 355.25 151.18 C 359.20 132.41 362.15 113.43 366.57 94.76 Z" />
</g>
<g id="#6bce6bff">
<path fill="#6bce6b" opacity="1.00" d=" M 302.82 96.85 C 309.86 98.48 316.88 100.19 323.92 101.83 C 321.13 114.70 318.84 127.67 316.03 140.53 C 308.96 138.82 301.83 137.34 294.79 135.53 C 297.89 122.73 299.93 109.69 302.82 96.85 Z" />
</g>
<g id="#eb7d5cff">
<path fill="#eb7d5c" opacity="1.00" d=" M 89.37 110.53 C 94.09 114.90 98.71 119.37 103.41 123.75 C 100.75 139.07 96.51 154.07 93.29 169.27 C 88.26 164.49 83.18 159.76 78.13 155.01 L 78.16 154.93 C 80.73 149.25 81.32 142.97 82.96 137.01 C 85.22 128.21 86.63 119.20 89.37 110.53 Z" />
</g>
<g id="#29ad29ff">
<path fill="#29ad29" opacity="1.00" d=" M 374.00 113.74 C 399.09 119.33 424.06 125.53 449.13 131.23 C 451.47 131.85 454.22 132.14 455.83 134.19 C 457.85 136.53 457.64 140.31 455.45 142.48 C 448.56 149.93 441.54 157.25 434.59 164.65 C 432.80 166.80 429.84 167.65 427.18 166.77 C 413.28 163.45 399.38 160.20 385.48 156.91 C 388.60 169.54 392.84 181.93 396.42 194.46 C 397.30 197.70 399.30 201.72 396.69 204.70 C 390.42 211.74 383.75 218.43 377.38 225.39 C 375.57 227.22 373.82 229.64 371.03 229.87 C 367.87 230.28 364.92 227.94 364.27 224.89 C 361.79 216.26 358.87 207.68 356.71 199.01 C 359.09 192.63 359.83 185.83 361.27 179.21 C 365.40 157.37 370.44 135.68 374.00 113.74 Z" />
</g>
<g id="#e96e49ff">
<path fill="#e96e49" opacity="1.00" d=" M 103.41 123.75 C 106.66 126.79 109.88 129.85 113.11 132.90 C 109.05 147.72 106.68 162.97 102.22 177.68 C 99.25 174.87 96.26 172.08 93.29 169.27 C 96.51 154.07 100.75 139.07 103.41 123.75 Z" />
</g>
<g id="#e76037ff">
<path fill="#e76037" opacity="1.00" d=" M 113.11 132.90 C 117.59 137.08 122.01 141.32 126.48 145.51 C 123.94 154.87 122.14 164.42 119.76 173.82 C 118.24 179.18 117.78 184.86 115.28 189.91 C 110.88 185.88 106.56 181.78 102.22 177.68 C 106.68 162.97 109.05 147.72 113.11 132.90 Z" />
</g>
<g id="#e55022ff">
<path fill="#e55022" opacity="1.00" d=" M 126.48 145.51 C 130.11 148.91 133.72 152.34 137.34 155.75 C 135.01 165.87 132.67 175.99 130.32 186.10 C 129.35 190.98 128.21 195.84 126.49 200.51 C 122.71 197.03 119.00 193.49 115.26 189.97 L 115.28 189.91 C 117.78 184.86 118.24 179.18 119.76 173.82 C 122.14 164.42 123.94 154.87 126.48 145.51 Z" />
</g>
<g id="#e678ffff">
<path fill="#e678ff" opacity="1.00" d=" M 229.01 159.18 C 233.79 157.41 238.99 156.94 244.06 156.55 C 239.70 167.82 235.78 179.26 231.57 190.58 C 230.86 192.51 230.56 194.54 230.26 196.56 C 225.04 200.38 220.47 205.63 218.93 212.05 C 217.86 216.20 218.32 220.56 219.48 224.64 C 214.81 236.36 210.70 248.31 206.32 260.15 C 204.87 264.34 203.41 268.54 201.29 272.46 C 197.88 268.18 194.86 263.59 192.28 258.77 C 195.11 255.86 195.80 251.77 197.17 248.12 C 207.29 220.86 217.10 193.48 227.14 166.19 C 227.83 164.15 228.24 162.03 228.64 159.91 L 229.01 159.18 Z" />
</g>
<g id="#df63ffff">
<path fill="#df63ff" opacity="1.00" d=" M 244.06 156.55 C 250.50 156.36 256.93 157.11 263.22 158.46 C 259.64 170.76 254.54 182.56 250.48 194.71 C 243.88 192.34 236.19 192.55 230.26 196.56 C 230.56 194.54 230.86 192.51 231.57 190.58 C 235.78 179.26 239.70 167.82 244.06 156.55 Z" />
</g>
<g id="#d646ffff">
<path fill="#d646ff" opacity="1.00" d=" M 263.22 158.46 C 270.82 160.21 278.19 162.99 285.05 166.70 C 280.44 178.12 276.51 189.79 272.22 201.33 C 271.61 202.81 270.84 204.22 270.08 205.63 C 264.11 201.09 257.63 197.08 250.48 194.71 C 254.54 182.56 259.64 170.76 263.22 158.46 Z" />
</g>
<g id="#ec8bffff">
<path fill="#ec8bff" opacity="1.00" d=" M 206.24 171.94 C 212.66 166.50 219.98 161.67 228.21 159.57 L 228.64 159.91 C 228.24 162.03 227.83 164.15 227.14 166.19 C 217.10 193.48 207.29 220.86 197.17 248.12 C 195.80 251.77 195.11 255.86 192.28 258.77 C 188.38 251.45 185.52 243.57 183.97 235.41 C 186.44 231.37 187.93 226.87 189.46 222.41 C 194.87 207.77 200.06 193.05 205.55 178.44 C 206.40 176.40 206.67 174.19 206.25 172.02 L 206.24 171.94 Z" />
</g>
<g id="#ce2dffff">
<path fill="#ce2dff" opacity="1.00" d=" M 285.05 166.70 C 289.32 169.02 293.47 171.58 297.32 174.55 C 291.24 187.91 287.70 202.30 281.51 215.62 C 277.88 212.09 274.08 208.73 270.08 205.63 C 270.84 204.22 271.61 202.81 272.22 201.33 C 276.51 189.79 280.44 178.12 285.05 166.70 Z" />
</g>
<g id="#f29cffff">
<path fill="#f29cff" opacity="1.00" d=" M 185.71 201.72 C 189.59 190.14 197.07 179.97 206.25 172.02 C 206.67 174.19 206.40 176.40 205.55 178.44 C 200.06 193.05 194.87 207.77 189.46 222.41 C 187.93 226.87 186.44 231.37 183.97 235.41 C 181.78 224.27 182.01 212.52 185.71 201.72 Z" />
</g>
<g id="#c717ffff">
<path fill="#c717ff" opacity="1.00" d=" M 297.32 174.55 C 302.38 178.29 307.15 182.43 311.55 186.93 C 307.77 199.07 302.84 210.82 298.83 222.89 C 297.92 225.69 296.52 228.29 294.99 230.80 C 290.98 225.33 286.36 220.34 281.51 215.62 C 287.70 202.30 291.24 187.91 297.32 174.55 Z" />
</g>
<g id="#bf00ffff">
<path fill="#bf00ff" opacity="1.00" d=" M 311.55 186.93 C 325.48 200.61 336.26 218.29 338.80 237.90 C 340.86 252.15 338.06 267.10 330.47 279.38 C 323.05 291.35 312.47 301.64 299.59 307.55 C 290.66 311.67 280.68 313.27 270.90 312.58 C 275.39 300.31 280.11 288.10 284.06 275.64 C 290.97 274.13 296.76 269.16 300.13 263.06 C 303.88 255.89 303.81 246.93 300.30 239.67 C 298.85 236.54 296.99 233.61 294.99 230.80 C 296.52 228.29 297.92 225.69 298.83 222.89 C 302.84 210.82 307.77 199.07 311.55 186.93 Z" />
</g>
<g id="#df60ffff">
<path fill="#df60ff" opacity="1.00" d=" M 219.48 224.64 C 222.36 233.51 228.18 241.05 234.41 247.86 C 233.70 250.87 232.84 253.85 231.72 256.74 C 227.48 268.00 223.61 279.41 219.21 290.61 C 212.67 285.17 206.59 279.17 201.26 272.54 L 201.29 272.46 C 203.41 268.54 204.87 264.34 206.32 260.15 C 210.70 248.31 214.81 236.36 219.48 224.64 Z" />
</g>
<g id="#d645ffff">
<path fill="#d645ff" opacity="1.00" d=" M 234.41 247.86 C 238.72 252.49 243.29 256.88 248.15 260.94 C 243.50 274.27 238.69 287.55 233.60 300.72 C 228.56 297.72 223.79 294.30 219.18 290.67 L 219.21 290.61 C 223.61 279.41 227.48 268.00 231.72 256.74 C 232.84 253.85 233.70 250.87 234.41 247.86 Z" />
</g>
<g id="#5ca4ebff">
<path fill="#5ca4eb" opacity="1.00" d=" M 121.24 264.95 C 126.24 261.67 131.93 259.51 137.87 258.77 C 136.17 272.26 134.49 285.78 133.25 299.33 C 126.90 303.56 122.47 309.96 117.03 315.21 C 117.39 303.96 119.21 292.81 120.40 281.62 C 120.86 276.12 122.40 270.59 121.25 265.07 L 121.24 264.95 Z" />
</g>
<g id="#4c99e6ff">
<path fill="#4c99e6" opacity="1.00" d=" M 137.87 258.77 C 142.42 258.31 147.00 258.55 151.50 259.27 L 151.43 259.81 C 150.35 268.32 149.57 276.88 148.41 285.39 C 147.95 289.87 147.71 294.43 146.00 298.66 C 142.02 296.09 137.16 297.27 133.25 299.33 C 134.49 285.78 136.17 272.26 137.87 258.77 Z" />
</g>
<g id="#3d8fe1ff">
<path fill="#3d8fe1" opacity="1.00" d=" M 151.43 259.81 L 151.65 259.18 C 155.61 260.24 159.59 261.41 163.23 263.35 L 163.33 264.14 C 161.50 272.65 161.33 281.39 160.01 289.98 C 155.60 327.67 151.29 365.38 146.87 403.07 C 146.58 404.67 146.17 406.25 145.77 407.83 C 141.11 403.47 136.42 399.14 131.84 394.70 C 133.81 388.54 133.66 381.99 134.63 375.64 C 136.28 364.07 137.06 352.40 138.85 340.85 C 139.25 338.91 138.35 337.07 137.82 335.26 C 141.88 330.82 146.16 326.58 150.16 322.09 C 153.08 318.85 155.05 314.41 154.13 309.99 C 153.47 305.12 149.79 301.43 146.00 298.66 C 147.71 294.43 147.95 289.87 148.41 285.39 C 149.57 276.88 150.35 268.32 151.43 259.81 Z" />
</g>
<g id="#cf30ffff">
<path fill="#cf30ff" opacity="1.00" d=" M 248.15 260.94 C 252.03 264.15 256.07 267.17 260.41 269.72 C 255.23 281.92 251.64 294.75 246.30 306.88 C 241.90 305.18 237.67 303.10 233.60 300.72 C 238.69 287.55 243.50 274.27 248.15 260.94 Z" />
</g>
<g id="#2d85dcff">
<path fill="#2d85dc" opacity="1.00" d=" M 163.33 264.14 L 163.72 263.69 C 169.00 266.32 173.52 270.33 177.44 274.72 C 174.75 292.06 173.37 309.58 171.04 326.96 C 170.20 335.37 168.96 343.74 168.23 352.16 C 164.10 356.50 160.04 360.91 155.90 365.24 C 158.34 367.82 161.00 370.18 163.58 372.61 C 161.96 383.49 160.99 394.45 159.60 405.36 C 159.21 409.85 158.78 414.38 157.29 418.67 C 153.41 415.10 149.56 411.49 145.77 407.83 C 146.17 406.25 146.58 404.67 146.87 403.07 C 151.29 365.38 155.60 327.67 160.01 289.98 C 161.33 281.39 161.50 272.65 163.33 264.14 Z" />
</g>
<g id="#71b1f2ff">
<path fill="#71b1f2" opacity="1.00" d=" M 96.26 288.04 C 104.03 279.82 111.62 271.18 121.25 265.07 C 122.40 270.59 120.86 276.12 120.40 281.62 C 119.21 292.81 117.39 303.96 117.03 315.21 C 114.77 317.59 112.53 319.99 110.30 322.39 C 111.88 323.91 113.47 325.42 115.08 326.91 C 114.37 335.35 112.99 343.72 112.24 352.15 C 111.16 359.24 110.98 366.47 109.27 373.45 C 102.62 367.19 95.97 360.94 89.29 354.72 L 89.32 354.61 C 91.60 346.48 91.58 337.97 92.75 329.65 C 94.47 317.77 95.25 305.78 97.09 293.92 C 97.49 291.93 96.78 289.99 96.27 288.10 L 96.26 288.04 Z" />
</g>
<g id="#c91dffff">
<path fill="#c91dff" opacity="1.00" d=" M 260.41 269.72 C 264.11 271.86 268.01 273.68 272.13 274.86 C 268.16 286.97 263.19 298.72 259.16 310.81 C 254.75 309.92 250.48 308.49 246.27 306.93 L 246.30 306.88 C 251.64 294.75 255.23 281.92 260.41 269.72 Z" />
</g>
<g id="#fff374ff">
<path fill="#fff374" opacity="1.00" d=" M 353.95 275.61 C 359.04 273.67 364.36 272.32 369.80 271.84 C 367.77 284.37 366.42 297.01 364.21 309.51 C 357.75 311.03 352.81 315.75 348.56 320.56 C 347.40 315.29 348.92 310.03 349.67 304.83 C 351.32 295.12 352.46 285.34 353.95 275.61 Z" />
</g>
<g id="#ffec61ff">
<path fill="#ffec61" opacity="1.00" d=" M 369.80 271.84 C 378.06 271.29 386.49 273.07 393.71 277.17 C 396.62 278.79 397.51 282.93 395.71 285.70 C 391.55 293.16 387.33 300.60 383.13 308.03 C 381.74 310.95 378.02 312.43 375.06 311.04 C 371.62 309.61 367.91 308.94 364.21 309.51 C 366.42 297.01 367.77 284.37 369.80 271.84 Z" />
</g>
<g id="#1d7ad6ff">
<path fill="#1d7ad6" opacity="1.00" d=" M 177.44 274.72 C 182.12 280.21 185.33 286.98 186.39 294.13 C 186.62 297.81 186.10 301.48 186.23 305.16 C 186.30 316.51 183.54 327.64 183.03 338.96 C 176.81 341.72 172.95 347.56 168.23 352.16 C 168.96 343.74 170.20 335.37 171.04 326.96 C 173.37 309.58 174.75 292.06 177.44 274.72 Z" />
</g>
<g id="#c30cffff">
<path fill="#c30cff" opacity="1.00" d=" M 272.13 274.86 C 276.01 275.92 280.08 276.22 284.06 275.64 C 280.11 288.10 275.39 300.31 270.90 312.58 C 266.94 312.29 263.02 311.68 259.14 310.88 L 259.16 310.81 C 263.19 298.72 268.16 286.97 272.13 274.86 Z" />
</g>
<g id="#fff985ff">
<path fill="#fff985" opacity="1.00" d=" M 329.63 291.17 C 336.67 284.52 344.92 279.15 353.95 275.61 C 352.46 285.34 351.32 295.12 349.67 304.83 C 348.92 310.03 347.40 315.29 348.56 320.56 C 344.21 325.68 340.78 333.66 345.36 339.72 C 344.32 352.56 341.58 365.19 340.17 377.99 C 340.07 379.81 339.34 381.49 338.30 382.97 C 330.52 380.07 323.68 375.02 318.22 368.82 C 319.02 367.28 319.96 365.76 320.14 364.00 C 322.99 342.96 325.98 321.93 329.27 300.96 C 329.89 297.73 329.94 294.43 329.63 291.17 Z" />
</g>
<g id="#83bef8ff">
<path fill="#83bef8" opacity="1.00" d=" M 86.51 298.40 C 89.75 294.95 92.97 291.48 96.27 288.10 C 96.78 289.99 97.49 291.93 97.09 293.92 C 95.25 305.78 94.47 317.77 92.75 329.65 C 91.58 337.97 91.60 346.48 89.32 354.61 C 86.53 352.10 83.83 349.51 81.10 346.95 L 81.12 346.89 C 83.67 338.47 83.60 329.59 84.94 320.96 C 85.58 313.45 87.48 305.97 86.51 298.40 Z" />
</g>
<g id="#fffe95ff">
<path fill="#fffe95" opacity="1.00" d=" M 306.72 335.99 C 307.44 318.56 317.17 302.83 329.63 291.17 C 329.94 294.43 329.89 297.73 329.27 300.96 C 325.98 321.93 322.99 342.96 320.14 364.00 C 319.96 365.76 319.02 367.28 318.22 368.82 C 310.28 359.92 305.80 347.94 306.72 335.99 Z" />
</g>
<g id="#91c7fdff">
<path fill="#91c7fd" opacity="1.00" d=" M 64.15 322.15 C 71.57 314.20 79.05 306.31 86.51 298.40 C 87.48 305.97 85.58 313.45 84.94 320.96 C 83.60 329.59 83.67 338.47 81.12 346.89 C 75.40 341.60 69.73 336.26 64.11 330.87 C 61.69 328.61 61.73 324.41 64.15 322.15 Z" />
</g>
<g id="#076bcfff">
<path fill="#076bcf" opacity="1.00" d=" M 186.23 305.16 C 196.63 301.77 208.27 302.86 217.88 308.07 C 231.76 315.65 242.06 330.15 243.16 346.10 C 244.55 360.60 236.84 374.13 227.34 384.47 C 212.24 400.66 196.98 416.72 181.80 432.83 C 179.71 435.33 175.90 435.69 173.28 433.83 C 174.21 432.03 174.97 430.12 175.04 428.07 C 176.31 413.49 178.77 399.00 179.62 384.40 C 185.71 377.88 191.89 371.45 197.95 364.91 C 201.37 361.18 204.14 356.25 203.45 351.02 C 202.10 341.99 191.74 335.29 183.03 338.96 C 183.54 327.64 186.30 316.51 186.23 305.16 Z" />
</g>
<g id="#ffde35ff">
<path fill="#ffde35" opacity="1.00" d=" M 411.92 312.29 C 417.01 310.94 422.41 310.88 427.63 311.65 L 427.61 311.75 C 425.74 323.88 424.40 336.09 422.19 348.16 C 421.71 350.37 422.11 352.61 422.72 354.75 C 416.00 354.11 410.55 358.89 405.06 362.02 C 406.90 351.02 408.13 339.93 409.97 328.94 C 410.81 323.66 411.93 318.38 411.67 313.00 L 411.92 312.29 Z" />
</g>
<g id="#ffda2aff">
<path fill="#ffda2a" opacity="1.00" d=" M 427.61 311.75 C 442.96 314.24 456.33 324.79 463.63 338.33 C 468.82 347.96 470.04 359.41 467.89 370.06 C 465.09 385.56 456.14 399.22 445.30 410.35 C 434.01 421.91 419.70 431.13 403.64 434.12 C 405.33 424.12 406.62 414.06 408.20 404.04 C 408.63 401.25 408.71 398.42 408.79 395.61 C 415.94 391.89 421.90 386.20 426.80 379.86 C 430.44 375.07 433.31 368.92 431.82 362.80 C 430.70 358.58 426.70 355.94 422.72 354.75 C 422.11 352.61 421.71 350.37 422.19 348.16 C 424.40 336.09 425.74 323.88 427.61 311.75 Z" />
</g>
<g id="#ffe447ff">
<path fill="#ffe447" opacity="1.00" d=" M 388.25 323.04 C 395.38 318.60 402.94 314.38 411.22 312.61 L 411.67 313.00 C 411.93 318.38 410.81 323.66 409.97 328.94 C 408.13 339.93 406.90 351.02 405.06 362.02 C 397.38 366.78 389.80 371.73 382.03 376.35 C 383.38 364.20 385.35 352.11 387.11 340.01 C 387.81 334.39 389.90 328.69 388.25 323.04 Z" />
</g>
<g id="#ffeb5dff">
<path fill="#ffeb5d" opacity="1.00" d=" M 362.66 339.30 C 371.29 334.04 379.69 328.41 388.25 323.04 C 389.90 328.69 387.81 334.39 387.11 340.01 C 385.35 352.11 383.38 364.20 382.03 376.35 C 374.07 381.04 365.52 385.49 356.12 386.09 C 357.76 377.78 358.58 369.34 359.86 360.98 C 360.82 353.75 362.15 346.57 362.66 339.30 Z" />
</g>
<g id="#5da4ecff">
<path fill="#5da4ec" opacity="1.00" d=" M 115.08 326.91 C 119.25 330.83 123.42 334.74 127.55 338.71 C 126.98 340.42 126.41 342.15 126.16 343.95 C 124.57 357.54 123.32 371.19 121.24 384.71 C 117.22 380.98 113.22 377.24 109.27 373.45 C 110.98 366.47 111.16 359.24 112.24 352.15 C 112.99 343.72 114.37 335.35 115.08 326.91 Z" />
</g>
<g id="#4e9ae7ff">
<path fill="#4e9ae7" opacity="1.00" d=" M 131.43 342.10 C 133.52 339.78 135.67 337.53 137.82 335.26 C 138.35 337.07 139.25 338.91 138.85 340.85 C 137.06 352.40 136.28 364.07 134.63 375.64 C 133.66 381.99 133.81 388.54 131.84 394.70 C 128.27 391.43 124.78 388.07 121.23 384.79 L 121.24 384.71 C 123.32 371.19 124.57 357.54 126.16 343.95 C 126.41 342.15 126.98 340.42 127.55 338.71 C 128.79 339.89 130.09 341.02 131.43 342.10 Z" />
</g>
<g id="#fff272ff">
<path fill="#fff272" opacity="1.00" d=" M 345.36 339.72 C 349.91 345.11 357.56 342.17 362.66 339.30 C 362.15 346.57 360.82 353.75 359.86 360.98 C 358.58 369.34 357.76 377.78 356.12 386.09 C 350.03 386.30 343.97 385.12 338.27 383.02 L 338.30 382.97 C 339.34 381.49 340.07 379.81 340.17 377.99 C 341.58 365.19 344.32 352.56 345.36 339.72 Z" />
</g>
<g id="#1c79d6ff">
<path fill="#1c79d6" opacity="1.00" d=" M 163.58 372.61 C 168.38 377.11 173.13 381.66 177.94 386.15 C 178.36 385.71 179.20 384.83 179.62 384.40 C 178.77 399.00 176.31 413.49 175.04 428.07 C 174.97 430.12 174.21 432.03 173.28 433.83 C 167.98 428.76 162.62 423.76 157.26 418.76 L 157.29 418.67 C 158.78 414.38 159.21 409.85 159.60 405.36 C 160.99 394.45 161.96 383.49 163.58 372.61 Z" />
</g>
<g id="#ffe241ff">
<path fill="#ffe241" opacity="1.00" d=" M 381.36 396.13 C 383.52 393.67 387.30 392.87 390.07 394.81 C 395.66 398.38 402.88 398.48 408.79 395.61 C 408.71 398.42 408.63 401.25 408.20 404.04 C 406.62 414.06 405.33 424.12 403.64 434.12 C 394.69 435.61 385.35 434.70 376.90 431.40 C 378.22 424.63 378.82 417.75 380.00 410.96 C 380.70 406.15 382.01 401.33 381.39 396.43 L 381.36 396.13 Z" />
</g>
<g id="#ffe853ff">
<path fill="#ffe853" opacity="1.00" d=" M 381.39 396.43 C 382.01 401.33 380.70 406.15 380.00 410.96 C 378.82 417.75 378.22 424.63 376.90 431.40 C 374.26 430.36 371.62 429.28 369.16 427.85 C 366.35 426.15 365.57 422.05 367.42 419.37 C 372.05 411.71 376.62 404.01 381.39 396.43 Z" />
</g>
</svg>
