<?xml version="1.0" encoding="UTF-8" ?>
<!DOCTYPE svg PUBLIC "-//W3C//DTD SVG 1.1//EN" "http://www.w3.org/Graphics/SVG/1.1/DTD/svg11.dtd">
<svg width="1280pt" height="720pt" viewBox="0 0 1280 720" version="1.1" xmlns="http://www.w3.org/2000/svg">
<g id="#ffffffff">
<path fill="#ffffff" opacity="1.00" d=" M 501.23 223.05 C 567.96 222.94 634.68 223.01 701.40 223.02 C 691.29 239.27 681.22 255.56 670.92 271.70 C 604.27 271.62 537.62 271.69 470.96 271.67 C 481.00 255.43 491.23 239.31 501.23 223.05 Z" />
<path fill="#ffffff" opacity="1.00" d=" M 619.40 417.63 C 659.96 352.76 700.45 287.86 741.00 222.99 C 791.64 304.09 842.39 385.13 893.00 466.26 C 873.92 466.33 854.84 466.21 835.76 466.32 C 825.49 450.16 815.40 433.90 805.24 417.68 C 775.60 417.67 745.97 417.66 716.33 417.68 C 726.55 401.47 736.57 385.14 746.89 368.99 C 756.22 368.99 765.55 369.03 774.87 368.97 C 763.61 350.90 752.26 332.89 741.00 314.82 C 709.43 365.33 677.95 415.88 646.26 466.31 C 562.18 466.20 478.09 466.36 394.01 466.23 C 414.21 433.80 434.49 401.42 454.75 369.02 C 439.88 368.97 425.01 369.01 410.14 369.00 C 420.27 352.79 430.38 336.56 440.51 320.35 C 505.56 320.29 570.61 320.38 635.66 320.31 C 625.47 336.51 615.43 352.81 605.23 369.01 C 574.22 368.99 543.21 369.01 512.20 368.99 C 502.12 385.25 491.87 401.41 481.84 417.70 C 527.69 417.60 573.54 417.75 619.40 417.63 Z" />
</g>
<g id="#ff4747ff">
<path fill="#ff4747" opacity="1.00" d=" M 620.40 12.49 C 668.12 9.84 716.41 16.94 761.21 33.67 C 829.63 58.91 889.47 106.47 929.81 167.20 C 967.33 223.27 987.89 290.52 988.00 357.99 C 988.53 416.10 974.05 474.27 946.35 525.35 C 923.81 567.04 892.68 604.07 855.43 633.38 C 810.21 669.19 755.90 693.41 699.03 703.05 C 652.25 711.04 603.83 709.46 557.71 698.26 C 483.77 680.54 416.30 637.48 368.80 578.16 C 345.33 549.10 326.61 516.20 313.61 481.18 C 296.21 434.42 289.22 383.89 292.90 334.16 C 297.50 269.52 320.82 206.38 359.27 154.22 C 389.53 112.93 429.00 78.43 474.01 54.02 C 518.91 29.53 569.33 15.28 620.40 12.49 M 501.23 223.05 C 491.23 239.31 481.00 255.43 470.96 271.67 C 537.62 271.69 604.27 271.62 670.92 271.70 C 681.22 255.56 691.29 239.27 701.40 223.02 C 634.68 223.01 567.96 222.94 501.23 223.05 M 619.40 417.63 C 573.54 417.75 527.69 417.60 481.84 417.70 C 491.87 401.41 502.12 385.25 512.20 368.99 C 543.21 369.01 574.22 368.99 605.23 369.01 C 615.43 352.81 625.47 336.51 635.66 320.31 C 570.61 320.38 505.56 320.29 440.51 320.35 C 430.38 336.56 420.27 352.79 410.14 369.00 C 425.01 369.01 439.88 368.97 454.75 369.02 C 434.49 401.42 414.21 433.80 394.01 466.23 C 478.09 466.36 562.18 466.20 646.26 466.31 C 677.95 415.88 709.43 365.33 741.00 314.82 C 752.26 332.89 763.61 350.90 774.87 368.97 C 765.55 369.03 756.22 368.99 746.89 368.99 C 736.57 385.14 726.55 401.47 716.33 417.68 C 745.97 417.66 775.60 417.67 805.24 417.68 C 815.40 433.90 825.49 450.16 835.76 466.32 C 854.84 466.21 873.92 466.33 893.00 466.26 C 842.39 385.13 791.64 304.09 741.00 222.99 C 700.45 287.86 659.96 352.76 619.40 417.63 Z" />
</g>
</svg>
