<?xml version="1.0" encoding="UTF-8" standalone="no"?>
<svg
   width="696.06726pt"
   height="696.09998pt"
   viewBox="0 0 696.06726 696.09998"
   version="1.1"
   id="svg3"
   sodipodi:docname="ea.svg"
   inkscape:version="1.4.2 (ebf0e940d0, 2025-05-08)"
   xmlns:inkscape="http://www.inkscape.org/namespaces/inkscape"
   xmlns:sodipodi="http://sodipodi.sourceforge.net/DTD/sodipodi-0.dtd"
   xmlns="http://www.w3.org/2000/svg"
   xmlns:svg="http://www.w3.org/2000/svg">
  <defs
     id="defs3" />
  <sodipodi:namedview
     id="namedview3"
     pagecolor="#505050"
     bordercolor="#ffffff"
     borderopacity="1"
     inkscape:showpageshadow="0"
     inkscape:pageopacity="0"
     inkscape:pagecheckerboard="1"
     inkscape:deskcolor="#505050"
     inkscape:document-units="pt"
     inkscape:zoom="0.31930291"
     inkscape:cx="211.39801"
     inkscape:cy="508.92114"
     inkscape:window-width="1920"
     inkscape:window-height="1052"
     inkscape:window-x="0"
     inkscape:window-y="0"
     inkscape:window-maximized="1"
     inkscape:current-layer="svg3" />
  <g
     id="#ffffffff"
     transform="translate(-291.94676,-11.949506)">
    <path
       fill="#ffffff"
       opacity="1"
       d="m 501.23,223.05 c 66.73,-0.11 133.45,-0.04 200.17,-0.03 -10.11,16.25 -20.18,32.54 -30.48,48.68 -66.65,-0.08 -133.3,-0.01 -199.96,-0.03 10.04,-16.24 20.27,-32.36 30.27,-48.62 z"
       id="path1" />
    <path
       fill="#ffffff"
       opacity="1"
       d="m 619.4,417.63 c 40.56,-64.87 81.05,-129.77 121.6,-194.64 50.64,81.1 101.39,162.14 152,243.27 -19.08,0.07 -38.16,-0.05 -57.24,0.06 -10.27,-16.16 -20.36,-32.42 -30.52,-48.64 -29.64,-0.01 -59.27,-0.02 -88.91,0 10.22,-16.21 20.24,-32.54 30.56,-48.69 9.33,0 18.66,0.04 27.98,-0.02 -11.26,-18.07 -22.61,-36.08 -33.87,-54.15 -31.57,50.51 -63.05,101.06 -94.74,151.49 -84.08,-0.11 -168.17,0.05 -252.25,-0.08 20.2,-32.43 40.48,-64.81 60.74,-97.21 -14.87,-0.05 -29.74,-0.01 -44.61,-0.02 10.13,-16.21 20.24,-32.44 30.37,-48.65 65.05,-0.06 130.1,0.03 195.15,-0.04 -10.19,16.2 -20.23,32.5 -30.43,48.7 -31.01,-0.02 -62.02,0 -93.03,-0.02 -10.08,16.26 -20.33,32.42 -30.36,48.71 45.85,-0.1 91.7,0.05 137.56,-0.07 z"
       id="path2" />
  </g>
  <g
     id="#ff4747ff"
     transform="translate(-291.94676,-11.949506)">
    <path
       fill="#ff4747"
       opacity="1"
       d="m 620.4,12.49 c 47.72,-2.65 96.01,4.45 140.81,21.18 68.42,25.24 128.26,72.8 168.6,133.53 37.52,56.07 58.08,123.32 58.19,190.79 0.53,58.11 -13.95,116.28 -41.65,167.36 -22.54,41.69 -53.67,78.72 -90.92,108.03 -45.22,35.81 -99.53,60.03 -156.4,69.67 -46.78,7.99 -95.2,6.41 -141.32,-4.79 C 483.77,680.54 416.3,637.48 368.8,578.16 345.33,549.1 326.61,516.2 313.61,481.18 296.21,434.42 289.22,383.89 292.9,334.16 297.5,269.52 320.82,206.38 359.27,154.22 389.53,112.93 429,78.43 474.01,54.02 518.91,29.53 569.33,15.28 620.4,12.49 M 501.23,223.05 c -10,16.26 -20.23,32.38 -30.27,48.62 66.66,0.02 133.31,-0.05 199.96,0.03 10.3,-16.14 20.37,-32.43 30.48,-48.68 -66.72,-0.01 -133.44,-0.08 -200.17,0.03 M 619.4,417.63 c -45.86,0.12 -91.71,-0.03 -137.56,0.07 10.03,-16.29 20.28,-32.45 30.36,-48.71 31.01,0.02 62.02,0 93.03,0.02 10.2,-16.2 20.24,-32.5 30.43,-48.7 -65.05,0.07 -130.1,-0.02 -195.15,0.04 -10.13,16.21 -20.24,32.44 -30.37,48.65 14.87,0.01 29.74,-0.03 44.61,0.02 -20.26,32.4 -40.54,64.78 -60.74,97.21 84.08,0.13 168.17,-0.03 252.25,0.08 31.69,-50.43 63.17,-100.98 94.74,-151.49 11.26,18.07 22.61,36.08 33.87,54.15 -9.32,0.06 -18.65,0.02 -27.98,0.02 -10.32,16.15 -20.34,32.48 -30.56,48.69 29.64,-0.02 59.27,-0.01 88.91,0 10.16,16.22 20.25,32.48 30.52,48.64 19.08,-0.11 38.16,0.01 57.24,-0.06 C 842.39,385.13 791.64,304.09 741,222.99 700.45,287.86 659.96,352.76 619.4,417.63 Z"
       id="path3" />
  </g>
</svg>
