<?xml version="1.0" encoding="UTF-8" ?>
<!DOCTYPE svg PUBLIC "-//W3C//DTD SVG 1.1//EN" "http://www.w3.org/Graphics/SVG/1.1/DTD/svg11.dtd">
<svg width="512pt" height="512pt" viewBox="0 0 512 512" version="1.1" xmlns="http://www.w3.org/2000/svg">
<g id="#626e5cff">
<path fill="#626e5c" opacity="1.00" d=" M 197.88 20.93 C 225.89 8.05 257.89 5.12 288.13 10.18 C 317.32 15.09 344.39 29.95 365.14 50.92 C 373.15 58.58 379.02 68.61 380.73 79.65 C 414.48 103.07 442.06 135.39 459.44 172.64 C 456.13 173.72 452.80 174.78 449.45 175.73 L 449.35 175.76 C 432.07 139.58 404.64 108.42 371.22 86.33 C 370.67 80.29 369.27 74.19 366.09 68.96 C 361.71 61.55 355.03 55.92 348.63 50.33 C 328.84 33.44 303.90 22.72 278.01 20.07 C 245.49 16.50 211.19 23.12 184.18 42.15 C 172.13 50.17 162.20 60.78 152.65 71.53 C 109.47 92.01 73.40 126.97 51.35 169.35 C 33.50 203.48 24.73 242.37 26.50 280.86 C 26.36 283.43 25.86 286.07 24.22 288.14 C 21.44 291.93 19.05 296.05 17.72 300.60 C 10.71 323.74 9.59 348.83 15.70 372.31 C 18.75 384.14 23.41 395.56 29.50 406.16 L 29.34 406.33 C 26.71 409.21 24.01 412.03 21.27 414.81 C 8.64 393.88 1.00 369.89 0.00 345.42 L 0.00 334.78 C 0.79 321.38 2.84 307.96 7.12 295.20 C 8.59 290.64 10.97 286.47 13.64 282.51 C 15.19 280.33 14.46 277.50 14.57 275.01 C 13.92 239.05 21.86 202.97 37.50 170.59 C 58.99 125.81 95.19 88.25 139.21 65.22 C 142.23 63.66 145.57 62.39 147.72 59.62 C 161.40 43.33 178.53 29.84 197.88 20.93 Z" />
</g>
<g id="#849977ff">
<path fill="#849977" opacity="1.00" d=" M 184.18 42.15 C 211.19 23.12 245.49 16.50 278.01 20.07 C 303.90 22.72 328.84 33.44 348.63 50.33 C 355.03 55.92 361.71 61.55 366.09 68.96 C 369.27 74.19 370.67 80.29 371.22 86.33 C 371.11 88.01 370.94 89.69 370.69 91.36 C 369.57 99.41 365.73 106.96 359.84 112.56 C 347.60 123.92 335.81 135.75 323.85 147.40 C 313.94 157.22 303.84 166.84 293.95 176.66 C 286.08 185.17 276.04 192.96 263.98 193.46 C 247.40 194.79 231.70 183.29 225.88 168.10 C 223.30 160.63 222.80 152.32 225.35 144.76 C 229.70 133.02 240.12 125.42 248.44 116.63 C 255.67 109.32 263.26 102.36 270.16 94.73 C 255.60 92.93 240.18 95.55 227.97 103.98 C 221.67 108.29 216.13 113.72 211.63 119.89 C 204.06 130.36 200.36 143.38 200.81 156.26 C 200.93 164.85 202.69 173.46 206.41 181.23 C 212.22 193.13 221.78 203.25 233.42 209.57 C 241.85 214.13 251.45 216.22 260.99 216.23 C 276.66 216.36 292.32 216.24 307.99 216.26 C 312.64 216.14 317.44 217.94 321.97 216.24 C 326.70 214.59 331.52 213.27 336.49 212.59 C 330.24 216.52 322.93 218.11 316.42 221.51 C 315.84 221.59 315.27 221.68 314.70 221.76 C 304.53 220.21 294.23 221.16 284.00 220.88 C 271.06 220.84 257.95 221.43 245.22 218.72 C 236.59 216.40 228.17 212.60 221.39 206.71 C 214.77 200.74 208.28 194.35 204.10 186.37 C 198.69 176.51 196.17 165.25 196.90 154.02 C 196.17 138.14 202.60 122.51 213.24 110.88 C 220.95 102.87 230.16 96.11 240.88 92.81 C 253.19 88.98 266.67 88.60 279.10 92.17 C 275.39 96.39 271.34 100.28 267.36 104.24 C 258.69 112.62 250.30 121.29 241.73 129.77 C 237.08 134.20 232.39 138.90 229.98 144.99 C 226.31 153.49 227.98 163.33 232.06 171.37 C 250.78 164.33 272.03 166.21 290.08 174.36 C 300.84 164.05 310.78 152.87 322.15 143.21 C 327.31 138.36 332.26 133.29 337.18 128.20 C 340.83 124.51 344.55 120.87 348.21 117.19 C 352.68 112.68 358.33 109.22 361.61 103.63 C 368.46 93.16 368.57 78.34 360.62 68.41 C 344.34 49.07 322.17 34.67 297.71 28.12 C 284.57 23.89 270.66 23.35 256.97 23.63 C 237.84 23.49 218.84 28.40 201.66 36.67 C 173.23 51.37 149.78 76.31 138.44 106.38 C 130.63 127.22 128.79 149.88 130.98 171.92 C 133.20 196.24 143.50 219.34 158.47 238.47 C 163.45 244.51 169.32 249.72 174.92 255.16 C 178.60 259.13 180.52 264.27 183.03 268.98 C 185.30 273.38 188.03 277.53 190.90 281.57 L 190.31 281.93 C 189.10 282.65 187.90 283.39 186.71 284.14 L 186.62 284.19 C 182.52 276.65 177.74 269.47 174.38 261.55 C 170.96 256.54 165.55 253.29 161.73 248.58 C 157.48 243.98 153.45 239.17 149.84 234.05 C 140.95 221.42 134.19 207.25 130.32 192.28 C 124.76 170.28 124.23 147.05 128.62 124.80 C 131.86 108.64 138.53 93.41 147.09 79.40 C 149.21 76.97 150.95 74.26 152.65 71.53 C 162.20 60.78 172.13 50.17 184.18 42.15 Z" />
<path fill="#849977" opacity="1.00" d=" M 30.94 281.50 C 37.32 276.99 45.06 274.44 52.90 274.70 C 60.61 274.65 67.64 278.05 74.95 279.95 C 83.62 282.33 92.26 284.85 100.94 287.19 C 113.88 290.74 126.78 294.46 139.72 298.03 C 145.22 299.51 150.68 301.12 156.19 302.56 L 156.15 302.59 C 154.67 303.61 153.21 304.64 151.74 305.66 C 151.45 305.86 150.87 306.26 150.58 306.45 C 121.51 296.70 91.58 289.78 62.31 280.69 C 55.41 278.71 47.86 278.43 41.11 281.11 C 32.06 284.25 25.08 292.03 22.17 301.07 C 14.98 323.89 13.91 348.75 20.10 371.92 C 22.90 382.71 27.20 393.07 32.52 402.86 C 31.52 403.95 30.51 405.06 29.50 406.16 C 23.41 395.56 18.75 384.14 15.70 372.31 C 9.59 348.83 10.71 323.74 17.72 300.60 C 19.05 296.05 21.44 291.93 24.22 288.14 C 25.86 286.07 26.36 283.43 26.50 280.86 C 26.62 282.10 26.76 283.33 26.92 284.58 C 28.25 283.54 29.57 282.49 30.94 281.50 Z" />
</g>
<g id="#789268ff">
<path fill="#789268" opacity="1.00" d=" M 201.66 36.67 C 218.84 28.40 237.84 23.49 256.97 23.63 C 270.66 23.35 284.57 23.89 297.71 28.12 C 322.17 34.67 344.34 49.07 360.62 68.41 C 368.57 78.34 368.46 93.16 361.61 103.63 C 358.33 109.22 352.68 112.68 348.21 117.19 C 344.55 120.87 340.83 124.51 337.18 128.20 C 326.98 121.26 315.69 116.10 304.12 111.90 C 292.28 107.66 279.79 105.77 267.36 104.24 C 271.34 100.28 275.39 96.39 279.10 92.17 C 266.67 88.60 253.19 88.98 240.88 92.81 C 230.16 96.11 220.95 102.87 213.24 110.88 C 202.81 113.69 193.19 118.69 183.70 123.72 C 168.48 132.91 154.21 144.16 143.42 158.41 C 139.42 163.20 136.05 168.44 132.54 173.59 C 132.15 173.17 131.37 172.33 130.98 171.92 C 128.79 149.88 130.63 127.22 138.44 106.38 C 149.78 76.31 173.23 51.37 201.66 36.67 Z" />
</g>
<g id="#a6cb8eff">
<path fill="#a6cb8e" opacity="1.00" d=" M 51.35 169.35 C 73.40 126.97 109.47 92.01 152.65 71.53 C 150.95 74.26 149.21 76.97 147.09 79.40 C 121.58 92.28 99.19 111.01 80.86 132.86 C 46.52 173.90 28.09 228.02 30.94 281.50 C 29.57 282.49 28.25 283.54 26.92 284.58 C 26.76 283.33 26.62 282.10 26.50 280.86 C 24.73 242.37 33.50 203.48 51.35 169.35 Z" />
</g>
<g id="#80ae6aff">
<path fill="#80ae6a" opacity="1.00" d=" M 80.86 132.86 C 99.19 111.01 121.58 92.28 147.09 79.40 C 138.53 93.41 131.86 108.64 128.62 124.80 C 82.80 160.23 54.43 216.85 52.90 274.70 C 45.06 274.44 37.32 276.99 30.94 281.50 C 28.09 228.02 46.52 173.90 80.86 132.86 Z" />
<path fill="#80ae6a" opacity="1.00" d=" M 359.84 112.56 C 365.73 106.96 369.57 99.41 370.69 91.36 C 402.56 112.58 428.34 142.61 445.15 176.96 C 438.95 178.79 432.76 180.63 426.62 182.65 L 426.47 182.70 C 410.61 154.23 387.30 130.04 359.84 112.56 Z" />
</g>
<g id="#a5cb8dff">
<path fill="#a5cb8d" opacity="1.00" d=" M 370.69 91.36 C 370.94 89.69 371.11 88.01 371.22 86.33 C 404.64 108.42 432.07 139.58 449.35 175.76 C 447.94 176.16 446.54 176.56 445.15 176.96 C 428.34 142.61 402.56 112.58 370.69 91.36 Z" />
</g>
<g id="#bcd3abff">
<path fill="#bcd3ab" opacity="1.00" d=" M 227.97 103.98 C 240.18 95.55 255.60 92.93 270.16 94.73 C 263.26 102.36 255.67 109.32 248.44 116.63 C 245.60 116.08 242.73 115.45 239.81 115.64 C 230.30 116.18 221.00 118.31 211.63 119.89 C 216.13 113.72 221.67 108.29 227.97 103.98 Z" />
</g>
<g id="#829c71ff">
<path fill="#829c71" opacity="1.00" d=" M 241.73 129.77 C 250.30 121.29 258.69 112.62 267.36 104.24 C 279.79 105.77 292.28 107.66 304.12 111.90 C 315.69 116.10 326.98 121.26 337.18 128.20 C 332.26 133.29 327.31 138.36 322.15 143.21 C 310.78 152.87 300.84 164.05 290.08 174.36 C 272.03 166.21 250.78 164.33 232.06 171.37 C 227.98 163.33 226.31 153.49 229.98 144.99 C 232.39 138.90 237.08 134.20 241.73 129.77 Z" />
</g>
<g id="#819b71ff">
<path fill="#819b71" opacity="1.00" d=" M 183.70 123.72 C 193.19 118.69 202.81 113.69 213.24 110.88 C 202.60 122.51 196.17 138.14 196.90 154.02 C 196.17 165.25 198.69 176.51 204.10 186.37 C 197.67 190.86 193.05 197.31 188.52 203.59 C 183.00 211.51 179.18 220.53 176.77 229.85 C 174.60 238.11 174.94 246.70 174.92 255.16 C 169.32 249.72 163.45 244.51 158.47 238.47 C 143.50 219.34 133.20 196.24 130.98 171.92 C 131.37 172.33 132.15 173.17 132.54 173.59 C 136.05 168.44 139.42 163.20 143.42 158.41 C 154.21 144.16 168.48 132.91 183.70 123.72 Z" />
</g>
<g id="#bcd4acff">
<path fill="#bcd4ac" opacity="1.00" d=" M 323.85 147.40 C 335.81 135.75 347.60 123.92 359.84 112.56 C 387.30 130.04 410.61 154.23 426.47 182.70 C 425.03 183.11 423.60 183.52 422.17 183.93 C 407.69 188.04 393.65 193.54 379.30 198.08 C 373.73 189.14 366.88 181.02 359.27 173.75 C 349.11 162.99 336.79 154.47 323.85 147.40 Z" />
</g>
<g id="#c0d7b1ff">
<path fill="#c0d7b1" opacity="1.00" d=" M 239.81 115.64 C 242.73 115.45 245.60 116.08 248.44 116.63 C 240.12 125.42 229.70 133.02 225.35 144.76 C 215.97 144.78 207.03 149.36 200.81 156.26 C 200.36 143.38 204.06 130.36 211.63 119.89 C 221.00 118.31 230.30 116.18 239.81 115.64 Z" />
</g>
<g id="#bcd3acff">
<path fill="#bcd3ac" opacity="1.00" d=" M 52.90 274.70 C 54.43 216.85 82.80 160.23 128.62 124.80 C 124.23 147.05 124.76 170.28 130.32 192.28 C 125.24 198.20 121.31 204.97 117.97 211.99 C 105.63 234.91 100.25 261.27 100.94 287.19 C 92.26 284.85 83.62 282.33 74.95 279.95 C 67.64 278.05 60.61 274.65 52.90 274.70 Z" />
</g>
<g id="#c6dbb8ff">
<path fill="#c6dbb8" opacity="1.00" d=" M 200.81 156.26 C 207.03 149.36 215.97 144.78 225.35 144.76 C 222.80 152.32 223.30 160.63 225.88 168.10 C 222.01 169.20 217.73 169.85 214.71 172.73 C 211.78 175.40 209.19 178.40 206.41 181.23 C 202.69 173.46 200.93 164.85 200.81 156.26 Z" />
</g>
<g id="#c5dab6ff">
<path fill="#c5dab6" opacity="1.00" d=" M 293.95 176.66 C 303.84 166.84 313.94 157.22 323.85 147.40 C 336.79 154.47 349.11 162.99 359.27 173.75 C 366.88 181.02 373.73 189.14 379.30 198.08 C 378.22 198.40 377.13 198.71 376.06 199.03 C 366.09 202.44 356.01 205.73 346.56 210.42 C 344.55 210.84 342.53 211.22 340.52 211.65 C 333.73 201.42 323.78 193.98 313.79 187.13 C 307.59 182.91 300.74 179.79 293.95 176.66 Z" />
</g>
<g id="#cee2c1ff">
<path fill="#cee2c1" opacity="1.00" d=" M 214.71 172.73 C 217.73 169.85 222.01 169.20 225.88 168.10 C 231.70 183.29 247.40 194.79 263.98 193.46 C 276.04 192.96 286.08 185.17 293.95 176.66 C 300.74 179.79 307.59 182.91 313.79 187.13 C 323.78 193.98 333.73 201.42 340.52 211.65 C 339.17 211.95 337.82 212.26 336.49 212.59 C 331.52 213.27 326.70 214.59 321.97 216.24 C 317.44 217.94 312.64 216.14 307.99 216.26 C 292.32 216.24 276.66 216.36 260.99 216.23 C 251.45 216.22 241.85 214.13 233.42 209.57 C 221.78 203.25 212.22 193.13 206.41 181.23 C 209.19 178.40 211.78 175.40 214.71 172.73 Z" />
</g>
<g id="#2e3d25ff">
<path fill="#2e3d25" opacity="1.00" d=" M 459.44 172.64 C 471.07 197.54 478.39 224.49 480.57 251.90 C 480.45 256.07 483.82 258.90 485.93 262.11 C 501.96 284.95 510.70 312.60 512.00 340.40 L 512.00 352.11 C 510.16 385.61 495.95 417.82 474.27 443.19 C 454.10 466.76 425.78 482.87 395.51 489.25 C 381.51 492.03 366.53 488.03 355.80 478.62 C 320.59 496.97 280.65 506.06 240.97 504.82 C 213.37 503.95 185.87 498.27 160.30 487.80 C 156.08 486.07 151.45 487.38 147.04 487.18 C 118.52 487.04 89.95 478.67 66.13 462.93 C 47.64 450.71 32.54 433.81 21.27 414.81 C 24.01 412.03 26.71 409.21 29.34 406.33 C 40.01 424.65 53.88 441.41 71.57 453.33 C 91.01 466.63 114.09 474.27 137.50 476.28 C 145.27 477.03 153.07 476.43 160.85 476.37 C 198.44 492.56 240.52 497.99 281.00 492.06 C 308.27 488.16 334.73 479.01 358.70 465.46 C 363.86 471.89 371.03 476.91 379.15 478.71 C 385.35 480.13 391.84 479.68 397.98 478.15 C 416.73 473.39 434.68 465.00 449.79 452.85 C 471.25 435.62 486.79 411.59 495.52 385.62 C 509.67 343.25 499.57 294.06 471.00 259.93 C 469.38 230.81 461.99 202.07 449.45 175.73 C 452.80 174.78 456.13 173.72 459.44 172.64 Z" />
</g>
<g id="#88ba68ff">
<path fill="#88ba68" opacity="1.00" d=" M 445.15 176.96 C 446.54 176.56 447.94 176.16 449.35 175.76 L 449.45 175.73 C 461.99 202.07 469.38 230.81 471.00 259.93 C 469.41 258.03 467.81 256.13 466.11 254.33 C 464.17 227.51 456.80 201.17 445.15 176.96 Z" />
<path fill="#88ba68" opacity="1.00" d=" M 169.37 474.98 C 229.41 499.09 300.23 493.91 356.33 461.74 C 357.06 463.01 357.84 464.25 358.70 465.46 C 334.73 479.01 308.27 488.16 281.00 492.06 C 240.52 497.99 198.44 492.56 160.85 476.37 C 163.68 475.83 166.51 475.32 169.37 474.98 Z" />
</g>
<g id="#559338ff">
<path fill="#559338" opacity="1.00" d=" M 426.62 182.65 C 432.76 180.63 438.95 178.79 445.15 176.96 C 456.80 201.17 464.17 227.51 466.11 254.33 C 460.45 248.55 454.40 243.16 447.90 238.35 C 443.67 218.84 436.30 200.09 426.62 182.65 Z" />
<path fill="#559338" opacity="1.00" d=" M 244.95 480.72 C 282.55 482.27 320.48 472.88 353.01 453.97 C 353.89 456.64 355.01 459.24 356.33 461.74 C 300.23 493.91 229.41 499.09 169.37 474.98 C 175.63 473.74 181.82 472.08 187.91 470.18 C 206.29 476.38 225.56 480.02 244.95 480.72 Z" />
</g>
<g id="#b0d19bff">
<path fill="#b0d19b" opacity="1.00" d=" M 422.17 183.93 C 423.60 183.52 425.03 183.11 426.47 182.70 L 426.62 182.65 C 436.30 200.09 443.67 218.84 447.90 238.35 C 446.02 236.95 444.13 235.59 442.20 234.28 C 438.38 216.56 431.29 199.56 422.17 183.93 Z" />
<path fill="#b0d19b" opacity="1.00" d=" M 251.42 476.55 C 286.58 477.02 321.62 467.38 351.96 449.71 C 352.28 451.13 352.61 452.56 353.01 453.97 C 320.48 472.88 282.55 482.27 244.95 480.72 C 225.56 480.02 206.29 476.38 187.91 470.18 C 190.21 469.41 192.50 468.59 194.78 467.73 C 213.02 473.71 232.25 476.41 251.42 476.55 Z" />
</g>
<g id="#a4c38eff">
<path fill="#a4c38e" opacity="1.00" d=" M 379.30 198.08 C 393.65 193.54 407.69 188.04 422.17 183.93 C 431.29 199.56 438.38 216.56 442.20 234.28 C 424.23 222.29 403.81 213.73 382.37 210.60 C 381.01 206.38 378.82 202.50 376.06 199.03 C 377.13 198.71 378.22 198.40 379.30 198.08 Z" />
</g>
<g id="#89a377ff">
<path fill="#89a377" opacity="1.00" d=" M 188.52 203.59 C 193.05 197.31 197.67 190.86 204.10 186.37 C 208.28 194.35 214.77 200.74 221.39 206.71 C 228.17 212.60 236.59 216.40 245.22 218.72 C 257.95 221.43 271.06 220.84 284.00 220.88 C 294.23 221.16 304.53 220.21 314.70 221.76 C 310.58 223.53 306.49 225.36 302.32 226.98 C 271.31 240.04 240.83 254.38 211.16 270.25 C 204.41 274.03 197.57 277.65 190.90 281.57 C 188.03 277.53 185.30 273.38 183.03 268.98 C 180.52 264.27 178.60 259.13 174.92 255.16 C 174.94 246.70 174.60 238.11 176.77 229.85 C 179.18 220.53 183.00 211.51 188.52 203.59 Z" />
</g>
<g id="#c4dab6ff">
<path fill="#c4dab6" opacity="1.00" d=" M 117.97 211.99 C 121.31 204.97 125.24 198.20 130.32 192.28 C 134.19 207.25 140.95 221.42 149.84 234.05 C 148.29 236.15 146.69 238.29 145.83 240.79 C 141.98 251.78 138.86 263.23 138.89 274.96 C 139.00 282.65 138.36 290.40 139.72 298.03 C 126.78 294.46 113.88 290.74 100.94 287.19 C 100.25 261.27 105.63 234.91 117.97 211.99 Z" />
</g>
<g id="#afcc9bff">
<path fill="#afcc9b" opacity="1.00" d=" M 346.56 210.42 C 356.01 205.73 366.09 202.44 376.06 199.03 C 378.82 202.50 381.01 206.38 382.37 210.60 C 370.51 208.79 358.45 209.17 346.56 210.42 Z" />
</g>
<g id="#5b7749ff">
<path fill="#5b7749" opacity="1.00" d=" M 346.56 210.42 C 358.45 209.17 370.51 208.79 382.37 210.60 C 403.81 213.73 424.23 222.29 442.20 234.28 C 444.13 235.59 446.02 236.95 447.90 238.35 C 454.40 243.16 460.45 248.55 466.11 254.33 C 467.81 256.13 469.41 258.03 471.00 259.93 C 499.57 294.06 509.67 343.25 495.52 385.62 C 486.79 411.59 471.25 435.62 449.79 452.85 C 434.68 465.00 416.73 473.39 397.98 478.15 C 391.84 479.68 385.35 480.13 379.15 478.71 C 371.03 476.91 363.86 471.89 358.70 465.46 C 357.84 464.25 357.06 463.01 356.33 461.74 C 355.01 459.24 353.89 456.64 353.01 453.97 C 352.61 452.56 352.28 451.13 351.96 449.71 C 349.84 439.62 347.04 429.69 344.52 419.70 C 341.75 409.16 339.15 398.59 336.40 388.05 C 333.67 377.66 331.05 367.25 328.39 356.85 C 326.93 351.28 326.52 345.47 327.07 339.75 C 329.06 324.33 342.01 311.53 357.26 309.08 C 369.80 306.30 383.94 310.36 392.28 320.32 C 395.91 324.94 398.46 330.33 400.01 335.98 C 402.09 343.51 404.02 351.07 406.05 358.61 C 408.23 366.97 410.38 375.34 412.74 383.66 C 421.18 373.05 426.29 359.60 426.13 345.97 C 426.01 337.29 423.95 328.69 420.51 320.74 C 415.73 309.96 407.50 300.83 397.41 294.75 C 386.45 287.86 373.41 284.09 360.43 285.19 C 346.10 286.64 331.75 292.06 321.60 302.58 C 317.51 306.64 314.25 311.43 311.36 316.39 C 303.76 329.45 296.26 342.58 288.67 355.65 C 286.68 359.18 283.35 362.04 282.49 366.13 C 281.86 368.84 281.36 371.57 280.63 374.25 C 276.58 389.25 270.30 403.73 261.42 416.52 C 253.80 427.40 244.58 437.15 234.10 445.32 C 222.10 454.53 208.89 462.23 194.78 467.73 C 192.50 468.59 190.21 469.41 187.91 470.18 C 181.82 472.08 175.63 473.74 169.37 474.98 C 166.51 475.32 163.68 475.83 160.85 476.37 C 153.07 476.43 145.27 477.03 137.50 476.28 C 114.09 474.27 91.01 466.63 71.57 453.33 C 53.88 441.41 40.01 424.65 29.34 406.33 L 29.50 406.16 C 30.51 405.06 31.52 403.95 32.52 402.86 L 32.67 403.13 C 40.68 417.55 50.87 430.87 63.45 441.61 C 87.45 462.24 119.42 472.93 150.94 472.29 C 176.18 471.85 200.58 462.62 221.53 448.88 C 236.67 439.36 249.60 426.39 259.48 411.50 C 265.92 401.81 270.82 391.12 274.38 380.06 C 276.10 375.01 277.21 369.80 278.54 364.66 C 279.69 359.99 283.04 356.41 285.48 352.41 C 288.56 347.42 291.33 342.24 294.30 337.18 C 298.98 329.22 303.52 321.17 308.22 313.22 C 312.99 304.98 319.62 297.88 327.16 292.12 C 339.09 284.31 353.44 280.11 367.73 280.78 C 379.89 281.00 391.41 285.81 401.61 292.15 C 413.39 299.57 421.91 311.29 426.74 324.24 C 431.37 337.39 432.08 352.13 427.58 365.42 C 424.17 375.67 418.39 385.16 410.71 392.76 C 410.09 390.80 409.48 388.83 408.93 386.84 C 405.90 374.17 402.18 361.67 398.98 349.04 C 396.83 341.12 395.17 332.88 390.80 325.81 C 386.30 319.11 379.00 314.27 370.97 313.18 C 360.39 311.77 348.81 314.43 341.06 322.09 C 335.69 327.04 332.41 333.97 331.34 341.15 C 330.51 347.64 332.03 354.13 333.69 360.38 C 335.48 366.78 336.96 373.26 338.79 379.65 C 343.21 396.61 347.18 413.69 351.84 430.58 C 355.10 439.92 355.32 450.20 359.87 459.07 C 364.88 468.13 374.56 474.70 385.02 475.16 C 392.81 475.66 400.34 473.13 407.64 470.74 C 422.66 465.79 436.78 458.06 448.93 447.94 C 470.74 429.60 486.19 404.07 493.62 376.66 C 502.88 341.31 495.35 302.26 474.80 272.21 C 466.29 259.77 455.29 249.21 443.18 240.32 C 431.63 231.82 418.68 225.33 405.15 220.62 C 392.61 216.12 379.23 213.78 365.90 214.05 C 354.96 213.69 344.03 214.92 333.38 217.36 C 327.68 218.62 322.36 221.49 316.42 221.51 C 322.93 218.11 330.24 216.52 336.49 212.59 C 337.82 212.26 339.17 211.95 340.52 211.65 C 342.53 211.22 344.55 210.84 346.56 210.42 Z" />
<path fill="#5b7749" opacity="1.00" d=" M 186.71 284.14 C 187.90 283.39 189.10 282.65 190.31 281.93 C 194.52 289.00 198.61 296.14 202.81 303.21 C 208.65 312.83 212.93 323.52 213.94 334.80 C 214.50 347.18 211.25 359.53 205.87 370.61 C 200.91 380.11 193.35 388.11 184.38 393.96 C 173.61 400.98 160.95 405.58 147.97 405.22 C 139.66 405.45 131.66 403.00 123.75 400.83 C 110.84 395.68 99.71 386.37 92.62 374.39 C 89.03 368.92 86.99 362.68 84.58 356.65 C 89.24 356.91 93.66 358.51 98.12 359.72 C 108.65 362.62 119.26 365.22 129.74 368.30 C 135.61 370.05 141.54 371.75 147.63 372.55 C 157.44 373.73 167.54 369.31 173.73 361.69 C 179.28 354.80 182.47 345.86 181.89 336.98 C 181.53 329.25 177.83 321.98 172.73 316.30 C 167.23 310.36 159.18 308.10 151.74 305.66 C 153.21 304.64 154.67 303.61 156.15 302.59 C 165.68 305.01 174.89 310.25 180.30 318.68 C 186.45 327.82 187.91 339.72 184.57 350.18 C 181.46 361.21 173.28 370.76 162.52 374.91 C 155.30 377.43 147.40 377.36 140.04 375.45 C 123.84 371.16 107.71 366.65 91.50 362.41 C 96.92 375.26 106.14 386.86 118.64 393.41 C 130.12 399.38 143.44 402.27 156.33 400.40 C 165.48 399.08 174.19 395.48 181.88 390.41 C 191.44 384.17 199.34 375.30 203.87 364.78 C 209.38 352.00 211.35 337.37 207.42 323.86 C 205.10 315.00 199.99 307.30 195.50 299.43 C 192.57 294.33 189.57 289.27 186.71 284.14 Z" />
</g>
<g id="#5d8147ff">
<path fill="#5d8147" opacity="1.00" d=" M 333.38 217.36 C 344.03 214.92 354.96 213.69 365.90 214.05 C 368.64 222.45 370.47 231.17 370.93 240.02 C 372.63 253.68 370.16 267.36 367.73 280.78 C 353.44 280.11 339.09 284.31 327.16 292.12 C 319.62 297.88 312.99 304.98 308.22 313.22 C 303.52 321.17 298.98 329.22 294.30 337.18 C 282.51 342.17 269.78 344.54 257.02 344.99 C 242.11 344.90 227.44 341.00 213.94 334.80 C 212.93 323.52 208.65 312.83 202.81 303.21 C 198.61 296.14 194.52 289.00 190.31 281.93 L 190.90 281.57 C 197.57 277.65 204.41 274.03 211.16 270.25 C 215.08 274.94 217.67 280.66 222.20 284.84 C 232.60 294.24 246.71 300.00 260.84 298.77 C 271.41 297.27 282.20 293.62 289.87 285.88 C 301.01 275.99 307.23 260.78 306.07 245.90 C 306.05 239.36 302.69 233.47 302.32 226.98 C 306.49 225.36 310.58 223.53 314.70 221.76 C 315.27 221.68 315.84 221.59 316.42 221.51 C 322.36 221.49 327.68 218.62 333.38 217.36 Z" />
</g>
<g id="#54773eff">
<path fill="#54773e" opacity="1.00" d=" M 365.90 214.05 C 379.23 213.78 392.61 216.12 405.15 220.62 C 405.64 228.42 407.38 236.13 407.07 243.98 C 406.83 250.91 407.29 257.87 406.64 264.78 C 405.67 274.02 403.74 283.12 401.61 292.15 C 391.41 285.81 379.89 281.00 367.73 280.78 C 370.16 267.36 372.63 253.68 370.93 240.02 C 370.47 231.17 368.64 222.45 365.90 214.05 Z" />
</g>
<g id="#4e7038ff">
<path fill="#4e7038" opacity="1.00" d=" M 405.15 220.62 C 418.68 225.33 431.63 231.82 443.18 240.32 C 441.23 248.09 442.93 256.12 442.11 264.01 C 440.28 284.74 435.27 305.23 426.74 324.24 C 421.91 311.29 413.39 299.57 401.61 292.15 C 403.74 283.12 405.67 274.02 406.64 264.78 C 407.29 257.87 406.83 250.91 407.07 243.98 C 407.38 236.13 405.64 228.42 405.15 220.62 Z" />
</g>
<g id="#63874cff">
<path fill="#63874c" opacity="1.00" d=" M 211.16 270.25 C 240.83 254.38 271.31 240.04 302.32 226.98 C 302.69 233.47 306.05 239.36 306.07 245.90 C 307.23 260.78 301.01 275.99 289.87 285.88 C 282.20 293.62 271.41 297.27 260.84 298.77 C 246.71 300.00 232.60 294.24 222.20 284.84 C 217.67 280.66 215.08 274.94 211.16 270.25 Z" />
</g>
<g id="#cbdfbdff">
<path fill="#cbdfbd" opacity="1.00" d=" M 145.83 240.79 C 146.69 238.29 148.29 236.15 149.84 234.05 C 153.45 239.17 157.48 243.98 161.73 248.58 C 156.99 258.66 155.72 269.99 155.98 281.01 C 155.82 287.88 155.96 294.82 157.77 301.50 C 157.37 301.76 156.58 302.30 156.19 302.56 C 150.68 301.12 145.22 299.51 139.72 298.03 C 138.36 290.40 139.00 282.65 138.89 274.96 C 138.86 263.23 141.98 251.78 145.83 240.79 Z" />
</g>
<g id="#43642eff">
<path fill="#43642e" opacity="1.00" d=" M 442.11 264.01 C 442.93 256.12 441.23 248.09 443.18 240.32 C 455.29 249.21 466.29 259.77 474.80 272.21 C 495.35 302.26 502.88 341.31 493.62 376.66 C 486.19 404.07 470.74 429.60 448.93 447.94 C 436.78 458.06 422.66 465.79 407.64 470.74 C 400.34 473.13 392.81 475.66 385.02 475.16 C 374.56 474.70 364.88 468.13 359.87 459.07 C 355.32 450.20 355.10 439.92 351.84 430.58 C 368.04 422.33 382.85 411.54 396.21 399.25 C 400.45 395.11 404.49 390.77 408.93 386.84 C 409.48 388.83 410.09 390.80 410.71 392.76 C 418.39 385.16 424.17 375.67 427.58 365.42 C 432.08 352.13 431.37 337.39 426.74 324.24 C 435.27 305.23 440.28 284.74 442.11 264.01 Z" />
<path fill="#43642e" opacity="1.00" d=" M 32.67 403.13 C 48.39 386.54 65.46 371.28 82.93 356.57 C 83.35 356.59 84.17 356.63 84.58 356.65 C 86.99 362.68 89.03 368.92 92.62 374.39 C 99.71 386.37 110.84 395.68 123.75 400.83 C 126.96 404.48 130.68 407.61 134.69 410.35 C 154.96 425.83 178.23 437.36 202.81 444.14 C 209.02 445.85 215.38 446.95 221.53 448.88 C 200.58 462.62 176.18 471.85 150.94 472.29 C 119.42 472.93 87.45 462.24 63.45 441.61 C 50.87 430.87 40.68 417.55 32.67 403.13 Z" />
</g>
<g id="#cee3c2ff">
<path fill="#cee3c2" opacity="1.00" d=" M 155.98 281.01 C 155.72 269.99 156.99 258.66 161.73 248.58 C 165.55 253.29 170.96 256.54 174.38 261.55 C 177.74 269.47 182.52 276.65 186.62 284.19 C 177.02 289.98 167.17 295.37 157.77 301.50 C 155.96 294.82 155.82 287.88 155.98 281.01 Z" />
</g>
<g id="#728b62ff">
<path fill="#728b62" opacity="1.00" d=" M 41.11 281.11 C 47.86 278.43 55.41 278.71 62.31 280.69 C 65.58 300.58 71.69 320.08 80.94 338.01 C 83.14 342.77 85.67 347.39 88.91 351.53 C 86.92 353.20 84.94 354.90 82.93 356.57 C 65.46 371.28 48.39 386.54 32.67 403.13 L 32.52 402.86 C 27.20 393.07 22.90 382.71 20.10 371.92 C 13.91 348.75 14.98 323.89 22.17 301.07 C 25.08 292.03 32.06 284.25 41.11 281.11 Z" />
</g>
<g id="#7a9369ff">
<path fill="#7a9369" opacity="1.00" d=" M 62.31 280.69 C 91.58 289.78 121.51 296.70 150.58 306.45 C 136.54 315.88 122.51 325.35 109.10 335.65 C 102.33 340.89 95.49 346.05 88.91 351.53 C 85.67 347.39 83.14 342.77 80.94 338.01 C 71.69 320.08 65.58 300.58 62.31 280.69 Z" />
</g>
<g id="#c2dbb0ff">
<path fill="#c2dbb0" opacity="1.00" d=" M 186.62 284.19 L 186.71 284.14 C 189.57 289.27 192.57 294.33 195.50 299.43 C 199.99 307.30 205.10 315.00 207.42 323.86 C 211.35 337.37 209.38 352.00 203.87 364.78 C 196.42 361.52 190.05 356.10 184.57 350.18 C 187.91 339.72 186.45 327.82 180.30 318.68 C 174.89 310.25 165.68 305.01 156.15 302.59 L 156.19 302.56 C 156.58 302.30 157.37 301.76 157.77 301.50 C 167.17 295.37 177.02 289.98 186.62 284.19 Z" />
</g>
<g id="#b3cf9fff">
<path fill="#b3cf9f" opacity="1.00" d=" M 360.43 285.19 C 373.41 284.09 386.45 287.86 397.41 294.75 C 396.31 303.37 395.24 312.10 392.28 320.32 C 383.94 310.36 369.80 306.30 357.26 309.08 C 360.25 305.40 360.63 300.56 361.29 296.06 C 361.72 292.41 362.87 288.38 360.43 285.19 Z" />
</g>
<g id="#bed9adff">
<path fill="#bed9ad" opacity="1.00" d=" M 321.60 302.58 C 331.75 292.06 346.10 286.64 360.43 285.19 C 362.87 288.38 361.72 292.41 361.29 296.06 C 360.63 300.56 360.25 305.40 357.26 309.08 C 342.01 311.53 329.06 324.33 327.07 339.75 C 326.46 343.86 324.59 347.71 321.36 350.39 C 309.87 361.32 296.05 370.13 280.63 374.25 C 281.36 371.57 281.86 368.84 282.49 366.13 C 283.35 362.04 286.68 359.18 288.67 355.65 C 296.26 342.58 303.76 329.45 311.36 316.39 C 314.25 311.43 317.51 306.64 321.60 302.58 Z" />
</g>
<g id="#a9c895ff">
<path fill="#a9c895" opacity="1.00" d=" M 397.41 294.75 C 407.50 300.83 415.73 309.96 420.51 320.74 C 416.69 333.69 413.03 346.95 406.05 358.61 C 404.02 351.07 402.09 343.51 400.01 335.98 C 398.46 330.33 395.91 324.94 392.28 320.32 C 395.24 312.10 396.31 303.37 397.41 294.75 Z" />
</g>
<g id="#53753dff">
<path fill="#53753d" opacity="1.00" d=" M 150.58 306.45 C 150.87 306.26 151.45 305.86 151.74 305.66 C 159.18 308.10 167.23 310.36 172.73 316.30 C 177.83 321.98 181.53 329.25 181.89 336.98 C 182.47 345.86 179.28 354.80 173.73 361.69 C 167.54 369.31 157.44 373.73 147.63 372.55 C 141.54 371.75 135.61 370.05 129.74 368.30 C 130.55 368.16 132.15 367.88 132.96 367.74 C 129.14 362.39 124.37 357.82 120.48 352.53 C 116.34 347.15 112.76 341.36 109.10 335.65 C 122.51 325.35 136.54 315.88 150.58 306.45 Z" />
</g>
<g id="#54763eff">
<path fill="#54763e" opacity="1.00" d=" M 341.06 322.09 C 348.81 314.43 360.39 311.77 370.97 313.18 C 379.00 314.27 386.30 319.11 390.80 325.81 C 378.06 347.52 360.39 366.56 338.79 379.65 C 336.96 373.26 335.48 366.78 333.69 360.38 C 332.03 354.13 330.51 347.64 331.34 341.15 C 332.41 333.97 335.69 327.04 341.06 322.09 Z" />
</g>
<g id="#a3c38eff">
<path fill="#a3c38e" opacity="1.00" d=" M 420.51 320.74 C 423.95 328.69 426.01 337.29 426.13 345.97 C 426.29 359.60 421.18 373.05 412.74 383.66 C 410.38 375.34 408.23 366.97 406.05 358.61 C 413.03 346.95 416.69 333.69 420.51 320.74 Z" />
</g>
<g id="#4c6e37ff">
<path fill="#4c6e37" opacity="1.00" d=" M 338.79 379.65 C 360.39 366.56 378.06 347.52 390.80 325.81 C 395.17 332.88 396.83 341.12 398.98 349.04 C 402.18 361.67 405.90 374.17 408.93 386.84 C 404.49 390.77 400.45 395.11 396.21 399.25 C 382.85 411.54 368.04 422.33 351.84 430.58 C 347.18 413.69 343.21 396.61 338.79 379.65 Z" />
</g>
<g id="#587b42ff">
<path fill="#587b42" opacity="1.00" d=" M 213.94 334.80 C 227.44 341.00 242.11 344.90 257.02 344.99 C 269.78 344.54 282.51 342.17 294.30 337.18 C 291.33 342.24 288.56 347.42 285.48 352.41 C 283.04 356.41 279.69 359.99 278.54 364.66 C 277.21 369.80 276.10 375.01 274.38 380.06 C 267.24 380.34 260.11 381.34 252.95 380.95 C 236.85 380.06 220.71 377.11 205.87 370.61 C 211.25 359.53 214.50 347.18 213.94 334.80 Z" />
</g>
<g id="#4c6e36ff">
<path fill="#4c6e36" opacity="1.00" d=" M 88.91 351.53 C 95.49 346.05 102.33 340.89 109.10 335.65 C 112.76 341.36 116.34 347.15 120.48 352.53 C 124.37 357.82 129.14 362.39 132.96 367.74 C 132.15 367.88 130.55 368.16 129.74 368.30 C 119.26 365.22 108.65 362.62 98.12 359.72 C 93.66 358.51 89.24 356.91 84.58 356.65 C 84.17 356.63 83.35 356.59 82.93 356.57 C 84.94 354.90 86.92 353.20 88.91 351.53 Z" />
</g>
<g id="#b5d1a2ff">
<path fill="#b5d1a2" opacity="1.00" d=" M 321.36 350.39 C 324.59 347.71 326.46 343.86 327.07 339.75 C 326.52 345.47 326.93 351.28 328.39 356.85 C 331.05 367.25 333.67 377.66 336.40 388.05 C 330.15 394.24 322.29 398.39 314.66 402.59 C 301.23 409.15 286.84 413.91 272.03 416.03 C 268.53 416.68 264.96 416.68 261.42 416.52 C 270.30 403.73 276.58 389.25 280.63 374.25 C 296.05 370.13 309.87 361.32 321.36 350.39 Z" />
</g>
<g id="#b7d2a4ff">
<path fill="#b7d2a4" opacity="1.00" d=" M 162.52 374.91 C 173.28 370.76 181.46 361.21 184.57 350.18 C 190.05 356.10 196.42 361.52 203.87 364.78 C 199.34 375.30 191.44 384.17 181.88 390.41 C 174.86 386.00 168.24 380.91 162.52 374.91 Z" />
</g>
<g id="#a7c793ff">
<path fill="#a7c793" opacity="1.00" d=" M 91.50 362.41 C 107.71 366.65 123.84 371.16 140.04 375.45 C 138.79 376.72 137.53 377.96 136.28 379.23 C 139.74 384.16 143.70 388.77 148.44 392.53 C 151.38 394.83 153.99 397.50 156.33 400.40 C 143.44 402.27 130.12 399.38 118.64 393.41 C 106.14 386.86 96.92 375.26 91.50 362.41 Z" />
</g>
<g id="#52743cff">
<path fill="#52743c" opacity="1.00" d=" M 184.38 393.96 C 193.35 388.11 200.91 380.11 205.87 370.61 C 220.71 377.11 236.85 380.06 252.95 380.95 C 260.11 381.34 267.24 380.34 274.38 380.06 C 270.82 391.12 265.92 401.81 259.48 411.50 C 253.44 410.82 247.36 411.21 241.32 410.63 C 221.61 408.32 201.88 403.55 184.38 393.96 Z" />
</g>
<g id="#aecc9aff">
<path fill="#aecc9a" opacity="1.00" d=" M 140.04 375.45 C 147.40 377.36 155.30 377.43 162.52 374.91 C 168.24 380.91 174.86 386.00 181.88 390.41 C 174.19 395.48 165.48 399.08 156.33 400.40 C 153.99 397.50 151.38 394.83 148.44 392.53 C 143.70 388.77 139.74 384.16 136.28 379.23 C 137.53 377.96 138.79 376.72 140.04 375.45 Z" />
</g>
<g id="#abca97ff">
<path fill="#abca97" opacity="1.00" d=" M 336.40 388.05 C 339.15 398.59 341.75 409.16 344.52 419.70 C 316.71 437.99 283.29 448.10 249.94 447.08 C 244.62 447.11 239.04 447.75 234.10 445.32 C 244.58 437.15 253.80 427.40 261.42 416.52 C 264.96 416.68 268.53 416.68 272.03 416.03 C 286.84 413.91 301.23 409.15 314.66 402.59 C 322.29 398.39 330.15 394.24 336.40 388.05 Z" />
</g>
<g id="#4b6d36ff">
<path fill="#4b6d36" opacity="1.00" d=" M 147.97 405.22 C 160.95 405.58 173.61 400.98 184.38 393.96 C 201.88 403.55 221.61 408.32 241.32 410.63 C 247.36 411.21 253.44 410.82 259.48 411.50 C 249.60 426.39 236.67 439.36 221.53 448.88 C 215.38 446.95 209.02 445.85 202.81 444.14 C 178.23 437.36 154.96 425.83 134.69 410.35 C 130.68 407.61 126.96 404.48 123.75 400.83 C 131.66 403.00 139.66 405.45 147.97 405.22 Z" />
</g>
<g id="#a3c38dff">
<path fill="#a3c38d" opacity="1.00" d=" M 249.94 447.08 C 283.29 448.10 316.71 437.99 344.52 419.70 C 347.04 429.69 349.84 439.62 351.96 449.71 C 321.62 467.38 286.58 477.02 251.42 476.55 C 232.25 476.41 213.02 473.71 194.78 467.73 C 208.89 462.23 222.10 454.53 234.10 445.32 C 239.04 447.75 244.62 447.11 249.94 447.08 Z" />
</g>
</svg>
