<?xml version="1.0" encoding="UTF-8" standalone="no"?>
<svg
   width="512pt"
   height="400.89001pt"
   viewBox="0 0 511.99998 400.89002"
   version="1.1"
   id="svg6"
   sodipodi:docname="flathub.svg"
   inkscape:version="1.4.2 (ebf0e940d0, 2025-05-08)"
   xmlns:inkscape="http://www.inkscape.org/namespaces/inkscape"
   xmlns:sodipodi="http://sodipodi.sourceforge.net/DTD/sodipodi-0.dtd"
   xmlns="http://www.w3.org/2000/svg"
   xmlns:svg="http://www.w3.org/2000/svg">
  <defs
     id="defs6" />
  <sodipodi:namedview
     id="namedview6"
     pagecolor="#505050"
     bordercolor="#ffffff"
     borderopacity="1"
     inkscape:showpageshadow="0"
     inkscape:pageopacity="0"
     inkscape:pagecheckerboard="1"
     inkscape:deskcolor="#505050"
     inkscape:document-units="pt"
     inkscape:zoom="0.44901971"
     inkscape:cx="81.288191"
     inkscape:cy="727.13957"
     inkscape:window-width="1920"
     inkscape:window-height="1052"
     inkscape:window-x="0"
     inkscape:window-y="0"
     inkscape:window-maximized="1"
     inkscape:current-layer="svg6" />
  <g
     id="#204a87ff"
     transform="translate(0,-55.55)">
    <path
       fill="#204a87"
       opacity="1"
       d="M 0,223.16 C 85.3,167.23 170.7,111.43 256.03,55.55 341.36,111.4 426.74,167.17 512,223.12 v 144.07 c -45.41,29.79 -90.88,59.48 -136.3,89.25 -39.92,-26.06 -79.77,-52.24 -119.69,-78.29 -39.9,26.11 -79.74,52.3 -119.71,78.29 C 90.92,426.61 45.46,396.91 0,367.21 V 223.16 m 139.79,-74.14 c 38.72,25.43 77.52,50.72 116.24,76.13 C 294.73,199.74 333.59,174.55 372.2,149 333.57,123.49 294.75,98.26 256.03,72.89 217.3,98.28 178.49,123.58 139.79,149.02 M 26.85,222.83 c -2.02,1.37 -4.2,2.52 -6.01,4.17 38.72,25.23 77.3,50.67 116.05,75.85 37.8,-24.81 75.66,-49.54 113.5,-74.3 0.46,-0.41 1.38,-1.22 1.84,-1.63 C 213.56,201.69 175.02,176.23 136.26,151.14 99.87,175.15 63.3,198.91 26.85,222.83 m 232.31,4.57 c 38.71,25.25 77.39,50.55 116.02,75.94 38.94,-25.25 77.74,-50.74 116.53,-76.23 -38.61,-25.4 -77.35,-50.61 -115.98,-75.98 -38.89,25.37 -77.72,50.83 -116.57,76.27 m -239.41,3.97 c -0.05,40.27 0.02,80.53 -0.03,120.8 38.45,25.2 76.95,50.35 115.4,75.55 0.01,-40.28 0.02,-80.56 0,-120.85 C 96.69,281.67 58.23,256.5 19.75,231.37 m 239.26,2.93 c -0.03,40.27 0.02,80.55 -0.02,120.82 38.47,25.17 76.95,50.34 115.4,75.53 0.02,-40.27 0,-80.55 0.01,-120.82 -38.43,-25.22 -76.9,-50.39 -115.39,-75.53 z"
       id="path1" />
  </g>
  <g
     id="#ffffffff"
     transform="translate(0,-55.55)">
    <path
       fill="#ffffff"
       opacity="1"
       d="m 139.79,149.02 c 38.7,-25.44 77.51,-50.74 116.24,-76.13 38.72,25.37 77.54,50.6 116.17,76.11 -38.61,25.55 -77.47,50.74 -116.17,76.15 -38.72,-25.41 -77.52,-50.7 -116.24,-76.13 z"
       id="path2" />
    <path
       fill="#ffffff"
       opacity="1"
       d="m 26.85,222.83 c 36.45,-23.92 73.02,-47.68 109.41,-71.69 38.76,25.09 77.3,50.55 115.97,75.78 -0.46,0.41 -1.38,1.22 -1.84,1.63 -37.84,24.76 -75.7,49.49 -113.5,74.3 C 98.14,277.67 59.56,252.23 20.84,227 c 1.81,-1.65 3.99,-2.8 6.01,-4.17 z"
       id="path3" />
    <path
       fill="#ffffff"
       opacity="1"
       d="m 259.16,227.4 c 38.85,-25.44 77.68,-50.9 116.57,-76.27 38.63,25.37 77.37,50.58 115.98,75.98 -38.79,25.49 -77.59,50.98 -116.53,76.23 -38.63,-25.39 -77.31,-50.69 -116.02,-75.94 z"
       id="path4" />
    <path
       fill="#ffffff"
       opacity="1"
       d="m 19.75,231.37 c 38.48,25.13 76.94,50.3 115.37,75.5 0.02,40.29 0.01,80.57 0,120.85 -38.45,-25.2 -76.95,-50.35 -115.4,-75.55 0.05,-40.27 -0.02,-80.53 0.03,-120.8 z"
       id="path5" />
    <path
       fill="#ffffff"
       opacity="1"
       d="m 259.01,234.3 c 38.49,25.14 76.96,50.31 115.39,75.53 -0.01,40.27 0.01,80.55 -0.01,120.82 -38.45,-25.19 -76.93,-50.36 -115.4,-75.53 0.04,-40.27 -0.01,-80.55 0.02,-120.82 z"
       id="path6" />
  </g>
</svg>
