<?xml version="1.0" encoding="UTF-8" standalone="no"?>
<svg
   inkscape:version="1.4.2 (ebf0e940d0, 2025-05-08)"
   id="svg8"
   version="1.1"
   viewBox="0 0 192.04982 212.93002"
   height="212.93002"
   width="192.04982"
   sodipodi:docname="flatpak.svg"
   inkscape:export-filename="..\..\logo-black.svg"
   inkscape:export-xdpi="96"
   inkscape:export-ydpi="96"
   xmlns:inkscape="http://www.inkscape.org/namespaces/inkscape"
   xmlns:sodipodi="http://sodipodi.sourceforge.net/DTD/sodipodi-0.dtd"
   xmlns="http://www.w3.org/2000/svg"
   xmlns:svg="http://www.w3.org/2000/svg"
   xmlns:rdf="http://www.w3.org/1999/02/22-rdf-syntax-ns#"
   xmlns:cc="http://creativecommons.org/ns#"
   xmlns:dc="http://purl.org/dc/elements/1.1/">
  <defs
     id="defs2" />
  <sodipodi:namedview
     units="px"
     borderlayer="true"
     inkscape:showpageshadow="false"
     showgrid="false"
     inkscape:document-rotation="0"
     inkscape:current-layer="layer1"
     inkscape:document-units="px"
     inkscape:cy="105.25"
     inkscape:cx="-25.25"
     inkscape:zoom="2"
     inkscape:pageshadow="2"
     inkscape:pageopacity="0"
     borderopacity="1"
     bordercolor="#383838"
     pagecolor="#1f1f1f"
     id="base"
     inkscape:pagecheckerboard="1"
     inkscape:deskcolor="#1f1f1f"
     inkscape:window-width="1920"
     inkscape:window-height="1052"
     inkscape:window-x="0"
     inkscape:window-y="0"
     inkscape:window-maximized="1" />
  <metadata
     id="metadata5">
    <rdf:RDF>
      <cc:Work
         rdf:about="">
        <dc:format>image/svg+xml</dc:format>
        <dc:type
           rdf:resource="http://purl.org/dc/dcmitype/StillImage" />
        <cc:license
           rdf:resource="http://creativecommons.org/licenses/by-sa/4.0/" />
      </cc:Work>
      <cc:License
         rdf:about="http://creativecommons.org/licenses/by-sa/4.0/">
        <cc:permits
           rdf:resource="http://creativecommons.org/ns#Reproduction" />
        <cc:permits
           rdf:resource="http://creativecommons.org/ns#Distribution" />
        <cc:requires
           rdf:resource="http://creativecommons.org/ns#Notice" />
        <cc:requires
           rdf:resource="http://creativecommons.org/ns#Attribution" />
        <cc:permits
           rdf:resource="http://creativecommons.org/ns#DerivativeWorks" />
        <cc:requires
           rdf:resource="http://creativecommons.org/ns#ShareAlike" />
      </cc:License>
    </rdf:RDF>
  </metadata>
  <g
     id="layer1"
     inkscape:groupmode="layer"
     inkscape:label="Layer 1"
     transform="translate(-103.9751,-45.292098)">
    <g
       id="g3"
       inkscape:label="Black"
       style="fill:#000000;fill-opacity:1">
      <path
         style="display:inline;fill:#000000;fill-opacity:1;fill-rule:nonzero;stroke:#ffffff;stroke-width:1.88562;paint-order:stroke fill markers"
         d="m 93.161318,191.13843 c -2.250947,-1.03261 -67.748783,-38.89986 -69.119688,-39.96121 -0.68059,-0.52691 -1.597353,-1.66262 -2.03725,-2.5238 l -0.799814,-1.56579 0.09271,-41.08766 c 0.06912,-30.633837 0.197243,-41.192193 0.503576,-41.498487 0.312104,-0.312066 9.235762,4.68477 37.123105,20.787221 l 36.712238,21.198036 0.08981,42.65799 c 0.08519,40.4648 0.05792,42.65758 -0.53033,42.65022 -0.341076,-0.004 -1.256535,-0.29971 -2.034353,-0.65652 z"
         id="path2"
         transform="translate(103.9751,45.292098)" />
      <path
         style="display:inline;fill:#000000;stroke:#ffffff;stroke-width:1.33333;paint-order:stroke fill markers;fill-opacity:1"
         d="M 96.421875,105.71354 C 96.327343,105.61901 96.25,86.547917 96.25,63.333332 V 21.125 h 0.619941 c 0.340967,0 1.097131,0.190934 1.680364,0.424297 0.583233,0.233364 16.419885,9.289752 35.192555,20.125308 32.80484,18.934892 36.02331,20.890682 36.0031,21.878215 -0.003,0.157652 -72.270491,42.02084 -72.960717,42.26489 -0.105321,0.0372 -0.268837,-0.01 -0.363368,-0.10417 z"
         id="path3"
         transform="translate(103.9751,45.292098)" />
    </g>
    <g
       id="g738"
       transform="translate(-1108.5714,-122.85715)"
       style="display:inline;fill:#4a90d9;fill-opacity:1;fill-rule:nonzero">
      <g
         id="g9130"
         transform="matrix(0.65355666,0,0,0.65355666,1083.9554,58.477411)"
         style="display:inline;mix-blend-mode:normal;fill:#4a90d9;fill-opacity:1;fill-rule:nonzero">
        <path
           style="display:inline;fill:#f9f9f9;fill-opacity:1;fill-rule:nonzero;stroke:none;stroke-width:1px;stroke-linecap:butt;stroke-linejoin:miter;stroke-opacity:1"
           d="m 474.6092,255.1181 1e-5,151.18111 -130.92667,75.59055 v -151.1811 z"
           id="path9124"
           sodipodi:nodetypes="ccccc" />
        <path
           style="fill:#f9f9f9;fill-opacity:1;fill-rule:nonzero;stroke:none;stroke-width:1px;stroke-linecap:butt;stroke-linejoin:miter;stroke-opacity:1"
           d="M 343.68252,330.70866 V 179.52756 L 212.75586,255.1181 Z"
           id="path9126" />
        <path
           style="fill:#f9f9f9;fill-opacity:1;fill-rule:nonzero;stroke:none;stroke-width:82.9362;stroke-linecap:round;stroke-linejoin:round;stroke-dasharray:none;stroke-opacity:1"
           d="m 218.61226,233.26169 c -13.54108,7.81795 -21.85641,22.22052 -21.85641,37.85641 v 119.18111 c 0,15.63589 8.31533,30.03846 21.85641,37.85641 l 103.21385,59.59055 c 13.54108,7.81794 30.17174,7.81794 43.71282,0 l 103.21386,-59.59055 c 13.54108,-7.81795 21.85641,-22.22052 21.85641,-37.85641 V 271.1181 c 0,-15.63589 -8.31533,-30.03846 -21.85641,-37.85641 L 365.53893,173.67115 c -13.54108,-7.81794 -30.17174,-7.81794 -43.71282,0 z m 130.92667,-31.87772 103.21386,59.59054 c 3.60767,2.08289 5.85641,5.97781 5.85641,10.14359 v 119.18111 c 0,4.16578 -2.24874,8.0607 -5.85641,10.14359 l -103.21386,59.59055 c -3.60767,2.08289 -8.10515,2.08289 -11.71282,0 L 234.61226,400.4428 c -3.60767,-2.08289 -5.85641,-5.97781 -5.85641,-10.14359 V 271.1181 c 0,-4.16578 2.24874,-8.0607 5.85641,-10.14359 l 103.21385,-59.59054 c 3.60767,-2.08289 8.10515,-2.08289 11.71282,0 z"
           id="path9128" />
      </g>
    </g>
  </g>
</svg>
