<?xml version="1.0" encoding="UTF-8" standalone="no"?>
<!-- Wikimedia Commons, User:Sven. Hand edited. :)-->

<svg
   width="87.000397pt"
   height="72.93306pt"
   viewBox="0 0 87.000394 72.933061"
   version="1.1"
   id="svg21"
   sodipodi:docname="Freedesktop-logo.svg"
   inkscape:version="1.4.2 (ebf0e940d0, 2025-05-08)"
   xmlns:inkscape="http://www.inkscape.org/namespaces/inkscape"
   xmlns:sodipodi="http://sodipodi.sourceforge.net/DTD/sodipodi-0.dtd"
   xmlns="http://www.w3.org/2000/svg"
   xmlns:svg="http://www.w3.org/2000/svg">
  <defs
     id="defs21" />
  <sodipodi:namedview
     id="namedview21"
     pagecolor="#505050"
     bordercolor="#ffffff"
     borderopacity="1"
     inkscape:showpageshadow="0"
     inkscape:pageopacity="0"
     inkscape:pagecheckerboard="1"
     inkscape:deskcolor="#505050"
     inkscape:document-units="pt"
     inkscape:zoom="1.3588201"
     inkscape:cx="319.7627"
     inkscape:cy="15.82255"
     inkscape:window-width="1920"
     inkscape:window-height="1052"
     inkscape:window-x="0"
     inkscape:window-y="0"
     inkscape:window-maximized="1"
     inkscape:current-layer="svg21" />
  <g
     id="Layer_x0020_1"
     style="clip-rule:nonzero;fill-rule:nonzero;stroke:#000000;stroke-miterlimit:4"
     transform="translate(0.01402911,0.01402911)">
    <g
       style="stroke:none"
       id="g15" />
    <g
       style="fill:#ffffff;stroke:#3b80ae;stroke-width:2.4588"
       id="g21">
      <g
         id="g17">
        <path
           style="stroke:#bababa"
           d="M 85.277,40.796 C 87.335,48.68 82.61,56.738 74.726,58.795 L 27.143,71.21 C 19.259,73.267 11.2,68.543 9.143,60.658 L 1.695,32.108 C -0.362,24.224 4.362,16.166 12.246,14.109 L 59.83,1.695 c 7.884,-2.057 15.942,2.667 17.999,10.551 l 7.449,28.55 z"
           id="path16" />
        <path
           style="fill:#3b80ae;stroke:none"
           d="m 80.444,39.778 c 1.749,7.854 -1.816,13.621 -9.504,15.447 L 28.704,66.245 C 21.135,68.641 14.615,65.064 12.866,57.409 L 6.53,33.127 C 4.781,24.982 7.239,20.238 16.033,17.68 L 58.27,6.661 c 8.144,-1.826 14.089,1.363 15.838,8.835 z"
           id="path17" />
      </g>
      <path
         style="opacity:0.5;fill:none;stroke:#ffffff"
         d="M 45.542,51.793 24.104,31.102 62.204,26.709 Z"
         id="path18" />
      <path
         d="m 72.325,28.769 c 0.405,1.55 -0.525,3.136 -2.075,3.541 l -12.331,3.217 c -1.551,0.404 -3.137,-0.525 -3.542,-2.076 L 52.082,24.65 c -0.405,-1.551 0.524,-3.137 2.076,-3.542 l 12.33,-3.217 c 1.551,-0.405 3.137,0.525 3.542,2.076 l 2.295,8.801 z"
         id="path19" />
      <path
         d="m 36.51,33.625 c 0.496,1.9 -0.645,3.844 -2.545,4.34 l -15.112,3.943 c -1.901,0.496 -3.845,-0.644 -4.34,-2.544 L 11.699,28.578 c -0.496,-1.901 0.644,-3.844 2.544,-4.34 l 15.113,-3.942 c 1.901,-0.496 3.845,0.643 4.34,2.544 l 2.814,10.786 z"
         id="path20" />
      <path
         d="m 52.493,53.208 c 0.278,1.065 -0.36,2.154 -1.425,2.432 L 42.6,57.848 c -1.064,0.277 -2.153,-0.36 -2.431,-1.426 l -1.577,-6.043 c -0.277,-1.064 0.36,-2.153 1.425,-2.432 l 8.468,-2.209 c 1.064,-0.277 2.154,0.361 2.431,1.426 l 1.577,6.043 z"
         id="path21" />
    </g>
  </g>
</svg>
