<?xml version="1.0" encoding="UTF-8" ?>
<!DOCTYPE svg PUBLIC "-//W3C//DTD SVG 1.1//EN" "http://www.w3.org/Graphics/SVG/1.1/DTD/svg11.dtd">
<svg width="128pt" height="128pt" viewBox="0 0 128 128" version="1.1" xmlns="http://www.w3.org/2000/svg">
<g id="#531453ff">
<path fill="#531453" opacity="1.00" d=" M 21.34 8.49 C 23.18 8.09 25.08 8.02 26.96 7.99 C 50.31 8.00 73.65 8.01 96.99 7.99 C 101.46 8.02 106.20 7.65 110.30 9.77 C 116.39 12.63 120.25 19.31 120.00 25.99 C 119.96 51.67 120.08 77.36 119.94 103.04 C 120.03 112.03 112.05 120.02 103.06 119.94 C 77.37 120.08 51.68 119.96 25.99 120.00 C 19.30 120.26 12.64 116.37 9.77 110.29 C 8.12 107.11 7.97 103.47 7.98 99.96 C 8.06 74.94 7.91 49.92 8.06 24.90 C 8.05 17.22 13.85 10.09 21.34 8.49 M 17.21 17.32 L 16.98 17.27 C 14.70 20.10 13.88 23.67 13.96 27.25 C 14.01 30.10 14.04 32.95 14.07 35.80 C 14.05 37.81 14.05 39.83 14.04 41.84 C 14.05 43.87 14.08 45.89 14.11 47.91 C 13.73 52.86 13.89 57.82 14.30 62.75 C 26.88 63.05 39.46 62.86 52.04 62.82 C 53.94 62.86 55.78 63.36 57.62 63.80 C 56.68 65.37 55.74 66.93 54.79 68.49 C 54.10 69.62 53.41 70.76 52.72 71.89 C 48.64 70.33 44.22 71.06 39.97 70.94 C 31.39 71.12 22.80 70.57 14.23 71.22 C 13.76 80.76 13.71 90.34 14.19 99.88 C 20.32 100.26 26.48 100.37 32.60 99.84 L 33.27 100.98 C 33.64 101.57 34.01 102.17 34.38 102.77 C 37.27 102.75 40.17 102.71 43.07 102.88 C 45.08 103.08 45.88 101.10 46.74 99.68 C 46.96 100.21 47.38 101.27 47.59 101.80 C 50.25 103.81 53.97 102.27 57.07 102.87 C 59.79 102.92 60.49 99.74 61.85 97.95 C 61.97 98.39 62.19 99.28 62.31 99.72 C 66.65 100.53 71.09 100.05 75.48 100.05 C 74.76 102.44 76.98 102.32 78.63 102.17 C 78.63 101.65 78.63 100.60 78.63 100.08 C 81.97 100.31 85.33 100.16 88.63 99.59 C 90.93 103.90 98.89 103.49 100.54 98.73 L 100.63 99.65 C 104.98 100.44 109.41 100.32 113.79 99.89 C 114.08 90.64 114.28 81.37 113.72 72.13 C 101.72 71.48 89.67 72.61 77.68 71.69 C 79.45 68.73 81.25 65.79 83.01 62.83 C 93.24 62.86 103.48 63.05 113.71 62.73 C 113.95 57.41 114.42 52.07 113.76 46.77 C 113.92 42.98 114.10 39.19 114.02 35.40 C 114.01 33.18 113.99 30.96 113.96 28.75 C 114.18 24.69 113.71 20.49 111.01 17.27 L 110.80 17.32 C 108.39 15.15 105.29 13.78 102.01 13.99 C 76.69 14.00 51.37 14.01 26.05 13.99 C 22.74 13.76 19.62 15.13 17.21 17.32 Z" />
</g>
<g id="#b364b3ff">
<path fill="#b364b3" opacity="1.00" d=" M 17.21 17.32 C 19.62 15.13 22.74 13.76 26.05 13.99 C 51.37 14.01 76.69 14.00 102.01 13.99 C 105.29 13.78 108.39 15.15 110.80 17.32 C 105.37 19.00 99.66 18.35 94.08 18.38 C 74.37 18.30 54.66 18.42 34.95 18.37 C 29.03 18.29 22.98 19.05 17.21 17.32 Z" />
</g>
<g id="#a457a4ff">
<path fill="#a457a4" opacity="1.00" d=" M 16.98 17.27 L 17.21 17.32 C 22.98 19.05 29.03 18.29 34.95 18.37 C 54.66 18.42 74.37 18.30 94.08 18.38 C 99.66 18.35 105.37 19.00 110.80 17.32 L 111.01 17.27 C 113.71 20.49 114.18 24.69 113.96 28.75 C 110.69 28.62 107.42 28.47 104.16 28.24 C 103.85 27.89 103.25 27.19 102.94 26.84 C 99.93 26.84 96.93 26.84 93.92 26.83 C 92.38 29.30 90.88 31.79 89.41 34.30 C 89.37 34.37 89.29 34.50 89.26 34.56 C 88.48 34.54 86.92 34.50 86.14 34.48 C 87.66 32.01 89.03 29.45 90.31 26.85 L 88.99 26.87 C 85.91 26.85 82.82 26.79 79.74 27.02 C 71.83 27.80 63.91 26.68 56.00 27.17 C 47.65 26.81 39.30 27.72 30.96 27.08 C 25.29 26.72 19.63 27.48 13.96 27.25 C 13.88 23.67 14.70 20.10 16.98 17.27 Z" />
</g>
<g id="#8d438dff">
<path fill="#8d438d" opacity="1.00" d=" M 13.96 27.25 C 19.63 27.48 25.29 26.72 30.96 27.08 C 39.30 27.72 47.65 26.81 56.00 27.17 C 63.91 26.68 71.83 27.80 79.74 27.02 C 78.33 29.48 76.89 31.91 75.41 34.33 C 75.05 34.92 74.68 35.52 74.32 36.12 C 70.22 35.76 66.11 35.58 61.99 35.65 C 46.02 35.77 30.04 35.52 14.07 35.80 C 14.04 32.95 14.01 30.10 13.96 27.25 Z" />
</g>
<g id="#ff1800ff">
<path fill="#ff1800" opacity="1.00" d=" M 79.74 27.02 C 82.82 26.79 85.91 26.85 88.99 26.87 C 87.24 29.42 85.71 32.10 84.11 34.74 C 81.21 34.61 78.31 34.47 75.41 34.33 C 76.89 31.91 78.33 29.48 79.74 27.02 Z" />
</g>
<g id="#8d897dff">
<path fill="#8d897d" opacity="1.00" d=" M 88.99 26.87 L 90.31 26.85 C 89.03 29.45 87.66 32.01 86.14 34.48 C 83.43 38.94 80.56 43.30 78.03 47.86 C 69.57 62.34 60.53 76.49 52.06 90.97 C 52.47 92.07 52.86 93.17 53.23 94.28 L 53.13 95.49 L 52.88 95.21 C 52.22 94.68 50.90 91.95 50.14 93.87 C 48.89 95.73 47.85 97.73 46.74 99.68 C 45.88 101.10 45.08 103.08 43.07 102.88 C 44.27 100.81 45.50 98.76 46.74 96.71 C 47.98 94.68 49.22 92.64 50.44 90.60 C 51.25 89.25 52.05 87.90 52.85 86.55 C 54.50 83.81 56.18 81.09 57.83 78.36 C 58.65 76.98 59.47 75.61 60.29 74.23 C 61.30 72.56 62.31 70.89 63.32 69.23 C 64.83 66.72 66.34 64.22 67.85 61.72 C 69.92 58.34 71.93 54.92 73.99 51.54 C 75.02 49.82 76.06 48.11 77.09 46.39 C 77.93 44.99 78.77 43.58 79.62 42.17 C 81.12 39.70 82.63 37.23 84.11 34.74 C 85.71 32.10 87.24 29.42 88.99 26.87 Z" />
</g>
<g id="#ff1f00ff">
<path fill="#ff1f00" opacity="1.00" d=" M 93.92 26.83 C 96.93 26.84 99.93 26.84 102.94 26.84 C 101.19 29.67 99.46 32.51 97.77 35.36 C 94.95 35.26 92.16 34.91 89.41 34.30 C 90.88 31.79 92.38 29.30 93.92 26.83 Z" />
</g>
<g id="#8d867cff">
<path fill="#8d867c" opacity="1.00" d=" M 102.94 26.84 C 103.25 27.19 103.85 27.89 104.16 28.24 C 102.57 30.52 101.07 32.86 99.69 35.28 C 97.46 39.10 95.01 42.79 92.79 46.62 C 89.59 52.06 86.23 57.40 83.01 62.83 C 81.25 65.79 79.45 68.73 77.68 71.69 C 72.40 80.44 67.06 89.16 61.85 97.95 C 60.49 99.74 59.79 102.92 57.07 102.87 C 58.24 100.87 59.45 98.89 60.65 96.90 C 61.90 94.83 63.14 92.76 64.39 90.70 C 65.62 88.65 66.85 86.60 68.09 84.56 C 69.15 82.81 70.20 81.05 71.25 79.30 C 72.25 77.65 73.25 76.00 74.24 74.34 C 75.27 72.65 76.29 70.95 77.31 69.25 C 78.81 66.77 80.31 64.29 81.81 61.81 C 83.89 58.41 85.90 54.98 87.97 51.57 C 89.02 49.84 90.07 48.11 91.11 46.37 C 91.94 44.98 92.77 43.59 93.60 42.20 C 94.98 39.91 96.39 37.65 97.77 35.36 C 99.46 32.51 101.19 29.67 102.94 26.84 Z" />
</g>
<g id="#8b418bff">
<path fill="#8b418b" opacity="1.00" d=" M 99.69 35.28 C 101.07 32.86 102.57 30.52 104.16 28.24 C 107.42 28.47 110.69 28.62 113.96 28.75 C 113.99 30.96 114.01 33.18 114.02 35.40 C 109.24 35.60 104.46 35.59 99.69 35.28 Z" />
</g>
<g id="#ff4e00ff">
<path fill="#ff4e00" opacity="1.00" d=" M 74.32 36.12 C 74.68 35.52 75.05 34.92 75.41 34.33 C 78.31 34.47 81.21 34.61 84.11 34.74 C 82.63 37.23 81.12 39.70 79.62 42.17 C 76.76 41.89 73.90 41.69 71.04 41.55 C 72.13 39.74 73.22 37.93 74.32 36.12 Z" />
<path fill="#ff4e00" opacity="1.00" d=" M 89.26 34.56 C 89.29 34.50 89.37 34.37 89.41 34.30 C 92.16 34.91 94.95 35.26 97.77 35.36 C 96.39 37.65 94.98 39.91 93.60 42.20 C 90.76 41.92 87.91 41.72 85.05 41.61 C 86.46 39.26 87.87 36.92 89.26 34.56 Z" />
</g>
<g id="#7c3571ff">
<path fill="#7c3571" opacity="1.00" d=" M 78.03 47.86 C 80.56 43.30 83.43 38.94 86.14 34.48 C 86.92 34.50 88.48 34.54 89.26 34.56 C 87.87 36.92 86.46 39.26 85.05 41.61 C 84.22 43.01 83.38 44.41 82.52 45.80 C 82.28 46.19 81.80 46.98 81.56 47.37 C 80.38 47.53 79.21 47.70 78.03 47.86 Z" />
</g>
<g id="#742d74ff">
<path fill="#742d74" opacity="1.00" d=" M 99.69 35.28 C 104.46 35.59 109.24 35.60 114.02 35.40 C 114.10 39.19 113.92 42.98 113.76 46.77 C 106.77 46.59 99.78 46.60 92.79 46.62 C 95.01 42.79 97.46 39.10 99.69 35.28 Z" />
</g>
<g id="#7c347cff">
<path fill="#7c347c" opacity="1.00" d=" M 14.07 35.80 C 30.04 35.52 46.02 35.77 61.99 35.65 C 66.11 35.58 70.22 35.76 74.32 36.12 C 73.22 37.93 72.13 39.74 71.04 41.55 L 70.60 42.28 C 62.77 41.39 54.88 41.87 47.02 41.77 C 36.02 41.82 25.03 41.70 14.04 41.84 C 14.05 39.83 14.05 37.81 14.07 35.80 Z" />
</g>
<g id="#6d266dff">
<path fill="#6d266d" opacity="1.00" d=" M 14.04 41.84 C 25.03 41.70 36.02 41.82 47.02 41.77 C 54.88 41.87 62.77 41.39 70.60 42.28 C 69.91 43.45 69.21 44.62 68.51 45.78 C 67.91 46.76 67.32 47.74 66.73 48.72 C 63.21 48.08 59.64 47.64 56.06 47.73 C 42.07 47.96 28.09 47.64 14.11 47.91 C 14.08 45.89 14.05 43.87 14.04 41.84 Z" />
</g>
<g id="#ff7600ff">
<path fill="#ff7600" opacity="1.00" d=" M 70.60 42.28 L 71.04 41.55 C 73.90 41.69 76.76 41.89 79.62 42.17 C 78.77 43.58 77.93 44.99 77.09 46.39 C 74.23 46.23 71.36 46.03 68.51 45.78 C 69.21 44.62 69.91 43.45 70.60 42.28 Z" />
<path fill="#ff7600" opacity="1.00" d=" M 85.05 41.61 C 87.91 41.72 90.76 41.92 93.60 42.20 C 92.77 43.59 91.94 44.98 91.11 46.37 C 88.24 46.22 85.38 46.03 82.52 45.80 C 83.38 44.41 84.22 43.01 85.05 41.61 Z" />
</g>
<g id="#ff9200ff">
<path fill="#ff9200" opacity="1.00" d=" M 66.73 48.72 C 67.32 47.74 67.91 46.76 68.51 45.78 C 71.36 46.03 74.23 46.23 77.09 46.39 C 76.06 48.11 75.02 49.82 73.99 51.54 C 71.06 51.56 68.13 51.47 65.22 51.28 C 65.60 50.64 66.35 49.36 66.73 48.72 Z" />
<path fill="#ff9200" opacity="1.00" d=" M 81.56 47.37 C 81.80 46.98 82.28 46.19 82.52 45.80 C 85.38 46.03 88.24 46.22 91.11 46.37 C 90.07 48.11 89.02 49.84 87.97 51.57 C 85.05 51.57 82.14 51.44 79.23 51.20 C 80.00 49.92 80.78 48.64 81.56 47.37 Z" />
</g>
<g id="#4b144bff">
<path fill="#4b144b" opacity="1.00" d=" M 78.03 47.86 C 79.21 47.70 80.38 47.53 81.56 47.37 C 80.78 48.64 80.00 49.92 79.23 51.20 C 77.17 54.64 75.04 58.05 72.98 61.50 C 71.59 63.85 70.18 66.20 68.77 68.54 C 67.74 70.23 66.72 71.93 65.70 73.62 C 64.70 75.27 63.71 76.92 62.72 78.56 C 61.63 80.38 60.54 82.20 59.44 84.02 C 58.35 85.83 57.26 87.64 56.16 89.44 C 55.18 91.05 54.15 92.64 53.23 94.28 C 52.86 93.17 52.47 92.07 52.06 90.97 C 60.53 76.49 69.57 62.34 78.03 47.86 Z" />
</g>
<g id="#5c1b5cff">
<path fill="#5c1b5c" opacity="1.00" d=" M 83.01 62.83 C 86.23 57.40 89.59 52.06 92.79 46.62 C 99.78 46.60 106.77 46.59 113.76 46.77 C 114.42 52.07 113.95 57.41 113.71 62.73 C 103.48 63.05 93.24 62.86 83.01 62.83 Z" />
<path fill="#5c1b5c" opacity="1.00" d=" M 14.11 47.91 C 28.09 47.64 42.07 47.96 56.06 47.73 C 59.64 47.64 63.21 48.08 66.73 48.72 C 66.35 49.36 65.60 50.64 65.22 51.28 C 63.16 54.70 61.03 58.08 58.99 61.51 C 58.53 62.27 58.07 63.04 57.62 63.80 C 55.78 63.36 53.94 62.86 52.04 62.82 C 39.46 62.86 26.88 63.05 14.30 62.75 C 13.89 57.82 13.73 52.86 14.11 47.91 Z" />
</g>
<g id="#ffc800ff">
<path fill="#ffc800" opacity="1.00" d=" M 58.99 61.51 C 61.03 58.08 63.16 54.70 65.22 51.28 C 68.13 51.47 71.06 51.56 73.99 51.54 C 71.93 54.92 69.92 58.34 67.85 61.72 C 64.90 61.54 61.94 61.47 58.99 61.51 Z" />
<path fill="#ffc800" opacity="1.00" d=" M 72.98 61.50 C 75.04 58.05 77.17 54.64 79.23 51.20 C 82.14 51.44 85.05 51.57 87.97 51.57 C 85.90 54.98 83.89 58.41 81.81 61.81 C 78.87 61.57 75.92 61.46 72.98 61.50 Z" />
</g>
<g id="#fbff00ff">
<path fill="#fbff00" opacity="1.00" d=" M 58.99 61.51 C 61.94 61.47 64.90 61.54 67.85 61.72 C 66.34 64.22 64.83 66.72 63.32 69.23 C 60.48 68.96 57.63 68.71 54.79 68.49 C 55.74 66.93 56.68 65.37 57.62 63.80 C 58.07 63.04 58.53 62.27 58.99 61.51 Z" />
<path fill="#fbff00" opacity="1.00" d=" M 72.98 61.50 C 75.92 61.46 78.87 61.57 81.81 61.81 C 80.31 64.29 78.81 66.77 77.31 69.25 C 74.47 68.97 71.62 68.74 68.77 68.54 C 70.18 66.20 71.59 63.85 72.98 61.50 Z" />
</g>
<g id="#dcff00ff">
<path fill="#dcff00" opacity="1.00" d=" M 52.72 71.89 C 53.41 70.76 54.10 69.62 54.79 68.49 C 57.63 68.71 60.48 68.96 63.32 69.23 C 62.31 70.89 61.30 72.56 60.29 74.23 C 57.44 73.99 54.59 73.76 51.73 73.55 C 51.98 73.14 52.47 72.31 52.72 71.89 Z" />
<path fill="#dcff00" opacity="1.00" d=" M 65.70 73.62 C 66.72 71.93 67.74 70.23 68.77 68.54 C 71.62 68.74 74.47 68.97 77.31 69.25 C 76.29 70.95 75.27 72.65 74.24 74.34 C 71.39 74.10 68.55 73.86 65.70 73.62 Z" />
</g>
<g id="#4b134bff">
<path fill="#4b134b" opacity="1.00" d=" M 14.23 71.22 C 22.80 70.57 31.39 71.12 39.97 70.94 C 44.22 71.06 48.64 70.33 52.72 71.89 C 52.47 72.31 51.98 73.14 51.73 73.55 C 50.88 74.98 50.04 76.43 49.17 77.85 C 48.12 79.54 46.99 81.17 45.96 82.86 C 45.87 83.01 45.70 83.31 45.61 83.46 C 44.91 82.19 44.22 80.91 43.43 79.69 C 42.87 78.91 42.29 78.15 41.70 77.40 C 38.81 77.42 35.91 77.43 33.02 77.47 C 33.69 78.57 34.37 79.68 35.04 80.79 C 35.78 82.02 36.52 83.26 37.27 84.49 C 37.58 84.99 38.19 85.99 38.50 86.49 C 39.40 88.00 40.29 89.51 41.19 91.03 C 40.57 92.01 39.97 92.99 39.38 93.99 C 36.36 88.33 32.88 82.93 29.46 77.51 C 29.00 77.48 28.06 77.43 27.60 77.40 C 24.74 77.35 21.88 77.43 19.02 77.48 C 19.85 78.85 20.68 80.23 21.51 81.60 C 22.27 82.84 23.03 84.08 23.78 85.33 C 24.58 86.65 25.38 87.97 26.19 89.28 C 27.11 90.78 28.03 92.28 28.95 93.79 C 29.66 94.95 30.37 96.12 31.08 97.29 C 31.59 98.14 32.09 98.99 32.60 99.84 C 26.48 100.37 20.32 100.26 14.19 99.88 C 13.71 90.34 13.76 80.76 14.23 71.22 Z" />
</g>
<g id="#481248ff">
<path fill="#481248" opacity="1.00" d=" M 61.85 97.95 C 67.06 89.16 72.40 80.44 77.68 71.69 C 89.67 72.61 101.72 71.48 113.72 72.13 C 114.28 81.37 114.08 90.64 113.79 99.89 C 109.41 100.32 104.98 100.44 100.63 99.65 L 100.54 98.73 C 100.33 97.14 100.35 95.19 98.85 94.19 C 96.29 92.83 93.43 92.18 90.80 90.96 C 91.89 89.99 93.25 88.55 94.89 89.26 C 96.58 90.37 98.23 91.63 100.40 91.31 C 99.57 86.44 93.32 85.10 89.77 87.87 C 87.49 89.78 88.35 93.88 91.24 94.64 C 93.29 95.82 96.57 95.46 97.53 97.99 C 95.90 101.13 91.62 99.87 90.51 96.98 C 89.81 97.04 88.41 97.16 87.71 97.22 C 87.94 97.81 88.40 99.00 88.63 99.59 C 85.33 100.16 81.97 100.31 78.63 100.08 C 78.63 98.61 78.63 97.15 78.63 95.68 C 80.78 95.67 82.93 95.67 85.07 95.67 C 85.08 95.02 85.08 93.74 85.08 93.09 C 82.92 93.07 80.76 93.04 78.60 93.01 C 78.61 91.81 78.62 90.61 78.63 89.41 C 81.12 89.40 83.61 89.40 86.10 89.39 C 86.09 88.73 86.09 87.41 86.09 86.75 C 82.57 86.74 79.04 86.74 75.52 86.74 C 75.51 91.18 75.46 95.61 75.48 100.05 C 71.09 100.05 66.65 100.53 62.31 99.72 C 62.19 99.28 61.97 98.39 61.85 97.95 Z" />
</g>
<g id="#c7ff00ff">
<path fill="#c7ff00" opacity="1.00" d=" M 49.17 77.85 C 50.04 76.43 50.88 74.98 51.73 73.55 C 54.59 73.76 57.44 73.99 60.29 74.23 C 59.47 75.61 58.65 76.98 57.83 78.36 C 54.94 78.32 52.05 78.14 49.17 77.85 Z" />
</g>
<g id="#c2ff00ff">
<path fill="#c2ff00" opacity="1.00" d=" M 62.72 78.56 C 63.71 76.92 64.70 75.27 65.70 73.62 C 68.55 73.86 71.39 74.10 74.24 74.34 C 73.25 76.00 72.25 77.65 71.25 79.30 C 68.41 79.04 65.57 78.80 62.72 78.56 Z" />
</g>
<g id="#0014ffff">
<path fill="#0014ff" opacity="1.00" d=" M 19.02 77.48 C 21.88 77.43 24.74 77.35 27.60 77.40 C 28.22 78.40 28.84 79.40 29.46 80.41 C 26.83 80.89 24.17 81.28 21.51 81.60 C 20.68 80.23 19.85 78.85 19.02 77.48 Z" />
<path fill="#0014ff" opacity="1.00" d=" M 33.02 77.47 C 35.91 77.43 38.81 77.42 41.70 77.40 C 42.29 78.15 42.87 78.91 43.43 79.69 C 40.68 80.36 37.86 80.66 35.04 80.79 C 34.37 79.68 33.69 78.57 33.02 77.47 Z" />
</g>
<g id="#77838fff">
<path fill="#77838f" opacity="1.00" d=" M 27.60 77.40 C 28.06 77.43 29.00 77.48 29.46 77.51 C 32.88 82.93 36.36 88.33 39.38 93.99 L 38.64 95.28 C 38.35 94.82 37.78 93.92 37.50 93.47 C 36.44 91.77 35.40 90.06 34.36 88.35 C 33.59 87.10 32.82 85.85 32.05 84.61 C 31.19 83.20 30.33 81.80 29.46 80.41 C 28.84 79.40 28.22 78.40 27.60 77.40 Z" />
</g>
<g id="#a3ff00ff">
<path fill="#a3ff00" opacity="1.00" d=" M 45.96 82.86 C 46.99 81.17 48.12 79.54 49.17 77.85 C 52.05 78.14 54.94 78.32 57.83 78.36 C 56.18 81.09 54.50 83.81 52.85 86.55 C 50.14 85.97 47.41 85.53 44.66 85.21 C 44.90 84.77 45.37 83.90 45.61 83.46 C 45.70 83.31 45.87 83.01 45.96 82.86 Z" />
</g>
<g id="#a8ff00ff">
<path fill="#a8ff00" opacity="1.00" d=" M 59.44 84.02 C 60.54 82.20 61.63 80.38 62.72 78.56 C 65.57 78.80 68.41 79.04 71.25 79.30 C 70.20 81.05 69.15 82.81 68.09 84.56 C 65.20 84.47 62.32 84.29 59.44 84.02 Z" />
</g>
<g id="#007affff">
<path fill="#007aff" opacity="1.00" d=" M 29.46 80.41 C 30.33 81.80 31.19 83.20 32.05 84.61 C 29.29 84.81 26.54 85.06 23.78 85.33 C 23.03 84.08 22.27 82.84 21.51 81.60 C 24.17 81.28 26.83 80.89 29.46 80.41 Z" />
</g>
<g id="#0065ffff">
<path fill="#0065ff" opacity="1.00" d=" M 43.43 79.69 C 44.22 80.91 44.91 82.19 45.61 83.46 C 42.82 83.71 40.03 84.03 37.27 84.49 C 36.52 83.26 35.78 82.02 35.04 80.79 C 37.86 80.66 40.68 80.36 43.43 79.69 Z" />
</g>
<g id="#059bf5ff">
<path fill="#059bf5" opacity="1.00" d=" M 37.27 84.49 C 40.03 84.03 42.82 83.71 45.61 83.46 C 45.37 83.90 44.90 84.77 44.66 85.21 L 44.12 86.19 C 42.24 86.32 40.37 86.44 38.50 86.49 C 38.19 85.99 37.58 84.99 37.27 84.49 Z" />
</g>
<g id="#7cff00ff">
<path fill="#7cff00" opacity="1.00" d=" M 56.16 89.44 C 57.26 87.64 58.35 85.83 59.44 84.02 C 62.32 84.29 65.20 84.47 68.09 84.56 C 66.85 86.60 65.62 88.65 64.39 90.70 C 61.62 90.47 58.87 90.07 56.16 89.44 Z" />
<path fill="#7cff00" opacity="1.00" d=" M 44.12 86.19 L 44.66 85.21 C 47.41 85.53 50.14 85.97 52.85 86.55 C 52.05 87.90 51.25 89.25 50.44 90.60 C 47.72 90.20 45.00 89.76 42.30 89.26 C 42.92 88.25 43.53 87.22 44.12 86.19 Z" />
</g>
<g id="#00b6ffff">
<path fill="#00b6ff" opacity="1.00" d=" M 23.78 85.33 C 26.54 85.06 29.29 84.81 32.05 84.61 C 32.82 85.85 33.59 87.10 34.36 88.35 C 31.61 88.33 28.86 88.60 26.19 89.28 C 25.38 87.97 24.58 86.65 23.78 85.33 Z" />
</g>
<g id="#06c7f1ff">
<path fill="#06c7f1" opacity="1.00" d=" M 38.50 86.49 C 40.37 86.44 42.24 86.32 44.12 86.19 C 43.53 87.22 42.92 88.25 42.30 89.26 C 42.02 89.70 41.47 90.59 41.19 91.03 C 40.29 89.51 39.40 88.00 38.50 86.49 Z" />
</g>
<g id="#d2c4d2ff">
<path fill="#d2c4d2" opacity="1.00" d=" M 75.48 100.05 C 75.46 95.61 75.51 91.18 75.52 86.74 C 79.04 86.74 82.57 86.74 86.09 86.75 C 86.09 87.41 86.09 88.73 86.10 89.39 C 83.61 89.40 81.12 89.40 78.63 89.41 C 78.62 90.61 78.61 91.81 78.60 93.01 C 80.76 93.04 82.92 93.07 85.08 93.09 C 85.08 93.74 85.08 95.02 85.07 95.67 C 82.93 95.67 80.78 95.67 78.63 95.68 C 78.63 97.15 78.63 98.61 78.63 100.08 C 78.63 100.60 78.63 101.65 78.63 102.17 C 76.98 102.32 74.76 102.44 75.48 100.05 Z" />
<path fill="#d2c4d2" opacity="1.00" d=" M 89.77 87.87 C 93.32 85.10 99.57 86.44 100.40 91.31 C 98.23 91.63 96.58 90.37 94.89 89.26 C 93.25 88.55 91.89 89.99 90.80 90.96 C 93.43 92.18 96.29 92.83 98.85 94.19 C 100.35 95.19 100.33 97.14 100.54 98.73 C 98.89 103.49 90.93 103.90 88.63 99.59 C 88.40 99.00 87.94 97.81 87.71 97.22 C 88.41 97.16 89.81 97.04 90.51 96.98 C 91.62 99.87 95.90 101.13 97.53 97.99 C 96.57 95.46 93.29 95.82 91.24 94.64 C 88.35 93.88 87.49 89.78 89.77 87.87 Z" />
</g>
<g id="#00fff1ff">
<path fill="#00fff1" opacity="1.00" d=" M 26.19 89.28 C 28.86 88.60 31.61 88.33 34.36 88.35 C 35.40 90.06 36.44 91.77 37.50 93.47 C 34.65 93.57 31.80 93.67 28.95 93.79 C 28.03 92.28 27.11 90.78 26.19 89.28 Z" />
</g>
<g id="#53ff00ff">
<path fill="#53ff00" opacity="1.00" d=" M 41.19 91.03 C 41.47 90.59 42.02 89.70 42.30 89.26 C 45.00 89.76 47.72 90.20 50.44 90.60 C 49.22 92.64 47.98 94.68 46.74 96.71 C 44.02 96.17 41.28 95.77 38.52 95.48 L 38.64 95.28 L 39.38 93.99 C 39.97 92.99 40.57 92.01 41.19 91.03 Z" />
</g>
<g id="#4aff00ff">
<path fill="#4aff00" opacity="1.00" d=" M 53.23 94.28 C 54.15 92.64 55.18 91.05 56.16 89.44 C 58.87 90.07 61.62 90.47 64.39 90.70 C 63.14 92.76 61.90 94.83 60.65 96.90 C 58.13 96.54 55.58 96.21 53.13 95.49 L 53.23 94.28 Z" />
</g>
<g id="#0cf58dff">
<path fill="#0cf58d" opacity="1.00" d=" M 50.14 93.87 C 50.90 91.95 52.22 94.68 52.88 95.21 C 51.39 97.62 49.52 99.74 47.59 101.80 C 47.38 101.27 46.96 100.21 46.74 99.68 C 47.85 97.73 48.89 95.73 50.14 93.87 Z" />
</g>
<g id="#00ffcbff">
<path fill="#00ffcb" opacity="1.00" d=" M 28.95 93.79 C 31.80 93.67 34.65 93.57 37.50 93.47 C 37.78 93.92 38.35 94.82 38.64 95.28 L 38.52 95.48 C 38.21 95.99 37.60 97.01 37.29 97.51 C 35.22 97.44 33.15 97.36 31.08 97.29 C 30.37 96.12 29.66 94.95 28.95 93.79 Z" />
</g>
<g id="#18ff00ff">
<path fill="#18ff00" opacity="1.00" d=" M 52.88 95.21 L 53.13 95.49 C 55.58 96.21 58.13 96.54 60.65 96.90 C 59.45 98.89 58.24 100.87 57.07 102.87 C 53.97 102.27 50.25 103.81 47.59 101.80 C 49.52 99.74 51.39 97.62 52.88 95.21 Z" />
<path fill="#18ff00" opacity="1.00" d=" M 37.29 97.51 C 37.60 97.01 38.21 95.99 38.52 95.48 C 41.28 95.77 44.02 96.17 46.74 96.71 C 45.50 98.76 44.27 100.81 43.07 102.88 C 40.17 102.71 37.27 102.75 34.38 102.77 C 34.01 102.17 33.64 101.57 33.27 100.98 C 35.00 100.32 36.39 99.13 37.29 97.51 Z" />
</g>
<g id="#04f481ff">
<path fill="#04f481" opacity="1.00" d=" M 31.08 97.29 C 33.15 97.36 35.22 97.44 37.29 97.51 C 36.39 99.13 35.00 100.32 33.27 100.98 L 32.60 99.84 C 32.09 98.99 31.59 98.14 31.08 97.29 Z" />
</g>
</svg>
