<?xml version="1.0" encoding="UTF-8" ?>
<!DOCTYPE svg PUBLIC "-//W3C//DTD SVG 1.1//EN" "http://www.w3.org/Graphics/SVG/1.1/DTD/svg11.dtd">
<svg width="256pt" height="256pt" viewBox="0 0 256 256" version="1.1" xmlns="http://www.w3.org/2000/svg">
<g id="#000000ff">
<path fill="#000000" opacity="1.00" d=" M 0.00 0.00 L 256.00 0.00 L 256.00 256.00 L 0.00 256.00 L 0.00 0.00 M 8.27 8.24 C 8.35 88.27 8.12 168.30 8.38 248.33 C 15.37 248.29 22.35 248.39 29.33 248.28 C 27.87 246.17 26.17 244.25 24.40 242.40 C 20.02 236.00 17.93 228.34 17.42 220.66 C 17.50 209.12 21.97 197.08 31.88 190.48 L 32.22 190.53 C 35.54 188.22 39.37 186.83 43.35 186.20 C 50.12 184.74 57.03 185.88 63.61 187.69 L 63.75 188.16 C 65.01 188.65 66.24 189.26 67.56 189.57 C 69.76 191.62 71.90 193.72 74.06 195.81 C 76.01 199.69 78.54 203.63 78.43 208.15 C 77.59 210.48 75.03 210.97 72.96 211.66 C 71.36 211.36 69.04 210.72 68.26 212.68 C 71.10 213.10 73.99 212.08 76.80 212.72 C 78.73 213.64 79.06 215.89 79.72 217.69 C 81.70 213.35 85.69 210.49 89.80 208.34 C 92.07 207.60 94.35 206.90 96.67 206.35 C 99.28 206.31 101.89 206.25 104.50 206.17 C 108.44 206.61 112.45 207.26 116.01 209.11 C 119.47 210.78 122.00 213.76 124.81 216.30 C 124.87 213.83 123.59 211.85 122.44 209.81 C 122.24 207.99 122.57 206.16 122.72 204.35 C 120.76 203.65 118.28 203.31 117.42 201.10 C 117.45 197.75 118.77 194.61 119.62 191.42 C 114.60 192.22 109.52 192.51 104.43 192.37 C 99.30 192.69 94.22 191.93 89.14 191.35 C 86.92 190.59 84.61 190.09 82.28 189.80 C 79.48 188.32 76.50 187.19 73.47 186.28 C 73.32 185.88 73.02 185.07 72.87 184.67 L 72.67 185.96 C 67.00 182.72 62.21 178.33 57.42 173.96 L 57.11 173.13 C 53.93 169.25 51.27 164.92 49.40 160.26 C 46.73 156.37 44.81 152.08 43.02 147.74 C 42.48 145.16 41.50 142.70 40.76 140.17 C 40.98 136.04 40.19 131.95 40.24 127.83 C 40.15 118.48 41.47 109.11 44.29 100.19 C 48.04 88.60 52.53 76.96 59.96 67.18 C 60.79 66.18 61.63 65.19 62.38 64.12 C 66.18 59.82 69.73 55.28 73.89 51.32 C 74.19 50.97 74.79 50.28 75.09 49.94 C 78.44 47.72 81.23 44.80 84.42 42.38 C 87.31 40.17 90.39 38.21 93.19 35.88 C 96.74 34.35 99.93 32.12 103.36 30.34 C 114.99 23.77 128.11 20.57 141.15 18.20 C 148.59 16.88 156.17 17.57 163.65 16.83 C 163.94 16.98 164.54 17.27 164.84 17.42 L 164.91 17.24 C 176.23 17.93 186.99 22.30 196.53 28.26 L 196.52 28.89 C 199.52 31.07 202.08 33.76 204.49 36.56 L 204.92 36.56 C 207.14 40.14 209.56 43.62 211.27 47.50 C 215.00 54.98 219.74 62.53 219.78 71.18 C 219.30 72.27 218.11 72.81 217.28 73.60 C 211.78 75.18 206.41 77.19 201.05 79.18 C 200.12 79.42 198.26 79.91 197.32 80.15 C 196.91 80.11 196.10 80.01 195.69 79.97 C 195.90 80.36 196.33 81.13 196.55 81.52 C 202.72 82.01 209.02 82.30 215.18 81.48 C 215.56 82.09 216.30 83.32 216.68 83.93 C 216.36 85.99 215.94 88.02 215.47 90.05 C 217.06 90.20 218.65 90.36 220.25 90.52 C 220.91 92.29 221.33 94.14 220.89 96.02 C 219.63 98.79 218.82 101.74 218.29 104.72 C 215.37 112.55 213.32 120.68 210.85 128.66 C 209.59 131.99 208.36 135.37 207.56 138.85 C 205.61 144.72 203.71 150.62 202.15 156.61 C 201.23 158.34 200.54 160.18 200.08 162.09 C 197.79 171.16 194.15 179.81 191.76 188.86 C 190.07 194.85 188.02 200.74 186.52 206.79 C 189.97 206.69 193.41 206.37 196.82 205.78 C 201.92 206.09 207.15 206.24 212.00 207.99 C 215.55 209.23 218.18 212.01 220.77 214.61 C 222.58 213.15 224.38 211.68 226.14 210.14 C 226.36 209.91 226.82 209.43 227.05 209.20 C 232.00 205.50 236.62 201.37 241.13 197.15 C 241.76 198.69 241.77 200.36 241.75 202.00 C 241.63 211.36 241.77 220.71 241.67 230.07 C 236.79 234.50 231.37 238.24 226.21 242.32 C 225.37 242.32 224.53 242.31 223.69 242.32 C 222.48 244.34 221.18 246.30 219.91 248.30 C 229.41 248.34 238.91 248.34 248.40 248.30 C 248.59 168.29 248.41 88.27 248.49 8.26 C 168.42 8.19 88.34 8.25 8.27 8.24 M 140.06 26.03 C 138.33 26.34 136.60 26.60 134.87 26.86 C 130.94 27.90 126.98 28.84 123.14 30.16 C 122.13 30.50 121.12 30.84 120.12 31.18 C 118.68 31.70 117.27 32.25 115.83 32.75 C 91.28 43.18 69.65 61.79 57.78 85.90 C 56.50 88.61 55.22 91.32 54.14 94.12 C 53.68 95.36 53.24 96.60 52.78 97.84 C 52.49 98.83 52.19 99.83 51.87 100.82 C 50.62 105.11 49.76 109.50 48.81 113.87 C 48.53 116.61 48.30 119.36 48.04 122.11 C 46.93 128.39 47.49 134.81 48.84 141.01 C 52.57 154.50 62.16 166.17 75.03 171.86 C 76.06 172.18 77.09 172.52 78.12 172.86 C 79.36 173.31 80.60 173.72 81.84 174.19 C 85.78 175.22 89.86 175.44 93.86 176.15 C 100.57 176.51 107.28 176.08 113.90 174.97 C 115.32 174.68 116.76 174.44 118.19 174.19 C 119.74 173.72 121.32 173.35 122.88 172.91 C 123.89 172.51 124.90 172.09 125.90 171.67 C 128.43 171.18 131.26 171.27 132.57 173.86 C 130.66 181.17 128.58 188.44 126.30 195.65 C 127.83 196.10 129.40 196.36 131.01 196.28 C 145.47 196.23 159.93 196.27 174.39 196.26 C 175.89 191.47 177.43 186.69 178.85 181.87 C 180.00 178.33 181.00 174.75 182.23 171.24 C 182.38 170.64 182.68 169.45 182.83 168.86 C 183.27 167.61 183.67 166.34 184.10 165.08 C 184.41 164.01 184.74 162.94 185.07 161.88 C 185.74 159.63 186.43 157.39 187.18 155.17 C 187.34 154.59 187.65 153.42 187.81 152.83 C 189.20 148.51 190.56 144.17 191.86 139.82 C 193.02 136.28 194.04 132.70 195.23 129.16 C 195.38 128.60 195.67 127.48 195.82 126.92 C 196.17 125.87 196.51 124.81 196.84 123.76 C 197.95 120.21 199.01 116.64 200.20 113.12 C 200.34 112.56 200.63 111.43 200.77 110.87 C 201.13 109.83 201.48 108.79 201.82 107.75 C 202.82 104.42 203.90 101.12 204.85 97.78 C 205.84 94.75 206.79 91.71 207.65 88.65 C 182.63 88.54 157.60 88.67 132.58 88.58 C 130.64 93.72 128.92 98.94 127.15 104.14 C 126.37 106.36 125.60 108.57 124.84 110.79 C 124.28 112.68 123.65 114.58 122.57 116.24 C 123.23 116.59 123.90 116.93 124.57 117.28 C 130.68 117.43 136.86 116.80 142.93 117.72 C 143.47 118.80 143.93 119.92 144.39 121.04 C 144.03 121.75 143.66 122.45 143.29 123.15 C 141.08 127.21 137.73 130.51 133.72 132.78 C 132.55 133.31 131.38 133.82 130.23 134.36 C 127.88 135.05 125.48 135.60 123.10 136.18 C 118.96 136.47 114.78 136.43 110.76 135.29 C 109.57 134.77 108.37 134.27 107.17 133.78 C 102.76 131.60 99.72 127.49 98.20 122.89 C 97.73 121.29 97.30 119.68 96.79 118.10 C 96.47 115.02 96.46 111.93 96.79 108.86 C 97.49 105.85 98.09 102.83 98.81 99.83 C 99.13 98.82 99.45 97.80 99.75 96.79 C 100.24 95.55 100.70 94.30 101.17 93.06 C 106.09 80.40 116.54 70.30 128.94 64.96 C 134.00 62.83 139.60 63.05 144.97 63.30 C 151.23 64.21 156.47 68.90 158.94 74.63 C 159.66 74.42 161.10 73.99 161.81 73.78 C 166.29 72.27 170.76 70.73 175.24 69.24 C 177.21 68.55 179.19 67.85 181.17 67.17 C 182.18 66.84 183.20 66.51 184.22 66.19 C 185.43 65.73 186.65 65.28 187.85 64.80 C 188.43 64.66 189.59 64.37 190.17 64.23 C 191.40 63.73 192.64 63.26 193.87 62.76 C 194.42 62.62 195.53 62.34 196.08 62.20 C 197.32 61.72 198.58 61.27 199.83 60.80 C 202.42 59.98 204.98 59.07 207.56 58.18 C 206.52 55.38 205.43 52.61 204.23 49.88 C 203.23 48.19 202.23 46.50 201.24 44.80 C 197.08 38.91 191.55 34.06 185.15 30.72 C 183.06 29.82 180.96 28.94 178.85 28.09 C 174.37 26.63 169.75 25.70 165.11 24.92 C 159.38 24.15 153.58 24.36 147.84 24.88 C 145.26 25.37 142.64 25.55 140.06 26.03 M 136.70 81.06 C 141.86 81.43 147.07 81.56 152.23 81.02 C 147.71 77.88 141.53 79.36 136.70 81.06 M 115.74 98.64 C 111.86 105.85 109.34 113.80 108.57 121.95 C 108.66 123.38 107.95 125.43 109.54 126.26 C 112.10 128.21 115.35 128.65 118.47 128.77 C 118.88 127.46 119.29 126.15 119.70 124.84 C 117.21 124.84 113.69 124.21 113.62 121.06 C 115.09 113.98 118.37 107.40 120.01 100.35 L 120.37 101.06 C 121.48 97.25 122.84 93.51 123.87 89.69 C 120.06 91.46 117.92 95.24 115.74 98.64 M 40.76 190.72 C 31.91 193.43 25.12 200.89 22.75 209.78 C 21.67 214.83 21.25 220.01 21.79 225.17 C 22.19 226.80 22.51 228.46 22.82 230.12 C 23.46 231.82 24.08 233.53 24.69 235.24 C 28.20 243.49 36.35 248.54 44.89 250.23 C 50.01 250.79 55.15 250.40 60.15 249.20 L 60.76 248.85 C 65.74 247.32 70.75 245.23 74.57 241.60 C 75.12 233.24 74.65 224.80 74.80 216.40 C 66.62 216.41 58.45 216.41 50.27 216.40 C 50.26 219.70 50.25 223.00 50.33 226.30 C 54.69 226.27 59.05 226.26 63.42 226.31 C 63.40 229.30 63.40 232.28 63.42 235.27 C 60.07 237.74 56.20 239.34 52.16 240.29 C 47.89 240.49 43.37 239.67 39.98 236.90 C 36.54 234.28 34.88 230.15 33.78 226.10 C 33.32 221.73 33.30 217.32 33.79 212.95 C 34.99 208.40 37.54 204.04 41.77 201.71 C 46.37 199.41 52.04 199.10 56.74 201.29 C 59.82 202.77 61.67 205.83 62.83 208.91 C 66.79 208.64 70.64 207.58 74.58 207.18 C 72.99 203.86 72.32 200.04 69.64 197.31 C 62.75 188.99 50.54 188.76 40.76 190.72 M 42.55 205.77 L 42.59 206.04 C 38.41 209.61 37.57 215.34 37.47 220.53 C 38.10 224.97 38.47 230.23 42.49 233.06 L 42.37 233.60 C 47.40 237.69 54.36 236.38 59.50 233.26 C 59.50 232.27 59.50 231.29 59.51 230.30 C 56.00 230.15 52.39 230.69 48.95 229.97 C 45.01 228.51 46.72 223.69 46.29 220.53 C 46.53 217.82 45.52 214.04 48.62 212.63 C 52.37 212.08 56.19 212.48 59.97 212.36 C 58.79 209.48 57.86 205.75 54.53 204.63 C 50.57 202.93 46.30 204.16 42.55 205.77 M 188.84 210.75 C 185.61 211.91 182.17 213.24 180.10 216.15 C 178.01 218.66 178.00 222.20 178.74 225.23 C 181.26 231.31 188.53 232.57 194.24 233.84 L 194.84 234.18 C 199.08 234.90 203.31 235.71 207.47 236.84 C 207.59 238.25 207.57 239.67 207.37 241.08 C 206.80 241.38 205.67 241.98 205.10 242.28 C 200.65 243.27 195.67 243.72 191.61 241.26 C 189.75 240.28 189.77 236.71 187.17 237.27 C 183.49 237.43 179.89 238.21 176.26 238.73 C 178.99 245.56 185.97 249.20 192.93 250.19 C 200.48 250.65 208.86 250.86 215.31 246.26 C 219.29 243.57 221.87 238.03 219.47 233.49 C 216.94 228.06 210.26 227.35 205.16 225.80 C 203.71 225.58 202.26 225.38 200.81 225.20 L 200.22 224.83 C 196.63 223.97 192.21 224.13 189.57 221.23 C 189.23 219.26 191.34 218.31 192.87 217.86 C 197.38 217.17 202.55 216.80 206.23 220.02 C 206.37 220.48 206.65 221.40 206.78 221.86 C 210.82 221.67 214.77 220.84 218.75 220.21 C 217.09 215.95 213.55 212.39 209.05 211.28 C 202.48 209.59 195.54 210.11 188.84 210.75 M 86.45 215.45 C 80.84 220.26 79.85 228.24 80.71 235.18 C 81.87 238.70 83.18 242.38 86.01 244.93 C 89.22 248.02 93.62 249.29 97.87 250.23 C 101.28 250.43 104.70 250.43 108.11 250.22 C 112.53 249.21 117.15 247.76 120.19 244.18 C 121.88 242.68 122.24 240.19 124.05 238.82 C 119.69 238.83 115.45 237.69 111.11 237.42 C 110.23 239.01 109.57 241.00 107.74 241.75 C 101.65 244.96 92.77 240.70 93.08 233.33 C 103.28 233.28 113.50 233.19 123.70 233.38 C 124.96 230.26 123.56 226.97 123.27 223.80 C 121.33 217.18 115.71 212.47 109.19 210.69 C 101.42 209.61 92.48 209.68 86.45 215.45 M 128.70 211.63 C 128.65 224.25 128.70 236.88 128.68 249.50 C 132.89 249.56 137.11 249.55 141.32 249.51 C 141.52 241.25 140.85 232.94 141.76 224.73 C 142.86 217.50 155.06 214.94 158.28 221.80 C 160.23 230.90 158.85 240.31 159.28 249.55 C 163.36 249.54 167.44 249.54 171.52 249.54 C 171.39 239.66 171.84 229.76 171.24 219.89 C 170.89 218.86 170.57 217.82 170.27 216.79 C 167.34 211.42 160.67 209.91 155.02 210.20 C 149.47 209.96 144.14 212.55 140.39 216.54 C 140.40 214.78 140.42 213.03 140.44 211.28 C 136.65 210.85 132.12 209.87 128.70 211.63 M 172.30 212.57 C 172.96 214.03 173.59 215.52 174.38 216.92 C 176.75 216.69 176.71 213.74 177.23 211.98 C 175.58 212.12 173.93 212.31 172.30 212.57 M 145.85 225.02 C 144.86 230.72 145.37 236.56 145.32 242.32 C 145.35 244.32 145.38 246.33 145.43 248.34 C 148.50 248.31 151.57 248.30 154.64 248.41 C 155.24 246.47 155.30 244.42 155.33 242.40 L 155.03 242.40 C 155.49 235.79 155.43 229.13 154.36 222.58 C 151.48 221.53 147.07 221.66 145.85 225.02 M 175.58 228.96 C 175.56 230.83 175.55 232.70 175.54 234.58 C 177.05 234.47 178.57 234.35 180.09 234.24 C 179.06 232.11 177.34 230.48 175.58 228.96 M 98.55 237.64 C 101.32 238.94 105.48 240.41 107.25 236.88 C 104.33 236.69 101.33 236.58 98.55 237.64 M 73.65 248.25 C 76.71 248.36 79.77 248.32 82.83 248.36 C 82.72 248.00 82.51 247.28 82.40 246.91 C 81.23 245.48 80.11 244.01 79.08 242.48 C 77.65 244.73 75.45 246.32 73.65 248.25 M 121.24 248.30 C 122.08 248.31 123.74 248.35 124.58 248.36 C 124.56 247.30 124.54 246.24 124.53 245.19 C 123.67 246.46 122.73 247.71 121.24 248.30 M 175.32 246.22 C 175.37 246.79 175.45 247.91 175.50 248.48 C 176.02 248.52 177.05 248.61 177.57 248.65 C 178.80 247.44 176.58 244.59 175.32 246.22 Z" />
<path fill="#000000" opacity="1.00" d=" M 31.03 14.33 C 51.49 14.18 71.95 14.23 92.40 14.30 C 77.26 21.07 62.36 28.43 48.08 36.89 C 47.81 37.06 47.27 37.38 46.99 37.55 C 45.62 38.46 44.29 39.43 42.94 40.37 C 37.87 43.81 32.66 47.07 27.84 50.86 C 23.21 54.24 18.73 57.80 14.31 61.45 C 14.20 49.73 14.23 38.01 14.29 26.29 C 19.67 22.03 25.62 18.55 31.03 14.33 Z" />
<path fill="#000000" opacity="1.00" d=" M 93.14 226.70 C 93.01 220.47 100.04 216.22 105.63 218.35 C 109.50 219.18 111.88 222.89 111.95 226.69 C 105.68 226.78 99.41 226.78 93.14 226.70 M 100.58 222.25 C 101.17 223.76 104.10 223.42 105.33 222.67 C 104.70 221.15 101.79 221.38 100.58 222.25 Z" />
</g>
<g id="#ffffffff">
<path fill="#ffffff" opacity="1.00" d=" M 8.27 8.24 C 88.34 8.25 168.42 8.19 248.49 8.26 C 248.41 88.27 248.59 168.29 248.40 248.30 C 238.91 248.34 229.41 248.34 219.91 248.30 C 221.18 246.30 222.48 244.34 223.69 242.32 C 224.53 242.31 225.37 242.32 226.21 242.32 C 231.58 242.34 236.95 242.34 242.32 242.30 C 242.42 226.85 242.59 211.41 242.42 195.96 C 242.40 193.78 242.42 191.61 242.35 189.43 C 242.37 179.31 242.29 169.19 242.34 159.07 C 242.35 148.99 242.35 138.91 242.31 128.83 C 242.30 128.48 242.29 127.80 242.28 127.45 C 242.52 117.56 242.27 107.66 242.34 97.76 C 242.36 87.67 242.34 77.58 242.36 67.48 C 242.37 57.18 242.37 46.88 242.36 36.58 C 242.34 29.18 242.35 21.78 242.35 14.37 C 237.33 14.32 232.30 14.34 227.28 14.33 C 217.01 14.27 206.74 14.45 196.47 14.21 C 190.67 14.15 184.86 14.35 179.06 13.94 C 171.05 13.40 163.05 14.56 155.04 14.13 C 148.40 13.75 141.72 13.68 135.10 14.49 C 120.87 14.11 106.64 14.46 92.40 14.30 C 71.95 14.23 51.49 14.18 31.03 14.33 C 25.47 14.27 19.91 14.31 14.35 14.35 C 14.38 18.33 14.38 22.31 14.29 26.29 C 14.23 38.01 14.20 49.73 14.31 61.45 C 14.35 63.48 14.38 65.51 14.34 67.55 C 14.50 88.16 13.86 108.76 14.35 129.37 C 14.30 139.38 14.34 149.39 14.33 159.40 C 14.33 169.52 14.35 179.65 14.32 189.77 C 14.33 200.06 14.32 210.35 14.34 220.64 C 14.35 227.87 14.30 235.09 14.38 242.32 C 17.72 242.31 21.06 242.33 24.40 242.40 C 26.17 244.25 27.87 246.17 29.33 248.28 C 22.35 248.39 15.37 248.29 8.38 248.33 C 8.12 168.30 8.35 88.27 8.27 8.24 Z" />
<path fill="#ffffff" opacity="1.00" d=" M 140.06 26.03 C 142.64 25.55 145.26 25.37 147.84 24.88 C 153.58 24.36 159.38 24.15 165.11 24.92 C 169.75 25.70 174.37 26.63 178.85 28.09 C 180.96 28.94 183.06 29.82 185.15 30.72 C 191.55 34.06 197.08 38.91 201.24 44.80 C 202.23 46.50 203.23 48.19 204.23 49.88 C 205.43 52.61 206.52 55.38 207.56 58.18 C 204.98 59.07 202.42 59.98 199.83 60.80 C 198.58 61.27 197.32 61.72 196.08 62.20 C 195.53 62.34 194.42 62.62 193.87 62.76 C 192.64 63.26 191.40 63.73 190.17 64.23 C 189.59 64.37 188.43 64.66 187.85 64.80 C 186.65 65.28 185.43 65.73 184.22 66.19 C 183.20 66.51 182.18 66.84 181.17 67.17 C 179.19 67.85 177.21 68.55 175.24 69.24 C 170.76 70.73 166.29 72.27 161.81 73.78 C 161.10 73.99 159.66 74.42 158.94 74.63 C 156.47 68.90 151.23 64.21 144.97 63.30 C 139.60 63.05 134.00 62.83 128.94 64.96 C 116.54 70.30 106.09 80.40 101.17 93.06 C 100.70 94.30 100.24 95.55 99.75 96.79 C 99.45 97.80 99.13 98.82 98.81 99.83 C 98.09 102.83 97.49 105.85 96.79 108.86 C 96.46 111.93 96.47 115.02 96.79 118.10 C 97.30 119.68 97.73 121.29 98.20 122.89 C 99.72 127.49 102.76 131.60 107.17 133.78 C 108.37 134.27 109.57 134.77 110.76 135.29 C 114.78 136.43 118.96 136.47 123.10 136.18 C 125.48 135.60 127.88 135.05 130.23 134.36 C 131.38 133.82 132.55 133.31 133.72 132.78 C 137.73 130.51 141.08 127.21 143.29 123.15 C 143.66 122.45 144.03 121.75 144.39 121.04 C 143.93 119.92 143.47 118.80 142.93 117.72 C 136.86 116.80 130.68 117.43 124.57 117.28 C 123.90 116.93 123.23 116.59 122.57 116.24 C 123.65 114.58 124.28 112.68 124.84 110.79 C 125.60 108.57 126.37 106.36 127.15 104.14 C 128.92 98.94 130.64 93.72 132.58 88.58 C 157.60 88.67 182.63 88.54 207.65 88.65 C 206.79 91.71 205.84 94.75 204.85 97.78 C 203.90 101.12 202.82 104.42 201.82 107.75 C 201.48 108.79 201.13 109.83 200.77 110.87 C 200.63 111.43 200.34 112.56 200.20 113.12 C 199.01 116.64 197.95 120.21 196.84 123.76 C 196.51 124.81 196.17 125.87 195.82 126.92 C 195.67 127.48 195.38 128.60 195.23 129.16 C 194.04 132.70 193.02 136.28 191.86 139.82 C 190.56 144.17 189.20 148.51 187.81 152.83 C 187.65 153.42 187.34 154.59 187.18 155.17 C 186.43 157.39 185.74 159.63 185.07 161.88 C 184.74 162.94 184.41 164.01 184.10 165.08 C 183.67 166.34 183.27 167.61 182.83 168.86 C 182.68 169.45 182.38 170.64 182.23 171.24 C 181.00 174.75 180.00 178.33 178.85 181.87 C 177.43 186.69 175.89 191.47 174.39 196.26 C 159.93 196.27 145.47 196.23 131.01 196.28 C 129.40 196.36 127.83 196.10 126.30 195.65 C 128.58 188.44 130.66 181.17 132.57 173.86 C 131.26 171.27 128.43 171.18 125.90 171.67 C 124.90 172.09 123.89 172.51 122.88 172.91 C 121.32 173.35 119.74 173.72 118.19 174.19 C 116.76 174.44 115.32 174.68 113.90 174.97 C 107.28 176.08 100.57 176.51 93.86 176.15 C 89.86 175.44 85.78 175.22 81.84 174.19 C 80.60 173.72 79.36 173.31 78.12 172.86 C 77.09 172.52 76.06 172.18 75.03 171.86 C 62.16 166.17 52.57 154.50 48.84 141.01 C 47.49 134.81 46.93 128.39 48.04 122.11 C 48.30 119.36 48.53 116.61 48.81 113.87 C 49.76 109.50 50.62 105.11 51.87 100.82 C 52.19 99.83 52.49 98.83 52.78 97.84 C 53.24 96.60 53.68 95.36 54.14 94.12 C 55.22 91.32 56.50 88.61 57.78 85.90 C 69.65 61.79 91.28 43.18 115.83 32.75 C 117.27 32.25 118.68 31.70 120.12 31.18 C 121.12 30.84 122.13 30.50 123.14 30.16 C 126.98 28.84 130.94 27.90 134.87 26.86 C 136.60 26.60 138.33 26.34 140.06 26.03 Z" />
<path fill="#ffffff" opacity="1.00" d=" M 40.76 190.72 C 50.54 188.76 62.75 188.99 69.64 197.31 C 72.32 200.04 72.99 203.86 74.58 207.18 C 70.64 207.58 66.79 208.64 62.83 208.91 C 61.67 205.83 59.82 202.77 56.74 201.29 C 52.04 199.10 46.37 199.41 41.77 201.71 C 37.54 204.04 34.99 208.40 33.79 212.95 C 33.30 217.32 33.32 221.73 33.78 226.10 C 34.88 230.15 36.54 234.28 39.98 236.90 C 43.37 239.67 47.89 240.49 52.16 240.29 C 56.20 239.34 60.07 237.74 63.42 235.27 C 63.40 232.28 63.40 229.30 63.42 226.31 C 59.05 226.26 54.69 226.27 50.33 226.30 C 50.25 223.00 50.26 219.70 50.27 216.40 C 58.45 216.41 66.62 216.41 74.80 216.40 C 74.65 224.80 75.12 233.24 74.57 241.60 C 70.75 245.23 65.74 247.32 60.76 248.85 L 60.15 249.20 C 55.15 250.40 50.01 250.79 44.89 250.23 C 36.35 248.54 28.20 243.49 24.69 235.24 C 24.08 233.53 23.46 231.82 22.82 230.12 C 22.51 228.46 22.19 226.80 21.79 225.17 C 21.25 220.01 21.67 214.83 22.75 209.78 C 25.12 200.89 31.91 193.43 40.76 190.72 Z" />
<path fill="#ffffff" opacity="1.00" d=" M 188.84 210.75 C 195.54 210.11 202.48 209.59 209.05 211.28 C 213.55 212.39 217.09 215.95 218.75 220.21 C 214.77 220.84 210.82 221.67 206.78 221.86 C 206.65 221.40 206.37 220.48 206.23 220.02 C 202.55 216.80 197.38 217.17 192.87 217.86 C 191.34 218.31 189.23 219.26 189.57 221.23 C 192.21 224.13 196.63 223.97 200.22 224.83 L 200.81 225.20 C 202.26 225.38 203.71 225.58 205.16 225.80 C 210.26 227.35 216.94 228.06 219.47 233.49 C 221.87 238.03 219.29 243.57 215.31 246.26 C 208.86 250.86 200.48 250.65 192.93 250.19 C 185.97 249.20 178.99 245.56 176.26 238.73 C 179.89 238.21 183.49 237.43 187.17 237.27 C 189.77 236.71 189.75 240.28 191.61 241.26 C 195.67 243.72 200.65 243.27 205.10 242.28 C 205.67 241.98 206.80 241.38 207.37 241.08 C 207.57 239.67 207.59 238.25 207.47 236.84 C 203.31 235.71 199.08 234.90 194.84 234.18 L 194.24 233.84 C 188.53 232.57 181.26 231.31 178.74 225.23 C 178.00 222.20 178.01 218.66 180.10 216.15 C 182.17 213.24 185.61 211.91 188.84 210.75 Z" />
<path fill="#ffffff" opacity="1.00" d=" M 86.45 215.45 C 92.48 209.68 101.42 209.61 109.19 210.69 C 115.71 212.47 121.33 217.18 123.27 223.80 C 123.56 226.97 124.96 230.26 123.70 233.38 C 113.50 233.19 103.28 233.28 93.08 233.33 C 92.77 240.70 101.65 244.96 107.74 241.75 C 109.57 241.00 110.23 239.01 111.11 237.42 C 115.45 237.69 119.69 238.83 124.05 238.82 C 122.24 240.19 121.88 242.68 120.19 244.18 C 117.15 247.76 112.53 249.21 108.11 250.22 C 104.70 250.43 101.28 250.43 97.87 250.23 C 93.62 249.29 89.22 248.02 86.01 244.93 C 83.18 242.38 81.87 238.70 80.71 235.18 C 79.85 228.24 80.84 220.26 86.45 215.45 M 93.14 226.70 C 99.41 226.78 105.68 226.78 111.95 226.69 C 111.88 222.89 109.50 219.18 105.63 218.35 C 100.04 216.22 93.01 220.47 93.14 226.70 Z" />
<path fill="#ffffff" opacity="1.00" d=" M 128.70 211.63 C 132.12 209.87 136.65 210.85 140.44 211.28 C 140.42 213.03 140.40 214.78 140.39 216.54 C 144.14 212.55 149.47 209.96 155.02 210.20 C 160.67 209.91 167.34 211.42 170.27 216.79 C 170.57 217.82 170.89 218.86 171.24 219.89 C 171.84 229.76 171.39 239.66 171.52 249.54 C 167.44 249.54 163.36 249.54 159.28 249.55 C 158.85 240.31 160.23 230.90 158.28 221.80 C 155.06 214.94 142.86 217.50 141.76 224.73 C 140.85 232.94 141.52 241.25 141.32 249.51 C 137.11 249.55 132.89 249.56 128.68 249.50 C 128.70 236.88 128.65 224.25 128.70 211.63 Z" />
<path fill="#ffffff" opacity="1.00" d=" M 145.32 242.32 C 148.55 242.31 151.79 242.31 155.03 242.40 L 155.33 242.40 C 155.30 244.42 155.24 246.47 154.64 248.41 C 151.57 248.30 148.50 248.31 145.43 248.34 C 145.38 246.33 145.35 244.32 145.32 242.32 Z" />
</g>
<g id="#636744ff">
<path fill="#636744" opacity="1.00" d=" M 14.35 14.35 C 19.91 14.31 25.47 14.27 31.03 14.33 C 25.62 18.55 19.67 22.03 14.29 26.29 C 14.38 22.31 14.38 18.33 14.35 14.35 Z" />
</g>
<g id="#332a15ff">
<path fill="#332a15" opacity="1.00" d=" M 92.40 14.30 C 106.64 14.46 120.87 14.11 135.10 14.49 L 135.38 14.72 C 135.31 15.65 135.18 17.49 135.11 18.42 C 137.12 18.38 139.14 18.33 141.15 18.20 C 128.11 20.57 114.99 23.77 103.36 30.34 C 99.93 32.12 96.74 34.35 93.19 35.88 C 86.88 36.51 80.52 36.61 74.21 37.31 C 74.29 41.53 74.79 45.73 75.09 49.94 C 74.79 50.28 74.19 50.97 73.89 51.32 C 73.37 46.73 72.93 42.13 72.41 37.54 C 64.31 37.44 56.18 35.96 48.08 36.89 C 62.36 28.43 77.26 21.07 92.40 14.30 Z" />
</g>
<g id="#919373ff">
<path fill="#919373" opacity="1.00" d=" M 135.10 14.49 C 141.72 13.68 148.40 13.75 155.04 14.13 C 163.05 14.56 171.05 13.40 179.06 13.94 C 184.86 14.35 190.67 14.15 196.47 14.21 L 196.49 15.34 C 186.28 13.95 176.00 15.28 165.75 15.07 C 165.54 15.62 165.12 16.70 164.91 17.24 L 164.84 17.42 C 164.54 17.27 163.94 16.98 163.65 16.83 C 160.42 14.92 156.56 15.51 152.99 15.35 C 147.11 15.49 141.26 14.72 135.38 14.72 L 135.10 14.49 Z" />
</g>
<g id="#bbc29aff">
<path fill="#bbc29a" opacity="1.00" d=" M 196.47 14.21 C 206.74 14.45 217.01 14.27 227.28 14.33 C 227.21 21.75 227.37 29.18 227.17 36.61 C 219.75 36.65 212.34 36.60 204.92 36.56 L 204.49 36.56 C 202.08 33.76 199.52 31.07 196.52 28.89 L 196.53 28.26 C 196.56 23.95 196.55 19.65 196.49 15.34 L 196.47 14.21 Z" />
<path fill="#bbc29a" opacity="1.00" d=" M 227.28 36.60 C 232.31 36.65 237.33 36.65 242.36 36.58 C 242.37 46.88 242.37 57.18 242.36 67.48 C 237.38 67.05 232.08 68.33 227.31 66.74 C 227.13 56.71 227.35 46.64 227.28 36.60 Z" />
<path fill="#bbc29a" opacity="1.00" d=" M 14.35 129.37 L 14.38 128.58 L 15.41 128.69 C 19.12 129.41 22.92 129.70 26.59 130.59 C 28.00 131.50 28.57 133.23 29.41 134.60 C 33.19 142.12 37.04 149.60 40.83 157.10 C 39.87 157.87 38.92 158.64 37.96 159.42 C 30.08 159.39 22.21 159.40 14.33 159.40 C 14.34 149.39 14.30 139.38 14.35 129.37 Z" />
<path fill="#bbc29a" opacity="1.00" d=" M 14.32 189.77 C 20.18 189.79 26.08 189.47 31.88 190.48 C 21.97 197.08 17.50 209.12 17.42 220.66 C 16.65 220.65 15.11 220.64 14.34 220.64 C 14.32 210.35 14.33 200.06 14.32 189.77 Z" />
<path fill="#bbc29a" opacity="1.00" d=" M 37.47 220.53 C 37.57 215.34 38.41 209.61 42.59 206.04 C 43.61 210.84 43.37 215.77 43.34 220.66 C 41.38 220.61 39.43 220.57 37.47 220.53 Z" />
<path fill="#bbc29a" opacity="1.00" d=" M 43.31 220.89 C 44.06 220.80 45.55 220.62 46.29 220.53 C 46.72 223.69 45.01 228.51 48.95 229.97 C 52.39 230.69 56.00 230.15 59.51 230.30 C 59.50 231.29 59.50 232.27 59.50 233.26 C 54.36 236.38 47.40 237.69 42.37 233.60 L 42.49 233.06 C 44.03 229.18 43.19 224.94 43.31 220.89 Z" />
</g>
<g id="#858543ff">
<path fill="#858543" opacity="1.00" d=" M 227.28 14.33 C 232.30 14.34 237.33 14.32 242.35 14.37 C 242.35 21.78 242.34 29.18 242.36 36.58 C 237.33 36.65 232.31 36.65 227.28 36.60 C 227.35 46.64 227.13 56.71 227.31 66.74 C 232.08 68.33 237.38 67.05 242.36 67.48 C 242.34 77.58 242.36 87.67 242.34 97.76 L 241.38 97.82 C 238.87 97.88 236.36 97.80 233.85 97.83 C 235.28 97.34 236.69 96.78 238.10 96.24 C 235.03 90.00 232.16 83.62 228.40 77.76 C 228.07 83.96 227.77 90.15 227.22 96.34 C 227.24 91.79 226.90 87.25 226.82 82.70 C 226.81 77.89 228.13 72.87 226.77 68.20 C 225.07 66.91 222.85 67.53 220.88 67.41 C 220.53 68.67 220.16 69.93 219.78 71.18 C 219.74 62.53 215.00 54.98 211.27 47.50 C 209.56 43.62 207.14 40.14 204.92 36.56 C 212.34 36.60 219.75 36.65 227.17 36.61 C 227.37 29.18 227.21 21.75 227.28 14.33 Z" />
<path fill="#858543" opacity="1.00" d=" M 43.02 147.74 C 44.81 152.08 46.73 156.37 49.40 160.26 C 47.45 159.89 45.50 159.54 43.54 159.19 C 43.14 168.19 43.18 177.20 43.35 186.20 C 39.37 186.83 35.54 188.22 32.22 190.53 L 31.88 190.48 C 26.08 189.47 20.18 189.79 14.32 189.77 C 14.35 179.65 14.33 169.52 14.33 159.40 C 22.21 159.40 30.08 159.39 37.96 159.42 C 39.72 159.41 41.49 159.40 43.25 159.38 C 43.16 155.50 43.23 151.62 43.02 147.74 Z" />
<path fill="#858543" opacity="1.00" d=" M 42.55 205.77 C 46.30 204.16 50.57 202.93 54.53 204.63 C 57.86 205.75 58.79 209.48 59.97 212.36 C 56.19 212.48 52.37 212.08 48.62 212.63 C 45.52 214.04 46.53 217.82 46.29 220.53 C 45.55 220.62 44.06 220.80 43.31 220.89 C 43.19 224.94 44.03 229.18 42.49 233.06 C 38.47 230.23 38.10 224.97 37.47 220.53 C 39.43 220.57 41.38 220.61 43.34 220.66 C 43.37 215.77 43.61 210.84 42.59 206.04 L 42.55 205.77 Z" />
<path fill="#858543" opacity="1.00" d=" M 14.34 220.64 C 15.11 220.64 16.65 220.65 17.42 220.66 C 17.93 228.34 20.02 236.00 24.40 242.40 C 21.06 242.33 17.72 242.31 14.38 242.32 C 14.30 235.09 14.35 227.87 14.34 220.64 Z" />
</g>
<g id="#5b5b3dff">
<path fill="#5b5b3d" opacity="1.00" d=" M 135.38 14.72 C 141.26 14.72 147.11 15.49 152.99 15.35 C 156.56 15.51 160.42 14.92 163.65 16.83 C 156.17 17.57 148.59 16.88 141.15 18.20 C 139.14 18.33 137.12 18.38 135.11 18.42 C 135.18 17.49 135.31 15.65 135.38 14.72 Z" />
</g>
<g id="#6c6c37ff">
<path fill="#6c6c37" opacity="1.00" d=" M 165.75 15.07 C 176.00 15.28 186.28 13.95 196.49 15.34 C 196.55 19.65 196.56 23.95 196.53 28.26 C 186.99 22.30 176.23 17.93 164.91 17.24 C 165.12 16.70 165.54 15.62 165.75 15.07 Z" />
</g>
<g id="#443f27ff">
<path fill="#443f27" opacity="1.00" d=" M 48.08 36.89 C 56.18 35.96 64.31 37.44 72.41 37.54 C 72.93 42.13 73.37 46.73 73.89 51.32 C 69.73 55.28 66.18 59.82 62.38 64.12 C 63.02 61.08 62.34 57.98 60.69 55.37 C 57.73 50.45 55.78 45.00 52.72 40.14 C 51.62 38.03 48.97 38.16 46.99 37.55 C 47.27 37.38 47.81 37.06 48.08 36.89 Z" />
</g>
<g id="#29210eff">
<path fill="#29210e" opacity="1.00" d=" M 74.21 37.31 C 80.52 36.61 86.88 36.51 93.19 35.88 C 90.39 38.21 87.31 40.17 84.42 42.38 C 81.23 44.80 78.44 47.72 75.09 49.94 C 74.79 45.73 74.29 41.53 74.21 37.31 Z" />
</g>
<g id="#504c33ff">
<path fill="#504c33" opacity="1.00" d=" M 42.94 40.37 C 44.29 39.43 45.62 38.46 46.99 37.55 C 48.97 38.16 51.62 38.03 52.72 40.14 C 55.78 45.00 57.73 50.45 60.69 55.37 C 62.34 57.98 63.02 61.08 62.38 64.12 C 61.63 65.19 60.79 66.18 59.96 67.18 C 54.63 67.47 49.31 67.74 44.00 68.17 C 43.79 74.01 44.10 79.86 44.14 85.70 L 42.91 84.29 C 42.54 78.72 42.53 73.14 42.71 67.56 C 47.17 67.08 51.64 66.77 56.12 66.47 C 53.06 58.54 48.73 51.16 44.46 43.84 C 44.19 49.34 43.96 54.85 43.27 60.32 L 43.11 58.63 C 42.69 52.55 43.30 46.45 42.94 40.37 Z" />
</g>
<g id="#403d1fff">
<path fill="#403d1f" opacity="1.00" d=" M 27.84 50.86 C 32.66 47.07 37.87 43.81 42.94 40.37 C 43.30 46.45 42.69 52.55 43.11 58.63 C 42.59 61.10 41.98 63.55 41.41 66.00 C 38.23 60.57 36.01 54.62 32.42 49.42 C 30.89 49.89 29.35 50.34 27.84 50.86 Z" />
</g>
<g id="#59583bff">
<path fill="#59583b" opacity="1.00" d=" M 44.46 43.84 C 48.73 51.16 53.06 58.54 56.12 66.47 C 51.64 66.77 47.17 67.08 42.71 67.56 C 42.96 65.15 43.18 62.74 43.27 60.32 C 43.96 54.85 44.19 49.34 44.46 43.84 Z" />
</g>
<g id="#4c4a26ff">
<path fill="#4c4a26" opacity="1.00" d=" M 32.42 49.42 C 36.01 54.62 38.23 60.57 41.41 66.00 C 41.98 63.55 42.59 61.10 43.11 58.63 L 43.27 60.32 C 43.18 62.74 42.96 65.15 42.71 67.56 C 36.46 67.62 30.21 67.57 23.99 67.01 C 21.00 66.75 17.95 66.57 15.02 67.33 L 14.34 67.55 C 14.38 65.51 14.35 63.48 14.31 61.45 C 18.73 57.80 23.21 54.24 27.84 50.86 C 29.35 50.34 30.89 49.89 32.42 49.42 Z" />
</g>
<g id="#747853ff">
<path fill="#747853" opacity="1.00" d=" M 15.02 67.33 C 17.95 66.57 21.00 66.75 23.99 67.01 C 30.21 67.57 36.46 67.62 42.71 67.56 C 42.53 73.14 42.54 78.72 42.91 84.29 C 43.00 88.85 43.02 93.41 42.96 97.98 C 40.89 97.91 38.82 97.82 36.75 97.81 C 38.46 97.40 40.15 96.91 41.84 96.44 C 40.24 93.00 38.45 89.65 36.56 86.35 C 33.25 80.60 30.88 74.36 27.31 68.75 C 23.20 68.37 19.10 67.92 15.02 67.33 Z" />
</g>
<g id="#433f20ff">
<path fill="#433f20" opacity="1.00" d=" M 44.00 68.17 C 49.31 67.74 54.63 67.47 59.96 67.18 C 52.53 76.96 48.04 88.60 44.29 100.19 C 44.48 95.37 44.36 90.53 44.14 85.70 C 44.10 79.86 43.79 74.01 44.00 68.17 Z" />
</g>
<g id="#a2aa7bff">
<path fill="#a2aa7b" opacity="1.00" d=" M 14.34 67.55 L 15.02 67.33 C 15.37 72.15 15.24 77.23 17.54 81.63 C 20.05 86.68 23.05 91.50 24.95 96.83 C 22.87 97.31 20.80 97.81 18.70 98.18 C 17.36 98.26 16.02 98.33 14.68 98.39 C 14.74 101.14 14.80 103.89 14.89 106.63 C 14.57 113.95 14.93 121.28 14.38 128.58 L 14.35 129.37 C 13.86 108.76 14.50 88.16 14.34 67.55 Z" />
</g>
<g id="#8d9366ff">
<path fill="#8d9366" opacity="1.00" d=" M 15.02 67.33 C 19.10 67.92 23.20 68.37 27.31 68.75 C 30.88 74.36 33.25 80.60 36.56 86.35 C 38.45 89.65 40.24 93.00 41.84 96.44 C 40.15 96.91 38.46 97.40 36.75 97.81 C 34.25 97.95 31.75 98.07 29.26 98.21 C 25.74 98.23 22.22 98.09 18.70 98.18 C 20.80 97.81 22.87 97.31 24.95 96.83 C 23.05 91.50 20.05 86.68 17.54 81.63 C 15.24 77.23 15.37 72.15 15.02 67.33 Z" />
</g>
<g id="#afb78cff">
<path fill="#afb78c" opacity="1.00" d=" M 220.88 67.41 C 222.85 67.53 225.07 66.91 226.77 68.20 C 228.13 72.87 226.81 77.89 226.82 82.70 C 226.45 85.46 225.90 88.19 225.42 90.94 C 222.44 85.29 219.26 79.70 217.28 73.60 C 218.11 72.81 219.30 72.27 219.78 71.18 C 220.16 69.93 220.53 68.67 220.88 67.41 Z" />
</g>
<g id="#9da879ff">
<path fill="#9da879" opacity="1.00" d=" M 201.05 79.18 C 206.41 77.19 211.78 75.18 217.28 73.60 C 219.26 79.70 222.44 85.29 225.42 90.94 C 225.90 88.19 226.45 85.46 226.82 82.70 C 226.90 87.25 227.24 91.79 227.22 96.34 C 227.20 96.83 227.17 97.82 227.15 98.31 C 229.38 98.15 231.61 98.00 233.85 97.83 C 236.36 97.80 238.87 97.88 241.38 97.82 C 238.46 98.23 235.58 98.90 232.70 99.56 C 234.35 103.08 236.21 106.49 238.14 109.86 C 241.42 115.14 240.75 121.62 242.28 127.45 C 242.29 127.80 242.30 128.48 242.31 128.83 C 237.38 128.64 232.44 128.53 227.51 128.45 C 227.21 118.39 227.75 108.29 226.65 98.26 C 224.96 98.29 223.27 98.32 221.59 98.36 C 221.41 97.78 221.06 96.61 220.89 96.02 C 221.33 94.14 220.91 92.29 220.25 90.52 C 218.65 90.36 217.06 90.20 215.47 90.05 C 215.94 88.02 216.36 85.99 216.68 83.93 C 216.30 83.32 215.56 82.09 215.18 81.48 C 209.31 80.15 203.24 81.17 197.32 80.15 C 198.26 79.91 200.12 79.42 201.05 79.18 Z" />
</g>
<g id="#78783cff">
<path fill="#78783c" opacity="1.00" d=" M 228.40 77.76 C 232.16 83.62 235.03 90.00 238.10 96.24 C 236.69 96.78 235.28 97.34 233.85 97.83 C 231.61 98.00 229.38 98.15 227.15 98.31 C 227.17 97.82 227.20 96.83 227.22 96.34 C 227.77 90.15 228.07 83.96 228.40 77.76 Z" />
</g>
<g id="#484330ff">
<path fill="#484330" opacity="1.00" d=" M 136.70 81.06 C 141.53 79.36 147.71 77.88 152.23 81.02 C 147.07 81.56 141.86 81.43 136.70 81.06 Z" />
</g>
<g id="#2d2f20ff">
<path fill="#2d2f20" opacity="1.00" d=" M 195.69 79.97 C 196.10 80.01 196.91 80.11 197.32 80.15 C 203.24 81.17 209.31 80.15 215.18 81.48 C 209.02 82.30 202.72 82.01 196.55 81.52 C 196.33 81.13 195.90 80.36 195.69 79.97 Z" />
</g>
<g id="#5e5c2fff">
<path fill="#5e5c2f" opacity="1.00" d=" M 42.91 84.29 L 44.14 85.70 C 44.36 90.53 44.48 95.37 44.29 100.19 C 41.47 109.11 40.15 118.48 40.24 127.83 C 40.19 131.95 40.98 136.04 40.76 140.17 C 39.54 136.71 39.53 133.02 39.43 129.40 L 39.09 128.35 C 35.38 118.37 29.87 109.16 25.04 99.69 C 26.44 99.18 27.84 98.67 29.26 98.21 C 31.75 98.07 34.25 97.95 36.75 97.81 C 38.82 97.82 40.89 97.91 42.96 97.98 C 43.02 93.41 43.00 88.85 42.91 84.29 Z" />
</g>
<g id="#382c16ff">
<path fill="#382c16" opacity="1.00" d=" M 115.74 98.64 C 117.92 95.24 120.06 91.46 123.87 89.69 C 122.84 93.51 121.48 97.25 120.37 101.06 L 120.01 100.35 C 119.65 99.67 119.31 99.00 118.96 98.33 C 117.88 98.43 116.81 98.53 115.74 98.64 Z" />
</g>
<g id="#5d5b2eff">
<path fill="#5d5b2e" opacity="1.00" d=" M 218.29 104.72 C 218.82 101.74 219.63 98.79 220.89 96.02 C 221.06 96.61 221.41 97.78 221.59 98.36 C 223.27 98.32 224.96 98.29 226.65 98.26 C 227.75 108.29 227.21 118.39 227.51 128.45 C 232.44 128.53 237.38 128.64 242.31 128.83 C 242.35 138.91 242.35 148.99 242.34 159.07 L 241.37 159.13 C 239.63 159.19 237.88 159.22 236.14 159.23 C 236.70 158.45 237.27 157.68 237.83 156.90 C 235.00 150.49 231.78 144.25 228.48 138.06 C 228.08 141.49 227.62 144.92 227.23 148.35 C 227.09 141.77 227.16 135.18 227.30 128.60 C 222.87 128.73 218.43 129.14 214.00 128.83 C 213.43 128.79 212.31 128.72 211.74 128.68 C 216.46 128.33 221.18 127.89 225.91 127.62 C 227.09 119.08 221.06 112.28 218.29 104.72 Z" />
</g>
<g id="#6f6f39ff">
<path fill="#6f6f39" opacity="1.00" d=" M 14.68 98.39 C 16.02 98.33 17.36 98.26 18.70 98.18 C 22.22 98.09 25.74 98.23 29.26 98.21 C 27.84 98.67 26.44 99.18 25.04 99.69 C 29.87 109.16 35.38 118.37 39.09 128.35 C 34.69 127.85 30.14 128.35 25.86 127.09 C 23.77 125.03 22.72 122.21 21.42 119.64 C 19.43 115.21 17.04 110.98 14.89 106.63 C 14.80 103.89 14.74 101.14 14.68 98.39 Z" />
</g>
<g id="#4e462fff">
<path fill="#4e462f" opacity="1.00" d=" M 115.74 98.64 C 116.81 98.53 117.88 98.43 118.96 98.33 C 119.31 99.00 119.65 99.67 120.01 100.35 C 118.37 107.40 115.09 113.98 113.62 121.06 C 113.69 124.21 117.21 124.84 119.70 124.84 C 119.29 126.15 118.88 127.46 118.47 128.77 C 115.35 128.65 112.10 128.21 109.54 126.26 C 107.95 125.43 108.66 123.38 108.57 121.95 C 109.34 113.80 111.86 105.85 115.74 98.64 Z" />
</g>
<g id="#b0b78fff">
<path fill="#b0b78f" opacity="1.00" d=" M 241.38 97.82 L 242.34 97.76 C 242.27 107.66 242.52 117.56 242.28 127.45 C 240.75 121.62 241.42 115.14 238.14 109.86 C 236.21 106.49 234.35 103.08 232.70 99.56 C 235.58 98.90 238.46 98.23 241.38 97.82 Z" />
</g>
<g id="#54532aff">
<path fill="#54532a" opacity="1.00" d=" M 210.85 128.66 C 213.32 120.68 215.37 112.55 218.29 104.72 C 221.06 112.28 227.09 119.08 225.91 127.62 C 221.18 127.89 216.46 128.33 211.74 128.68 L 210.85 128.66 Z" />
</g>
<g id="#848441ff">
<path fill="#848441" opacity="1.00" d=" M 14.89 106.63 C 17.04 110.98 19.43 115.21 21.42 119.64 C 22.72 122.21 23.77 125.03 25.86 127.09 C 30.14 128.35 34.69 127.85 39.09 128.35 L 39.43 129.40 C 31.42 129.15 23.43 128.30 15.41 128.69 L 14.38 128.58 C 14.93 121.28 14.57 113.95 14.89 106.63 Z" />
</g>
<g id="#aeb68bff">
<path fill="#aeb68b" opacity="1.00" d=" M 15.41 128.69 C 23.43 128.30 31.42 129.15 39.43 129.40 C 39.53 133.02 39.54 136.71 40.76 140.17 C 41.50 142.70 42.48 145.16 43.02 147.74 C 43.23 151.62 43.16 155.50 43.25 159.38 C 41.49 159.40 39.72 159.41 37.96 159.42 C 38.92 158.64 39.87 157.87 40.83 157.10 C 37.04 149.60 33.19 142.12 29.41 134.60 C 28.57 133.23 28.00 131.50 26.59 130.59 C 22.92 129.70 19.12 129.41 15.41 128.69 Z" />
</g>
<g id="#676a48ff">
<path fill="#676a48" opacity="1.00" d=" M 207.56 138.85 C 208.36 135.37 209.59 131.99 210.85 128.66 L 211.74 128.68 C 212.31 128.72 213.43 128.79 214.00 128.83 C 213.44 129.60 212.88 130.36 212.32 131.13 C 216.11 140.04 221.08 148.36 225.64 156.87 C 226.04 155.46 226.45 154.06 226.80 152.64 C 226.92 154.84 227.13 157.03 227.33 159.22 C 230.27 159.23 233.20 159.24 236.14 159.23 C 237.88 159.22 239.63 159.19 241.37 159.13 C 237.17 159.52 232.98 160.04 228.78 160.47 C 232.13 170.65 238.91 179.27 242.35 189.43 C 242.42 191.61 242.40 193.78 242.42 195.96 C 241.89 194.13 241.37 192.28 240.87 190.44 C 236.40 190.17 231.94 189.80 227.49 189.43 C 227.71 179.51 226.57 169.63 226.69 159.71 C 223.42 159.52 220.16 159.40 216.90 159.46 C 212.91 153.06 208.77 146.42 207.56 138.85 Z" />
</g>
<g id="#757953ff">
<path fill="#757953" opacity="1.00" d=" M 214.00 128.83 C 218.43 129.14 222.87 128.73 227.30 128.60 C 227.16 135.18 227.09 141.77 227.23 148.35 C 227.10 149.78 226.95 151.21 226.80 152.64 C 226.45 154.06 226.04 155.46 225.64 156.87 C 221.08 148.36 216.11 140.04 212.32 131.13 C 212.88 130.36 213.44 129.60 214.00 128.83 Z" />
<path fill="#757953" opacity="1.00" d=" M 89.14 191.35 C 94.22 191.93 99.30 192.69 104.43 192.37 C 104.50 196.97 104.53 201.57 104.50 206.17 C 101.89 206.25 99.28 206.31 96.67 206.35 C 95.72 200.72 92.74 195.69 89.14 191.35 Z" />
</g>
<g id="#4f4c27ff">
<path fill="#4f4c27" opacity="1.00" d=" M 228.48 138.06 C 231.78 144.25 235.00 150.49 237.83 156.90 C 237.27 157.68 236.70 158.45 236.14 159.23 C 233.20 159.24 230.27 159.23 227.33 159.22 C 227.13 157.03 226.92 154.84 226.80 152.64 C 226.95 151.21 227.10 149.78 227.23 148.35 C 227.62 144.92 228.08 141.49 228.48 138.06 Z" />
</g>
<g id="#59593cff">
<path fill="#59593c" opacity="1.00" d=" M 202.15 156.61 C 203.71 150.62 205.61 144.72 207.56 138.85 C 208.77 146.42 212.91 153.06 216.90 159.46 C 211.93 159.55 206.98 159.28 202.04 158.87 C 202.07 158.30 202.12 157.17 202.15 156.61 Z" />
</g>
<g id="#332d15ff">
<path fill="#332d15" opacity="1.00" d=" M 200.08 162.09 C 200.54 160.18 201.23 158.34 202.15 156.61 C 202.12 157.17 202.07 158.30 202.04 158.87 C 202.05 164.00 205.41 168.11 207.48 172.56 C 209.99 177.85 213.14 182.86 215.02 188.44 C 213.27 188.91 211.53 189.40 209.76 189.80 C 205.59 189.89 201.43 190.13 197.28 190.45 C 197.47 195.38 197.33 200.32 196.79 205.23 C 196.06 200.93 195.69 196.59 195.70 192.24 C 194.38 191.11 193.07 189.98 191.76 188.86 C 194.15 179.81 197.79 171.16 200.08 162.09 Z" />
</g>
<g id="#3d381bff">
<path fill="#3d381b" opacity="1.00" d=" M 202.04 158.87 C 206.98 159.28 211.93 159.55 216.90 159.46 C 220.16 159.40 223.42 159.52 226.69 159.71 C 226.57 169.63 227.71 179.51 227.49 189.43 C 231.94 189.80 236.40 190.17 240.87 190.44 C 241.37 192.28 241.89 194.13 242.42 195.96 C 241.98 196.35 241.56 196.75 241.13 197.15 C 236.62 201.37 232.00 205.50 227.05 209.20 C 227.27 202.72 227.32 196.23 227.29 189.75 C 223.62 189.81 219.96 189.94 216.31 190.17 C 214.12 190.09 211.94 189.90 209.76 189.80 C 211.53 189.40 213.27 188.91 215.02 188.44 C 213.14 182.86 209.99 177.85 207.48 172.56 C 205.41 168.11 202.05 164.00 202.04 158.87 Z" />
</g>
<g id="#757a53ff">
<path fill="#757a53" opacity="1.00" d=" M 241.37 159.13 L 242.34 159.07 C 242.29 169.19 242.37 179.31 242.35 189.43 C 238.91 179.27 232.13 170.65 228.78 160.47 C 232.98 160.04 237.17 159.52 241.37 159.13 Z" />
</g>
<g id="#b5ba91ff">
<path fill="#b5ba91" opacity="1.00" d=" M 43.35 186.20 C 43.18 177.20 43.14 168.19 43.54 159.19 C 45.50 159.54 47.45 159.89 49.40 160.26 C 51.27 164.92 53.93 169.25 57.11 173.13 L 57.42 173.96 C 59.00 178.76 62.57 182.67 63.61 187.69 C 57.03 185.88 50.12 184.74 43.35 186.20 Z" />
</g>
<g id="#a0a97aff">
<path fill="#a0a97a" opacity="1.00" d=" M 57.42 173.96 C 62.21 178.33 67.00 182.72 72.67 185.96 C 72.53 186.81 72.40 187.66 72.27 188.52 C 71.97 188.92 71.36 189.71 71.06 190.11 C 70.18 189.97 68.44 189.70 67.56 189.57 C 66.24 189.26 65.01 188.65 63.75 188.16 L 63.61 187.69 C 62.57 182.67 59.00 178.76 57.42 173.96 Z" />
</g>
<g id="#848d60ff">
<path fill="#848d60" opacity="1.00" d=" M 72.67 185.96 L 72.87 184.67 C 73.02 185.07 73.32 185.88 73.47 186.28 C 73.78 187.11 74.38 188.76 74.69 189.59 C 77.22 189.63 79.75 189.65 82.28 189.80 C 84.61 190.09 86.92 190.59 89.14 191.35 C 92.74 195.69 95.72 200.72 96.67 206.35 C 94.35 206.90 92.07 207.60 89.80 208.34 C 88.05 202.56 85.55 196.89 82.03 191.97 C 79.56 190.56 76.37 190.95 73.60 190.41 C 72.75 190.31 71.90 190.21 71.06 190.11 C 71.36 189.71 71.97 188.92 72.27 188.52 C 72.40 187.66 72.53 186.81 72.67 185.96 Z" />
</g>
<g id="#54542fff">
<path fill="#54542f" opacity="1.00" d=" M 73.47 186.28 C 76.50 187.19 79.48 188.32 82.28 189.80 C 79.75 189.65 77.22 189.63 74.69 189.59 C 74.38 188.76 73.78 187.11 73.47 186.28 Z" />
</g>
<g id="#2b220eff">
<path fill="#2b220e" opacity="1.00" d=" M 186.52 206.79 C 188.02 200.74 190.07 194.85 191.76 188.86 C 193.07 189.98 194.38 191.11 195.70 192.24 C 195.69 196.59 196.06 200.93 196.79 205.23 L 196.82 205.78 C 193.41 206.37 189.97 206.69 186.52 206.79 Z" />
</g>
<g id="#626337ff">
<path fill="#626337" opacity="1.00" d=" M 67.56 189.57 C 68.44 189.70 70.18 189.97 71.06 190.11 C 71.90 190.21 72.75 190.31 73.60 190.41 C 73.73 192.21 73.84 194.01 74.06 195.81 C 71.90 193.72 69.76 191.62 67.56 189.57 Z" />
</g>
<g id="#443e26ff">
<path fill="#443e26" opacity="1.00" d=" M 197.28 190.45 C 201.43 190.13 205.59 189.89 209.76 189.80 C 211.94 189.90 214.12 190.09 216.31 190.17 C 214.64 190.58 213.00 191.07 211.36 191.54 C 214.97 197.97 218.06 204.67 221.82 211.00 C 223.26 210.72 224.70 210.46 226.14 210.14 C 224.38 211.68 222.58 213.15 220.77 214.61 C 218.18 212.01 215.55 209.23 212.00 207.99 C 207.15 206.24 201.92 206.09 196.82 205.78 L 196.79 205.23 C 197.33 200.32 197.47 195.38 197.28 190.45 Z" />
</g>
<g id="#4f4d33ff">
<path fill="#4f4d33" opacity="1.00" d=" M 216.31 190.17 C 219.96 189.94 223.62 189.81 227.29 189.75 C 227.32 196.23 227.27 202.72 227.05 209.20 C 226.82 209.43 226.36 209.91 226.14 210.14 C 224.70 210.46 223.26 210.72 221.82 211.00 C 218.06 204.67 214.97 197.97 211.36 191.54 C 213.00 191.07 214.64 190.58 216.31 190.17 Z" />
</g>
<g id="#969e6fff">
<path fill="#969e6f" opacity="1.00" d=" M 73.60 190.41 C 76.37 190.95 79.56 190.56 82.03 191.97 C 85.55 196.89 88.05 202.56 89.80 208.34 C 85.69 210.49 81.70 213.35 79.72 217.69 C 79.06 215.89 78.73 213.64 76.80 212.72 C 73.99 212.08 71.10 213.10 68.26 212.68 C 69.04 210.72 71.36 211.36 72.96 211.66 C 75.03 210.97 77.59 210.48 78.43 208.15 C 78.54 203.63 76.01 199.69 74.06 195.81 C 73.84 194.01 73.73 192.21 73.60 190.41 Z" />
</g>
<g id="#433f1fff">
<path fill="#433f1f" opacity="1.00" d=" M 104.43 192.37 C 109.52 192.51 114.60 192.22 119.62 191.42 C 118.77 194.61 117.45 197.75 117.42 201.10 C 118.28 203.31 120.76 203.65 122.72 204.35 C 122.57 206.16 122.24 207.99 122.44 209.81 C 123.59 211.85 124.87 213.83 124.81 216.30 C 122.00 213.76 119.47 210.78 116.01 209.11 C 112.45 207.26 108.44 206.61 104.50 206.17 C 104.53 201.57 104.50 196.97 104.43 192.37 Z" />
</g>
<g id="#4c482eff">
<path fill="#4c482e" opacity="1.00" d=" M 242.42 195.96 C 242.59 211.41 242.42 226.85 242.32 242.30 C 236.95 242.34 231.58 242.34 226.21 242.32 C 231.37 238.24 236.79 234.50 241.67 230.07 C 241.77 220.71 241.63 211.36 241.75 202.00 C 241.77 200.36 241.76 198.69 241.13 197.15 C 241.56 196.75 241.98 196.35 242.42 195.96 Z" />
</g>
<g id="#181308ff">
<path fill="#181308" opacity="1.00" d=" M 172.30 212.57 C 173.93 212.31 175.58 212.12 177.23 211.98 C 176.71 213.74 176.75 216.69 174.38 216.92 C 173.59 215.52 172.96 214.03 172.30 212.57 Z" />
</g>
<g id="#292916ff">
<path fill="#292916" opacity="1.00" d=" M 100.58 222.25 C 101.79 221.38 104.70 221.15 105.33 222.67 C 104.10 223.42 101.17 223.76 100.58 222.25 Z" />
</g>
<g id="#352e16ff">
<path fill="#352e16" opacity="1.00" d=" M 145.85 225.02 C 147.07 221.66 151.48 221.53 154.36 222.58 C 155.43 229.13 155.49 235.79 155.03 242.40 C 151.79 242.31 148.55 242.31 145.32 242.32 C 145.37 236.56 144.86 230.72 145.85 225.02 Z" />
</g>
<g id="#362d19ff">
<path fill="#362d19" opacity="1.00" d=" M 175.58 228.96 C 177.34 230.48 179.06 232.11 180.09 234.24 C 178.57 234.35 177.05 234.47 175.54 234.58 C 175.55 232.70 175.56 230.83 175.58 228.96 Z" />
</g>
<g id="#3f4025ff">
<path fill="#3f4025" opacity="1.00" d=" M 98.55 237.64 C 101.33 236.58 104.33 236.69 107.25 236.88 C 105.48 240.41 101.32 238.94 98.55 237.64 Z" />
</g>
<g id="#fefefeff">
<path fill="#fefefe" opacity="1.00" d=" M 73.65 248.25 C 75.45 246.32 77.65 244.73 79.08 242.48 C 80.11 244.01 81.23 245.48 82.40 246.91 C 82.51 247.28 82.72 248.00 82.83 248.36 C 79.77 248.32 76.71 248.36 73.65 248.25 Z" />
<path fill="#fefefe" opacity="1.00" d=" M 121.24 248.30 C 122.73 247.71 123.67 246.46 124.53 245.19 C 124.54 246.24 124.56 247.30 124.58 248.36 C 123.74 248.35 122.08 248.31 121.24 248.30 Z" />
<path fill="#fefefe" opacity="1.00" d=" M 175.32 246.22 C 176.58 244.59 178.80 247.44 177.57 248.65 C 177.05 248.61 176.02 248.52 175.50 248.48 C 175.45 247.91 175.37 246.79 175.32 246.22 Z" />
</g>
</svg>
