<?xml version="1.0" encoding="UTF-8"?>
<!-- Generator: Adobe Illustrator 25.3.1, SVG Export Plug-In . SVG Version: 6.00 Build 0)  -->
<svg version="1.1" id="svg8" sodipodi:docname="higan.svg" xmlns:cc="http://creativecommons.org/ns#" xmlns:dc="http://purl.org/dc/elements/1.1/" xmlns:inkscape="http://www.inkscape.org/namespaces/inkscape" xmlns:rdf="http://www.w3.org/1999/02/22-rdf-syntax-ns#" xmlns:sodipodi="http://sodipodi.sourceforge.net/DTD/sodipodi-0.dtd" xmlns:svg="http://www.w3.org/2000/svg" xmlns="http://www.w3.org/2000/svg" xmlns:xlink="http://www.w3.org/1999/xlink" x="0px" y="0px" viewBox="0 0 725.669 725.669" style="enable-background:new 0 0 725.669 725.669;" xml:space="preserve">
<style type="text/css">
	.st0{fill:#FFC0C0;}
	.st1{fill:#E01818;stroke:#E01818;stroke-width:25.5118;stroke-miterlimit:11.3386;}
</style>
<g id="layer1" transform="translate(0,-41)" inkscape:groupmode="layer" inkscape:label="Layer 1">
	<circle id="path10" class="st0" cx="362.835" cy="403.835" r="340.158"/>
	<g id="text818" transform="translate(318.55834,64.029166)">
		<path id="path827" inkscape:connector-curvature="0" class="st1" d="M34.162,330.689c30.113,45.17,63.05,86.576,98.809,124.217    c37.642,37.642,73.401,66.814,107.279,87.517c35.76,18.821,74.342,34.818,115.748,47.993    c41.406,11.292,38.583,18.821-8.469,22.585c-47.052,3.764-82.812,3.764-107.279,0c-22.585-1.882-48.934-22.585-79.047-62.109    c-28.231-39.524-72.46-102.573-132.687-189.149c-11.292,48.934-24.467,88.458-39.524,118.571    c-15.057,28.231-40.465,57.403-76.224,87.517c-35.759,28.231-73.401,45.17-112.925,50.816    c-37.642,7.528-41.406,3.764-11.292-11.292c31.995-13.175,63.991-33.877,95.986-62.109c33.877-28.231,59.286-61.168,76.224-98.809    c16.939-39.524,27.29-87.517,31.054-143.979c5.646-56.462,7.528-104.455,5.646-143.979c0-39.524-4.705-66.814-14.116-81.87    c-9.41-16.939-6.587-22.585,8.469-16.939c16.939,3.764,32.936,9.41,47.993,16.939c16.939,5.646,22.585,14.116,16.939,25.408    c-5.646,9.41-11.292,41.406-16.939,95.986C36.045,250.701,34.163,294.93,34.162,330.689L34.162,330.689z"/>
		<path id="path825" inkscape:connector-curvature="0" class="st1" d="M271.835,186.618c15.057,13.175,15.057,21.644,0,25.408    c-13.175,1.882-34.818,12.234-64.932,31.054c-28.231,16.939-55.521,31.995-81.87,45.17c-24.467,11.292-26.349,7.528-5.646-11.292    c22.585-20.703,43.288-41.406,62.109-62.109c20.703-20.703,31.054-37.642,31.054-50.816c0-15.057,6.587-18.821,19.762-11.292    C245.486,160.269,258.661,171.561,271.835,186.618L271.835,186.618z"/>
		<path id="path820" inkscape:connector-curvature="0" class="st1" d="M-157.286,239.989c-30.113-47.052-30.113-62.109,0-45.17    c30.113,15.057,49.875,29.172,59.286,42.347c9.41,11.292,10.351,27.29,2.823,47.993    C-102.706,305.861-123.409,290.805-157.286,239.989z"/>
	</g>
</g>
</svg>