<?xml version="1.0" encoding="UTF-8" standalone="no"?>
<svg
   width="441.16895pt"
   height="271.4173pt"
   viewBox="0 0 441.16895 271.4173"
   version="1.1"
   id="svg172"
   sodipodi:docname="jzintv.svg"
   inkscape:version="1.4.2 (ebf0e940d0, 2025-05-08)"
   xmlns:inkscape="http://www.inkscape.org/namespaces/inkscape"
   xmlns:sodipodi="http://sodipodi.sourceforge.net/DTD/sodipodi-0.dtd"
   xmlns="http://www.w3.org/2000/svg"
   xmlns:svg="http://www.w3.org/2000/svg">
  <defs
     id="defs172" />
  <sodipodi:namedview
     id="namedview172"
     pagecolor="#505050"
     bordercolor="#ffffff"
     borderopacity="1"
     inkscape:showpageshadow="0"
     inkscape:pageopacity="0"
     inkscape:pagecheckerboard="1"
     inkscape:deskcolor="#505050"
     inkscape:document-units="pt"
     inkscape:zoom="1.055"
     inkscape:cx="307.58294"
     inkscape:cy="74.881517"
     inkscape:window-width="1920"
     inkscape:window-height="1052"
     inkscape:window-x="0"
     inkscape:window-y="0"
     inkscape:window-maximized="1"
     inkscape:current-layer="svg172" />
  <g
     id="#ffffffff"
     transform="translate(-69.671055,-244.05271)" />
  <g
     id="#000000ff"
     transform="translate(-69.671055,-244.05271)" />
  <g
     id="#010101ff"
     transform="translate(-69.671055,-244.05271)">
    <path
       fill="#010101"
       opacity="1"
       d="m 149.17,327.86 c 1.65,-1.04 1.97,1.66 0.4,1.9 -1.69,1.06 -1.86,-1.56 -0.4,-1.9 z"
       id="path1" />
  </g>
  <g
     id="#020202ff"
     transform="translate(-69.671055,-244.05271)" />
  <g
     id="#fdfdfdff"
     transform="translate(-69.671055,-244.05271)" />
  <g
     id="#bababaff"
     transform="translate(-69.671055,-244.05271)" />
  <g
     id="#675a5aff"
     transform="translate(-69.671055,-244.05271)">
    <path
       fill="#675a5a"
       opacity="1"
       d="m 189,248.99 c 3.87,-2.31 7.88,-6.14 12.76,-4.57 31.08,6.48 61.73,14.8 92.55,22.42 l 0.22,0.53 c 0.12,0.32 0.36,0.95 0.49,1.26 2.01,0.95 4.1,1.72 6.2,2.47 -0.9,1.3 -1.8,2.6 -2.7,3.9 6.02,1.48 12.14,2.8 17.77,5.48 -1.58,0.08 -3.14,0.17 -4.71,0.19 -36.52,-9.82 -72.96,-19.87 -109.45,-29.78 -4.16,-1.45 -8.48,-0.06 -12.03,2.23 -6.06,3.82 -12.31,7.34 -18.24,11.36 1.42,0.71 2.83,1.47 4.36,1.95 6.23,1.24 12.23,3.35 18.36,5 21.09,6.41 42.45,11.89 63.53,18.29 -0.55,0.14 -1.66,0.43 -2.22,0.57 3.82,2.09 8.16,2.75 12.28,4.01 1.84,0.42 2.95,2.02 4.06,3.41 -1.07,-0.17 -2.12,-0.36 -3.17,-0.57 -22.51,-7.5 -45.61,-13.05 -68.32,-19.86 -13.34,-3.76 -26.74,-7.33 -39.93,-11.6 9.57,-5.26 18.81,-11.09 28.19,-16.69 z"
       id="path2" />
  </g>
  <g
     id="#24100fff"
     transform="translate(-69.671055,-244.05271)">
    <path
       fill="#24100f"
       opacity="1"
       d="m 190.1,253.12 c 3.55,-2.29 7.87,-3.68 12.03,-2.23 36.49,9.91 72.93,19.96 109.45,29.78 8.04,3.12 16.54,4.63 24.81,7 20.54,5.7 41.15,11.1 61.68,16.84 18.29,5.07 36.73,9.63 54.93,15.04 8.3,2.1 16.75,3.78 24.8,6.71 1.64,0.39 1.51,2.3 2.01,3.57 l -1.07,0.3 c -17.05,-4.82 -34.23,-9.17 -51.25,-14.09 -12.98,-2.9 -25.54,-7.36 -38.45,-10.55 -30.22,-8.5 -60.54,-16.6 -90.72,-25.22 -32.26,-9.23 -64.71,-17.78 -97.09,-26.63 -2.08,-0.46 -4.43,-0.96 -6.37,0.21 -4.73,2.52 -9.15,5.57 -13.8,8.23 -1.81,1.19 -4.15,2.08 -4.84,4.35 -1.53,-0.48 -2.94,-1.24 -4.36,-1.95 5.93,-4.02 12.18,-7.54 18.24,-11.36 z"
       id="path3" />
    <path
       fill="#24100f"
       opacity="1"
       d="m 346.44,334.78 c 1.23,0.5 2.46,0.99 3.7,1.49 -1.74,2.34 -4.04,4.15 -6.31,5.94 -1.23,-0.63 -2.46,-1.23 -3.7,-1.8 3.18,0.41 6.21,-0.62 8.19,-3.2 -0.63,-0.81 -1.26,-1.62 -1.88,-2.43 z"
       id="path4" />
    <path
       fill="#24100f"
       opacity="1"
       d="m 346.75,342.75 c 2.4,-3.32 5.49,-6.35 9.9,-6.24 -1.41,0.67 -2.81,1.36 -4.18,2.11 -1.09,0.98 -2.08,2.08 -3.06,3.17 -0.89,0.32 -1.78,0.64 -2.66,0.96 z"
       id="path5" />
    <path
       fill="#24100f"
       opacity="1"
       d="m 361.7,340 c 0.85,-0.2 1.7,-0.35 2.56,-0.52 -1.75,2.59 -4.07,4.7 -6.44,6.7 -0.89,-0.71 -1.79,-1.4 -2.69,-2.07 2.95,0.96 5.97,-1.18 6.57,-4.11 z"
       id="path6" />
    <path
       fill="#24100f"
       opacity="1"
       d="m 360.99,346.01 c 1.66,-1.72 3.4,-3.37 5.14,-5.01 1.62,0.04 3.24,0.07 4.87,0.09 -0.61,0.17 -1.84,0.52 -2.45,0.69 -2.43,0.65 -4.45,2.2 -5.38,4.57 -0.12,0.22 -0.38,0.66 -0.5,0.88 -0.42,-0.31 -1.26,-0.92 -1.68,-1.22 z"
       id="path7" />
    <path
       fill="#24100f"
       opacity="1"
       d="m 206.92,401.05 c 1.61,-0.5 2.15,0.08 1.62,1.73 -1.62,0.49 -2.16,-0.08 -1.62,-1.73 z"
       id="path8" />
  </g>
  <g
     id="#fbefdeff"
     transform="translate(-69.671055,-244.05271)">
    <path
       fill="#fbefde"
       opacity="1"
       d="m 194.86,253.85 c 1.94,-1.17 4.29,-0.67 6.37,-0.21 32.38,8.85 64.83,17.4 97.09,26.63 0.36,0.95 0.74,1.9 1.13,2.85 5.14,2.61 10.76,3.93 16.51,4.16 -1.15,1.05 -2.22,2.4 -3.85,2.68 -3.73,0.87 -7.32,2.37 -11.16,2.77 2.22,1.09 4.33,2.4 6.63,3.32 2.38,1.04 4.94,0.06 7.35,-0.34 1.38,1.64 2.87,3.19 4.43,4.67 -0.73,1.04 -1.45,2.08 -2.16,3.12 1.11,0.15 2.24,0.32 3.37,0.36 1.51,-2.02 2.64,-4.69 5.45,-5.07 0.51,2.57 0.79,5.43 2.71,7.42 2.01,2.51 5.35,3.04 8.23,4 2.82,0.8 5.46,2.09 7.96,3.62 -0.51,0.09 -1.52,0.28 -2.03,0.37 -5.26,-1.42 -10.46,-3.06 -15.7,-4.57 -15.52,-4.85 -31.16,-9.37 -46.87,-13.56 -7.44,-1.98 -14.71,-4.59 -22.21,-6.35 -21.08,-6.4 -42.44,-11.88 -63.53,-18.29 -6.13,-1.65 -12.13,-3.76 -18.36,-5 0.69,-2.27 3.03,-3.16 4.84,-4.35 4.65,-2.66 9.07,-5.71 13.8,-8.23 z"
       id="path9" />
    <path
       fill="#fbefde"
       opacity="1"
       d="m 343.38,331.15 c 1.9,-1.62 4.02,-1.65 5.92,-0.01 1.79,-0.71 3.55,-1.5 5.35,-2.17 l 0.96,0.22 c -1.15,1.4 -2.34,2.77 -3.46,4.2 -3.02,-0.28 -6.05,-0.84 -8.77,-2.24 z"
       id="path10" />
    <path
       fill="#fbefde"
       opacity="1"
       d="m 358.53,329.17 c 0.44,-0.05 1.31,-0.15 1.75,-0.2 -1.37,2.45 -4.6,3.98 -5.12,6.7 0.55,0.13 1.67,0.4 2.22,0.53 l -0.73,0.31 c -4.41,-0.11 -7.5,2.92 -9.9,6.24 -0.42,0.3 -1.26,0.9 -1.68,1.2 -2.53,1.68 -4.22,4.59 -7.28,5.42 0.88,-2.83 3.63,-4.38 5.38,-6.62 l 0.66,-0.54 c 2.27,-1.79 4.57,-3.6 6.31,-5.94 l 0.43,-0.53 c 2.87,-1.92 5.4,-4.27 7.96,-6.57 z"
       id="path11" />
    <path
       fill="#fbefde"
       opacity="1"
       d="m 358.27,335.82 c -3.05,-1.29 0.91,-3.55 2.08,-4.74 0.49,1.33 0.95,2.68 1.47,4.02 2.16,-0.74 4.28,-1.59 6.47,-2.25 l 0.79,0.06 -0.61,1.27 c -0.3,0.6 -0.59,1.21 -0.88,1.82 -1.78,0.62 -3.62,1.05 -5.51,1.09 -1.27,-0.44 -2.54,-0.85 -3.81,-1.27 z"
       id="path12" />
  </g>
  <g
     id="#120a0bff"
     transform="translate(-69.671055,-244.05271)">
    <path
       fill="#120a0b"
       opacity="1"
       d="m 155.8,275.86 c 3.73,-2 2.28,-7.27 5.01,-10.18 13.19,4.27 26.59,7.84 39.93,11.6 22.71,6.81 45.81,12.36 68.32,19.86 -5.23,3.97 -10.55,7.82 -16.23,11.11 -2.72,-1.51 -5.59,-2.75 -8.59,-3.56 -5.44,-1.5 -10.68,-3.68 -16.22,-4.81 -4.31,-0.85 -8.28,-2.77 -12.4,-4.2 -13.76,-3.85 -27.63,-7.43 -41.1,-12.22 -4.79,-1.49 -10.1,-0.81 -14.62,-3.27 -0.34,-0.38 -1,-1.13 -1.34,-1.51 -8.86,3.58 -16.19,9.93 -24.7,14.18 -1.71,1.11 -3.71,0.48 -5.5,-0.03 8.89,-6.04 18.37,-11.19 27.44,-16.97 z"
       id="path13" />
    <path
       fill="#120a0b"
       opacity="1"
       d="m 147.5,326.25 c 2.93,-0.18 -1.26,3.77 -2.62,3.21 -0.78,-1.5 1.49,-2.7 2.62,-3.21 z"
       id="path14" />
    <path
       fill="#120a0b"
       opacity="1"
       d="m 150.58,330.92 c 0.79,-0.64 1.59,-1.28 2.4,-1.91 1.03,0.45 2.07,0.89 3.12,1.33 -0.51,0.76 -1.02,1.53 -1.53,2.31 -1.31,-0.63 -2.64,-1.21 -3.99,-1.73 z"
       id="path15" />
  </g>
  <g
     id="#605154ff"
     transform="translate(-69.671055,-244.05271)">
    <path
       fill="#605154"
       opacity="1"
       d="m 295.02,268.63 c -0.13,-0.31 -0.37,-0.94 -0.49,-1.26 10.59,2.04 20.89,5.38 31.37,7.93 15.53,4.22 31.11,8.24 46.66,12.36 8.42,2.65 17.19,4.08 25.5,7.11 -0.58,0.18 -1.74,0.54 -2.33,0.72 1.85,0.74 3.73,1.43 5.63,2.06 -1.86,1.92 -2.35,4.57 -3.29,6.96 -20.53,-5.74 -41.14,-11.14 -61.68,-16.84 -8.27,-2.37 -16.77,-3.88 -24.81,-7 1.57,-0.02 3.13,-0.11 4.71,-0.19 -5.63,-2.68 -11.75,-4 -17.77,-5.48 0.9,-1.3 1.8,-2.6 2.7,-3.9 -2.1,-0.75 -4.19,-1.52 -6.2,-2.47 z"
       id="path16" />
  </g>
  <g
     id="#665657ff"
     transform="translate(-69.671055,-244.05271)">
    <path
       fill="#665657"
       opacity="1"
       d="m 133.86,292.86 c 8.51,-4.25 15.84,-10.6 24.7,-14.18 0.34,0.38 1,1.13 1.34,1.51 1.38,1.66 3.05,3.11 5.16,3.76 4.19,1.45 8.37,2.95 12.4,4.82 -6.28,4.72 -13.27,8.37 -19.57,13.04 3.92,2.1 8.31,2.67 12.66,3.07 2.93,1.28 5.67,3.03 8.81,3.83 11.3,3.43 22.54,7.09 33.88,10.42 -0.14,0.31 -0.43,0.93 -0.58,1.24 -0.33,0.78 -0.67,1.57 -1,2.35 1.47,1.89 2.79,3.9 3.92,6.02 -1.81,-1.31 -3.56,-2.71 -5.34,-4.05 -3.1,-2.34 -6.9,-3.37 -10.58,-4.41 -24.1,-7.47 -48.16,-15.09 -72.21,-22.71 -3.29,-0.98 -7.07,-2.32 -10.27,-0.33 -8.89,4.77 -17.59,9.88 -26.27,15.03 -1.06,-0.34 -2.12,-0.68 -3.18,-1.01 4.51,-3.53 9.74,-5.89 14.61,-8.84 1.55,-0.83 2.53,-2.31 3.45,-3.74 0.88,-1.44 2.54,-2.06 3.9,-2.92 3.14,-1.68 6,-3.88 9.33,-5.18 3.23,0.1 6.23,1.5 9.34,2.25 1.79,0.51 3.79,1.14 5.5,0.03 z"
       id="path17" />
  </g>
  <g
     id="#2a1d21ff"
     transform="translate(-69.671055,-244.05271)">
    <path
       fill="#2a1d21"
       opacity="1"
       d="m 159.9,280.19 c 4.52,2.46 9.83,1.78 14.62,3.27 13.47,4.79 27.34,8.37 41.1,12.22 4.12,1.43 8.09,3.35 12.4,4.2 5.54,1.13 10.78,3.31 16.22,4.81 3,0.81 5.87,2.05 8.59,3.56 -0.44,0.35 -1.32,1.06 -1.77,1.42 -8.69,-4.43 -18.43,-6.01 -27.65,-8.97 -12.37,-3.93 -25.07,-6.78 -37.25,-11.3 -0.05,0.57 -0.15,1.7 -0.2,2.27 l -0.54,-0.08 -0.48,-0.6 c -0.73,-1.02 -1.45,-2.07 -2.53,-2.75 -1.66,0.14 -3.3,0.34 -4.95,0.53 -4.03,-1.87 -8.21,-3.37 -12.4,-4.82 -2.11,-0.65 -3.78,-2.1 -5.16,-3.76 z"
       id="path18" />
  </g>
  <g
     id="#f7e6d2ff"
     transform="translate(-69.671055,-244.05271)">
    <path
       fill="#f7e6d2"
       opacity="1"
       d="m 298.32,280.27 c 30.18,8.62 60.5,16.72 90.72,25.22 12.91,3.19 25.47,7.65 38.45,10.55 17.02,4.92 34.2,9.27 51.25,14.09 -1.17,1.33 -2.3,2.71 -3.42,4.08 -0.19,-0.54 -0.55,-1.62 -0.74,-2.16 -2.08,2.26 -4.2,4.49 -6.07,6.93 1.87,-1.2 3.68,-2.5 5.57,-3.67 -3.25,4.42 -6.68,8.88 -11.18,12.11 1.38,-2.27 2.99,-4.37 4.39,-6.62 -2.3,2.03 -4.35,4.31 -6.42,6.57 -39.53,-10.32 -78.65,-22.13 -117.98,-33.17 0.51,-0.09 1.52,-0.28 2.03,-0.37 -2.5,-1.53 -5.14,-2.82 -7.96,-3.62 -2.88,-0.96 -6.22,-1.49 -8.23,-4 -1.92,-1.99 -2.2,-4.85 -2.71,-7.42 -2.81,0.38 -3.94,3.05 -5.45,5.07 -1.13,-0.04 -2.26,-0.21 -3.37,-0.36 0.71,-1.04 1.43,-2.08 2.16,-3.12 -1.56,-1.48 -3.05,-3.03 -4.43,-4.67 -2.41,0.4 -4.97,1.38 -7.35,0.34 -2.3,-0.92 -4.41,-2.23 -6.63,-3.32 3.84,-0.4 7.43,-1.9 11.16,-2.77 1.63,-0.28 2.7,-1.63 3.85,-2.68 -5.75,-0.23 -11.37,-1.55 -16.51,-4.16 -0.39,-0.95 -0.77,-1.9 -1.13,-2.85 z"
       id="path19" />
  </g>
  <g
     id="#0f0709ff"
     transform="translate(-69.671055,-244.05271)">
    <path
       fill="#0f0709"
       opacity="1"
       d="m 177.46,288.77 c 1.65,-0.19 3.29,-0.39 4.95,-0.53 -0.9,0.9 -1.81,1.81 -2.7,2.72 1.74,0 3.49,-0.02 5.23,0.03 l 0.48,0.6 c -0.83,0.28 -2.5,0.83 -3.34,1.11 2.01,2.3 4.96,3.35 7.45,5.01 1.61,1.16 3.64,1.15 5.54,1.23 -2.78,-2.73 -6.09,-4.83 -9.11,-7.27 0.05,-0.57 0.15,-1.7 0.2,-2.27 12.18,4.52 24.88,7.37 37.25,11.3 9.22,2.96 18.96,4.54 27.65,8.97 -3.76,3.32 -7.74,6.45 -12.19,8.82 -1.98,0.58 -4.43,0.79 -5.54,2.82 -1.91,2.97 -1.24,6.66 -0.87,9.96 1.05,0.27 2.1,0.54 3.15,0.82 2.81,0.76 5.54,1.78 8.22,2.94 2.25,1.55 4.55,3.04 6.95,4.38 -0.48,0.27 -1.43,0.81 -1.91,1.08 -3.7,-1.22 -7.44,-2.35 -11.06,-3.78 -2.36,-0.62 -5.03,-0.57 -6.93,1.15 -3.74,3.08 -6.83,6.86 -10.52,10.01 0.7,-3.02 0.95,-6.13 0.44,-9.19 0.79,-1.5 1.53,-3.03 2.25,-4.56 -3.73,2.21 -6.86,5.38 -10.89,7.07 -1.69,0.72 -3.08,1.95 -4.57,3.01 -1.49,-0.94 -2.97,-1.9 -4.54,-2.7 -1.06,-0.12 -2.13,-0.18 -3.19,-0.23 -0.06,-1.46 -0.9,-2.72 -1.62,-3.93 -0.41,-1.47 -0.79,-2.95 -1.06,-4.45 0.07,-0.54 0.19,-1.64 0.25,-2.18 0.3,-0.15 0.89,-0.46 1.18,-0.62 1.25,2.35 2.55,4.67 3.92,6.95 0.62,-3.05 0.98,-6.16 0.75,-9.27 0.4,-0.2 1.21,-0.62 1.61,-0.83 1.53,2.11 2.91,4.35 3.52,6.91 -0.14,-2.2 0.09,-4.41 1.29,-6.31 -0.4,0.18 -1.2,0.52 -1.6,0.7 -0.34,-0.19 -1.01,-0.55 -1.35,-0.74 1.16,-0.94 2.33,-1.88 3.49,-2.81 1.78,1.34 3.53,2.74 5.34,4.05 -1.13,-2.12 -2.45,-4.13 -3.92,-6.02 0.33,-0.78 0.67,-1.57 1,-2.35 0.48,0.15 1.44,0.45 1.92,0.6 1.97,1.24 3.92,2.51 5.91,3.72 -0.85,-2.76 -3.03,-4.5 -5.91,-4.74 0.58,-0.89 1.25,-1.72 1.95,-2.52 1.89,1.03 3.8,2.02 5.71,3.04 0.3,0.87 0.61,1.75 0.92,2.63 2.97,-2.68 6.09,-5.2 8.88,-8.08 1.32,-1.35 2.47,-3.04 2.51,-4.99 -1.13,-1.5 -2.85,-2.39 -4.41,-3.37 -4.14,0.22 -7.1,3.28 -10.2,5.62 -2.53,1.97 -4.95,4.14 -6.7,6.85 -11.34,-3.33 -22.58,-6.99 -33.88,-10.42 -3.14,-0.8 -5.88,-2.55 -8.81,-3.83 -4.35,-0.4 -8.74,-0.97 -12.66,-3.07 6.3,-4.67 13.29,-8.32 19.57,-13.04 m 15.53,11.56 c 0.95,1.23 1.99,2.38 3.08,3.49 1.64,-0.36 3.27,-0.7 4.92,-1.03 -1.35,-1.18 -2.7,-2.34 -4.05,-3.5 -1.32,0.33 -2.64,0.68 -3.95,1.04 m 5.76,3.74 c 1.28,2.35 4.12,2.83 6.36,3.85 4.2,1.77 8.8,2.12 13.3,2.41 1.49,0.08 3.56,-0.02 3.69,-1.96 -3.51,-0.15 -7.12,0.31 -10.52,-0.8 -4.27,-1.18 -8.21,-3.95 -12.83,-3.5 m 5.6,33.33 c -0.44,1.64 0.13,2.22 1.72,1.75 0.46,-1.61 -0.12,-2.19 -1.72,-1.75 z"
       id="path20" />
    <path
       fill="#0f0709"
       opacity="1"
       d="m 369.13,339.63 c -1.16,-1.12 0.52,-2.33 1.53,-2.64 0.28,0.57 0.85,1.71 1.13,2.27 -0.82,0.73 -1.71,0.85 -2.66,0.37 z"
       id="path21" />
  </g>
  <g
     id="#5b5154ff"
     transform="translate(-69.671055,-244.05271)">
    <path
       fill="#5b5154"
       opacity="1"
       d="m 179.71,290.96 c 0.89,-0.91 1.8,-1.82 2.7,-2.72 1.08,0.68 1.8,1.73 2.53,2.75 -1.74,-0.05 -3.49,-0.03 -5.23,-0.03 z"
       id="path22" />
  </g>
  <g
     id="#5a4b4eff"
     transform="translate(-69.671055,-244.05271)">
    <path
       fill="#5a4b4e"
       opacity="1"
       d="m 255.89,290.29 c 0.56,-0.14 1.67,-0.43 2.22,-0.57 7.5,1.76 14.77,4.37 22.21,6.35 -2.52,0.05 -5.02,0.26 -7.52,0.48 0.97,0.79 1.94,1.57 2.95,2.31 -4.14,0.91 -7.46,3.68 -10.76,6.17 -1.1,0.98 -2.72,1.83 -2.77,3.5 8.21,2.7 16.69,4.57 24.92,7.25 1.92,0.4 4.12,1.7 5.96,0.43 3.12,-1.9 5.84,-4.38 8.92,-6.33 -2.85,2.67 -5.94,5.11 -8.35,8.21 5.73,1.25 11.15,4.08 17.01,4.54 4.49,-2.69 8.88,-5.88 12.07,-10.11 1.37,-1.12 2.91,-2.01 4.44,-2.89 5.24,1.51 10.44,3.15 15.7,4.57 39.33,11.04 78.45,22.85 117.98,33.17 2.07,-2.26 4.12,-4.54 6.42,-6.57 -1.4,2.25 -3.01,4.35 -4.39,6.62 4.5,-3.23 7.93,-7.69 11.18,-12.11 -1.89,1.17 -3.7,2.47 -5.57,3.67 1.87,-2.44 3.99,-4.67 6.07,-6.93 0.19,0.54 0.55,1.62 0.74,2.16 1.12,-1.37 2.25,-2.75 3.42,-4.08 l 1.07,-0.3 c 1.15,1.01 2.32,2 3.49,3 -4.38,6.03 -9.62,11.36 -14.57,16.91 -2.64,3.1 -6.76,4.48 -9.19,7.79 -1.57,2.02 -2.96,4.17 -4.55,6.18 -3.17,3.89 -6.42,7.72 -9.83,11.41 0.51,-1.42 0.97,-2.85 1.4,-4.28 -0.38,0.07 -1.13,0.23 -1.51,0.31 1.64,-1.41 3.43,-2.76 4.54,-4.66 0.93,-2.57 -0.17,-5.23 -1.46,-7.46 -1.19,2.78 -2.66,5.47 -4.89,7.56 0.94,-3.16 3.83,-6.52 2.03,-9.86 -2.73,-4.92 -8.25,-7.34 -13.52,-8.45 -8.39,-1.85 -17.8,-1.51 -25.2,3.26 -3.49,1.73 -6.89,3.98 -8.32,7.8 -1.42,3.41 1.46,6.39 3.11,9.11 1.51,2.77 4.84,3.31 7.08,5.21 0.88,1.56 -0.13,3.34 -0.32,4.96 -22.47,-7 -44.84,-14.31 -67.35,-21.2 -13.68,-4.13 -27.44,-7.99 -41.02,-12.46 1.67,-1.37 3.25,-2.91 5.22,-3.85 2.83,-0.55 6.06,1.5 8.54,-0.6 3.73,-2.7 7.19,-5.77 11.24,-8.02 0.42,0.38 1.28,1.14 1.7,1.51 -2.69,2.43 -5.55,4.69 -7.92,7.44 -1.73,1.9 -0.9,4.66 -0.98,6.98 18.01,6.5 36.76,10.78 54.96,16.74 4.63,2.56 10.54,2.68 14.94,-0.47 4.15,-3.6 7.68,-7.82 11.67,-11.57 3.08,-3.24 6.64,-6.1 9.12,-9.85 1.14,-1.52 -0.35,-3.06 -1.34,-4.13 -4.07,-4.41 -10.23,-5.51 -15.69,-7.29 -9.65,-2.6 -19.16,-5.66 -28.82,-8.23 -5.64,-1.79 -11.44,-3.69 -17.43,-2.97 -5.09,-2.89 -10.65,-5.23 -16.47,-6.03 -5.24,3.43 -9.93,7.62 -14.95,11.35 -3.87,-1.81 -8.24,-1.95 -12.14,-0.17 -0.39,1.39 -0.88,2.76 -1.76,3.93 -1.72,0.75 -3.42,1.5 -5.12,2.28 0.06,-0.9 0.13,-1.8 0.21,-2.69 -2.2,-0.8 -4.39,-1.61 -6.6,-2.38 -1.7,1.09 -3.39,2.19 -5.1,3.25 0.96,-1.35 1.92,-2.7 2.89,-4.04 -2.5,-0.66 -4.97,-1.73 -7.59,-1.71 -5.06,2.6 -8.91,6.97 -13.35,10.45 -0.34,-0.06 -1.01,-0.19 -1.34,-0.26 4.14,-4.06 9.1,-7.17 13.14,-11.34 -2.46,-0.75 -4.91,-1.94 -7.53,-1.83 -2.34,0.75 -4.22,2.44 -6.23,3.77 1.36,-1.66 2.73,-3.33 4.11,-4.98 -1.78,-0.1 -3.63,-0.1 -5.28,-0.89 -3.09,-1.42 -6.58,-1.62 -9.62,-3.16 -1.11,-0.69 -2.24,0.23 -3.19,0.73 -4.45,2.7 -8,6.77 -12.82,8.87 -0.19,-0.2 -0.58,-0.6 -0.77,-0.8 0.85,-2.31 2.15,-4.42 3.44,-6.51 4.45,-2.37 8.43,-5.5 12.19,-8.82 0.45,-0.36 1.33,-1.07 1.77,-1.42 5.68,-3.29 11,-7.14 16.23,-11.11 1.05,0.21 2.1,0.4 3.17,0.57 -1.11,-1.39 -2.22,-2.99 -4.06,-3.41 -4.12,-1.26 -8.46,-1.92 -12.28,-4.01 z"
       id="path23" />
  </g>
  <g
     id="#7b6a6cff"
     transform="translate(-69.671055,-244.05271)">
    <path
       fill="#7b6a6c"
       opacity="1"
       d="m 182.08,292.7 c 0.84,-0.28 2.51,-0.83 3.34,-1.11 l 0.54,0.08 c 3.02,2.44 6.33,4.54 9.11,7.27 -1.9,-0.08 -3.93,-0.07 -5.54,-1.23 -2.49,-1.66 -5.44,-2.71 -7.45,-5.01 z"
       id="path24" />
    <path
       fill="#7b6a6c"
       opacity="1"
       d="m 198.75,304.07 c 4.62,-0.45 8.56,2.32 12.83,3.5 3.4,1.11 7.01,0.65 10.52,0.8 -0.13,1.94 -2.2,2.04 -3.69,1.96 -4.5,-0.29 -9.1,-0.64 -13.3,-2.41 -2.24,-1.02 -5.08,-1.5 -6.36,-3.85 z"
       id="path25" />
    <path
       fill="#7b6a6c"
       opacity="1"
       d="m 493.96,340.23 c 1.16,-0.51 2.3,-1.03 3.47,-1.53 0.94,4.27 0.9,8.65 1.13,12.99 -6.56,8.05 -13.07,16.14 -19.58,24.22 -2.01,2.51 -4.46,4.6 -6.78,6.8 -0.47,-3.95 2.16,-7.17 3.51,-10.66 1.2,-3.01 3.32,-5.48 5.36,-7.95 2.11,-2.53 3.69,-5.59 6.49,-7.45 1.39,-1.17 3.47,-1.95 3.91,-3.92 1.1,-4.1 1.65,-8.34 2.49,-12.5 z"
       id="path26" />
  </g>
  <g
     id="#594a4fff"
     transform="translate(-69.671055,-244.05271)">
    <path
       fill="#594a4f"
       opacity="1"
       d="m 395.73,295.49 c 0.59,-0.18 1.75,-0.54 2.33,-0.72 8.43,1.57 16.52,4.55 24.86,6.52 10.42,3.18 21,5.85 31.35,9.28 0.81,2.07 2.81,2.98 4.72,3.79 -1.74,2.01 -3.72,3.8 -5.99,5.19 -18.2,-5.41 -36.64,-9.97 -54.93,-15.04 0.94,-2.39 1.43,-5.04 3.29,-6.96 -1.9,-0.63 -3.78,-1.32 -5.63,-2.06 z"
       id="path27" />
  </g>
  <g
     id="#1e0d0dff"
     transform="translate(-69.671055,-244.05271)">
    <path
       fill="#1e0d0d"
       opacity="1"
       d="m 117.18,297.24 c 3.2,-1.99 6.98,-0.65 10.27,0.33 24.05,7.62 48.11,15.24 72.21,22.71 3.68,1.04 7.48,2.07 10.58,4.41 -1.16,0.93 -2.33,1.87 -3.49,2.81 -4.71,-2.93 -10.21,-4.04 -15.39,-5.84 -17.03,-5.35 -33.97,-11.04 -51.17,-15.81 -6.11,-1.92 -12.04,-4.5 -18.34,-5.75 -3.57,-0.94 -6.67,1.53 -9.59,3.18 -6.19,3.89 -12.8,7.13 -18.64,11.55 -1.63,-0.27 -3.25,-0.55 -4.82,-1.05 0.53,-0.38 1.58,-1.13 2.11,-1.51 8.68,-5.15 17.38,-10.26 26.27,-15.03 z"
       id="path28" />
    <path
       fill="#1e0d0d"
       opacity="1"
       d="m 137.77,326.73 c 1.43,-1.38 3.3,-2.06 5.14,-2.67 0.38,1.18 0.74,2.36 1.09,3.56 -0.35,0.29 -1.04,0.87 -1.39,1.16 -0.28,-0.6 -0.86,-1.79 -1.15,-2.38 -1.23,0.1 -2.46,0.24 -3.69,0.33 z"
       id="path29" />
  </g>
  <g
     id="#645854ff"
     transform="translate(-69.671055,-244.05271)">
    <path
       fill="#645854"
       opacity="1"
       d="m 272.8,296.55 c 2.5,-0.22 5,-0.43 7.52,-0.48 15.71,4.19 31.35,8.71 46.87,13.56 -1.53,0.88 -3.07,1.77 -4.44,2.89 -6.62,-0.34 -12.4,-4.81 -19.13,-3.96 -0.08,-0.54 -0.26,-1.62 -0.34,-2.16 -2.05,0.71 -4.04,1.54 -5.99,2.47 0.6,-0.98 1.2,-1.96 1.79,-2.95 -6.24,-1.19 -12.05,-3.84 -18.24,-5.17 -1.71,-0.6 -3.41,-1.22 -5.09,-1.89 -1.01,-0.74 -1.98,-1.52 -2.95,-2.31 z"
       id="path30" />
    <path
       fill="#645854"
       opacity="1"
       d="m 115.73,318.41 c 6.78,2.23 14.31,3.06 20.28,7.2 -4.16,-0.93 -8.26,-2.08 -12.17,-3.8 -2.7,-1.11 -6.09,-1.04 -8.11,-3.4 z"
       id="path31" />
  </g>
  <g
     id="#5f4d4cff"
     transform="translate(-69.671055,-244.05271)">
    <path
       fill="#5f4d4c"
       opacity="1"
       d="m 91.37,306.42 c 4.91,-2.39 9.24,-5.92 14.42,-7.74 -0.92,1.43 -1.9,2.91 -3.45,3.74 -4.87,2.95 -10.1,5.31 -14.61,8.84 1.06,0.33 2.12,0.67 3.18,1.01 -0.53,0.38 -1.58,1.13 -2.11,1.51 1.57,0.5 3.19,0.78 4.82,1.05 7.77,3.22 15.98,5.22 23.67,8.63 -2.58,0.12 -5.15,-0.17 -7.63,-0.87 -0.87,2.67 -2.08,5.21 -3.57,7.59 -7.6,-2.66 -14.97,-5.92 -22.51,-8.72 -3.46,-1.25 -6.75,-2.93 -9.95,-4.72 5.71,-3.76 11.9,-6.76 17.74,-10.32 z"
       id="path32" />
  </g>
  <g
     id="#6d5d60ff"
     transform="translate(-69.671055,-244.05271)">
    <path
       fill="#6d5d60"
       opacity="1"
       d="m 192.99,300.33 c 1.31,-0.36 2.63,-0.71 3.95,-1.04 1.35,1.16 2.7,2.32 4.05,3.5 -1.65,0.33 -3.28,0.67 -4.92,1.03 -1.09,-1.11 -2.13,-2.26 -3.08,-3.49 z"
       id="path33" />
    <path
       fill="#6d5d60"
       opacity="1"
       d="m 203.05,341.5 c 1.57,0.8 3.05,1.76 4.54,2.7 -0.02,0.85 -0.03,1.71 -0.01,2.58 -0.49,5.11 4.09,8.31 5.93,12.57 1.06,4.43 1.9,8.96 4.1,13.02 0.76,1.92 1.53,3.85 2.3,5.77 3.8,9.24 7.32,18.6 11.46,27.69 3.35,8.01 6.64,16.05 9.74,24.16 l -0.86,-0.47 C 227.32,400.4 215.32,370.89 203.05,341.5 Z"
       id="path34" />
    <path
       fill="#6d5d60"
       opacity="1"
       d="m 373.32,393.05 c 3.24,0.97 6.49,1.9 9.74,2.86 -0.18,-0.91 -0.35,-1.8 -0.52,-2.7 2.35,0.86 4.72,1.66 7.12,2.37 -0.52,0.37 -1.57,1.11 -2.09,1.48 -2.66,1.81 -4.96,4.08 -7.41,6.13 -0.55,-0.3 -1.64,-0.91 -2.18,-1.22 1.35,-1.83 2.67,-3.69 3.87,-5.63 -3.13,1.27 -4.75,4.38 -7.09,6.61 -2.48,0.4 -4.76,-1.35 -7.01,-2.16 0.67,-1.19 1.37,-2.37 2.14,-3.5 1.09,-1.46 2.26,-2.85 3.43,-4.24 z"
       id="path35" />
  </g>
  <g
     id="#150a0cff"
     transform="translate(-69.671055,-244.05271)">
    <path
       fill="#150a0c"
       opacity="1"
       d="m 264.99,305.03 c 3.3,-2.49 6.62,-5.26 10.76,-6.17 1.68,0.67 3.38,1.29 5.09,1.89 6.19,1.33 12,3.98 18.24,5.17 -0.59,0.99 -1.19,1.97 -1.79,2.95 1.95,-0.93 3.94,-1.76 5.99,-2.47 0.08,0.54 0.26,1.62 0.34,2.16 6.73,-0.85 12.51,3.62 19.13,3.96 -3.19,4.23 -7.58,7.42 -12.07,10.11 -5.86,-0.46 -11.28,-3.29 -17.01,-4.54 2.41,-3.1 5.5,-5.54 8.35,-8.21 -3.08,1.95 -5.8,4.43 -8.92,6.33 -1.84,1.27 -4.04,-0.03 -5.96,-0.43 -8.23,-2.68 -16.71,-4.55 -24.92,-7.25 0.05,-1.67 1.67,-2.52 2.77,-3.5 z"
       id="path36" />
  </g>
  <g
     id="#ead2bcff"
     transform="translate(-69.671055,-244.05271)">
    <path
       fill="#ead2bc"
       opacity="1"
       d="m 112.26,303.28 c 2.92,-1.65 6.02,-4.12 9.59,-3.18 6.3,1.25 12.23,3.83 18.34,5.75 -2.29,0.87 -4.73,0.92 -7.13,0.62 1.82,1.62 3.55,3.33 5.22,5.12 -2.98,1.99 -6.31,-0.58 -9.46,0.33 -3.27,0.93 -7.49,1.25 -8.62,5.09 -1.81,-0.15 -3.62,-0.28 -5.43,-0.35 0.24,0.44 0.72,1.32 0.96,1.75 2.02,2.36 5.41,2.29 8.11,3.4 -1.51,0.5 -2.96,1.16 -4.39,1.86 -0.72,-0.09 -1.44,-0.15 -2.16,-0.21 -7.69,-3.41 -15.9,-5.41 -23.67,-8.63 5.84,-4.42 12.45,-7.66 18.64,-11.55 m -9.46,11.08 c 3.42,2.21 7.54,2.84 11.24,4.43 -2.77,-3.34 -7.28,-3.65 -11.24,-4.43 z"
       id="path37" />
    <path
       fill="#ead2bc"
       opacity="1"
       d="m 204.58,405.94 c 0.29,-4 2.22,-7.71 5.59,-9.96 0.6,3.15 0.53,6.83 -2.03,9.15 -0.7,1.21 -2.72,2.67 -3.56,0.81 m 2.34,-4.89 c -0.54,1.65 0,2.22 1.62,1.73 0.53,-1.65 -0.01,-2.23 -1.62,-1.73 z"
       id="path38" />
  </g>
  <g
     id="#f1e0c9ff"
     transform="translate(-69.671055,-244.05271)">
    <path
       fill="#f1e0c9"
       opacity="1"
       d="m 133.06,306.47 c 2.4,0.3 4.84,0.25 7.13,-0.62 1.88,3.34 5.8,3.96 9.16,4.94 4.27,1.13 8.43,2.64 12.61,4.1 1.25,1.31 2.63,2.49 4.09,3.59 -5.14,1.41 -10.43,1.96 -15.72,2.31 -2.87,-0.01 -5.09,1.9 -7.42,3.27 -1.84,0.61 -3.71,1.29 -5.14,2.67 -0.55,-0.44 -1.19,-0.74 -1.76,-1.12 -5.97,-4.14 -13.5,-4.97 -20.28,-7.2 -0.24,-0.43 -0.72,-1.31 -0.96,-1.75 1.81,0.07 3.62,0.2 5.43,0.35 1.13,-3.84 5.35,-4.16 8.62,-5.09 3.15,-0.91 6.48,1.66 9.46,-0.33 -1.67,-1.79 -3.4,-3.5 -5.22,-5.12 z"
       id="path39" />
  </g>
  <g
     id="#dbc5bcff"
     transform="translate(-69.671055,-244.05271)">
    <path
       fill="#dbc5bc"
       opacity="1"
       d="m 140.19,305.85 c 17.2,4.77 34.14,10.46 51.17,15.81 5.18,1.8 10.68,2.91 15.39,5.84 0.34,0.19 1.01,0.55 1.35,0.74 0.4,-0.18 1.2,-0.52 1.6,-0.7 -1.2,1.9 -1.43,4.11 -1.29,6.31 -0.61,-2.56 -1.99,-4.8 -3.52,-6.91 -0.4,0.21 -1.21,0.63 -1.61,0.83 l -0.6,0.31 c -5.95,-3.26 -12.76,-4.27 -19.04,-6.67 -7.21,-2.24 -14.4,-4.55 -21.68,-6.52 -4.18,-1.46 -8.34,-2.97 -12.61,-4.1 -3.36,-0.98 -7.28,-1.6 -9.16,-4.94 z"
       id="path40" />
    <path
       fill="#dbc5bc"
       opacity="1"
       d="m 379.79,342.54 c 2.25,-1.78 4.22,-3.86 6.25,-5.88 0.6,0.21 1.8,0.62 2.4,0.82 -2.01,2.13 -5.21,3.66 -5.7,6.82 2.25,-1.7 3.56,-4.54 6.36,-5.48 4.28,0.7 8.95,0.41 12.68,2.98 -3.56,3.77 -7.2,7.46 -10.89,11.09 -2.74,2.64 -5.13,5.8 -8.64,7.48 1.52,-5.32 6.98,-7.25 10.1,-11.38 -3.79,-1.62 -7.71,-3.95 -11.92,-3.67 -1.97,1.54 -3.52,3.52 -5.2,5.35 1.09,0.46 2.18,0.93 3.26,1.42 -2.15,-2.52 0.55,-4.78 2.77,-5.87 3.34,-0.34 6.49,1.16 9.27,2.86 -1.54,2.95 -4.53,4.73 -7.65,5.59 -3.2,0.46 -5.82,-1.72 -8.77,-2.48 -3.41,0.77 -4.62,5.89 -8.5,5.25 1.49,-2.37 3.73,-4.19 4.91,-6.77 0.15,-0.13 0.43,-0.41 0.58,-0.54 2.86,-1.27 5.2,-3.37 7.13,-5.79 -1.08,-0.57 -2.16,-1.13 -3.24,-1.66 0.27,-0.18 0.82,-0.53 1.09,-0.71 1.24,0.1 2.47,0.36 3.71,0.57 m 2.04,7.32 c 1.38,0.04 2.77,0.07 4.17,0.11 0.01,-0.57 0.03,-1.71 0.04,-2.28 -1.71,0.28 -4.37,-0.41 -4.21,2.17 z"
       id="path41" />
  </g>
  <g
     id="#5f545aff"
     transform="translate(-69.671055,-244.05271)">
    <path
       fill="#5f545a"
       opacity="1"
       d="m 219.94,312.28 c 3.1,-2.34 6.06,-5.4 10.2,-5.62 1.72,2.35 1.53,5.1 0,7.48 -1.72,-0.75 -3.42,-1.51 -5.14,-2.25 1.07,1.59 2.15,3.18 3.21,4.78 -2.74,-1.49 -5.51,-2.93 -8.27,-4.39 z"
       id="path42" />
  </g>
  <g
     id="#2d2227ff"
     transform="translate(-69.671055,-244.05271)">
    <path
       fill="#2d2227"
       opacity="1"
       d="m 230.14,306.66 c 1.56,0.98 3.28,1.87 4.41,3.37 -0.04,1.95 -1.19,3.64 -2.51,4.99 -2.79,2.88 -5.91,5.4 -8.88,8.08 -0.31,-0.88 -0.62,-1.76 -0.92,-2.63 0.16,-0.63 0.48,-1.9 0.65,-2.54 -2.09,-0.43 -4.23,-0.82 -6.36,-0.5 -0.7,0.8 -1.37,1.63 -1.95,2.52 v 1.02 c -0.48,-0.15 -1.44,-0.45 -1.92,-0.6 0.15,-0.31 0.44,-0.93 0.58,-1.24 1.75,-2.71 4.17,-4.88 6.7,-6.85 2.76,1.46 5.53,2.9 8.27,4.39 -1.06,-1.6 -2.14,-3.19 -3.21,-4.78 1.72,0.74 3.42,1.5 5.14,2.25 1.53,-2.38 1.72,-5.13 0,-7.48 m -11.22,8.62 c 2.43,0.87 4.84,1.82 7.3,2.63 -1.55,-2.43 -4.56,-4.04 -7.3,-2.63 z"
       id="path43" />
  </g>
  <g
     id="#524246ff"
     transform="translate(-69.671055,-244.05271)">
    <path
       fill="#524246"
       opacity="1"
       d="m 458.99,314.36 c -1.91,-0.81 -3.91,-1.72 -4.72,-3.79 12.75,3.41 25.4,7.28 37.96,11.35 l -0.4,0.42 c -3.15,3.23 -6,6.75 -8.53,10.49 -1.17,-1 -2.34,-1.99 -3.49,-3 -0.5,-1.27 -0.37,-3.18 -2.01,-3.57 -8.05,-2.93 -16.5,-4.61 -24.8,-6.71 2.27,-1.39 4.25,-3.18 5.99,-5.19 z"
       id="path44" />
    <path
       fill="#524246"
       opacity="1"
       d="m 345.39,325.96 c 4.58,-0.38 9.26,0.75 13.14,3.21 -2.56,2.3 -5.09,4.65 -7.96,6.57 0.52,-0.79 1.04,-1.57 1.58,-2.35 1.12,-1.43 2.31,-2.8 3.46,-4.2 l -0.96,-0.22 c -2.98,-1.33 -7.09,-0.28 -9.26,-3.01 z"
       id="path45" />
  </g>
  <g
     id="#4e2f32ff"
     transform="translate(-69.671055,-244.05271)">
    <path
       fill="#4e2f32"
       opacity="1"
       d="m 102.8,314.36 c 3.96,0.78 8.47,1.09 11.24,4.43 -3.7,-1.59 -7.82,-2.22 -11.24,-4.43 z"
       id="path46" />
    <path
       fill="#4e2f32"
       opacity="1"
       d="m 70.44,343.66 c -1.75,-7.4 -0.05,-15.02 0.56,-22.47 1.24,1.45 2.55,2.94 4.47,3.48 7.92,2.81 15.83,5.71 23.47,9.24 1.4,2 2.94,4 3.7,6.36 0.22,2.49 -0.23,4.98 -0.47,7.46 5.83,2.67 11.85,5.84 18.48,5.37 -0.45,-2.23 -0.87,-4.46 -1.28,-6.7 1.52,-0.1 3.03,-0.2 4.55,-0.29 -0.2,3.15 -1.24,6.21 -1.26,9.36 1.85,4.01 5.96,6.22 9.38,8.73 -1.76,0.48 -3.53,0.97 -5.31,1.4 -2.62,-0.65 -5.18,-1.53 -7.63,-2.66 -8.14,-3.85 -16.9,-6.14 -25.05,-9.94 -6.69,-2.32 -13.39,-5.45 -20.63,-5.2 -2.12,0.03 -2.32,-2.66 -2.98,-4.14 z"
       id="path47" />
  </g>
  <g
     id="#4b363bff"
     transform="translate(-69.671055,-244.05271)">
    <path
       fill="#4b363b"
       opacity="1"
       d="m 328.47,314.62 c 5.82,0.8 11.38,3.14 16.47,6.03 -2.6,0.43 -5.18,1.31 -7.1,3.18 -3.77,3.44 -7.48,6.92 -11.41,10.17 -0.42,-0.37 -1.28,-1.13 -1.7,-1.51 -4.05,2.25 -7.51,5.32 -11.24,8.02 -2.48,2.1 -5.71,0.05 -8.54,0.6 -1.97,0.94 -3.55,2.48 -5.22,3.85 -1.27,-0.38 -2.54,-0.76 -3.8,-1.14 9.41,-9.01 20.15,-16.43 29.87,-25.08 1.28,-1.09 1.99,-2.63 2.67,-4.12 z"
       id="path48" />
  </g>
  <g
     id="#f9eddcff"
     transform="translate(-69.671055,-244.05271)">
    <path
       fill="#f9eddc"
       opacity="1"
       d="m 161.96,314.89 c 7.28,1.97 14.47,4.28 21.68,6.52 6.28,2.4 13.09,3.41 19.04,6.67 -1.34,0.7 -2.7,1.37 -4.07,2.01 -0.29,0.16 -0.88,0.47 -1.18,0.62 -0.06,0.54 -0.18,1.64 -0.25,2.18 l -0.07,0.78 c -2.02,-0.99 -4.18,-2.07 -6.49,-1.44 -0.05,1.33 -0.04,2.67 -0.04,4.01 -1.56,-0.78 -2.86,-1.96 -4.41,-2.74 -0.68,0.38 -2.03,1.15 -2.71,1.53 -0.35,4.36 1.96,8.14 4.49,11.47 -0.3,0.13 -0.91,0.4 -1.22,0.53 -5.38,-2.48 -11.05,-4.18 -16.62,-6.17 -16.93,-5.61 -33.71,-11.65 -50.66,-17.19 1.43,-0.7 2.88,-1.36 4.39,-1.86 3.91,1.72 8.01,2.87 12.17,3.8 0.57,0.38 1.21,0.68 1.76,1.12 1.23,-0.09 2.46,-0.23 3.69,-0.33 0.29,0.59 0.87,1.78 1.15,2.38 0.35,-0.29 1.04,-0.87 1.39,-1.16 -0.35,-1.2 -0.71,-2.38 -1.09,-3.56 2.33,-1.37 4.55,-3.28 7.42,-3.27 5.29,-0.35 10.58,-0.9 15.72,-2.31 -1.46,-1.1 -2.84,-2.28 -4.09,-3.59 m -14.46,11.36 c -1.13,0.51 -3.4,1.71 -2.62,3.21 1.36,0.56 5.55,-3.39 2.62,-3.21 m 1.67,1.61 c -1.46,0.34 -1.29,2.96 0.4,1.9 1.57,-0.24 1.25,-2.94 -0.4,-1.9 m 1.41,3.06 c 1.35,0.52 2.68,1.1 3.99,1.73 0.51,-0.78 1.02,-1.55 1.53,-2.31 -1.05,-0.44 -2.09,-0.88 -3.12,-1.33 -0.81,0.63 -1.61,1.27 -2.4,1.91 m 6.8,0.12 c -0.87,0.27 -2.25,2.22 -0.73,2.53 1.69,0.26 3.28,-3.49 0.73,-2.53 m 3.13,0.29 c -0.92,0.51 -2.19,2.66 -0.57,3.1 1.76,0.24 2.91,-4.07 0.57,-3.1 m 3.2,1.12 c -0.54,1.07 -1.09,2.13 -1.65,3.19 1.17,-0.39 2.3,-0.87 3.46,-1.28 1.51,2.04 3.9,2.87 6.23,3.6 0.34,-0.46 1.03,-1.39 1.38,-1.85 -3.44,-0.5 -6.04,-3.18 -9.42,-3.66 m 11.6,3.88 c -1.33,0.73 -1.38,1.43 -0.13,2.1 1.34,-0.73 1.38,-1.43 0.13,-2.1 m 1.92,0.57 c 0.05,0.84 0.13,2.51 0.17,3.35 1.15,-0.6 2.35,-1.1 3.51,-1.69 -1.23,-0.54 -2.45,-1.11 -3.68,-1.66 z"
       id="path49" />
  </g>
  <g
     id="#645c60ff"
     transform="translate(-69.671055,-244.05271)">
    <path
       fill="#645c60"
       opacity="1"
       d="m 218.92,315.28 c 2.74,-1.41 5.75,0.2 7.3,2.63 -2.46,-0.81 -4.87,-1.76 -7.3,-2.63 z"
       id="path50" />
  </g>
  <g
     id="#1c0f13ff"
     transform="translate(-69.671055,-244.05271)">
    <path
       fill="#1c0f13"
       opacity="1"
       d="m 313.52,325.97 c 5.02,-3.73 9.71,-7.92 14.95,-11.35 -0.68,1.49 -1.39,3.03 -2.67,4.12 -9.72,8.65 -20.46,16.07 -29.87,25.08 1.26,0.38 2.53,0.76 3.8,1.14 13.58,4.47 27.34,8.33 41.02,12.46 22.51,6.89 44.88,14.2 67.35,21.2 9.12,2.8 18.21,5.73 27.48,8.03 3.01,-4 6.2,-7.85 9.58,-11.53 3.41,-3.69 6.66,-7.52 9.83,-11.41 1.02,0.68 2.05,1.37 3.08,2.06 -3.53,3.62 -6.57,7.66 -9.65,11.66 -2.73,3.58 -6.12,6.67 -8.41,10.57 -1.37,2.23 0.04,4.8 0.48,7.1 5.42,-5.14 9.77,-11.33 15.66,-15.96 5,-3.86 7.03,-10.33 12.21,-13.99 0.39,-0.3 1.15,-0.91 1.54,-1.22 0.39,3.29 -2,5.76 -3.92,8.09 -2.8,3.24 -5.38,6.66 -8.28,9.81 -3.61,3.47 -7.19,7.17 -8.88,12 6.6,-0.41 11.83,-5.17 18.15,-6.75 0.53,-0.21 1.6,-0.63 2.13,-0.84 1.05,-1.16 2.06,-2.36 3.1,-3.53 2.32,-2.2 4.77,-4.29 6.78,-6.8 6.51,-8.08 13.02,-16.17 19.58,-24.22 -0.14,1.02 -0.24,2.09 -0.95,2.9 -2.52,3.43 -5.06,6.86 -7.95,10 -4.85,5.05 -8.86,10.82 -13.24,16.27 -1.24,1.52 -2.49,3.02 -3.71,4.57 -1.93,2.61 -4.24,5.25 -4.56,8.63 -0.33,4.14 -4.43,6.31 -6.86,9.23 -5.41,6 -10.77,12.05 -16.43,17.82 3.93,2.48 8.43,3.76 12.82,5.17 3.64,1.11 7.08,3.3 10.97,3.37 1.66,-1.34 2.99,-3.03 4.36,-4.66 7.35,-9.39 15.36,-18.23 23.18,-27.23 0.6,-0.72 1.19,-1.45 1.76,-2.2 4.53,5.59 8.91,11.31 12.89,17.3 -9.44,12.25 -19.27,24.21 -28.91,36.31 -12.75,-3.82 -25.07,-9.06 -37.81,-12.92 l -0.71,0.12 c -3.08,3.34 -5.49,7.22 -8.32,10.76 -2.24,-1.57 -4.33,-3.66 -7.09,-4.18 -1.46,0.39 -2.82,1.03 -4.19,1.64 -0.96,-4.11 -4.55,-7.3 -4.54,-11.63 -0.09,-3.11 2.66,-5.05 4.59,-7.06 4.46,-4.04 6.76,-9.8 10.95,-14.09 1.99,-2.48 4.77,-4.63 5.7,-7.77 -0.3,-3.68 -2.09,-7.02 -3.44,-10.39 -9.88,10.63 -19.57,21.47 -28.79,32.68 -1.8,2.56 -4.75,5.03 -4.28,8.49 0.49,5.62 2.56,10.97 3.27,16.56 0.55,4.32 1.02,8.65 1.64,12.96 -0.28,0.87 -0.56,1.75 -0.83,2.64 2.47,-2.17 5.03,-4.23 7.79,-6 -0.5,4.16 -1.34,8.28 -2.06,12.41 -1.06,2.9 -5.1,3.77 -7.71,2.47 -25.94,-9.38 -51.62,-19.41 -77.58,-28.73 l -0.09,-0.5 c -0.07,-0.36 -0.21,-1.07 -0.28,-1.42 -1.91,-1.19 -4.01,-2.01 -6.11,-2.74 1.97,-0.18 3.92,-0.6 5.75,-1.4 24.59,6.94 48.28,16.85 73.03,23.19 -0.18,-7.29 -1.58,-14.5 -3.54,-21.51 -0.83,-3.05 -2.45,-6.2 -5.56,-7.41 -5.62,-2.37 -11.58,-3.79 -17.4,-5.57 -6.47,-1.66 -12.67,-4.15 -19.08,-6.03 -8.52,-3.74 -17.73,-5.38 -26.46,-8.52 -8.09,-2.5 -16.22,-4.87 -24.1,-8 -6.42,-2.61 -13.34,-3.59 -19.8,-6.08 -8.63,-3.28 -17.65,-5.38 -26.23,-8.79 -6.54,-2.6 -13.24,-4.77 -19.92,-6.97 -6.39,-2.12 -12.46,-5.05 -18.82,-7.24 -0.77,-1.92 -1.54,-3.85 -2.3,-5.77 0.29,-0.35 0.87,-1.06 1.16,-1.41 28.13,9.02 55.8,19.43 83.94,28.43 13.73,5.25 27.91,9.2 41.81,13.94 8.55,2.46 17.01,5.22 25.57,7.65 10.04,2.75 19.78,6.49 29.87,9.04 5.52,-6.48 11.51,-12.55 16.94,-19.1 5.81,-6.91 11.43,-13.96 17.08,-21 -2.46,-1.27 -4.96,-2.46 -7.59,-3.3 -33.17,-10.08 -66.26,-20.42 -99.38,-30.64 -11.31,-4.02 -22.95,-6.99 -34.21,-11.15 6.1,-7.13 13.99,-12.37 20.72,-18.86 m 172.69,88.26 c -4.37,5.67 -9.77,10.54 -13.4,16.76 2.8,4.86 6.84,8.85 9.79,13.62 3.12,-3.97 6.83,-7.67 8.82,-12.37 1.52,-4.62 5.33,-7.89 8.18,-11.69 2.49,-2.74 4.33,-6.51 8.19,-7.52 -0.01,-0.2 -0.01,-0.58 -0.02,-0.78 -3.73,-3.47 -6.17,-8.01 -9.74,-11.62 -4.59,3.94 -7.93,9.03 -11.82,13.6 z"
       id="path51" />
  </g>
  <g
     id="#160b0dff"
     transform="translate(-69.671055,-244.05271)">
    <path
       fill="#160b0d"
       opacity="1"
       d="m 249.02,316.93 c 0.95,-0.5 2.08,-1.42 3.19,-0.73 3.04,1.54 6.53,1.74 9.62,3.16 1.65,0.79 3.5,0.79 5.28,0.89 -1.38,1.65 -2.75,3.32 -4.11,4.98 2.01,-1.33 3.89,-3.02 6.23,-3.77 2.62,-0.11 5.07,1.08 7.53,1.83 -4.04,4.17 -9,7.28 -13.14,11.34 -1.25,-0.24 -2.49,-0.48 -3.73,-0.73 3.45,-3.65 7.71,-6.41 11.16,-10.06 -5.34,2.78 -9.18,8.08 -15.26,9.44 0.61,-1.47 1.26,-2.91 1.92,-4.36 -2.17,0.93 -4.35,1.8 -6.56,2.61 0.51,-1.22 1.04,-2.43 1.56,-3.63 -2.08,0.8 -4.16,1.59 -6.26,2.35 0.42,-1.37 0.84,-2.73 1.26,-4.09 -1.85,0.92 -3.71,1.84 -5.58,2.74 0.44,-1.32 0.88,-2.62 1.34,-3.92 -2.68,1.06 -5.62,1.74 -7.9,3.58 -0.09,1.17 -0.01,2.35 0.04,3.53 -1.05,-0.28 -2.1,-0.55 -3.15,-0.82 -0.37,-3.3 -1.04,-6.99 0.87,-9.96 1.11,-2.03 3.56,-2.24 5.54,-2.82 -1.29,2.09 -2.59,4.2 -3.44,6.51 0.19,0.2 0.58,0.6 0.77,0.8 4.82,-2.1 8.37,-6.17 12.82,-8.87 m 11.24,4.42 c -1.11,-0.01 -2.52,1.29 -1.85,2.42 1.29,1.06 3.74,-1.82 1.85,-2.42 z"
       id="path52" />
  </g>
  <g
     id="#201314ff"
     transform="translate(-69.671055,-244.05271)">
    <path
       fill="#201314"
       opacity="1"
       d="m 71,321.19 c 0.92,-1.4 1.06,-3.63 2.63,-4.45 3.2,1.79 6.49,3.47 9.95,4.72 7.54,2.8 14.91,6.06 22.51,8.72 17.88,6.9 35.82,13.67 54,19.77 4.27,1.26 8.28,3.61 12.76,4.02 4.99,-1.48 9.33,-4.51 13.88,-6.94 0.31,-0.13 0.92,-0.4 1.22,-0.53 -2.53,-3.33 -4.84,-7.11 -4.49,-11.47 0.68,-0.38 2.03,-1.15 2.71,-1.53 1.55,0.78 2.85,1.96 4.41,2.74 0,-1.34 -0.01,-2.68 0.04,-4.01 2.31,-0.63 4.47,0.45 6.49,1.44 l 0.07,-0.78 c 0.27,1.5 0.65,2.98 1.06,4.45 -1.93,1.22 -0.58,4.36 1.62,3.93 1.06,0.05 2.13,0.11 3.19,0.23 12.27,29.39 24.27,58.9 37.2,88.02 0.85,3.58 2.16,7.03 3.72,10.37 4.34,9.64 7.81,19.65 12.28,29.24 0.59,-1.04 1.19,-2.07 1.79,-3.1 1.77,4.7 4.82,8.99 5.62,14.01 -14.06,8.11 -28.94,14.78 -43.36,22.23 -9.11,4.35 -17.96,9.28 -27.27,13.2 -8.01,-6.52 -9.4,-17.3 -13.12,-26.32 -12.96,-37.32 -26.1,-74.58 -39.13,-111.88 -13.01,-4.65 -25.88,-9.69 -38.88,-14.37 -2.97,-1.31 -6.17,-2.14 -8.97,-3.8 -0.82,-1.2 -1.4,-2.54 -2.24,-3.72 -5.71,-2.6 -11.76,-4.53 -17.27,-7.58 7.24,-0.25 13.94,2.88 20.63,5.2 8.15,3.8 16.91,6.09 25.05,9.94 2.45,1.13 5.01,2.01 7.63,2.66 5.09,1.83 9.93,4.31 15.09,5.98 7.2,-5.17 15.39,-8.63 22.97,-13.14 -5.91,-3.55 -12.83,-4.5 -19.14,-7.07 -15.49,-6.05 -30.83,-12.5 -46.71,-17.46 -7.64,-3.53 -15.55,-6.43 -23.47,-9.24 -1.92,-0.54 -3.23,-2.03 -4.47,-3.48 m 123.19,25.29 0.7,0.46 c -6.83,4.05 -14.11,7.27 -21.11,11 -7.54,3.75 -14.87,7.91 -22.53,11.41 -2.48,-0.22 -4.55,1.07 -6.32,2.65 1.54,4.74 3.26,9.41 5.21,13.99 2.36,-2.32 4.73,-4.81 7.94,-5.91 7.88,-3.1 15,-7.79 22.76,-11.15 2.45,-1.2 6.4,-1.74 5.9,-5.33 3.29,2.09 6.34,-1.46 9.34,-2.53 2.91,-1.79 6.18,-0.41 8.95,0.9 1.91,4.77 3.34,9.73 5.59,14.36 3.91,8.45 6.82,17.36 11.3,25.55 0.8,1.88 1.02,3.94 1.41,5.94 0.79,-0.04 2.39,-0.11 3.18,-0.14 1.53,3.65 3.28,7.31 3.32,11.36 0.53,-2.63 1.24,-5.48 -0.03,-8.02 -5.28,-12.7 -10.4,-25.47 -15.72,-38.14 -1.61,-3.83 -2.86,-7.87 -5.31,-11.26 -1.15,-1.96 -4.22,-2.06 -4.92,-4.37 -1.54,-4.2 -2.95,-8.46 -5.13,-12.39 -1.53,0.47 -3.06,0.98 -4.53,1.62 m -4.82,29.74 c -0.89,3.99 3.53,7.42 7.28,6.44 3.53,-0.49 5.77,-3.48 7.91,-6 1.16,2.36 1.63,5.36 4.14,6.74 -0.34,-4.31 -3.52,-7.51 -4.85,-11.48 -1.08,-3.04 -4.92,-3.84 -7.7,-2.86 -3.48,0.73 -5.9,3.87 -6.78,7.16 m -9.68,2.8 c -3.22,1.9 -3.75,6.08 -3.95,9.48 3.16,0.45 6.46,-0.04 8.67,-2.57 0.97,-0.43 1.93,-0.87 2.88,-1.33 l 0.62,0.64 c 1.55,-2.49 0.43,-5.3 -0.17,-7.89 -2.64,0.75 -5.38,1.04 -8.05,1.67 m 28.43,5.29 c -0.52,1.64 0.03,2.21 1.65,1.71 0.51,-1.64 -0.05,-2.21 -1.65,-1.71 m -48.38,7.11 c 0.97,2 2,3.97 3.13,5.9 0.73,-0.69 1.45,-1.37 2.18,-2.05 0.31,-0.1 0.93,-0.28 1.23,-0.37 3.88,-0.11 6.22,-3.14 8,-6.18 -1.37,-0.79 -2.77,-1.54 -4.17,-2.25 l -0.96,0.6 c 0.04,-0.48 0.13,-1.42 0.17,-1.9 -4.13,0.53 -6.1,4.5 -9.58,6.25 m -7.83,-2.66 c -0.04,4.5 2.44,8.39 3.82,12.53 3.2,10.14 7.18,20.01 10.95,29.94 1.49,3.81 1.76,8.53 5.33,11.14 l -0.33,0.8 c 2.25,0.22 4.55,0.06 6.57,-1.03 5.2,-2.55 10.57,-4.74 15.6,-7.62 4.42,-2.32 8.81,-4.74 13.42,-6.69 1.17,-0.6 2.33,-1.2 3.48,-1.84 l 0.88,0.22 -0.01,-1.18 c 3.08,-0.66 5.98,-1.95 8.53,-3.79 2.24,-1.14 3.53,-3.41 2.95,-5.92 -1.56,0.13 -3.48,-0.58 -4.72,0.67 -1.14,-2.81 -2.24,-5.64 -3.47,-8.41 -3.32,1.32 -6.44,3.08 -9.74,4.43 -0.85,-0.96 -1.37,-2.15 -1.98,-3.26 -0.95,-0.14 -1.89,-0.27 -2.83,-0.39 -1.58,-2.49 0.14,-4.18 2.48,-5.05 -0.47,-1.36 -0.7,-2.79 -1.16,-4.14 -1.53,0.18 -3.05,0.48 -4.58,0.72 -0.33,-0.94 -0.67,-1.88 -1,-2.81 1.47,-1.01 2.97,-1.99 4.46,-2.95 -0.53,-1.31 -1.06,-2.62 -1.58,-3.93 -1.58,0.69 -3.17,1.37 -4.75,2.07 0.21,1.5 0.5,2.99 0.71,4.5 -1.29,0.69 -2.56,1.39 -3.84,2.09 -1.25,-3.19 -2.54,-6.36 -3.91,-9.5 -1.65,0.85 -3.3,1.7 -4.95,2.55 0.9,3.16 2.09,6.24 3.44,9.24 -1.39,0.83 -2.7,1.83 -3.74,3.03 -0.49,1.19 -0.46,2.48 0.08,3.87 -1.12,0.73 -2.25,1.46 -3.36,2.21 0.5,1.47 1.05,2.92 1.56,4.39 1.41,-0.48 2.8,-1.01 4.21,-1.47 0.27,0.72 0.79,2.17 1.06,2.89 -0.74,0.75 -1.49,1.49 -2.23,2.24 0.46,1.32 0.92,2.64 1.38,3.97 -3.01,1.72 -6.14,3.24 -9.21,4.85 0.84,3.19 1.92,6.3 3.14,9.37 -1.85,0.93 -3.72,1.85 -5.55,2.83 -2.05,-8.74 -6.45,-16.65 -9.15,-25.16 -3.13,-7.66 -5.02,-15.81 -8.81,-23.2 -0.49,-1.32 -1.82,-2.03 -3.15,-2.21 m 52.67,17.18 c 0.84,1.86 2.86,0.4 3.56,-0.81 2.56,-2.32 2.63,-6 2.03,-9.15 -3.37,2.25 -5.3,5.96 -5.59,9.96 m 8.51,-9.41 c -1.3,0.97 0.39,3.14 1.67,2.12 1.35,-0.99 -0.41,-3.07 -1.67,-2.12 m -51.32,3.15 c 0.27,2.04 -0.16,5.13 2.57,5.63 -0.08,-2.14 0.05,-4.98 -2.57,-5.63 m 13.01,2.46 c 0.47,1.59 1.11,3.13 1.86,4.62 1.47,-0.92 3.29,-1.66 4.3,-3.01 0.34,-1.42 -0.69,-2.7 -1.08,-3.99 -1.7,0.77 -3.39,1.59 -5.08,2.38 m 39.52,-1.13 c 0.69,1.56 1.38,3.13 2.07,4.7 0.32,-0.18 0.96,-0.55 1.27,-0.74 -0.41,-1.6 -0.82,-3.2 -1.21,-4.79 -0.72,0.25 -1.43,0.53 -2.13,0.83 m -8.74,8.82 c 3.19,-0.96 6.8,-2.01 8.61,-5.06 -3.17,0.9 -7.01,1.87 -8.61,5.06 M 164.2,406.4 c -1.59,0.99 0.15,3.42 1.62,2.29 1.53,-0.98 -0.19,-3.49 -1.62,-2.29 m 4.62,12.77 c -1.5,1.13 0.41,3.36 1.83,2.28 1.47,-1.02 -0.52,-3.39 -1.83,-2.28 m 4.25,8.96 c -0.39,-2.09 -1.14,-4.09 -2.14,-5.95 -1.51,1.87 -0.87,6.36 2.14,5.95 m 47.84,10.01 c 2.58,2.05 5.8,3.13 8.29,5.27 1.91,2.55 4.14,4.83 6.17,7.27 3.67,5.98 1.55,13.17 -0.02,19.45 5.83,-7.98 4.19,-19.92 -2.66,-26.79 -2.91,-3.45 -7.2,-5.63 -11.78,-5.2 m -13.48,6.25 c -4.28,1.06 -7.67,4.33 -10.57,7.51 -1.89,3.12 -4.33,6.23 -4.46,10.04 -0.4,4.36 -0.24,9.28 3.08,12.57 3.98,5.51 11.51,6.62 17.75,5.1 3.98,-1.23 7.66,-3.31 10.55,-6.34 3.58,-3.9 6.41,-8.85 6.51,-14.26 0.17,-6.5 -3.97,-13.11 -10.24,-15.16 -4.13,-1.07 -8.62,-0.99 -12.62,0.54 z"
       id="path53" />
  </g>
  <g
     id="#5c5155ff"
     transform="translate(-69.671055,-244.05271)">
    <path
       fill="#5c5155"
       opacity="1"
       d="m 216.53,317.43 c 2.13,-0.32 4.27,0.07 6.36,0.5 -0.17,0.64 -0.49,1.91 -0.65,2.54 -1.91,-1.02 -3.82,-2.01 -5.71,-3.04 z"
       id="path54" />
  </g>
  <g
     id="#8e7e81ff"
     transform="translate(-69.671055,-244.05271)">
    <path
       fill="#8e7e81"
       opacity="1"
       d="m 214.58,319.95 c 2.88,0.24 5.06,1.98 5.91,4.74 -1.99,-1.21 -3.94,-2.48 -5.91,-3.72 z"
       id="path55" />
    <path
       fill="#8e7e81"
       opacity="1"
       d="m 360.08,330.38 c 2.89,0.13 6.12,0.13 8.21,2.47 -2.19,0.66 -4.31,1.51 -6.47,2.25 -0.52,-1.34 -0.98,-2.69 -1.47,-4.02 z"
       id="path56" />
    <path
       fill="#8e7e81"
       opacity="1"
       d="m 472.71,385.43 c 1.22,-1.55 2.47,-3.05 3.71,-4.57 2.52,0.52 4.93,1.46 7.16,2.74 -0.85,2.15 -1.74,4.29 -2.7,6.4 -3.09,-0.77 -6.16,-1.99 -8.17,-4.57 z"
       id="path57" />
  </g>
  <g
     id="#1d1014ff"
     transform="translate(-69.671055,-244.05271)">
    <path
       fill="#1d1014"
       opacity="1"
       d="m 344.94,320.65 c 5.99,-0.72 11.79,1.18 17.43,2.97 9.66,2.57 19.17,5.63 28.82,8.23 5.46,1.78 11.62,2.88 15.69,7.29 0.99,1.07 2.48,2.61 1.34,4.13 -2.48,3.75 -6.04,6.61 -9.12,9.85 -3.99,3.75 -7.52,7.97 -11.67,11.57 -4.75,-2.55 -10.07,-0.54 -14.94,0.47 -18.2,-5.96 -36.95,-10.24 -54.96,-16.74 0.08,-2.32 -0.75,-5.08 0.98,-6.98 2.37,-2.75 5.23,-5.01 7.92,-7.44 3.93,-3.25 7.64,-6.73 11.41,-10.17 1.92,-1.87 4.5,-2.75 7.1,-3.18 m -16.78,20.5 c -1.35,1.2 -2.49,2.63 -3.48,4.14 1.32,-0.23 2.58,-0.64 3.77,-1.25 -0.12,0.39 -0.37,1.18 -0.49,1.57 2.77,0.75 5.58,2.45 8.52,1.93 1.49,-0.95 3.97,-2.34 3.31,-4.44 -0.42,0.03 -1.24,0.08 -1.66,0.11 1.57,-0.76 3.36,-0.26 5.04,-0.46 -1.75,2.24 -4.5,3.79 -5.38,6.62 3.06,-0.83 4.75,-3.74 7.28,-5.42 0.68,0.07 2.04,0.21 2.72,0.28 -1.02,0.46 -2.04,0.91 -3.04,1.38 -1.21,1.15 -2.39,2.34 -3.52,3.57 2.8,1.11 5.67,2.57 8.77,2.4 1.87,-0.86 3.3,-2.41 4.81,-3.78 -1.03,-0.69 -2.06,-1.36 -3.1,-2.01 l -0.54,0.7 c -0.1,-0.36 -0.32,-1.07 -0.43,-1.43 2.12,0.63 4.22,1.4 6.43,1.7 -1.95,2.05 -4.39,3.81 -5.47,6.52 4.26,-0.61 5.82,-6.54 10.65,-5.65 -0.29,0.39 -0.86,1.15 -1.15,1.54 -2.77,-0.1 -4.5,2.13 -6.14,4.02 2.86,1.66 6.17,2.93 9.53,2.48 1.89,-0.74 3.09,-2.49 4.36,-3.97 -0.53,-0.25 -1.59,-0.76 -2.12,-1.01 1.22,-0.25 2.46,-0.02 3.69,-0.02 -1.18,2.58 -3.42,4.4 -4.91,6.77 3.88,0.64 5.09,-4.48 8.5,-5.25 2.95,0.76 5.57,2.94 8.77,2.48 3.12,-0.86 6.11,-2.64 7.65,-5.59 -2.78,-1.7 -5.93,-3.2 -9.27,-2.86 -2.22,1.09 -4.92,3.35 -2.77,5.87 -1.08,-0.49 -2.17,-0.96 -3.26,-1.42 1.68,-1.83 3.23,-3.81 5.2,-5.35 4.21,-0.28 8.13,2.05 11.92,3.67 -3.12,4.13 -8.58,6.06 -10.1,11.38 3.51,-1.68 5.9,-4.84 8.64,-7.48 3.69,-3.63 7.33,-7.32 10.89,-11.09 -3.73,-2.57 -8.4,-2.28 -12.68,-2.98 -2.8,0.94 -4.11,3.78 -6.36,5.48 0.49,-3.16 3.69,-4.69 5.7,-6.82 -0.6,-0.2 -1.8,-0.61 -2.4,-0.82 -2.03,2.02 -4,4.1 -6.25,5.88 -1.24,-0.21 -2.47,-0.47 -3.71,-0.57 l 0.44,-0.84 c 2.91,1.22 6.03,-1.37 6.81,-4.11 -3.67,-1.48 -7.84,-3.65 -11.4,-0.68 0.83,-1.14 1.79,-2.19 2.25,-3.55 -2.12,-0.3 -3.65,1.79 -5.71,1.39 l 0.61,-1.27 -0.79,-0.06 c -2.09,-2.34 -5.32,-2.34 -8.21,-2.47 l 0.27,0.7 c -1.17,1.19 -5.13,3.45 -2.08,4.74 l -0.89,0.38 c -0.55,-0.13 -1.67,-0.4 -2.22,-0.53 0.52,-2.72 3.75,-4.25 5.12,-6.7 -0.44,0.05 -1.31,0.15 -1.75,0.2 -3.88,-2.46 -8.56,-3.59 -13.14,-3.21 -5.95,4.82 -11.49,10.12 -17.23,15.19 m 41.31,16.77 c 4.21,1.64 10.39,4.98 13.22,-0.53 -2.03,-1.81 -4.76,-1.16 -7.15,-0.77 0.61,-0.92 1.19,-1.85 1.75,-2.79 -3.37,-1.26 -6.3,1.29 -7.82,4.09 z"
       id="path58" />
  </g>
  <g
     id="#584c50ff"
     transform="translate(-69.671055,-244.05271)">
    <path
       fill="#584c50"
       opacity="1"
       d="m 260.26,321.35 c 1.89,0.6 -0.56,3.48 -1.85,2.42 -0.67,-1.13 0.74,-2.43 1.85,-2.42 z"
       id="path59" />
    <path
       fill="#584c50"
       opacity="1"
       d="m 316.59,396.02 c 2.53,-0.27 4.52,1.67 6.68,2.66 3.22,1.93 7.11,1.81 10.63,2.84 4.18,1.25 8.04,3.32 11.89,5.35 3.15,1.71 6.83,1.58 10.3,1.79 0.61,1.52 1.21,3.05 1.82,4.58 2.51,0.4 5.07,0.61 7.49,1.44 2.1,1.62 3.28,4.1 4.69,6.3 -8.56,-2.43 -17.02,-5.19 -25.57,-7.65 -13.9,-4.74 -28.08,-8.69 -41.81,-13.94 4.49,-1.62 9.13,-2.86 13.88,-3.37 z"
       id="path60" />
  </g>
  <g
     id="#695a5aff"
     transform="translate(-69.671055,-244.05271)">
    <path
       fill="#695a5a"
       opacity="1"
       d="m 109.66,322.59 c 2.48,0.7 5.05,0.99 7.63,0.87 0.72,0.06 1.44,0.12 2.16,0.21 16.95,5.54 33.73,11.58 50.66,17.19 5.57,1.99 11.24,3.69 16.62,6.17 -4.55,2.43 -8.89,5.46 -13.88,6.94 -4.48,-0.41 -8.49,-2.76 -12.76,-4.02 -18.18,-6.1 -36.12,-12.87 -54,-19.77 1.49,-2.38 2.7,-4.92 3.57,-7.59 z"
       id="path61" />
  </g>
  <g
     id="#2c1a1fff"
     transform="translate(-69.671055,-244.05271)">
    <path
       fill="#2c1a1f"
       opacity="1"
       d="m 483.3,332.83 c 2.53,-3.74 5.38,-7.26 8.53,-10.49 0.93,0.8 1.84,1.62 2.73,2.46 -7.3,10.43 -15.59,20.12 -24.2,29.47 -2.32,2.72 -0.46,6.49 -0.46,9.66 -0.39,0.31 -1.15,0.92 -1.54,1.22 0.08,-3.15 -0.49,-6.26 -1.51,-9.22 -3.12,3.1 -5.82,6.59 -8.78,9.84 -1.03,-0.69 -2.06,-1.38 -3.08,-2.06 1.59,-2.01 2.98,-4.16 4.55,-6.18 2.43,-3.31 6.55,-4.69 9.19,-7.79 4.95,-5.55 10.19,-10.88 14.57,-16.91 z"
       id="path62" />
  </g>
  <g
     id="#635557ff"
     transform="translate(-69.671055,-244.05271)">
    <path
       fill="#635557"
       opacity="1"
       d="m 255.79,333.28 c 6.08,-1.36 9.92,-6.66 15.26,-9.44 -3.45,3.65 -7.71,6.41 -11.16,10.06 1.24,0.25 2.48,0.49 3.73,0.73 0.33,0.07 1,0.2 1.34,0.26 3.51,0.84 7.12,3.62 10.66,1.26 -0.42,1.06 -0.84,2.12 -1.24,3.2 3.83,0.56 6.58,-2.44 9.38,-4.5 -1.35,1.63 -2.7,3.26 -4.02,4.92 2.36,0.95 4.66,2.14 7.18,2.56 4.05,-1.77 7.15,-5.17 10.58,-7.9 1.6,-1.07 2.09,-2.88 2.12,-4.7 0.88,-1.17 1.37,-2.54 1.76,-3.93 3.9,-1.78 8.27,-1.64 12.14,0.17 -6.73,6.49 -14.62,11.73 -20.72,18.86 11.26,4.16 22.9,7.13 34.21,11.15 33.12,10.22 66.21,20.56 99.38,30.64 2.63,0.84 5.13,2.03 7.59,3.3 -5.65,7.04 -11.27,14.09 -17.08,21 -5.43,6.55 -11.42,12.62 -16.94,19.1 -10.09,-2.55 -19.83,-6.29 -29.87,-9.04 -1.41,-2.2 -2.59,-4.68 -4.69,-6.3 -2.42,-0.83 -4.98,-1.04 -7.49,-1.44 -0.61,-1.53 -1.21,-3.06 -1.82,-4.58 -3.47,-0.21 -7.15,-0.08 -10.3,-1.79 -3.85,-2.03 -7.71,-4.1 -11.89,-5.35 -3.52,-1.03 -7.41,-0.91 -10.63,-2.84 -2.16,-0.99 -4.15,-2.93 -6.68,-2.66 -4.75,0.51 -9.39,1.75 -13.88,3.37 -28.14,-9 -55.81,-19.41 -83.94,-28.43 -1.58,-3.81 -3.28,-7.61 -3.89,-11.72 2.49,-0.09 4.99,-0.2 7.49,-0.17 39.47,14.26 79.52,26.87 119.27,40.32 18.64,6.3 37.28,12.59 55.9,18.94 0.66,0.27 1.99,0.82 2.65,1.09 -0.13,0.51 -0.4,1.52 -0.53,2.02 6.57,-5.38 11.33,-12.53 17.05,-18.74 2.23,-2.66 5.1,-5.14 5.97,-8.64 -0.67,-2.84 -3.92,-3.58 -6.29,-4.39 -13.87,-4.01 -27.51,-8.75 -41.38,-12.7 -39.15,-12.45 -78.25,-24.99 -117.29,-37.75 -4.55,-1.67 -9.18,-3.1 -13.89,-4.19 -2.68,-1.16 -5.41,-2.18 -8.22,-2.94 -0.05,-1.18 -0.13,-2.36 -0.04,-3.53 2.28,-1.84 5.22,-2.52 7.9,-3.58 -0.46,1.3 -0.9,2.6 -1.34,3.92 1.87,-0.9 3.73,-1.82 5.58,-2.74 -0.42,1.36 -0.84,2.72 -1.26,4.09 2.1,-0.76 4.18,-1.55 6.26,-2.35 -0.52,1.2 -1.05,2.41 -1.56,3.63 2.21,-0.81 4.39,-1.68 6.56,-2.61 -0.66,1.45 -1.31,2.89 -1.92,4.36 z"
       id="path63" />
    <path
       fill="#635557"
       opacity="1"
       d="m 220.91,438.14 c 4.58,-0.43 8.87,1.75 11.78,5.2 6.85,6.87 8.49,18.81 2.66,26.79 1.57,-6.28 3.69,-13.47 0.02,-19.45 -2.03,-2.44 -4.26,-4.72 -6.17,-7.27 -2.49,-2.14 -5.71,-3.22 -8.29,-5.27 z"
       id="path64" />
  </g>
  <g
     id="#11080aff"
     transform="translate(-69.671055,-244.05271)">
    <path
       fill="#11080a"
       opacity="1"
       d="m 278.31,324.44 c 2.62,-0.02 5.09,1.05 7.59,1.71 -0.97,1.34 -1.93,2.69 -2.89,4.04 1.71,-1.06 3.4,-2.16 5.1,-3.25 2.21,0.77 4.4,1.58 6.6,2.38 -0.08,0.89 -0.15,1.79 -0.21,2.69 1.7,-0.78 3.4,-1.53 5.12,-2.28 -0.03,1.82 -0.52,3.63 -2.12,4.7 -3.43,2.73 -6.53,6.13 -10.58,7.9 -2.52,-0.42 -4.82,-1.61 -7.18,-2.56 1.32,-1.66 2.67,-3.29 4.02,-4.92 -2.8,2.06 -5.55,5.06 -9.38,4.5 0.4,-1.08 0.82,-2.14 1.24,-3.2 -3.54,2.36 -7.15,-0.42 -10.66,-1.26 4.44,-3.48 8.29,-7.85 13.35,-10.45 m -1.57,10.74 c 2.41,-0.72 4.3,-2.37 5.58,-4.52 -2.43,0.72 -4.57,2.12 -5.58,4.52 z"
       id="path65" />
  </g>
  <g
     id="#544348ff"
     transform="translate(-69.671055,-244.05271)">
    <path
       fill="#544348"
       opacity="1"
       d="m 494.56,324.8 c 0.52,1.93 1,3.87 1.38,5.83 -1.53,0.3 -3.05,0.61 -4.58,0.9 -2.2,4.37 -2.68,9.27 -4.08,13.89 -2.67,6.23 -7.87,10.82 -12.87,15.16 -1.16,3.35 -0.23,7.3 -2.51,10.28 -3.05,4.51 -5.47,9.43 -6.87,14.71 1.35,0.22 2.71,0.44 4.07,0.67 -0.53,0.21 -1.6,0.63 -2.13,0.84 -3.22,0.75 -6.54,0.65 -9.73,-0.12 0.15,-1.71 0.31,-3.42 0.46,-5.13 2.9,-3.15 5.48,-6.57 8.28,-9.81 1.92,-2.33 4.31,-4.8 3.92,-8.09 0,-3.17 -1.86,-6.94 0.46,-9.66 8.61,-9.35 16.9,-19.04 24.2,-29.47 z"
       id="path66" />
  </g>
  <g
     id="#a09188ff"
     transform="translate(-69.671055,-244.05271)">
    <path
       fill="#a09188"
       opacity="1"
       d="m 328.16,341.15 c 5.74,-5.07 11.28,-10.37 17.23,-15.19 2.17,2.73 6.28,1.68 9.26,3.01 -1.8,0.67 -3.56,1.46 -5.35,2.17 -1.9,-1.64 -4.02,-1.61 -5.92,0.01 2.72,1.4 5.75,1.96 8.77,2.24 -0.54,0.78 -1.06,1.56 -1.58,2.35 l -0.43,0.53 c -1.24,-0.5 -2.47,-0.99 -3.7,-1.49 0.62,0.81 1.25,1.62 1.88,2.43 -1.98,2.58 -5.01,3.61 -8.19,3.2 1.24,0.57 2.47,1.17 3.7,1.8 l -0.66,0.54 c -1.68,0.2 -3.47,-0.3 -5.04,0.46 -2.48,1.09 -5.28,2.26 -7.74,0.41 0.68,-0.85 1.39,-1.67 2.12,-2.47 1.35,0.18 2.71,0.29 4.08,0.34 -1.64,-0.37 -3.32,-0.71 -5.01,-0.6 -1.51,0.47 -2.18,2.02 -3.13,3.15 -1.19,0.61 -2.45,1.02 -3.77,1.25 0.99,-1.51 2.13,-2.94 3.48,-4.14 m 13.45,-10.05 c -0.47,1.37 0,1.88 1.42,1.51 0.47,-1.39 0,-1.89 -1.42,-1.51 z"
       id="path67" />
  </g>
  <g
     id="#5d5756ff"
     transform="translate(-69.671055,-244.05271)">
    <path
       fill="#5d5756"
       opacity="1"
       d="m 202.68,328.08 0.6,-0.31 c 0.23,3.11 -0.13,6.22 -0.75,9.27 -1.37,-2.28 -2.67,-4.6 -3.92,-6.95 1.37,-0.64 2.73,-1.31 4.07,-2.01 z"
       id="path68" />
  </g>
  <g
     id="#241a1bff"
     transform="translate(-69.671055,-244.05271)">
    <path
       fill="#241a1b"
       opacity="1"
       d="m 157.38,331.04 c 2.55,-0.96 0.96,2.79 -0.73,2.53 -1.52,-0.31 -0.14,-2.26 0.73,-2.53 z"
       id="path69" />
    <path
       fill="#241a1b"
       opacity="1"
       d="m 163.71,332.45 c 3.38,0.48 5.98,3.16 9.42,3.66 -0.35,0.46 -1.04,1.39 -1.38,1.85 -2.33,-0.73 -4.72,-1.56 -6.23,-3.6 -1.16,0.41 -2.29,0.89 -3.46,1.28 0.56,-1.06 1.11,-2.12 1.65,-3.19 z"
       id="path70" />
    <path
       fill="#241a1b"
       opacity="1"
       d="m 240.25,429.52 0.86,0.47 c 4.14,4.51 3.9,11.55 8.51,15.64 1.19,1.18 1.63,2.87 2.28,4.38 1.9,5.4 4.46,10.54 6.14,16.02 -0.6,1.03 -1.2,2.06 -1.79,3.1 -4.47,-9.59 -7.94,-19.6 -12.28,-29.24 -1.56,-3.34 -2.87,-6.79 -3.72,-10.37 z"
       id="path71" />
  </g>
  <g
     id="#180b0cff"
     transform="translate(-69.671055,-244.05271)">
    <path
       fill="#180b0c"
       opacity="1"
       d="m 160.51,331.33 c 2.34,-0.97 1.19,3.34 -0.57,3.1 -1.62,-0.44 -0.35,-2.59 0.57,-3.1 z"
       id="path72" />
    <path
       fill="#180b0c"
       opacity="1"
       d="m 231.37,405.83 c 4.61,1.43 8.94,3.6 13.5,5.18 14.74,5.09 29.08,11.28 43.89,16.18 10.15,2.99 19.51,8.2 29.9,10.42 3.12,0.94 6.12,2.22 9.13,3.46 -1.83,0.8 -3.78,1.22 -5.75,1.4 2.1,0.73 4.2,1.55 6.11,2.74 0.07,0.35 0.21,1.06 0.28,1.42 -6.56,-1.8 -12.8,-4.59 -19.19,-6.9 -24.38,-8.78 -48.52,-18.24 -72.94,-26.89 4.28,10.99 9.62,21.58 13.32,32.79 -4.61,-4.09 -4.37,-11.13 -8.51,-15.64 -3.1,-8.11 -6.39,-16.15 -9.74,-24.16 z"
       id="path73" />
  </g>
  <g
     id="#40393bff"
     transform="translate(-69.671055,-244.05271)">
    <path
       fill="#40393b"
       opacity="1"
       d="m 276.74,335.18 c 1.01,-2.4 3.15,-3.8 5.58,-4.52 -1.28,2.15 -3.17,3.8 -5.58,4.52 z"
       id="path74" />
  </g>
  <g
     id="#4d3e32ff"
     transform="translate(-69.671055,-244.05271)">
    <path
       fill="#4d3e32"
       opacity="1"
       d="m 341.61,331.1 c 1.42,-0.38 1.89,0.12 1.42,1.51 -1.42,0.37 -1.89,-0.14 -1.42,-1.51 z"
       id="path75" />
  </g>
  <g
     id="#645257ff"
     transform="translate(-69.671055,-244.05271)">
    <path
       fill="#645257"
       opacity="1"
       d="m 491.36,331.53 c 1.53,-0.29 3.05,-0.6 4.58,-0.9 0.51,2.69 0.97,5.38 1.49,8.07 -1.17,0.5 -2.31,1.02 -3.47,1.53 -0.84,4.16 -1.39,8.4 -2.49,12.5 -0.44,1.97 -2.52,2.75 -3.91,3.92 -2.8,1.86 -4.38,4.92 -6.49,7.45 -2.04,2.47 -4.16,4.94 -5.36,7.95 -1.35,3.49 -3.98,6.71 -3.51,10.66 -1.04,1.17 -2.05,2.37 -3.1,3.53 -1.36,-0.23 -2.72,-0.45 -4.07,-0.67 1.4,-5.28 3.82,-10.2 6.87,-14.71 2.28,-2.98 1.35,-6.93 2.51,-10.28 5,-4.34 10.2,-8.93 12.87,-15.16 1.4,-4.62 1.88,-9.52 4.08,-13.89 z"
       id="path76" />
  </g>
  <g
     id="#d3baa6ff"
     transform="translate(-69.671055,-244.05271)">
    <path
       fill="#d3baa6"
       opacity="1"
       d="m 368.47,334.18 c 2.06,0.4 3.59,-1.69 5.71,-1.39 -0.46,1.36 -1.42,2.41 -2.25,3.55 -0.32,0.16 -0.96,0.49 -1.27,0.65 -1.01,0.31 -2.69,1.52 -1.53,2.64 0.95,0.48 1.84,0.36 2.66,-0.37 1.57,0.64 3.14,1.26 4.73,1.87 l -0.44,0.84 c -0.27,0.18 -0.82,0.53 -1.09,0.71 -0.24,0.14 -0.73,0.42 -0.98,0.56 -1.06,0.6 -2.12,1.18 -3.19,1.76 -0.4,-1.23 -1.18,-1.56 -2.36,-1.01 0.02,-0.55 0.07,-1.66 0.09,-2.21 0.61,-0.17 1.84,-0.52 2.45,-0.69 -1.63,-0.02 -3.25,-0.05 -4.87,-0.09 0.73,-0.92 1.29,-1.97 1.49,-3.13 -0.01,-0.63 -0.02,-1.25 -0.03,-1.87 0.29,-0.61 0.58,-1.22 0.88,-1.82 z"
       id="path77" />
    <path
       fill="#d3baa6"
       opacity="1"
       d="m 349.41,341.79 c 1.91,0.75 3.82,1.51 5.72,2.32 0.9,0.67 1.8,1.36 2.69,2.07 l -0.65,0.58 c -2.21,-0.3 -4.31,-1.07 -6.43,-1.7 0.11,0.36 0.33,1.07 0.43,1.43 -0.25,0.31 -0.75,0.94 -1,1.26 -0.77,-1.33 -2.93,-1.31 -3.62,0.08 -0.61,-0.74 -1.21,-1.48 -1.8,-2.22 1,-0.47 2.02,-0.92 3.04,-1.38 -0.68,-0.07 -2.04,-0.21 -2.72,-0.28 0.42,-0.3 1.26,-0.9 1.68,-1.2 0.88,-0.32 1.77,-0.64 2.66,-0.96 z"
       id="path78" />
    <path
       fill="#d3baa6"
       opacity="1"
       d="m 159.74,391.42 c 3.48,-1.75 5.45,-5.72 9.58,-6.25 -0.04,0.48 -0.13,1.42 -0.17,1.9 -2.2,1.43 -4.44,2.79 -6.66,4.2 0.83,1.34 1.67,2.68 2.56,4 -0.73,0.68 -1.45,1.36 -2.18,2.05 -1.13,-1.93 -2.16,-3.9 -3.13,-5.9 z"
       id="path79" />
    <path
       fill="#d3baa6"
       opacity="1"
       d="m 207.43,444.39 c 4,-1.53 8.49,-1.61 12.62,-0.54 6.27,2.05 10.41,8.66 10.24,15.16 -0.1,5.41 -2.93,10.36 -6.51,14.26 0.04,-4.16 -3.82,-6.23 -6.81,-8.27 -1.67,-1.12 -3.61,-1.68 -5.5,-2.26 -0.31,4.64 -1.2,9.26 -1.03,13.92 0.83,1.07 1.83,1.98 2.79,2.95 -6.24,1.52 -13.77,0.41 -17.75,-5.1 -3.32,-3.29 -3.48,-8.21 -3.08,-12.57 0.13,-3.81 2.57,-6.92 4.46,-10.04 3.54,4.48 9.05,6.49 13.96,9.05 1,-4.99 1.5,-10.09 0.93,-15.16 -1.44,-0.47 -2.87,-0.96 -4.32,-1.4 z"
       id="path80" />
  </g>
  <g
     id="#47282cff"
     transform="translate(-69.671055,-244.05271)">
    <path
       fill="#47282c"
       opacity="1"
       d="m 98.94,333.91 c 15.88,4.96 31.22,11.41 46.71,17.46 6.31,2.57 13.23,3.52 19.14,7.07 -7.58,4.51 -15.77,7.97 -22.97,13.14 -5.16,-1.67 -10,-4.15 -15.09,-5.98 1.78,-0.43 3.55,-0.92 5.31,-1.4 -3.42,-2.51 -7.53,-4.72 -9.38,-8.73 0.02,-3.15 1.06,-6.21 1.26,-9.36 -1.52,0.09 -3.03,0.19 -4.55,0.29 0.41,2.24 0.83,4.47 1.28,6.7 -6.63,0.47 -12.65,-2.7 -18.48,-5.37 0.24,-2.48 0.69,-4.97 0.47,-7.46 -0.76,-2.36 -2.3,-4.36 -3.7,-6.36 z"
       id="path81" />
  </g>
  <g
     id="#f2eadbff"
     transform="translate(-69.671055,-244.05271)">
    <path
       fill="#f2eadb"
       opacity="1"
       d="m 212.16,341.19 c 4.03,-1.69 7.16,-4.86 10.89,-7.07 -0.72,1.53 -1.46,3.06 -2.25,4.56 -2.53,4.73 -5.7,9.11 -9.51,12.9 -1.24,-1.61 -2.46,-3.22 -3.71,-4.8 -0.02,-0.87 -0.01,-1.73 0.01,-2.58 1.49,-1.06 2.88,-2.29 4.57,-3.01 z"
       id="path82" />
  </g>
  <g
     id="#231214ff"
     transform="translate(-69.671055,-244.05271)">
    <path
       fill="#231214"
       opacity="1"
       d="m 243.83,335.03 c 4.71,1.09 9.34,2.52 13.89,4.19 39.04,12.76 78.14,25.3 117.29,37.75 13.87,3.95 27.51,8.69 41.38,12.7 2.37,0.81 5.62,1.55 6.29,4.39 -0.87,3.5 -3.74,5.98 -5.97,8.64 -5.72,6.21 -10.48,13.36 -17.05,18.74 0.13,-0.5 0.4,-1.51 0.53,-2.02 3.87,-3.54 7.12,-7.69 10.66,-11.55 3.27,-3.85 6.9,-7.45 9.44,-11.85 -8.71,-3.99 -18.11,-6.11 -27.15,-9.16 -4.42,-1.52 -8.92,-2.79 -13.47,-3.82 -16.9,-5.98 -34.24,-10.72 -51.21,-16.53 -5.99,-1.89 -11.98,-3.77 -17.94,-5.73 -20.59,-6.66 -41.15,-13.37 -61.65,-20.29 0.48,-0.27 1.43,-0.81 1.91,-1.08 -2.4,-1.34 -4.7,-2.83 -6.95,-4.38 z"
       id="path83" />
  </g>
  <g
     id="#f2dedaff"
     transform="translate(-69.671055,-244.05271)">
    <path
       fill="#f2deda"
       opacity="1"
       d="m 371.93,336.34 c 3.56,-2.97 7.73,-0.8 11.4,0.68 -0.78,2.74 -3.9,5.33 -6.81,4.11 -1.59,-0.61 -3.16,-1.23 -4.73,-1.87 -0.28,-0.56 -0.85,-1.7 -1.13,-2.27 0.31,-0.16 0.95,-0.49 1.27,-0.65 m 4.25,-0.15 c -2.46,1.19 1.12,3.4 2.24,1.61 0.85,-1.32 -1.26,-2.2 -2.24,-1.61 z"
       id="path84" />
  </g>
  <g
     id="#454132ff"
     transform="translate(-69.671055,-244.05271)">
    <path
       fill="#454132"
       opacity="1"
       d="m 175.31,336.33 c 1.25,0.67 1.21,1.37 -0.13,2.1 -1.25,-0.67 -1.2,-1.37 0.13,-2.1 z"
       id="path85" />
  </g>
  <g
     id="#3c2828ff"
     transform="translate(-69.671055,-244.05271)">
    <path
       fill="#3c2828"
       opacity="1"
       d="m 230.88,337.86 c 1.9,-1.72 4.57,-1.77 6.93,-1.15 -2.49,1.42 -4.02,3.84 -5.41,6.26 -1.88,2.01 -3.46,4.25 -5.2,6.37 -2.25,1.3 -5.02,0.94 -7.51,1.18 0.01,1.26 0.01,2.53 0.02,3.8 -2.68,-0.18 -5.36,-0.43 -8.04,-0.61 2.33,2.05 5.07,3.58 8.05,4.47 0.66,0.22 1.99,0.67 2.65,0.89 -2.5,-0.03 -5,0.08 -7.49,0.17 0.61,4.11 2.31,7.91 3.89,11.72 -0.29,0.35 -0.87,1.06 -1.16,1.41 -2.2,-4.06 -3.04,-8.59 -4.1,-13.02 -1.84,-4.26 -6.42,-7.46 -5.93,-12.57 1.25,1.58 2.47,3.19 3.71,4.8 3.81,-3.79 6.98,-8.17 9.51,-12.9 0.51,3.06 0.26,6.17 -0.44,9.19 3.69,-3.15 6.78,-6.93 10.52,-10.01 z"
       id="path86" />
    <path
       fill="#3c2828"
       opacity="1"
       d="m 362.08,337.09 c 1.89,-0.04 3.73,-0.47 5.51,-1.09 0.01,0.62 0.02,1.24 0.03,1.87 -0.95,0.31 -1.89,0.63 -2.82,0.94 -0.9,-0.59 -1.81,-1.17 -2.72,-1.72 z"
       id="path87" />
    <path
       fill="#3c2828"
       opacity="1"
       d="m 374.01,343.24 c 0.25,-0.14 0.74,-0.42 0.98,-0.56 1.08,0.53 2.16,1.09 3.24,1.66 -1.93,2.42 -4.27,4.52 -7.13,5.79 0.33,-0.38 1,-1.15 1.33,-1.53 1.17,-1.24 2.4,-2.41 3.62,-3.6 -0.51,-0.44 -1.53,-1.32 -2.04,-1.76 z"
       id="path88" />
  </g>
  <g
     id="#bfaaa3ff"
     transform="translate(-69.671055,-244.05271)">
    <path
       fill="#bfaaa3"
       opacity="1"
       d="m 357.38,336.2 0.89,-0.38 c 1.27,0.42 2.54,0.83 3.81,1.27 0.91,0.55 1.82,1.13 2.72,1.72 l -0.54,0.67 c -0.86,0.17 -1.71,0.32 -2.56,0.52 -2.37,0.46 -4.62,1.57 -7.06,1.6 -1.05,-0.7 -1.49,-1.98 -2.17,-2.98 1.37,-0.75 2.77,-1.44 4.18,-2.11 z"
       id="path89" />
  </g>
  <g
     id="#7c625dff"
     transform="translate(-69.671055,-244.05271)">
    <path
       fill="#7c625d"
       opacity="1"
       d="m 376.18,336.19 c 0.98,-0.59 3.09,0.29 2.24,1.61 -1.12,1.79 -4.7,-0.42 -2.24,-1.61 z"
       id="path90" />
  </g>
  <g
     id="#140b0cff"
     transform="translate(-69.671055,-244.05271)">
    <path
       fill="#140b0c"
       opacity="1"
       d="m 177.23,336.9 c 1.23,0.55 2.45,1.12 3.68,1.66 -1.16,0.59 -2.36,1.09 -3.51,1.69 -0.04,-0.84 -0.12,-2.51 -0.17,-3.35 z"
       id="path91" />
    <path
       fill="#140b0c"
       opacity="1"
       d="m 310.21,384.41 c 0.84,-0.99 1.69,-1.98 2.56,-2.94 6.63,1.81 13.12,4.06 19.64,6.24 4.5,2.1 7.87,-2.51 11.58,-4.28 9.63,3.62 19.53,6.5 29.33,9.62 -1.17,1.39 -2.34,2.78 -3.43,4.24 -8.91,-1.75 -17.18,-5.69 -25.99,-7.8 -0.74,2.29 -1.44,4.6 -2.06,6.94 -5.94,-2.16 -12.02,-3.93 -17.94,-6.14 -4.62,-1.79 -9.95,-2.37 -13.69,-5.88 z"
       id="path92" />
  </g>
  <g
     id="#f8eee8ff"
     transform="translate(-69.671055,-244.05271)">
    <path
       fill="#f8eee8"
       opacity="1"
       d="m 204.35,337.4 c 1.6,-0.44 2.18,0.14 1.72,1.75 -1.59,0.47 -2.16,-0.11 -1.72,-1.75 z"
       id="path93" />
    <path
       fill="#f8eee8"
       opacity="1"
       d="m 369.47,357.92 c 1.52,-2.8 4.45,-5.35 7.82,-4.09 -0.56,0.94 -1.14,1.87 -1.75,2.79 2.39,-0.39 5.12,-1.04 7.15,0.77 -2.83,5.51 -9.01,2.17 -13.22,0.53 z"
       id="path94" />
    <path
       fill="#f8eee8"
       opacity="1"
       d="m 159.25,369.03 c 0.81,0.72 1.67,1.42 2.39,2.26 0.51,1.46 -1.43,1.87 -2.25,2.6 -0.67,-1.02 -1.34,-2.05 -2,-3.07 0.46,-0.44 1.39,-1.34 1.86,-1.79 z"
       id="path95" />
    <path
       fill="#f8eee8"
       opacity="1"
       d="m 213.09,396.53 c 1.26,-0.95 3.02,1.13 1.67,2.12 -1.28,1.02 -2.97,-1.15 -1.67,-2.12 z"
       id="path96" />
    <path
       fill="#f8eee8"
       opacity="1"
       d="m 168.82,419.17 c 1.31,-1.11 3.3,1.26 1.83,2.28 -1.42,1.08 -3.33,-1.15 -1.83,-2.28 z"
       id="path97" />
  </g>
  <g
     id="#faeedbff"
     transform="translate(-69.671055,-244.05271)">
    <path
       fill="#faeedb"
       opacity="1"
       d="m 232.4,342.97 c 1.39,-2.42 2.92,-4.84 5.41,-6.26 3.62,1.43 7.36,2.56 11.06,3.78 20.5,6.92 41.06,13.63 61.65,20.29 -3.05,0.03 -6.15,0.43 -8.83,1.98 2.55,1.36 5.32,2.26 7.81,3.74 2.04,2.8 3.52,6.01 5.78,8.68 3.11,-1.23 6.46,-2.14 9.8,-1.25 -0.6,0.38 -1.8,1.14 -2.4,1.53 -4.31,-0.44 -7.2,3.27 -9.91,6.01 -0.87,0.96 -1.72,1.95 -2.56,2.94 3.74,3.51 9.07,4.09 13.69,5.88 5.92,2.21 12,3.98 17.94,6.14 7.9,2.85 15.82,5.69 23.9,7.99 8.77,2.96 17.61,5.69 26.31,8.87 2.88,1.29 6.02,0.94 8.88,-0.23 -1.17,1.73 -2.3,3.49 -3.39,5.27 -18.62,-6.35 -37.26,-12.64 -55.9,-18.94 -39.75,-13.45 -79.8,-26.06 -119.27,-40.32 -0.66,-0.22 -1.99,-0.67 -2.65,-0.89 6.58,-2.32 12.31,-7.93 12.68,-15.21 z"
       id="path98" />
  </g>
  <g
     id="#e8e0d7ff"
     transform="translate(-69.671055,-244.05271)">
    <path
       fill="#e8e0d7"
       opacity="1"
       d="m 199.86,341.27 c -2.2,0.43 -3.55,-2.71 -1.62,-3.93 0.72,1.21 1.56,2.47 1.62,3.93 z"
       id="path99" />
    <path
       fill="#e8e0d7"
       opacity="1"
       d="m 154.98,370.81 c 1.12,1.04 2.21,2.11 3.3,3.18 -1.45,0.64 -2.9,1.31 -4.36,1.94 0.25,-1.73 0.59,-3.44 1.06,-5.12 z"
       id="path100" />
    <path
       fill="#e8e0d7"
       opacity="1"
       d="m 182.24,391.91 c 1.65,-0.85 3.3,-1.7 4.95,-2.55 1.37,3.14 2.66,6.31 3.91,9.5 1.28,-0.7 2.55,-1.4 3.84,-2.09 -0.21,-1.51 -0.5,-3 -0.71,-4.5 1.58,-0.7 3.17,-1.38 4.75,-2.07 0.52,1.31 1.05,2.62 1.58,3.93 -1.49,0.96 -2.99,1.94 -4.46,2.95 0.33,0.93 0.67,1.87 1,2.81 1.53,-0.24 3.05,-0.54 4.58,-0.72 0.46,1.35 0.69,2.78 1.16,4.14 -2.34,0.87 -4.06,2.56 -2.48,5.05 0.94,0.12 1.88,0.25 2.83,0.39 0.61,1.11 1.13,2.3 1.98,3.26 3.3,-1.35 6.42,-3.11 9.74,-4.43 1.23,2.77 2.33,5.6 3.47,8.41 -2.3,1.94 -5.03,3.24 -7.79,4.37 -0.71,-1.45 -1.42,-2.89 -2.13,-4.32 -1.32,0.87 -2.64,1.74 -3.96,2.62 0.57,1.31 1.15,2.62 1.73,3.94 -1.77,1.05 -3.69,1.79 -5.72,2.11 -0.61,-1.28 -1.24,-2.54 -1.87,-3.8 -1.38,0.88 -2.69,1.86 -4.07,2.75 0.6,1.32 1.2,2.65 1.79,3.99 -1.69,1.08 -3.62,1.63 -5.56,2.06 -0.61,-1.3 -1.22,-2.59 -1.83,-3.87 -1.34,0.73 -2.68,1.45 -4.02,2.17 0.41,1.6 0.85,3.19 1.28,4.79 -2.56,1.21 -5.14,2.4 -7.66,3.7 -1.22,-3.07 -2.3,-6.18 -3.14,-9.37 3.07,-1.61 6.2,-3.13 9.21,-4.85 -0.46,-1.33 -0.92,-2.65 -1.38,-3.97 0.74,-0.75 1.49,-1.49 2.23,-2.24 -0.27,-0.72 -0.79,-2.17 -1.06,-2.89 -1.41,0.46 -2.8,0.99 -4.21,1.47 -0.51,-1.47 -1.06,-2.92 -1.56,-4.39 1.11,-0.75 2.24,-1.48 3.36,-2.21 -0.54,-1.39 -0.57,-2.68 -0.08,-3.87 1.04,-1.2 2.35,-2.2 3.74,-3.03 -1.35,-3 -2.54,-6.08 -3.44,-9.24 m 5.85,13.47 c 0.2,1.39 0.63,2.73 0.86,4.13 1.57,-0.35 2.97,-1.14 4.54,-1.51 -0.27,-1.36 -0.54,-2.71 -0.81,-4.06 -1.54,0.45 -3.07,0.93 -4.59,1.44 z"
       id="path101" />
    <path
       fill="#e8e0d7"
       opacity="1"
       d="m 210.75,425.99 c -2.67,-0.92 -0.49,-3.06 0.8,-4.07 0.01,0.78 0.05,2.33 0.07,3.11 l 0.01,1.18 z"
       id="path102" />
  </g>
  <g
     id="#fbf6eaff"
     transform="translate(-69.671055,-244.05271)">
    <path
       fill="#fbf6ea"
       opacity="1"
       d="m 364.8,338.81 c 0.93,-0.31 1.87,-0.63 2.82,-0.94 -0.2,1.16 -0.76,2.21 -1.49,3.13 -1.74,1.64 -3.48,3.29 -5.14,5.01 0.42,0.3 1.26,0.91 1.68,1.22 l -0.32,0.4 c -4.83,-0.89 -6.39,5.04 -10.65,5.65 1.08,-2.71 3.52,-4.47 5.47,-6.52 l 0.65,-0.58 c 2.37,-2 4.69,-4.11 6.44,-6.7 z"
       id="path103" />
    <path
       fill="#fbf6ea"
       opacity="1"
       d="m 349.41,341.79 c 0.98,-1.09 1.97,-2.19 3.06,-3.17 0.68,1 1.12,2.28 2.17,2.98 2.44,-0.03 4.69,-1.14 7.06,-1.6 -0.6,2.93 -3.62,5.07 -6.57,4.11 -1.9,-0.81 -3.81,-1.57 -5.72,-2.32 z"
       id="path104" />
    <path
       fill="#fbf6ea"
       opacity="1"
       d="m 355.06,353.19 c 1.64,-1.89 3.37,-4.12 6.14,-4.02 -0.45,1.09 -0.88,2.2 -1.27,3.32 2.44,-0.01 4.61,-1.17 6.9,-1.8 0.53,0.25 1.59,0.76 2.12,1.01 -1.27,1.48 -2.47,3.23 -4.36,3.97 -3.36,0.45 -6.67,-0.82 -9.53,-2.48 z"
       id="path105" />
    <path
       fill="#fbf6ea"
       opacity="1"
       d="m 164.2,406.4 c 1.43,-1.2 3.15,1.31 1.62,2.29 -1.47,1.13 -3.21,-1.3 -1.62,-2.29 z"
       id="path106" />
  </g>
  <g
     id="#fbf3e6ff"
     transform="translate(-69.671055,-244.05271)">
    <path
       fill="#fbf3e6"
       opacity="1"
       d="m 331.58,340.89 c 1.69,-0.11 3.37,0.23 5.01,0.6 -1.37,-0.05 -2.73,-0.16 -4.08,-0.34 -0.73,0.8 -1.44,1.62 -2.12,2.47 2.46,1.85 5.26,0.68 7.74,-0.41 0.42,-0.03 1.24,-0.08 1.66,-0.11 0.66,2.1 -1.82,3.49 -3.31,4.44 -2.94,0.52 -5.75,-1.18 -8.52,-1.93 0.12,-0.39 0.37,-1.18 0.49,-1.57 0.95,-1.13 1.62,-2.68 3.13,-3.15 z"
       id="path107" />
  </g>
  <g
     id="#f4ebe7ff"
     transform="translate(-69.671055,-244.05271)">
    <path
       fill="#f4ebe7"
       opacity="1"
       d="m 363.17,346.35 c 0.93,-2.37 2.95,-3.92 5.38,-4.57 -0.02,0.55 -0.07,1.66 -0.09,2.21 0.18,1.43 0.96,1.77 2.36,1.01 1.07,-0.58 2.13,-1.16 3.19,-1.76 0.51,0.44 1.53,1.32 2.04,1.76 -1.22,1.19 -2.45,2.36 -3.62,3.6 -3.08,-0.8 -6.17,-1.49 -9.26,-2.25 z"
       id="path108" />
  </g>
  <g
     id="#a18679ff"
     transform="translate(-69.671055,-244.05271)">
    <path
       fill="#a18679"
       opacity="1"
       d="m 227.2,349.34 c 1.74,-2.12 3.32,-4.36 5.2,-6.37 -0.37,7.28 -6.1,12.89 -12.68,15.21 -2.98,-0.89 -5.72,-2.42 -8.05,-4.47 2.68,0.18 5.36,0.43 8.04,0.61 -0.01,-1.27 -0.01,-2.54 -0.02,-3.8 2.49,-0.24 5.26,0.12 7.51,-1.18 z"
       id="path109" />
  </g>
  <g
     id="#705e56ff"
     transform="translate(-69.671055,-244.05271)">
    <path
       fill="#705e56"
       opacity="1"
       d="m 368.46,343.99 c 1.18,-0.55 1.96,-0.22 2.36,1.01 -1.4,0.76 -2.18,0.42 -2.36,-1.01 z"
       id="path110" />
  </g>
  <g
     id="#4f3c4bff"
     transform="translate(-69.671055,-244.05271)">
    <path
       fill="#4f3c4b"
       opacity="1"
       d="m 194.19,346.48 c 1.47,-0.64 3,-1.15 4.53,-1.62 2.18,3.93 3.59,8.19 5.13,12.39 0.7,2.31 3.77,2.41 4.92,4.37 -0.15,0.41 -0.45,1.23 -0.6,1.64 -1.05,-0.43 -2.1,-0.86 -3.14,-1.29 -2.77,-1.31 -6.04,-2.69 -8.95,-0.9 -3,1.07 -6.05,4.62 -9.34,2.53 3.4,-2.02 6.94,-3.78 10.45,-5.59 1.21,-0.79 2.93,-1.38 3.25,-2.97 -0.83,-3.24 -2.51,-6.45 -5.55,-8.1 z"
       id="path111" />
  </g>
  <g
     id="#fef6f1ff"
     transform="translate(-69.671055,-244.05271)">
    <path
       fill="#fef6f1"
       opacity="1"
       d="m 341.23,349.18 c 1.13,-1.23 2.31,-2.42 3.52,-3.57 0.59,0.74 1.19,1.48 1.8,2.22 0.69,1.34 2.92,1.16 3.62,-0.08 0.25,-0.32 0.75,-0.95 1,-1.26 l 0.54,-0.7 c 1.04,0.65 2.07,1.32 3.1,2.01 -1.51,1.37 -2.94,2.92 -4.81,3.78 -3.1,0.17 -5.97,-1.29 -8.77,-2.4 z"
       id="path112" />
  </g>
  <g
     id="#ccbeb9ff"
     transform="translate(-69.671055,-244.05271)">
    <path
       fill="#ccbeb9"
       opacity="1"
       d="m 363.17,346.35 c 3.09,0.76 6.18,1.45 9.26,2.25 -0.33,0.38 -1,1.15 -1.33,1.53 -0.15,0.13 -0.43,0.41 -0.58,0.54 -1.23,0 -2.47,-0.23 -3.69,0.02 -2.29,0.63 -4.46,1.79 -6.9,1.8 0.39,-1.12 0.82,-2.23 1.27,-3.32 0.29,-0.39 0.86,-1.15 1.15,-1.54 l 0.32,-0.4 c 0.12,-0.22 0.38,-0.66 0.5,-0.88 z"
       id="path113" />
  </g>
  <g
     id="#c6b3c0ff"
     transform="translate(-69.671055,-244.05271)">
    <path
       fill="#c6b3c0"
       opacity="1"
       d="m 194.89,346.94 c 3.04,1.65 4.72,4.86 5.55,8.1 -0.32,1.59 -2.04,2.18 -3.25,2.97 -3.51,1.81 -7.05,3.57 -10.45,5.59 -11.56,5.52 -22.73,11.83 -34.37,17.15 -1.55,-3.49 -5.22,-8.3 -1.12,-11.4 7.66,-3.5 14.99,-7.66 22.53,-11.41 7,-3.73 14.28,-6.95 21.11,-11 m -9.34,6.5 c -10.13,4.74 -20,10 -30.06,14.88 -2.06,0.95 -3.96,2.2 -5.7,3.65 0.72,2.39 1.37,4.81 2.42,7.09 1.16,1.32 2.76,-0.36 3.97,-0.76 14.19,-7.71 28.76,-14.72 42.91,-22.48 -0.57,-1.93 -1.07,-5.42 -3.95,-4.31 0.22,1.23 0.47,2.47 0.71,3.71 -2.71,0.33 -4.69,2.34 -7.08,3.46 -4.68,2.2 -9.28,4.55 -14.05,6.56 -3.17,1.56 -6.96,5.74 -10.49,2.73 0.08,1.19 0.16,2.39 0.22,3.59 -1.18,-1.01 -2.31,-2.08 -3.42,-3.17 6.92,-3.4 13.7,-7.09 20.77,-10.16 0.64,0.45 1.27,0.92 1.88,1.41 0.08,-1.1 0.16,-2.2 0.24,-3.29 0.85,0.04 1.71,0.08 2.57,0.11 2.53,-3.93 8.49,-3.5 10.69,-7.76 -4.34,0.05 -7.85,2.97 -11.63,4.74 m -14.36,10.89 c -1.55,3 3.31,0.18 0,0 z"
       id="path114" />
  </g>
  <g
     id="#4c3c3bff"
     transform="translate(-69.671055,-244.05271)">
    <path
       fill="#4c3c3b"
       opacity="1"
       d="m 346.55,347.83 c 0.69,-1.39 2.85,-1.41 3.62,-0.08 -0.7,1.24 -2.93,1.42 -3.62,0.08 z"
       id="path115" />
    <path
       fill="#4c3c3b"
       opacity="1"
       d="m 151.91,388.76 c 1.33,0.18 2.66,0.89 3.15,2.21 3.79,7.39 5.68,15.54 8.81,23.2 2.7,8.51 7.1,16.42 9.15,25.16 -0.4,0.98 -0.74,2 -1.01,3.04 -3.57,-2.61 -3.84,-7.33 -5.33,-11.14 -3.77,-9.93 -7.75,-19.8 -10.95,-29.94 -1.38,-4.14 -3.86,-8.03 -3.82,-12.53 z"
       id="path116" />
  </g>
  <g
     id="#25161dff"
     transform="translate(-69.671055,-244.05271)">
    <path
       fill="#25161d"
       opacity="1"
       d="m 406.55,351.54 c 7.4,-4.77 16.81,-5.11 25.2,-3.26 5.27,1.11 10.79,3.53 13.52,8.45 1.8,3.34 -1.09,6.7 -2.03,9.86 2.23,-2.09 3.7,-4.78 4.89,-7.56 1.29,2.23 2.39,4.89 1.46,7.46 -1.11,1.9 -2.9,3.25 -4.54,4.66 -7.46,2.43 -15.34,2.8 -23.11,2.98 -7.93,-0.03 -16.26,-3.5 -20.74,-10.25 -1.03,-1.49 -1.99,-3.03 -2.97,-4.54 1.43,-3.82 4.83,-6.07 8.32,-7.8 m 3.84,0.22 c -1.48,1.38 -3.35,2.63 -3.94,4.67 -0.61,1.79 0.26,3.58 0.71,5.3 9.16,8.67 25.27,10.89 35.06,2.03 l 0.83,0.17 c 0.55,-2.52 0.57,-5.1 -0.18,-7.57 -3.5,-3.42 -7.9,-5.95 -12.78,-6.71 -6.58,-0.98 -13.65,-1.03 -19.7,2.11 z"
       id="path117" />
  </g>
  <g
     id="#99867aff"
     transform="translate(-69.671055,-244.05271)">
    <path
       fill="#99867a"
       opacity="1"
       d="m 381.83,349.86 c -0.16,-2.58 2.5,-1.89 4.21,-2.17 -0.01,0.57 -0.03,1.71 -0.04,2.28 -1.4,-0.04 -2.79,-0.07 -4.17,-0.11 z"
       id="path118" />
  </g>
  <g
     id="#3a242eff"
     transform="translate(-69.671055,-244.05271)">
    <path
       fill="#3a242e"
       opacity="1"
       d="m 185.55,353.44 c 3.78,-1.77 7.29,-4.69 11.63,-4.74 -2.2,4.26 -8.16,3.83 -10.69,7.76 -0.86,-0.03 -1.72,-0.07 -2.57,-0.11 -0.08,1.09 -0.16,2.19 -0.24,3.29 -0.61,-0.49 -1.24,-0.96 -1.88,-1.41 -7.07,3.07 -13.85,6.76 -20.77,10.16 1.11,1.09 2.24,2.16 3.42,3.17 -0.06,-1.2 -0.14,-2.4 -0.22,-3.59 3.53,3.01 7.32,-1.17 10.49,-2.73 4.77,-2.01 9.37,-4.36 14.05,-6.56 2.39,-1.12 4.37,-3.13 7.08,-3.46 -0.24,-1.24 -0.49,-2.48 -0.71,-3.71 2.88,-1.11 3.38,2.38 3.95,4.31 -14.15,7.76 -28.72,14.77 -42.91,22.48 -1.21,0.4 -2.81,2.08 -3.97,0.76 -1.05,-2.28 -1.7,-4.7 -2.42,-7.09 1.74,-1.45 3.64,-2.7 5.7,-3.65 10.06,-4.88 19.93,-10.14 30.06,-14.88 m -26.3,15.59 c -0.47,0.45 -1.4,1.35 -1.86,1.79 0.66,1.02 1.33,2.05 2,3.07 0.82,-0.73 2.76,-1.14 2.25,-2.6 -0.72,-0.84 -1.58,-1.54 -2.39,-2.26 m -4.27,1.78 c -0.47,1.68 -0.81,3.39 -1.06,5.12 1.46,-0.63 2.91,-1.3 4.36,-1.94 -1.09,-1.07 -2.18,-2.14 -3.3,-3.18 z"
       id="path119" />
  </g>
  <g
     id="#f2e0cdff"
     transform="translate(-69.671055,-244.05271)">
    <path
       fill="#f2e0cd"
       opacity="1"
       d="m 410.39,351.76 c 6.05,-3.14 13.12,-3.09 19.7,-2.11 4.88,0.76 9.28,3.29 12.78,6.71 -5.14,2.1 -10.84,0.79 -16.14,2.21 4.64,3.03 10.16,4.05 15.49,5.19 -9.79,8.86 -25.9,6.64 -35.06,-2.03 1.08,-0.93 2.32,-1.84 3.82,-1.9 4.43,-0.47 8.9,-0.51 13.31,-1.13 -4.18,-2.74 -8.9,-4.55 -13.84,-5.3 -0.02,-0.41 -0.05,-1.23 -0.06,-1.64 z"
       id="path120" />
  </g>
  <g
     id="#b8a495ff"
     transform="translate(-69.671055,-244.05271)">
    <path
       fill="#b8a495"
       opacity="1"
       d="m 406.45,356.43 c 0.59,-2.04 2.46,-3.29 3.94,-4.67 0.01,0.41 0.04,1.23 0.06,1.64 4.94,0.75 9.66,2.56 13.84,5.3 -4.41,0.62 -8.88,0.66 -13.31,1.13 -1.5,0.06 -2.74,0.97 -3.82,1.9 -0.45,-1.72 -1.32,-3.51 -0.71,-5.3 z"
       id="path121" />
  </g>
  <g
     id="#b79d90ff"
     transform="translate(-69.671055,-244.05271)">
    <path
       fill="#b79d90"
       opacity="1"
       d="m 442.87,356.36 c 0.75,2.47 0.73,5.05 0.18,7.57 l -0.83,-0.17 c -5.33,-1.14 -10.85,-2.16 -15.49,-5.19 5.3,-1.42 11,-0.11 16.14,-2.21 z"
       id="path122" />
  </g>
  <g
     id="#3b2931ff"
     transform="translate(-69.671055,-244.05271)">
    <path
       fill="#3b2931"
       opacity="1"
       d="m 458.07,365.77 c 2.96,-3.25 5.66,-6.74 8.78,-9.84 1.02,2.96 1.59,6.07 1.51,9.22 -5.18,3.66 -7.21,10.13 -12.21,13.99 -5.89,4.63 -10.24,10.82 -15.66,15.96 -0.44,-2.3 -1.85,-4.87 -0.48,-7.1 2.29,-3.9 5.68,-6.99 8.41,-10.57 3.08,-4 6.12,-8.04 9.65,-11.66 z"
       id="path123" />
  </g>
  <g
     id="#65565dff"
     transform="translate(-69.671055,-244.05271)">
    <path
       fill="#65565d"
       opacity="1"
       d="m 401.34,368.45 c -1.65,-2.72 -4.53,-5.7 -3.11,-9.11 0.98,1.51 1.94,3.05 2.97,4.54 4.48,6.75 12.81,10.22 20.74,10.25 7.77,-0.18 15.65,-0.55 23.11,-2.98 0.38,-0.08 1.13,-0.24 1.51,-0.31 -0.43,1.43 -0.89,2.86 -1.4,4.28 -3.38,3.68 -6.57,7.53 -9.58,11.53 -9.27,-2.3 -18.36,-5.23 -27.48,-8.03 0.19,-1.62 1.2,-3.4 0.32,-4.96 -2.24,-1.9 -5.57,-2.44 -7.08,-5.21 z"
       id="path124" />
  </g>
  <g
     id="#f2e3cfff"
     transform="translate(-69.671055,-244.05271)">
    <path
       fill="#f2e3cf"
       opacity="1"
       d="m 301.69,362.76 c 2.68,-1.55 5.78,-1.95 8.83,-1.98 5.96,1.96 11.95,3.84 17.94,5.73 16.97,5.81 34.31,10.55 51.21,16.53 4.68,4.44 11.31,5.18 17.15,7.24 6.25,2.16 12.59,4.01 18.97,5.72 -0.68,1.31 -1.36,2.61 -2.07,3.91 -3.99,3.85 -7.05,8.56 -11.25,12.19 l -0.92,0.04 c 1.19,-1.78 2.43,-3.52 3.66,-5.27 0.19,-0.28 0.58,-0.84 0.78,-1.12 -2.08,-2.89 -5.49,-4.08 -8.71,-5.18 -2.64,-0.96 -5.36,-1.68 -7.96,-2.7 -0.44,-0.2 -1.31,-0.61 -1.75,-0.81 0.52,-0.37 1.57,-1.11 2.09,-1.48 -2.4,-0.71 -4.77,-1.51 -7.12,-2.37 0.17,0.9 0.34,1.79 0.52,2.7 -3.25,-0.96 -6.5,-1.89 -9.74,-2.86 -9.8,-3.12 -19.7,-6 -29.33,-9.62 -3.91,-2.12 -7.82,-4.33 -12.02,-5.82 -3.11,-0.69 -6.28,-1.12 -9.29,-2.15 0.6,-0.39 1.8,-1.15 2.4,-1.53 -3.34,-0.89 -6.69,0.02 -9.8,1.25 -2.26,-2.67 -3.74,-5.88 -5.78,-8.68 -2.49,-1.48 -5.26,-2.38 -7.81,-3.74 M 392.66,397 c 1.82,1.73 4.26,2.23 6.7,2.13 -1.73,-1.91 -4.31,-2.02 -6.7,-2.13 z"
       id="path125" />
  </g>
  <g
     id="#332326ff"
     transform="translate(-69.671055,-244.05271)">
    <path
       fill="#332326"
       opacity="1"
       d="m 205.03,361.97 c 1.04,0.43 2.09,0.86 3.14,1.29 6.03,14.83 12.39,29.55 18.34,44.42 -0.79,0.03 -2.39,0.1 -3.18,0.14 -0.39,-2 -0.61,-4.06 -1.41,-5.94 -4.48,-8.19 -7.39,-17.1 -11.3,-25.55 -2.25,-4.63 -3.68,-9.59 -5.59,-14.36 z"
       id="path126" />
  </g>
  <g
     id="#aea19fff"
     transform="translate(-69.671055,-244.05271)">
    <path
       fill="#aea19f"
       opacity="1"
       d="m 208.17,363.26 c 0.15,-0.41 0.45,-1.23 0.6,-1.64 2.45,3.39 3.7,7.43 5.31,11.26 5.32,12.67 10.44,25.44 15.72,38.14 1.27,2.54 0.56,5.39 0.03,8.02 -0.04,-4.05 -1.79,-7.71 -3.32,-11.36 -5.95,-14.87 -12.31,-29.59 -18.34,-44.42 z"
       id="path127" />
    <path
       fill="#aea19f"
       opacity="1"
       d="m 476.42,380.86 c 4.38,-5.45 8.39,-11.22 13.24,-16.27 -0.48,6.75 -4.81,12.42 -6.08,19.01 -2.23,-1.28 -4.64,-2.22 -7.16,-2.74 z"
       id="path128" />
    <path
       fill="#aea19f"
       opacity="1"
       d="m 214.3,401.01 c 0.7,-0.3 1.41,-0.58 2.13,-0.83 0.39,1.59 0.8,3.19 1.21,4.79 -0.31,0.19 -0.95,0.56 -1.27,0.74 -0.69,-1.57 -1.38,-3.14 -2.07,-4.7 z"
       id="path129" />
  </g>
  <g
     id="#403237ff"
     transform="translate(-69.671055,-244.05271)">
    <path
       fill="#403237"
       opacity="1"
       d="m 372.49,365.16 c 4.87,-1.01 10.19,-3.02 14.94,-0.47 -4.4,3.15 -10.31,3.03 -14.94,0.47 z"
       id="path130" />
  </g>
  <g
     id="#52404bff"
     transform="translate(-69.671055,-244.05271)">
    <path
       fill="#52404b"
       opacity="1"
       d="m 171.19,364.33 c 3.31,0.18 -1.55,3 0,0 z"
       id="path131" />
  </g>
  <g
     id="#352228ff"
     transform="translate(-69.671055,-244.05271)">
    <path
       fill="#352228"
       opacity="1"
       d="m 152.37,380.75 c 11.64,-5.32 22.81,-11.63 34.37,-17.15 0.5,3.59 -3.45,4.13 -5.9,5.33 -7.76,3.36 -14.88,8.05 -22.76,11.15 -3.21,1.1 -5.58,3.59 -7.94,5.91 -1.95,-4.58 -3.67,-9.25 -5.21,-13.99 1.77,-1.58 3.84,-2.87 6.32,-2.65 -4.1,3.1 -0.43,7.91 1.12,11.4 z"
       id="path132" />
  </g>
  <g
     id="#b96f6bff"
     transform="translate(-69.671055,-244.05271)">
    <path
       fill="#b96f6b"
       opacity="1"
       d="m 189.37,376.22 c 0.88,-3.29 3.3,-6.43 6.78,-7.16 2.78,-0.98 6.62,-0.18 7.7,2.86 1.33,3.97 4.51,7.17 4.85,11.48 -2.51,-1.38 -2.98,-4.38 -4.14,-6.74 -2.14,2.52 -4.38,5.51 -7.91,6 -3.75,0.98 -8.17,-2.45 -7.28,-6.44 m 4.35,-3.53 c -2.51,2.15 -2.14,7.22 1.44,8.05 3.04,-0.09 5.33,-2.33 6.85,-4.75 -2.71,1.16 -5.4,2.36 -8.2,3.3 0.65,-1.1 1.34,-2.17 2.02,-3.25 -1.1,0.3 -2.2,0.58 -3.3,0.87 1.78,-3.36 6.09,-3.41 8.59,-5.91 -2.49,0.17 -5.46,-0.25 -7.4,1.69 z"
       id="path133" />
  </g>
  <g
     id="#90333eff"
     transform="translate(-69.671055,-244.05271)">
    <path
       fill="#90333e"
       opacity="1"
       d="m 193.72,372.69 c 1.94,-1.94 4.91,-1.52 7.4,-1.69 -2.5,2.5 -6.81,2.55 -8.59,5.91 1.1,-0.29 2.2,-0.57 3.3,-0.87 -0.68,1.08 -1.37,2.15 -2.02,3.25 2.8,-0.94 5.49,-2.14 8.2,-3.3 -1.52,2.42 -3.81,4.66 -6.85,4.75 -3.58,-0.83 -3.95,-5.9 -1.44,-8.05 z"
       id="path134" />
    <path
       fill="#90333e"
       opacity="1"
       d="m 486.21,414.23 c 3.89,-4.57 7.23,-9.66 11.82,-13.6 3.57,3.61 6.01,8.15 9.74,11.62 0.01,0.2 0.01,0.58 0.02,0.78 -3.86,1.01 -5.7,4.78 -8.19,7.52 -2.85,3.8 -6.66,7.07 -8.18,11.69 -1.99,4.7 -5.7,8.4 -8.82,12.37 -2.95,-4.77 -6.99,-8.76 -9.79,-13.62 3.63,-6.22 9.03,-11.09 13.4,-16.76 m 9.47,-3.28 c 0.72,1.33 1.47,2.66 2.2,4.01 -1,-0.75 -1.99,-1.52 -2.97,-2.27 -5.26,5.84 -10.87,11.5 -15.26,18.03 1.01,0.67 2.02,1.34 3.04,2.01 -0.19,0.15 -0.59,0.46 -0.79,0.61 -1.27,-0.6 -2.56,-1.19 -3.85,-1.73 0.63,1.85 1.33,3.69 2.06,5.52 1.87,-1.32 3.47,-2.97 4.75,-4.87 -0.96,-1.18 -1.95,-2.34 -2.89,-3.53 1.48,0.77 2.95,1.55 4.45,2.32 -0.12,-0.46 -0.35,-1.39 -0.46,-1.85 0.81,-0.44 1.66,-0.88 2.28,-1.58 5.18,-5.28 9.43,-11.36 14.45,-16.8 -1,-1.29 -2,-2.58 -2.97,-3.88 -1.37,1.31 -2.72,2.65 -4.04,4.01 z"
       id="path135" />
  </g>
  <g
     id="#4b3d40ff"
     transform="translate(-69.671055,-244.05271)">
    <path
       fill="#4b3d40"
       opacity="1"
       d="m 312.77,381.47 c 2.71,-2.74 5.6,-6.45 9.91,-6.01 3.01,1.03 6.18,1.46 9.29,2.15 4.2,1.49 8.11,3.7 12.02,5.82 -3.71,1.77 -7.08,6.38 -11.58,4.28 -6.52,-2.18 -13.01,-4.43 -19.64,-6.24 z"
       id="path136" />
  </g>
  <g
     id="#8f4a4aff"
     transform="translate(-69.671055,-244.05271)">
    <path
       fill="#8f4a4a"
       opacity="1"
       d="m 179.69,379.02 c 2.67,-0.63 5.41,-0.92 8.05,-1.67 0.6,2.59 1.72,5.4 0.17,7.89 l -0.62,-0.64 c -1.21,-1.27 -2.38,-2.58 -3.54,-3.88 -2.46,0.78 -5.22,1.54 -6.32,4.16 2.3,0.5 4.62,0.94 6.98,1.05 -2.21,2.53 -5.51,3.02 -8.67,2.57 0.2,-3.4 0.73,-7.58 3.95,-9.48 z"
       id="path137" />
  </g>
  <g
     id="#33191dff"
     transform="translate(-69.671055,-244.05271)">
    <path
       fill="#33191d"
       opacity="1"
       d="m 219.91,378.14 c 6.36,2.19 12.43,5.12 18.82,7.24 6.68,2.2 13.38,4.37 19.92,6.97 8.58,3.41 17.6,5.51 26.23,8.79 6.46,2.49 13.38,3.47 19.8,6.08 7.88,3.13 16.01,5.5 24.1,8 8.73,3.14 17.94,4.78 26.46,8.52 -5.39,1.49 -10.96,0.89 -16.29,-0.55 1.96,2.07 3.98,4.09 6.06,6.06 -1.16,0.09 -2.31,0.2 -3.45,0.32 -0.89,0.94 -1.77,1.89 -2.65,2.84 -1.24,-0.39 -2.48,-0.77 -3.71,-1.14 -2.26,1.93 -4.28,4.29 -7,5.58 -3.27,0.15 -6.93,-2.22 -9.54,0.76 -10.39,-2.22 -19.75,-7.43 -29.9,-10.42 -14.81,-4.9 -29.15,-11.09 -43.89,-16.18 -4.56,-1.58 -8.89,-3.75 -13.5,-5.18 -4.14,-9.09 -7.66,-18.45 -11.46,-27.69 z"
       id="path138" />
  </g>
  <g
     id="#803b34ff"
     transform="translate(-69.671055,-244.05271)">
    <path
       fill="#803b34"
       opacity="1"
       d="m 177.43,384.88 c 1.1,-2.62 3.86,-3.38 6.32,-4.16 1.16,1.3 2.33,2.61 3.54,3.88 -0.95,0.46 -1.91,0.9 -2.88,1.33 -2.36,-0.11 -4.68,-0.55 -6.98,-1.05 z"
       id="path139" />
  </g>
  <g
     id="#3d2c34ff"
     transform="translate(-69.671055,-244.05271)">
    <path
       fill="#3d2c34"
       opacity="1"
       d="m 448.82,393.83 c 1.69,-4.83 5.27,-8.53 8.88,-12 -0.15,1.71 -0.31,3.42 -0.46,5.13 3.19,0.77 6.51,0.87 9.73,0.12 -6.32,1.58 -11.55,6.34 -18.15,6.75 z"
       id="path140" />
  </g>
  <g
     id="#c2bbb4ff"
     transform="translate(-69.671055,-244.05271)">
    <path
       fill="#c2bbb4"
       opacity="1"
       d="m 379.67,383.04 c 4.55,1.03 9.05,2.3 13.47,3.82 9.04,3.05 18.44,5.17 27.15,9.16 -2.54,4.4 -6.17,8 -9.44,11.85 -3.54,3.86 -6.79,8.01 -10.66,11.55 -0.66,-0.27 -1.99,-0.82 -2.65,-1.09 1.09,-1.78 2.22,-3.54 3.39,-5.27 0.15,-0.23 0.46,-0.69 0.62,-0.92 l 0.92,-0.04 c 0.33,-0.02 0.99,-0.05 1.32,-0.07 3.86,-3.52 7.5,-7.46 9.93,-12.12 0.71,-1.3 1.39,-2.6 2.07,-3.91 -6.38,-1.71 -12.72,-3.56 -18.97,-5.72 -5.84,-2.06 -12.47,-2.8 -17.15,-7.24 z"
       id="path141" />
  </g>
  <g
     id="#cbbcbfff"
     transform="translate(-69.671055,-244.05271)">
    <path
       fill="#cbbcbf"
       opacity="1"
       d="m 208.12,384.31 c 1.6,-0.5 2.16,0.07 1.65,1.71 -1.62,0.5 -2.17,-0.07 -1.65,-1.71 z"
       id="path142" />
  </g>
  <g
     id="#45343dff"
     transform="translate(-69.671055,-244.05271)">
    <path
       fill="#45343d"
       opacity="1"
       d="m 468.15,394.06 c 0.32,-3.38 2.63,-6.02 4.56,-8.63 2.01,2.58 5.08,3.8 8.17,4.57 5.85,1.67 11.48,4.13 17.53,5.04 l -0.46,0.52 c -0.57,0.75 -1.16,1.48 -1.76,2.2 -0.35,-0.49 -1.03,-1.48 -1.37,-1.97 -2.49,2.57 -4.6,5.5 -7.31,7.85 -6.14,0.61 -11.06,-3.63 -16.44,-5.79 -1.02,0.7 -2.04,1.39 -3.05,2.09 1.24,0.54 2.49,1.08 3.75,1.63 -2.65,1.62 -5.46,3.15 -7.41,5.64 -1.35,1.75 -3.3,2.8 -5.21,3.8 4.73,3.49 10.83,3.79 15.84,6.7 -3.41,1.98 -6.64,4.24 -9.78,6.63 0.95,-2.46 1.86,-4.92 2.7,-7.41 -3.63,2.87 -6.75,6.3 -10.23,9.35 -4.39,-1.41 -8.89,-2.69 -12.82,-5.17 5.66,-5.77 11.02,-11.82 16.43,-17.82 2.43,-2.92 6.53,-5.09 6.86,-9.23 z"
       id="path143" />
  </g>
  <g
     id="#a78556ff"
     transform="translate(-69.671055,-244.05271)">
    <path
       fill="#a78556"
       opacity="1"
       d="m 169.15,387.07 0.96,-0.6 c 0.06,3.29 -1.32,6.31 -3.83,8.43 -0.3,0.09 -0.92,0.27 -1.23,0.37 -0.89,-1.32 -1.73,-2.66 -2.56,-4 2.22,-1.41 4.46,-2.77 6.66,-4.2 z"
       id="path144" />
  </g>
  <g
     id="#bda07aff"
     transform="translate(-69.671055,-244.05271)">
    <path
       fill="#bda07a"
       opacity="1"
       d="m 170.11,386.47 c 1.4,0.71 2.8,1.46 4.17,2.25 -1.78,3.04 -4.12,6.07 -8,6.18 2.51,-2.12 3.89,-5.14 3.83,-8.43 z"
       id="path145" />
  </g>
  <g
     id="#5a4b4fff"
     transform="translate(-69.671055,-244.05271)">
    <path
       fill="#5a4b4f"
       opacity="1"
       d="m 341.84,396.43 c 0.62,-2.34 1.32,-4.65 2.06,-6.94 8.81,2.11 17.08,6.05 25.99,7.8 -0.77,1.13 -1.47,2.31 -2.14,3.5 -0.68,1.2 -1.35,2.41 -2.01,3.63 -8.08,-2.3 -16,-5.14 -23.9,-7.99 z"
       id="path146" />
  </g>
  <g
     id="#37232aff"
     transform="translate(-69.671055,-244.05271)">
    <path
       fill="#37232a"
       opacity="1"
       d="m 408.28,426.33 c 9.22,-11.21 18.91,-22.05 28.79,-32.68 1.35,3.37 3.14,6.71 3.44,10.39 -0.93,3.14 -3.71,5.29 -5.7,7.77 -4.19,4.29 -6.49,10.05 -10.95,14.09 -1.93,2.01 -4.68,3.95 -4.59,7.06 -0.01,4.33 3.58,7.52 4.54,11.63 1.37,-0.61 2.73,-1.25 4.19,-1.64 2.76,0.52 4.85,2.61 7.09,4.18 -0.69,0.95 -1.37,1.91 -2.04,2.88 -2.48,-1.76 -5.14,-3.25 -7.9,-4.53 -1.85,2.04 -3.67,4.12 -5.35,6.31 -3.29,4.47 -6.88,8.7 -10.89,12.55 -0.62,-4.31 -1.09,-8.64 -1.64,-12.96 -0.71,-5.59 -2.78,-10.94 -3.27,-16.56 -0.47,-3.46 2.48,-5.93 4.28,-8.49 z"
       id="path147" />
  </g>
  <g
     id="#190c0dff"
     transform="translate(-69.671055,-244.05271)">
    <path
       fill="#190c0d"
       opacity="1"
       d="m 374.76,402.95 c 2.34,-2.23 3.96,-5.34 7.09,-6.61 -1.2,1.94 -2.52,3.8 -3.87,5.63 0.54,0.31 1.63,0.92 2.18,1.22 2.45,-2.05 4.75,-4.32 7.41,-6.13 0.44,0.2 1.31,0.61 1.75,0.81 -2.05,3.01 -4.34,5.83 -6.44,8.8 2.88,0.96 5.79,2.35 8.9,2.12 3.29,-1.43 4.87,-4.89 5.5,-8.22 3.22,1.1 6.63,2.29 8.71,5.18 -0.2,0.28 -0.59,0.84 -0.78,1.12 -2.63,0.5 -6.26,-0.29 -7.69,2.61 -1.2,2.09 -2.85,3.89 -5.47,3.81 -8.7,-3.18 -17.54,-5.91 -26.31,-8.87 0.66,-1.22 1.33,-2.43 2.01,-3.63 2.25,0.81 4.53,2.56 7.01,2.16 z"
       id="path148" />
  </g>
  <g
     id="#55454fff"
     transform="translate(-69.671055,-244.05271)">
    <path
       fill="#55454f"
       opacity="1"
       d="m 487.51,403.64 c 2.71,-2.35 4.82,-5.28 7.31,-7.85 0.34,0.49 1.02,1.48 1.37,1.97 -7.82,9 -15.83,17.84 -23.18,27.23 -1.37,1.63 -2.7,3.32 -4.36,4.66 -3.89,-0.07 -7.33,-2.26 -10.97,-3.37 3.48,-3.05 6.6,-6.48 10.23,-9.35 -0.84,2.49 -1.75,4.95 -2.7,7.41 3.14,-2.39 6.37,-4.65 9.78,-6.63 -5.01,-2.91 -11.11,-3.21 -15.84,-6.7 1.91,-1 3.86,-2.05 5.21,-3.8 1.95,-2.49 4.76,-4.02 7.41,-5.64 -1.26,-0.55 -2.51,-1.09 -3.75,-1.63 1.01,-0.7 2.03,-1.39 3.05,-2.09 5.38,2.16 10.3,6.4 16.44,5.79 z"
       id="path149" />
  </g>
  <g
     id="#b4aaa1ff"
     transform="translate(-69.671055,-244.05271)">
    <path
       fill="#b4aaa1"
       opacity="1"
       d="m 392.66,397 c 2.39,0.11 4.97,0.22 6.7,2.13 -2.44,0.1 -4.88,-0.4 -6.7,-2.13 z"
       id="path150" />
  </g>
  <g
     id="#695d61ff"
     transform="translate(-69.671055,-244.05271)">
    <path
       fill="#695d61"
       opacity="1"
       d="m 389.32,397.87 c 2.6,1.02 5.32,1.74 7.96,2.7 -0.63,3.33 -2.21,6.79 -5.5,8.22 -3.11,0.23 -6.02,-1.16 -8.9,-2.12 2.1,-2.97 4.39,-5.79 6.44,-8.8 z"
       id="path151" />
    <path
       fill="#695d61"
       opacity="1"
       d="m 413.72,399.91 c -2.43,4.66 -6.07,8.6 -9.93,12.12 -0.33,0.02 -0.99,0.05 -1.32,0.07 4.2,-3.63 7.26,-8.34 11.25,-12.19 z"
       id="path152" />
  </g>
  <g
     id="#877979ff"
     transform="translate(-69.671055,-244.05271)">
    <path
       fill="#877979"
       opacity="1"
       d="m 161.77,399.68 c 2.62,0.65 2.49,3.49 2.57,5.63 -2.73,-0.5 -2.3,-3.59 -2.57,-5.63 z"
       id="path153" />
  </g>
  <g
     id="#ece4e3ff"
     transform="translate(-69.671055,-244.05271)">
    <path
       fill="#ece4e3"
       opacity="1"
       d="m 174.78,402.14 c 1.69,-0.79 3.38,-1.61 5.08,-2.38 0.39,1.29 1.42,2.57 1.08,3.99 -1.01,1.35 -2.83,2.09 -4.3,3.01 -0.75,-1.49 -1.39,-3.03 -1.86,-4.62 z"
       id="path154" />
  </g>
  <g
     id="#312321ff"
     transform="translate(-69.671055,-244.05271)">
    <path
       fill="#312321"
       opacity="1"
       d="m 188.09,405.38 c 1.52,-0.51 3.05,-0.99 4.59,-1.44 0.27,1.35 0.54,2.7 0.81,4.06 -1.57,0.37 -2.97,1.16 -4.54,1.51 -0.23,-1.4 -0.66,-2.74 -0.86,-4.13 z"
       id="path155" />
  </g>
  <g
     id="#88736cff"
     transform="translate(-69.671055,-244.05271)">
    <path
       fill="#88736c"
       opacity="1"
       d="m 205.56,409.83 c 1.6,-3.19 5.44,-4.16 8.61,-5.06 -1.81,3.05 -5.42,4.1 -8.61,5.06 z"
       id="path156" />
  </g>
  <g
     id="#5a4b4dff"
     transform="translate(-69.671055,-244.05271)">
    <path
       fill="#5a4b4d"
       opacity="1"
       d="m 397.52,409.48 c 1.43,-2.9 5.06,-2.11 7.69,-2.61 -1.23,1.75 -2.47,3.49 -3.66,5.27 -0.16,0.23 -0.47,0.69 -0.62,0.92 -2.86,1.17 -6,1.52 -8.88,0.23 2.62,0.08 4.27,-1.72 5.47,-3.81 z"
       id="path157" />
  </g>
  <g
     id="#d19f9fff"
     transform="translate(-69.671055,-244.05271)">
    <path
       fill="#d19f9f"
       opacity="1"
       d="m 495.68,410.95 c 1.32,-1.36 2.67,-2.7 4.04,-4.01 0.97,1.3 1.97,2.59 2.97,3.88 -5.02,5.44 -9.27,11.52 -14.45,16.8 -0.62,0.7 -1.47,1.14 -2.28,1.58 1.01,-1.24 -1.5,-3.66 -1.81,-1.53 0.46,0.38 1.36,1.15 1.81,1.53 0.11,0.46 0.34,1.39 0.46,1.85 -1.5,-0.77 -2.97,-1.55 -4.45,-2.32 0.94,1.19 1.93,2.35 2.89,3.53 -1.28,1.9 -2.88,3.55 -4.75,4.87 -0.73,-1.83 -1.43,-3.67 -2.06,-5.52 1.29,0.54 2.58,1.13 3.85,1.73 0.2,-0.15 0.6,-0.46 0.79,-0.61 -1.02,-0.67 -2.03,-1.34 -3.04,-2.01 4.39,-6.53 10,-12.19 15.26,-18.03 0.98,0.75 1.97,1.52 2.97,2.27 -0.73,-1.35 -1.48,-2.68 -2.2,-4.01 m -7.54,11.49 c -0.37,1.42 0.14,1.88 1.53,1.39 0.35,-1.42 -0.16,-1.89 -1.53,-1.39 z"
       id="path158" />
  </g>
  <g
     id="#575a51ff"
     transform="translate(-69.671055,-244.05271)">
    <path
       fill="#575a51"
       opacity="1"
       d="m 218.38,415.99 c 1.24,-1.25 3.16,-0.54 4.72,-0.67 0.58,2.51 -0.71,4.78 -2.95,5.92 -2.55,1.84 -5.45,3.13 -8.53,3.79 -0.02,-0.78 -0.06,-2.33 -0.07,-3.11 -1.29,1.01 -3.47,3.15 -0.8,4.07 -1.15,0.64 -2.31,1.24 -3.48,1.84 -0.15,-0.68 -0.43,-2.06 -0.57,-2.74 -5.08,2.19 -10.06,4.65 -14.7,7.67 0.46,0.44 1.39,1.32 1.85,1.76 -5.03,2.88 -10.4,5.07 -15.6,7.62 -2.02,1.09 -4.32,1.25 -6.57,1.03 l 0.33,-0.8 c 0.27,-1.04 0.61,-2.06 1.01,-3.04 1.83,-0.98 3.7,-1.9 5.55,-2.83 2.52,-1.3 5.1,-2.49 7.66,-3.7 1.65,-0.84 3.11,-1.98 4.57,-3.09 1.94,-0.43 3.87,-0.98 5.56,-2.06 1.39,-0.98 2.75,-1.98 4.15,-2.94 2.03,-0.32 3.95,-1.06 5.72,-2.11 1.42,-0.79 2.87,-1.57 4.36,-2.24 2.76,-1.13 5.49,-2.43 7.79,-4.37 M 188.2,434.2 c -0.55,1.61 0,2.15 1.65,1.63 0.54,-1.63 -0.01,-2.18 -1.65,-1.63 z"
       id="path159" />
  </g>
  <g
     id="#1a150eff"
     transform="translate(-69.671055,-244.05271)">
    <path
       fill="#1a150e"
       opacity="1"
       d="m 204.5,418.66 c 1.32,-0.88 2.64,-1.75 3.96,-2.62 0.71,1.43 1.42,2.87 2.13,4.32 -1.49,0.67 -2.94,1.45 -4.36,2.24 -0.58,-1.32 -1.16,-2.63 -1.73,-3.94 z"
       id="path160" />
  </g>
  <g
     id="#1f1914ff"
     transform="translate(-69.671055,-244.05271)">
    <path
       fill="#1f1914"
       opacity="1"
       d="m 194.57,423.66 c 1.38,-0.89 2.69,-1.87 4.07,-2.75 0.63,1.26 1.26,2.52 1.87,3.8 -1.4,0.96 -2.76,1.96 -4.15,2.94 -0.59,-1.34 -1.19,-2.67 -1.79,-3.99 z"
       id="path161" />
  </g>
  <g
     id="#8e6762ff"
     transform="translate(-69.671055,-244.05271)">
    <path
       fill="#8e6762"
       opacity="1"
       d="m 488.14,422.44 c 1.37,-0.5 1.88,-0.03 1.53,1.39 -1.39,0.49 -1.9,0.03 -1.53,-1.39 z"
       id="path162" />
  </g>
  <g
     id="#80706eff"
     transform="translate(-69.671055,-244.05271)">
    <path
       fill="#80706e"
       opacity="1"
       d="m 173.07,428.13 c -3.01,0.41 -3.65,-4.08 -2.14,-5.95 1,1.86 1.75,3.86 2.14,5.95 z"
       id="path163" />
  </g>
  <g
     id="#3c2228ff"
     transform="translate(-69.671055,-244.05271)">
    <path
       fill="#3c2228"
       opacity="1"
       d="m 338.95,423.19 c 5.33,1.44 10.9,2.04 16.29,0.55 6.41,1.88 12.61,4.37 19.08,6.03 5.82,1.78 11.78,3.2 17.4,5.57 3.11,1.21 4.73,4.36 5.56,7.41 1.96,7.01 3.36,14.22 3.54,21.51 -24.75,-6.34 -48.44,-16.25 -73.03,-23.19 -3.01,-1.24 -6.01,-2.52 -9.13,-3.46 2.61,-2.98 6.27,-0.61 9.54,-0.76 2.72,-1.29 4.74,-3.65 7,-5.58 1.23,0.37 2.47,0.75 3.71,1.14 0.88,-0.95 1.76,-1.9 2.65,-2.84 1.14,-0.12 2.29,-0.23 3.45,-0.32 -2.08,-1.97 -4.1,-3.99 -6.06,-6.06 z"
       id="path164" />
  </g>
  <g
     id="#959990ff"
     transform="translate(-69.671055,-244.05271)">
    <path
       fill="#959990"
       opacity="1"
       d="m 192,432.76 c 4.64,-3.02 9.62,-5.48 14.7,-7.67 0.14,0.68 0.42,2.06 0.57,2.74 -4.61,1.95 -9,4.37 -13.42,6.69 -0.46,-0.44 -1.39,-1.32 -1.85,-1.76 z"
       id="path165" />
  </g>
  <g
     id="#29261eff"
     transform="translate(-69.671055,-244.05271)">
    <path
       fill="#29261e"
       opacity="1"
       d="m 184.95,428.01 c 1.34,-0.72 2.68,-1.44 4.02,-2.17 0.61,1.28 1.22,2.57 1.83,3.87 -1.46,1.11 -2.92,2.25 -4.57,3.09 -0.43,-1.6 -0.87,-3.19 -1.28,-4.79 z"
       id="path166" />
  </g>
  <g
     id="#763f3fff"
     transform="translate(-69.671055,-244.05271)">
    <path
       fill="#763f3f"
       opacity="1"
       d="m 484.15,427.67 c 0.31,-2.13 2.82,0.29 1.81,1.53 -0.45,-0.38 -1.35,-1.15 -1.81,-1.53 z"
       id="path167" />
  </g>
  <g
     id="#ccd0c8ff"
     transform="translate(-69.671055,-244.05271)">
    <path
       fill="#ccd0c8"
       opacity="1"
       d="m 188.2,434.2 c 1.64,-0.55 2.19,0 1.65,1.63 -1.65,0.52 -2.2,-0.02 -1.65,-1.63 z"
       id="path168" />
  </g>
  <g
     id="#b9a28fff"
     transform="translate(-69.671055,-244.05271)">
    <path
       fill="#b9a28f"
       opacity="1"
       d="m 196.86,451.9 c 2.9,-3.18 6.29,-6.45 10.57,-7.51 1.45,0.44 2.88,0.93 4.32,1.4 0.57,5.07 0.07,10.17 -0.93,15.16 -4.91,-2.56 -10.42,-4.57 -13.96,-9.05 z"
       id="path169" />
  </g>
  <g
     id="#5f4d51ff"
     transform="translate(-69.671055,-244.05271)">
    <path
       fill="#5f4d51"
       opacity="1"
       d="m 419.8,451.79 c 1.68,-2.19 3.5,-4.27 5.35,-6.31 2.76,1.28 5.42,2.77 7.9,4.53 -3.67,4.93 -7.17,10.09 -11.6,14.39 1.27,-3.45 3.33,-6.52 5.4,-9.54 -2.39,-0.93 -4.74,-1.96 -7.05,-3.07 z"
       id="path170" />
  </g>
  <g
     id="#786467ff"
     transform="translate(-69.671055,-244.05271)">
    <path
       fill="#786467"
       opacity="1"
       d="m 408.91,464.34 c 4.01,-3.85 7.6,-8.08 10.89,-12.55 2.31,1.11 4.66,2.14 7.05,3.07 -2.07,3.02 -4.13,6.09 -5.4,9.54 -1.78,3.52 -4.43,6.69 -7.64,8.99 0.72,-4.13 1.56,-8.25 2.06,-12.41 -2.76,1.77 -5.32,3.83 -7.79,6 0.27,-0.89 0.55,-1.77 0.83,-2.64 z"
       id="path171" />
  </g>
  <g
     id="#b8a291ff"
     transform="translate(-69.671055,-244.05271)">
    <path
       fill="#b8a291"
       opacity="1"
       d="m 211.47,462.74 c 1.89,0.58 3.83,1.14 5.5,2.26 2.99,2.04 6.85,4.11 6.81,8.27 -2.89,3.03 -6.57,5.11 -10.55,6.34 -0.96,-0.97 -1.96,-1.88 -2.79,-2.95 -0.17,-4.66 0.72,-9.28 1.03,-13.92 z"
       id="path172" />
  </g>
</svg>
