<?xml version="1.0" encoding="UTF-8" ?>
<!DOCTYPE svg PUBLIC "-//W3C//DTD SVG 1.1//EN" "http://www.w3.org/Graphics/SVG/1.1/DTD/svg11.dtd">
<svg width="224pt" height="224pt" viewBox="0 0 224 224" version="1.1" xmlns="http://www.w3.org/2000/svg">
<g id="#7a8e9aff">
<path fill="#7a8e9a" opacity="1.00" d=" M 0.00 0.00 L 152.99 0.00 C 152.52 7.62 152.02 15.25 150.73 22.78 C 145.46 22.82 140.16 22.91 134.96 23.87 C 128.64 25.03 122.20 25.38 115.89 26.62 C 131.06 27.43 146.27 26.72 161.45 27.26 C 161.99 27.68 163.08 28.54 163.63 28.96 C 131.29 28.70 98.94 28.92 66.60 28.91 C 61.40 28.06 54.91 30.73 54.45 36.59 C 54.05 44.90 54.46 53.22 54.18 61.52 C 52.08 52.41 53.76 43.02 52.62 33.81 C 50.82 37.73 49.20 41.93 49.66 46.34 C 50.28 53.24 49.11 60.10 49.02 66.99 C 48.92 73.67 48.18 80.31 47.81 86.97 C 47.54 92.69 46.11 98.29 46.06 104.03 C 45.87 107.92 46.51 112.06 44.73 115.69 C 42.09 120.67 43.13 126.45 42.85 131.85 C 29.41 138.05 14.35 137.14 0.00 138.95 L 0.00 0.00 Z" />
</g>
<g id="#728794ff">
<path fill="#728794" opacity="1.00" d=" M 152.99 0.00 L 224.00 0.00 L 224.00 88.20 C 219.02 82.14 213.24 76.80 207.73 71.23 C 197.09 60.54 186.29 50.01 175.77 39.20 C 173.73 37.20 171.51 35.40 169.33 33.56 C 167.51 31.93 165.60 30.40 163.63 28.96 C 163.08 28.54 161.99 27.68 161.45 27.26 C 146.27 26.72 131.06 27.43 115.89 26.62 C 122.20 25.38 128.64 25.03 134.96 23.87 C 140.16 22.91 145.46 22.82 150.73 22.78 C 152.02 15.25 152.52 7.62 152.99 0.00 Z" />
</g>
<g id="#0f0f0fff">
<path fill="#0f0f0f" opacity="1.00" d=" M 54.45 36.59 C 54.91 30.73 61.40 28.06 66.60 28.91 C 72.05 29.65 77.55 29.82 83.05 29.67 C 104.76 29.78 126.49 29.79 148.20 30.45 C 144.60 30.86 141.02 31.42 137.53 32.37 C 145.45 33.91 153.64 32.07 161.49 34.08 C 129.32 34.11 97.15 34.08 64.98 34.06 C 62.91 33.88 61.02 34.76 59.39 35.93 C 58.58 37.85 58.18 39.93 58.16 42.01 C 58.25 64.68 57.90 87.35 58.01 110.03 C 58.05 113.87 57.86 117.71 57.41 121.52 C 55.96 115.01 56.74 108.31 56.25 101.71 C 55.24 88.20 56.06 74.65 55.45 61.12 C 54.96 52.95 55.57 44.73 54.45 36.59 Z" />
</g>
<g id="#020202ff">
<path fill="#020202" opacity="1.00" d=" M 66.60 28.91 C 98.94 28.92 131.29 28.70 163.63 28.96 C 165.60 30.40 167.51 31.93 169.33 33.56 C 170.03 38.68 169.75 43.87 169.78 49.03 C 169.79 85.37 169.80 121.70 169.82 158.04 C 169.76 163.67 170.96 170.17 166.35 174.46 C 166.08 181.40 166.31 188.35 166.22 195.29 C 130.20 195.37 94.19 195.30 58.18 195.35 C 58.08 189.56 58.38 183.76 58.23 177.97 C 58.49 173.51 53.70 170.66 54.23 166.12 C 54.16 131.26 54.43 96.39 54.18 61.52 C 54.46 53.22 54.05 44.90 54.45 36.59 C 55.57 44.73 54.96 52.95 55.45 61.12 C 56.06 74.65 55.24 88.20 56.25 101.71 C 56.74 108.31 55.96 115.01 57.41 121.52 C 57.86 117.71 58.05 113.87 58.01 110.03 C 57.90 87.35 58.25 64.68 58.16 42.01 C 58.18 39.93 58.58 37.85 59.39 35.93 C 59.48 79.30 59.41 122.67 59.47 166.04 C 59.12 168.62 61.41 170.77 63.94 170.49 C 95.67 170.56 127.41 170.45 159.14 170.52 C 161.04 170.58 163.33 170.27 164.29 168.37 C 164.89 164.95 164.51 161.45 164.59 157.99 C 164.58 118.30 164.61 78.61 164.61 38.92 C 164.90 36.76 163.76 34.48 161.49 34.08 C 153.64 32.07 145.45 33.91 137.53 32.37 C 141.02 31.42 144.60 30.86 148.20 30.45 C 126.49 29.79 104.76 29.78 83.05 29.67 C 77.55 29.82 72.05 29.65 66.60 28.91 M 63.37 189.91 C 95.83 189.90 128.29 189.88 160.74 189.89 C 160.74 185.55 160.73 181.20 160.71 176.86 C 128.28 176.84 95.85 176.84 63.41 176.80 C 63.35 181.17 63.36 185.54 63.37 189.91 Z" />
</g>
<g id="#738894ff">
<path fill="#738894" opacity="1.00" d=" M 49.66 46.34 C 49.20 41.93 50.82 37.73 52.62 33.81 C 53.76 43.02 52.08 52.41 54.18 61.52 C 54.43 96.39 54.16 131.26 54.23 166.12 C 53.70 170.66 58.49 173.51 58.23 177.97 C 58.38 183.76 58.08 189.56 58.18 195.35 C 60.86 198.83 64.57 201.26 67.69 204.29 C 74.12 210.99 80.83 217.40 87.36 224.00 L 0.00 224.00 L 0.00 138.95 C 14.35 137.14 29.41 138.05 42.85 131.85 C 43.13 126.45 42.09 120.67 44.73 115.69 C 46.51 112.06 45.87 107.92 46.06 104.03 C 46.11 98.29 47.54 92.69 47.81 86.97 C 48.18 80.31 48.92 73.67 49.02 66.99 C 49.11 60.10 50.28 53.24 49.66 46.34 Z" />
</g>
<g id="#b4b4b4ff">
<path fill="#b4b4b4" opacity="1.00" d=" M 59.39 35.93 C 61.02 34.76 62.91 33.88 64.98 34.06 C 97.15 34.08 129.32 34.11 161.49 34.08 C 163.76 34.48 164.90 36.76 164.61 38.92 C 164.61 78.61 164.58 118.30 164.59 157.99 C 164.51 161.45 164.89 164.95 164.29 168.37 C 163.33 170.27 161.04 170.58 159.14 170.52 C 127.41 170.45 95.67 170.56 63.94 170.49 C 61.41 170.77 59.12 168.62 59.47 166.04 C 59.41 122.67 59.48 79.30 59.39 35.93 M 64.79 44.51 C 64.80 68.74 64.79 92.97 64.78 117.21 C 96.35 117.19 127.93 117.22 159.50 117.22 C 159.48 92.97 159.46 68.72 159.49 44.48 C 127.92 44.50 96.36 44.53 64.79 44.51 M 121.75 139.21 C 121.74 140.95 121.73 142.69 121.72 144.43 C 132.60 144.46 143.48 144.44 154.36 144.45 C 154.35 142.69 154.34 140.94 154.33 139.19 C 143.47 139.21 132.61 139.19 121.75 139.21 M 63.73 157.49 C 63.73 158.96 63.74 160.43 63.76 161.90 C 63.74 163.45 63.73 164.99 63.72 166.54 C 66.33 166.53 68.94 166.53 71.55 166.53 C 71.53 164.98 71.52 163.44 71.50 161.90 C 71.52 160.43 71.54 158.96 71.56 157.49 C 68.94 157.49 66.34 157.49 63.73 157.49 Z" />
</g>
<g id="#6a7e8aff">
<path fill="#6a7e8a" opacity="1.00" d=" M 169.33 33.56 C 171.51 35.40 173.73 37.20 175.77 39.20 C 186.29 50.01 197.09 60.54 207.73 71.23 C 213.24 76.80 219.02 82.14 224.00 88.20 L 224.00 137.61 C 209.30 152.41 194.55 167.17 179.71 181.81 C 177.67 183.66 177.33 186.45 176.98 189.02 C 176.44 194.69 173.27 199.66 170.13 204.24 C 165.14 208.94 158.02 209.59 151.61 210.72 C 146.13 214.22 142.53 219.94 137.48 224.00 L 87.36 224.00 C 80.83 217.40 74.12 210.99 67.69 204.29 C 79.83 203.97 91.91 202.40 104.05 202.81 C 111.70 202.87 119.28 201.51 126.94 201.77 C 135.64 202.05 144.32 201.23 153.01 201.11 C 156.04 200.97 159.16 201.04 162.09 200.11 C 164.25 199.41 165.23 197.14 166.22 195.29 C 166.31 188.35 166.08 181.40 166.35 174.46 C 170.96 170.17 169.76 163.67 169.82 158.04 C 169.80 121.70 169.79 85.37 169.78 49.03 C 169.75 43.87 170.03 38.68 169.33 33.56 Z" />
</g>
<g id="#181809ff">
<path fill="#181809" opacity="1.00" d=" M 64.79 44.51 C 96.36 44.53 127.92 44.50 159.49 44.48 C 159.46 68.72 159.48 92.97 159.50 117.22 C 127.93 117.22 96.35 117.19 64.78 117.21 C 64.79 92.97 64.80 68.74 64.79 44.51 M 69.80 49.64 C 69.82 70.42 69.82 91.20 69.83 111.99 C 97.99 112.04 126.15 111.94 154.31 111.98 C 154.32 91.21 154.32 70.44 154.32 49.67 C 126.15 49.65 97.98 49.65 69.80 49.64 Z" />
</g>
<g id="#0a84ffff">
<path fill="#0a84ff" opacity="1.00" d=" M 69.80 49.64 C 97.98 49.65 126.15 49.65 154.32 49.67 C 154.32 70.44 154.32 91.21 154.31 111.98 C 126.15 111.94 97.99 112.04 69.83 111.99 C 69.82 91.20 69.82 70.42 69.80 49.64 M 99.23 60.31 C 100.93 73.74 102.53 87.19 104.21 100.63 C 107.00 100.62 109.79 100.62 112.58 100.63 C 119.98 87.17 127.38 73.70 134.91 60.32 C 131.83 60.27 128.75 60.27 125.67 60.28 C 120.72 70.23 115.80 80.19 110.70 90.06 C 109.82 80.14 109.34 70.19 108.44 60.27 C 105.37 60.29 102.30 60.29 99.23 60.31 Z" />
</g>
<g id="#0a0a0aff">
<path fill="#0a0a0a" opacity="1.00" d=" M 99.23 60.31 C 102.30 60.29 105.37 60.29 108.44 60.27 C 109.34 70.19 109.82 80.14 110.70 90.06 C 115.80 80.19 120.72 70.23 125.67 60.28 C 128.75 60.27 131.83 60.27 134.91 60.32 C 127.38 73.70 119.98 87.17 112.58 100.63 C 109.79 100.62 107.00 100.62 104.21 100.63 C 102.53 87.19 100.93 73.74 99.23 60.31 Z" />
</g>
<g id="#6e828fff">
<path fill="#6e828f" opacity="1.00" d=" M 179.71 181.81 C 194.55 167.17 209.30 152.41 224.00 137.61 L 224.00 224.00 L 137.48 224.00 C 142.53 219.94 146.13 214.22 151.61 210.72 C 158.02 209.59 165.14 208.94 170.13 204.24 C 173.27 199.66 176.44 194.69 176.98 189.02 C 177.33 186.45 177.67 183.66 179.71 181.81 Z" />
</g>
<g id="#030303ff">
<path fill="#030303" opacity="1.00" d=" M 121.75 139.21 C 132.61 139.19 143.47 139.21 154.33 139.19 C 154.34 140.94 154.35 142.69 154.36 144.45 C 143.48 144.44 132.60 144.46 121.72 144.43 C 121.73 142.69 121.74 140.95 121.75 139.21 Z" />
</g>
<g id="#01c205ff">
<path fill="#01c205" opacity="1.00" d=" M 63.73 157.49 C 66.34 157.49 68.94 157.49 71.56 157.49 C 71.54 158.96 71.52 160.43 71.50 161.90 C 68.92 161.90 66.34 161.90 63.76 161.90 C 63.74 160.43 63.73 158.96 63.73 157.49 Z" />
</g>
<g id="#c00404ff">
<path fill="#c00404" opacity="1.00" d=" M 63.76 161.90 C 66.34 161.90 68.92 161.90 71.50 161.90 C 71.52 163.44 71.53 164.98 71.55 166.53 C 68.94 166.53 66.33 166.53 63.72 166.54 C 63.73 164.99 63.74 163.45 63.76 161.90 Z" />
</g>
<g id="#676767ff">
<path fill="#676767" opacity="1.00" d=" M 63.37 189.91 C 63.36 185.54 63.35 181.17 63.41 176.80 C 95.85 176.84 128.28 176.84 160.71 176.86 C 160.73 181.20 160.74 185.55 160.74 189.89 C 128.29 189.88 95.83 189.90 63.37 189.91 Z" />
</g>
<g id="#5e6f7aff">
<path fill="#5e6f7a" opacity="1.00" d=" M 58.18 195.35 C 94.19 195.30 130.20 195.37 166.22 195.29 C 165.23 197.14 164.25 199.41 162.09 200.11 C 159.16 201.04 156.04 200.97 153.01 201.11 C 144.32 201.23 135.64 202.05 126.94 201.77 C 119.28 201.51 111.70 202.87 104.05 202.81 C 91.91 202.40 79.83 203.97 67.69 204.29 C 64.57 201.26 60.86 198.83 58.18 195.35 Z" />
</g>
</svg>
