<?xml version="1.0" encoding="UTF-8" ?>
<!DOCTYPE svg PUBLIC "-//W3C//DTD SVG 1.1//EN" "http://www.w3.org/Graphics/SVG/1.1/DTD/svg11.dtd">
<svg width="256pt" height="256pt" viewBox="0 0 256 256" version="1.1" xmlns="http://www.w3.org/2000/svg">
<g id="#010101ff">
<path fill="#010101" opacity="1.00" d=" M 0.00 0.00 L 256.00 0.00 L 256.00 256.00 L 0.00 256.00 L 0.00 0.00 M 6.03 6.04 C 6.01 87.38 5.95 168.73 6.06 250.07 C 87.38 249.84 168.71 250.05 250.03 249.97 C 249.93 168.66 250.09 87.35 249.95 6.04 C 168.65 5.98 87.34 5.98 6.03 6.04 Z" />
</g>
<g id="#ffffffff">
<path fill="#ffffff" opacity="1.00" d=" M 6.03 6.04 C 87.34 5.98 168.65 5.98 249.95 6.04 C 250.09 87.35 249.93 168.66 250.03 249.97 C 168.71 250.05 87.38 249.84 6.06 250.07 C 5.95 168.73 6.01 87.38 6.03 6.04 M 173.07 65.82 C 166.78 67.47 160.53 69.64 154.94 73.02 C 150.32 75.88 145.53 78.78 142.30 83.28 C 141.20 84.49 140.37 86.63 138.42 86.43 C 138.51 86.59 138.70 86.92 138.80 87.09 C 138.75 88.61 137.65 89.83 137.00 91.14 C 131.15 101.06 129.37 112.67 124.66 123.08 C 120.59 124.29 116.34 124.65 112.17 125.35 C 98.85 127.50 85.46 129.46 72.00 130.45 C 64.53 126.15 57.06 121.61 51.27 115.14 C 49.23 112.70 46.91 110.52 44.67 108.28 L 44.48 108.29 C 42.38 106.44 40.59 104.14 38.09 102.79 C 36.48 102.92 34.92 103.31 33.35 103.67 C 33.72 107.54 37.24 109.58 39.93 111.81 L 39.93 111.87 C 41.72 113.12 43.47 114.45 45.17 115.83 L 45.57 115.78 C 50.30 120.72 57.33 124.15 59.62 130.94 C 59.31 131.24 58.69 131.85 58.37 132.15 C 50.92 133.62 43.31 132.94 35.77 133.14 C 32.44 132.71 29.08 132.80 25.74 132.60 C 25.69 133.97 25.63 135.34 25.57 136.71 C 30.73 136.96 35.95 136.32 41.07 137.33 C 46.51 137.73 51.99 137.54 57.45 137.45 C 58.70 138.41 59.48 139.80 60.34 141.09 C 59.25 140.17 58.10 139.32 57.00 138.41 C 57.00 140.31 56.10 141.97 55.20 143.56 C 62.74 144.88 70.42 144.01 78.02 144.28 C 91.51 143.53 105.05 143.95 118.53 143.08 C 132.00 143.68 145.57 143.00 159.06 143.85 C 172.62 145.29 186.28 145.33 199.90 144.94 C 203.37 144.76 206.91 145.43 210.32 144.99 C 212.40 143.65 209.27 142.35 208.18 141.68 C 209.99 141.43 211.78 141.02 213.40 140.13 C 212.86 140.85 211.77 142.29 211.23 143.01 C 212.45 144.22 214.27 144.49 215.92 144.25 C 220.91 143.61 225.95 143.15 230.89 142.12 C 226.79 138.70 221.84 136.51 217.47 133.48 C 220.30 125.96 227.26 120.34 228.00 112.01 C 228.91 102.89 225.31 93.97 220.96 86.13 C 216.25 78.00 207.80 73.15 199.74 68.88 C 199.27 68.95 198.35 69.07 197.89 69.14 L 197.31 69.01 L 197.28 68.31 L 196.88 67.60 C 189.04 66.39 180.98 63.58 173.07 65.82 M 132.46 148.41 C 132.70 159.26 132.50 170.12 132.59 180.98 C 132.70 184.43 131.92 187.81 131.41 191.20 C 138.60 190.87 145.83 191.46 153.00 190.86 C 165.31 188.30 173.28 174.09 169.88 162.14 C 166.42 153.63 157.07 147.96 147.96 148.41 C 142.79 148.45 137.62 148.41 132.46 148.41 M 177.66 158.76 C 173.21 163.85 172.91 171.45 175.31 177.53 C 177.40 182.87 182.37 186.43 187.53 188.49 C 195.72 191.53 204.78 191.49 213.15 189.20 C 213.16 187.17 213.17 185.13 213.22 183.10 C 211.32 183.52 209.47 184.08 207.68 184.81 C 203.11 186.73 197.90 186.63 193.10 185.82 C 186.95 183.35 182.36 176.74 182.82 170.03 C 182.82 166.07 182.20 161.39 185.52 158.46 C 192.42 151.87 202.82 152.42 211.45 154.52 C 210.75 153.18 210.04 151.86 209.34 150.52 C 205.83 147.92 201.22 148.20 197.10 148.65 C 189.72 149.54 182.31 152.76 177.66 158.76 M 101.74 150.71 C 101.85 161.82 101.58 172.94 101.87 184.04 C 103.13 189.06 108.90 189.02 113.04 188.74 C 113.14 187.63 113.23 186.53 113.32 185.43 C 111.09 185.18 107.82 185.99 106.47 183.77 C 106.13 172.75 106.44 161.71 106.34 150.68 C 104.80 150.70 103.27 150.70 101.74 150.71 M 116.55 150.68 C 116.71 161.78 116.41 172.90 116.69 183.99 C 118.05 189.15 123.87 189.03 128.14 188.80 C 128.11 187.64 128.09 186.49 128.06 185.33 C 125.89 185.20 123.34 185.94 121.54 184.37 C 121.03 182.98 121.23 181.45 121.16 180.01 C 121.25 170.23 121.08 160.44 121.27 150.66 C 119.70 150.66 118.12 150.67 116.55 150.68 M 94.42 154.66 C 94.30 161.46 94.49 168.26 94.36 175.06 C 94.33 177.52 92.90 180.04 90.43 180.74 C 86.57 182.64 81.24 179.38 81.52 174.96 C 81.44 168.19 81.58 161.41 81.44 154.63 C 80.59 154.67 78.90 154.73 78.06 154.76 C 78.45 163.07 77.74 171.45 78.42 179.72 C 82.31 186.34 94.06 186.40 97.50 179.37 C 98.24 171.19 97.66 162.91 97.76 154.69 C 96.65 154.68 95.53 154.67 94.42 154.66 M 49.41 155.43 C 51.69 164.91 49.90 174.78 50.54 184.43 C 52.09 184.37 53.64 184.31 55.19 184.24 C 55.13 178.16 55.18 172.07 55.16 165.98 C 55.11 163.86 55.63 161.57 57.13 159.99 C 61.01 156.90 67.99 158.80 68.67 164.05 C 68.84 171.10 68.67 178.17 68.72 185.23 C 69.57 185.21 71.27 185.17 72.12 185.15 C 72.21 177.75 72.17 170.34 72.20 162.93 C 72.57 158.53 67.89 155.93 64.10 155.39 C 60.88 154.54 57.85 156.17 55.12 157.65 C 55.13 156.82 55.17 155.17 55.18 154.35 C 53.26 154.71 51.33 155.07 49.41 155.43 Z" />
<path fill="#ffffff" opacity="1.00" d=" M 138.34 151.95 C 145.09 152.31 153.19 149.95 158.70 155.06 C 163.52 159.27 164.02 166.07 163.66 172.04 C 164.38 178.11 159.28 182.66 154.64 185.61 C 150.34 188.45 144.95 187.66 140.09 187.47 C 138.43 187.29 138.33 185.30 138.35 184.01 C 138.28 173.32 138.39 162.63 138.34 151.95 Z" />
</g>
<g id="#090b33ff">
<path fill="#090b33" opacity="1.00" d=" M 173.07 65.82 C 180.98 63.58 189.04 66.39 196.88 67.60 L 197.28 68.31 L 197.31 69.01 C 196.76 69.37 195.65 70.09 195.10 70.45 C 194.63 70.20 193.70 69.72 193.23 69.47 C 191.29 69.95 189.19 70.47 187.75 68.62 C 184.70 68.83 181.64 69.12 178.62 69.63 C 178.51 69.87 178.29 70.34 178.19 70.58 C 177.47 72.24 176.84 73.93 176.07 75.56 C 176.15 74.56 176.33 72.56 176.41 71.56 C 176.46 70.64 176.52 69.72 176.56 68.80 C 173.32 68.30 170.14 69.26 167.82 71.61 C 167.37 71.51 166.46 71.30 166.00 71.20 C 164.27 71.52 162.53 71.82 160.80 72.11 C 160.38 73.86 159.98 75.61 159.59 77.37 C 158.71 76.55 157.83 75.73 156.96 74.91 C 156.42 75.19 155.34 75.75 154.80 76.03 C 154.84 75.28 154.91 73.77 154.94 73.02 C 160.53 69.64 166.78 67.47 173.07 65.82 Z" />
</g>
<g id="#7379b2ff">
<path fill="#7379b2" opacity="1.00" d=" M 167.82 71.61 C 170.14 69.26 173.32 68.30 176.56 68.80 C 176.52 69.72 176.46 70.64 176.41 71.56 C 175.68 71.58 174.22 71.60 173.49 71.62 C 172.63 70.95 171.78 70.29 170.93 69.64 C 169.82 71.94 169.20 74.42 169.26 76.98 C 169.15 77.39 168.94 78.20 168.83 78.60 C 168.25 76.68 167.69 74.74 166.89 72.89 C 164.98 72.13 162.94 73.62 161.01 73.92 C 161.06 75.92 161.10 77.92 161.16 79.92 L 160.38 79.29 C 160.09 79.01 159.52 78.46 159.24 78.18 C 157.71 77.53 155.87 77.06 154.76 78.69 C 154.75 77.80 154.77 76.92 154.80 76.03 C 155.34 75.75 156.42 75.19 156.96 74.91 C 157.83 75.73 158.71 76.55 159.59 77.37 C 159.98 75.61 160.38 73.86 160.80 72.11 C 162.53 71.82 164.27 71.52 166.00 71.20 C 166.46 71.30 167.37 71.51 167.82 71.61 Z" />
</g>
<g id="#565f9aff">
<path fill="#565f9a" opacity="1.00" d=" M 178.62 69.63 C 181.64 69.12 184.70 68.83 187.75 68.62 C 189.19 70.47 191.29 69.95 193.23 69.47 C 193.70 69.72 194.63 70.20 195.10 70.45 C 195.65 70.09 196.76 69.37 197.31 69.01 C 197.50 70.93 197.80 72.85 197.99 74.78 C 196.68 73.72 195.34 72.70 193.95 71.76 C 193.65 71.55 193.04 71.15 192.74 70.95 C 191.11 71.46 189.05 71.45 187.97 72.97 C 186.48 74.91 187.25 77.57 187.08 79.82 C 187.68 78.52 188.27 77.22 188.84 75.91 C 188.74 77.26 188.64 78.62 188.54 79.97 L 187.36 80.23 C 186.11 80.44 184.86 80.65 183.62 80.86 C 182.63 80.14 181.64 79.44 180.64 78.76 C 181.98 78.77 183.33 78.79 184.68 78.82 C 185.65 75.77 186.98 72.70 186.56 69.43 C 185.89 69.66 184.56 70.12 183.89 70.35 C 181.99 70.16 180.02 69.88 178.19 70.58 C 178.29 70.34 178.51 69.87 178.62 69.63 Z" />
</g>
<g id="#101a63ff">
<path fill="#101a63" opacity="1.00" d=" M 197.31 69.01 L 197.89 69.14 C 198.44 70.61 199.03 72.07 199.58 73.54 C 200.57 73.93 201.56 74.31 202.57 74.67 C 201.52 75.17 200.49 75.68 199.46 76.21 L 199.43 76.24 C 198.63 77.58 197.83 78.93 197.04 80.28 C 196.48 80.94 195.90 81.59 195.31 82.22 L 194.62 82.11 C 195.06 81.08 195.50 80.04 195.95 79.01 L 196.25 78.32 C 196.83 77.14 197.44 75.97 197.99 74.78 C 197.80 72.85 197.50 70.93 197.31 69.01 Z" />
<path fill="#101a63" opacity="1.00" d=" M 132.04 111.97 C 132.72 108.35 132.93 104.34 135.37 101.38 C 136.12 101.83 137.61 102.73 138.35 103.18 C 137.95 103.48 137.14 104.08 136.74 104.38 C 136.20 104.39 135.11 104.40 134.57 104.40 C 134.54 105.51 134.50 106.61 134.45 107.72 C 133.16 110.74 133.74 113.65 135.55 116.27 L 135.85 117.06 C 135.33 117.28 134.29 117.71 133.77 117.93 C 133.70 119.46 133.64 121.00 133.57 122.53 C 136.93 123.68 140.33 124.74 143.79 125.55 C 146.56 126.54 149.52 126.85 152.24 125.48 C 152.66 126.79 153.21 128.06 153.85 129.28 C 150.75 128.98 147.63 129.28 144.59 129.85 C 143.56 129.22 142.58 128.52 141.59 127.87 L 141.43 127.75 L 141.21 127.73 C 138.37 127.37 135.21 127.45 132.79 125.69 C 131.69 127.59 130.37 125.54 129.20 124.86 C 130.20 124.20 131.17 123.50 132.11 122.76 C 132.71 119.18 131.41 115.56 132.04 111.97 Z" />
</g>
<g id="#050712ff">
<path fill="#050712" opacity="1.00" d=" M 197.89 69.14 C 198.35 69.07 199.27 68.95 199.74 68.88 C 207.80 73.15 216.25 78.00 220.96 86.13 C 225.31 93.97 228.91 102.89 228.00 112.01 C 227.26 120.34 220.30 125.96 217.47 133.48 C 221.84 136.51 226.79 138.70 230.89 142.12 C 225.95 143.15 220.91 143.61 215.92 144.25 C 214.27 144.49 212.45 144.22 211.23 143.01 C 215.48 142.64 219.73 141.93 223.70 140.27 C 222.25 139.10 220.81 137.92 219.28 136.86 C 217.87 136.66 216.45 136.56 215.03 136.52 C 213.94 136.51 212.86 136.53 211.78 136.55 C 209.05 138.42 206.11 139.93 203.29 141.65 C 202.29 141.76 201.28 141.91 200.29 142.07 C 200.20 142.57 200.02 143.58 199.94 144.08 C 198.20 144.09 196.46 144.18 194.73 144.32 C 196.63 143.14 198.38 141.74 199.92 140.12 C 201.78 138.11 204.65 138.10 207.14 137.55 C 208.18 133.73 212.07 131.97 213.56 128.44 C 214.17 129.16 214.78 129.88 215.40 130.59 C 215.22 129.36 214.97 128.16 214.65 126.97 C 214.47 126.47 214.10 125.48 213.92 124.99 L 214.79 124.92 C 216.33 124.76 217.88 124.57 219.42 124.38 C 220.46 122.54 221.66 120.75 222.36 118.75 C 223.12 116.50 221.50 114.42 220.62 112.48 C 222.13 107.56 221.75 102.16 219.05 97.72 L 218.56 96.77 C 219.04 96.50 219.99 95.96 220.46 95.69 L 221.01 95.37 C 219.59 90.93 217.15 86.88 214.04 83.44 C 213.23 82.39 212.40 81.36 211.59 80.33 C 210.97 80.36 209.74 80.41 209.12 80.44 C 208.42 79.03 207.53 77.73 206.51 76.54 C 206.46 76.33 206.34 75.92 206.29 75.71 C 205.04 75.38 203.79 75.05 202.57 74.67 C 201.56 74.31 200.57 73.93 199.58 73.54 C 199.03 72.07 198.44 70.61 197.89 69.14 Z" />
</g>
<g id="#dce6f6ff">
<path fill="#dce6f6" opacity="1.00" d=" M 170.93 69.64 C 171.78 70.29 172.63 70.95 173.49 71.62 C 174.22 71.60 175.68 71.58 176.41 71.56 C 176.33 72.56 176.15 74.56 176.07 75.56 C 174.95 78.63 171.62 77.63 169.26 76.98 C 169.20 74.42 169.82 71.94 170.93 69.64 Z" />
</g>
<g id="#c4d2f8ff">
<path fill="#c4d2f8" opacity="1.00" d=" M 178.19 70.58 C 180.02 69.88 181.99 70.16 183.89 70.35 C 184.56 70.12 185.89 69.66 186.56 69.43 C 186.98 72.70 185.65 75.77 184.68 78.82 C 183.33 78.79 181.98 78.77 180.64 78.76 L 180.37 78.75 C 178.77 78.71 177.17 78.70 175.58 78.70 C 174.05 79.07 172.50 79.36 170.95 79.57 C 170.52 78.92 169.68 77.63 169.26 76.98 C 171.62 77.63 174.95 78.63 176.07 75.56 C 176.84 73.93 177.47 72.24 178.19 70.58 Z" />
</g>
<g id="#ddeffcff">
<path fill="#ddeffc" opacity="1.00" d=" M 187.97 72.97 C 189.05 71.45 191.11 71.46 192.74 70.95 C 193.04 71.15 193.65 71.55 193.95 71.76 C 194.84 73.90 195.59 76.10 196.25 78.32 L 195.95 79.01 C 193.46 79.16 190.96 79.36 188.54 79.97 C 188.64 78.62 188.74 77.26 188.84 75.91 C 188.27 77.22 187.68 78.52 187.08 79.82 C 187.25 77.57 186.48 74.91 187.97 72.97 Z" />
</g>
<g id="#94a1ddff">
<path fill="#94a1dd" opacity="1.00" d=" M 193.95 71.76 C 195.34 72.70 196.68 73.72 197.99 74.78 C 197.44 75.97 196.83 77.14 196.25 78.32 C 195.59 76.10 194.84 73.90 193.95 71.76 Z" />
</g>
<g id="#05081dff">
<path fill="#05081d" opacity="1.00" d=" M 142.30 83.28 C 145.53 78.78 150.32 75.88 154.94 73.02 C 154.91 73.77 154.84 75.28 154.80 76.03 C 154.77 76.92 154.75 77.80 154.76 78.69 C 154.78 80.09 154.88 81.49 155.04 82.88 C 154.09 81.72 153.31 80.44 152.52 79.17 C 151.06 80.44 149.49 81.60 147.55 81.97 C 146.19 84.19 145.18 86.63 143.61 88.70 C 141.80 90.50 138.65 91.82 139.39 94.91 C 140.06 96.03 140.78 97.14 141.53 98.22 L 140.20 99.02 C 139.79 99.01 138.96 99.00 138.54 98.99 C 137.42 99.70 136.38 100.52 135.37 101.38 C 132.93 104.34 132.72 108.35 132.04 111.97 C 131.41 115.56 132.71 119.18 132.11 122.76 C 131.17 123.50 130.20 124.20 129.20 124.86 C 130.37 125.54 131.69 127.59 132.79 125.69 C 135.21 127.45 138.37 127.37 141.21 127.73 C 141.31 127.77 141.49 127.83 141.59 127.87 C 142.58 128.52 143.56 129.22 144.59 129.85 C 146.99 131.04 149.72 130.81 152.31 130.68 C 151.66 131.10 150.35 131.94 149.70 132.36 C 143.04 131.42 136.17 130.92 129.94 128.19 C 127.55 127.25 126.21 124.96 124.66 123.08 C 129.37 112.67 131.15 101.06 137.00 91.14 C 137.65 89.83 138.75 88.61 138.80 87.09 C 138.70 86.92 138.51 86.59 138.42 86.43 C 140.37 86.63 141.20 84.49 142.30 83.28 Z" />
</g>
<g id="#e4f0ffff">
<path fill="#e4f0ff" opacity="1.00" d=" M 161.01 73.92 C 162.94 73.62 164.98 72.13 166.89 72.89 C 167.69 74.74 168.25 76.68 168.83 78.60 C 169.02 80.02 169.21 81.44 169.40 82.87 L 168.61 82.99 C 167.35 82.52 166.12 82.02 164.90 81.50 C 164.49 81.49 163.67 81.47 163.26 81.45 C 162.55 80.95 161.85 80.44 161.16 79.92 C 161.10 77.92 161.06 75.92 161.01 73.92 Z" />
<path fill="#e4f0ff" opacity="1.00" d=" M 177.93 124.56 C 179.52 125.36 181.10 126.17 182.69 126.97 C 182.52 128.42 182.34 129.87 182.17 131.32 C 180.03 130.99 176.03 132.89 175.95 129.52 C 176.56 127.85 177.25 126.21 177.93 124.56 Z" />
</g>
<g id="#4858baff">
<path fill="#4858ba" opacity="1.00" d=" M 202.57 74.67 C 203.79 75.05 205.04 75.38 206.29 75.71 C 206.34 75.92 206.46 76.33 206.51 76.54 C 207.53 77.73 208.42 79.03 209.12 80.44 C 209.74 80.41 210.97 80.36 211.59 80.33 C 212.40 81.36 213.23 82.39 214.04 83.44 C 214.91 85.54 215.79 87.62 216.73 89.69 C 215.35 89.88 213.97 90.05 212.60 90.26 C 213.19 87.46 211.06 85.31 209.79 83.08 C 208.30 83.16 206.81 83.24 205.32 83.32 C 205.04 83.34 204.47 83.36 204.19 83.38 C 204.86 82.19 205.52 80.99 206.17 79.79 C 203.68 79.11 201.51 77.71 199.43 76.24 L 199.46 76.21 C 200.49 75.68 201.52 75.17 202.57 74.67 Z" />
</g>
<g id="#212288ff">
<path fill="#212288" opacity="1.00" d=" M 168.83 78.60 C 168.94 78.20 169.15 77.39 169.26 76.98 C 169.68 77.63 170.52 78.92 170.95 79.57 C 172.50 79.36 174.05 79.07 175.58 78.70 C 177.17 78.70 178.77 78.71 180.37 78.75 C 176.90 80.57 173.37 82.46 169.40 82.87 C 169.21 81.44 169.02 80.02 168.83 78.60 Z" />
<path fill="#212288" opacity="1.00" d=" M 195.31 82.22 C 195.90 81.59 196.48 80.94 197.04 80.28 C 198.23 81.69 199.36 83.18 200.77 84.40 C 202.02 85.06 203.13 83.90 204.19 83.38 C 204.47 83.36 205.04 83.34 205.32 83.32 C 205.05 83.88 204.50 85.01 204.23 85.57 C 203.97 86.11 203.46 87.19 203.20 87.74 C 204.06 88.34 204.92 88.94 205.79 89.54 C 205.34 89.94 204.45 90.72 204.00 91.11 C 205.06 91.76 206.13 92.40 207.19 93.05 L 205.84 93.47 C 201.92 91.10 201.69 85.15 196.61 84.29 C 196.29 83.77 195.64 82.73 195.31 82.22 Z" />
<path fill="#212288" opacity="1.00" d=" M 147.23 113.00 C 147.60 113.26 148.34 113.78 148.71 114.03 C 148.67 116.37 148.60 118.71 148.53 121.05 C 149.50 121.54 150.47 122.03 151.44 122.52 C 151.64 123.26 152.04 124.74 152.24 125.48 C 149.52 126.85 146.56 126.54 143.79 125.55 C 145.36 125.26 146.93 124.93 148.51 124.64 C 148.08 123.76 147.23 121.99 146.80 121.11 C 146.63 119.69 146.58 118.25 146.63 116.83 L 146.78 115.90 C 146.89 115.17 147.12 113.72 147.23 113.00 Z" />
</g>
<g id="#daf3feff">
<path fill="#daf3fe" opacity="1.00" d=" M 199.43 76.24 C 201.51 77.71 203.68 79.11 206.17 79.79 C 205.52 80.99 204.86 82.19 204.19 83.38 C 203.13 83.90 202.02 85.06 200.77 84.40 C 199.36 83.18 198.23 81.69 197.04 80.28 C 197.83 78.93 198.63 77.58 199.43 76.24 Z" />
</g>
<g id="#ddeefeff">
<path fill="#ddeefe" opacity="1.00" d=" M 154.76 78.69 C 155.87 77.06 157.71 77.53 159.24 78.18 C 159.52 78.46 160.09 79.01 160.38 79.29 C 160.87 81.43 161.24 83.59 161.58 85.76 C 161.00 85.44 159.86 84.79 159.29 84.46 C 159.33 85.02 159.43 86.13 159.48 86.69 C 157.98 85.45 156.41 84.27 155.04 82.88 C 154.88 81.49 154.78 80.09 154.76 78.69 Z" />
</g>
<g id="#737ebdff">
<path fill="#737ebd" opacity="1.00" d=" M 147.55 81.97 C 149.49 81.60 151.06 80.44 152.52 79.17 C 153.31 80.44 154.09 81.72 155.04 82.88 C 156.41 84.27 157.98 85.45 159.48 86.69 C 159.43 86.13 159.33 85.02 159.29 84.46 C 159.86 84.79 161.00 85.44 161.58 85.76 C 161.24 83.59 160.87 81.43 160.38 79.29 L 161.16 79.92 C 161.85 80.44 162.55 80.95 163.26 81.45 C 163.67 81.47 164.49 81.49 164.90 81.50 C 166.12 82.02 167.35 82.52 168.61 82.99 C 167.07 83.27 165.53 83.54 163.99 83.80 C 163.11 86.38 160.80 87.84 158.70 89.33 C 156.89 86.62 154.87 83.95 152.14 82.11 C 150.66 82.75 149.56 83.96 148.33 84.96 C 148.06 83.96 147.80 82.97 147.55 81.97 Z" />
</g>
<g id="#000821ff">
<path fill="#000821" opacity="1.00" d=" M 169.40 82.87 C 173.37 82.46 176.90 80.57 180.37 78.75 L 180.64 78.76 C 181.64 79.44 182.63 80.14 183.62 80.86 C 184.86 80.65 186.11 80.44 187.36 80.23 C 189.77 80.90 192.17 81.62 194.62 82.11 L 195.31 82.22 C 195.64 82.73 196.29 83.77 196.61 84.29 C 201.69 85.15 201.92 91.10 205.84 93.47 C 207.94 98.47 208.51 103.83 208.85 109.18 C 207.04 110.95 206.25 113.36 205.74 115.78 C 204.72 117.53 203.71 119.27 202.77 121.07 C 202.60 121.41 202.24 122.10 202.07 122.44 L 200.20 122.08 C 199.28 121.90 198.37 121.71 197.47 121.50 C 197.37 121.15 197.18 120.44 197.08 120.09 L 197.51 119.80 C 197.12 119.35 196.75 118.90 196.38 118.44 C 197.83 117.09 197.96 115.57 196.77 113.89 C 197.17 113.48 197.58 113.07 197.99 112.67 C 198.60 113.42 199.80 114.92 200.40 115.68 C 200.47 113.67 200.81 111.70 201.54 109.83 C 201.54 109.44 201.52 108.67 201.52 108.28 C 201.96 108.55 202.85 109.08 203.30 109.34 C 203.54 107.52 203.77 105.69 203.86 103.86 C 203.86 103.25 203.85 102.03 203.85 101.42 C 203.10 101.30 201.61 101.06 200.86 100.94 L 199.23 100.68 C 199.51 99.01 201.08 98.33 202.32 97.44 C 201.50 96.51 200.67 95.59 199.81 94.71 C 198.06 94.43 196.33 94.93 194.62 95.20 C 196.55 93.81 198.56 92.21 198.96 89.70 C 196.38 89.54 193.80 89.40 191.23 89.28 C 191.91 88.48 192.60 87.67 193.29 86.86 C 192.68 86.58 191.47 86.01 190.86 85.72 C 186.31 84.28 181.52 84.05 176.93 85.38 C 173.26 84.55 169.92 86.10 167.88 89.18 L 167.22 89.86 C 164.14 90.17 162.10 92.36 160.41 94.73 C 160.55 95.04 160.82 95.64 160.95 95.94 C 157.86 99.12 158.02 103.61 157.41 107.70 C 156.83 110.62 156.41 113.57 156.28 116.55 C 157.12 117.16 157.96 117.78 158.81 118.39 C 158.32 119.63 157.83 120.86 157.35 122.10 C 159.99 124.73 163.37 126.41 167.17 125.64 C 166.13 126.61 165.06 127.56 163.97 128.47 C 163.48 128.51 162.50 128.58 162.01 128.62 L 161.20 128.63 C 161.27 129.07 161.40 129.95 161.47 130.39 C 162.75 131.35 164.03 132.32 165.30 133.32 C 165.63 134.31 165.52 135.61 166.22 136.42 C 167.90 136.58 169.67 136.08 171.31 136.58 C 172.79 137.51 174.00 138.79 175.27 139.98 C 176.78 139.44 178.28 138.89 179.78 138.34 C 180.16 138.06 180.91 137.49 181.29 137.21 C 181.34 137.48 181.46 138.02 181.51 138.29 C 181.59 138.67 181.75 139.43 181.82 139.80 C 182.36 139.70 183.44 139.50 183.98 139.39 C 184.14 139.76 184.46 140.48 184.62 140.84 C 184.73 140.49 184.97 139.77 185.09 139.42 C 187.17 139.95 189.26 140.46 191.36 140.93 C 191.77 139.60 192.16 138.26 192.54 136.92 C 192.70 138.36 193.10 139.79 194.18 140.85 C 194.14 139.08 194.05 137.30 193.90 135.53 C 195.31 137.46 195.54 139.82 195.68 142.13 C 195.99 141.10 196.30 140.07 196.63 139.06 C 197.74 138.82 198.86 138.59 199.97 138.35 C 199.96 138.80 199.93 139.68 199.92 140.12 C 198.38 141.74 196.63 143.14 194.73 144.32 C 190.54 144.91 186.41 143.66 182.23 143.80 C 177.91 144.13 174.04 141.92 169.89 141.15 C 164.99 140.52 162.55 135.38 158.02 133.95 C 155.29 133.21 152.48 132.81 149.70 132.36 C 150.35 131.94 151.66 131.10 152.31 130.68 C 153.62 130.42 154.94 130.17 156.25 129.91 C 155.65 129.75 154.45 129.44 153.85 129.28 C 153.21 128.06 152.66 126.79 152.24 125.48 C 152.04 124.74 151.64 123.26 151.44 122.52 C 150.47 122.03 149.50 121.54 148.53 121.05 C 148.60 118.71 148.67 116.37 148.71 114.03 C 148.75 110.15 149.04 106.26 149.71 102.43 C 149.95 102.02 150.42 101.21 150.66 100.81 C 151.14 99.99 151.59 99.15 152.04 98.32 C 154.94 95.89 157.21 92.81 158.70 89.33 C 160.80 87.84 163.11 86.38 163.99 83.80 C 165.53 83.54 167.07 83.27 168.61 82.99 L 169.40 82.87 Z" />
</g>
<g id="#595da4ff">
<path fill="#595da4" opacity="1.00" d=" M 188.54 79.97 C 190.96 79.36 193.46 79.16 195.95 79.01 C 195.50 80.04 195.06 81.08 194.62 82.11 C 192.17 81.62 189.77 80.90 187.36 80.23 L 188.54 79.97 Z" />
</g>
<g id="#202f7aff">
<path fill="#202f7a" opacity="1.00" d=" M 143.61 88.70 C 145.18 86.63 146.19 84.19 147.55 81.97 C 147.80 82.97 148.06 83.96 148.33 84.96 C 150.54 87.55 153.20 89.71 155.96 91.68 C 156.23 90.51 156.44 89.34 156.66 88.17 C 157.17 88.46 158.19 89.04 158.70 89.33 C 157.21 92.81 154.94 95.89 152.04 98.32 C 151.59 99.15 151.14 99.99 150.66 100.81 L 150.24 100.85 C 150.24 100.35 150.23 99.36 150.23 98.86 L 150.20 98.00 C 147.48 96.57 145.37 94.35 143.25 92.19 C 141.96 93.11 140.68 94.01 139.39 94.91 C 138.65 91.82 141.80 90.50 143.61 88.70 M 147.12 86.74 C 146.03 88.04 144.93 89.34 143.84 90.64 C 144.90 91.55 145.98 92.43 147.08 93.29 C 148.21 94.67 149.72 95.58 151.43 96.04 C 152.53 95.33 153.64 94.62 154.76 93.93 C 153.65 92.59 152.52 91.26 151.37 89.96 C 150.22 88.57 148.60 87.72 147.12 86.74 Z" />
<path fill="#202f7a" opacity="1.00" d=" M 167.88 89.18 C 169.92 86.10 173.26 84.55 176.93 85.38 C 177.13 87.54 177.28 89.71 177.77 91.84 C 178.02 92.26 178.53 93.10 178.79 93.53 C 180.32 92.77 181.82 91.94 183.33 91.12 C 183.27 94.55 179.56 93.58 177.21 93.90 C 175.71 94.85 174.22 95.81 172.75 96.79 C 171.98 98.31 171.19 99.83 170.39 101.33 C 170.28 102.98 170.19 104.63 170.09 106.28 C 166.94 106.81 163.74 107.06 160.56 107.36 C 162.42 107.85 164.32 108.23 166.26 108.26 C 164.33 108.50 162.38 108.62 160.44 108.57 L 160.91 109.32 C 159.77 108.72 158.58 108.22 157.41 107.70 C 158.02 103.61 157.86 99.12 160.95 95.94 C 161.36 96.77 161.79 97.59 162.25 98.41 C 161.69 98.45 160.57 98.52 160.01 98.56 C 160.14 99.16 160.42 100.37 160.56 100.97 C 159.89 102.07 159.22 103.17 158.56 104.27 C 159.74 104.86 160.92 105.46 162.13 106.00 C 163.76 106.28 165.42 106.47 167.07 106.67 C 167.35 104.98 167.67 103.29 168.00 101.60 C 167.28 101.28 166.56 100.96 165.84 100.64 L 165.54 99.46 C 167.12 99.53 168.70 99.60 170.29 99.65 C 170.60 98.99 171.21 97.68 171.52 97.02 C 170.32 95.51 169.12 93.99 168.02 92.41 C 168.05 92.05 168.10 91.33 168.12 90.98 C 168.57 91.29 169.46 91.92 169.90 92.24 C 170.57 93.30 171.25 94.37 171.93 95.43 C 172.78 95.34 174.46 95.15 175.30 95.06 C 175.69 92.86 175.92 90.63 175.77 88.40 C 175.73 87.72 175.65 86.38 175.61 85.70 C 173.47 86.74 171.44 87.98 169.52 89.38 C 169.11 89.33 168.29 89.23 167.88 89.18 Z" />
<path fill="#202f7a" opacity="1.00" d=" M 219.05 97.72 C 221.75 102.16 222.13 107.56 220.62 112.48 C 219.86 113.00 219.12 113.54 218.41 114.12 C 217.35 113.44 216.31 112.75 215.24 112.12 C 213.80 111.49 212.32 110.96 210.85 110.42 C 209.26 112.32 208.14 114.53 207.72 116.99 C 209.17 117.67 210.62 118.36 212.08 119.04 C 212.42 119.21 213.10 119.55 213.45 119.73 C 214.04 120.33 214.62 120.95 215.19 121.58 L 213.75 121.81 C 214.08 122.85 214.43 123.89 214.79 124.92 L 213.92 124.99 C 212.63 123.66 211.36 122.32 210.11 120.97 C 209.40 120.19 208.69 119.40 207.98 118.63 C 206.27 119.49 204.52 120.28 202.77 121.07 C 203.71 119.27 204.72 117.53 205.74 115.78 C 206.25 113.36 207.04 110.95 208.85 109.18 L 209.50 108.49 C 210.43 108.73 212.31 109.21 213.25 109.44 C 213.59 109.53 214.29 109.71 214.63 109.81 C 216.50 109.82 218.36 109.88 220.22 109.93 C 219.63 107.17 218.75 104.49 217.59 101.92 C 217.39 102.79 216.99 104.53 216.79 105.40 C 216.75 104.28 216.71 103.17 216.66 102.06 C 214.73 102.13 212.80 102.21 210.88 102.22 C 210.74 101.91 210.47 101.28 210.33 100.96 C 213.27 100.80 216.21 100.68 219.14 100.42 C 219.12 99.74 219.07 98.40 219.05 97.72 Z" />
</g>
<g id="#cfd8faff">
<path fill="#cfd8fa" opacity="1.00" d=" M 148.33 84.96 C 149.56 83.96 150.66 82.75 152.14 82.11 C 154.87 83.95 156.89 86.62 158.70 89.33 C 158.19 89.04 157.17 88.46 156.66 88.17 C 156.44 89.34 156.23 90.51 155.96 91.68 C 153.20 89.71 150.54 87.55 148.33 84.96 Z" />
</g>
<g id="#e5e7ffff">
<path fill="#e5e7ff" opacity="1.00" d=" M 205.32 83.32 C 206.81 83.24 208.30 83.16 209.79 83.08 C 211.06 85.31 213.19 87.46 212.60 90.26 C 212.12 90.37 211.16 90.61 210.68 90.72 L 209.76 91.69 C 207.60 89.96 205.81 87.83 204.23 85.57 C 204.50 85.01 205.05 83.88 205.32 83.32 Z" />
</g>
<g id="#3e41bdff">
<path fill="#3e41bd" opacity="1.00" d=" M 176.93 85.38 C 181.52 84.05 186.31 84.28 190.86 85.72 C 189.55 85.74 188.24 85.79 186.94 85.89 C 185.71 87.60 184.96 89.58 184.29 91.57 C 183.99 90.83 183.69 90.09 183.40 89.35 C 183.37 88.61 183.30 87.13 183.26 86.38 C 181.36 87.26 179.45 88.13 177.51 88.93 C 177.58 89.65 177.70 91.11 177.77 91.84 C 177.28 89.71 177.13 87.54 176.93 85.38 Z" />
</g>
<g id="#071362ff">
<path fill="#071362" opacity="1.00" d=" M 214.04 83.44 C 217.15 86.88 219.59 90.93 221.01 95.37 L 220.46 95.69 C 218.85 93.30 216.66 90.88 213.43 91.54 C 212.13 92.28 210.88 93.10 209.63 93.91 C 209.54 93.49 209.35 92.65 209.26 92.24 C 209.38 92.10 209.64 91.83 209.76 91.69 L 210.68 90.72 C 211.16 90.61 212.12 90.37 212.60 90.26 C 213.97 90.05 215.35 89.88 216.73 89.69 C 215.79 87.62 214.91 85.54 214.04 83.44 Z" />
<path fill="#071362" opacity="1.00" d=" M 147.23 100.99 C 147.98 100.95 149.49 100.88 150.24 100.85 L 150.66 100.81 C 150.42 101.21 149.95 102.02 149.71 102.43 C 149.04 106.26 148.75 110.15 148.71 114.03 C 148.34 113.78 147.60 113.26 147.23 113.00 C 147.35 112.09 147.45 111.18 147.55 110.26 C 146.77 108.08 146.28 105.80 146.14 103.49 C 146.48 103.25 147.16 102.77 147.50 102.52 C 147.43 102.14 147.30 101.37 147.23 100.99 Z" />
</g>
<g id="#535bd1ff">
<path fill="#535bd1" opacity="1.00" d=" M 169.52 89.38 C 171.44 87.98 173.47 86.74 175.61 85.70 C 175.65 86.38 175.73 87.72 175.77 88.40 C 173.63 89.38 171.67 90.70 169.90 92.24 C 169.46 91.92 168.57 91.29 168.12 90.98 C 168.10 91.33 168.05 92.05 168.02 92.41 C 167.37 92.73 166.07 93.37 165.42 93.70 C 165.21 94.06 164.79 94.79 164.58 95.16 C 164.89 96.59 165.20 98.03 165.54 99.46 L 165.84 100.64 C 165.44 100.46 164.64 100.11 164.24 99.94 C 163.74 99.55 162.75 98.79 162.25 98.41 C 161.79 97.59 161.36 96.77 160.95 95.94 C 160.82 95.64 160.55 95.04 160.41 94.73 C 162.10 92.36 164.14 90.17 167.22 89.86 L 167.88 89.18 C 168.29 89.23 169.11 89.33 169.52 89.38 Z" />
</g>
<g id="#bed0fcff">
<path fill="#bed0fc" opacity="1.00" d=" M 184.29 91.57 C 184.96 89.58 185.71 87.60 186.94 85.89 C 188.48 87.65 189.99 89.65 189.45 92.14 C 188.55 92.05 186.74 91.87 185.83 91.78 L 184.29 91.57 Z" />
</g>
<g id="#6676c2ff">
<path fill="#6676c2" opacity="1.00" d=" M 186.94 85.89 C 188.24 85.79 189.55 85.74 190.86 85.72 C 191.47 86.01 192.68 86.58 193.29 86.86 C 192.60 87.67 191.91 88.48 191.23 89.28 C 193.80 89.40 196.38 89.54 198.96 89.70 C 198.56 92.21 196.55 93.81 194.62 95.20 C 193.19 95.25 191.76 95.22 190.34 95.21 C 188.92 93.96 187.45 92.76 185.83 91.78 C 186.74 91.87 188.55 92.05 189.45 92.14 C 189.99 89.65 188.48 87.65 186.94 85.89 M 191.42 90.97 C 190.49 92.82 194.59 94.21 194.88 92.10 C 194.61 90.67 192.48 89.96 191.42 90.97 Z" />
</g>
<g id="#8890dcff">
<path fill="#8890dc" opacity="1.00" d=" M 204.23 85.57 C 205.81 87.83 207.60 89.96 209.76 91.69 C 209.64 91.83 209.38 92.10 209.26 92.24 C 208.74 92.44 207.71 92.85 207.19 93.05 C 206.13 92.40 205.06 91.76 204.00 91.11 C 204.45 90.72 205.34 89.94 205.79 89.54 C 204.92 88.94 204.06 88.34 203.20 87.74 C 203.46 87.19 203.97 86.11 204.23 85.57 Z" />
</g>
<g id="#dbebffff">
<path fill="#dbebff" opacity="1.00" d=" M 147.12 86.74 C 148.60 87.72 150.22 88.57 151.37 89.96 C 151.65 91.28 151.86 92.61 152.08 93.94 C 150.41 93.75 148.74 93.58 147.08 93.29 C 145.98 92.43 144.90 91.55 143.84 90.64 C 144.93 89.34 146.03 88.04 147.12 86.74 Z" />
</g>
<g id="#ddedffff">
<path fill="#ddedff" opacity="1.00" d=" M 177.51 88.93 C 179.45 88.13 181.36 87.26 183.26 86.38 C 183.30 87.13 183.37 88.61 183.40 89.35 L 183.33 91.12 C 181.82 91.94 180.32 92.77 178.79 93.53 C 178.53 93.10 178.02 92.26 177.77 91.84 C 177.70 91.11 177.58 89.65 177.51 88.93 Z" />
</g>
<g id="#c6d0ffff">
<path fill="#c6d0ff" opacity="1.00" d=" M 169.90 92.24 C 171.67 90.70 173.63 89.38 175.77 88.40 C 175.92 90.63 175.69 92.86 175.30 95.06 C 174.46 95.15 172.78 95.34 171.93 95.43 C 171.25 94.37 170.57 93.30 169.90 92.24 Z" />
</g>
<g id="#8d96f7ff">
<path fill="#8d96f7" opacity="1.00" d=" M 151.37 89.96 C 152.52 91.26 153.65 92.59 154.76 93.93 C 153.64 94.62 152.53 95.33 151.43 96.04 C 149.72 95.58 148.21 94.67 147.08 93.29 C 148.74 93.58 150.41 93.75 152.08 93.94 C 151.86 92.61 151.65 91.28 151.37 89.96 Z" />
<path fill="#8d96f7" opacity="1.00" d=" M 215.24 112.12 C 216.31 112.75 217.35 113.44 218.41 114.12 C 217.57 115.19 216.78 116.29 215.99 117.40 C 216.55 118.80 217.13 120.21 217.73 121.61 C 216.88 121.59 216.03 121.58 215.19 121.58 C 214.62 120.95 214.04 120.33 213.45 119.73 C 213.10 119.55 212.42 119.21 212.08 119.04 C 213.19 116.76 214.26 114.46 215.24 112.12 Z" />
<path fill="#8d96f7" opacity="1.00" d=" M 167.17 125.64 L 167.55 125.28 C 168.29 125.92 169.03 126.57 169.77 127.21 C 169.70 127.70 169.55 128.67 169.48 129.16 C 169.96 129.22 170.91 129.35 171.38 129.41 C 169.90 129.98 168.44 130.60 166.98 131.22 C 165.47 130.10 163.83 129.12 162.01 128.62 C 162.50 128.58 163.48 128.51 163.97 128.47 C 165.06 127.56 166.13 126.61 167.17 125.64 Z" />
<path fill="#8d96f7" opacity="1.00" d=" M 144.59 129.85 C 147.63 129.28 150.75 128.98 153.85 129.28 C 154.45 129.44 155.65 129.75 156.25 129.91 C 154.94 130.17 153.62 130.42 152.31 130.68 C 149.72 130.81 146.99 131.04 144.59 129.85 Z" />
</g>
<g id="#00092fff">
<path fill="#00092f" opacity="1.00" d=" M 183.40 89.35 C 183.69 90.09 183.99 90.83 184.29 91.57 L 185.83 91.78 C 187.45 92.76 188.92 93.96 190.34 95.21 C 191.76 95.22 193.19 95.25 194.62 95.20 C 194.60 96.36 194.63 97.52 194.69 98.68 C 194.71 98.87 194.76 99.27 194.78 99.47 C 194.53 100.96 194.05 102.39 193.42 103.76 C 192.14 101.74 190.91 99.68 189.68 97.63 C 187.48 96.95 185.29 96.22 183.12 95.47 C 180.92 96.64 177.43 97.12 178.80 100.53 C 179.35 100.46 180.47 100.32 181.02 100.24 C 180.13 101.01 179.23 101.78 178.35 102.56 C 178.88 100.72 176.97 99.85 175.95 98.70 C 174.70 102.59 172.92 106.54 173.96 110.70 C 174.79 110.68 176.46 110.62 177.29 110.59 C 177.00 110.90 176.42 111.52 176.13 111.84 C 175.47 112.70 174.30 113.36 174.30 114.57 C 175.42 115.26 176.62 115.80 177.78 116.42 C 177.57 117.70 177.16 118.95 176.88 120.22 C 179.26 120.73 181.69 121.14 183.97 122.04 C 185.32 122.79 186.82 124.04 188.47 123.32 C 190.43 122.32 191.35 120.16 192.57 118.45 C 193.45 119.40 194.33 120.35 195.22 121.31 C 195.69 121.00 196.61 120.40 197.08 120.09 C 197.18 120.44 197.37 121.15 197.47 121.50 C 198.37 121.71 199.28 121.90 200.20 122.08 C 201.16 124.29 202.45 126.34 203.88 128.28 C 203.02 127.94 202.16 127.60 201.31 127.27 C 200.54 126.27 199.78 125.27 199.02 124.28 C 197.25 124.81 194.96 124.63 194.06 126.71 C 193.53 126.21 193.00 125.71 192.48 125.21 C 192.54 127.26 192.57 129.33 192.83 131.37 C 193.12 132.77 193.50 134.15 193.90 135.53 C 194.05 137.30 194.14 139.08 194.18 140.85 C 193.10 139.79 192.70 138.36 192.54 136.92 C 192.35 135.00 192.04 133.09 191.51 131.23 C 191.17 128.57 189.40 126.85 186.96 125.97 C 186.34 126.14 185.10 126.48 184.48 126.65 C 184.28 127.99 184.08 129.32 183.88 130.65 C 183.49 128.88 183.09 127.10 182.35 125.44 C 180.60 124.21 178.51 123.62 176.53 122.89 C 175.86 122.66 174.53 122.21 173.86 121.98 C 171.69 119.77 170.50 116.87 169.45 114.01 C 168.75 112.05 168.10 110.09 167.41 108.13 L 166.26 108.26 C 164.32 108.23 162.42 107.85 160.56 107.36 C 163.74 107.06 166.94 106.81 170.09 106.28 C 170.19 104.63 170.28 102.98 170.39 101.33 C 171.19 99.83 171.98 98.31 172.75 96.79 C 174.22 95.81 175.71 94.85 177.21 93.90 C 179.56 93.58 183.27 94.55 183.33 91.12 L 183.40 89.35 Z" />
</g>
<g id="#cddcfeff">
<path fill="#cddcfe" opacity="1.00" d=" M 191.42 90.97 C 192.48 89.96 194.61 90.67 194.88 92.10 C 194.59 94.21 190.49 92.82 191.42 90.97 Z" />
</g>
<g id="#4e5dafff">
<path fill="#4e5daf" opacity="1.00" d=" M 207.19 93.05 C 207.71 92.85 208.74 92.44 209.26 92.24 C 209.35 92.65 209.54 93.49 209.63 93.91 C 209.95 94.55 210.58 95.83 210.89 96.47 C 210.37 97.38 209.84 98.29 209.37 99.23 C 212.46 100.52 215.88 100.23 219.14 100.42 C 216.21 100.68 213.27 100.80 210.33 100.96 C 210.47 101.28 210.74 101.91 210.88 102.22 C 210.85 102.77 210.79 103.88 210.76 104.43 C 211.02 104.82 211.55 105.59 211.81 105.98 C 211.04 106.82 210.27 107.66 209.50 108.49 L 208.85 109.18 C 208.51 103.83 207.94 98.47 205.84 93.47 L 207.19 93.05 Z" />
</g>
<g id="#eaf0ffff">
<path fill="#eaf0ff" opacity="1.00" d=" M 209.63 93.91 C 210.88 93.10 212.13 92.28 213.43 91.54 C 213.95 92.66 214.48 93.79 215.03 94.90 C 214.69 96.57 215.98 100.06 213.13 99.48 C 212.31 98.53 211.58 97.51 210.89 96.47 C 210.58 95.83 209.95 94.55 209.63 93.91 Z" />
</g>
<g id="#5360b5ff">
<path fill="#5360b5" opacity="1.00" d=" M 213.43 91.54 C 216.66 90.88 218.85 93.30 220.46 95.69 C 219.99 95.96 219.04 96.50 218.56 96.77 C 218.33 96.33 217.86 95.45 217.63 95.02 C 217.29 95.49 216.60 96.45 216.26 96.92 C 215.84 96.25 215.43 95.58 215.03 94.90 C 214.48 93.79 213.95 92.66 213.43 91.54 Z" />
</g>
<g id="#c7d5ffff">
<path fill="#c7d5ff" opacity="1.00" d=" M 139.39 94.91 C 140.68 94.01 141.96 93.11 143.25 92.19 C 145.37 94.35 147.48 96.57 150.20 98.00 L 150.23 98.86 C 147.31 99.50 144.26 99.63 141.53 98.22 C 140.78 97.14 140.06 96.03 139.39 94.91 Z" />
</g>
<g id="#c4d2ffff">
<path fill="#c4d2ff" opacity="1.00" d=" M 165.42 93.70 C 166.07 93.37 167.37 92.73 168.02 92.41 C 169.12 93.99 170.32 95.51 171.52 97.02 C 171.21 97.68 170.60 98.99 170.29 99.65 C 168.70 99.60 167.12 99.53 165.54 99.46 C 165.20 98.03 164.89 96.59 164.58 95.16 C 164.79 94.79 165.21 94.06 165.42 93.70 Z" />
</g>
<g id="#e1f2ffff">
<path fill="#e1f2ff" opacity="1.00" d=" M 194.62 95.20 C 196.33 94.93 198.06 94.43 199.81 94.71 C 199.54 96.16 199.22 97.60 198.90 99.04 C 197.50 98.92 196.09 98.80 194.69 98.68 C 194.63 97.52 194.60 96.36 194.62 95.20 Z" />
</g>
<g id="#c9d6ffff">
<path fill="#c9d6ff" opacity="1.00" d=" M 178.80 100.53 C 177.43 97.12 180.92 96.64 183.12 95.47 C 185.29 96.22 187.48 96.95 189.68 97.63 C 190.91 99.68 192.14 101.74 193.42 103.76 C 192.41 106.28 191.56 108.87 190.43 111.35 C 187.86 111.01 185.07 111.51 182.71 110.21 C 182.94 109.62 183.39 108.43 183.61 107.84 C 185.36 108.26 187.13 107.96 188.88 107.73 C 188.90 104.82 188.58 101.63 186.02 99.78 C 184.34 99.79 182.68 100.04 181.02 100.24 C 180.47 100.32 179.35 100.46 178.80 100.53 Z" />
</g>
<g id="#4c5194ff">
<path fill="#4c5194" opacity="1.00" d=" M 199.81 94.71 C 200.67 95.59 201.50 96.51 202.32 97.44 C 201.08 98.33 199.51 99.01 199.23 100.68 C 198.73 100.62 197.73 100.49 197.23 100.43 C 197.49 102.38 197.76 104.35 198.57 106.17 C 197.60 105.99 196.64 105.78 195.68 105.55 C 195.84 103.47 196.55 101.11 194.78 99.47 C 194.76 99.27 194.71 98.87 194.69 98.68 C 196.09 98.80 197.50 98.92 198.90 99.04 C 199.22 97.60 199.54 96.16 199.81 94.71 Z" />
</g>
<g id="#9ba8ecff">
<path fill="#9ba8ec" opacity="1.00" d=" M 215.03 94.90 C 215.43 95.58 215.84 96.25 216.26 96.92 C 216.60 96.45 217.29 95.49 217.63 95.02 C 217.86 95.45 218.33 96.33 218.56 96.77 L 219.05 97.72 C 219.07 98.40 219.12 99.74 219.14 100.42 C 215.88 100.23 212.46 100.52 209.37 99.23 C 209.84 98.29 210.37 97.38 210.89 96.47 C 211.58 97.51 212.31 98.53 213.13 99.48 C 215.98 100.06 214.69 96.57 215.03 94.90 Z" />
</g>
<g id="#5a66b6ff">
<path fill="#5a66b6" opacity="1.00" d=" M 141.53 98.22 C 144.26 99.63 147.31 99.50 150.23 98.86 C 150.23 99.36 150.24 100.35 150.24 100.85 C 149.49 100.88 147.98 100.95 147.23 100.99 C 147.30 101.37 147.43 102.14 147.50 102.52 C 147.16 102.77 146.48 103.25 146.14 103.49 C 145.00 104.29 143.87 105.10 142.75 105.92 C 141.36 105.64 139.97 105.34 138.59 105.04 L 139.23 104.47 C 140.70 104.10 142.20 103.85 143.70 103.58 C 143.91 102.89 144.34 101.51 144.55 100.82 C 143.10 100.22 141.65 99.61 140.20 99.02 L 141.53 98.22 Z" />
</g>
<g id="#616697ff">
<path fill="#616697" opacity="1.00" d=" M 135.37 101.38 C 136.38 100.52 137.42 99.70 138.54 98.99 C 138.73 100.52 138.92 102.06 139.11 103.60 L 138.35 103.18 C 137.61 102.73 136.12 101.83 135.37 101.38 Z" />
</g>
<g id="#ddeeffff">
<path fill="#ddeeff" opacity="1.00" d=" M 138.54 98.99 C 138.96 99.00 139.79 99.01 140.20 99.02 C 141.65 99.61 143.10 100.22 144.55 100.82 C 144.34 101.51 143.91 102.89 143.70 103.58 C 142.20 103.85 140.70 104.10 139.23 104.47 L 139.11 103.60 C 138.92 102.06 138.73 100.52 138.54 98.99 Z" />
</g>
<g id="#8991e6ff">
<path fill="#8991e6" opacity="1.00" d=" M 160.01 98.56 C 160.57 98.52 161.69 98.45 162.25 98.41 C 162.75 98.79 163.74 99.55 164.24 99.94 C 163.75 100.03 162.77 100.21 162.28 100.30 C 162.17 102.20 162.15 104.10 162.13 106.00 C 160.92 105.46 159.74 104.86 158.56 104.27 C 159.22 103.17 159.89 102.07 160.56 100.97 C 160.42 100.37 160.14 99.16 160.01 98.56 Z" />
</g>
<g id="#bac2ffff">
<path fill="#bac2ff" opacity="1.00" d=" M 173.96 110.70 C 172.92 106.54 174.70 102.59 175.95 98.70 C 176.97 99.85 178.88 100.72 178.35 102.56 C 177.88 102.99 176.94 103.85 176.47 104.28 C 176.57 107.05 176.59 110.32 179.02 112.17 C 178.37 113.38 177.94 114.72 177.07 115.80 C 176.63 114.51 176.32 113.19 176.13 111.84 C 176.42 111.52 177.00 110.90 177.29 110.59 C 176.46 110.62 174.79 110.68 173.96 110.70 Z" />
</g>
<g id="#dbefffff">
<path fill="#dbefff" opacity="1.00" d=" M 162.28 100.30 C 162.77 100.21 163.75 100.03 164.24 99.94 C 164.64 100.11 165.44 100.46 165.84 100.64 C 166.56 100.96 167.28 101.28 168.00 101.60 C 167.67 103.29 167.35 104.98 167.07 106.67 C 165.42 106.47 163.76 106.28 162.13 106.00 C 162.15 104.10 162.17 102.20 162.28 100.30 Z" />
</g>
<g id="#000d47ff">
<path fill="#000d47" opacity="1.00" d=" M 181.02 100.24 C 182.68 100.04 184.34 99.79 186.02 99.78 C 188.58 101.63 188.90 104.82 188.88 107.73 C 187.13 107.96 185.36 108.26 183.61 107.84 C 183.62 106.31 183.70 104.77 183.77 103.24 C 182.72 103.33 181.67 103.41 180.63 103.50 C 180.65 105.38 180.67 107.26 180.68 109.14 C 181.19 109.41 182.20 109.94 182.71 110.21 C 185.07 111.51 187.86 111.01 190.43 111.35 C 191.56 108.87 192.41 106.28 193.42 103.76 C 194.05 102.39 194.53 100.96 194.78 99.47 C 196.55 101.11 195.84 103.47 195.68 105.55 C 196.64 105.78 197.60 105.99 198.57 106.17 C 199.22 106.22 200.52 106.30 201.17 106.35 C 202.06 105.51 202.96 104.68 203.86 103.86 C 203.77 105.69 203.54 107.52 203.30 109.34 C 202.85 109.08 201.96 108.55 201.52 108.28 C 200.11 107.26 198.34 107.22 196.70 106.97 C 196.72 109.88 195.86 113.16 192.41 113.50 C 191.40 113.98 190.43 114.54 189.47 115.10 C 188.54 114.85 187.62 114.63 186.69 114.41 C 186.54 116.23 186.58 118.13 185.72 119.80 L 185.48 118.10 L 185.28 116.76 C 184.98 114.11 182.36 113.89 180.28 113.38 C 179.96 113.08 179.33 112.47 179.02 112.17 C 176.59 110.32 176.57 107.05 176.47 104.28 C 176.94 103.85 177.88 102.99 178.35 102.56 C 179.23 101.78 180.13 101.01 181.02 100.24 Z" />
</g>
<g id="#c0caf9ff">
<path fill="#c0caf9" opacity="1.00" d=" M 197.23 100.43 C 197.73 100.49 198.73 100.62 199.23 100.68 L 200.86 100.94 C 200.98 102.74 201.08 104.54 201.17 106.35 C 200.52 106.30 199.22 106.22 198.57 106.17 C 197.76 104.35 197.49 102.38 197.23 100.43 Z" />
</g>
<g id="#4e5397ff">
<path fill="#4e5397" opacity="1.00" d=" M 200.86 100.94 C 201.61 101.06 203.10 101.30 203.85 101.42 C 203.85 102.03 203.86 103.25 203.86 103.86 C 202.96 104.68 202.06 105.51 201.17 106.35 C 201.08 104.54 200.98 102.74 200.86 100.94 Z" />
</g>
<g id="#e1f4ffff">
<path fill="#e1f4ff" opacity="1.00" d=" M 210.88 102.22 C 212.80 102.21 214.73 102.13 216.66 102.06 C 216.71 103.17 216.75 104.28 216.79 105.40 C 216.69 107.47 214.79 108.46 213.25 109.44 C 212.31 109.21 210.43 108.73 209.50 108.49 C 210.27 107.66 211.04 106.82 211.81 105.98 C 211.55 105.59 211.02 104.82 210.76 104.43 C 210.79 103.88 210.85 102.77 210.88 102.22 Z" />
</g>
<g id="#606fbfff">
<path fill="#606fbf" opacity="1.00" d=" M 217.59 101.92 C 218.75 104.49 219.63 107.17 220.22 109.93 C 218.36 109.88 216.50 109.82 214.63 109.81 C 214.29 109.71 213.59 109.53 213.25 109.44 C 214.79 108.46 216.69 107.47 216.79 105.40 C 216.99 104.53 217.39 102.79 217.59 101.92 Z" />
</g>
<g id="#271b14ff">
<path fill="#271b14" opacity="1.00" d=" M 33.35 103.67 C 34.92 103.31 36.48 102.92 38.09 102.79 C 40.59 104.14 42.38 106.44 44.48 108.29 C 43.14 108.33 41.80 108.38 40.46 108.42 C 40.28 109.55 40.11 110.68 39.93 111.81 C 37.24 109.58 33.72 107.54 33.35 103.67 Z" />
</g>
<g id="#202c75ff">
<path fill="#202c75" opacity="1.00" d=" M 138.35 103.18 L 139.11 103.60 L 139.23 104.47 L 138.59 105.04 C 138.13 104.87 137.20 104.54 136.74 104.38 C 137.14 104.08 137.95 103.48 138.35 103.18 Z" />
</g>
<g id="#2e3db7ff">
<path fill="#2e3db7" opacity="1.00" d=" M 142.75 105.92 C 143.87 105.10 145.00 104.29 146.14 103.49 C 146.28 105.80 146.77 108.08 147.55 110.26 C 147.45 111.18 147.35 112.09 147.23 113.00 C 147.12 113.72 146.89 115.17 146.78 115.90 C 145.02 115.72 143.26 115.53 141.49 115.61 C 140.95 114.61 140.43 113.61 139.92 112.60 C 142.75 111.44 143.05 108.60 142.75 105.92 Z" />
</g>
<g id="#99a4e0ff">
<path fill="#99a4e0" opacity="1.00" d=" M 180.63 103.50 C 181.67 103.41 182.72 103.33 183.77 103.24 C 183.70 104.77 183.62 106.31 183.61 107.84 C 183.39 108.43 182.94 109.62 182.71 110.21 C 182.20 109.94 181.19 109.41 180.68 109.14 C 180.67 107.26 180.65 105.38 180.63 103.50 Z" />
</g>
<g id="#6476d2ff">
<path fill="#6476d2" opacity="1.00" d=" M 134.57 104.40 C 135.11 104.40 136.20 104.39 136.74 104.38 C 137.20 104.54 138.13 104.87 138.59 105.04 C 138.77 107.59 138.95 110.20 139.92 112.60 C 140.43 113.61 140.95 114.61 141.49 115.61 C 139.54 115.93 137.52 116.25 135.67 115.34 C 135.75 114.82 135.92 113.77 136.01 113.24 C 136.45 112.83 137.35 112.01 137.79 111.61 C 136.43 110.54 135.06 109.40 134.45 107.72 C 134.50 106.61 134.54 105.51 134.57 104.40 Z" />
</g>
<g id="#bed8ffff">
<path fill="#bed8ff" opacity="1.00" d=" M 138.59 105.04 C 139.97 105.34 141.36 105.64 142.75 105.92 C 143.05 108.60 142.75 111.44 139.92 112.60 C 138.95 110.20 138.77 107.59 138.59 105.04 Z" />
</g>
<g id="#c9d7ffff">
<path fill="#c9d7ff" opacity="1.00" d=" M 196.70 106.97 C 198.34 107.22 200.11 107.26 201.52 108.28 C 201.52 108.67 201.54 109.44 201.54 109.83 C 200.81 111.70 200.47 113.67 200.40 115.68 C 199.80 114.92 198.60 113.42 197.99 112.67 C 197.58 113.07 197.17 113.48 196.77 113.89 C 197.96 115.57 197.83 117.09 196.38 118.44 C 193.67 118.00 192.45 116.05 192.41 113.50 C 195.86 113.16 196.72 109.88 196.70 106.97 Z" />
</g>
<g id="#40090bff">
<path fill="#40090b" opacity="1.00" d=" M 40.46 108.42 C 41.80 108.38 43.14 108.33 44.48 108.29 L 44.67 108.28 C 46.91 110.52 49.23 112.70 51.27 115.14 C 49.36 115.29 47.46 115.54 45.57 115.78 L 45.17 115.83 C 43.47 114.45 41.72 113.12 39.93 111.87 L 39.93 111.81 C 40.11 110.68 40.28 109.55 40.46 108.42 Z" />
</g>
<g id="#293696ff">
<path fill="#293696" opacity="1.00" d=" M 134.45 107.72 C 135.06 109.40 136.43 110.54 137.79 111.61 C 137.35 112.01 136.45 112.83 136.01 113.24 C 135.92 113.77 135.75 114.82 135.67 115.34 L 135.55 116.27 C 133.74 113.65 133.16 110.74 134.45 107.72 Z" />
</g>
<g id="#475fccff">
<path fill="#475fcc" opacity="1.00" d=" M 157.41 107.70 C 158.58 108.22 159.77 108.72 160.91 109.32 C 162.15 111.02 161.57 113.31 161.93 115.27 C 162.45 115.20 163.49 115.07 164.01 115.00 C 162.87 115.82 161.76 116.70 160.67 117.58 C 161.69 117.54 162.73 117.49 163.76 117.42 C 164.89 120.03 166.26 122.66 169.00 123.90 C 168.64 124.24 167.91 124.94 167.55 125.28 L 167.17 125.64 C 163.37 126.41 159.99 124.73 157.35 122.10 C 157.83 120.86 158.32 119.63 158.81 118.39 C 157.96 117.78 157.12 117.16 156.28 116.55 C 156.41 113.57 156.83 110.62 157.41 107.70 Z" />
</g>
<g id="#dde8ffff">
<path fill="#dde8ff" opacity="1.00" d=" M 166.26 108.26 L 167.41 108.13 C 166.99 110.24 166.65 112.37 166.37 114.51 C 165.78 114.63 164.60 114.88 164.01 115.00 C 163.49 115.07 162.45 115.20 161.93 115.27 C 161.57 113.31 162.15 111.02 160.91 109.32 L 160.44 108.57 C 162.38 108.62 164.33 108.50 166.26 108.26 Z" />
</g>
<g id="#5e6aa7ff">
<path fill="#5e6aa7" opacity="1.00" d=" M 167.41 108.13 C 168.10 110.09 168.75 112.05 169.45 114.01 C 168.68 114.13 167.14 114.38 166.37 114.51 C 166.65 112.37 166.99 110.24 167.41 108.13 Z" />
</g>
<g id="#c2d1ffff">
<path fill="#c2d1ff" opacity="1.00" d=" M 207.72 116.99 C 208.14 114.53 209.26 112.32 210.85 110.42 C 212.32 110.96 213.80 111.49 215.24 112.12 C 214.26 114.46 213.19 116.76 212.08 119.04 C 210.62 118.36 209.17 117.67 207.72 116.99 Z" />
</g>
<g id="#4c57aaff">
<path fill="#4c57aa" opacity="1.00" d=" M 174.30 114.57 C 174.30 113.36 175.47 112.70 176.13 111.84 C 176.32 113.19 176.63 114.51 177.07 115.80 C 177.94 114.72 178.37 113.38 179.02 112.17 C 179.33 112.47 179.96 113.08 180.28 113.38 C 182.36 113.89 184.98 114.11 185.28 116.76 C 183.32 116.49 181.36 116.21 179.39 115.97 C 179.59 119.10 183.31 118.98 185.48 118.10 L 185.72 119.80 C 185.57 120.13 185.29 120.79 185.14 121.13 L 183.97 122.04 C 181.69 121.14 179.26 120.73 176.88 120.22 C 177.16 118.95 177.57 117.70 177.78 116.42 C 176.62 115.80 175.42 115.26 174.30 114.57 Z" />
</g>
<g id="#3e4aa9ff">
<path fill="#3e4aa9" opacity="1.00" d=" M 189.47 115.10 C 190.43 114.54 191.40 113.98 192.41 113.50 C 192.45 116.05 193.67 118.00 196.38 118.44 C 196.75 118.90 197.12 119.35 197.51 119.80 L 197.08 120.09 C 196.61 120.40 195.69 121.00 195.22 121.31 C 194.33 120.35 193.45 119.40 192.57 118.45 C 191.35 120.16 190.43 122.32 188.47 123.32 C 186.82 124.04 185.32 122.79 183.97 122.04 L 185.14 121.13 C 187.16 119.84 189.35 118.84 191.53 117.86 C 191.34 117.26 190.95 116.08 190.76 115.49 L 189.47 115.10 Z" />
</g>
<g id="#0f1c63ff">
<path fill="#0f1c63" opacity="1.00" d=" M 218.41 114.12 C 219.12 113.54 219.86 113.00 220.62 112.48 C 221.50 114.42 223.12 116.50 222.36 118.75 C 221.66 120.75 220.46 122.54 219.42 124.38 C 217.88 124.57 216.33 124.76 214.79 124.92 C 214.43 123.89 214.08 122.85 213.75 121.81 L 215.19 121.58 C 216.03 121.58 216.88 121.59 217.73 121.61 C 217.13 120.21 216.55 118.80 215.99 117.40 C 216.78 116.29 217.57 115.19 218.41 114.12 Z" />
</g>
<g id="#242e74ff">
<path fill="#242e74" opacity="1.00" d=" M 166.37 114.51 C 167.14 114.38 168.68 114.13 169.45 114.01 C 170.50 116.87 171.69 119.77 173.86 121.98 C 173.37 121.84 172.39 121.55 171.90 121.40 C 170.91 122.20 169.94 123.04 169.00 123.90 C 169.57 122.28 170.25 120.71 170.70 119.05 C 170.67 117.51 169.19 116.65 168.41 115.49 C 166.89 116.19 165.35 116.88 163.76 117.42 C 162.73 117.49 161.69 117.54 160.67 117.58 C 161.76 116.70 162.87 115.82 164.01 115.00 C 164.60 114.88 165.78 114.63 166.37 114.51 Z" />
<path fill="#242e74" opacity="1.00" d=" M 176.53 122.89 C 178.51 123.62 180.60 124.21 182.35 125.44 C 183.09 127.10 183.49 128.88 183.88 130.65 C 183.68 131.98 183.38 133.28 183.13 134.60 L 182.55 133.16 C 182.47 132.77 182.31 131.99 182.23 131.59 C 182.21 131.52 182.19 131.39 182.17 131.32 C 182.34 129.87 182.52 128.42 182.69 126.97 C 181.10 126.17 179.52 125.36 177.93 124.56 C 177.25 126.21 176.56 127.85 175.95 129.52 L 174.92 128.52 L 174.91 128.07 C 175.43 126.34 175.98 124.61 176.53 122.89 Z" />
<path fill="#242e74" opacity="1.00" d=" M 161.20 128.63 L 162.01 128.62 C 163.83 129.12 165.47 130.10 166.98 131.22 C 168.72 132.60 170.67 133.67 172.75 134.45 C 172.98 134.91 173.45 135.82 173.68 136.27 C 174.36 136.52 175.73 137.02 176.41 137.28 C 176.02 138.17 175.65 139.08 175.27 139.98 C 174.00 138.79 172.79 137.51 171.31 136.58 C 169.67 136.08 167.90 136.58 166.22 136.42 C 165.52 135.61 165.63 134.31 165.30 133.32 C 164.03 132.32 162.75 131.35 161.47 130.39 C 161.40 129.95 161.27 129.07 161.20 128.63 Z" />
</g>
<g id="#c9ddffff">
<path fill="#c9ddff" opacity="1.00" d=" M 186.69 114.41 C 187.62 114.63 188.54 114.85 189.47 115.10 L 190.76 115.49 C 190.95 116.08 191.34 117.26 191.53 117.86 C 189.35 118.84 187.16 119.84 185.14 121.13 C 185.29 120.79 185.57 120.13 185.72 119.80 C 186.58 118.13 186.54 116.23 186.69 114.41 Z" />
</g>
<g id="#1a0809ff">
<path fill="#1a0809" opacity="1.00" d=" M 45.57 115.78 C 47.46 115.54 49.36 115.29 51.27 115.14 C 57.06 121.61 64.53 126.15 72.00 130.45 C 72.69 130.86 73.39 131.28 74.09 131.70 C 72.46 132.73 70.84 133.77 69.22 134.80 C 68.40 133.61 67.58 132.42 66.76 131.23 C 66.07 131.08 64.68 130.79 63.98 130.64 C 63.56 131.32 62.73 132.69 62.31 133.37 C 61.76 133.40 60.65 133.48 60.10 133.51 C 58.97 133.61 57.83 133.71 56.69 133.82 C 57.11 133.40 57.95 132.57 58.37 132.15 C 58.69 131.85 59.31 131.24 59.62 130.94 C 57.33 124.15 50.30 120.72 45.57 115.78 Z" />
</g>
<g id="#3c57dcff">
<path fill="#3c57dc" opacity="1.00" d=" M 135.67 115.34 C 137.52 116.25 139.54 115.93 141.49 115.61 C 143.26 115.53 145.02 115.72 146.78 115.90 L 146.63 116.83 C 145.80 117.09 144.98 117.35 144.16 117.60 C 142.19 120.27 136.53 121.21 135.85 117.06 L 135.55 116.27 L 135.67 115.34 Z" />
</g>
<g id="#e8effcff">
<path fill="#e8effc" opacity="1.00" d=" M 163.76 117.42 C 165.35 116.88 166.89 116.19 168.41 115.49 C 169.19 116.65 170.67 117.51 170.70 119.05 C 170.25 120.71 169.57 122.28 169.00 123.90 C 166.26 122.66 164.89 120.03 163.76 117.42 Z" />
</g>
<g id="#c4d7fbff">
<path fill="#c4d7fb" opacity="1.00" d=" M 179.39 115.97 C 181.36 116.21 183.32 116.49 185.28 116.76 L 185.48 118.10 C 183.31 118.98 179.59 119.10 179.39 115.97 Z" />
</g>
<g id="#1f39b7ff">
<path fill="#1f39b7" opacity="1.00" d=" M 133.77 117.93 C 134.29 117.71 135.33 117.28 135.85 117.06 C 136.53 121.21 142.19 120.27 144.16 117.60 C 144.98 117.35 145.80 117.09 146.63 116.83 C 146.58 118.25 146.63 119.69 146.80 121.11 C 145.53 121.65 144.32 122.30 143.17 123.05 C 144.88 123.78 146.70 124.21 148.51 124.64 C 146.93 124.93 145.36 125.26 143.79 125.55 C 140.33 124.74 136.93 123.68 133.57 122.53 C 133.64 121.00 133.70 119.46 133.77 117.93 Z" />
</g>
<g id="#d9efffff">
<path fill="#d9efff" opacity="1.00" d=" M 202.77 121.07 C 204.52 120.28 206.27 119.49 207.98 118.63 C 208.69 119.40 209.40 120.19 210.11 120.97 C 209.19 122.96 208.39 125.01 207.57 127.05 C 207.19 127.52 206.44 128.46 206.06 128.93 C 205.83 128.13 205.38 126.52 205.15 125.72 C 204.46 125.74 203.08 125.77 202.39 125.79 C 202.28 124.67 202.17 123.55 202.07 122.44 C 202.24 122.10 202.60 121.41 202.77 121.07 Z" />
</g>
<g id="#5061daff">
<path fill="#5061da" opacity="1.00" d=" M 143.17 123.05 C 144.32 122.30 145.53 121.65 146.80 121.11 C 147.23 121.99 148.08 123.76 148.51 124.64 C 146.70 124.21 144.88 123.78 143.17 123.05 Z" />
</g>
<g id="#c2cefcff">
<path fill="#c2cefc" opacity="1.00" d=" M 169.00 123.90 C 169.94 123.04 170.91 122.20 171.90 121.40 C 172.39 121.55 173.37 121.84 173.86 121.98 C 174.53 122.21 175.86 122.66 176.53 122.89 C 175.98 124.61 175.43 126.34 174.91 128.07 C 173.75 128.57 172.57 128.99 171.38 129.41 C 170.91 129.35 169.96 129.22 169.48 129.16 C 169.55 128.67 169.70 127.70 169.77 127.21 C 169.03 126.57 168.29 125.92 167.55 125.28 C 167.91 124.94 168.64 124.24 169.00 123.90 Z" />
</g>
<g id="#4159cfff">
<path fill="#4159cf" opacity="1.00" d=" M 200.20 122.08 L 202.07 122.44 C 202.17 123.55 202.28 124.67 202.39 125.79 C 203.08 125.77 204.46 125.74 205.15 125.72 C 205.38 126.52 205.83 128.13 206.06 128.93 C 206.44 128.46 207.19 127.52 207.57 127.05 C 208.20 127.28 209.44 127.74 210.06 127.98 C 209.53 129.18 209.05 130.40 208.57 131.63 C 207.72 130.79 206.87 129.95 206.01 129.12 C 206.40 131.17 206.80 133.23 207.19 135.28 C 206.53 134.59 205.88 133.90 205.23 133.21 C 204.72 134.53 204.20 135.86 203.70 137.18 C 202.10 136.16 200.50 135.13 198.91 134.10 C 198.77 133.30 198.50 131.69 198.37 130.89 C 199.35 129.68 200.33 128.47 201.31 127.27 C 202.16 127.60 203.02 127.94 203.88 128.28 C 202.45 126.34 201.16 124.29 200.20 122.08 Z" />
<path fill="#4159cf" opacity="1.00" d=" M 141.21 127.73 L 141.43 127.75 L 141.59 127.87 C 141.49 127.83 141.31 127.77 141.21 127.73 Z" />
</g>
<g id="#6573cdff">
<path fill="#6573cd" opacity="1.00" d=" M 207.57 127.05 C 208.39 125.01 209.19 122.96 210.11 120.97 C 211.36 122.32 212.63 123.66 213.92 124.99 C 214.10 125.48 214.47 126.47 214.65 126.97 C 213.56 126.59 212.47 126.22 211.37 125.87 C 211.57 126.47 211.95 127.67 212.15 128.27 C 211.62 128.20 210.58 128.05 210.06 127.98 C 209.44 127.74 208.20 127.28 207.57 127.05 Z" />
</g>
<g id="#310409ff">
<path fill="#310409" opacity="1.00" d=" M 112.17 125.35 C 116.34 124.65 120.59 124.29 124.66 123.08 C 126.21 124.96 127.55 127.25 129.94 128.19 C 136.17 130.92 143.04 131.42 149.70 132.36 C 152.48 132.81 155.29 133.21 158.02 133.95 C 162.55 135.38 164.99 140.52 169.89 141.15 C 174.04 141.92 177.91 144.13 182.23 143.80 C 186.41 143.66 190.54 144.91 194.73 144.32 C 196.46 144.18 198.20 144.09 199.94 144.08 L 199.90 144.94 C 186.28 145.33 172.62 145.29 159.06 143.85 C 145.57 143.00 132.00 143.68 118.53 143.08 C 117.44 142.51 116.34 141.95 115.24 141.41 L 114.36 141.00 L 116.01 140.87 C 118.32 141.00 120.61 141.33 122.93 141.42 C 124.29 141.44 125.65 141.45 127.01 141.45 C 126.91 140.99 126.69 140.08 126.59 139.62 C 127.54 139.32 128.50 139.03 129.46 138.73 L 128.78 137.98 C 128.58 137.71 128.17 137.16 127.97 136.89 C 130.38 136.63 130.33 134.45 130.48 132.55 C 124.70 131.44 118.80 131.26 112.94 130.92 C 110.46 130.46 108.70 132.53 106.86 133.79 C 106.55 133.62 105.92 133.29 105.61 133.12 C 105.01 132.17 104.42 131.21 103.84 130.25 C 99.79 130.45 95.72 130.38 91.68 130.74 C 88.50 131.20 85.77 132.94 82.96 134.36 C 81.67 134.19 80.44 133.76 79.20 133.42 C 79.14 133.79 79.00 134.54 78.94 134.91 C 78.06 135.35 77.17 135.78 76.28 136.20 C 76.35 135.14 76.43 134.08 76.51 133.02 C 76.27 132.83 75.80 132.46 75.56 132.27 C 74.75 134.08 73.88 135.87 72.88 137.58 C 73.46 138.84 74.05 140.09 74.64 141.35 C 75.69 141.86 76.76 142.37 77.79 142.93 L 78.02 144.28 C 70.42 144.01 62.74 144.88 55.20 143.56 C 56.10 141.97 57.00 140.31 57.00 138.41 C 58.10 139.32 59.25 140.17 60.34 141.09 C 61.67 143.01 64.11 142.06 66.04 142.23 C 67.94 142.10 70.12 142.65 71.67 141.22 C 71.45 140.66 71.01 139.55 70.80 138.99 C 68.12 136.89 66.28 132.87 62.31 133.37 C 62.73 132.69 63.56 131.32 63.98 130.64 C 64.68 130.79 66.07 131.08 66.76 131.23 C 67.58 132.42 68.40 133.61 69.22 134.80 C 70.84 133.77 72.46 132.73 74.09 131.70 C 73.39 131.28 72.69 130.86 72.00 130.45 C 85.46 129.46 98.85 127.50 112.17 125.35 M 132.18 133.31 C 132.33 134.88 132.48 136.45 132.73 138.01 L 133.78 139.35 C 132.69 139.91 131.61 140.48 130.55 141.08 C 132.67 141.29 134.81 141.36 136.94 141.41 C 138.07 140.95 139.19 140.49 140.30 140.03 C 140.91 140.49 141.52 140.96 142.13 141.42 C 146.06 141.37 149.99 141.49 153.91 141.76 C 157.28 142.45 160.72 142.75 164.15 142.45 C 163.84 141.31 163.53 140.18 163.23 139.05 C 161.22 138.10 159.35 136.88 157.37 135.91 C 151.47 134.55 145.54 132.86 139.42 133.67 L 139.60 135.42 C 139.65 135.85 139.74 136.70 139.79 137.13 C 139.26 136.83 138.21 136.24 137.69 135.94 L 139.25 135.11 C 138.27 134.23 137.29 133.37 136.30 132.51 C 134.93 132.78 133.55 133.05 132.18 133.31 Z" />
</g>
<g id="#c8d4fcff">
<path fill="#c8d4fc" opacity="1.00" d=" M 192.48 125.21 C 193.00 125.71 193.53 126.21 194.06 126.71 C 194.96 124.63 197.25 124.81 199.02 124.28 C 199.78 125.27 200.54 126.27 201.31 127.27 C 200.33 128.47 199.35 129.68 198.37 130.89 C 198.50 131.69 198.77 133.30 198.91 134.10 C 198.98 134.52 199.12 135.38 199.20 135.80 L 197.83 135.76 C 197.40 134.08 197.05 132.38 196.69 130.69 C 195.40 130.92 194.11 131.14 192.83 131.37 C 192.57 129.33 192.54 127.26 192.48 125.21 Z" />
</g>
<g id="#cbd5ffff">
<path fill="#cbd5ff" opacity="1.00" d=" M 184.48 126.65 C 185.10 126.48 186.34 126.14 186.96 125.97 C 189.40 126.85 191.17 128.57 191.51 131.23 C 188.56 132.72 185.76 134.51 183.31 136.73 C 183.26 136.20 183.18 135.13 183.13 134.60 C 183.38 133.28 183.68 131.98 183.88 130.65 C 184.08 129.32 184.28 127.99 184.48 126.65 Z" />
</g>
<g id="#121754ff">
<path fill="#121754" opacity="1.00" d=" M 211.37 125.87 C 212.47 126.22 213.56 126.59 214.65 126.97 C 214.97 128.16 215.22 129.36 215.40 130.59 C 214.78 129.88 214.17 129.16 213.56 128.44 C 212.07 131.97 208.18 133.73 207.14 137.55 C 204.65 138.10 201.78 138.11 199.92 140.12 C 199.93 139.68 199.96 138.80 199.97 138.35 C 198.86 138.59 197.74 138.82 196.63 139.06 C 196.99 137.95 197.39 136.85 197.83 135.76 L 199.20 135.80 C 199.12 135.38 198.98 134.52 198.91 134.10 C 200.50 135.13 202.10 136.16 203.70 137.18 C 204.20 135.86 204.72 134.53 205.23 133.21 C 205.88 133.90 206.53 134.59 207.19 135.28 C 206.80 133.23 206.40 131.17 206.01 129.12 C 206.87 129.95 207.72 130.79 208.57 131.63 C 209.05 130.40 209.53 129.18 210.06 127.98 C 210.58 128.05 211.62 128.20 212.15 128.27 C 211.95 127.67 211.57 126.47 211.37 125.87 Z" />
</g>
<g id="#4d64beff">
<path fill="#4d64be" opacity="1.00" d=" M 171.38 129.41 C 172.57 128.99 173.75 128.57 174.91 128.07 L 174.92 128.52 C 174.94 129.88 174.97 131.24 174.99 132.61 C 175.83 133.31 176.67 134.03 177.52 134.73 C 177.14 135.57 176.77 136.42 176.41 137.28 C 175.73 137.02 174.36 136.52 173.68 136.27 C 173.45 135.82 172.98 134.91 172.75 134.45 C 170.67 133.67 168.72 132.60 166.98 131.22 C 168.44 130.60 169.90 129.98 171.38 129.41 M 172.24 129.97 C 170.64 130.28 171.23 132.70 172.80 131.84 C 174.46 131.56 173.84 129.07 172.24 129.97 M 175.24 135.28 C 175.76 135.79 175.76 135.79 175.24 135.28 Z" />
<path fill="#4d64be" opacity="1.00" d=" M 192.83 131.37 C 194.11 131.14 195.40 130.92 196.69 130.69 C 197.05 132.38 197.40 134.08 197.83 135.76 C 197.39 136.85 196.99 137.95 196.63 139.06 C 196.30 140.07 195.99 141.10 195.68 142.13 C 195.54 139.82 195.31 137.46 193.90 135.53 C 193.50 134.15 193.12 132.77 192.83 131.37 Z" />
</g>
<g id="#91a0edff">
<path fill="#91a0ed" opacity="1.00" d=" M 174.92 128.52 L 175.95 129.52 C 176.03 132.89 180.03 130.99 182.17 131.32 L 182.23 131.59 C 182.31 131.99 182.47 132.77 182.55 133.16 L 181.24 133.79 C 180.33 134.37 179.46 134.99 178.57 135.58 L 177.52 134.73 C 176.67 134.03 175.83 133.31 174.99 132.61 C 174.97 131.24 174.94 129.88 174.92 128.52 Z" />
</g>
<g id="#911616ff">
<path fill="#911616" opacity="1.00" d=" M 91.68 130.74 C 95.72 130.38 99.79 130.45 103.84 130.25 C 104.42 131.21 105.01 132.17 105.61 133.12 C 105.92 133.29 106.55 133.62 106.86 133.79 C 107.20 134.28 107.88 135.26 108.22 135.75 C 107.72 135.47 106.73 134.93 106.23 134.66 C 105.67 134.98 104.56 135.62 104.00 135.94 C 103.63 136.15 102.90 136.55 102.54 136.76 C 100.86 136.25 99.24 135.63 97.67 134.87 C 99.72 134.19 101.80 133.59 103.88 133.00 C 101.20 132.53 98.48 132.32 95.76 132.48 C 95.79 132.22 95.86 131.69 95.89 131.42 C 94.70 133.00 93.43 134.52 92.15 136.02 C 92.05 134.25 91.86 132.49 91.68 130.74 Z" />
</g>
<g id="#263597ff">
<path fill="#263597" opacity="1.00" d=" M 172.24 129.97 C 173.84 129.07 174.46 131.56 172.80 131.84 C 171.23 132.70 170.64 130.28 172.24 129.97 Z" />
</g>
<g id="#580301ff">
<path fill="#580301" opacity="1.00" d=" M 82.96 134.36 C 85.77 132.94 88.50 131.20 91.68 130.74 C 91.86 132.49 92.05 134.25 92.15 136.02 C 90.55 137.59 90.69 139.80 90.67 141.87 C 91.46 141.82 93.04 141.71 93.83 141.66 C 93.66 140.50 93.49 139.34 93.32 138.18 C 94.36 137.58 95.40 136.96 96.50 136.45 C 97.78 136.90 98.86 137.76 99.99 138.49 C 99.95 138.76 99.87 139.30 99.83 139.57 C 98.38 139.49 96.94 139.39 95.50 139.30 C 95.40 139.97 95.21 141.32 95.11 141.99 C 101.80 141.41 108.53 141.48 115.24 141.41 C 116.34 141.95 117.44 142.51 118.53 143.08 C 105.05 143.95 91.51 143.53 78.02 144.28 L 77.79 142.93 C 78.14 142.41 78.84 141.36 79.19 140.84 C 79.26 141.31 79.40 142.24 79.47 142.71 C 82.24 141.54 85.16 141.34 87.91 142.65 C 86.95 140.49 85.85 138.39 84.66 136.34 C 83.33 136.53 81.99 136.72 80.65 136.92 C 80.22 136.41 79.37 135.41 78.94 134.91 C 79.00 134.54 79.14 133.79 79.20 133.42 C 80.44 133.76 81.67 134.19 82.96 134.36 M 86.20 133.08 C 85.71 134.74 86.26 135.27 87.87 134.68 C 88.36 133.02 87.80 132.48 86.20 133.08 Z" />
</g>
<g id="#fb5352ff">
<path fill="#fb5352" opacity="1.00" d=" M 92.15 136.02 C 93.43 134.52 94.70 133.00 95.89 131.42 C 95.86 131.69 95.79 132.22 95.76 132.48 C 98.48 132.32 101.20 132.53 103.88 133.00 C 101.80 133.59 99.72 134.19 97.67 134.87 C 99.24 135.63 100.86 136.25 102.54 136.76 C 101.67 137.30 100.82 137.88 99.99 138.49 C 98.86 137.76 97.78 136.90 96.50 136.45 C 95.40 136.96 94.36 137.58 93.32 138.18 C 93.49 139.34 93.66 140.50 93.83 141.66 C 93.04 141.71 91.46 141.82 90.67 141.87 C 90.69 139.80 90.55 137.59 92.15 136.02 Z" />
</g>
<g id="#a71716ff">
<path fill="#a71716" opacity="1.00" d=" M 106.86 133.79 C 108.70 132.53 110.46 130.46 112.94 130.92 C 118.80 131.26 124.70 131.44 130.48 132.55 C 128.97 133.02 127.46 133.51 125.96 134.00 C 126.61 134.97 127.28 135.93 127.97 136.89 C 128.17 137.16 128.58 137.71 128.78 137.98 C 127.36 137.69 125.94 137.44 124.52 137.19 C 123.99 138.60 123.46 140.01 122.93 141.42 C 120.61 141.33 118.32 141.00 116.01 140.87 C 115.73 138.64 115.03 136.52 112.79 135.69 C 111.84 135.29 110.88 134.89 109.92 134.51 C 109.16 134.33 107.62 133.97 106.86 133.79 M 122.18 133.95 C 121.93 134.27 121.45 134.90 121.21 135.22 C 122.01 138.75 125.92 133.40 122.18 133.95 M 118.09 136.73 C 116.87 137.72 118.45 140.03 119.75 138.91 C 120.94 137.92 119.36 135.73 118.09 136.73 Z" />
</g>
<g id="#000939ff">
<path fill="#000939" opacity="1.00" d=" M 182.17 131.32 C 182.19 131.39 182.21 131.52 182.23 131.59 L 182.17 131.32 Z" />
</g>
<g id="#663f43ff">
<path fill="#663f43" opacity="1.00" d=" M 35.77 133.14 C 43.31 132.94 50.92 133.62 58.37 132.15 C 57.95 132.57 57.11 133.40 56.69 133.82 C 57.83 133.71 58.97 133.61 60.10 133.51 C 59.96 134.01 59.66 135.00 59.52 135.50 C 57.64 135.16 55.76 134.83 53.89 134.48 C 47.94 133.05 41.78 134.11 35.77 133.14 Z" />
</g>
<g id="#721118ff">
<path fill="#721118" opacity="1.00" d=" M 75.56 132.27 C 75.80 132.46 76.27 132.83 76.51 133.02 C 76.43 134.08 76.35 135.14 76.28 136.20 C 77.17 135.78 78.06 135.35 78.94 134.91 C 79.64 136.17 80.36 137.43 81.08 138.68 C 80.42 139.37 79.79 140.09 79.19 140.84 C 78.84 141.36 78.14 142.41 77.79 142.93 C 76.76 142.37 75.69 141.86 74.64 141.35 C 74.05 140.09 73.46 138.84 72.88 137.58 C 73.88 135.87 74.75 134.08 75.56 132.27 Z" />
</g>
<g id="#4158d2ff">
<path fill="#4158d2" opacity="1.00" d=" M 183.31 136.73 C 185.76 134.51 188.56 132.72 191.51 131.23 C 192.04 133.09 192.35 135.00 192.54 136.92 C 192.16 138.26 191.77 139.60 191.36 140.93 C 189.26 140.46 187.17 139.95 185.09 139.42 C 184.97 139.77 184.73 140.49 184.62 140.84 C 184.46 140.48 184.14 139.76 183.98 139.39 C 183.44 139.50 182.36 139.70 181.82 139.80 C 181.75 139.43 181.59 138.67 181.51 138.29 C 181.37 136.79 181.30 135.29 181.24 133.79 L 182.55 133.16 L 183.13 134.60 C 183.18 135.13 183.26 136.20 183.31 136.73 Z" />
</g>
<g id="#21171aff">
<path fill="#21171a" opacity="1.00" d=" M 25.57 136.71 C 25.63 135.34 25.69 133.97 25.74 132.60 C 29.08 132.80 32.44 132.71 35.77 133.14 C 41.78 134.11 47.94 133.05 53.89 134.48 C 55.12 135.41 56.29 136.42 57.45 137.45 C 51.99 137.54 46.51 137.73 41.07 137.33 C 35.95 136.32 30.73 136.96 25.57 136.71 Z" />
</g>
<g id="#801514ff">
<path fill="#801514" opacity="1.00" d=" M 60.10 133.51 C 60.65 133.48 61.76 133.40 62.31 133.37 C 66.28 132.87 68.12 136.89 70.80 138.99 C 67.75 138.72 69.40 142.38 71.67 141.22 C 70.12 142.65 67.94 142.10 66.04 142.23 C 64.11 142.06 61.67 143.01 60.34 141.09 C 59.48 139.80 58.70 138.41 57.45 137.45 C 56.29 136.42 55.12 135.41 53.89 134.48 C 55.76 134.83 57.64 135.16 59.52 135.50 C 59.66 135.00 59.96 134.01 60.10 133.51 Z" />
</g>
<g id="#93343eff">
<path fill="#93343e" opacity="1.00" d=" M 86.20 133.08 C 87.80 132.48 88.36 133.02 87.87 134.68 C 86.26 135.27 85.71 134.74 86.20 133.08 Z" />
</g>
<g id="#a92831ff">
<path fill="#a92831" opacity="1.00" d=" M 125.96 134.00 C 127.46 133.51 128.97 133.02 130.48 132.55 C 130.33 134.45 130.38 136.63 127.97 136.89 C 127.28 135.93 126.61 134.97 125.96 134.00 Z" />
</g>
<g id="#d84b4bff">
<path fill="#d84b4b" opacity="1.00" d=" M 132.18 133.31 C 133.55 133.05 134.93 132.78 136.30 132.51 C 137.29 133.37 138.27 134.23 139.25 135.11 L 137.69 135.94 C 136.86 136.31 136.04 136.67 135.20 137.02 C 134.57 136.75 133.31 136.21 132.68 135.94 C 132.69 136.46 132.72 137.49 132.73 138.01 C 132.48 136.45 132.33 134.88 132.18 133.31 Z" />
</g>
<g id="#f27f84ff">
<path fill="#f27f84" opacity="1.00" d=" M 106.86 133.79 C 107.62 133.97 109.16 134.33 109.92 134.51 C 109.66 136.15 109.13 137.79 109.25 139.48 C 109.68 142.00 112.59 140.87 114.36 141.00 L 115.24 141.41 C 108.53 141.48 101.80 141.41 95.11 141.99 C 95.21 141.32 95.40 139.97 95.50 139.30 C 96.94 139.39 98.38 139.49 99.83 139.57 C 100.55 139.61 101.27 139.65 101.99 139.69 C 103.53 141.41 105.74 141.12 107.80 140.97 C 107.80 140.41 107.80 139.31 107.80 138.75 C 106.26 138.18 104.55 137.71 104.00 135.94 C 104.56 135.62 105.67 134.98 106.23 134.66 C 106.73 134.93 107.72 135.47 108.22 135.75 C 107.88 135.26 107.20 134.28 106.86 133.79 Z" />
<path fill="#f27f84" opacity="1.00" d=" M 78.94 134.91 C 79.37 135.41 80.22 136.41 80.65 136.92 C 81.99 136.72 83.33 136.53 84.66 136.34 C 85.85 138.39 86.95 140.49 87.91 142.65 C 85.16 141.34 82.24 141.54 79.47 142.71 C 79.40 142.24 79.26 141.31 79.19 140.84 C 79.79 140.09 80.42 139.37 81.08 138.68 C 80.36 137.43 79.64 136.17 78.94 134.91 M 82.32 139.30 C 81.10 140.93 84.19 141.76 85.13 140.70 C 86.38 139.10 83.24 138.16 82.32 139.30 Z" />
<path fill="#f27f84" opacity="1.00" d=" M 200.29 142.07 C 201.28 141.91 202.29 141.76 203.29 141.65 C 204.14 141.62 205.82 141.55 206.67 141.52 C 206.65 141.77 206.62 142.27 206.61 142.53 C 204.50 142.40 202.39 142.28 200.29 142.07 Z" />
</g>
<g id="#d83c38ff">
<path fill="#d83c38" opacity="1.00" d=" M 122.18 133.95 C 125.92 133.40 122.01 138.75 121.21 135.22 C 121.45 134.90 121.93 134.27 122.18 133.95 Z" />
</g>
<g id="#c41c23ff">
<path fill="#c41c23" opacity="1.00" d=" M 139.42 133.67 C 145.54 132.86 151.47 134.55 157.37 135.91 C 159.35 136.88 161.22 138.10 163.23 139.05 C 163.53 140.18 163.84 141.31 164.15 142.45 C 160.72 142.75 157.28 142.45 153.91 141.76 C 154.50 140.81 155.09 139.86 155.69 138.91 C 155.28 138.21 154.87 137.50 154.46 136.80 C 153.35 136.45 152.23 136.10 151.13 135.76 C 149.86 137.40 148.54 139.00 147.08 140.48 C 146.88 139.19 146.68 137.89 146.49 136.60 C 145.43 136.52 144.38 136.43 143.33 136.35 C 142.93 138.04 142.53 139.73 142.13 141.42 C 141.52 140.96 140.91 140.49 140.30 140.03 C 140.48 138.94 140.64 137.84 140.77 136.75 C 141.02 136.34 141.51 135.54 141.76 135.14 C 141.22 135.21 140.14 135.35 139.60 135.42 L 139.42 133.67 Z" />
</g>
<g id="#273d9cff">
<path fill="#273d9c" opacity="1.00" d=" M 178.57 135.58 C 179.46 134.99 180.33 134.37 181.24 133.79 C 181.30 135.29 181.37 136.79 181.51 138.29 C 181.46 138.02 181.34 137.48 181.29 137.21 C 180.91 137.49 180.16 138.06 179.78 138.34 C 178.28 138.89 176.78 139.44 175.27 139.98 C 175.65 139.08 176.02 138.17 176.41 137.28 C 176.77 136.42 177.14 135.57 177.52 134.73 L 178.57 135.58 Z" />
</g>
<g id="#f24f57ff">
<path fill="#f24f57" opacity="1.00" d=" M 109.92 134.51 C 110.88 134.89 111.84 135.29 112.79 135.69 C 115.03 136.52 115.73 138.64 116.01 140.87 L 114.36 141.00 C 112.59 140.87 109.68 142.00 109.25 139.48 C 109.13 137.79 109.66 136.15 109.92 134.51 Z" />
</g>
<g id="#ff9592ff">
<path fill="#ff9592" opacity="1.00" d=" M 139.60 135.42 C 140.14 135.35 141.22 135.21 141.76 135.14 C 141.51 135.54 141.02 136.34 140.77 136.75 C 140.64 137.84 140.48 138.94 140.30 140.03 C 139.19 140.49 138.07 140.95 136.94 141.41 C 134.81 141.36 132.67 141.29 130.55 141.08 C 131.61 140.48 132.69 139.91 133.78 139.35 L 132.73 138.01 C 132.72 137.49 132.69 136.46 132.68 135.94 C 133.31 136.21 134.57 136.75 135.20 137.02 C 136.04 136.67 136.86 136.31 137.69 135.94 C 138.21 136.24 139.26 136.83 139.79 137.13 C 139.74 136.70 139.65 135.85 139.60 135.42 Z" />
</g>
<g id="#87a2f9ff">
<path fill="#87a2f9" opacity="1.00" d=" M 175.24 135.28 C 175.76 135.79 175.76 135.79 175.24 135.28 Z" />
</g>
<g id="#c2171aff">
<path fill="#c2171a" opacity="1.00" d=" M 102.54 136.76 C 102.90 136.55 103.63 136.15 104.00 135.94 C 104.55 137.71 106.26 138.18 107.80 138.75 C 107.80 139.31 107.80 140.41 107.80 140.97 C 105.74 141.12 103.53 141.41 101.99 139.69 C 101.27 139.65 100.55 139.61 99.83 139.57 C 99.87 139.30 99.95 138.76 99.99 138.49 C 100.82 137.88 101.67 137.30 102.54 136.76 Z" />
</g>
<g id="#fa6366ff">
<path fill="#fa6366" opacity="1.00" d=" M 118.09 136.73 C 119.36 135.73 120.94 137.92 119.75 138.91 C 118.45 140.03 116.87 137.72 118.09 136.73 Z" />
</g>
<g id="#ff8e82ff">
<path fill="#ff8e82" opacity="1.00" d=" M 143.33 136.35 C 144.38 136.43 145.43 136.52 146.49 136.60 C 146.68 137.89 146.88 139.19 147.08 140.48 C 148.54 139.00 149.86 137.40 151.13 135.76 C 152.23 136.10 153.35 136.45 154.46 136.80 C 154.87 137.50 155.28 138.21 155.69 138.91 C 155.09 139.86 154.50 140.81 153.91 141.76 C 149.99 141.49 146.06 141.37 142.13 141.42 C 142.53 139.73 142.93 138.04 143.33 136.35 Z" />
</g>
<g id="#450006ff">
<path fill="#450006" opacity="1.00" d=" M 211.78 136.55 C 212.86 136.53 213.94 136.51 215.03 136.52 C 215.11 137.38 215.27 139.11 215.34 139.98 C 216.54 140.02 217.74 140.07 218.94 140.11 C 219.02 139.30 219.20 137.67 219.28 136.86 C 220.81 137.92 222.25 139.10 223.70 140.27 C 219.73 141.93 215.48 142.64 211.23 143.01 C 211.77 142.29 212.86 140.85 213.40 140.13 C 211.78 141.02 209.99 141.43 208.18 141.68 C 209.27 142.35 212.40 143.65 210.32 144.99 C 206.91 145.43 203.37 144.76 199.90 144.94 L 199.94 144.08 C 200.02 143.58 200.20 142.57 200.29 142.07 C 202.39 142.28 204.50 142.40 206.61 142.53 C 206.62 142.27 206.65 141.77 206.67 141.52 C 205.82 141.55 204.14 141.62 203.29 141.65 C 206.11 139.93 209.05 138.42 211.78 136.55 Z" />
</g>
<g id="#6f172bff">
<path fill="#6f172b" opacity="1.00" d=" M 215.03 136.52 C 216.45 136.56 217.87 136.66 219.28 136.86 C 219.20 137.67 219.02 139.30 218.94 140.11 C 217.74 140.07 216.54 140.02 215.34 139.98 C 215.27 139.11 215.11 137.38 215.03 136.52 Z" />
</g>
<g id="#c74245ff">
<path fill="#c74245" opacity="1.00" d=" M 124.52 137.19 C 125.94 137.44 127.36 137.69 128.78 137.98 L 129.46 138.73 C 128.50 139.03 127.54 139.32 126.59 139.62 C 126.69 140.08 126.91 140.99 127.01 141.45 C 125.65 141.45 124.29 141.44 122.93 141.42 C 123.46 140.01 123.99 138.60 124.52 137.19 Z" />
</g>
<g id="#761528ff">
<path fill="#761528" opacity="1.00" d=" M 71.67 141.22 C 69.40 142.38 67.75 138.72 70.80 138.99 C 71.01 139.55 71.45 140.66 71.67 141.22 Z" />
</g>
<g id="#8f020eff">
<path fill="#8f020e" opacity="1.00" d=" M 82.32 139.30 C 83.24 138.16 86.38 139.10 85.13 140.70 C 84.19 141.76 81.10 140.93 82.32 139.30 Z" />
</g>
<g id="#2b2b2bff">
<path fill="#2b2b2b" opacity="1.00" d=" M 132.46 148.41 C 137.62 148.41 142.79 148.45 147.96 148.41 C 157.07 147.96 166.42 153.63 169.88 162.14 C 173.28 174.09 165.31 188.30 153.00 190.86 C 145.83 191.46 138.60 190.87 131.41 191.20 C 131.92 187.81 132.70 184.43 132.59 180.98 C 132.50 170.12 132.70 159.26 132.46 148.41 M 138.34 151.95 C 138.39 162.63 138.28 173.32 138.35 184.01 C 138.33 185.30 138.43 187.29 140.09 187.47 C 144.95 187.66 150.34 188.45 154.64 185.61 C 159.28 182.66 164.38 178.11 163.66 172.04 C 164.02 166.07 163.52 159.27 158.70 155.06 C 153.19 149.95 145.09 152.31 138.34 151.95 Z" />
</g>
<g id="#333333ff">
<path fill="#333333" opacity="1.00" d=" M 177.66 158.76 C 182.31 152.76 189.72 149.54 197.10 148.65 C 201.22 148.20 205.83 147.92 209.34 150.52 C 210.04 151.86 210.75 153.18 211.45 154.52 C 202.82 152.42 192.42 151.87 185.52 158.46 C 182.20 161.39 182.82 166.07 182.82 170.03 C 182.36 176.74 186.95 183.35 193.10 185.82 C 197.90 186.63 203.11 186.73 207.68 184.81 C 209.47 184.08 211.32 183.52 213.22 183.10 C 213.17 185.13 213.16 187.17 213.15 189.20 C 204.78 191.49 195.72 191.53 187.53 188.49 C 182.37 186.43 177.40 182.87 175.31 177.53 C 172.91 171.45 173.21 163.85 177.66 158.76 Z" />
</g>
<g id="#313131ff">
<path fill="#313131" opacity="1.00" d=" M 101.74 150.71 C 103.27 150.70 104.80 150.70 106.34 150.68 C 106.44 161.71 106.13 172.75 106.47 183.77 C 107.82 185.99 111.09 185.18 113.32 185.43 C 113.23 186.53 113.14 187.63 113.04 188.74 C 108.90 189.02 103.13 189.06 101.87 184.04 C 101.58 172.94 101.85 161.82 101.74 150.71 Z" />
</g>
<g id="#2f2f2fff">
<path fill="#2f2f2f" opacity="1.00" d=" M 116.55 150.68 C 118.12 150.67 119.70 150.66 121.27 150.66 C 121.08 160.44 121.25 170.23 121.16 180.01 C 121.23 181.45 121.03 182.98 121.54 184.37 C 123.34 185.94 125.89 185.20 128.06 185.33 C 128.09 186.49 128.11 187.64 128.14 188.80 C 123.87 189.03 118.05 189.15 116.69 183.99 C 116.41 172.90 116.71 161.78 116.55 150.68 Z" />
</g>
<g id="#222222ff">
<path fill="#222222" opacity="1.00" d=" M 94.42 154.66 C 95.53 154.67 96.65 154.68 97.76 154.69 C 97.66 162.91 98.24 171.19 97.50 179.37 C 94.06 186.40 82.31 186.34 78.42 179.72 C 77.74 171.45 78.45 163.07 78.06 154.76 C 78.90 154.73 80.59 154.67 81.44 154.63 C 81.58 161.41 81.44 168.19 81.52 174.96 C 81.24 179.38 86.57 182.64 90.43 180.74 C 92.90 180.04 94.33 177.52 94.36 175.06 C 94.49 168.26 94.30 161.46 94.42 154.66 Z" />
</g>
<g id="#292929ff">
<path fill="#292929" opacity="1.00" d=" M 49.41 155.43 C 51.33 155.07 53.26 154.71 55.18 154.35 C 55.17 155.17 55.13 156.82 55.12 157.65 C 57.85 156.17 60.88 154.54 64.10 155.39 C 67.89 155.93 72.57 158.53 72.20 162.93 C 72.17 170.34 72.21 177.75 72.12 185.15 C 71.27 185.17 69.57 185.21 68.72 185.23 C 68.67 178.17 68.84 171.10 68.67 164.05 C 67.99 158.80 61.01 156.90 57.13 159.99 C 55.63 161.57 55.11 163.86 55.16 165.98 C 55.18 172.07 55.13 178.16 55.19 184.24 C 53.64 184.31 52.09 184.37 50.54 184.43 C 49.90 174.78 51.69 164.91 49.41 155.43 Z" />
</g>
</svg>
