<?xml version="1.0" encoding="UTF-8" ?>
<!DOCTYPE svg PUBLIC "-//W3C//DTD SVG 1.1//EN" "http://www.w3.org/Graphics/SVG/1.1/DTD/svg11.dtd">
<svg width="64pt" height="64pt" viewBox="0 0 64 64" version="1.1" xmlns="http://www.w3.org/2000/svg">
<g id="#00c4ffff">
<path fill="#00c4ff" opacity="1.00" d=" M 0.00 0.00 L 8.43 0.00 L 8.27 0.84 C 7.84 3.08 7.74 5.43 8.31 7.65 L 8.78 7.68 C 11.27 8.02 13.98 7.62 16.26 8.82 C 16.05 11.10 15.75 13.44 16.29 15.70 L 16.75 15.73 C 19.16 15.93 21.58 16.01 24.00 16.09 C 24.00 13.40 24.00 10.70 24.00 8.01 C 29.37 8.43 35.13 6.97 40.24 8.83 C 39.93 11.18 39.56 13.65 40.35 15.96 L 40.79 15.96 C 43.14 15.96 45.50 16.00 47.84 16.17 C 47.95 16.51 48.16 17.18 48.26 17.52 C 48.07 19.54 47.77 21.63 48.31 23.63 L 48.80 23.67 C 51.27 24.01 53.94 23.66 56.22 24.82 C 55.94 27.18 55.57 29.66 56.35 31.98 L 56.79 31.98 C 59.20 31.98 61.60 32.00 64.00 32.01 L 64.00 48.19 C 61.66 47.55 59.19 47.83 56.85 48.31 L 55.99 47.96 C 56.00 45.64 56.00 43.32 56.00 41.00 L 56.00 40.00 C 53.33 40.00 50.66 40.00 47.99 40.00 C 47.99 42.62 47.96 45.24 48.02 47.86 L 49.00 47.91 C 51.29 48.16 53.81 47.56 55.95 48.53 C 56.03 51.00 56.02 53.47 56.02 55.94 C 53.80 55.98 51.58 56.02 49.37 56.11 L 48.93 56.25 C 48.73 56.00 48.34 55.48 48.14 55.22 C 47.80 53.17 47.98 51.07 47.96 49.00 L 47.97 48.00 C 37.60 48.22 27.19 47.55 16.85 48.35 L 16.50 48.38 C 16.08 45.94 15.96 43.47 15.95 41.00 L 15.93 40.00 C 13.29 40.00 10.64 40.00 7.99 40.00 C 7.99 42.61 7.96 45.22 8.01 47.83 L 9.00 47.90 C 11.20 48.02 13.43 48.03 15.60 48.44 C 15.80 48.70 16.19 49.22 16.38 49.47 C 15.98 51.50 15.79 53.64 16.30 55.67 L 16.79 55.72 C 26.55 56.44 36.36 55.67 46.13 56.08 C 47.18 56.13 47.97 56.66 48.50 57.70 L 48.25 57.88 C 47.88 59.88 47.65 62.06 48.43 64.00 L 16.02 64.00 C 16.00 61.60 15.98 59.19 15.97 56.79 L 15.97 56.35 C 13.66 55.57 11.18 55.93 8.82 56.23 C 7.49 54.01 8.12 51.26 7.94 48.80 L 7.94 48.33 C 5.66 47.47 3.16 47.87 0.83 48.28 L 0.00 47.85 L 0.00 32.00 C 2.67 32.00 5.33 32.00 8.00 32.00 C 8.00 29.33 8.00 26.67 8.00 24.00 C 10.54 24.00 13.09 24.00 15.63 23.99 C 15.84 24.28 16.27 24.86 16.48 25.14 C 15.90 27.36 15.62 29.78 16.38 32.00 L 16.82 32.00 C 19.21 31.99 21.61 32.00 24.01 32.00 C 24.00 29.60 23.99 27.20 23.99 24.80 L 23.99 24.34 C 21.69 23.49 19.20 23.90 16.86 24.27 L 16.10 23.76 C 15.96 21.44 15.96 19.11 15.95 16.79 L 15.95 16.35 C 13.64 15.56 11.17 15.94 8.81 16.23 C 7.48 14.01 8.13 11.26 7.95 8.80 L 7.95 8.34 C 5.67 7.44 3.15 7.83 0.82 8.34 L 0.00 8.02 L 0.00 0.00 M 40.00 24.00 C 40.00 26.67 40.00 29.33 40.00 32.00 L 41.00 32.00 C 43.35 32.00 45.70 32.00 48.05 32.00 C 48.02 29.60 47.96 27.20 47.76 24.81 L 48.80 24.24 C 45.88 23.87 42.94 23.99 40.00 24.00 Z" />
<path fill="#00c4ff" opacity="1.00" d=" M 55.97 0.00 L 64.00 0.00 L 64.00 8.19 C 61.68 7.60 59.25 7.90 56.91 8.22 L 56.28 7.90 C 55.85 5.29 55.99 2.64 55.97 0.00 Z" />
<path fill="#00c4ff" opacity="1.00" d=" M 48.01 8.00 C 50.75 8.00 53.50 8.00 56.25 8.00 C 56.24 8.42 56.21 9.26 56.20 9.68 C 55.97 11.75 55.97 13.82 55.98 15.90 C 53.70 15.98 51.39 15.92 49.15 16.39 L 48.25 16.57 C 47.88 13.72 48.00 10.85 48.01 8.00 Z" />
</g>
<g id="#ffffffff">
</g>
<g id="#000000ff">
<path fill="#000000" opacity="1.00" d=" M 8.27 0.84 C 9.54 2.86 9.11 5.46 8.78 7.68 L 8.31 7.65 C 7.74 5.43 7.84 3.08 8.27 0.84 Z" />
<path fill="#000000" opacity="1.00" d=" M 0.82 8.34 C 3.15 7.83 5.67 7.44 7.95 8.34 L 7.95 8.80 C 5.62 9.29 3.01 9.45 0.82 8.34 Z" />
<path fill="#000000" opacity="1.00" d=" M 56.91 8.22 C 59.25 7.90 61.68 7.60 64.00 8.19 L 64.00 8.63 C 61.78 9.16 58.81 9.81 56.91 8.22 Z" />
<path fill="#000000" opacity="1.00" d=" M 16.26 8.82 C 17.86 10.53 16.91 13.57 16.75 15.73 L 16.29 15.70 C 15.75 13.44 16.05 11.10 16.26 8.82 Z" />
<path fill="#000000" opacity="1.00" d=" M 40.24 8.83 C 41.94 10.58 40.94 13.71 40.79 15.96 L 40.35 15.96 C 39.56 13.65 39.93 11.18 40.24 8.83 Z" />
<path fill="#000000" opacity="1.00" d=" M 56.20 9.68 L 56.69 9.64 C 57.38 12.03 56.90 14.55 56.99 16.99 C 54.35 16.91 51.65 17.34 49.05 16.74 L 49.15 16.39 C 51.39 15.92 53.70 15.98 55.98 15.90 C 55.97 13.82 55.97 11.75 56.20 9.68 Z" />
<path fill="#000000" opacity="1.00" d=" M 8.81 16.23 C 11.17 15.94 13.64 15.56 15.95 16.35 L 15.95 16.79 C 13.70 16.94 10.57 17.95 8.81 16.23 Z" />
<path fill="#000000" opacity="1.00" d=" M 48.26 17.52 L 48.48 17.76 C 49.35 19.58 49.19 21.74 48.80 23.67 L 48.31 23.63 C 47.77 21.63 48.07 19.54 48.26 17.52 Z" />
<path fill="#000000" opacity="1.00" d=" M 16.86 24.27 C 19.20 23.90 21.69 23.49 23.99 24.34 L 23.99 24.80 C 21.67 25.12 18.89 25.73 16.86 24.27 Z" />
<path fill="#000000" opacity="1.00" d=" M 40.00 24.00 C 42.94 23.99 45.88 23.87 48.80 24.24 L 47.76 24.81 C 45.51 25.05 43.25 25.02 41.00 25.04 C 41.00 27.36 41.00 29.68 41.00 32.00 L 40.00 32.00 C 40.00 29.33 40.00 26.67 40.00 24.00 Z" />
<path fill="#000000" opacity="1.00" d=" M 56.22 24.82 C 57.96 26.55 56.93 29.73 56.79 31.98 L 56.35 31.98 C 55.57 29.66 55.94 27.18 56.22 24.82 Z" />
<path fill="#000000" opacity="1.00" d=" M 16.48 25.14 L 16.77 25.49 C 17.20 27.62 17.21 29.86 16.82 32.00 L 16.38 32.00 C 15.62 29.78 15.90 27.36 16.48 25.14 Z" />
<path fill="#000000" opacity="1.00" d=" M 7.99 40.00 C 10.64 40.00 13.29 40.00 15.93 40.00 L 15.95 41.00 C 13.63 41.00 11.32 41.00 9.00 41.00 C 9.00 43.30 9.00 45.60 9.00 47.90 L 8.01 47.83 C 7.96 45.22 7.99 42.61 7.99 40.00 Z" />
<path fill="#000000" opacity="1.00" d=" M 47.99 40.00 C 50.66 40.00 53.33 40.00 56.00 40.00 L 56.00 41.00 C 53.67 41.00 51.33 41.00 49.00 41.00 C 49.00 43.30 49.00 45.61 49.00 47.91 L 48.02 47.86 C 47.96 45.24 47.99 42.62 47.99 40.00 Z" />
<path fill="#000000" opacity="1.00" d=" M 0.83 48.28 C 3.16 47.87 5.66 47.47 7.94 48.33 L 7.94 48.80 C 5.62 49.21 2.93 49.60 0.83 48.28 Z" />
<path fill="#000000" opacity="1.00" d=" M 16.85 48.35 C 27.19 47.55 37.60 48.22 47.97 48.00 L 47.96 49.00 C 37.70 48.78 27.38 49.43 17.18 48.69 L 16.85 48.35 Z" />
<path fill="#000000" opacity="1.00" d=" M 56.85 48.31 C 59.19 47.83 61.66 47.55 64.00 48.19 L 64.00 48.64 C 61.71 49.39 59.02 49.46 56.85 48.31 Z" />
<path fill="#000000" opacity="1.00" d=" M 16.38 49.47 L 16.61 49.72 C 17.21 51.65 17.20 53.76 16.79 55.72 L 16.30 55.67 C 15.79 53.64 15.98 51.50 16.38 49.47 Z" />
<path fill="#000000" opacity="1.00" d=" M 55.95 48.53 L 56.98 49.36 C 57.04 51.90 57.01 54.45 57.00 56.99 C 54.41 56.56 51.07 58.09 48.93 56.25 L 49.37 56.11 C 51.58 56.02 53.80 55.98 56.02 55.94 C 56.02 53.47 56.03 51.00 55.95 48.53 Z" />
<path fill="#000000" opacity="1.00" d=" M 8.82 56.23 C 11.18 55.93 13.66 55.57 15.97 56.35 L 15.97 56.79 C 13.72 56.94 10.58 57.95 8.82 56.23 Z" />
<path fill="#000000" opacity="1.00" d=" M 48.50 57.70 C 48.64 57.86 48.93 58.19 49.07 58.35 C 49.09 60.23 49.17 62.13 48.86 64.00 L 48.43 64.00 C 47.65 62.06 47.88 59.88 48.25 57.88 L 48.50 57.70 Z" />
</g>
</svg>
