<?xml version="1.0" encoding="UTF-8" standalone="no"?>
<svg
   width="204.41289pt"
   height="258.53555pt"
   viewBox="0 0 204.41289 258.53555"
   version="1.1"
   id="svg33"
   sodipodi:docname="clipboard.svg"
   xml:space="preserve"
   inkscape:version="1.4.2 (ebf0e940d0, 2025-05-08)"
   xmlns:inkscape="http://www.inkscape.org/namespaces/inkscape"
   xmlns:sodipodi="http://sodipodi.sourceforge.net/DTD/sodipodi-0.dtd"
   xmlns="http://www.w3.org/2000/svg"
   xmlns:svg="http://www.w3.org/2000/svg"><defs
     id="defs33" /><sodipodi:namedview
     id="namedview33"
     pagecolor="#505050"
     bordercolor="#ffffff"
     borderopacity="1"
     inkscape:showpageshadow="0"
     inkscape:pageopacity="0"
     inkscape:pagecheckerboard="1"
     inkscape:deskcolor="#505050"
     inkscape:document-units="pt"
     inkscape:zoom="1.7029488"
     inkscape:cx="67.823529"
     inkscape:cy="206.40667"
     inkscape:window-width="1920"
     inkscape:window-height="1052"
     inkscape:window-x="0"
     inkscape:window-y="0"
     inkscape:window-maximized="1"
     inkscape:current-layer="svg33" /><g
     id="#00007fff"
     transform="translate(-30.658557,-5.1990771)"><path
       fill="#00007f"
       opacity="1"
       d="m 97.86,18.86 c 6.97,-6.59 15.55,-12.2 25.24,-13.45 7.82,-0.21 16.02,-0.92 23.37,2.38 10.44,4.57 19.32,12.47 25.32,22.15 -3.12,2.82 -6.51,5.31 -10.04,7.58 -0.52,3.15 -1.06,6.33 -2.14,9.35 1.69,-5.72 0.07,-11.64 -1.57,-17.16 -1.54,-5 -4.33,-9.99 -9.02,-12.63 -3.59,-2.02 -7.94,-1.47 -11.78,-0.56 -4,0.96 -6.87,4.08 -9.9,6.64 -2.89,-3.09 -5.89,-6.48 -10.14,-7.63 -7.35,-2.61 -15.49,2.05 -19.11,8.5 -5.97,10.23 -5.38,24.17 1.75,33.7 -3.5,0.98 -8.07,1.47 -9.68,5.29 -3.09,6.63 -4.15,13.93 -6.08,20.92 C 85.14,74.67 86.09,65.32 85.09,56 82.47,42.47 88.74,28.64 97.86,18.86 Z"
       id="path1" /></g><g
     id="#ffffffff"
     transform="translate(-30.658557,-5.1990771)"><path
       fill="#ffffff"
       opacity="1"
       d="m 98.09,24.03 c 3.62,-6.45 11.76,-11.11 19.11,-8.5 4.25,1.15 7.25,4.54 10.14,7.63 3.03,-2.56 5.9,-5.68 9.9,-6.64 3.84,-0.91 8.19,-1.46 11.78,0.56 4.69,2.64 7.48,7.63 9.02,12.63 1.64,5.52 3.26,11.44 1.57,17.16 -1.85,5.06 -4.7,9.76 -8.67,13.42 -4.56,-0.49 -8.94,0.8 -13.02,2.7 -1.2,-6.7 -3.43,-13.64 -8.32,-18.59 -1.94,-2.2 -4.92,-2.85 -7.7,-3.15 l -0.74,0.5 c -3.85,2.45 -7.38,5.67 -9.34,9.86 -1.43,3.14 -2.25,6.52 -3.55,9.72 l -0.89,-0.25 c -1.84,-0.57 -3.66,-1.19 -5.45,-1.92 -0.52,-0.35 -1.56,-1.07 -2.09,-1.43 -7.13,-9.53 -7.72,-23.47 -1.75,-33.7 m 8.41,15.72 c 0.09,1.87 -0.49,4.19 1.33,5.44 2.69,1.66 6.76,-0.47 5.75,-3.87 -0.52,-3.57 -4.74,-3.06 -7.08,-1.57 m 27.87,4.72 c 1.32,2.49 4.1,1.72 6.19,0.81 0.02,-1.74 0.64,-3.7 -0.34,-5.29 -1.09,-0.59 -2.19,-1.15 -3.32,-1.66 -1.84,1.4 -4.67,3.7 -2.53,6.14 z"
       id="path2" /><path
       fill="#ffffff"
       opacity="1"
       d="m 147.11,82.31 c 9.75,2.06 19.67,4.87 27.95,10.63 6.39,4.7 7.35,13.75 5.69,20.98 -2.6,10.13 -11.5,16.96 -20.42,21.44 -1.73,-1.8 -3.47,-3.61 -5.44,-5.15 -3.66,-2.31 -8.24,-3.58 -12.46,-2.05 -3.89,0.99 -6.98,3.88 -9.13,7.17 -4.87,7.33 -6.11,16.92 -3.14,25.22 1.97,7.38 8.4,15.22 16.79,14.09 6.83,-1.25 13.52,0.87 20.19,1.99 11.6,1.99 23.69,-0.32 34.35,-5.08 3.58,-1.81 7.26,-3.77 9.86,-6.91 0.52,-0.03 1.57,-0.1 2.1,-0.13 0.51,2.38 1.15,4.77 2.42,6.88 0.79,4.16 0.39,8.43 0.44,12.64 0.06,6.72 -3.1,12.78 -4.88,19.09 3.29,4.26 6.29,9.28 5.93,14.88 -0.09,9.9 -7.15,18.27 -15.48,22.88 -12.34,6.83 -27.34,8.62 -41,5.36 -0.28,-0.1 -0.85,-0.29 -1.14,-0.38 -6.51,-0.9 -12.07,-4.48 -18.03,-6.92 1.31,1.49 2.7,2.9 4.14,4.28 -11.37,3.03 -22.98,-0.31 -34.08,-2.88 -4.6,-0.97 -9.16,-4.13 -13.95,-2.49 -6.38,1.95 -13.05,2.47 -19.68,2.45 -2.32,-0.64 -4.62,-1.32 -6.93,-1.97 -3.39,-2.01 -7.5,-3.03 -10.04,-6.23 4.39,0.44 7.97,3.27 11.99,4.81 7.97,3.66 19.23,1.29 23.44,-6.88 1.58,-4.24 4.36,-8.26 4.49,-12.88 -2.55,-15.51 -8.51,-31.13 -19.99,-42.26 -4.6,-4.8 -10.55,-8.05 -16.65,-10.52 -2.33,-1.01 -4.89,-0.89 -7.36,-1.04 1.39,-16.07 7.2,-31.63 15.76,-45.25 4.3,-6.02 8.94,-11.85 14.38,-16.89 5.45,-5.13 12.13,-8.65 18.41,-12.61 6.13,4.98 13.57,11.55 22.09,9.1 7.3,-2.58 14.25,-7.19 18.41,-13.85 0.24,-0.38 0.72,-1.14 0.97,-1.52 M 99.08,192.02 c 3.7,11.08 10.92,22.22 22.4,26.28 5.2,1.9 8.49,6.53 12.54,10 -0.29,-3.68 -3.54,-5.94 -6.12,-8.14 -3.13,-2.59 -7.07,-3.68 -10.74,-5.2 -8.58,-5.17 -14.43,-13.76 -18.08,-22.94"
       id="path3"
       sodipodi:nodetypes="ccccccccccccccccccccccccccccccccccccccccccccc" /></g><g
     id="#000063ff"
     transform="translate(-30.658557,-5.1990771)"><path
       fill="#000063"
       opacity="1"
       d="m 171.79,29.94 c 1.56,5.67 3.29,11.32 4.37,17.11 0.62,9.22 -0.22,18.5 0.32,27.72 1.07,4.46 3.78,8.29 5.59,12.47 1.52,3.81 4.64,7.23 8.91,7.71 5.28,0.75 8.58,5.44 11.89,9.13 3.46,5.45 6.36,11.52 6.95,18.03 0.29,3.41 -1.98,6.25 -3.8,8.9 -6.45,8.58 -12.39,17.54 -19.07,25.94 -3.02,3.74 -5.54,7.84 -8.24,11.8 -2.66,4.07 -7.55,5.56 -11.57,7.88 -6.67,-1.12 -13.36,-3.24 -20.19,-1.99 -8.39,1.13 -14.82,-6.71 -16.79,-14.09 2.39,1.41 3.89,3.77 5.39,6.03 1.59,2.47 4.08,4.11 6.43,5.78 1.07,-2.93 2.11,-5.91 3.84,-8.53 6.09,-8.74 13.31,-16.77 18.31,-26.24 -2.81,0.6 -5.6,1.31 -8.38,2.05 -0.42,-3.13 -0.74,-6.27 -0.86,-9.43 1.97,1.54 3.71,3.35 5.44,5.15 8.92,-4.48 17.82,-11.31 20.42,-21.44 1.66,-7.23 0.7,-16.28 -5.69,-20.98 -8.28,-5.76 -18.2,-8.57 -27.95,-10.63 2.81,-4.69 6.99,-8.31 10.37,-12.55 2.4,-4.67 -2.52,-8.38 -6.54,-9.47 3.97,-3.66 6.82,-8.36 8.67,-13.42 1.08,-3.02 1.62,-6.2 2.14,-9.35 3.53,-2.27 6.92,-4.76 10.04,-7.58 z"
       id="path4" /></g><g
     id="#010101ff"
     transform="translate(-30.658557,-5.1990771)"><path
       fill="#010101"
       opacity="1"
       d="m 106.5,39.75 c 2.34,-1.49 6.56,-2 7.08,1.57 1.01,3.4 -3.06,5.53 -5.75,3.87 -1.82,-1.25 -1.24,-3.57 -1.33,-5.44 z"
       id="path5" /></g><g
     id="#000000ff"
     transform="translate(-30.658557,-5.1990771)"><path
       fill="#000000"
       opacity="1"
       d="m 134.37,44.47 c -2.14,-2.44 0.69,-4.74 2.53,-6.14 1.13,0.51 2.23,1.07 3.32,1.66 0.98,1.59 0.36,3.55 0.34,5.29 -2.09,0.91 -4.87,1.68 -6.19,-0.81 z"
       id="path6" /></g><g
     id="#010000ff"
     transform="translate(-30.658557,-5.1990771)"><path
       fill="#010000"
       opacity="1"
       d="m 121.9,41.25 c 2.78,0.3 5.76,0.95 7.7,3.15 4.89,4.95 7.12,11.89 8.32,18.59 4.08,-1.9 8.46,-3.19 13.02,-2.7 4.02,1.09 8.94,4.8 6.54,9.47 -0.65,-3.05 -1.94,-6.21 -5.01,-7.5 -2.53,-1 -5.28,-1.01 -7.95,-0.82 -2.82,-0.01 -4.88,2.23 -6.95,3.84 -1.21,-7.51 -3.51,-15.34 -8.95,-20.92 -1.71,-1.95 -4.37,-2.38 -6.72,-3.11 z"
       id="path7" /><path
       fill="#010000"
       opacity="1"
       d="m 135,74.96 c 6.65,-0.18 11.75,-4.96 15.1,-10.29 0.44,0.32 1.31,0.95 1.75,1.26 -1.53,3.43 -2.72,7.01 -4.43,10.36 -4.29,8.51 -12.21,15.03 -21.25,17.93 -1.29,0.49 -2.64,-0.02 -3.83,-0.54 -5.49,-2.55 -11.21,-5.09 -15.37,-9.64 -5,-4.47 -8.52,-10.3 -10.97,-16.49 0.39,-0.48 0.8,-0.95 1.23,-1.4 2.22,2.61 4.35,5.4 7.3,7.24 2.61,1.76 5.86,1.78 8.81,2.55 2.79,0.67 5.25,2.19 7.77,3.5 4.2,-2.66 8.86,-4.43 13.89,-4.48 m -8.96,7.21 c -0.88,2.33 -1.63,4.71 -2.4,7.08 -0.06,-2.34 -0.03,-4.68 -0.01,-7.02 -3.82,0.37 -9.08,-0.03 -11.29,3.78 3.13,3.62 8.05,5.72 12.66,6.75 3.98,-0.88 7.97,-2.73 10.82,-5.69 -0.81,-4.38 -6.2,-4.67 -9.78,-4.9 z"
       id="path8" /></g><g
     id="#000018ff"
     transform="translate(-30.658557,-5.1990771)"><path
       fill="#000018"
       opacity="1"
       d="m 111.82,51.61 c 1.96,-4.19 5.49,-7.41 9.34,-9.86 -2.99,2.86 -6.13,5.72 -8.1,9.41 -1.82,3.26 -2.76,6.88 -3.9,10.4 -0.22,-0.06 -0.67,-0.18 -0.89,-0.23 1.3,-3.2 2.12,-6.58 3.55,-9.72 z"
       id="path9" /><path
       fill="#000018"
       opacity="1"
       d="m 215.87,171.39 c 2.04,3.72 4.45,7.21 6.54,10.9 0.5,2.27 -0.17,4.58 -0.69,6.78 2.63,-1.07 5.86,-3.89 8.46,-1.32 2.25,1.5 1.77,4.57 1.39,6.85 -2.13,8.45 -7.01,15.88 -12.53,22.51 6.65,3.56 14.24,8.03 16.03,15.97 0.11,11.22 -6.06,22.41 -15.97,27.88 -2.08,0.41 -4.18,0.7 -6.27,1.01 1.57,-0.65 3.11,-1.37 4.67,-2.08 -5.39,-3.85 -11.31,-8.1 -12.58,-15.09 1.95,2.5 3.51,5.3 5.62,7.68 2.58,2.87 6.13,4.56 9.48,6.33 4.15,-3.57 7.89,-7.67 10.35,-12.6 -5.72,-2.04 -11.64,-4.33 -15.69,-9.08 5.38,2.73 10.58,5.92 16.48,7.45 1.16,-3.72 2.9,-7.54 2.3,-11.52 -2.26,-6.71 -8.68,-10.63 -14.59,-13.79 -0.95,4.3 -1.71,8.79 -4.12,12.57 -2.65,4.13 -6.43,7.42 -10.43,10.19 -0.61,-0.29 -1.83,-0.86 -2.44,-1.15 8.33,-4.61 15.39,-12.98 15.48,-22.88 0.36,-5.6 -2.64,-10.62 -5.93,-14.88 1.78,-6.31 4.94,-12.37 4.88,-19.09 -0.05,-4.21 0.35,-8.48 -0.44,-12.64 z"
       id="path10" /></g><g
     id="#efe100ff"
     transform="translate(-30.658557,-5.1990771)"><path
       fill="#efe100"
       opacity="1"
       d="m 121.16,41.75 0.74,-0.5 c 2.35,0.73 5.01,1.16 6.72,3.11 5.44,5.58 7.74,13.41 8.95,20.92 2.07,-1.61 4.13,-3.85 6.95,-3.84 2.56,0.84 5.28,1.79 7.95,0.82 3.07,1.29 4.36,4.45 5.01,7.5 -3.38,4.24 -7.56,7.86 -10.37,12.55 -0.25,0.38 -0.73,1.14 -0.97,1.52 C 140.42,91 132,95.99 123.01,97.63 113.06,95.42 104.81,88.1 99.05,79.91 97.06,76.9 93.72,75.19 91.57,72.34 c -1.66,-2.22 -0.91,-5.12 -0.08,-7.49 0.73,0.19 2.17,0.57 2.89,0.77 -0.04,1.42 -0.08,2.85 -0.14,4.28 0.57,-0.79 1.16,-1.58 1.76,-2.35 2.45,6.19 5.97,12.02 10.97,16.49 4.16,4.55 9.88,7.09 15.37,9.64 1.19,0.52 2.54,1.03 3.83,0.54 9.04,-2.9 16.96,-9.42 21.25,-17.93 1.71,-3.35 2.9,-6.93 4.43,-10.36 -0.44,-0.31 -1.31,-0.94 -1.75,-1.26 -3.35,5.33 -8.45,10.11 -15.1,10.29 -5.03,0.05 -9.69,1.82 -13.89,4.48 -2.52,-1.31 -4.98,-2.83 -7.77,-3.5 -2.95,-0.77 -6.2,-0.79 -8.81,-2.55 -2.95,-1.84 -5.08,-4.63 -7.3,-7.24 2.21,-1.89 4.01,-4.41 6.69,-5.65 0.87,0.15 2.6,0.43 3.46,0.58 l 0.89,0.25 c 0.22,0.05 0.67,0.17 0.89,0.23 1.14,-3.52 2.08,-7.14 3.9,-10.4 1.97,-3.69 5.11,-6.55 8.1,-9.41 m -1.53,3.85 c -3.33,3.66 -5.31,8.33 -7.07,12.89 -0.96,2.27 0.41,4.55 1.3,6.59 1.39,2.62 2.43,5.91 5.52,6.98 0.19,0.76 0.42,1.51 0.68,2.25 0.41,-9.9 -0.22,-20.07 3.31,-29.54 -0.31,0.17 -0.92,0.52 -1.23,0.69 -0.63,0.04 -1.88,0.1 -2.51,0.14 z"
       id="path11" /></g><g
     id="#fdfdfbff"
     transform="translate(-30.658557,-5.1990771)"><path
       fill="#fdfdfb"
       opacity="1"
       d="m 119.63,45.6 c 0.63,-0.04 1.88,-0.1 2.51,-0.14 -1.73,8.74 -3.4,17.65 -2.76,26.6 -3.09,-1.07 -4.13,-4.36 -5.52,-6.98 -0.89,-2.04 -2.26,-4.32 -1.3,-6.59 1.76,-4.56 3.74,-9.23 7.07,-12.89 z"
       id="path12" /><path
       fill="#fdfdfb"
       opacity="1"
       d="m 91.49,64.85 c 1.87,-1.72 3.9,-3.32 6.29,-4.22 1.53,-0.35 3.01,-0.26 4.44,0.29 -2.17,2.08 -5.43,2.8 -7.84,4.7 -0.72,-0.2 -2.16,-0.58 -2.89,-0.77 z"
       id="path13" /><path
       fill="#fdfdfb"
       opacity="1"
       d="m 144.52,61.44 c 2.67,-0.19 5.42,-0.18 7.95,0.82 -2.67,0.97 -5.39,0.02 -7.95,-0.82 z"
       id="path14" /></g><g
     id="#161208ff"
     transform="translate(-30.658557,-5.1990771)"><path
       fill="#161208"
       opacity="1"
       d="m 122.14,45.46 c 0.31,-0.17 0.92,-0.52 1.23,-0.69 -3.53,9.47 -2.9,19.64 -3.31,29.54 -0.26,-0.74 -0.49,-1.49 -0.68,-2.25 -0.64,-8.95 1.03,-17.86 2.76,-26.6 z"
       id="path15" /><path
       fill="#161208"
       opacity="1"
       d="m 101.93,59.16 c 1.79,0.73 3.61,1.35 5.45,1.92 -0.86,-0.15 -2.59,-0.43 -3.46,-0.58 -2.68,1.24 -4.48,3.76 -6.69,5.65 -0.43,0.45 -0.84,0.92 -1.23,1.4 -0.6,0.77 -1.19,1.56 -1.76,2.35 0.06,-1.43 0.1,-2.86 0.14,-4.28 2.41,-1.9 5.67,-2.62 7.84,-4.7 -1.43,-0.55 -2.91,-0.64 -4.44,-0.29 1.37,-0.53 2.76,-1 4.15,-1.47 z"
       id="path16" /><path
       fill="#161208"
       opacity="1"
       d="m 44.37,168.59 c 13.89,-0.59 27.51,6.03 36.39,16.57 3.27,3.99 6.65,8.14 8.12,13.19 -2.9,-2.62 -4.58,-6.22 -6.96,-9.25 -5.63,-6.9 -12.54,-13.04 -20.94,-16.29 -5.3,-2.18 -11.04,-2.9 -16.72,-3.3 0.03,-0.23 0.09,-0.69 0.11,-0.92 z"
       id="path17" /><path
       fill="#161208"
       opacity="1"
       d="m 160.88,246.24 c 13.66,3.26 28.66,1.47 41,-5.36 0.61,0.29 1.83,0.86 2.44,1.15 -11.14,7.28 -24.84,8.54 -37.81,8.14 7.84,6.25 17.7,9.39 27.54,10.59 -1.18,-3.29 -2.35,-6.6 -2.96,-10.05 2.25,3.21 3.38,7.28 6.45,9.86 4.87,1.59 10.19,2.18 15.29,1.4 2.09,-0.31 4.19,-0.6 6.27,-1.01 -6.29,4.13 -14.11,2.38 -21.17,2.54 -12.56,-1.28 -25.66,-5.37 -34.62,-14.69 -0.8,-0.87 -1.61,-1.73 -2.43,-2.57 z"
       id="path18" /></g><g
     id="#000071ff"
     transform="translate(-30.658557,-5.1990771)"><path
       fill="#000071"
       opacity="1"
       d="m 90.16,63.02 c 1.61,-3.82 6.18,-4.31 9.68,-5.29 0.53,0.36 1.57,1.08 2.09,1.43 -1.39,0.47 -2.78,0.94 -4.15,1.47 -2.39,0.9 -4.42,2.5 -6.29,4.22 -0.83,2.37 -1.58,5.27 0.08,7.49 2.15,2.85 5.49,4.56 7.48,7.57 5.76,8.19 14.01,15.51 23.96,17.72 8.99,-1.64 17.41,-6.63 23.13,-13.8 -4.16,6.66 -11.11,11.27 -18.41,13.85 -8.52,2.45 -15.96,-4.12 -22.09,-9.1 -6.28,3.96 -12.96,7.48 -18.41,12.61 -5.44,5.04 -10.08,10.87 -14.38,16.89 2.61,-8.13 9.47,-13.55 14.01,-20.49 -7.87,3.8 -12.18,11.76 -17.44,18.31 -1.01,-2.05 -2.01,-4.09 -3.04,-6.13 0.33,2.95 1.01,5.91 0.76,8.9 -0.49,2.9 -2.2,5.39 -3.5,7.98 -3.07,5.51 -5.01,11.54 -7.2,17.43 -4.44,-2.1 -8.76,-5.28 -10.19,-10.23 -3.7,-9.8 2.22,-20.62 10.43,-26.07 5,-3.56 11.33,-3.86 16.84,-6.21 3.99,-1.72 6.35,-5.62 7.76,-9.55 1.05,-2.64 2,-5.34 2.8,-8.08 1.93,-6.99 2.99,-14.29 6.08,-20.92 z"
       id="path19" /></g><g
     id="#f90000ff"
     transform="translate(-30.658557,-5.1990771)"><path
       fill="#f90000"
       opacity="1"
       d="m 126.04,82.17 c 3.58,0.23 8.97,0.52 9.78,4.9 -2.85,2.96 -6.84,4.81 -10.82,5.69 -4.61,-1.03 -9.53,-3.13 -12.66,-6.75 2.21,-3.81 7.47,-3.41 11.29,-3.78 -0.02,2.34 -0.05,4.68 0.01,7.02 0.77,-2.37 1.52,-4.75 2.4,-7.08 z"
       id="path20" /></g><g
     id="#000016ff"
     transform="translate(-30.658557,-5.1990771)"><path
       fill="#000016"
       opacity="1"
       d="m 70.48,101.55 c 4.93,-1.32 7.47,-6.1 10.8,-9.53 -1.41,3.93 -3.77,7.83 -7.76,9.55 -5.51,2.35 -11.84,2.65 -16.84,6.21 -8.21,5.45 -14.13,16.27 -10.43,26.07 1.43,4.95 5.75,8.13 10.19,10.23 2.19,-5.89 4.13,-11.92 7.2,-17.43 1.3,-2.59 3.01,-5.08 3.5,-7.98 0.25,-2.99 -0.43,-5.95 -0.76,-8.9 1.03,2.04 2.03,4.08 3.04,6.13 5.26,-6.55 9.57,-14.51 17.44,-18.31 -4.54,6.94 -11.4,12.36 -14.01,20.49 -8.56,13.62 -14.37,29.18 -15.76,45.25 2.47,0.15 5.03,0.03 7.36,1.04 6.1,2.47 12.05,5.72 16.65,10.52 11.48,11.13 17.44,26.75 19.99,42.26 -0.13,4.62 -2.91,8.64 -4.49,12.88 -4.21,8.17 -15.47,10.54 -23.44,6.88 -4.02,-1.54 -7.6,-4.37 -11.99,-4.81 -0.16,-0.02 -0.48,-0.08 -0.64,-0.1 -2.77,-3.75 -6.73,-6.29 -10.13,-9.4 -7.18,-6.38 -12.99,-14.28 -16.99,-23.02 -1.27,-2.99 -3.47,-6.07 -2.52,-9.47 1.45,-7.24 3.3,-14.43 6.01,-21.3 3.72,-2.82 8.51,-3.85 13.04,-4.59 1.56,-0.19 3.12,-0.36 4.68,-0.53 -0.02,-2.96 -0.05,-5.93 0.1,-8.89 0.29,-2.52 1.07,-4.99 1.07,-7.54 -1.92,-2.39 -5.32,-3.25 -7.2,-5.79 -3.51,-4.6 -4.6,-10.68 -4.24,-16.35 0.56,-5.53 3.6,-10.49 7.23,-14.56 4.87,-5.33 12.08,-7.47 18.9,-9.01 m -29.41,66.48 c -3.39,1.02 -4.07,4.95 -5.33,7.79 -1.7,5.56 -3.85,11.29 -3.27,17.2 2.63,9.13 8.16,17.11 14.14,24.38 1.24,1.41 2.6,2.75 4.24,3.68 7.54,8.08 17.68,13.45 28.32,16.18 10.57,1.07 20.46,-8.8 20.3,-19.24 -0.82,-5.72 -2.71,-11.22 -4.37,-16.74 -2.61,-6.23 -5.44,-12.44 -9.41,-17.95 -6.12,-8.45 -14.57,-15.86 -25.01,-18.14 -6.65,-1.87 -13.4,0.55 -19.61,2.84 z"
       id="path21" /><path
       fill="#000016"
       opacity="1"
       d="m 78.14,240.3 c 7.69,1.78 15.35,-0.56 22.85,-1.97 6.35,1.23 12.35,3.94 18.79,4.87 8.62,2.38 17.58,1.53 26.41,1.75 4.53,0.05 9.06,0.33 13.55,0.91 0.29,0.09 0.86,0.28 1.14,0.38 0.82,0.84 1.63,1.7 2.43,2.57 -5.2,-0.53 -9.97,-3.32 -15.27,-3.16 -10.41,-0.08 -20.96,0.68 -31.21,-1.66 -5.46,-0.91 -10.55,-3.13 -15.87,-4.53 -4.07,-0.03 -7.85,2.03 -11.94,2.04 -6.01,0.14 -12.64,0.44 -17.81,-3.17 2.31,0.65 4.61,1.33 6.93,1.97 z"
       id="path22" /></g><g
     id="#00004dff"
     transform="translate(-30.658557,-5.1990771)"><path
       fill="#00004d"
       opacity="1"
       d="m 202.87,104.08 c 3.4,3.13 5.53,7.28 8.09,11.07 5.89,8.8 10,18.69 12.84,28.87 -0.34,0.55 -1.01,1.67 -1.35,2.22 -3.6,6.2 -7.87,11.99 -11.1,18.4 -2.6,3.14 -6.28,5.1 -9.86,6.91 -10.66,4.76 -22.75,7.07 -34.35,5.08 4.02,-2.32 8.91,-3.81 11.57,-7.88 2.7,-3.96 5.22,-8.06 8.24,-11.8 6.68,-8.4 12.62,-17.36 19.07,-25.94 1.82,-2.65 4.09,-5.49 3.8,-8.9 -0.59,-6.51 -3.49,-12.58 -6.95,-18.03 z"
       id="path23" /></g><g
     id="#000078ff"
     transform="translate(-30.658557,-5.1990771)"><path
       fill="#000078"
       opacity="1"
       d="m 142.43,128.16 c 4.22,-1.53 8.8,-0.26 12.46,2.05 0.12,3.16 0.44,6.3 0.86,9.43 2.78,-0.74 5.57,-1.45 8.38,-2.05 -5,9.47 -12.22,17.5 -18.31,26.24 -1.73,2.62 -2.77,5.6 -3.84,8.53 -2.35,-1.67 -4.84,-3.31 -6.43,-5.78 -1.5,-2.26 -3,-4.62 -5.39,-6.03 -2.97,-8.3 -1.73,-17.89 3.14,-25.22 2.15,-3.29 5.24,-6.18 9.13,-7.17 z"
       id="path24" /></g><g
     id="#000038ff"
     transform="translate(-30.658557,-5.1990771)"><path
       fill="#000038"
       opacity="1"
       d="m 211.35,164.64 c 3.23,-6.41 7.5,-12.2 11.1,-18.4 -0.55,3.93 -2.54,7.67 -2.05,11.72 0.28,4.4 2.04,8.57 2.16,12.99 0.14,3.78 0.07,7.56 -0.15,11.34 -2.09,-3.69 -4.5,-7.18 -6.54,-10.9 -1.27,-2.11 -1.91,-4.5 -2.42,-6.88 -0.53,0.03 -1.58,0.1 -2.1,0.13 z"
       id="path25" /></g><g
     id="#07070392"
     transform="translate(-30.658557,-5.1990771)"><path
       fill="#070703"
       opacity="0.57"
       d="m 52.75,162.48 c 0.47,-2.6 0.97,-5.22 1.97,-7.68 -0.15,2.96 -0.12,5.93 -0.1,8.89 -1.56,0.17 -3.12,0.34 -4.68,0.53 0.93,-0.59 1.87,-1.17 2.81,-1.74 z"
       id="path26" /></g><g
     id="#ebd100ff"
     transform="translate(-30.658557,-5.1990771)"><path
       fill="#ebd100"
       opacity="1"
       d="m 41.07,168.03 c 6.21,-2.29 12.96,-4.71 19.61,-2.84 10.44,2.28 18.89,9.69 25.01,18.14 3.97,5.51 6.8,11.72 9.41,17.95 -5.05,6.18 -12.4,9.87 -19.4,13.4 -5.32,3.23 -9.85,8 -15.95,9.81 -3.22,-0.06 -6.06,-2.08 -8.9,-3.41 -1.64,-0.93 -3,-2.27 -4.24,-3.68 -5.98,-7.27 -11.51,-15.25 -14.14,-24.38 -0.58,-5.91 1.57,-11.64 3.27,-17.2 1.26,-2.84 1.94,-6.77 5.33,-7.79 m 3.3,0.56 c -0.02,0.23 -0.08,0.69 -0.11,0.92 5.68,0.4 11.42,1.12 16.72,3.3 8.4,3.25 15.31,9.39 20.94,16.29 2.38,3.03 4.06,6.63 6.96,9.25 -1.47,-5.05 -4.85,-9.2 -8.12,-13.19 C 71.88,174.62 58.26,168 44.37,168.59 Z"
       id="path27" /></g><g
     id="#060606ff"
     transform="translate(-30.658557,-5.1990771)"><path
       fill="#060606"
       opacity="1"
       d="m 99.08,192.02 c 3.65,9.18 9.5,17.77 18.08,22.94 3.67,1.52 7.61,2.61 10.74,5.2 2.58,2.2 5.83,4.46 6.12,8.14 -4.05,-3.47 -7.34,-8.1 -12.54,-10 -11.48,-4.06 -18.7,-15.2 -22.4,-26.28 z"
       id="path28" /><path
       fill="#060606"
       opacity="1"
       d="m 141.71,238.94 c 5.96,2.44 11.52,6.02 18.03,6.92 -4.49,-0.58 -9.02,-0.86 -13.55,-0.91 0.26,-0.43 0.78,-1.29 1.04,-1.72 -0.35,0 -1.04,-0.01 -1.38,-0.01 -1.44,-1.38 -2.83,-2.79 -4.14,-4.28 z"
       id="path30" /></g><g
     id="#e7c500ff"
     transform="translate(-30.658557,-5.1990771)"><path
       fill="#e7c500"
       opacity="1"
       d="m 95.1,201.28 c 1.66,5.52 3.55,11.02 4.37,16.74 0.16,10.44 -9.73,20.31 -20.3,19.24 -10.64,-2.73 -20.78,-8.1 -28.32,-16.18 2.84,1.33 5.68,3.35 8.9,3.41 6.1,-1.81 10.63,-6.58 15.95,-9.81 7,-3.53 14.35,-7.22 19.4,-13.4 z"
       id="path31" /></g><g
     id="#d79d00ff"
     transform="translate(-30.658557,-5.1990771)"><path
       fill="#d79d00"
       opacity="1"
       d="m 218.87,219.27 c 5.91,3.16 12.33,7.08 14.59,13.79 0.6,3.98 -1.14,7.8 -2.3,11.52 -5.9,-1.53 -11.1,-4.72 -16.48,-7.45 4.05,4.75 9.97,7.04 15.69,9.08 -2.46,4.93 -6.2,9.03 -10.35,12.6 -3.35,-1.77 -6.9,-3.46 -9.48,-6.33 -2.11,-2.38 -3.67,-5.18 -5.62,-7.68 1.27,6.99 7.19,11.24 12.58,15.09 -1.56,0.71 -3.1,1.43 -4.67,2.08 -5.1,0.78 -10.42,0.19 -15.29,-1.4 -3.07,-2.58 -4.2,-6.65 -6.45,-9.86 0.61,3.45 1.78,6.76 2.96,10.05 -9.84,-1.2 -19.7,-4.34 -27.54,-10.59 12.97,0.4 26.67,-0.86 37.81,-8.14 4,-2.77 7.78,-6.06 10.43,-10.19 2.41,-3.78 3.17,-8.27 4.12,-12.57 z"
       id="path32" /></g><g
     id="#848490f9"
     transform="translate(-30.658557,-5.1990771)"><path
       fill="#848490"
       opacity="0.98"
       d="m 97.82,237.85 c 4.79,-1.64 9.35,1.52 13.95,2.49 11.1,2.57 22.71,5.91 34.08,2.88 0.34,0 1.03,0.01 1.38,0.01 -0.26,0.43 -0.78,1.29 -1.04,1.72 -8.83,-0.22 -17.79,0.63 -26.41,-1.75 -6.44,-0.93 -12.44,-3.64 -18.79,-4.87 -7.5,1.41 -15.16,3.75 -22.85,1.97 6.63,0.02 13.3,-0.5 19.68,-2.45 z"
       id="path33" /></g><g
     style="fill:none"
     id="g33"
     transform="matrix(0.20275805,0,0,0.20275805,79.675943,195.24022)"><path
       d="M 12,1 C 5.92487,1 1,5.92487 1,12 1,18.0751 5.92487,23 12,23 18.0751,23 23,18.0751 23,12 23,5.92487 18.0751,1 12,1 Z"
       fill="#000000"
       id="path1-3" /></g></svg>
