<?xml version="1.0" encoding="UTF-8" standalone="no"?>
<svg
   width="147.74512pt"
   height="199.47667pt"
   viewBox="0 0 147.74512 199.47667"
   version="1.1"
   id="svg14"
   sodipodi:docname="clipboardo.svg"
   inkscape:version="1.4.2 (ebf0e940d0, 2025-05-08)"
   xmlns:inkscape="http://www.inkscape.org/namespaces/inkscape"
   xmlns:sodipodi="http://sodipodi.sourceforge.net/DTD/sodipodi-0.dtd"
   xmlns="http://www.w3.org/2000/svg"
   xmlns:svg="http://www.w3.org/2000/svg">
  <defs
     id="defs14" />
  <sodipodi:namedview
     id="namedview14"
     pagecolor="#505050"
     bordercolor="#ffffff"
     borderopacity="1"
     inkscape:showpageshadow="0"
     inkscape:pageopacity="0"
     inkscape:pagecheckerboard="1"
     inkscape:deskcolor="#505050"
     inkscape:document-units="pt"
     inkscape:zoom="3.25125"
     inkscape:cx="98.423683"
     inkscape:cy="133.02576"
     inkscape:window-width="1920"
     inkscape:window-height="1052"
     inkscape:window-x="0"
     inkscape:window-y="0"
     inkscape:window-maximized="1"
     inkscape:current-layer="svg14" />
  <g
     id="#000000ff"
     transform="translate(-26.09,-0.24896199)">
    <path
       fill="#000000"
       opacity="1"
       d="m 90.55,1.58 c 9.29,-2.95 19.98,-0.93 27.44,5.4 6.3,4.75 10.04,12.29 11.06,20.02 0.87,7 -1.33,14.08 -5.03,19.98 -3.01,4.44 -7.4,7.74 -12.01,10.37 -0.64,10.65 -1.93,21.24 -2.45,31.9 4.89,0.06 9.75,0.48 14.53,1.54 6.03,0.2 11.65,2.45 17.46,3.73 3.58,2.04 7.57,3.03 11.35,4.56 2.95,2.21 6.26,3.79 9.44,5.6 2.05,2.89 4.56,5.32 7.26,7.6 1.39,2.78 1.78,6.02 3.46,8.72 1.61,2.37 0.35,5.13 -0.53,7.51 -1.27,3.18 -1.66,6.69 -3.32,9.71 -1.39,2.64 -5.37,2.66 -6.32,5.64 -2.96,7.16 -5.21,14.58 -8.25,21.71 -2.66,6.15 -4.15,13.14 -9.01,18.05 -8.7,9.25 -21.39,13.3 -33.6,15.31 -17.27,2.15 -35.78,0.21 -50.82,-9.12 -4.86,-3.39 -9.54,-7.58 -11.79,-13.21 -4.3,-10.56 -8,-21.35 -12.09,-31.98 -0.99,-3.18 -5.14,-3.52 -6.37,-6.56 -2.17,-4.81 -3.37,-10.03 -4.87,-15.07 1.56,-3.59 2.92,-7.23 3.92,-11.01 3.98,-3.09 6.35,-8.11 11.49,-9.58 3.57,-2.38 7.29,-4.41 11.5,-5.44 5.1,-3.49 11.33,-3.98 17.12,-5.62 C 76.51,90.96 82.7,88.91 89.15,89.37 88.67,78.66 87.49,68.01 86.61,57.33 80.62,53.87 75.08,49.17 72.35,42.65 66.99,31.74 69.54,17.68 78.16,9.17 81.73,5.85 85.87,3.04 90.55,1.58 m 4.77,0.81 C 89,3.56 83.26,7.21 79.15,12.11 c -7.2,8.53 -8.07,21.57 -2.32,31.1 5.02,8.16 14.59,13.4 24.2,12.86 8.61,-0.47 16.85,-5.27 21.59,-12.46 7.14,-10.63 5.5,-26.5 -4.47,-34.82 -6.05,-5.64 -14.73,-7.9 -22.83,-6.4 m -5.35,56.24 c 1,16.91 2.47,33.8 3.77,50.68 2.41,3.22 8.18,3.22 10.84,0.31 1.75,-10.48 1.76,-21.16 2.92,-31.71 0.71,-6.42 0.98,-12.86 1.46,-19.29 -6.23,1.52 -12.77,1.62 -18.99,0.01 M 70.42,92.65 c -5.66,1.94 -11.66,2.7 -16.94,5.65 -5.35,1.02 -9.1,5.17 -14.07,7.09 -2.21,2.79 -4.56,5.42 -7.51,7.5 -0.26,3.37 -1.35,6.43 -3.3,9.21 1.4,3.62 2.93,7.19 3.16,11.13 0.83,1.77 1.59,3.61 2.8,5.17 1.82,0.44 3.71,0.49 5.57,0.65 0.15,1.12 0.3,2.25 0.46,3.37 0.81,2.28 1.21,5.3 3.8,6.26 3.59,1.12 7.57,0.25 11.07,1.73 2.33,2.35 3.33,6.36 6.95,7.13 4.46,1.05 8.95,-1.44 13.42,-0.47 3.99,1.28 6.77,5.26 11.15,5.5 4.59,0.23 8.49,-2.92 13.02,-3.13 4.87,-0.22 9,3.41 13.88,3.17 4.4,-0.37 7.18,-4.45 11.26,-5.65 4.45,-0.94 8.88,1.53 13.3,0.49 3.56,-0.88 4.45,-4.95 6.84,-7.25 3.57,-1.35 7.62,-0.33 11.18,-1.72 2.46,-1.44 2.64,-4.66 3.67,-7.06 0.03,-0.57 0.08,-1.69 0.11,-2.25 3.31,-0.57 7.41,-1.32 7.69,-5.46 l 0.65,-0.14 c 0.13,-4.02 2.01,-7.62 2.87,-11.47 -0.59,-1.77 -2.05,-3.04 -3.17,-4.48 -0.1,-1.86 0.82,-4.44 -1.3,-5.5 -2.77,-1.58 -4.63,-4.09 -6.52,-6.56 -5.15,-2.12 -9.17,-6.28 -14.75,-7.39 -5.03,-2.95 -10.88,-3.47 -16.3,-5.38 -6.65,-1.19 -13.36,-2.46 -20.14,-2.02 -0.19,4 -0.45,8 -0.58,12 2.93,1.42 6.61,2.4 8.18,5.55 1.23,2.84 -0.95,5.89 -3.53,7.01 -8.69,4 -19.15,4.07 -27.9,0.22 -2.55,-1.19 -5.41,-4.03 -4.05,-7.07 1.55,-3.74 6.34,-3.94 8.75,-6.6 0.21,-3.76 -0.38,-7.51 -0.84,-11.23 -6.36,-0.22 -12.63,1.03 -18.88,2 m -27.98,59.07 c 2.46,7.35 5.57,14.47 8.06,21.81 3.74,10.43 13.91,16.89 24.07,20.02 18.32,5.9 38.86,5.25 56.56,-2.45 8.12,-3.58 15.59,-9.87 18.48,-18.5 2.39,-6.97 5.39,-13.73 7.68,-20.75 -3.21,0.25 -6.49,0.12 -9.65,0.87 -2.73,1.86 -3.79,5.61 -7.01,6.85 -4.7,1.77 -9.69,-0.54 -14.47,0.29 -3.82,1.62 -6.88,4.99 -11.16,5.47 -4.92,0.56 -9.22,-2.56 -14,-2.96 -5.11,0.44 -9.72,3.82 -15,3.01 -4.44,-0.18 -7.16,-4.25 -11.04,-5.69 -4.87,-0.33 -9.84,1.89 -14.6,0.07 -3.46,-0.99 -4.87,-4.63 -7.33,-6.89 -3.43,-0.98 -7.07,-0.75 -10.59,-1.15 z"
       id="path1" />
  </g>
  <g
     id="#cb2027ff"
     transform="translate(-26.09,-0.24896199)">
    <path
       fill="#cb2027"
       opacity="1"
       d="m 95.32,2.39 c 8.1,-1.5 16.78,0.76 22.83,6.4 9.97,8.32 11.61,24.19 4.47,34.82 C 117.88,50.8 109.64,55.6 101.03,56.07 91.42,56.61 81.85,51.37 76.83,43.21 71.08,33.68 71.95,20.64 79.15,12.11 83.26,7.21 89,3.56 95.32,2.39 m 9.03,6.08 c -1.7,2.45 -0.02,5.56 1.67,7.53 3.38,3.74 7.64,7.93 13.14,7.31 1.28,-5.26 -1.58,-10.59 -5.63,-13.8 -2.63,-1.59 -6.49,-3.59 -9.18,-1.04 z"
       id="path2" />
    <path
       fill="#cb2027"
       opacity="1"
       d="m 70.42,92.65 c 6.25,-0.97 12.52,-2.22 18.88,-2 0.46,3.72 1.05,7.47 0.84,11.23 -2.41,2.66 -7.2,2.86 -8.75,6.6 -1.36,3.04 1.5,5.88 4.05,7.07 8.75,3.85 19.21,3.78 27.9,-0.22 2.58,-1.12 4.76,-4.17 3.53,-7.01 -1.57,-3.15 -5.25,-4.13 -8.18,-5.55 0.13,-4 0.39,-8 0.58,-12 6.78,-0.44 13.49,0.83 20.14,2.02 5.42,1.91 11.27,2.43 16.3,5.38 5.58,1.11 9.6,5.27 14.75,7.39 1.89,2.47 3.75,4.98 6.52,6.56 2.12,1.06 1.2,3.64 1.3,5.5 1.12,1.44 2.58,2.71 3.17,4.48 -0.86,3.85 -2.74,7.45 -2.87,11.47 l -0.65,0.14 c -2.5,0.54 -5,1.06 -7.49,1.63 -0.07,1.27 -0.14,2.55 -0.2,3.83 -0.03,0.56 -0.08,1.68 -0.11,2.25 -3.45,1.23 -7.05,1.85 -10.65,2.39 -4.35,0.39 -6.12,5.23 -9.89,6.75 -4.41,0.74 -8.87,-0.68 -13.3,-0.1 -4.47,0.91 -7.88,4.67 -12.47,5.12 -4.41,-0.15 -8.44,-2.39 -12.84,-2.66 -5.08,-0.17 -9.67,2.9 -14.74,2.71 -4.23,-0.81 -7.47,-4.13 -11.66,-5.06 -4.71,-0.66 -9.49,0.98 -14.16,-0.04 -2.74,-1.48 -4.29,-4.46 -7,-5.96 -4.14,-1.36 -8.55,-1.48 -12.83,-2.15 -0.16,-1.12 -0.31,-2.25 -0.46,-3.37 -0.17,-1.24 -0.33,-2.49 -0.5,-3.73 -2.63,-0.66 -5.28,-1.29 -7.87,-2.09 -0.23,-3.94 -1.76,-7.51 -3.16,-11.13 1.95,-2.78 3.04,-5.84 3.3,-9.21 2.95,-2.08 5.3,-4.71 7.51,-7.5 4.97,-1.92 8.72,-6.07 14.07,-7.09 5.28,-2.95 11.28,-3.71 16.94,-5.65 m 61.01,17.77 c -3.56,2.52 -2.09,7.34 -2.2,11 -6.3,-2.96 -14.42,-3.9 -20.28,0.52 -3.42,2.63 -2.51,7.35 -2.16,11.07 0.33,3.96 3.83,6.82 7.52,7.63 4.89,1.07 10.69,0.86 14.58,-2.7 3.05,-2.77 2.46,-7.26 2.97,-10.97 5.71,3.29 13.53,4.17 18.97,-0.13 3.44,-2.46 3.29,-7.11 3.43,-10.89 0.32,-3.84 -3.21,-6.7 -6.64,-7.49 -5.32,-1.36 -11.54,-1.27 -16.19,1.96 z"
       id="path3" />
  </g>
  <g
     id="#ffffffff"
     transform="translate(-26.09,-0.24896199)">
    <path
       fill="#ffffff"
       opacity="1"
       d="m 104.35,8.47 c 2.69,-2.55 6.55,-0.55 9.18,1.04 4.05,3.21 6.91,8.54 5.63,13.8 -5.5,0.62 -9.76,-3.57 -13.14,-7.31 -1.69,-1.97 -3.37,-5.08 -1.67,-7.53 z"
       id="path4" />
    <path
       fill="#ffffff"
       opacity="1"
       d="m 89.97,58.63 c 6.22,1.61 12.76,1.51 18.99,-0.01 -0.48,6.43 -0.75,12.87 -1.46,19.29 -1.16,10.55 -1.17,21.23 -2.92,31.71 -2.66,2.91 -8.43,2.91 -10.84,-0.31 -1.3,-16.88 -2.77,-33.77 -3.77,-50.68 z"
       id="path5" />
  </g>
  <g
     id="#010100ff"
     transform="translate(-26.09,-0.24896199)">
    <path
       fill="#010100"
       opacity="1"
       d="m 131.43,110.42 c 4.65,-3.23 10.87,-3.32 16.19,-1.96 3.43,0.79 6.96,3.65 6.64,7.49 -0.14,3.78 0.01,8.43 -3.43,10.89 -5.44,4.3 -13.26,3.42 -18.97,0.13 -0.51,3.71 0.08,8.2 -2.97,10.97 -3.89,3.56 -9.69,3.77 -14.58,2.7 -3.69,-0.81 -7.19,-3.67 -7.52,-7.63 -0.35,-3.72 -1.26,-8.44 2.16,-11.07 5.86,-4.42 13.98,-3.48 20.28,-0.52 0.11,-3.66 -1.36,-8.48 2.2,-11 m 4.95,-0.04 c -2.6,0.81 -6.03,2.96 -4.97,6.17 2.17,3.54 6.69,4.46 10.56,4.33 3.59,-0.03 7.81,-0.92 9.71,-4.31 1.1,-2.03 -0.72,-3.91 -2.31,-4.96 -3.86,-2.31 -8.75,-2.47 -12.99,-1.23 m -20.96,11.23 c -3.27,0.53 -8.33,2.95 -6.3,7.03 3.68,4.28 10.29,4.54 15.37,3.03 2.63,-0.8 6.26,-3.28 4.65,-6.45 -3.26,-3.83 -9.02,-4.65 -13.72,-3.61 m 15.87,-0.57 c 1.82,6.71 10.56,7.63 16.06,5.3 2.43,-0.71 3.51,-3.06 4.39,-5.21 -3.52,0.96 -7.04,2.36 -10.75,2.22 -3.36,-0.14 -6.5,-1.43 -9.7,-2.31 m -22.7,11.16 c 0.68,2.18 1.7,4.43 3.98,5.33 5.73,2.85 15.17,1.91 16.93,-5.37 -6.54,3.37 -14.35,3.32 -20.91,0.04 z"
       id="path6" />
  </g>
  <g
     id="#669a40ff"
     transform="translate(-26.09,-0.24896199)">
    <path
       fill="#669a40"
       opacity="1"
       d="m 136.38,110.38 c 4.24,-1.24 9.13,-1.08 12.99,1.23 1.59,1.05 3.41,2.93 2.31,4.96 -1.9,3.39 -6.12,4.28 -9.71,4.31 -3.87,0.13 -8.39,-0.79 -10.56,-4.33 -1.06,-3.21 2.37,-5.36 4.97,-6.17 z"
       id="path7" />
  </g>
  <g
     id="#ffcd05ff"
     transform="translate(-26.09,-0.24896199)">
    <path
       fill="#ffcd05"
       opacity="1"
       d="m 115.42,121.61 c 4.7,-1.04 10.46,-0.22 13.72,3.61 1.61,3.17 -2.02,5.65 -4.65,6.45 -5.08,1.51 -11.69,1.25 -15.37,-3.03 -2.03,-4.08 3.03,-6.5 6.3,-7.03 z"
       id="path8" />
  </g>
  <g
     id="#669940ff"
     transform="translate(-26.09,-0.24896199)">
    <path
       fill="#669940"
       opacity="1"
       d="m 131.29,121.04 c 3.2,0.88 6.34,2.17 9.7,2.31 3.71,0.14 7.23,-1.26 10.75,-2.22 -0.88,2.15 -1.96,4.5 -4.39,5.21 -5.5,2.33 -14.24,1.41 -16.06,-5.3 z"
       id="path9" />
  </g>
  <g
     id="#fecc05ff"
     transform="translate(-26.09,-0.24896199)">
    <path
       fill="#fecc05"
       opacity="1"
       d="m 108.59,132.2 c 6.56,3.28 14.37,3.33 20.91,-0.04 -1.76,7.28 -11.2,8.22 -16.93,5.37 -2.28,-0.9 -3.3,-3.15 -3.98,-5.33 z"
       id="path10" />
  </g>
  <g
     id="#9a1a36ff"
     transform="translate(-26.09,-0.24896199)">
    <path
       fill="#9a1a36"
       opacity="1"
       d="m 31.76,133.23 c 2.59,0.8 5.24,1.43 7.87,2.09 0.17,1.24 0.33,2.49 0.5,3.73 -1.86,-0.16 -3.75,-0.21 -5.57,-0.65 -1.21,-1.56 -1.97,-3.4 -2.8,-5.17 z"
       id="path11" />
    <path
       fill="#9a1a36"
       opacity="1"
       d="m 160.44,135.34 c 2.49,-0.57 4.99,-1.09 7.49,-1.63 -0.28,4.14 -4.38,4.89 -7.69,5.46 0.06,-1.28 0.13,-2.56 0.2,-3.83 z"
       id="path12" />
  </g>
  <g
     id="#991a37ff"
     transform="translate(-26.09,-0.24896199)">
    <path
       fill="#991a37"
       opacity="1"
       d="m 149.48,143.81 c 3.6,-0.54 7.2,-1.16 10.65,-2.39 -1.03,2.4 -1.21,5.62 -3.67,7.06 -3.56,1.39 -7.61,0.37 -11.18,1.72 -2.39,2.3 -3.28,6.37 -6.84,7.25 -4.42,1.04 -8.85,-1.43 -13.3,-0.49 -4.08,1.2 -6.86,5.28 -11.26,5.65 -4.88,0.24 -9.01,-3.39 -13.88,-3.17 -4.53,0.21 -8.43,3.36 -13.02,3.13 -4.38,-0.24 -7.16,-4.22 -11.15,-5.5 -4.47,-0.97 -8.96,1.52 -13.42,0.47 -3.62,-0.77 -4.62,-4.78 -6.95,-7.13 -3.5,-1.48 -7.48,-0.61 -11.07,-1.73 -2.59,-0.96 -2.99,-3.98 -3.8,-6.26 4.28,0.67 8.69,0.79 12.83,2.15 2.71,1.5 4.26,4.48 7,5.96 4.67,1.02 9.45,-0.62 14.16,0.04 4.19,0.93 7.43,4.25 11.66,5.06 5.07,0.19 9.66,-2.88 14.74,-2.71 4.4,0.27 8.43,2.51 12.84,2.66 4.59,-0.45 8,-4.21 12.47,-5.12 4.43,-0.58 8.89,0.84 13.3,0.1 3.77,-1.52 5.54,-6.36 9.89,-6.75 z"
       id="path13" />
    <path
       fill="#991a37"
       opacity="1"
       d="m 42.44,151.72 c 3.52,0.4 7.16,0.17 10.59,1.15 2.46,2.26 3.87,5.9 7.33,6.89 4.76,1.82 9.73,-0.4 14.6,-0.07 3.88,1.44 6.6,5.51 11.04,5.69 5.28,0.81 9.89,-2.57 15,-3.01 4.78,0.4 9.08,3.52 14,2.96 4.28,-0.48 7.34,-3.85 11.16,-5.47 4.78,-0.83 9.77,1.48 14.47,-0.29 3.22,-1.24 4.28,-4.99 7.01,-6.85 3.16,-0.75 6.44,-0.62 9.65,-0.87 -2.29,7.02 -5.29,13.78 -7.68,20.75 -2.89,8.63 -10.36,14.92 -18.48,18.5 -17.7,7.7 -38.24,8.35 -56.56,2.45 -10.16,-3.13 -20.33,-9.59 -24.07,-20.02 -2.49,-7.34 -5.6,-14.46 -8.06,-21.81 z"
       id="path14" />
  </g>
</svg>
