<?xml version="1.0" encoding="UTF-8" ?>
<!DOCTYPE svg PUBLIC "-//W3C//DTD SVG 1.1//EN" "http://www.w3.org/Graphics/SVG/1.1/DTD/svg11.dtd">
<svg width="256pt" height="256pt" viewBox="0 0 256 256" version="1.1" xmlns="http://www.w3.org/2000/svg">
<g id="#ffffffff">
<path fill="#ffffff" opacity="1.00" d=" M 88.08 79.96 C 101.38 79.97 114.69 79.98 127.99 79.95 C 128.00 82.68 127.99 85.40 127.95 88.12 C 119.96 88.15 111.98 88.13 103.99 88.13 C 103.97 90.71 103.97 93.29 103.98 95.87 C 103.98 98.57 104.00 101.27 104.00 103.97 C 98.69 103.99 93.39 103.97 88.08 103.97 C 88.18 95.97 88.18 87.96 88.08 79.96 Z" />
<path fill="#ffffff" opacity="1.00" d=" M 112.14 95.81 C 125.40 95.83 138.67 95.81 151.93 95.83 C 152.07 103.83 152.01 111.83 151.98 119.83 C 138.69 119.82 125.40 119.83 112.10 119.82 C 112.20 111.82 112.16 103.82 112.14 95.81 Z" />
</g>
<g id="#808080ff">
<path fill="#808080" opacity="1.00" d=" M 56.04 0.00 L 223.81 0.00 C 223.82 2.72 223.83 5.45 223.83 8.17 C 223.85 56.09 223.72 104.00 223.89 151.91 C 226.59 151.97 229.28 152.02 231.98 152.03 C 237.25 152.02 242.53 151.99 247.80 152.06 C 247.82 154.76 247.84 157.47 247.85 160.18 C 247.76 181.33 247.89 202.48 247.79 223.63 C 245.29 223.80 242.81 223.99 240.32 224.19 C 240.17 226.74 240.02 229.29 239.85 231.85 C 237.27 231.94 234.69 232.02 232.11 232.11 C 232.02 234.70 231.94 237.28 231.85 239.86 C 229.28 240.03 226.72 240.17 224.16 240.32 C 223.97 242.81 223.81 245.30 223.65 247.79 C 151.82 247.89 79.99 247.78 8.17 247.85 C 5.45 247.84 2.72 247.83 0.00 247.82 L 0.00 183.92 C 2.71 183.98 5.42 184.02 8.13 184.08 C 8.27 202.72 8.09 221.38 8.21 240.03 C 10.78 240.08 13.35 240.12 15.91 240.13 C 70.94 239.98 125.97 240.11 181.00 240.06 C 192.63 239.96 204.26 240.27 215.89 239.90 C 216.28 223.92 215.89 207.93 216.09 191.95 C 216.09 189.32 216.05 186.70 216.00 184.07 C 146.73 183.72 77.45 184.16 8.17 183.86 C 8.17 181.27 8.16 178.69 8.14 176.11 C 13.43 176.02 18.73 176.02 24.02 176.04 C 85.30 176.01 146.58 176.11 207.87 175.99 C 207.95 173.33 208.01 170.67 208.10 168.01 C 210.67 167.91 213.24 167.85 215.82 167.77 C 215.99 165.30 216.16 162.83 216.32 160.36 C 218.82 160.18 221.33 160.00 223.83 159.77 C 223.81 157.22 223.81 154.66 223.82 152.11 C 221.29 152.06 218.77 152.03 216.25 151.98 C 216.13 154.67 216.04 157.35 215.89 160.04 C 213.31 160.13 210.74 160.19 208.16 160.27 C 208.03 162.80 207.91 165.33 207.78 167.87 C 146.53 167.88 85.28 167.82 24.04 167.90 C 24.05 122.65 23.95 77.40 24.08 32.16 C 26.76 32.18 29.45 32.20 32.13 32.21 C 32.30 74.82 32.08 117.43 32.23 160.04 C 34.80 160.11 37.36 160.15 39.92 160.15 C 93.25 159.87 146.59 160.33 199.92 159.91 C 200.21 117.30 200.02 74.67 200.01 32.05 C 200.02 29.41 200.04 26.77 200.07 24.13 C 202.66 24.04 205.26 23.98 207.86 23.90 C 207.94 21.28 208.01 18.66 208.11 16.04 C 210.76 15.91 213.41 15.82 216.06 15.70 C 216.06 13.21 216.07 10.72 216.06 8.24 C 213.42 8.19 210.78 8.15 208.14 8.12 C 163.43 8.04 118.72 8.11 74.00 8.08 C 68.14 8.01 62.27 8.03 56.40 8.23 C 56.13 10.69 55.87 13.16 55.60 15.62 C 53.15 15.88 50.71 16.13 48.27 16.39 C 48.16 18.94 48.05 21.48 47.94 24.02 C 45.31 24.01 42.68 24.00 40.05 23.97 C 40.06 21.37 40.06 18.77 40.06 16.18 C 42.68 16.08 45.30 16.02 47.92 15.93 C 48.00 13.37 48.07 10.81 48.15 8.25 C 50.75 8.18 53.35 8.12 55.95 8.03 C 55.99 5.35 56.01 2.68 56.04 0.00 M 231.99 160.03 C 231.95 162.57 231.79 165.16 232.36 167.66 C 234.89 168.12 237.48 168.03 240.04 168.03 C 240.02 165.38 239.99 162.73 239.97 160.08 C 237.31 160.08 234.65 160.06 231.99 160.03 M 224.01 168.06 C 223.99 170.71 223.96 173.36 223.94 176.02 C 226.62 176.02 229.30 176.02 231.99 176.04 C 231.98 173.34 231.97 170.65 231.98 167.95 C 229.32 168.00 226.67 168.04 224.01 168.06 M 215.95 175.97 C 216.03 178.59 216.09 181.21 216.14 183.84 C 218.76 183.88 221.37 183.92 223.99 183.96 C 223.91 181.36 223.85 178.77 223.82 176.17 C 221.19 176.10 218.57 176.03 215.95 175.97 Z" />
<path fill="#808080" opacity="1.00" d=" M 48.07 40.07 C 93.35 39.80 138.65 40.01 183.94 39.94 C 183.94 42.63 183.93 45.33 183.92 48.03 C 181.36 48.04 178.79 48.06 176.23 48.06 C 133.51 47.99 90.78 48.07 48.05 48.02 C 48.06 45.37 48.07 42.72 48.07 40.07 Z" />
<path fill="#808080" opacity="1.00" d=" M 103.98 95.87 C 106.70 95.83 109.42 95.81 112.14 95.81 C 112.16 103.82 112.20 111.82 112.10 119.82 C 109.38 119.83 106.66 119.84 103.94 119.87 C 103.90 117.32 103.83 114.77 103.88 112.21 C 103.93 109.46 103.99 106.72 104.00 103.97 C 104.00 101.27 103.98 98.57 103.98 95.87 Z" />
<path fill="#808080" opacity="1.00" d=" M 120.01 200.13 C 146.68 199.99 173.34 200.05 200.01 200.10 C 200.02 202.72 200.05 205.34 200.10 207.95 C 173.35 207.98 146.60 207.93 119.84 207.98 C 119.92 205.36 119.97 202.74 120.01 200.13 Z" />
</g>
<g id="#c0c0c0ff">
<path fill="#c0c0c0" opacity="1.00" d=" M 56.40 8.23 C 62.27 8.03 68.14 8.01 74.00 8.08 C 118.72 8.11 163.43 8.04 208.14 8.12 C 208.00 10.60 207.86 13.09 207.72 15.57 C 205.27 15.82 202.82 16.07 200.38 16.32 C 200.13 18.83 199.89 21.33 199.65 23.84 C 190.77 24.29 181.88 23.95 173.00 24.03 C 131.31 24.03 89.62 24.06 47.94 24.02 C 48.05 21.48 48.16 18.94 48.27 16.39 C 50.71 16.13 53.15 15.88 55.60 15.62 C 55.87 13.16 56.13 10.69 56.40 8.23 Z" />
<path fill="#c0c0c0" opacity="1.00" d=" M 40.20 32.22 C 46.80 31.90 53.40 32.02 60.00 32.09 C 106.67 32.04 153.34 32.13 200.01 32.05 C 200.02 74.67 200.21 117.30 199.92 159.91 C 146.59 160.33 93.25 159.87 39.92 160.15 C 39.98 124.10 39.91 88.05 39.95 52.00 C 39.88 45.41 39.80 38.80 40.20 32.22 M 48.07 40.07 C 48.07 42.72 48.06 45.37 48.05 48.02 C 48.01 77.39 48.03 106.76 48.04 136.13 C 48.04 138.71 48.05 141.29 48.06 143.87 C 48.05 146.56 48.03 149.25 48.00 151.94 C 95.98 152.06 143.96 152.10 191.94 151.92 C 191.97 114.63 192.03 77.32 191.92 40.03 C 189.26 39.99 186.60 39.96 183.94 39.94 C 138.65 40.01 93.35 39.80 48.07 40.07 Z" />
<path fill="#c0c0c0" opacity="1.00" d=" M 224.01 168.06 C 226.67 168.04 229.32 168.00 231.98 167.95 C 231.97 170.65 231.98 173.34 231.99 176.04 C 229.30 176.02 226.62 176.02 223.94 176.02 C 223.96 173.36 223.99 170.71 224.01 168.06 Z" />
<path fill="#c0c0c0" opacity="1.00" d=" M 16.08 192.11 C 39.71 191.74 63.36 192.22 87.00 191.99 C 130.03 192.04 173.06 191.98 216.09 191.95 C 215.89 207.93 216.28 223.92 215.89 239.90 C 204.26 240.27 192.63 239.96 181.00 240.06 C 125.97 240.11 70.94 239.98 15.91 240.13 C 16.03 224.12 15.66 208.11 16.08 192.11 M 120.01 200.13 C 119.97 202.74 119.92 205.36 119.84 207.98 C 119.83 210.61 119.84 213.25 119.85 215.89 C 135.86 216.45 151.91 216.00 167.94 216.13 C 167.96 218.73 168.01 221.33 168.06 223.93 C 170.70 223.94 173.34 223.96 175.98 224.00 C 176.01 221.37 176.03 218.75 176.05 216.13 C 184.04 216.12 192.03 216.21 200.01 216.07 C 200.07 213.37 200.10 210.66 200.10 207.95 C 200.05 205.34 200.02 202.72 200.01 200.10 C 173.34 200.05 146.68 199.99 120.01 200.13 M 32.19 208.14 C 31.94 210.68 31.76 213.23 31.61 215.79 L 32.55 215.82 C 32.24 218.43 32.21 221.07 32.21 223.70 C 37.49 223.83 42.78 223.84 48.06 223.66 C 48.06 221.07 48.06 218.49 48.11 215.91 C 48.15 213.32 48.12 210.73 48.05 208.15 C 42.78 207.71 37.46 207.67 32.19 208.14 Z" />
</g>
<g id="#010101ff">
<path fill="#010101" opacity="1.00" d=" M 223.83 8.17 C 226.55 8.18 229.27 8.17 231.99 8.17 C 231.98 56.12 231.99 104.07 231.98 152.03 C 229.28 152.02 226.59 151.97 223.89 151.91 C 223.72 104.00 223.85 56.09 223.83 8.17 Z" />
<path fill="#010101" opacity="1.00" d=" M 48.05 48.02 C 90.78 48.07 133.51 47.99 176.23 48.06 C 176.07 50.35 175.88 52.64 175.77 54.94 C 166.87 55.83 157.92 55.26 149.00 55.40 C 117.85 55.52 86.70 55.17 55.56 55.57 C 54.99 82.40 55.90 109.27 55.12 136.10 C 52.76 136.11 50.40 136.12 48.04 136.13 C 48.03 106.76 48.01 77.39 48.05 48.02 Z" />
<path fill="#010101" opacity="1.00" d=" M 151.95 88.20 C 154.68 88.24 157.41 88.25 160.15 88.25 C 160.23 101.41 160.58 114.60 159.97 127.75 C 141.34 127.76 122.72 127.78 104.10 127.74 C 103.84 125.12 103.81 122.49 103.94 119.87 C 106.66 119.84 109.38 119.83 112.10 119.82 C 125.40 119.83 138.69 119.82 151.98 119.83 C 152.01 111.83 152.07 103.83 151.93 95.83 C 151.90 93.28 151.92 90.74 151.95 88.20 Z" />
</g>
<g id="#818181ff">
<path fill="#818181" opacity="1.00" d=" M 32.13 24.02 C 34.72 24.04 37.31 24.06 39.90 24.07 C 39.87 26.76 39.85 29.45 39.86 32.14 C 37.37 32.05 34.69 32.68 32.33 31.71 C 32.08 29.15 32.16 26.58 32.13 24.02 Z" />
<path fill="#818181" opacity="1.00" d=" M 167.94 216.13 C 170.64 216.12 173.34 216.12 176.05 216.13 C 176.03 218.75 176.01 221.37 175.98 224.00 C 173.34 223.96 170.70 223.94 168.06 223.93 C 168.01 221.33 167.96 218.73 167.94 216.13 Z" />
</g>
<g id="#fefefdff">
<path fill="#fefefd" opacity="1.00" d=" M 183.94 39.94 C 186.60 39.96 189.26 39.99 191.92 40.03 C 192.03 77.32 191.97 114.63 191.94 151.92 C 143.96 152.10 95.98 152.06 48.00 151.94 C 48.03 149.25 48.05 146.56 48.06 143.87 C 93.34 143.83 138.62 143.84 183.90 143.86 C 183.94 111.92 183.90 79.98 183.92 48.03 C 183.93 45.33 183.94 42.63 183.94 39.94 Z" />
</g>
<g id="#010181ff">
<path fill="#010181" opacity="1.00" d=" M 176.23 48.06 C 178.79 48.06 181.36 48.04 183.92 48.03 C 183.90 79.98 183.94 111.92 183.90 143.86 C 138.62 143.84 93.34 143.83 48.06 143.87 C 48.05 141.29 48.04 138.71 48.04 136.13 C 50.40 136.12 52.76 136.11 55.12 136.10 C 55.56 136.10 56.44 136.10 56.88 136.10 C 90.59 136.11 124.29 136.09 158.00 136.10 C 163.97 136.18 169.94 136.17 175.90 135.80 C 176.31 114.21 175.65 92.60 176.00 71.00 C 176.11 66.26 175.78 61.52 175.73 56.78 C 175.74 56.32 175.76 55.40 175.77 54.94 C 175.88 52.64 176.07 50.35 176.23 48.06 Z" />
</g>
<g id="#040387ff">
<path fill="#040387" opacity="1.00" d=" M 55.56 55.57 C 86.70 55.17 117.85 55.52 149.00 55.40 C 157.92 55.26 166.87 55.83 175.77 54.94 C 175.76 55.40 175.74 56.32 175.73 56.78 C 140.49 56.27 105.24 56.76 70.00 56.54 C 65.60 56.49 61.19 56.59 56.80 56.80 C 56.26 74.52 56.73 92.27 56.58 110.00 C 56.64 118.70 56.32 127.41 56.88 136.10 C 56.44 136.10 55.56 136.10 55.12 136.10 C 55.90 109.27 54.99 82.40 55.56 55.57 Z" />
</g>
<g id="#0000feff">
<path fill="#0000fe" opacity="1.00" d=" M 56.80 56.80 C 61.19 56.59 65.60 56.49 70.00 56.54 C 105.24 56.76 140.49 56.27 175.73 56.78 C 175.78 61.52 176.11 66.26 176.00 71.00 C 175.65 92.60 176.31 114.21 175.90 135.80 C 169.94 136.17 163.97 136.18 158.00 136.10 C 124.29 136.09 90.59 136.11 56.88 136.10 C 56.32 127.41 56.64 118.70 56.58 110.00 C 56.73 92.27 56.26 74.52 56.80 56.80 M 64.20 64.11 C 63.62 69.35 64.04 74.60 64.24 79.85 C 66.79 79.84 69.35 79.85 71.91 79.85 C 72.25 74.56 72.22 69.25 71.90 63.96 C 69.33 63.91 66.76 63.99 64.20 64.11 M 79.94 72.25 C 79.83 74.80 79.77 77.36 79.75 79.92 C 79.77 87.96 79.79 96.01 79.74 104.05 C 79.75 106.63 79.82 109.22 79.96 111.81 C 87.90 112.66 95.91 112.13 103.88 112.21 C 103.83 114.77 103.90 117.32 103.94 119.87 C 103.81 122.49 103.84 125.12 104.10 127.74 C 122.72 127.78 141.34 127.76 159.97 127.75 C 160.58 114.60 160.23 101.41 160.15 88.25 C 157.41 88.25 154.68 88.24 151.95 88.20 C 146.68 88.10 141.42 87.88 136.16 87.94 C 136.30 82.71 136.43 77.46 135.95 72.23 C 130.31 71.54 124.65 72.30 119.00 72.19 C 105.98 72.21 92.96 72.09 79.94 72.25 Z" />
</g>
<g id="#01fefdff">
<path fill="#01fefd" opacity="1.00" d=" M 64.20 64.11 C 66.76 63.99 69.33 63.91 71.90 63.96 C 72.22 69.25 72.25 74.56 71.91 79.85 C 69.35 79.85 66.79 79.84 64.24 79.85 C 64.04 74.60 63.62 69.35 64.20 64.11 Z" />
</g>
<g id="#010003ff">
<path fill="#010003" opacity="1.00" d=" M 79.94 72.25 C 92.96 72.09 105.98 72.21 119.00 72.19 C 124.65 72.30 130.31 71.54 135.95 72.23 C 136.43 77.46 136.30 82.71 136.16 87.94 C 133.42 88.00 130.69 88.10 127.95 88.12 C 127.99 85.40 128.00 82.68 127.99 79.95 C 114.69 79.98 101.38 79.97 88.08 79.96 C 85.30 79.96 82.53 79.94 79.75 79.92 C 79.77 77.36 79.83 74.80 79.94 72.25 Z" />
</g>
<g id="#808081ff">
<path fill="#808081" opacity="1.00" d=" M 79.75 79.92 C 82.53 79.94 85.30 79.96 88.08 79.96 C 88.18 87.96 88.18 95.97 88.08 103.97 C 85.30 103.98 82.52 104.01 79.74 104.05 C 79.79 96.01 79.77 87.96 79.75 79.92 Z" />
</g>
<g id="#010180ff">
<path fill="#010180" opacity="1.00" d=" M 103.99 88.13 C 111.98 88.13 119.96 88.15 127.95 88.12 C 130.69 88.10 133.42 88.00 136.16 87.94 C 141.42 87.88 146.68 88.10 151.95 88.20 C 151.92 90.74 151.90 93.28 151.93 95.83 C 138.67 95.81 125.40 95.83 112.14 95.81 C 109.42 95.81 106.70 95.83 103.98 95.87 C 103.97 93.29 103.97 90.71 103.99 88.13 Z" />
</g>
<g id="#010103ff">
<path fill="#010103" opacity="1.00" d=" M 79.74 104.05 C 82.52 104.01 85.30 103.98 88.08 103.97 C 93.39 103.97 98.69 103.99 104.00 103.97 C 103.99 106.72 103.93 109.46 103.88 112.21 C 95.91 112.13 87.90 112.66 79.96 111.81 C 79.82 109.22 79.75 106.63 79.74 104.05 Z" />
</g>
<g id="#000000ff">
<path fill="#000000" opacity="1.00" d=" M 216.25 151.98 C 218.77 152.03 221.29 152.06 223.82 152.11 C 223.81 154.66 223.81 157.22 223.83 159.77 C 221.33 160.00 218.82 160.18 216.32 160.36 C 216.16 162.83 215.99 165.30 215.82 167.77 C 213.24 167.85 210.67 167.91 208.10 168.01 C 208.01 170.67 207.95 173.33 207.87 175.99 C 146.58 176.11 85.30 176.01 24.02 176.04 C 24.02 173.32 24.03 170.61 24.04 167.90 C 85.28 167.82 146.53 167.88 207.78 167.87 C 207.91 165.33 208.03 162.80 208.16 160.27 C 210.74 160.19 213.31 160.13 215.89 160.04 C 216.04 157.35 216.13 154.67 216.25 151.98 Z" />
<path fill="#000000" opacity="1.00" d=" M 247.85 160.18 C 250.56 160.19 253.28 160.19 256.00 160.19 L 256.00 223.81 C 253.26 223.81 250.53 223.80 247.80 223.80 C 247.81 226.52 247.83 229.24 247.83 231.97 C 245.19 231.99 242.55 231.98 239.91 231.97 C 239.90 234.62 239.91 237.26 239.91 239.91 C 237.26 239.91 234.62 239.90 231.97 239.91 C 231.97 242.55 231.99 245.19 231.96 247.83 C 229.24 247.83 226.52 247.81 223.80 247.80 C 223.80 250.53 223.82 253.26 223.81 256.00 L 8.17 256.00 C 8.17 253.28 8.18 250.56 8.17 247.85 C 79.99 247.78 151.82 247.89 223.65 247.79 C 223.81 245.30 223.97 242.81 224.16 240.32 C 226.72 240.17 229.28 240.03 231.85 239.86 C 231.94 237.28 232.02 234.70 232.11 232.11 C 234.69 232.02 237.27 231.94 239.85 231.85 C 240.02 229.29 240.17 226.74 240.32 224.19 C 242.81 223.99 245.29 223.80 247.79 223.63 C 247.89 202.48 247.76 181.33 247.85 160.18 Z" />
<path fill="#000000" opacity="1.00" d=" M 119.84 207.98 C 146.60 207.93 173.35 207.98 200.10 207.95 C 200.10 210.66 200.07 213.37 200.01 216.07 C 192.03 216.21 184.04 216.12 176.05 216.13 C 173.34 216.12 170.64 216.12 167.94 216.13 C 151.91 216.00 135.86 216.45 119.85 215.89 C 119.84 213.25 119.83 210.61 119.84 207.98 Z" />
</g>
<g id="#bfbfbfff">
<path fill="#bfbfbf" opacity="1.00" d=" M 231.99 160.03 C 234.65 160.06 237.31 160.08 239.97 160.08 C 239.99 162.73 240.02 165.38 240.04 168.03 C 237.48 168.03 234.89 168.12 232.36 167.66 C 231.79 165.16 231.95 162.57 231.99 160.03 Z" />
<path fill="#bfbfbf" opacity="1.00" d=" M 215.95 175.97 C 218.57 176.03 221.19 176.10 223.82 176.17 C 223.85 178.77 223.91 181.36 223.99 183.96 C 221.37 183.92 218.76 183.88 216.14 183.84 C 216.09 181.21 216.03 178.59 215.95 175.97 Z" />
</g>
<g id="#02fd04ff">
<path fill="#02fd04" opacity="1.00" d=" M 32.19 208.14 C 37.46 207.67 42.78 207.71 48.05 208.15 C 48.12 210.73 48.15 213.32 48.11 215.91 C 42.92 216.02 37.74 216.01 32.55 215.82 L 31.61 215.79 C 31.76 213.23 31.94 210.68 32.19 208.14 Z" />
</g>
<g id="#018103ff">
<path fill="#018103" opacity="1.00" d=" M 32.55 215.82 C 37.74 216.01 42.92 216.02 48.11 215.91 C 48.06 218.49 48.06 221.07 48.06 223.66 C 42.78 223.84 37.49 223.83 32.21 223.70 C 32.21 221.07 32.24 218.43 32.55 215.82 Z" />
</g>
</svg>
