<?xml version="1.0" encoding="UTF-8" ?>
<!DOCTYPE svg PUBLIC "-//W3C//DTD SVG 1.1//EN" "http://www.w3.org/Graphics/SVG/1.1/DTD/svg11.dtd">
<svg width="800pt" height="800pt" viewBox="0 0 800 800" version="1.1" xmlns="http://www.w3.org/2000/svg">
<g id="#ff004cff">
<path fill="#ff004c" opacity="1.00" d=" M 320.00 0.00 L 480.00 0.00 C 480.00 53.33 479.98 106.67 480.00 160.00 C 426.67 160.00 373.34 160.00 320.00 160.00 C 320.01 106.67 320.00 53.33 320.00 0.00 Z" />
</g>
<g id="#ffa300ff">
<path fill="#ffa300" opacity="1.00" d=" M 160.01 160.00 C 213.34 160.00 266.67 160.01 320.00 160.00 C 320.00 213.33 320.00 266.67 320.00 320.00 C 266.67 320.00 213.34 320.00 160.00 320.00 C 160.00 266.67 160.00 213.34 160.01 160.00 Z" />
</g>
<g id="#ffffffff">
<path fill="#ffffff" opacity="1.00" d=" M 320.00 160.00 C 373.34 160.00 426.67 160.00 480.00 160.00 C 479.97 213.33 480.04 266.67 479.99 320.00 C 533.33 320.00 586.67 320.02 640.00 320.00 C 639.99 373.33 640.01 426.66 639.99 480.00 C 586.66 480.00 533.33 480.00 480.00 480.00 C 480.00 533.33 480.00 586.66 480.00 639.99 C 426.67 640.01 373.33 640.00 320.00 640.00 C 320.00 586.67 320.00 533.33 320.00 480.00 C 266.67 480.00 213.33 480.00 160.00 480.00 C 160.00 426.67 159.99 373.33 160.00 320.00 C 213.34 320.00 266.67 320.00 320.00 320.00 C 320.00 266.67 320.00 213.33 320.00 160.00 Z" />
</g>
<g id="#fecca9ff">
<path fill="#fecca9" opacity="1.00" d=" M 480.00 160.00 C 533.34 160.00 586.67 160.00 640.00 160.00 C 640.00 213.33 640.00 266.67 640.00 320.00 C 586.67 320.02 533.33 320.00 479.99 320.00 C 480.04 266.67 479.97 213.33 480.00 160.00 Z" />
</g>
<g id="#fffe27ff">
<path fill="#fffe27" opacity="1.00" d=" M 0.00 320.00 C 53.33 320.00 106.67 320.00 160.00 320.00 C 159.99 373.33 160.00 426.67 160.00 480.00 C 106.67 480.00 53.33 480.00 0.00 480.00 L 0.00 320.00 Z" />
</g>
<g id="#ff77a9ff">
<path fill="#ff77a9" opacity="1.00" d=" M 640.00 320.00 C 693.33 320.01 746.67 320.00 800.00 320.00 L 800.00 480.00 C 746.66 480.00 693.33 479.99 639.99 480.00 C 640.01 426.66 639.99 373.33 640.00 320.00 Z" />
</g>
<g id="#00e755ff">
<path fill="#00e755" opacity="1.00" d=" M 160.00 480.00 C 213.33 480.00 266.67 480.00 320.00 480.00 C 320.00 533.33 320.00 586.67 320.00 640.00 C 266.67 640.00 213.34 640.00 160.00 640.00 C 160.00 586.66 160.00 533.33 160.00 480.00 Z" />
</g>
<g id="#82769cff">
<path fill="#82769c" opacity="1.00" d=" M 480.00 480.00 C 533.33 480.00 586.66 480.00 639.99 480.00 C 639.99 533.32 640.00 586.65 639.98 639.98 C 586.66 640.00 533.33 639.97 480.00 639.99 C 480.00 586.66 480.00 533.33 480.00 480.00 Z" />
</g>
<g id="#29adffff">
<path fill="#29adff" opacity="1.00" d=" M 320.00 640.00 C 373.33 640.00 426.67 640.01 480.00 639.99 C 479.98 693.33 480.00 746.66 479.99 800.00 L 320.01 800.00 C 320.00 746.67 320.02 693.33 320.00 640.00 Z" />
</g>
</svg>
