<?xml version="1.0" encoding="UTF-8" ?>
<!DOCTYPE svg PUBLIC "-//W3C//DTD SVG 1.1//EN" "http://www.w3.org/Graphics/SVG/1.1/DTD/svg11.dtd">
<svg width="256pt" height="256pt" viewBox="0 0 256 256" version="1.1" xmlns="http://www.w3.org/2000/svg">
<g id="#a1aae6ff">
<path fill="#a1aae6" opacity="1.00" d=" M 162.76 6.24 C 168.13 5.58 173.52 5.11 178.93 4.91 C 178.88 8.61 178.86 12.30 178.86 15.99 C 173.95 18.87 169.21 22.02 164.57 25.32 C 164.16 18.94 163.96 12.54 162.76 6.24 Z" />
</g>
<g id="#828edeff">
<path fill="#828ede" opacity="1.00" d=" M 178.93 4.91 C 185.43 4.45 191.98 4.41 198.45 5.29 C 192.14 9.24 185.35 12.35 178.86 15.99 C 178.86 12.30 178.88 8.61 178.93 4.91 Z" />
<path fill="#828ede" opacity="1.00" d=" M 176.15 195.79 C 180.46 190.34 184.42 184.59 187.90 178.57 C 189.06 185.41 190.20 192.60 187.44 199.23 C 184.58 202.41 181.74 205.59 179.14 208.98 C 179.16 205.11 178.88 201.24 178.81 197.36 C 177.91 196.87 177.02 196.34 176.15 195.79 Z" />
</g>
<g id="#c3c8efff">
<path fill="#c3c8ef" opacity="1.00" d=" M 144.73 9.92 C 150.56 7.91 156.72 7.35 162.76 6.24 C 163.96 12.54 164.16 18.94 164.57 25.32 C 161.52 27.58 159.08 30.50 156.51 33.26 C 159.40 33.33 162.28 33.39 165.17 33.44 C 164.83 36.61 164.50 39.78 164.19 42.95 C 161.52 42.92 158.85 42.85 156.18 42.90 C 152.25 43.03 148.34 43.41 144.43 43.80 C 145.77 40.21 145.94 36.33 144.60 32.71 C 148.93 26.30 154.94 21.40 161.09 16.83 C 156.98 17.39 152.87 18.01 148.82 18.93 C 148.32 15.99 147.90 13.05 147.55 10.09 C 146.84 10.05 145.43 9.96 144.73 9.92 Z" />
</g>
<g id="#e4f0fdff">
<path fill="#e4f0fd" opacity="1.00" d=" M 135.99 11.85 C 138.87 11.10 141.72 10.00 144.73 9.92 C 145.43 9.96 146.84 10.05 147.55 10.09 C 147.90 13.05 148.32 15.99 148.82 18.93 C 145.46 19.70 142.13 20.62 138.85 21.65 C 117.49 28.14 97.44 39.68 82.35 56.28 C 83.03 50.51 83.35 44.69 83.77 38.90 C 98.64 25.77 116.99 17.13 135.99 11.85 Z" />
</g>
<g id="#244ed0ff">
<path fill="#244ed0" opacity="1.00" d=" M 148.82 18.93 C 152.87 18.01 156.98 17.39 161.09 16.83 C 154.94 21.40 148.93 26.30 144.60 32.71 C 141.14 35.56 136.51 35.51 132.29 35.97 C 133.70 30.57 138.19 27.01 142.06 23.34 C 140.98 22.78 139.91 22.21 138.85 21.65 C 142.13 20.62 145.46 19.70 148.82 18.93 Z" />
</g>
<g id="#183bc9ff">
<path fill="#183bc9" opacity="1.00" d=" M 82.35 56.28 C 97.44 39.68 117.49 28.14 138.85 21.65 C 139.91 22.21 140.98 22.78 142.06 23.34 C 138.19 27.01 133.70 30.57 132.29 35.97 C 125.65 36.96 118.43 37.77 112.90 41.92 C 109.50 45.97 109.16 51.62 108.03 56.59 C 103.20 59.01 99.27 62.72 95.73 66.73 C 80.29 82.29 64.71 97.71 49.27 113.26 C 45.48 117.34 41.44 121.21 36.84 124.38 C 36.93 118.88 37.56 113.41 38.73 108.04 C 47.20 103.21 52.55 94.73 60.18 88.84 C 60.26 90.33 60.35 91.82 60.45 93.31 C 63.70 86.34 66.43 79.09 70.55 72.55 C 74.01 66.80 78.20 61.54 82.35 56.28 Z" />
</g>
<g id="#add8faff">
<path fill="#add8fa" opacity="1.00" d=" M 64.83 40.86 C 67.25 37.83 70.01 35.06 73.15 32.76 C 71.26 40.67 68.88 48.53 68.64 56.72 C 73.32 50.48 77.93 44.14 83.77 38.90 C 83.35 44.69 83.03 50.51 82.35 56.28 C 78.20 61.54 74.01 66.80 70.55 72.55 C 66.43 79.09 63.70 86.34 60.45 93.31 C 60.35 91.82 60.26 90.33 60.18 88.84 C 59.72 80.41 60.51 71.98 60.89 63.56 C 57.19 67.98 53.63 72.55 50.72 77.55 C 49.14 72.49 48.35 67.18 48.88 61.89 C 53.20 54.18 59.27 47.66 64.83 40.86 Z" />
</g>
<g id="#ecf6feff">
<path fill="#ecf6fe" opacity="1.00" d=" M 144.60 32.71 C 145.94 36.33 145.77 40.21 144.43 43.80 L 143.47 43.90 C 136.81 44.77 129.20 45.11 124.09 50.05 C 119.29 55.66 118.27 63.31 117.04 70.33 C 116.31 74.93 115.60 79.54 115.10 84.17 C 114.67 88.49 114.38 92.82 114.18 97.16 C 113.71 105.29 113.95 113.45 114.74 121.55 C 115.10 125.81 115.68 130.05 116.28 134.28 C 124.56 124.92 131.13 114.20 139.23 104.69 C 140.07 110.28 140.68 116.16 138.75 121.61 C 130.38 132.43 122.40 143.53 114.17 154.46 C 112.95 150.09 111.84 145.68 110.96 141.22 C 110.00 136.04 109.18 130.83 108.35 125.63 C 107.48 120.09 107.00 114.50 106.46 108.92 C 106.15 105.44 105.70 101.97 105.46 98.48 C 105.19 94.19 105.21 89.90 105.27 85.61 C 105.35 81.25 105.54 76.88 105.95 72.54 C 106.52 67.21 107.22 61.89 108.03 56.59 C 109.16 51.62 109.50 45.97 112.90 41.92 C 118.43 37.77 125.65 36.96 132.29 35.97 C 136.51 35.51 141.14 35.56 144.60 32.71 Z" />
</g>
<g id="#9ba4e5ff">
<path fill="#9ba4e5" opacity="1.00" d=" M 165.17 33.44 C 170.91 33.59 176.61 34.22 182.29 35.01 C 182.57 37.94 182.85 40.87 183.15 43.80 C 177.92 43.06 172.64 43.03 167.38 42.98 C 166.58 42.98 164.98 42.96 164.19 42.95 C 164.50 39.78 164.83 36.61 165.17 33.44 Z" />
</g>
<g id="#7380daff">
<path fill="#7380da" opacity="1.00" d=" M 182.29 35.01 C 187.71 35.81 193.08 36.90 198.46 37.96 C 199.27 40.98 200.19 43.99 201.20 46.96 C 197.86 46.28 194.49 45.78 191.14 45.19 C 188.47 44.72 185.82 44.20 183.15 43.80 C 182.85 40.87 182.57 37.94 182.29 35.01 Z" />
</g>
<g id="#505fd1ff">
<path fill="#505fd1" opacity="1.00" d=" M 198.46 37.96 C 203.99 39.36 209.48 40.94 214.87 42.82 C 215.16 45.62 215.44 48.41 215.71 51.21 C 211.06 49.23 206.11 48.07 201.20 46.96 C 200.19 43.99 199.27 40.98 198.46 37.96 Z" />
</g>
<g id="#9ed1f9ff">
<path fill="#9ed1f9" opacity="1.00" d=" M 144.43 43.80 C 148.34 43.41 152.25 43.03 156.18 42.90 C 150.20 49.66 143.58 55.82 137.25 62.26 C 129.88 69.57 122.66 77.05 115.10 84.17 C 115.60 79.54 116.31 74.93 117.04 70.33 C 123.73 65.68 128.87 59.30 134.80 53.80 C 138.02 50.80 140.81 47.39 143.47 43.90 L 144.43 43.80 Z" />
</g>
<g id="#80c3f7ff">
<path fill="#80c3f7" opacity="1.00" d=" M 156.18 42.90 C 158.85 42.85 161.52 42.92 164.19 42.95 C 164.98 42.96 166.58 42.98 167.38 42.98 C 164.65 46.68 161.65 50.16 158.29 53.30 C 143.45 67.78 129.08 82.74 114.18 97.16 C 114.38 92.82 114.67 88.49 115.10 84.17 C 122.66 77.05 129.88 69.57 137.25 62.26 C 143.58 55.82 150.20 49.66 156.18 42.90 Z" />
</g>
<g id="#65b4f5ff">
<path fill="#65b4f5" opacity="1.00" d=" M 167.38 42.98 C 172.64 43.03 177.92 43.06 183.15 43.80 C 185.82 44.20 188.47 44.72 191.14 45.19 C 187.41 50.37 182.85 54.86 178.25 59.25 C 161.58 75.91 144.91 92.58 128.25 109.25 C 124.08 113.70 119.73 118.01 114.74 121.55 C 113.95 113.45 113.71 105.29 114.18 97.16 C 129.08 82.74 143.45 67.78 158.29 53.30 C 161.65 50.16 164.65 46.68 167.38 42.98 Z" />
</g>
<g id="#2f42c8ff">
<path fill="#2f42c8" opacity="1.00" d=" M 214.87 42.82 C 219.68 44.35 224.34 46.28 228.83 48.57 C 228.50 52.43 228.32 56.31 228.52 60.18 L 228.55 60.90 C 224.04 61.93 219.59 63.21 215.03 64.05 C 215.10 61.63 215.04 59.21 214.99 56.78 C 217.37 56.03 219.75 55.25 222.13 54.48 C 220.00 53.37 217.88 52.23 215.71 51.21 C 215.44 48.41 215.16 45.62 214.87 42.82 Z" />
</g>
<g id="#b9defbff">
<path fill="#b9defb" opacity="1.00" d=" M 124.09 50.05 C 129.20 45.11 136.81 44.77 143.47 43.90 C 140.81 47.39 138.02 50.80 134.80 53.80 C 128.87 59.30 123.73 65.68 117.04 70.33 C 118.27 63.31 119.29 55.66 124.09 50.05 Z" />
</g>
<g id="#5ca5f0ff">
<path fill="#5ca5f0" opacity="1.00" d=" M 191.14 45.19 C 194.49 45.78 197.86 46.28 201.20 46.96 C 206.11 48.07 211.06 49.23 215.71 51.21 C 217.88 52.23 220.00 53.37 222.13 54.48 C 219.75 55.25 217.37 56.03 214.99 56.78 C 207.59 58.99 200.29 61.66 193.57 65.49 C 188.81 69.04 184.98 73.62 180.76 77.76 C 172.22 86.22 163.79 94.79 155.23 103.23 C 151.33 106.78 147.76 110.69 144.70 115.00 C 143.92 110.51 142.89 106.07 141.80 101.65 C 140.94 102.65 140.09 103.68 139.23 104.69 C 131.13 114.20 124.56 124.92 116.28 134.28 C 115.68 130.05 115.10 125.81 114.74 121.55 C 119.73 118.01 124.08 113.70 128.25 109.25 C 144.91 92.58 161.58 75.91 178.25 59.25 C 182.85 54.86 187.41 50.37 191.14 45.19 Z" />
</g>
<g id="#192ec2ff">
<path fill="#192ec2" opacity="1.00" d=" M 228.83 48.57 C 233.98 51.02 238.94 53.88 243.25 57.66 C 238.40 58.81 233.48 59.69 228.52 60.18 C 228.32 56.31 228.50 52.43 228.83 48.57 Z" />
</g>
<g id="#234dcfff">
<path fill="#234dcf" opacity="1.00" d=" M 95.73 66.73 C 99.27 62.72 103.20 59.01 108.03 56.59 C 107.22 61.89 106.52 67.21 105.95 72.54 C 101.44 74.98 97.59 78.39 94.21 82.22 C 77.34 99.36 60.08 116.13 43.32 133.38 C 41.63 135.08 39.32 135.87 37.13 136.70 C 36.80 132.60 36.74 128.48 36.84 124.38 C 41.44 121.21 45.48 117.34 49.27 113.26 C 64.71 97.71 80.29 82.29 95.73 66.73 Z" />
</g>
<g id="#5262d2ff">
<path fill="#5262d2" opacity="1.00" d=" M 193.57 65.49 C 200.29 61.66 207.59 58.99 214.99 56.78 C 215.04 59.21 215.10 61.63 215.03 64.05 C 211.43 66.34 206.99 67.06 203.07 68.75 C 207.12 74.20 212.51 79.05 214.86 85.51 C 214.52 89.08 213.89 92.62 213.70 96.21 C 213.35 95.45 212.98 94.69 212.60 93.94 C 210.84 90.65 209.11 87.35 207.33 84.07 C 205.66 81.17 203.69 78.44 201.47 75.93 C 198.49 72.73 195.94 69.16 193.57 65.49 Z" />
</g>
<g id="#87c6f8ff">
<path fill="#87c6f8" opacity="1.00" d=" M 33.03 94.07 C 36.83 82.71 41.94 71.68 48.88 61.89 C 48.35 67.18 49.14 72.49 50.72 77.55 C 45.30 87.07 40.63 97.17 38.73 108.04 C 37.56 113.41 36.93 118.88 36.84 124.38 C 36.74 128.48 36.80 132.60 37.13 136.70 C 37.51 140.68 38.32 144.61 39.24 148.50 C 40.05 151.89 41.04 155.23 42.22 158.51 C 43.52 162.04 45.12 165.45 46.90 168.77 C 48.78 172.17 50.92 175.43 53.28 178.53 C 55.92 181.74 59.09 184.45 62.17 187.23 C 62.45 188.16 62.73 189.10 63.02 190.03 C 53.37 195.01 42.83 197.66 32.64 201.21 C 36.75 203.18 40.78 205.43 45.22 206.59 C 44.74 209.01 44.26 211.44 43.78 213.86 C 32.74 210.12 21.60 205.67 12.60 198.06 C 26.21 195.32 39.71 191.92 52.65 186.86 C 45.40 178.55 38.93 169.43 34.77 159.16 C 26.06 138.65 26.16 115.10 33.03 94.07 Z" />
</g>
<g id="#0d2bc3ff">
<path fill="#0d2bc3" opacity="1.00" d=" M 50.72 77.55 C 53.63 72.55 57.19 67.98 60.89 63.56 C 60.51 71.98 59.72 80.41 60.18 88.84 C 52.55 94.73 47.20 103.21 38.73 108.04 C 40.63 97.17 45.30 87.07 50.72 77.55 Z" />
</g>
<g id="#5195eaff">
<path fill="#5195ea" opacity="1.00" d=" M 180.76 77.76 C 184.98 73.62 188.81 69.04 193.57 65.49 C 195.94 69.16 198.49 72.73 201.47 75.93 C 198.51 79.78 195.31 83.45 191.79 86.79 C 179.32 98.98 167.20 111.53 154.68 123.68 C 152.07 126.27 149.76 129.14 147.52 132.06 C 146.80 126.34 145.76 120.66 144.70 115.00 C 147.76 110.69 151.33 106.78 155.23 103.23 C 163.79 94.79 172.22 86.22 180.76 77.76 Z" />
</g>
<g id="#2c5bd4ff">
<path fill="#2c5bd4" opacity="1.00" d=" M 94.21 82.22 C 97.59 78.39 101.44 74.98 105.95 72.54 C 105.54 76.88 105.35 81.25 105.27 85.61 C 100.59 88.72 96.53 92.62 92.74 96.74 C 78.96 110.62 65.04 124.37 51.27 138.27 C 47.77 142.25 43.80 145.79 39.24 148.50 C 38.32 144.61 37.51 140.68 37.13 136.70 C 39.32 135.87 41.63 135.08 43.32 133.38 C 60.08 116.13 77.34 99.36 94.21 82.22 Z" />
<path fill="#2c5bd4" opacity="1.00" d=" M 215.18 100.03 C 217.66 106.33 218.16 113.14 218.62 119.82 C 213.27 127.00 206.46 132.86 200.25 139.25 C 183.12 156.53 165.64 173.47 148.86 191.09 C 149.47 186.11 149.61 181.08 149.96 176.08 C 152.54 170.57 157.56 166.93 161.77 162.77 C 175.56 148.89 189.43 135.10 203.25 121.25 C 206.53 117.88 210.28 114.91 213.08 111.09 C 215.37 107.91 215.33 103.78 215.18 100.03 Z" />
</g>
<g id="#4887e4ff">
<path fill="#4887e4" opacity="1.00" d=" M 201.47 75.93 C 203.69 78.44 205.66 81.17 207.33 84.07 C 205.43 87.17 203.42 90.24 200.84 92.83 C 185.78 107.44 171.22 122.56 156.16 137.17 C 152.50 140.59 150.10 145.21 149.54 150.20 C 149.10 144.13 148.35 138.09 147.52 132.06 C 149.76 129.14 152.07 126.27 154.68 123.68 C 167.20 111.53 179.32 98.98 191.79 86.79 C 195.31 83.45 198.51 79.78 201.47 75.93 Z" />
</g>
<g id="#3f79dfff">
<path fill="#3f79df" opacity="1.00" d=" M 207.33 84.07 C 209.11 87.35 210.84 90.65 212.60 93.94 C 210.82 96.66 209.04 99.41 206.82 101.80 C 188.75 119.63 170.86 137.65 152.93 155.62 C 151.88 155.10 150.83 154.58 149.78 154.06 C 149.69 152.77 149.61 151.48 149.54 150.20 C 150.10 145.21 152.50 140.59 156.16 137.17 C 171.22 122.56 185.78 107.44 200.84 92.83 C 203.42 90.24 205.43 87.17 207.33 84.07 Z" />
</g>
<g id="#3569d9ff">
<path fill="#3569d9" opacity="1.00" d=" M 92.74 96.74 C 96.53 92.62 100.59 88.72 105.27 85.61 C 105.21 89.90 105.19 94.19 105.46 98.48 C 98.45 102.99 93.20 109.54 87.25 115.26 C 76.26 126.27 65.22 137.22 54.27 148.27 C 50.77 152.25 46.80 155.81 42.22 158.51 C 41.04 155.23 40.05 151.89 39.24 148.50 C 43.80 145.79 47.77 142.25 51.27 138.27 C 65.04 124.37 78.96 110.62 92.74 96.74 Z" />
</g>
<g id="#3144c9ff">
<path fill="#3144c9" opacity="1.00" d=" M 214.86 85.51 C 218.90 90.55 221.13 96.68 223.23 102.71 C 229.82 122.46 228.70 144.32 221.86 163.85 C 220.30 168.55 218.49 173.21 215.76 177.38 C 215.89 171.97 214.73 166.66 213.29 161.48 C 214.73 156.35 216.09 151.19 217.36 146.01 C 219.32 137.42 219.29 128.56 218.62 119.82 C 218.16 113.14 217.66 106.33 215.18 100.03 C 214.72 98.74 214.20 97.48 213.70 96.21 C 213.89 92.62 214.52 89.08 214.86 85.51 Z" />
</g>
<g id="#366adaff">
<path fill="#366ada" opacity="1.00" d=" M 212.60 93.94 C 212.98 94.69 213.35 95.45 213.70 96.21 C 214.20 97.48 214.72 98.74 215.18 100.03 C 215.33 103.78 215.37 107.91 213.08 111.09 C 210.28 114.91 206.53 117.88 203.25 121.25 C 189.43 135.10 175.56 148.89 161.77 162.77 C 157.56 166.93 152.54 170.57 149.96 176.08 C 150.47 168.74 150.28 161.38 149.78 154.06 C 150.83 154.58 151.88 155.10 152.93 155.62 C 170.86 137.65 188.75 119.63 206.82 101.80 C 209.04 99.41 210.82 96.66 212.60 93.94 Z" />
</g>
<g id="#3e77dfff">
<path fill="#3e77df" opacity="1.00" d=" M 87.25 115.26 C 93.20 109.54 98.45 102.99 105.46 98.48 C 105.70 101.97 106.15 105.44 106.46 108.92 C 103.79 115.05 98.29 119.09 93.74 123.74 C 82.13 135.46 70.36 147.03 58.78 158.78 C 55.35 162.70 51.37 166.09 46.90 168.77 C 45.12 165.45 43.52 162.04 42.22 158.51 C 46.80 155.81 50.77 152.25 54.27 148.27 C 65.22 137.22 76.26 126.27 87.25 115.26 Z" />
</g>
<g id="#dbdef5ff">
<path fill="#dbdef5" opacity="1.00" d=" M 139.23 104.69 C 140.09 103.68 140.94 102.65 141.80 101.65 C 142.89 106.07 143.92 110.51 144.70 115.00 C 145.76 120.66 146.80 126.34 147.52 132.06 C 148.35 138.09 149.10 144.13 149.54 150.20 C 149.61 151.48 149.69 152.77 149.78 154.06 C 150.28 161.38 150.47 168.74 149.96 176.08 C 149.61 181.08 149.47 186.11 148.86 191.09 C 147.89 197.55 146.54 203.94 145.30 210.35 C 144.28 211.66 143.26 212.97 142.14 214.20 C 141.68 205.77 141.90 197.33 142.00 188.90 C 142.20 186.20 140.92 183.80 139.55 181.59 C 139.74 179.63 139.83 177.66 139.96 175.70 C 140.17 172.35 140.53 169.01 140.89 165.67 C 141.89 157.41 142.02 149.07 141.35 140.77 C 141.32 134.30 140.91 127.77 138.75 121.61 C 140.68 116.16 140.07 110.28 139.23 104.69 Z" />
</g>
<g id="#4785e4ff">
<path fill="#4785e4" opacity="1.00" d=" M 106.46 108.92 C 107.00 114.50 107.48 120.09 108.35 125.63 C 95.72 137.22 84.00 149.76 71.75 161.75 C 65.67 167.43 60.60 174.30 53.28 178.53 C 50.92 175.43 48.78 172.17 46.90 168.77 C 51.37 166.09 55.35 162.70 58.78 158.78 C 70.36 147.03 82.13 135.46 93.74 123.74 C 98.29 119.09 103.79 115.05 106.46 108.92 Z" />
</g>
<g id="#214aceff">
<path fill="#214ace" opacity="1.00" d=" M 218.62 119.82 C 219.29 128.56 219.32 137.42 217.36 146.01 C 216.89 144.21 216.25 142.43 215.18 140.89 C 210.16 144.57 206.32 149.56 201.70 153.70 C 199.09 156.33 195.42 159.00 195.74 163.16 C 196.04 170.20 196.21 177.25 195.20 184.25 C 195.61 177.03 195.33 169.80 195.17 162.58 C 194.87 162.79 194.28 163.22 193.99 163.43 C 191.82 164.74 189.47 165.83 187.64 167.62 C 173.79 182.13 159.20 195.91 145.30 210.35 C 146.54 203.94 147.89 197.55 148.86 191.09 C 165.64 173.47 183.12 156.53 200.25 139.25 C 206.46 132.86 213.27 127.00 218.62 119.82 Z" />
</g>
<g id="#63b1f4ff">
<path fill="#63b1f4" opacity="1.00" d=" M 138.75 121.61 C 140.91 127.77 141.32 134.30 141.35 140.77 C 141.22 145.88 141.77 151.26 139.93 156.13 C 137.45 160.14 133.44 162.85 130.23 166.23 C 116.31 180.32 102.13 194.15 88.33 208.36 C 85.89 211.03 82.38 212.30 78.83 212.47 C 74.58 212.21 70.38 211.45 66.19 210.79 C 63.39 210.34 60.59 209.88 57.81 209.37 C 61.38 207.19 64.91 204.86 67.83 201.83 C 77.83 191.50 88.13 181.46 98.24 171.24 C 103.63 165.72 109.53 160.66 114.17 154.46 C 122.40 143.53 130.38 132.43 138.75 121.61 Z" />
</g>
<g id="#5093e9ff">
<path fill="#5093e9" opacity="1.00" d=" M 108.35 125.63 C 109.18 130.83 110.00 136.04 110.96 141.22 C 108.54 142.21 106.04 143.22 104.16 145.12 C 90.35 159.34 76.25 173.27 62.17 187.23 C 59.09 184.45 55.92 181.74 53.28 178.53 C 60.60 174.30 65.67 167.43 71.75 161.75 C 84.00 149.76 95.72 137.22 108.35 125.63 Z" />
</g>
<g id="#5aa2eeff">
<path fill="#5aa2ee" opacity="1.00" d=" M 104.16 145.12 C 106.04 143.22 108.54 142.21 110.96 141.22 C 111.84 145.68 112.95 150.09 114.17 154.46 C 109.53 160.66 103.63 165.72 98.24 171.24 C 88.13 181.46 77.83 191.50 67.83 201.83 C 64.91 204.86 61.38 207.19 57.81 209.37 C 53.59 208.56 49.38 207.67 45.22 206.59 C 40.78 205.43 36.75 203.18 32.64 201.21 C 42.83 197.66 53.37 195.01 63.02 190.03 C 62.73 189.10 62.45 188.16 62.17 187.23 C 76.25 173.27 90.35 159.34 104.16 145.12 Z" />
</g>
<g id="#79c0f7ff">
<path fill="#79c0f7" opacity="1.00" d=" M 141.35 140.77 C 142.02 149.07 141.89 157.41 140.89 165.67 C 136.88 168.68 133.14 172.04 129.72 175.72 C 117.45 188.23 104.85 200.42 92.65 213.01 C 88.04 212.93 83.43 212.75 78.83 212.47 C 82.38 212.30 85.89 211.03 88.33 208.36 C 102.13 194.15 116.31 180.32 130.23 166.23 C 133.44 162.85 137.45 160.14 139.93 156.13 C 141.77 151.26 141.22 145.88 141.35 140.77 Z" />
</g>
<g id="#1435c6ff">
<path fill="#1435c6" opacity="1.00" d=" M 201.70 153.70 C 206.32 149.56 210.16 144.57 215.18 140.89 C 216.25 142.43 216.89 144.21 217.36 146.01 C 216.09 151.19 214.73 156.35 213.29 161.48 C 209.95 170.10 204.95 177.97 200.00 185.73 C 198.29 188.06 196.41 190.27 194.55 192.48 C 194.76 189.73 194.99 186.99 195.20 184.25 C 196.21 177.25 196.04 170.20 195.74 163.16 C 195.42 159.00 199.09 156.33 201.70 153.70 Z" />
</g>
<g id="#4e5ed0ff">
<path fill="#4e5ed0" opacity="1.00" d=" M 213.29 161.48 C 214.73 166.66 215.89 171.97 215.76 177.38 C 215.27 179.98 213.83 182.27 212.59 184.57 C 209.34 190.06 206.26 195.73 201.90 200.45 C 201.22 195.55 200.60 190.64 200.00 185.73 C 204.95 177.97 209.95 170.10 213.29 161.48 Z" />
</g>
<g id="#173bc9ff">
<path fill="#173bc9" opacity="1.00" d=" M 187.64 167.62 C 189.47 165.83 191.82 164.74 193.99 163.43 C 192.03 168.50 190.61 173.82 187.90 178.57 C 184.42 184.59 180.46 190.34 176.15 195.79 C 172.39 200.25 168.35 204.48 164.05 208.42 C 158.81 212.97 153.07 216.91 147.22 220.63 C 138.98 225.65 130.08 229.52 120.89 232.45 C 122.97 227.50 126.77 223.62 129.33 218.95 C 133.81 218.05 138.17 216.47 142.14 214.20 C 143.26 212.97 144.28 211.66 145.30 210.35 C 159.20 195.91 173.79 182.13 187.64 167.62 Z" />
</g>
<g id="#717edaff">
<path fill="#717eda" opacity="1.00" d=" M 193.99 163.43 C 194.28 163.22 194.87 162.79 195.17 162.58 C 195.33 169.80 195.61 177.03 195.20 184.25 C 194.99 186.99 194.76 189.73 194.55 192.48 C 196.41 190.27 198.29 188.06 200.00 185.73 C 200.60 190.64 201.22 195.55 201.90 200.45 L 202.00 201.22 C 195.56 208.45 190.42 217.09 182.42 222.74 C 184.70 215.04 186.19 207.16 187.44 199.23 C 190.20 192.60 189.06 185.41 187.90 178.57 C 190.61 173.82 192.03 168.50 193.99 163.43 Z" />
</g>
<g id="#90cbf8ff">
<path fill="#90cbf8" opacity="1.00" d=" M 129.72 175.72 C 133.14 172.04 136.88 168.68 140.89 165.67 C 140.53 169.01 140.17 172.35 139.96 175.70 C 136.25 178.36 132.83 181.39 129.70 184.70 C 120.56 194.23 110.85 203.20 101.91 212.94 C 99.13 213.04 96.35 213.04 93.57 213.02 L 92.65 213.01 C 104.85 200.42 117.45 188.23 129.72 175.72 Z" />
</g>
<g id="#a7d5faff">
<path fill="#a7d5fa" opacity="1.00" d=" M 129.70 184.70 C 132.83 181.39 136.25 178.36 139.96 175.70 C 139.83 177.66 139.74 179.63 139.55 181.59 C 139.42 182.33 139.17 183.82 139.04 184.56 C 135.31 189.60 130.63 193.80 126.26 198.26 C 121.52 202.90 116.98 207.81 111.70 211.86 C 108.47 212.43 105.19 212.79 101.91 212.94 C 110.85 203.20 120.56 194.23 129.70 184.70 Z" />
</g>
<g id="#e7f0fdff">
<path fill="#e7f0fd" opacity="1.00" d=" M 139.55 181.59 C 140.92 183.80 142.20 186.20 142.00 188.90 C 141.90 197.33 141.68 205.77 142.14 214.20 C 138.17 216.47 133.81 218.05 129.33 218.95 C 124.74 219.62 120.06 219.60 115.53 220.64 C 112.16 221.46 110.13 224.54 107.89 226.92 C 103.96 231.68 99.00 235.40 94.03 239.01 C 103.17 237.66 112.21 235.65 120.89 232.45 C 130.08 229.52 138.98 225.65 147.22 220.63 C 147.58 224.71 147.87 228.79 148.11 232.88 C 130.57 241.54 111.51 246.88 92.13 249.35 C 92.31 242.85 92.06 236.36 92.00 229.87 C 94.24 227.17 97.01 224.98 99.40 222.41 C 96.77 222.32 94.15 222.29 91.52 222.25 C 92.23 219.18 92.92 216.11 93.57 213.02 C 96.35 213.04 99.13 213.04 101.91 212.94 C 105.19 212.79 108.47 212.43 111.70 211.86 C 117.71 210.78 124.57 210.72 129.32 206.33 C 135.39 200.73 137.82 192.48 139.04 184.56 C 139.17 183.82 139.42 182.33 139.55 181.59 Z" />
</g>
<g id="#c1e2fbff">
<path fill="#c1e2fb" opacity="1.00" d=" M 126.26 198.26 C 130.63 193.80 135.31 189.60 139.04 184.56 C 137.82 192.48 135.39 200.73 129.32 206.33 C 124.57 210.72 117.71 210.78 111.70 211.86 C 116.98 207.81 121.52 202.90 126.26 198.26 Z" />
</g>
<g id="#9da6e5ff">
<path fill="#9da6e5" opacity="1.00" d=" M 176.15 195.79 C 177.02 196.34 177.91 196.87 178.81 197.36 C 178.88 201.24 179.16 205.11 179.14 208.98 C 175.28 214.10 170.19 218.09 165.32 222.19 C 165.09 217.58 164.68 212.99 164.05 208.42 C 168.35 204.48 172.39 200.25 176.15 195.79 Z" />
</g>
<g id="#a0d2f9ff">
<path fill="#a0d2f9" opacity="1.00" d=" M 45.22 206.59 C 49.38 207.67 53.59 208.56 57.81 209.37 C 60.59 209.88 63.39 210.34 66.19 210.79 C 65.71 213.57 65.23 216.36 64.75 219.15 C 57.67 217.74 50.67 216.01 43.78 213.86 C 44.26 211.44 44.74 209.01 45.22 206.59 Z" />
</g>
<g id="#c0c6efff">
<path fill="#c0c6ef" opacity="1.00" d=" M 147.22 220.63 C 153.07 216.91 158.81 212.97 164.05 208.42 C 164.68 212.99 165.09 217.58 165.32 222.19 C 159.79 226.08 154.09 229.72 148.11 232.88 C 147.87 228.79 147.58 224.71 147.22 220.63 Z" />
</g>
<g id="#bee0fbff">
<path fill="#bee0fb" opacity="1.00" d=" M 66.19 210.79 C 70.38 211.45 74.58 212.21 78.83 212.47 C 83.43 212.75 88.04 212.93 92.65 213.01 L 93.57 213.02 C 92.92 216.11 92.23 219.18 91.52 222.25 C 82.52 222.04 73.61 220.66 64.75 219.15 C 65.23 216.36 65.71 213.57 66.19 210.79 Z" />
</g>
<g id="#244fd0ff">
<path fill="#244fd0" opacity="1.00" d=" M 115.53 220.64 C 120.06 219.60 124.74 219.62 129.33 218.95 C 126.77 223.62 122.97 227.50 120.89 232.45 C 112.21 235.65 103.17 237.66 94.03 239.01 C 99.00 235.40 103.96 231.68 107.89 226.92 C 110.13 224.54 112.16 221.46 115.53 220.64 Z" />
</g>
<g id="#c3e3fbff">
<path fill="#c3e3fb" opacity="1.00" d=" M 76.67 239.63 C 81.96 236.67 86.90 233.14 92.00 229.87 C 92.06 236.36 92.31 242.85 92.13 249.35 C 80.45 251.06 68.56 251.37 56.78 250.49 C 63.22 246.53 70.14 243.44 76.67 239.63 Z" />
</g>
</svg>
