<?xml version="1.0" encoding="UTF-8" ?>
<!DOCTYPE svg PUBLIC "-//W3C//DTD SVG 1.1//EN" "http://www.w3.org/Graphics/SVG/1.1/DTD/svg11.dtd">
<svg width="180pt" height="180pt" viewBox="0 0 180 180" version="1.1" xmlns="http://www.w3.org/2000/svg">
<g id="#ffffffff">
</g>
<g id="#3e509cff">
<path fill="#3e509c" opacity="1.00" d=" M 78.81 23.93 C 87.22 23.38 95.61 22.12 104.06 22.33 C 106.98 22.33 109.70 23.50 112.31 24.68 C 119.67 28.05 127.09 31.31 134.54 34.47 C 142.08 37.53 145.81 45.28 150.91 51.09 C 154.13 55.58 159.16 59.24 160.04 65.01 C 161.97 76.67 164.06 88.31 166.43 99.88 C 165.48 101.07 164.23 101.98 163.11 103.00 C 157.56 102.97 152.12 104.14 146.78 105.56 C 144.18 95.36 142.48 84.96 140.19 74.70 C 139.62 71.51 137.51 68.93 134.95 67.08 C 126.54 60.84 118.21 54.51 110.07 47.93 C 107.39 45.84 104.50 43.46 100.91 43.48 C 94.60 43.27 88.34 44.35 82.05 44.60 C 76.21 45.02 70.31 44.83 64.51 45.66 C 61.25 46.04 58.88 48.50 56.73 50.73 C 51.25 56.59 45.88 62.56 40.33 68.35 C 38.16 70.61 36.21 73.16 35.18 76.15 C 34.38 78.67 34.50 81.35 34.42 83.96 C 34.42 92.54 34.43 101.13 34.41 109.72 C 43.63 117.81 53.26 125.43 62.51 133.50 C 64.17 134.80 65.84 136.47 68.08 136.58 C 72.74 136.89 77.42 136.68 82.08 136.63 C 87.68 136.68 92.45 133.36 97.56 131.56 C 101.28 129.93 106.02 129.03 107.94 124.99 C 110.63 120.03 113.16 114.97 115.63 109.89 C 117.81 106.18 117.35 101.83 116.12 97.90 C 114.50 92.31 113.62 86.53 111.79 81.00 C 110.48 76.96 106.27 75.18 102.98 73.05 C 98.03 70.28 93.26 66.13 87.24 66.35 C 82.10 66.53 76.20 66.41 72.13 70.08 C 68.24 73.60 64.36 77.44 62.26 82.34 C 59.96 87.79 60.34 93.86 60.38 99.65 C 65.40 103.23 70.03 107.30 74.81 111.18 C 78.16 114.17 82.88 112.25 86.80 111.90 C 86.80 111.28 86.78 110.04 86.78 109.41 C 87.74 109.82 88.70 110.22 89.66 110.64 C 89.70 108.07 89.70 105.50 89.65 102.94 C 86.13 102.18 82.41 101.66 79.33 99.66 C 76.24 97.63 73.61 95.03 70.84 92.62 C 72.55 88.27 73.79 83.54 76.78 79.86 C 81.32 78.57 86.09 77.58 90.82 77.65 C 94.16 79.26 96.61 82.22 99.46 84.54 C 101.63 86.69 104.78 88.57 104.98 91.95 C 105.53 96.90 105.79 101.97 105.15 106.93 C 103.37 113.99 99.55 120.41 95.05 126.08 C 95.43 125.07 95.80 124.06 96.16 123.04 C 87.99 123.44 80.00 125.41 71.86 125.99 C 68.65 126.36 66.25 123.88 64.08 121.91 C 60.23 118.10 56.28 114.37 52.18 110.83 C 49.61 108.43 46.40 105.86 46.36 102.02 C 46.11 94.50 46.62 86.96 45.71 79.46 C 46.21 73.34 51.58 69.53 55.83 65.82 C 60.38 62.04 64.30 57.54 69.01 53.95 C 71.82 51.66 75.66 52.68 78.96 52.76 C 86.29 53.64 93.68 53.25 101.04 53.67 C 104.57 53.61 107.07 56.34 109.43 58.57 C 114.78 63.91 120.30 69.09 126.02 74.03 C 127.99 75.98 130.78 77.86 130.63 80.98 C 131.31 92.33 131.60 103.70 131.82 115.07 C 132.02 117.68 130.83 120.08 129.17 122.01 C 123.53 128.46 118.22 135.19 112.92 141.93 C 110.70 144.68 108.33 147.71 104.77 148.71 C 99.42 150.34 93.84 151.01 88.44 152.44 C 83.74 153.46 79.04 155.20 74.16 154.83 C 69.34 154.03 65.21 151.20 60.79 149.30 C 52.73 145.72 44.75 141.95 36.66 138.43 C 33.82 137.14 30.85 135.67 29.12 132.95 C 26.39 128.81 24.52 124.18 22.12 119.85 C 19.88 115.46 17.12 111.33 15.17 106.80 C 13.27 102.34 14.85 97.46 15.52 92.91 C 16.94 84.02 19.08 75.23 19.63 66.22 C 20.17 62.59 21.83 59.06 24.76 56.77 C 35.16 47.85 45.45 38.82 55.54 29.55 C 57.49 27.85 59.46 25.84 62.13 25.42 C 67.63 24.40 73.26 24.54 78.81 23.93 Z" />
</g>
<g id="#04040dff">
<path fill="#04040d" opacity="1.00" d=" M 100.91 43.48 C 104.50 43.46 107.39 45.84 110.07 47.93 C 118.21 54.51 126.54 60.84 134.95 67.08 C 137.51 68.93 139.62 71.51 140.19 74.70 C 142.48 84.96 144.18 95.36 146.78 105.56 C 152.12 104.14 157.56 102.97 163.11 103.00 C 163.35 104.41 163.60 105.83 163.84 107.25 C 157.08 108.08 150.53 110.02 143.80 111.06 C 143.67 109.44 143.55 107.82 143.43 106.20 C 143.19 106.70 142.94 107.20 142.70 107.71 C 142.13 99.76 140.09 92.03 138.58 84.23 C 137.73 80.87 137.50 76.82 134.38 74.69 C 124.10 66.98 113.99 59.04 103.85 51.16 C 100.29 48.02 95.25 49.55 90.97 49.45 C 80.48 50.57 69.89 50.32 59.42 51.76 C 58.03 51.97 57.05 53.10 56.07 54.01 C 49.15 61.42 42.94 69.57 35.18 76.15 C 36.21 73.16 38.16 70.61 40.33 68.35 C 45.88 62.56 51.25 56.59 56.73 50.73 C 58.88 48.50 61.25 46.04 64.51 45.66 C 70.31 44.83 76.21 45.02 82.05 44.60 C 88.34 44.35 94.60 43.27 100.91 43.48 Z" />
<path fill="#04040d" opacity="1.00" d=" M 19.74 65.25 L 19.63 66.22 C 19.08 75.23 16.94 84.02 15.52 92.91 C 14.85 97.46 13.27 102.34 15.17 106.80 C 17.12 111.33 19.88 115.46 22.12 119.85 C 24.52 124.18 26.39 128.81 29.12 132.95 C 30.85 135.67 33.82 137.14 36.66 138.43 C 44.75 141.95 52.73 145.72 60.79 149.30 C 65.21 151.20 69.34 154.03 74.16 154.83 C 79.04 155.20 83.74 153.46 88.44 152.44 C 93.84 151.01 99.42 150.34 104.77 148.71 C 108.33 147.71 110.70 144.68 112.92 141.93 C 118.22 135.19 123.53 128.46 129.17 122.01 C 128.27 126.22 125.10 129.26 122.45 132.44 C 117.09 138.82 111.94 145.36 106.77 151.88 C 105.12 154.25 102.14 154.67 99.54 155.28 C 92.01 156.83 84.47 158.37 76.99 160.20 C 74.83 160.54 72.54 161.53 70.38 160.66 C 58.57 156.09 47.50 149.85 35.74 145.15 C 32.50 143.62 28.57 142.54 26.75 139.16 C 22.36 131.77 18.68 123.99 14.53 116.47 C 13.08 113.54 10.93 110.49 11.77 107.06 C 13.65 95.83 15.70 84.64 17.34 73.37 C 17.70 70.56 18.53 67.82 19.74 65.25 Z" />
<path fill="#04040d" opacity="1.00" d=" M 72.13 70.08 C 76.20 66.41 82.10 66.53 87.24 66.35 C 93.26 66.13 98.03 70.28 102.98 73.05 C 106.27 75.18 110.48 76.96 111.79 81.00 C 113.62 86.53 114.50 92.31 116.12 97.90 C 117.35 101.83 117.81 106.18 115.63 109.89 C 112.30 102.59 111.70 94.48 109.35 86.88 C 108.46 83.31 104.69 81.95 101.92 80.12 C 97.52 77.74 93.58 74.50 88.92 72.63 C 84.61 72.11 80.25 72.51 75.94 72.79 C 69.75 72.87 66.97 79.37 62.26 82.34 C 64.36 77.44 68.24 73.60 72.13 70.08 Z" />
<path fill="#04040d" opacity="1.00" d=" M 45.71 79.46 C 46.62 86.96 46.11 94.50 46.36 102.02 C 46.40 105.86 49.61 108.43 52.18 110.83 C 56.28 114.37 60.23 118.10 64.08 121.91 C 66.25 123.88 68.65 126.36 71.86 125.99 C 80.00 125.41 87.99 123.44 96.16 123.04 C 95.80 124.06 95.43 125.07 95.05 126.08 C 94.33 129.25 90.52 128.89 88.03 129.36 C 81.01 129.89 74.11 131.41 67.12 132.12 C 64.38 131.00 62.50 128.57 60.37 126.61 C 55.62 121.71 50.19 117.53 45.45 112.62 C 43.35 110.67 43.82 107.59 43.70 105.02 C 43.83 98.01 43.62 91.01 43.76 84.01 C 43.59 82.22 44.78 80.84 45.71 79.46 Z" />
<path fill="#04040d" opacity="1.00" d=" M 69.32 98.74 C 69.58 96.65 70.30 94.65 70.84 92.62 C 73.61 95.03 76.24 97.63 79.33 99.66 C 82.41 101.66 86.13 102.18 89.65 102.94 C 89.70 105.50 89.70 108.07 89.66 110.64 C 88.70 110.22 87.74 109.82 86.78 109.41 C 83.19 107.87 79.02 107.61 75.90 105.06 C 73.56 103.15 70.83 101.42 69.32 98.74 Z" />
</g>
</svg>
