<?xml version="1.0" encoding="UTF-8" ?>
<!DOCTYPE svg PUBLIC "-//W3C//DTD SVG 1.1//EN" "http://www.w3.org/Graphics/SVG/1.1/DTD/svg11.dtd">
<svg width="72pt" height="72pt" viewBox="0 0 72 72" version="1.1" xmlns="http://www.w3.org/2000/svg">
<g id="#4d4d4dfe">
<path fill="#4d4d4d" opacity="1.00" d=" M 19.23 5.21 C 26.02 3.85 33.04 4.63 39.83 5.53 C 45.91 6.88 52.24 8.78 56.94 13.06 C 61.71 17.62 63.50 24.65 62.86 31.07 C 62.28 35.97 58.61 39.57 55.07 42.62 C 59.25 46.64 63.65 51.82 62.93 58.04 C 62.37 63.43 57.30 67.44 51.99 67.41 C 46.04 67.43 38.60 68.60 34.32 63.42 C 30.29 67.99 23.59 68.02 18.05 67.07 C 13.31 66.22 9.05 62.08 9.07 57.09 C 8.94 43.72 9.03 30.35 9.03 16.98 C 8.76 11.09 13.72 6.29 19.23 5.21 M 21.45 11.66 C 18.72 12.03 15.53 13.78 15.81 16.97 C 15.64 29.31 15.82 41.66 15.72 54.01 C 15.89 55.91 15.35 58.49 17.32 59.64 C 20.91 61.09 25.20 61.19 28.76 59.59 C 30.14 57.69 28.94 54.94 29.71 52.74 C 30.33 49.82 34.22 48.63 36.21 50.96 C 39.16 53.07 37.61 57.60 40.28 59.76 C 43.97 61.08 48.04 60.81 51.89 60.54 C 54.20 60.47 56.85 58.59 56.18 55.99 C 55.10 50.49 49.23 47.94 47.40 42.85 C 46.77 41.08 48.39 39.64 49.45 38.47 C 51.89 35.87 55.48 33.77 56.17 30.01 C 56.56 24.78 54.79 18.72 49.83 16.15 C 41.23 11.50 31.01 10.66 21.45 11.66 Z" />
<path fill="#4d4d4d" opacity="1.00" d=" M 31.28 25.34 C 34.96 23.04 39.09 27.21 38.25 31.02 C 38.61 34.54 34.62 37.36 31.54 35.41 C 28.65 33.09 28.25 27.70 31.28 25.34 Z" />
</g>
<g id="#eb9d1ffe">
<path fill="#eb9d1f" opacity="1.00" d=" M 21.45 11.66 C 31.01 10.66 41.23 11.50 49.83 16.15 C 54.79 18.72 56.56 24.78 56.17 30.01 C 55.48 33.77 51.89 35.87 49.45 38.47 C 48.39 39.64 46.77 41.08 47.40 42.85 C 49.23 47.94 55.10 50.49 56.18 55.99 C 56.85 58.59 54.20 60.47 51.89 60.54 C 48.04 60.81 43.97 61.08 40.28 59.76 C 37.61 57.60 39.16 53.07 36.21 50.96 C 34.22 48.63 30.33 49.82 29.71 52.74 C 28.94 54.94 30.14 57.69 28.76 59.59 C 25.20 61.19 20.91 61.09 17.32 59.64 C 15.35 58.49 15.89 55.91 15.72 54.01 C 15.82 41.66 15.64 29.31 15.81 16.97 C 15.53 13.78 18.72 12.03 21.45 11.66 M 31.28 25.34 C 28.25 27.70 28.65 33.09 31.54 35.41 C 34.62 37.36 38.61 34.54 38.25 31.02 C 39.09 27.21 34.96 23.04 31.28 25.34 Z" />
</g>
</svg>
