<?xml version="1.0" encoding="UTF-8" ?>
<!DOCTYPE svg PUBLIC "-//W3C//DTD SVG 1.1//EN" "http://www.w3.org/Graphics/SVG/1.1/DTD/svg11.dtd">
<svg width="256pt" height="256pt" viewBox="0 0 256 256" version="1.1" xmlns="http://www.w3.org/2000/svg">
<g id="#000000ff">
<path fill="#000000" opacity="1.00" d=" M 123.01 10.14 C 124.60 9.26 126.58 8.91 128.26 9.78 C 136.40 13.59 144.42 17.65 152.53 21.51 C 154.40 22.48 156.61 23.32 157.54 25.38 C 163.42 36.68 169.16 48.06 175.01 59.38 C 183.38 55.36 191.70 51.23 200.05 47.19 C 201.82 46.11 203.93 46.52 205.65 47.48 C 214.12 51.62 222.63 55.69 231.06 59.90 C 233.10 60.75 234.54 62.79 234.37 65.04 C 234.42 105.02 234.40 144.99 234.38 184.96 C 237.85 184.95 243.51 184.22 244.08 188.99 C 244.30 197.34 244.17 205.72 244.15 214.09 C 244.30 216.44 242.39 218.77 239.97 218.80 C 233.10 219.05 226.21 218.65 219.33 218.99 C 219.36 225.66 219.43 232.33 219.32 239.00 C 219.49 241.84 216.77 244.01 214.05 243.72 C 206.03 243.72 198.00 243.81 189.98 243.67 C 187.56 243.70 185.45 241.54 185.53 239.13 C 185.39 232.38 185.54 225.63 185.47 218.87 C 178.63 218.80 171.79 218.97 164.96 218.81 C 162.48 218.83 160.52 216.43 160.69 214.02 C 160.62 206.00 160.64 197.98 160.68 189.96 C 160.56 187.88 161.88 185.75 163.95 185.23 C 166.14 184.86 168.38 185.01 170.60 184.96 C 170.57 179.67 170.55 174.39 170.61 169.10 C 166.30 167.39 162.23 165.15 157.99 163.27 C 157.93 183.90 158.07 204.53 157.92 225.16 C 157.99 227.53 156.04 229.22 154.03 230.07 C 145.49 234.23 136.96 238.43 128.37 242.52 C 126.66 243.48 124.62 243.08 122.97 242.19 C 114.45 237.95 105.86 233.83 97.31 229.63 C 95.10 228.73 93.93 226.34 94.18 224.03 C 94.16 203.77 94.19 183.51 94.17 163.26 C 89.97 165.20 85.91 167.46 81.53 168.97 C 81.43 175.28 81.61 181.61 81.46 187.92 C 81.46 190.17 79.69 191.87 77.74 192.68 C 69.01 196.91 60.34 201.26 51.55 205.37 C 49.81 206.28 47.86 205.61 46.25 204.78 C 37.77 200.57 29.24 196.46 20.75 192.29 C 18.68 191.41 17.52 189.19 17.71 186.99 C 17.70 146.35 17.68 105.72 17.72 65.09 C 17.53 62.83 18.96 60.75 21.02 59.91 C 29.47 55.78 37.95 51.70 46.37 47.51 C 48.08 46.56 50.18 46.08 51.97 47.16 C 60.41 51.14 68.76 55.29 77.15 59.36 C 82.54 48.91 87.90 38.45 93.24 27.98 C 94.30 25.94 95.23 23.52 97.54 22.60 C 106.04 18.47 114.53 14.32 123.01 10.14 M 98.03 26.19 C 91.75 39.06 84.79 51.61 78.64 64.54 C 77.95 63.78 77.14 63.19 76.19 62.79 C 67.62 58.73 59.14 54.49 50.59 50.41 C 49.39 49.62 48.13 50.74 47.02 51.14 C 38.38 55.48 29.63 59.57 21.00 63.92 C 21.14 65.60 21.23 67.29 21.23 68.99 C 21.20 107.00 21.24 145.01 21.21 183.02 C 21.26 184.86 21.03 186.75 21.45 188.56 C 30.79 193.38 40.33 197.83 49.74 202.52 C 58.87 197.63 68.43 193.57 77.56 188.69 C 78.52 180.57 77.68 172.10 77.98 163.84 C 79.05 164.42 80.13 165.00 81.20 165.58 C 86.65 162.86 92.21 160.35 97.64 157.58 C 97.73 179.74 97.65 201.91 97.68 224.07 C 97.49 225.31 97.95 226.14 99.07 226.56 C 108.05 231.02 117.21 235.16 126.03 239.92 C 135.30 234.98 144.92 230.73 154.27 225.95 C 154.63 203.16 154.35 180.34 154.41 157.54 C 159.87 160.27 165.42 162.82 170.86 165.60 C 171.95 165.00 173.04 164.41 174.14 163.82 C 174.13 170.88 174.14 177.94 174.13 184.99 C 174.89 185.00 176.41 185.00 177.17 185.00 C 179.93 185.00 182.70 185.00 185.47 185.00 C 185.53 178.29 185.39 171.59 185.52 164.88 C 185.42 162.95 186.77 161.37 188.39 160.51 L 188.33 160.38 C 192.55 160.20 196.77 160.28 201.00 160.27 C 201.76 160.27 203.27 160.27 204.02 160.27 C 207.68 160.32 211.33 160.15 214.98 160.32 C 217.45 160.27 219.47 162.60 219.35 165.02 C 219.45 171.66 219.36 178.31 219.37 184.96 C 222.20 184.98 225.03 184.98 227.87 184.99 C 228.62 184.99 230.13 185.00 230.89 185.00 C 230.91 144.68 230.83 104.35 230.93 64.03 L 230.55 63.52 C 222.02 59.40 213.50 55.25 204.98 51.09 C 203.88 50.64 202.62 49.64 201.42 50.45 C 193.36 54.33 185.37 58.37 177.28 62.20 C 175.94 62.83 174.47 63.31 173.54 64.53 C 167.65 52.48 161.27 40.68 155.33 28.67 C 154.74 27.70 154.54 26.27 153.32 25.86 C 144.21 21.49 135.17 16.96 126.03 12.66 C 116.67 17.11 107.46 21.89 98.03 26.19 M 189.32 163.41 L 188.63 164.04 C 188.35 171.98 188.51 179.94 188.56 187.89 C 181.38 188.13 174.19 187.94 167.01 187.99 C 165.64 187.88 163.26 187.95 163.70 190.01 C 163.71 198.31 163.56 206.62 163.77 214.91 L 164.23 215.61 C 172.26 216.22 180.41 215.69 188.48 215.86 C 188.62 223.90 188.28 231.95 188.65 239.97 L 189.31 240.55 C 198.05 240.73 206.84 240.79 215.58 240.51 L 216.18 240.02 C 216.55 232.01 216.27 223.97 216.31 215.95 C 222.86 215.78 229.41 215.89 235.95 215.88 C 237.69 215.81 239.59 216.17 241.17 215.21 C 241.09 206.47 241.28 197.72 241.08 188.99 C 240.84 188.76 240.35 188.31 240.11 188.08 C 232.19 187.87 224.26 188.08 216.34 187.99 C 216.31 180.31 216.42 172.63 216.30 164.95 C 216.66 162.99 214.21 163.31 213.05 163.26 C 205.14 163.37 197.21 163.07 189.32 163.41 Z" />
</g>
<g id="#ffffffff">
<path fill="#ffffff" opacity="1.00" d=" M 98.03 26.19 C 107.46 21.89 116.67 17.11 126.03 12.66 C 135.17 16.96 144.21 21.49 153.32 25.86 C 154.54 26.27 154.74 27.70 155.33 28.67 C 161.27 40.68 167.65 52.48 173.54 64.53 C 174.47 63.31 175.94 62.83 177.28 62.20 C 185.37 58.37 193.36 54.33 201.42 50.45 C 202.62 49.64 203.88 50.64 204.98 51.09 C 213.50 55.25 222.02 59.40 230.55 63.52 L 230.93 64.03 C 230.83 104.35 230.91 144.68 230.89 185.00 C 230.13 185.00 228.62 184.99 227.87 184.99 C 227.88 145.77 227.86 106.54 227.85 67.32 L 227.18 67.69 C 220.30 70.96 213.50 74.38 206.62 77.64 C 205.17 78.42 203.34 78.99 202.71 80.68 C 195.87 94.14 188.93 107.57 182.07 121.02 C 180.88 123.46 179.60 125.85 178.10 128.11 C 176.53 126.99 175.03 125.78 173.70 124.40 C 166.77 117.54 159.74 110.77 152.78 103.94 C 144.40 108.08 135.97 112.11 127.57 116.23 C 127.57 146.60 127.54 176.96 127.58 207.33 C 127.56 216.75 127.56 226.18 127.58 235.60 C 135.55 231.80 143.48 227.90 151.41 223.99 C 151.41 203.19 151.42 182.40 151.39 161.60 C 151.62 155.95 150.96 150.25 151.81 144.63 C 155.18 145.31 157.00 148.56 159.48 150.62 C 163.36 154.40 167.22 158.19 171.10 161.97 C 175.22 159.84 179.63 158.19 183.52 155.66 C 189.90 144.06 195.36 131.92 201.96 120.44 C 202.49 120.68 203.54 121.17 204.07 121.41 C 203.98 134.36 204.05 147.31 204.02 160.27 C 203.27 160.27 201.76 160.27 201.00 160.27 C 201.13 150.03 200.72 139.78 201.24 129.55 C 200.78 129.56 200.32 129.57 199.86 129.59 C 196.24 139.01 190.75 147.64 186.49 156.80 C 184.36 159.89 180.27 160.52 177.20 162.36 C 177.11 169.91 177.19 177.45 177.17 185.00 C 176.41 185.00 174.89 185.00 174.13 184.99 C 174.14 177.94 174.13 170.88 174.14 163.82 C 173.04 164.41 171.95 165.00 170.86 165.60 C 165.42 162.82 159.87 160.27 154.41 157.54 C 154.35 180.34 154.63 203.16 154.27 225.95 C 144.92 230.73 135.30 234.98 126.03 239.92 C 117.21 235.16 108.05 231.02 99.07 226.56 C 97.95 226.14 97.49 225.31 97.68 224.07 C 97.65 201.91 97.73 179.74 97.64 157.58 C 92.21 160.35 86.65 162.86 81.20 165.58 C 80.13 165.00 79.05 164.42 77.98 163.84 C 77.68 172.10 78.52 180.57 77.56 188.69 C 68.43 193.57 58.87 197.63 49.74 202.52 C 40.33 197.83 30.79 193.38 21.45 188.56 C 21.03 186.75 21.26 184.86 21.21 183.02 C 21.24 145.01 21.20 107.00 21.23 68.99 C 21.23 67.29 21.14 65.60 21.00 63.92 C 29.63 59.57 38.38 55.48 47.02 51.14 C 48.13 50.74 49.39 49.62 50.59 50.41 C 59.14 54.49 67.62 58.73 76.19 62.79 C 77.14 63.19 77.95 63.78 78.64 64.54 C 84.79 51.61 91.75 39.06 98.03 26.19 M 117.07 20.39 C 113.08 22.10 109.30 24.25 105.40 26.14 L 104.97 26.02 C 104.26 26.50 103.54 26.99 102.83 27.47 C 106.53 29.03 110.11 30.84 113.79 32.42 C 117.86 34.58 122.10 37.28 126.79 37.53 C 131.09 36.38 135.17 34.35 139.06 32.19 C 142.47 30.64 145.82 28.96 149.26 27.48 C 148.52 26.98 147.79 26.48 147.05 25.99 L 146.70 26.10 C 142.80 24.18 139.00 22.06 135.02 20.30 C 132.04 18.88 129.09 17.38 126.14 15.89 C 123.12 17.41 120.10 18.91 117.07 20.39 M 97.14 34.60 C 96.47 35.96 95.79 37.32 95.12 38.68 C 94.09 40.62 93.06 42.56 92.09 44.54 C 91.09 46.53 90.04 48.50 89.04 50.49 C 88.03 52.49 86.99 54.48 85.97 56.48 C 84.93 58.56 83.84 60.61 82.79 62.68 C 82.11 64.03 81.43 65.38 80.75 66.74 C 82.66 68.53 84.36 70.58 86.44 72.18 C 91.07 77.00 96.00 81.51 100.68 86.29 C 101.56 84.64 102.40 82.98 103.26 81.32 C 104.06 79.83 104.80 78.30 105.48 76.75 L 105.67 76.89 C 106.61 74.79 107.63 72.72 108.63 70.65 L 108.78 70.79 C 109.73 68.72 110.73 66.67 111.73 64.62 L 111.87 64.73 C 112.84 62.68 113.82 60.64 114.80 58.60 L 114.95 58.71 C 116.01 56.56 116.98 54.36 118.04 52.20 C 118.86 50.96 119.50 49.61 120.10 48.25 C 121.03 47.09 121.49 45.67 121.90 44.26 C 114.95 39.27 107.47 34.97 100.03 30.74 C 98.69 31.73 97.77 33.08 97.14 34.60 M 136.89 39.85 C 134.58 41.14 132.29 42.48 130.21 44.12 C 130.80 46.08 131.56 47.98 132.58 49.75 C 133.51 51.42 134.34 53.15 135.16 54.89 L 135.37 54.74 C 136.33 56.80 137.30 58.86 138.25 60.92 L 138.45 60.79 C 139.38 62.77 140.33 64.75 141.26 66.75 L 141.40 66.62 C 142.34 68.59 143.31 70.56 144.32 72.50 C 145.16 74.12 146.00 75.74 146.85 77.35 C 147.53 78.68 148.21 80.02 148.90 81.35 C 149.73 82.99 150.56 84.64 151.37 86.30 C 155.81 81.90 160.39 77.65 164.71 73.12 C 167.11 71.24 169.10 68.86 171.35 66.79 C 170.89 65.83 170.43 64.87 169.97 63.91 C 168.99 62.07 168.03 60.22 167.09 58.35 C 166.09 56.38 165.06 54.43 164.07 52.46 C 163.08 50.48 162.04 48.52 161.04 46.55 C 160.06 44.59 159.02 42.66 158.05 40.70 C 157.10 38.63 155.94 36.66 154.85 34.66 C 154.30 33.07 153.38 31.69 152.00 30.71 C 146.74 33.38 142.02 36.96 136.89 39.85 M 127.57 46.88 C 127.55 60.48 127.60 74.09 127.54 87.69 C 132.25 90.28 137.13 92.57 141.97 94.93 C 146.28 97.22 150.92 98.91 155.03 101.54 C 160.01 91.80 165.07 82.10 169.97 72.32 C 163.62 78.46 157.46 84.82 150.89 90.74 C 149.00 89.42 148.32 87.13 147.25 85.20 C 140.71 72.42 134.21 59.61 127.57 46.88 M 104.15 86.62 C 103.33 88.12 102.75 89.92 101.06 90.68 C 94.63 84.66 88.42 78.40 82.09 72.26 C 87.04 82.08 92.13 91.83 97.10 101.65 C 100.53 99.13 104.73 97.92 108.42 95.82 C 113.75 93.23 119.09 90.67 124.30 87.84 C 124.28 74.33 124.30 60.82 124.29 47.31 C 117.56 60.41 110.81 73.49 104.15 86.62 M 41.20 57.36 C 37.86 58.88 34.66 60.69 31.31 62.19 C 29.56 62.89 27.88 63.76 26.27 64.74 C 28.82 65.95 31.36 67.18 33.93 68.33 C 37.50 70.45 41.42 71.87 45.17 73.61 C 48.08 74.99 51.63 74.81 54.49 73.40 C 58.07 71.83 61.77 70.48 65.12 68.43 C 67.73 67.27 70.28 65.98 72.87 64.76 C 71.27 63.77 69.63 62.86 67.93 62.05 L 67.66 62.12 C 64.40 60.47 61.15 58.82 57.88 57.19 L 57.71 57.25 C 55.04 55.85 52.33 54.55 49.63 53.21 C 46.83 54.62 44.03 56.03 41.20 57.36 M 194.40 57.24 C 192.31 58.23 190.24 59.25 188.17 60.27 C 185.38 61.80 181.98 62.61 179.81 65.00 C 180.82 65.51 181.85 65.99 182.89 66.45 C 186.08 68.02 189.22 70.00 192.71 70.77 C 195.44 73.25 199.26 74.34 202.70 75.41 C 205.98 74.09 209.76 73.29 212.36 70.78 C 215.87 70.02 219.04 68.06 222.20 66.42 C 223.43 65.91 224.57 65.23 225.71 64.56 C 222.74 63.17 219.87 61.56 216.87 60.23 C 214.79 59.21 212.73 58.18 210.63 57.20 C 207.98 55.88 205.30 54.60 202.68 53.22 C 199.89 54.50 197.17 55.93 194.40 57.24 M 24.24 186.72 C 32.20 190.56 40.14 194.43 48.07 198.32 C 48.09 174.55 48.09 150.78 48.07 127.01 C 48.17 124.73 47.62 122.24 48.97 120.23 C 51.33 121.19 52.05 123.73 53.16 125.78 C 58.31 135.74 63.34 145.77 68.56 155.69 C 72.49 158.16 76.91 159.78 81.01 161.98 C 85.14 157.96 89.25 153.92 93.39 149.90 C 94.83 148.51 96.20 147.05 97.69 145.71 C 98.44 144.46 100.75 144.49 100.63 146.27 C 100.82 159.04 100.61 171.81 100.73 184.58 C 100.67 197.72 100.71 210.85 100.71 223.99 C 108.56 227.85 116.46 231.61 124.30 235.50 C 124.30 233.78 124.29 232.06 124.27 230.35 C 124.33 192.29 124.26 154.23 124.30 116.17 C 116.06 111.95 107.67 108.03 99.37 103.91 C 93.03 110.15 86.63 116.34 80.26 122.56 C 78.52 124.23 76.88 126.03 74.99 127.55 C 73.26 128.40 72.78 125.99 72.06 124.98 C 64.30 109.72 56.43 94.53 48.68 79.28 C 40.56 75.20 32.40 71.22 24.21 67.31 C 24.31 107.11 24.19 146.91 24.24 186.72 M 62.65 75.76 C 59.64 77.76 56.02 79.04 53.71 81.94 C 54.18 83.24 54.66 84.55 55.13 85.86 L 55.56 85.57 C 56.40 87.60 57.29 89.62 58.21 91.63 L 58.40 91.46 C 59.05 92.84 59.72 94.21 60.39 95.59 C 61.14 97.01 61.88 98.45 62.63 99.88 C 63.45 101.48 64.26 103.09 65.07 104.70 L 65.14 104.65 C 66.14 106.71 67.16 108.76 68.16 110.82 L 68.27 110.74 C 69.22 112.72 70.20 114.68 71.18 116.65 L 71.24 116.60 C 72.41 118.96 73.56 121.33 74.81 123.66 C 81.70 117.13 88.36 110.35 95.22 103.80 C 94.99 103.27 94.54 102.23 94.32 101.70 C 93.36 99.90 92.44 98.08 91.59 96.23 L 90.97 96.51 L 91.52 96.20 C 90.41 94.10 89.29 92.00 88.21 89.88 C 87.49 88.40 86.74 86.93 85.99 85.47 C 85.16 83.85 84.31 82.23 83.46 80.62 C 82.79 79.28 82.11 77.95 81.42 76.62 C 80.60 74.88 79.71 73.18 78.79 71.50 C 78.18 70.00 77.25 67.38 75.14 68.28 C 70.70 70.26 66.87 73.37 62.65 75.76 M 175.32 68.20 C 174.05 69.86 172.93 71.64 172.21 73.61 C 171.21 75.56 170.17 77.49 169.21 79.45 C 168.17 81.49 167.09 83.50 166.07 85.54 C 165.30 87.08 164.50 88.61 163.68 90.13 L 163.79 90.20 C 162.81 91.96 161.87 93.73 160.96 95.53 C 160.26 96.92 159.55 98.30 158.85 99.69 C 158.17 101.02 157.48 102.35 156.80 103.67 C 158.87 105.69 160.90 107.74 163.02 109.70 C 167.78 114.36 172.49 119.06 177.31 123.66 C 178.17 122.00 179.00 120.32 179.82 118.65 L 179.89 118.70 C 180.54 117.36 181.19 116.01 181.86 114.67 L 181.91 114.72 C 182.78 112.94 183.67 111.17 184.58 109.42 C 185.35 107.94 186.10 106.45 186.83 104.95 L 186.90 105.00 C 187.75 103.26 188.62 101.53 189.52 99.82 C 190.56 97.82 191.56 95.80 192.60 93.80 C 193.69 91.83 194.67 89.79 195.56 87.72 L 195.88 87.94 C 196.84 85.76 197.74 83.56 198.52 81.32 C 191.75 77.59 185.35 73.24 178.73 69.27 C 177.71 68.58 176.49 68.40 175.32 68.20 M 118.26 94.40 C 115.55 95.62 112.91 97.00 110.22 98.28 C 107.67 99.40 105.21 100.70 102.73 101.98 C 104.47 102.81 106.18 103.70 107.96 104.43 C 111.06 106.10 114.20 107.88 117.62 108.78 C 119.95 110.81 122.99 112.05 126.00 112.62 C 128.93 112.06 132.25 111.08 134.26 108.75 C 137.83 108.13 141.09 106.16 144.22 104.39 C 145.65 103.62 147.98 103.18 148.76 101.94 C 146.95 100.25 144.15 99.45 141.89 98.25 C 139.20 96.95 136.56 95.56 133.85 94.31 C 131.23 93.06 128.65 91.74 126.01 90.53 C 123.44 91.86 120.84 93.12 118.26 94.40 M 51.21 128.57 C 51.25 151.84 51.13 175.11 51.24 198.38 C 51.57 198.19 52.21 197.79 52.53 197.59 C 60.05 194.09 67.46 190.35 74.93 186.74 C 74.97 178.62 74.98 170.49 74.91 162.36 C 72.32 161.14 69.80 159.75 67.13 158.71 C 66.41 157.81 65.69 156.89 65.18 155.86 C 60.55 146.75 55.84 137.68 51.21 128.57 M 89.79 158.07 C 92.39 156.86 94.96 155.58 97.49 154.24 C 97.49 153.25 97.48 151.28 97.48 150.30 C 94.97 152.94 92.13 155.26 89.79 158.07 M 154.66 150.32 C 154.66 151.32 154.66 153.30 154.66 154.30 C 157.18 155.60 159.73 156.84 162.30 158.06 C 159.93 155.30 157.21 152.90 154.66 150.32 Z" />
<path fill="#ffffff" opacity="1.00" d=" M 189.32 163.41 C 197.21 163.07 205.14 163.37 213.05 163.26 C 214.21 163.31 216.66 162.99 216.30 164.95 C 216.42 172.63 216.31 180.31 216.34 187.99 C 224.26 188.08 232.19 187.87 240.11 188.08 C 240.35 188.31 240.84 188.76 241.08 188.99 C 241.28 197.72 241.09 206.47 241.17 215.21 C 239.59 216.17 237.69 215.81 235.95 215.88 C 229.41 215.89 222.86 215.78 216.31 215.95 C 216.27 223.97 216.55 232.01 216.18 240.02 L 215.58 240.51 C 206.84 240.79 198.05 240.73 189.31 240.55 L 188.65 239.97 C 188.28 231.95 188.62 223.90 188.48 215.86 C 180.41 215.69 172.26 216.22 164.23 215.61 L 163.77 214.91 C 163.56 206.62 163.71 198.31 163.70 190.01 C 163.26 187.95 165.64 187.88 167.01 187.99 C 174.19 187.94 181.38 188.13 188.56 187.89 C 188.51 179.94 188.35 171.98 188.63 164.04 L 189.32 163.41 M 191.47 166.46 C 191.62 174.39 191.41 182.34 191.58 190.28 C 191.22 190.47 190.50 190.87 190.14 191.07 C 182.33 191.07 174.52 191.06 166.71 191.08 C 166.69 194.84 166.69 198.60 166.72 202.37 C 166.69 204.64 166.69 206.91 166.71 209.18 C 166.72 210.40 166.72 211.62 166.73 212.84 C 174.57 212.82 182.41 213.04 190.25 212.87 C 192.76 214.19 190.98 217.80 191.53 220.08 C 191.55 223.43 191.49 226.77 191.53 230.11 C 191.54 232.63 191.52 235.15 191.51 237.67 C 198.76 237.64 206.00 237.65 213.25 237.74 C 213.37 234.78 213.33 231.82 213.32 228.86 C 213.34 225.78 213.31 222.70 213.32 219.62 C 213.33 217.36 213.13 215.07 213.77 212.88 C 221.89 212.85 230.01 212.96 238.14 212.97 C 238.17 207.64 238.12 202.31 238.13 196.99 C 238.14 195.18 238.14 193.37 238.15 191.56 L 238.09 191.00 C 229.99 191.03 221.88 191.05 213.78 191.00 C 213.25 189.38 213.26 187.67 213.29 185.99 C 213.34 183.89 213.33 181.80 213.31 179.70 C 213.35 175.29 213.28 170.88 213.37 166.47 C 206.07 166.22 198.76 166.27 191.47 166.46 Z" />
</g>
<g id="#4e4e4eff">
<path fill="#4e4e4e" opacity="1.00" d=" M 117.07 20.39 C 120.10 18.91 123.12 17.41 126.14 15.89 C 129.09 17.38 132.04 18.88 135.02 20.30 C 132.37 22.11 129.08 21.51 126.08 21.63 C 123.05 21.55 119.81 22.01 117.07 20.39 Z" />
</g>
<g id="#787878ff">
<path fill="#787878" opacity="1.00" d=" M 105.40 26.14 C 109.30 24.25 113.08 22.10 117.07 20.39 C 119.81 22.01 123.05 21.55 126.08 21.63 C 129.08 21.51 132.37 22.11 135.02 20.30 C 139.00 22.06 142.80 24.18 146.70 26.10 C 140.69 29.04 134.21 25.51 127.96 26.92 C 123.62 27.88 119.25 26.01 114.91 27.02 C 111.71 27.77 108.48 27.11 105.40 26.14 Z" />
</g>
<g id="#a2a2a2ff">
<path fill="#a2a2a2" opacity="1.00" d=" M 102.83 27.47 C 103.54 26.99 104.26 26.50 104.97 26.02 L 105.40 26.14 C 108.48 27.11 111.71 27.77 114.91 27.02 C 119.25 26.01 123.62 27.88 127.96 26.92 C 134.21 25.51 140.69 29.04 146.70 26.10 L 147.05 25.99 C 147.79 26.48 148.52 26.98 149.26 27.48 C 145.82 28.96 142.47 30.64 139.06 32.19 C 134.68 32.96 130.35 31.25 125.97 31.83 C 121.94 32.38 117.86 32.57 113.79 32.42 C 110.11 30.84 106.53 29.03 102.83 27.47 Z" />
</g>
<g id="#e9e9e9ff">
<path fill="#e9e9e9" opacity="1.00" d=" M 97.14 34.60 C 97.77 33.08 98.69 31.73 100.03 30.74 C 107.47 34.97 114.95 39.27 121.90 44.26 C 121.49 45.67 121.03 47.09 120.10 48.25 C 112.46 43.69 105.18 38.47 97.14 34.60 Z" />
<path fill="#e9e9e9" opacity="1.00" d=" M 136.89 39.85 C 142.02 36.96 146.74 33.38 152.00 30.71 C 153.38 31.69 154.30 33.07 154.85 34.66 C 149.89 37.36 145.26 40.62 140.35 43.41 C 137.49 45.14 134.17 46.60 132.58 49.75 C 131.56 47.98 130.80 46.08 130.21 44.12 C 132.29 42.48 134.58 41.14 136.89 39.85 Z" />
</g>
<g id="#ccccccff">
<path fill="#cccccc" opacity="1.00" d=" M 113.79 32.42 C 117.86 32.57 121.94 32.38 125.97 31.83 C 130.35 31.25 134.68 32.96 139.06 32.19 C 135.17 34.35 131.09 36.38 126.79 37.53 C 122.10 37.28 117.86 34.58 113.79 32.42 Z" />
<path fill="#cccccc" opacity="1.00" d=" M 55.56 85.57 C 63.20 80.72 70.73 75.64 78.79 71.50 C 79.71 73.18 80.60 74.88 81.42 76.62 C 75.91 80.00 70.54 83.61 64.90 86.77 C 62.55 88.06 60.35 89.62 58.40 91.46 L 58.21 91.63 C 57.29 89.62 56.40 87.60 55.56 85.57 Z" />
</g>
<g id="#d0d0d0ff">
<path fill="#d0d0d0" opacity="1.00" d=" M 97.14 34.60 C 105.18 38.47 112.46 43.69 120.10 48.25 C 119.50 49.61 118.86 50.96 118.04 52.20 C 110.21 48.01 103.11 42.58 95.12 38.68 C 95.79 37.32 96.47 35.96 97.14 34.60 Z" />
</g>
<g id="#c9c9c9ff">
<path fill="#c9c9c9" opacity="1.00" d=" M 140.35 43.41 C 145.26 40.62 149.89 37.36 154.85 34.66 C 155.94 36.66 157.10 38.63 158.05 40.70 C 150.48 45.36 142.77 49.80 135.37 54.74 L 135.16 54.89 C 134.34 53.15 133.51 51.42 132.58 49.75 C 134.17 46.60 137.49 45.14 140.35 43.41 Z" />
</g>
<g id="#b2b2b2ff">
<path fill="#b2b2b2" opacity="1.00" d=" M 95.12 38.68 C 103.11 42.58 110.21 48.01 118.04 52.20 C 116.98 54.36 116.01 56.56 114.95 58.71 L 114.80 58.60 C 107.51 53.49 99.87 48.86 92.09 44.54 C 93.06 42.56 94.09 40.62 95.12 38.68 Z" />
</g>
<g id="#a4a4a4ff">
<path fill="#a4a4a4" opacity="1.00" d=" M 135.37 54.74 C 142.77 49.80 150.48 45.36 158.05 40.70 C 159.02 42.66 160.06 44.59 161.04 46.55 C 153.49 51.27 145.64 55.52 138.45 60.79 L 138.25 60.92 C 137.30 58.86 136.33 56.80 135.37 54.74 Z" />
</g>
<g id="#8e8e8eff">
<path fill="#8e8e8e" opacity="1.00" d=" M 92.09 44.54 C 99.87 48.86 107.51 53.49 114.80 58.60 C 113.82 60.64 112.84 62.68 111.87 64.73 L 111.73 64.62 C 104.51 59.41 96.78 54.90 89.04 50.49 C 90.04 48.50 91.09 46.53 92.09 44.54 Z" />
</g>
<g id="#00c1d3ff">
<path fill="#00c1d3" opacity="1.00" d=" M 127.57 46.88 C 134.21 59.61 140.71 72.42 147.25 85.20 C 145.28 88.32 143.54 91.58 141.97 94.93 C 137.13 92.57 132.25 90.28 127.54 87.69 C 127.60 74.09 127.55 60.48 127.57 46.88 Z" />
</g>
<g id="#828282ff">
<path fill="#828282" opacity="1.00" d=" M 138.45 60.79 C 145.64 55.52 153.49 51.27 161.04 46.55 C 162.04 48.52 163.08 50.48 164.07 52.46 C 160.64 54.10 157.37 56.04 154.21 58.15 C 149.97 61.01 145.13 63.02 141.40 66.62 L 141.26 66.75 C 140.33 64.75 139.38 62.77 138.45 60.79 Z" />
</g>
<g id="#00c0d3ff">
<path fill="#00c0d3" opacity="1.00" d=" M 104.15 86.62 C 110.81 73.49 117.56 60.41 124.29 47.31 C 124.30 60.82 124.28 74.33 124.30 87.84 C 119.09 90.67 113.75 93.23 108.42 95.82 C 107.39 92.58 105.94 89.50 104.15 86.62 Z" />
</g>
<g id="#6a6a6aff">
<path fill="#6a6a6a" opacity="1.00" d=" M 89.04 50.49 C 96.78 54.90 104.51 59.41 111.73 64.62 C 110.73 66.67 109.73 68.72 108.78 70.79 L 108.63 70.65 C 105.49 67.51 101.38 65.68 97.72 63.26 C 93.93 60.79 90.03 58.48 85.97 56.48 C 86.99 54.48 88.03 52.49 89.04 50.49 Z" />
</g>
<g id="#5e5e5eff">
<path fill="#5e5e5e" opacity="1.00" d=" M 154.21 58.15 C 157.37 56.04 160.64 54.10 164.07 52.46 C 165.06 54.43 166.09 56.38 167.09 58.35 C 163.86 59.96 160.72 61.74 157.73 63.75 C 153.31 66.75 148.35 68.94 144.32 72.50 C 143.31 70.56 142.34 68.59 141.40 66.62 C 145.13 63.02 149.97 61.01 154.21 58.15 Z" />
</g>
<g id="#4b4b4bff">
<path fill="#4b4b4b" opacity="1.00" d=" M 41.20 57.36 C 44.03 56.03 46.83 54.62 49.63 53.21 C 52.33 54.55 55.04 55.85 57.71 57.25 C 52.49 59.17 46.48 59.00 41.20 57.36 Z" />
<path fill="#4b4b4b" opacity="1.00" d=" M 194.40 57.24 C 197.17 55.93 199.89 54.50 202.68 53.22 C 205.30 54.60 207.98 55.88 210.63 57.20 C 205.35 58.90 199.73 58.37 194.40 57.24 Z" />
</g>
<g id="#6d6d6dff">
<path fill="#6d6d6d" opacity="1.00" d=" M 31.31 62.19 C 34.66 60.69 37.86 58.88 41.20 57.36 C 46.48 59.00 52.49 59.17 57.71 57.25 L 57.88 57.19 C 61.15 58.82 64.40 60.47 67.66 62.12 C 62.57 63.88 57.22 63.41 52.00 62.67 C 45.13 63.11 38.04 64.41 31.31 62.19 Z" />
</g>
<g id="#454545ff">
<path fill="#454545" opacity="1.00" d=" M 85.97 56.48 C 90.03 58.48 93.93 60.79 97.72 63.26 C 101.38 65.68 105.49 67.51 108.63 70.65 C 107.63 72.72 106.61 74.79 105.67 76.89 L 105.48 76.75 C 98.08 71.82 90.47 67.18 82.79 62.68 C 83.84 60.61 84.93 58.56 85.97 56.48 Z" />
</g>
<g id="#656565ff">
<path fill="#656565" opacity="1.00" d=" M 188.17 60.27 C 190.24 59.25 192.31 58.23 194.40 57.24 C 199.73 58.37 205.35 58.90 210.63 57.20 C 212.73 58.18 214.79 59.21 216.87 60.23 C 212.52 62.23 207.65 61.25 203.04 61.43 C 198.09 61.18 192.88 62.28 188.17 60.27 Z" />
</g>
<g id="#3c3c3cff">
<path fill="#3c3c3c" opacity="1.00" d=" M 157.73 63.75 C 160.72 61.74 163.86 59.96 167.09 58.35 C 168.03 60.22 168.99 62.07 169.97 63.91 C 161.90 67.76 154.95 73.54 146.85 77.35 C 146.00 75.74 145.16 74.12 144.32 72.50 C 148.35 68.94 153.31 66.75 157.73 63.75 Z" />
</g>
<g id="#868686ff">
<path fill="#868686" opacity="1.00" d=" M 179.81 65.00 C 181.98 62.61 185.38 61.80 188.17 60.27 C 192.88 62.28 198.09 61.18 203.04 61.43 C 207.65 61.25 212.52 62.23 216.87 60.23 C 219.87 61.56 222.74 63.17 225.71 64.56 C 224.57 65.23 223.43 65.91 222.20 66.42 C 217.11 66.83 212.06 65.12 206.99 66.11 C 203.00 66.70 198.96 66.38 194.99 65.83 C 190.94 65.19 186.93 66.39 182.89 66.45 C 181.85 65.99 180.82 65.51 179.81 65.00 Z" />
</g>
<g id="#979797ff">
<path fill="#979797" opacity="1.00" d=" M 26.27 64.74 C 27.88 63.76 29.56 62.89 31.31 62.19 C 38.04 64.41 45.13 63.11 52.00 62.67 C 57.22 63.41 62.57 63.88 67.66 62.12 L 67.93 62.05 C 69.63 62.86 71.27 63.77 72.87 64.76 C 70.28 65.98 67.73 67.27 65.12 68.43 C 54.76 67.14 44.31 67.50 33.93 68.33 C 31.36 67.18 28.82 65.95 26.27 64.74 Z" />
</g>
<g id="#232323ff">
<path fill="#232323" opacity="1.00" d=" M 82.79 62.68 C 90.47 67.18 98.08 71.82 105.48 76.75 C 104.80 78.30 104.06 79.83 103.26 81.32 C 97.50 78.54 92.80 73.59 86.44 72.18 C 84.36 70.58 82.66 68.53 80.75 66.74 C 81.43 65.38 82.11 64.03 82.79 62.68 Z" />
</g>
<g id="#1e1e1eff">
<path fill="#1e1e1e" opacity="1.00" d=" M 146.85 77.35 C 154.95 73.54 161.90 67.76 169.97 63.91 C 170.43 64.87 170.89 65.83 171.35 66.79 C 169.10 68.86 167.11 71.24 164.71 73.12 C 158.81 74.53 154.52 79.24 148.90 81.35 C 148.21 80.02 147.53 78.68 146.85 77.35 Z" />
</g>
<g id="#b1b1b1ff">
<path fill="#b1b1b1" opacity="1.00" d=" M 182.89 66.45 C 186.93 66.39 190.94 65.19 194.99 65.83 C 198.96 66.38 203.00 66.70 206.99 66.11 C 212.06 65.12 217.11 66.83 222.20 66.42 C 219.04 68.06 215.87 70.02 212.36 70.78 C 205.82 70.49 199.26 70.48 192.71 70.77 C 189.22 70.00 186.08 68.02 182.89 66.45 Z" />
</g>
<g id="#009ed3ff">
<path fill="#009ed3" opacity="1.00" d=" M 24.24 186.72 C 24.19 146.91 24.31 107.11 24.21 67.31 C 27.39 78.32 33.99 87.92 38.57 98.36 C 41.60 105.85 45.51 112.93 48.97 120.23 C 47.62 122.24 48.17 124.73 48.07 127.01 C 48.09 150.78 48.09 174.55 48.07 198.32 C 40.14 194.43 32.20 190.56 24.24 186.72 Z" />
</g>
<g id="#00b1d3ff">
<path fill="#00b1d3" opacity="1.00" d=" M 24.21 67.31 C 32.40 71.22 40.56 75.20 48.68 79.28 C 56.43 94.53 64.30 109.72 72.06 124.98 C 72.78 125.99 73.26 128.40 74.99 127.55 C 76.88 126.03 78.52 124.23 80.26 122.56 C 84.49 131.74 89.87 140.40 93.39 149.90 C 89.25 153.92 85.14 157.96 81.01 161.98 C 76.91 159.78 72.49 158.16 68.56 155.69 C 63.34 145.77 58.31 135.74 53.16 125.78 C 52.05 123.73 51.33 121.19 48.97 120.23 C 45.51 112.93 41.60 105.85 38.57 98.36 C 33.99 87.92 27.39 78.32 24.21 67.31 Z" />
</g>
<g id="#c1c1c1ff">
<path fill="#c1c1c1" opacity="1.00" d=" M 33.93 68.33 C 44.31 67.50 54.76 67.14 65.12 68.43 C 61.77 70.48 58.07 71.83 54.49 73.40 C 51.63 74.81 48.08 74.99 45.17 73.61 C 41.42 71.87 37.50 70.45 33.93 68.33 Z" />
</g>
<g id="#eaeaeaff">
<path fill="#eaeaea" opacity="1.00" d=" M 62.65 75.76 C 66.87 73.37 70.70 70.26 75.14 68.28 C 77.25 67.38 78.18 70.00 78.79 71.50 C 70.73 75.64 63.20 80.72 55.56 85.57 L 55.13 85.86 C 54.66 84.55 54.18 83.24 53.71 81.94 C 56.02 79.04 59.64 77.76 62.65 75.76 Z" />
</g>
<g id="#e3e3e3ff">
<path fill="#e3e3e3" opacity="1.00" d=" M 175.32 68.20 C 176.49 68.40 177.71 68.58 178.73 69.27 C 185.35 73.24 191.75 77.59 198.52 81.32 C 197.74 83.56 196.84 85.76 195.88 87.94 L 195.56 87.72 C 187.89 82.84 180.40 77.60 172.21 73.61 C 172.93 71.64 174.05 69.86 175.32 68.20 Z" />
</g>
<g id="#00b0d3ff">
<path fill="#00b0d3" opacity="1.00" d=" M 206.62 77.64 C 213.50 74.38 220.30 70.96 227.18 67.69 C 226.90 71.02 227.20 74.55 225.72 77.66 C 221.61 86.23 216.86 94.49 213.27 103.30 C 210.49 109.48 207.37 115.50 204.07 121.41 C 203.54 121.17 202.49 120.68 201.96 120.44 C 195.36 131.92 189.90 144.06 183.52 155.66 C 179.63 158.19 175.22 159.84 171.10 161.97 C 167.22 158.19 163.36 154.40 159.48 150.62 C 163.33 143.66 166.83 136.50 170.27 129.32 C 171.12 127.49 172.39 125.91 173.70 124.40 C 175.03 125.78 176.53 126.99 178.10 128.11 C 179.60 125.85 180.88 123.46 182.07 121.02 C 188.93 107.57 195.87 94.14 202.71 80.68 C 203.34 78.99 205.17 78.42 206.62 77.64 Z" />
<path fill="#00b0d3" opacity="1.00" d=" M 150.89 90.74 C 157.46 84.82 163.62 78.46 169.97 72.32 C 165.07 82.10 160.01 91.80 155.03 101.54 C 150.92 98.91 146.28 97.22 141.97 94.93 C 143.54 91.58 145.28 88.32 147.25 85.20 C 148.32 87.13 149.00 89.42 150.89 90.74 Z" />
</g>
<g id="#00a0d3ff">
<path fill="#00a0d3" opacity="1.00" d=" M 227.18 67.69 L 227.85 67.32 C 227.86 106.54 227.88 145.77 227.87 184.99 C 225.03 184.98 222.20 184.98 219.37 184.96 C 219.36 178.31 219.45 171.66 219.35 165.02 C 219.47 162.60 217.45 160.27 214.98 160.32 C 211.33 160.15 207.68 160.32 204.02 160.27 C 204.05 147.31 203.98 134.36 204.07 121.41 C 207.37 115.50 210.49 109.48 213.27 103.30 C 216.86 94.49 221.61 86.23 225.72 77.66 C 227.20 74.55 226.90 71.02 227.18 67.69 Z" />
</g>
<g id="#d2d2d2ff">
<path fill="#d2d2d2" opacity="1.00" d=" M 192.71 70.77 C 199.26 70.48 205.82 70.49 212.36 70.78 C 209.76 73.29 205.98 74.09 202.70 75.41 C 199.26 74.34 195.44 73.25 192.71 70.77 Z" />
</g>
<g id="#00afd3ff">
<path fill="#00afd3" opacity="1.00" d=" M 82.09 72.26 C 88.42 78.40 94.63 84.66 101.06 90.68 C 102.75 89.92 103.33 88.12 104.15 86.62 C 105.94 89.50 107.39 92.58 108.42 95.82 C 104.73 97.92 100.53 99.13 97.10 101.65 C 92.13 91.83 87.04 82.08 82.09 72.26 Z" />
</g>
<g id="#0a0a0aff">
<path fill="#0a0a0a" opacity="1.00" d=" M 86.44 72.18 C 92.80 73.59 97.50 78.54 103.26 81.32 C 102.40 82.98 101.56 84.64 100.68 86.29 C 96.00 81.51 91.07 77.00 86.44 72.18 Z" />
</g>
<g id="#080808ff">
<path fill="#080808" opacity="1.00" d=" M 148.90 81.35 C 154.52 79.24 158.81 74.53 164.71 73.12 C 160.39 77.65 155.81 81.90 151.37 86.30 C 150.56 84.64 149.73 82.99 148.90 81.35 Z" />
</g>
<g id="#bfbfbfff">
<path fill="#bfbfbf" opacity="1.00" d=" M 172.21 73.61 C 180.40 77.60 187.89 82.84 195.56 87.72 C 194.67 89.79 193.69 91.83 192.60 93.80 C 185.18 88.46 177.35 83.62 169.21 79.45 C 170.17 77.49 171.21 75.56 172.21 73.61 Z" />
</g>
<g id="#b0b0b0ff">
<path fill="#b0b0b0" opacity="1.00" d=" M 64.90 86.77 C 70.54 83.61 75.91 80.00 81.42 76.62 C 82.11 77.95 82.79 79.28 83.46 80.62 C 77.60 84.39 71.77 88.23 65.69 91.65 C 63.76 92.73 62.04 94.13 60.39 95.59 C 59.72 94.21 59.05 92.84 58.40 91.46 C 60.35 89.62 62.55 88.06 64.90 86.77 Z" />
</g>
<g id="#9b9b9bff">
<path fill="#9b9b9b" opacity="1.00" d=" M 169.21 79.45 C 177.35 83.62 185.18 88.46 192.60 93.80 C 191.56 95.80 190.56 97.82 189.52 99.82 C 182.04 94.56 174.26 89.63 166.07 85.54 C 167.09 83.50 168.17 81.49 169.21 79.45 Z" />
</g>
<g id="#969696ff">
<path fill="#969696" opacity="1.00" d=" M 65.69 91.65 C 71.77 88.23 77.60 84.39 83.46 80.62 C 84.31 82.23 85.16 83.85 85.99 85.47 C 80.37 88.12 75.39 91.87 69.97 94.90 C 67.39 96.35 64.96 98.05 62.63 99.88 C 61.88 98.45 61.14 97.01 60.39 95.59 C 62.04 94.13 63.76 92.73 65.69 91.65 Z" />
</g>
<g id="#7a7a7aff">
<path fill="#7a7a7a" opacity="1.00" d=" M 69.97 94.90 C 75.39 91.87 80.37 88.12 85.99 85.47 C 86.74 86.93 87.49 88.40 88.21 89.88 C 80.79 95.22 72.51 99.22 65.14 104.65 L 65.07 104.70 C 64.26 103.09 63.45 101.48 62.63 99.88 C 64.96 98.05 67.39 96.35 69.97 94.90 Z" />
</g>
<g id="#797979ff">
<path fill="#797979" opacity="1.00" d=" M 166.07 85.54 C 174.26 89.63 182.04 94.56 189.52 99.82 C 188.62 101.53 187.75 103.26 186.90 105.00 L 186.83 104.95 C 179.47 99.53 171.29 95.40 163.79 90.20 L 163.68 90.13 C 164.50 88.61 165.30 87.08 166.07 85.54 Z" />
</g>
<g id="#595959ff">
<path fill="#595959" opacity="1.00" d=" M 65.14 104.65 C 72.51 99.22 80.79 95.22 88.21 89.88 C 89.29 92.00 90.41 94.10 91.52 96.20 L 90.97 96.51 C 83.31 101.10 75.52 105.53 68.27 110.74 L 68.16 110.82 C 67.16 108.76 66.14 106.71 65.14 104.65 Z" />
</g>
<g id="#494949ff">
<path fill="#494949" opacity="1.00" d=" M 118.26 94.40 C 120.84 93.12 123.44 91.86 126.01 90.53 C 128.65 91.74 131.23 93.06 133.85 94.31 C 128.90 96.14 123.26 95.96 118.26 94.40 Z" />
</g>
<g id="#5b5b5bff">
<path fill="#5b5b5b" opacity="1.00" d=" M 160.96 95.53 C 161.87 93.73 162.81 91.96 163.79 90.20 C 171.29 95.40 179.47 99.53 186.83 104.95 C 186.10 106.45 185.35 107.94 184.58 109.42 C 176.41 105.28 169.20 99.53 160.96 95.53 Z" />
</g>
<g id="#6b6b6bff">
<path fill="#6b6b6b" opacity="1.00" d=" M 110.22 98.28 C 112.91 97.00 115.55 95.62 118.26 94.40 C 123.26 95.96 128.90 96.14 133.85 94.31 C 136.56 95.56 139.20 96.95 141.89 98.25 C 137.21 100.35 131.98 99.15 127.02 99.42 C 121.43 99.11 115.58 100.40 110.22 98.28 Z" />
</g>
<g id="#3e3e3eff">
<path fill="#3e3e3e" opacity="1.00" d=" M 160.96 95.53 C 169.20 99.53 176.41 105.28 184.58 109.42 C 183.67 111.17 182.78 112.94 181.91 114.72 L 181.86 114.67 C 180.09 112.84 178.04 111.30 175.81 110.08 C 170.02 106.83 164.45 103.24 158.85 99.69 C 159.55 98.30 160.26 96.92 160.96 95.53 Z" />
</g>
<g id="#353535ff">
<path fill="#353535" opacity="1.00" d=" M 68.27 110.74 C 75.52 105.53 83.31 101.10 90.97 96.51 L 91.59 96.23 C 92.44 98.08 93.36 99.90 94.32 101.70 C 86.75 106.86 78.24 110.63 71.24 116.60 L 71.18 116.65 C 70.20 114.68 69.22 112.72 68.27 110.74 Z" />
</g>
<g id="#8c8c8cff">
<path fill="#8c8c8c" opacity="1.00" d=" M 102.73 101.98 C 105.21 100.70 107.67 99.40 110.22 98.28 C 115.58 100.40 121.43 99.11 127.02 99.42 C 131.98 99.15 137.21 100.35 141.89 98.25 C 144.15 99.45 146.95 100.25 148.76 101.94 C 147.98 103.18 145.65 103.62 144.22 104.39 C 140.49 104.57 136.74 104.38 133.04 103.88 C 128.68 103.19 124.33 105.04 119.98 104.01 C 115.98 103.18 111.95 103.99 107.96 104.43 C 106.18 103.70 104.47 102.81 102.73 101.98 Z" />
</g>
<g id="#242424ff">
<path fill="#242424" opacity="1.00" d=" M 158.85 99.69 C 164.45 103.24 170.02 106.83 175.81 110.08 C 178.04 111.30 180.09 112.84 181.86 114.67 C 181.19 116.01 180.54 117.36 179.89 118.70 L 179.82 118.65 C 176.31 115.15 171.77 113.02 167.62 110.42 C 166.27 109.38 164.61 109.46 163.02 109.70 C 160.90 107.74 158.87 105.69 156.80 103.67 C 157.48 102.35 158.17 101.02 158.85 99.69 Z" />
</g>
<g id="#151515ff">
<path fill="#151515" opacity="1.00" d=" M 71.24 116.60 C 78.24 110.63 86.75 106.86 94.32 101.70 C 94.54 102.23 94.99 103.27 95.22 103.80 C 88.36 110.35 81.70 117.13 74.81 123.66 C 73.56 121.33 72.41 118.96 71.24 116.60 Z" />
</g>
<g id="#00c2d3ff">
<path fill="#00c2d3" opacity="1.00" d=" M 99.37 103.91 C 107.67 108.03 116.06 111.95 124.30 116.17 C 124.26 154.23 124.33 192.29 124.27 230.35 C 115.09 215.80 110.14 198.99 100.73 184.58 C 100.61 171.81 100.82 159.04 100.63 146.27 C 100.75 144.49 98.44 144.46 97.69 145.71 C 96.20 147.05 94.83 148.51 93.39 149.90 C 89.87 140.40 84.49 131.74 80.26 122.56 C 86.63 116.34 93.03 110.15 99.37 103.91 Z" />
</g>
<g id="#b7b7b7ff">
<path fill="#b7b7b7" opacity="1.00" d=" M 107.96 104.43 C 111.95 103.99 115.98 103.18 119.98 104.01 C 124.33 105.04 128.68 103.19 133.04 103.88 C 136.74 104.38 140.49 104.57 144.22 104.39 C 141.09 106.16 137.83 108.13 134.26 108.75 C 128.71 108.48 123.16 108.51 117.62 108.78 C 114.20 107.88 111.06 106.10 107.96 104.43 Z" />
</g>
<g id="#00c3d3ff">
<path fill="#00c3d3" opacity="1.00" d=" M 127.57 116.23 C 135.97 112.11 144.40 108.08 152.78 103.94 C 159.74 110.77 166.77 117.54 173.70 124.40 C 172.39 125.91 171.12 127.49 170.27 129.32 C 166.83 136.50 163.33 143.66 159.48 150.62 C 157.00 148.56 155.18 145.31 151.81 144.63 C 150.96 150.25 151.62 155.95 151.39 161.60 C 147.50 166.68 145.33 172.76 142.31 178.35 C 137.31 187.95 133.95 198.49 127.58 207.33 C 127.54 176.96 127.57 146.60 127.57 116.23 Z" />
<path fill="#00c3d3" opacity="1.00" d=" M 89.79 158.07 C 92.13 155.26 94.97 152.94 97.48 150.30 C 97.48 151.28 97.49 153.25 97.49 154.24 C 94.96 155.58 92.39 156.86 89.79 158.07 Z" />
<path fill="#00c3d3" opacity="1.00" d=" M 154.66 150.32 C 157.21 152.90 159.93 155.30 162.30 158.06 C 159.73 156.84 157.18 155.60 154.66 154.30 C 154.66 153.30 154.66 151.32 154.66 150.32 Z" />
</g>
<g id="#d8d8d8ff">
<path fill="#d8d8d8" opacity="1.00" d=" M 117.62 108.78 C 123.16 108.51 128.71 108.48 134.26 108.75 C 132.25 111.08 128.93 112.06 126.00 112.62 C 122.99 112.05 119.95 110.81 117.62 108.78 Z" />
</g>
<g id="#0c0c0cff">
<path fill="#0c0c0c" opacity="1.00" d=" M 163.02 109.70 C 164.61 109.46 166.27 109.38 167.62 110.42 C 171.77 113.02 176.31 115.15 179.82 118.65 C 179.00 120.32 178.17 122.00 177.31 123.66 C 172.49 119.06 167.78 114.36 163.02 109.70 Z" />
</g>
<g id="#00aed3ff">
<path fill="#00aed3" opacity="1.00" d=" M 51.21 128.57 C 55.84 137.68 60.55 146.75 65.18 155.86 C 65.69 156.89 66.41 157.81 67.13 158.71 C 62.72 167.80 58.77 177.09 53.96 185.98 C 51.76 189.48 51.88 193.66 52.53 197.59 C 52.21 197.79 51.57 198.19 51.24 198.38 C 51.13 175.11 51.25 151.84 51.21 128.57 Z" />
</g>
<g id="#00abd3ff">
<path fill="#00abd3" opacity="1.00" d=" M 199.86 129.59 C 200.32 129.57 200.78 129.56 201.24 129.55 C 200.72 139.78 201.13 150.03 201.00 160.27 C 196.77 160.28 192.55 160.20 188.33 160.38 C 187.71 159.18 187.10 157.99 186.49 156.80 C 190.75 147.64 196.24 139.01 199.86 129.59 Z" />
</g>
<g id="#00bed3ff">
<path fill="#00bed3" opacity="1.00" d=" M 177.20 162.36 C 180.27 160.52 184.36 159.89 186.49 156.80 C 187.10 157.99 187.71 159.18 188.33 160.38 L 188.39 160.51 C 186.77 161.37 185.42 162.95 185.52 164.88 C 185.39 171.59 185.53 178.29 185.47 185.00 C 182.70 185.00 179.93 185.00 177.17 185.00 C 177.19 177.45 177.11 169.91 177.20 162.36 Z" />
</g>
<g id="#00a2d3ff">
<path fill="#00a2d3" opacity="1.00" d=" M 67.13 158.71 C 69.80 159.75 72.32 161.14 74.91 162.36 C 74.98 170.49 74.97 178.62 74.93 186.74 C 67.46 190.35 60.05 194.09 52.53 197.59 C 51.88 193.66 51.76 189.48 53.96 185.98 C 58.77 177.09 62.72 167.80 67.13 158.71 Z" />
</g>
<g id="#00b5d3ff">
<path fill="#00b5d3" opacity="1.00" d=" M 142.31 178.35 C 145.33 172.76 147.50 166.68 151.39 161.60 C 151.42 182.40 151.41 203.19 151.41 223.99 C 143.48 227.90 135.55 231.80 127.58 235.60 C 127.56 226.18 127.56 216.75 127.58 207.33 C 133.95 198.49 137.31 187.95 142.31 178.35 Z" />
</g>
<g id="#aaff61ff">
<path fill="#aaff61" opacity="1.00" d=" M 191.47 166.46 C 198.76 166.27 206.07 166.22 213.37 166.47 C 213.28 170.88 213.35 175.29 213.31 179.70 C 205.89 182.85 198.84 186.78 191.58 190.28 C 191.41 182.34 191.62 174.39 191.47 166.46 Z" />
<path fill="#aaff61" opacity="1.00" d=" M 166.71 191.08 C 174.52 191.06 182.33 191.07 190.14 191.07 C 182.33 194.83 174.72 199.01 166.72 202.37 C 166.69 198.60 166.69 194.84 166.71 191.08 Z" />
</g>
<g id="#9ef25bff">
<path fill="#9ef25b" opacity="1.00" d=" M 191.58 190.28 C 198.84 186.78 205.89 182.85 213.31 179.70 C 213.33 181.80 213.34 183.89 213.29 185.99 C 197.80 193.78 182.35 201.68 166.71 209.18 C 166.69 206.91 166.69 204.64 166.72 202.37 C 174.72 199.01 182.33 194.83 190.14 191.07 C 190.50 190.87 191.22 190.47 191.58 190.28 Z" />
</g>
<g id="#00b2d3ff">
<path fill="#00b2d3" opacity="1.00" d=" M 100.73 184.58 C 110.14 198.99 115.09 215.80 124.27 230.35 C 124.29 232.06 124.30 233.78 124.30 235.50 C 116.46 231.61 108.56 227.85 100.71 223.99 C 100.71 210.85 100.67 197.72 100.73 184.58 Z" />
</g>
<g id="#86d84eff">
<path fill="#86d84e" opacity="1.00" d=" M 166.71 209.18 C 182.35 201.68 197.80 193.78 213.29 185.99 C 213.26 187.67 213.25 189.38 213.78 191.00 C 221.88 191.05 229.99 191.03 238.09 191.00 L 238.15 191.56 C 233.18 191.50 227.88 190.95 223.30 193.31 C 211.24 199.29 199.28 205.48 187.14 211.30 C 188.18 211.82 189.23 212.33 190.25 212.87 C 182.41 213.04 174.57 212.82 166.73 212.84 C 166.72 211.62 166.72 210.40 166.71 209.18 Z" />
</g>
<g id="#68b63eff">
<path fill="#68b63e" opacity="1.00" d=" M 223.30 193.31 C 227.88 190.95 233.18 191.50 238.15 191.56 C 238.14 193.37 238.14 195.18 238.13 196.99 C 222.53 204.55 207.20 212.66 191.53 220.08 C 190.98 217.80 192.76 214.19 190.25 212.87 C 189.23 212.33 188.18 211.82 187.14 211.30 C 199.28 205.48 211.24 199.29 223.30 193.31 Z" />
</g>
<g id="#4e992fff">
<path fill="#4e992f" opacity="1.00" d=" M 191.53 220.08 C 207.20 212.66 222.53 204.55 238.13 196.99 C 238.12 202.31 238.17 207.64 238.14 212.97 C 230.01 212.96 221.89 212.85 213.77 212.88 C 213.13 215.07 213.33 217.36 213.32 219.62 C 205.89 222.78 198.87 226.77 191.53 230.11 C 191.49 226.77 191.55 223.43 191.53 220.08 Z" />
</g>
<g id="#367f22ff">
<path fill="#367f22" opacity="1.00" d=" M 191.53 230.11 C 198.87 226.77 205.89 222.78 213.32 219.62 C 213.31 222.70 213.34 225.78 213.32 228.86 C 206.11 231.96 199.54 236.86 191.51 237.67 C 191.52 235.15 191.54 232.63 191.53 230.11 Z" />
</g>
<g id="#226918ff">
<path fill="#226918" opacity="1.00" d=" M 191.51 237.67 C 199.54 236.86 206.11 231.96 213.32 228.86 C 213.33 231.82 213.37 234.78 213.25 237.74 C 206.00 237.65 198.76 237.64 191.51 237.67 Z" />
</g>
</svg>
