<?xml version="1.0" encoding="UTF-8" standalone="no"?>
<svg xmlns:svg="http://www.w3.org/2000/svg" xmlns="http://www.w3.org/2000/svg" version="1.0" width="190" height="136" viewBox="0 0 1 1" id="body">
  <defs id="defs3415">
</defs>
  <title id="title3316">Super Famicom logo</title>
  <desc id="desc3318">This was produced by version 4.2 of GNU libplot, a free library for exporting 2-D vector graphics.</desc>
  <g transform="matrix(5.3044703,0,0,5.3044573,1.7150651,-1.6005369)" id="g3512">
    <path d="M -0.35936512,0.41387702 L -0.35929741,0.41252287 L -0.35909602,0.41118607 L -0.35876616,0.40986663 L -0.35830957,0.40858192 L -0.35772971,0.4072972 L -0.35702833,0.40604721 L -0.35621236,0.40483194 L -0.35528181,0.40363403 L -0.35424189,0.40247085 L -0.35309433,0.40134238 L -0.3518426,0.40023128 L -0.35049191,0.39917226 L -0.34904227,0.3981306 L -0.34750061,0.39714102 L -0.34586694,0.39618617 L -0.34414647,0.39526603 L -0.34234266,0.39439798 L -0.34045725,0.39356465 L -0.33849373,0.39278341 L -0.33645728,0.39205425 L -0.33434792,0.39137717 L -0.33217258,0.39073481 L -0.32993128,0.3901619 L -0.32763095,0.38962371 L -0.32526985,0.38915496 L -0.32285667,0.3887383 L -0.32038967,0.38839108 L -0.3178758,0.38809594 L -0.31531679,0.38787025 L -0.31271611,0.38769664 L -0.31007724,0.38759247 L -0.30740365,0.38755775 C -0.27865557,0.38755775 -0.25540224,0.39934587 -0.25540224,0.41387702 C -0.25540224,0.42846026 -0.27866251,0.44019634 -0.30740365,0.44019634 C -0.33610312,0.44019634 -0.35936512,0.42846026 -0.35936512,0.41387702 z " style="font-style:normal;font-variant:normal;font-weight:normal;font-stretch:normal;letter-spacing:normal;word-spacing:normal;text-anchor:start;fill:#6EB92B;fill-opacity:1;fill-rule:nonzero;stroke:#2cd324;stroke-width:0;stroke-linecap:butt;stroke-linejoin:miter;stroke-miterlimit:10.43299961;stroke-dasharray:none;stroke-dashoffset:0;stroke-opacity:1" id="path3324"/>
    <path d="M -0.26329629,0.46260584 L -0.26322511,0.46118404 L -0.2630133,0.45977954 L -0.26266608,0.45839584 L -0.26218692,0.45703474 L -0.26157755,0.45569794 L -0.26084144,0.45438544 L -0.25998207,0.45310074 L -0.25900465,0.45184554 L -0.2579109,0.45061294 L -0.25670431,0.44943234 L -0.25539009,0.44826914 L -0.25396996,0.44714074 L -0.2524474,0.44606434 L -0.25082588,0.44502264 L -0.24910888,0.44401574 L -0.2473016,0.44306084 L -0.24540578,0.44214074 L -0.24342315,0.44127264 L -0.24136066,0.44045674 L -0.23922005,0.43967544 L -0.23700305,0.43896367 L -0.23471661,0.43828659 L -0.23236246,0.43767895 L -0.22994407,0.4371234 L -0.22746145,0.4366373 L -0.22492674,0.43620327 L -0.22233995,0.43582133 L -0.21968372,0.43552619 L -0.21699276,0.43528314 L -0.21426709,0.43509217 L -0.21148933,0.434988 L -0.20867684,0.43495328 C -0.17852079,0.43495328 -0.15402442,0.44733164 -0.15402442,0.46260584 C -0.15402442,0.47786444 -0.17852079,0.49025504 -0.20867684,0.49025504 C -0.23884853,0.49025504 -0.26329629,0.47787144 -0.26329629,0.46260584 z " style="font-style:normal;font-variant:normal;font-weight:normal;font-stretch:normal;letter-spacing:normal;word-spacing:normal;text-anchor:start;fill:#FFE100;fill-opacity:1;fill-rule:nonzero;stroke:#f8fa1a;stroke-width:0;stroke-linecap:butt;stroke-linejoin:miter;stroke-miterlimit:10.43299961;stroke-dasharray:none;stroke-dashoffset:0;stroke-opacity:1" id="path3326"/>
    <path d="M -0.24089539,0.4020021 L -0.23844401,0.40184585 L -0.23602563,0.40156808 L -0.23364543,0.40118613 L -0.23130344,0.40068266 L -0.22900657,0.40007503 L -0.22674965,0.39936323 L -0.2245448,0.3985299 L -0.22239203,0.39760977 L -0.22029135,0.39658547 L -0.21824275,0.39547436 L -0.2162636,0.39425909 L -0.21433653,0.39297438 L -0.2124789,0.3915855 L -0.21069072,0.39010981 L -0.20897198,0.38856469 L -0.20734005,0.38695011 L -0.2057602,0.38524874 L -0.20428451,0.38346055 L -0.20287827,0.38162029 L -0.20155883,0.37971058 L -0.2003262,0.37774878 L -0.19919774,0.37571755 L -0.19815608,0.37361687 L -0.19721858,0.37148146 L -0.1963679,0.36927661 L -0.19562137,0.36703705 L -0.19499638,0.36474539 L -0.19445819,0.36240166 L -0.19404152,0.3600232 L -0.19374638,0.35761002 L -0.19357277,0.35516212 L -0.19350333,0.35269686 C -0.19350333,0.32545745 -0.21562124,0.30333954 -0.24286239,0.30333954 C -0.26992124,0.30333954 -0.29190027,0.32507551 -0.29221972,0.35208922 C -0.29158257,0.3520545 -0.29094542,0.3520545 -0.29025966,0.3520545 C -0.26302545,0.3520545 -0.24090233,0.37412033 -0.24090233,0.40141183 L -0.24090233,0.4020021" style="font-style:normal;font-variant:normal;font-weight:normal;font-stretch:normal;letter-spacing:normal;word-spacing:normal;text-anchor:start;fill:#00A7EB;fill-opacity:1;fill-rule:nonzero;stroke:#0a12ff;stroke-width:0;stroke-linecap:butt;stroke-linejoin:miter;stroke-miterlimit:10.43299961;stroke-dasharray:none;stroke-dashoffset:0;stroke-opacity:1" id="path3328"/>
    <path d="M -0.14487517,0.45076914 L -0.14247935,0.45061294 L -0.14013562,0.45035244 L -0.13780924,0.44997054 L -0.13553495,0.44948444 L -0.13329538,0.44887684 L -0.1311079,0.44818234 L -0.12895513,0.44738374 L -0.12685445,0.44648094 L -0.12480585,0.44549144 L -0.1228267,0.44439764 L -0.12088227,0.44321714 L -0.11902464,0.44196714 L -0.1172191,0.44061294 L -0.115483,0.43918934 L -0.11379898,0.43767895 L -0.11220177,0.4360991 L -0.11069136,0.43443245 L -0.10923304,0.43271371 L -0.10787888,0.43090816 L -0.10659416,0.42905054 L -0.10539626,0.42714083 L -0.10430251,0.42516167 L -0.10327821,0.42311308 L -0.10235808,0.42102976 L -0.10154211,0.41889435 L -0.10083031,0.41670687 L -0.10020532,0.4144673 L -0.099701853,0.41219301 L -0.099285183,0.40988399 L -0.099007413,0.4075229 L -0.098833803,0.40514444 L -0.098764353,0.40273126 C -0.098764353,0.37618629 -0.12023991,0.35465865 -0.14680224,0.35465865 C -0.17312152,0.35465865 -0.19451027,0.37585643 -0.19482277,0.40214099 C -0.19419777,0.40210627 -0.19355541,0.40210627 -0.19291306,0.40210627 C -0.16642017,0.40210627 -0.14487517,0.42363391 -0.14487517,0.45017884 L -0.14487517,0.45076914" style="font-style:normal;font-variant:normal;font-weight:normal;font-stretch:normal;letter-spacing:normal;word-spacing:normal;text-anchor:start;fill:#E60012;fill-opacity:1;fill-rule:nonzero;stroke:#fb0f19;stroke-width:0;stroke-linecap:butt;stroke-linejoin:miter;stroke-miterlimit:10.43299961;stroke-dasharray:none;stroke-dashoffset:0;stroke-opacity:1" id="path3330"/>
  </g>
</svg>