<?xml version="1.0" encoding="UTF-8" ?>
<!DOCTYPE svg PUBLIC "-//W3C//DTD SVG 1.1//EN" "http://www.w3.org/Graphics/SVG/1.1/DTD/svg11.dtd">
<svg width="512pt" height="512pt" viewBox="0 0 512 512" version="1.1" xmlns="http://www.w3.org/2000/svg">
<g id="#ffffffff">
<path fill="#ffffff" opacity="1.00" d=" M 0.00 0.00 L 256.41 0.00 C 249.91 6.68 243.25 13.21 236.69 19.82 C 227.33 29.12 218.04 38.49 208.70 47.81 C 197.66 58.82 186.63 69.85 175.63 80.91 C 151.89 104.55 128.20 128.24 104.57 151.99 C 101.96 152.00 99.35 152.00 96.74 152.00 C 95.87 155.54 94.97 159.07 94.07 162.60 C 78.50 177.82 63.22 193.33 47.80 208.71 C 34.50 222.05 21.13 235.32 7.83 248.67 C 5.23 251.34 2.47 253.86 0.00 256.66 L 0.00 0.00 Z" />
<path fill="#ffffff" opacity="1.00" d=" M 474.12 294.36 C 486.70 281.64 499.55 269.19 512.00 256.35 L 512.00 512.00 L 256.60 512.00 C 269.10 499.30 281.76 486.76 294.35 474.14 C 313.40 455.13 332.42 436.08 351.42 417.02 C 370.49 398.09 389.49 379.09 408.41 360.01 C 421.59 360.00 434.78 359.98 447.96 360.02 C 445.13 348.89 444.39 337.32 442.44 326.01 C 453.04 315.50 463.60 304.95 474.12 294.36 Z" />
</g>
<g id="#ea5c51ff">
<path fill="#ea5c51" opacity="1.00" d=" M 256.41 0.00 L 304.42 0.00 C 308.53 1.42 312.82 2.08 317.06 3.01 C 333.51 7.12 349.54 12.77 365.15 19.35 C 362.68 21.82 360.22 24.29 357.76 26.75 C 354.23 30.29 350.68 33.81 347.15 37.34 C 324.87 27.93 301.06 22.34 277.01 20.06 C 269.96 20.28 263.04 18.58 256.00 19.01 C 249.52 18.50 243.16 20.52 236.69 19.82 C 243.25 13.21 249.91 6.68 256.41 0.00 Z" />
</g>
<g id="#e9554aff">
<path fill="#e9554a" opacity="1.00" d=" M 304.42 0.00 L 384.58 0.00 C 378.07 6.42 371.61 12.89 365.15 19.35 C 349.54 12.77 333.51 7.12 317.06 3.01 C 312.82 2.08 308.53 1.42 304.42 0.00 Z" />
</g>
<g id="#ffd46aff">
<path fill="#ffd46a" opacity="1.00" d=" M 384.58 0.00 L 398.68 0.00 C 413.75 9.05 428.73 18.38 442.19 29.75 C 449.47 35.95 457.09 41.84 463.39 49.08 C 456.21 56.26 449.06 63.48 441.86 70.64 C 439.01 73.45 436.20 76.29 433.37 79.11 C 425.50 70.08 416.17 62.54 406.72 55.23 C 391.27 44.37 375.20 34.14 357.76 26.75 C 360.22 24.29 362.68 21.82 365.15 19.35 C 371.61 12.89 378.07 6.42 384.58 0.00 Z" />
</g>
<g id="#ffd05dff">
<path fill="#ffd05d" opacity="1.00" d=" M 398.68 0.00 L 512.00 0.00 L 512.00 0.49 C 502.92 9.49 493.94 18.59 484.89 27.61 C 478.86 33.59 472.91 39.63 466.89 45.61 C 465.72 46.77 464.55 47.92 463.39 49.08 C 457.09 41.84 449.47 35.95 442.19 29.75 C 428.73 18.38 413.75 9.05 398.68 0.00 Z" />
</g>
<g id="#56a038ff">
<path fill="#56a038" opacity="1.00" d=" M 484.89 27.61 C 493.94 18.59 502.92 9.49 512.00 0.49 L 512.00 57.46 C 502.89 47.59 495.03 36.52 484.89 27.61 Z" />
</g>
<g id="#eb645aff">
<path fill="#eb645a" opacity="1.00" d=" M 236.69 19.82 C 243.16 20.52 249.52 18.50 256.00 19.01 C 263.04 18.58 269.96 20.28 277.01 20.06 C 301.06 22.34 324.87 27.93 347.15 37.34 C 341.28 43.29 335.29 49.14 329.42 55.09 L 329.22 55.28 C 310.17 48.50 290.16 44.29 269.97 42.99 C 261.32 42.95 252.67 43.03 244.03 42.93 C 232.13 43.47 220.39 45.64 208.70 47.81 C 218.04 38.49 227.33 29.12 236.69 19.82 Z" />
</g>
<g id="#ffd775ff">
<path fill="#ffd775" opacity="1.00" d=" M 347.15 37.34 C 350.68 33.81 354.23 30.29 357.76 26.75 C 375.20 34.14 391.27 44.37 406.72 55.23 C 416.17 62.54 425.50 70.08 433.37 79.11 C 426.87 85.60 420.42 92.14 413.90 98.61 C 411.71 100.76 409.53 102.93 407.37 105.11 C 404.52 101.77 401.30 98.79 397.86 96.08 C 384.61 84.22 369.71 74.31 354.02 66.00 C 346.08 61.78 337.53 58.92 329.42 55.09 C 335.29 49.14 341.28 43.29 347.15 37.34 Z" />
</g>
<g id="#5ea542ff">
<path fill="#5ea542" opacity="1.00" d=" M 466.89 45.61 C 472.91 39.63 478.86 33.59 484.89 27.61 C 495.03 36.52 502.89 47.59 512.00 57.46 L 512.00 102.53 C 507.61 96.36 503.80 89.81 499.29 83.73 C 492.78 74.11 485.19 65.27 477.50 56.59 C 474.37 52.55 470.62 49.07 466.89 45.61 Z" />
</g>
<g id="#ec6b61ff">
<path fill="#ec6b61" opacity="1.00" d=" M 208.70 47.81 C 220.39 45.64 232.13 43.47 244.03 42.93 C 252.67 43.03 261.32 42.95 269.97 42.99 C 290.16 44.29 310.17 48.50 329.22 55.28 C 323.59 60.99 317.85 66.61 312.20 72.30 C 299.95 68.06 287.06 65.94 274.20 64.66 C 267.83 63.53 261.36 64.22 254.94 64.12 C 240.48 63.62 226.08 65.91 212.00 69.00 C 202.51 71.44 193.03 74.11 184.03 78.03 C 181.32 79.25 178.49 80.14 175.63 80.91 C 186.63 69.85 197.66 58.82 208.70 47.81 Z" />
</g>
<g id="#66aa4cff">
<path fill="#66aa4c" opacity="1.00" d=" M 463.39 49.08 C 464.55 47.92 465.72 46.77 466.89 45.61 C 470.62 49.07 474.37 52.55 477.50 56.59 C 485.19 65.27 492.78 74.11 499.29 83.73 C 503.80 89.81 507.61 96.36 512.00 102.53 L 512.00 128.42 C 506.42 134.21 500.63 139.78 494.99 145.51 C 487.35 130.98 479.63 116.38 469.81 103.18 C 464.66 95.79 458.87 88.88 452.94 82.11 C 449.68 77.89 445.86 74.15 441.86 70.64 C 449.06 63.48 456.21 56.26 463.39 49.08 Z" />
</g>
<g id="#ffdb81ff">
<path fill="#ffdb81" opacity="1.00" d=" M 329.22 55.28 L 329.42 55.09 C 337.53 58.92 346.08 61.78 354.02 66.00 C 369.71 74.31 384.61 84.22 397.86 96.08 C 401.30 98.79 404.52 101.77 407.37 105.11 C 400.78 111.70 394.22 118.33 387.61 124.90 C 384.18 128.28 380.80 131.71 377.39 135.11 C 373.95 131.03 369.73 127.73 365.63 124.36 C 352.43 113.17 337.33 104.24 321.29 97.76 C 312.88 93.91 303.91 91.47 294.87 89.64 C 300.61 83.83 306.47 78.13 312.20 72.30 C 317.85 66.61 323.59 60.99 329.22 55.28 Z" />
</g>
<g id="#ed756cff">
<path fill="#ed756c" opacity="1.00" d=" M 212.00 69.00 C 226.08 65.91 240.48 63.62 254.94 64.12 C 261.36 64.22 267.83 63.53 274.20 64.66 C 287.06 65.94 299.95 68.06 312.20 72.30 C 306.47 78.13 300.61 83.83 294.87 89.64 C 290.29 94.22 285.67 98.77 281.11 103.37 C 274.85 101.91 268.39 101.97 262.05 101.09 C 254.34 100.05 246.71 102.03 239.01 102.18 C 202.07 106.52 166.66 124.20 141.79 151.99 C 129.38 152.01 116.98 151.99 104.57 151.99 C 128.20 128.24 151.89 104.55 175.63 80.91 C 178.49 80.14 181.32 79.25 184.03 78.03 C 193.03 74.11 202.51 71.44 212.00 69.00 Z" />
</g>
<g id="#71b059ff">
<path fill="#71b059" opacity="1.00" d=" M 433.37 79.11 C 436.20 76.29 439.01 73.45 441.86 70.64 C 445.86 74.15 449.68 77.89 452.94 82.11 C 458.87 88.88 464.66 95.79 469.81 103.18 C 479.63 116.38 487.35 130.98 494.99 145.51 C 484.83 155.73 474.58 165.87 464.42 176.09 C 462.62 170.13 459.88 164.52 457.02 159.02 C 446.34 136.58 431.79 115.86 413.90 98.61 C 420.42 92.14 426.87 85.60 433.37 79.11 Z" />
</g>
<g id="#ffde8eff">
<path fill="#ffde8e" opacity="1.00" d=" M 281.11 103.37 C 285.67 98.77 290.29 94.22 294.87 89.64 C 303.91 91.47 312.88 93.91 321.29 97.76 C 337.33 104.24 352.43 113.17 365.63 124.36 C 369.73 127.73 373.95 131.03 377.39 135.11 C 371.82 140.74 366.15 146.28 360.66 152.00 C 347.18 152.00 333.70 152.01 320.23 151.99 C 317.67 150.01 314.94 148.26 312.01 146.90 C 296.69 139.56 280.02 134.77 263.01 133.89 C 258.92 133.89 254.83 134.02 250.75 133.75 C 251.12 133.36 251.88 132.58 252.25 132.19 C 261.83 122.55 271.55 113.04 281.11 103.37 Z" />
</g>
<g id="#7db666ff">
<path fill="#7db666" opacity="1.00" d=" M 407.37 105.11 C 409.53 102.93 411.71 100.76 413.90 98.61 C 431.79 115.86 446.34 136.58 457.02 159.02 C 459.88 164.52 462.62 170.13 464.42 176.09 C 463.99 176.53 463.12 177.40 462.69 177.83 C 450.91 189.64 439.03 201.35 427.32 213.23 C 426.93 208.62 426.81 204.00 426.30 199.40 C 422.59 183.58 418.48 167.86 414.71 152.06 C 413.15 152.04 411.60 152.01 410.05 152.00 C 403.21 142.46 395.98 133.16 387.61 124.90 C 394.22 118.33 400.78 111.70 407.37 105.11 Z" />
<path fill="#7db666" opacity="1.00" d=" M 112.11 400.38 C 116.38 396.11 120.68 391.87 124.93 387.58 C 147.15 409.89 175.12 426.30 205.39 434.97 C 196.31 444.26 187.12 453.46 177.85 462.55 C 154.39 453.85 132.62 440.78 113.61 424.55 C 108.91 420.73 104.76 416.30 100.58 411.92 C 104.40 408.05 108.28 404.24 112.11 400.38 Z" />
</g>
<g id="#ef7f77ff">
<path fill="#ef7f77" opacity="1.00" d=" M 239.01 102.18 C 246.71 102.03 254.34 100.05 262.05 101.09 C 268.39 101.97 274.85 101.91 281.11 103.37 C 271.55 113.04 261.83 122.55 252.25 132.19 C 249.24 131.94 246.21 131.80 243.21 132.23 C 223.92 134.58 204.77 140.82 188.75 151.99 C 173.09 152.03 157.44 151.98 141.79 151.99 C 166.66 124.20 202.07 106.52 239.01 102.18 Z" />
</g>
<g id="#86bb70ff">
<path fill="#86bb70" opacity="1.00" d=" M 377.39 135.11 C 380.80 131.71 384.18 128.28 387.61 124.90 C 395.98 133.16 403.21 142.46 410.05 152.00 C 393.59 151.98 377.12 152.02 360.66 152.00 C 366.15 146.28 371.82 140.74 377.39 135.11 Z" />
</g>
<g id="#4db0eeff">
<path fill="#4db0ee" opacity="1.00" d=" M 494.99 145.51 C 500.63 139.78 506.42 134.21 512.00 128.42 L 512.00 256.35 C 499.55 269.19 486.70 281.64 474.12 294.36 C 475.08 284.90 476.59 275.47 477.11 265.97 C 476.90 256.32 477.51 246.62 476.26 237.02 C 474.38 216.80 469.86 196.83 462.69 177.83 C 463.12 177.40 463.99 176.53 464.42 176.09 C 474.58 165.87 484.83 155.73 494.99 145.51 Z" />
</g>
<g id="#f08780ff">
<path fill="#f08780" opacity="1.00" d=" M 188.75 151.99 C 204.77 140.82 223.92 134.58 243.21 132.23 C 246.21 131.80 249.24 131.94 252.25 132.19 C 251.88 132.58 251.12 133.36 250.75 133.75 C 244.74 139.88 238.50 145.77 232.60 152.00 C 217.98 152.00 203.36 152.01 188.75 151.99 Z" />
</g>
<g id="#ffe198ff">
<path fill="#ffe198" opacity="1.00" d=" M 232.60 152.00 C 238.50 145.77 244.74 139.88 250.75 133.75 C 254.83 134.02 258.92 133.89 263.01 133.89 C 280.02 134.77 296.69 139.56 312.01 146.90 C 314.94 148.26 317.67 150.01 320.23 151.99 C 291.02 152.01 261.81 152.00 232.60 152.00 Z" />
</g>
<g id="#3a3a3aff">
<path fill="#3a3a3a" opacity="1.00" d=" M 94.07 162.60 C 94.97 159.07 95.87 155.54 96.74 152.00 C 99.35 152.00 101.96 152.00 104.57 151.99 C 116.98 151.99 129.38 152.01 141.79 151.99 C 157.44 151.98 173.09 152.03 188.75 151.99 C 203.36 152.01 217.98 152.00 232.60 152.00 C 261.81 152.00 291.02 152.01 320.23 151.99 C 333.70 152.01 347.18 152.00 360.66 152.00 C 377.12 152.02 393.59 151.98 410.05 152.00 C 411.60 152.01 413.15 152.04 414.71 152.06 C 418.48 167.86 422.59 183.58 426.30 199.40 C 424.89 199.71 423.47 200.04 422.03 200.04 C 309.69 199.96 197.35 200.02 85.00 200.00 C 87.75 187.47 91.17 175.10 94.07 162.60 M 106.04 156.95 C 104.49 163.21 102.97 169.47 101.38 175.71 C 130.93 175.83 160.48 175.67 190.03 175.79 C 192.00 169.62 193.23 163.23 194.88 156.97 C 192.93 156.83 190.97 156.73 189.02 156.76 C 161.36 156.93 133.69 156.54 106.04 156.95 Z" />
<path fill="#3a3a3a" opacity="1.00" d=" M 91.54 209.70 C 91.78 207.96 93.72 208.27 94.99 208.20 C 183.00 208.23 271.00 208.20 359.00 208.21 C 379.21 208.33 399.42 207.97 419.62 208.40 C 419.91 209.35 420.22 210.32 420.51 211.28 C 420.30 213.14 420.17 215.02 420.50 216.88 C 421.63 224.44 422.73 232.02 423.79 239.60 C 419.24 251.35 414.77 263.13 410.18 274.87 C 406.23 274.87 402.28 274.86 398.34 274.88 C 399.10 281.13 399.81 287.39 400.66 293.63 C 401.22 293.66 402.35 293.71 402.92 293.74 C 401.74 296.90 400.53 300.05 399.33 303.20 C 392.77 303.19 386.21 303.20 379.66 303.19 C 380.35 309.50 381.17 315.81 381.97 322.11 C 385.32 322.13 388.68 322.13 392.05 322.13 C 390.19 326.85 388.37 331.58 386.59 336.32 C 282.21 336.27 177.84 336.45 73.46 336.23 C 79.19 295.61 85.32 255.04 91.22 214.45 C 91.38 212.87 91.43 211.28 91.54 209.70 M 101.39 218.16 C 100.64 224.46 99.83 230.75 99.08 237.05 C 105.31 237.06 111.54 237.11 117.78 237.03 C 118.54 230.73 119.36 224.44 120.09 218.14 C 113.86 218.14 107.62 218.09 101.39 218.16 M 132.04 218.12 C 131.23 224.43 130.43 230.74 129.70 237.06 C 135.95 236.97 142.22 237.29 148.47 236.88 C 149.05 230.69 149.76 224.51 150.55 218.35 C 144.39 217.99 138.21 218.35 132.04 218.12 M 162.19 218.14 C 161.41 224.45 160.62 230.75 159.87 237.06 C 166.11 237.02 172.36 237.19 178.60 236.96 C 179.32 230.68 180.13 224.41 180.90 218.14 C 174.66 218.12 168.43 218.12 162.19 218.14 M 192.83 218.12 C 192.00 224.42 191.23 230.74 190.48 237.06 C 196.70 237.07 202.92 237.08 209.15 237.05 C 209.86 230.77 210.63 224.49 211.25 218.19 C 205.11 218.18 198.97 218.26 192.83 218.12 M 223.00 218.13 C 222.19 224.44 221.40 230.75 220.66 237.06 C 227.67 237.03 234.69 237.17 241.70 236.98 C 241.66 230.70 241.69 224.43 241.69 218.15 C 235.46 218.10 229.23 218.13 223.00 218.13 M 251.05 218.13 C 251.00 224.43 251.02 230.74 251.03 237.05 C 258.04 237.08 265.05 237.07 272.06 237.06 C 271.31 230.75 270.51 224.45 269.73 218.15 C 263.50 218.11 257.27 218.13 251.05 218.13 M 281.52 218.16 C 281.96 224.42 282.96 230.63 283.45 236.89 C 289.70 237.28 295.97 236.98 302.23 237.06 C 301.47 230.74 300.69 224.43 299.89 218.12 C 293.76 218.24 287.64 218.21 281.52 218.16 M 311.85 218.13 C 312.56 224.45 313.38 230.75 314.16 237.05 C 320.39 237.07 326.62 237.09 332.85 237.04 C 332.10 230.76 331.27 224.48 330.55 218.20 C 324.31 218.05 318.08 218.16 311.85 218.13 M 342.22 218.21 C 342.89 224.47 343.64 230.72 344.30 236.98 C 350.54 237.17 356.78 237.04 363.02 237.05 C 362.27 230.75 361.47 224.44 360.69 218.14 C 354.53 218.24 348.38 218.17 342.22 218.21 M 372.64 218.12 C 373.33 224.44 374.16 230.75 374.95 237.06 C 381.17 237.08 387.38 237.06 393.60 237.07 C 392.90 230.75 392.08 224.44 391.29 218.13 C 385.07 218.12 378.86 218.14 372.64 218.12 M 113.10 246.55 C 112.31 252.83 111.53 259.10 110.77 265.39 C 116.98 265.42 123.20 265.38 129.41 265.42 C 130.28 259.13 131.02 252.83 131.77 246.53 C 125.54 246.54 119.32 246.51 113.10 246.55 M 141.39 265.40 C 147.61 265.39 153.84 265.42 160.07 265.38 C 160.77 259.13 161.48 252.88 162.17 246.63 C 156.02 246.49 149.87 246.53 143.73 246.53 C 142.90 252.82 142.14 259.11 141.39 265.40 M 173.88 246.55 C 173.10 252.83 172.30 259.11 171.56 265.39 C 177.78 265.41 184.00 265.40 190.22 265.40 C 191.05 259.11 191.81 252.82 192.56 246.54 C 186.33 246.53 180.10 246.51 173.88 246.55 M 204.53 246.52 C 203.65 252.76 203.00 259.03 202.14 265.28 C 208.38 265.54 214.62 265.35 220.86 265.39 C 221.55 259.13 222.26 252.88 222.97 246.63 C 216.83 246.48 210.68 246.54 204.53 246.52 M 232.36 265.40 C 239.35 265.40 246.35 265.41 253.35 265.39 C 253.38 259.11 253.37 252.83 253.36 246.54 C 247.14 246.51 240.92 246.54 234.70 246.52 C 233.86 252.81 233.10 259.10 232.36 265.40 M 265.05 246.55 C 265.06 252.83 265.05 259.11 265.06 265.39 C 272.07 265.41 279.08 265.41 286.08 265.39 C 285.35 259.11 284.51 252.86 283.80 246.58 C 277.55 246.47 271.30 246.53 265.05 246.55 M 295.48 246.62 C 296.16 252.88 296.83 259.15 297.61 265.41 C 303.82 265.38 310.03 265.42 316.25 265.39 C 315.52 259.10 314.69 252.83 313.94 246.55 C 307.79 246.51 301.63 246.50 295.48 246.62 M 325.86 246.55 C 326.61 252.83 327.41 259.10 328.18 265.38 C 334.41 265.40 340.65 265.45 346.88 265.35 C 346.07 259.07 345.37 252.79 344.51 246.52 C 338.29 246.54 332.07 246.51 325.86 246.55 M 356.26 246.62 C 356.89 252.84 357.72 259.04 358.28 265.26 C 364.52 265.56 370.78 265.34 377.04 265.39 C 376.31 259.13 375.45 252.88 374.78 246.62 C 368.61 246.43 362.43 246.54 356.26 246.62 M 386.65 246.54 C 387.40 252.82 388.18 259.10 388.97 265.38 C 395.19 265.42 401.42 265.39 407.64 265.40 C 406.91 259.11 406.12 252.82 405.31 246.53 C 399.09 246.53 392.87 246.52 386.65 246.54 M 122.43 293.66 C 128.65 293.81 134.87 293.68 141.10 293.73 C 142.00 287.46 142.70 281.17 143.46 274.88 C 137.24 274.87 131.02 274.85 124.80 274.89 C 123.97 281.14 123.28 287.41 122.43 293.66 M 155.34 275.00 C 154.64 281.25 153.81 287.48 153.07 293.73 C 159.29 293.73 165.51 293.71 171.73 293.74 C 172.48 287.49 173.16 281.23 173.87 274.97 C 167.70 274.99 161.52 274.70 155.34 275.00 M 183.20 293.67 C 189.44 293.80 195.67 293.68 201.91 293.75 C 202.74 287.46 203.49 281.17 204.26 274.88 C 198.13 274.92 191.99 274.76 185.86 274.94 C 184.36 280.97 184.28 287.48 183.20 293.67 M 216.19 274.88 C 215.44 281.16 214.52 287.43 213.94 293.73 C 220.14 293.72 226.35 293.74 232.55 293.71 C 233.23 287.45 233.99 281.20 234.64 274.94 C 228.49 274.96 222.34 274.82 216.19 274.88 M 246.32 274.97 C 245.61 281.23 244.74 287.47 244.05 293.74 C 251.04 293.71 258.02 293.73 265.01 293.73 C 265.11 287.45 265.05 281.16 265.05 274.88 C 258.81 274.91 252.56 274.76 246.32 274.97 M 276.77 274.88 C 276.79 281.17 276.63 287.46 276.85 293.75 C 283.83 293.70 290.80 293.73 297.77 293.73 C 297.06 287.50 296.17 281.29 295.53 275.05 C 289.29 274.65 283.02 274.96 276.77 274.88 M 307.37 274.94 C 308.04 281.20 308.79 287.45 309.46 293.71 C 315.67 293.75 321.88 293.72 328.09 293.73 C 327.49 287.43 326.59 281.16 325.84 274.88 C 319.68 274.82 313.53 274.96 307.37 274.94 M 337.55 274.88 C 338.37 281.17 338.95 287.49 339.98 293.75 C 346.18 293.67 352.39 293.82 358.59 293.66 C 357.74 287.43 357.07 281.18 356.22 274.95 C 350.00 274.78 343.77 274.90 337.55 274.88 M 368.16 274.94 C 368.85 281.20 369.55 287.47 370.27 293.73 C 376.49 293.73 382.72 293.71 388.94 293.74 C 388.22 287.47 387.38 281.22 386.65 274.95 C 380.49 274.73 374.32 275.00 368.16 274.94 M 89.74 303.19 C 88.92 309.50 88.14 315.81 87.40 322.12 C 99.28 322.13 111.15 322.14 123.02 322.12 C 123.68 315.81 124.36 309.50 124.98 303.19 C 113.23 303.20 101.49 303.19 89.74 303.19 M 136.76 303.16 C 135.85 309.47 135.15 315.80 134.37 322.12 C 140.59 322.13 146.81 322.14 153.04 322.12 C 153.71 315.83 154.62 309.56 155.04 303.25 C 148.95 303.28 142.85 303.32 136.76 303.16 M 166.90 303.20 C 166.06 309.50 165.30 315.81 164.55 322.12 C 170.78 322.10 177.00 322.20 183.23 322.07 C 184.06 315.83 184.69 309.58 185.63 303.36 C 179.39 302.99 173.14 303.29 166.90 303.20 M 197.47 303.21 C 196.72 309.51 195.90 315.80 195.15 322.10 C 201.38 322.15 207.61 322.14 213.84 322.11 C 214.54 315.82 215.28 309.54 215.94 303.25 C 209.78 303.30 203.62 303.27 197.47 303.21 M 227.67 303.19 C 226.86 309.50 226.09 315.81 225.33 322.13 C 232.33 322.12 239.33 322.14 246.34 322.12 C 246.35 315.81 246.38 309.50 246.32 303.19 C 240.11 303.20 233.89 303.20 227.67 303.19 M 258.06 303.20 C 258.03 309.51 258.04 315.81 258.05 322.12 C 265.06 322.13 272.06 322.14 279.07 322.12 C 278.32 315.81 277.52 309.50 276.74 303.20 C 270.51 303.19 264.28 303.19 258.06 303.20 M 288.40 303.40 C 289.29 309.64 289.67 315.94 290.69 322.17 C 296.87 322.08 303.06 322.16 309.25 322.12 C 308.46 315.80 307.73 309.48 306.88 303.17 C 300.72 303.39 294.55 303.11 288.40 303.40 M 318.90 303.20 C 319.52 309.51 320.42 315.79 321.16 322.09 C 327.39 322.17 333.63 322.12 339.86 322.11 C 339.11 315.81 338.29 309.52 337.55 303.22 C 331.33 303.16 325.12 303.21 318.90 303.20 M 349.41 303.36 C 350.23 309.48 350.74 315.63 351.55 321.75 C 357.58 322.64 364.05 321.88 370.25 322.12 C 369.48 315.80 368.74 309.47 367.88 303.16 C 361.72 303.38 355.57 303.15 349.41 303.36 Z" />
<path fill="#3a3a3a" opacity="1.00" d=" M 423.76 336.36 C 427.14 327.66 430.04 318.78 433.76 310.22 C 435.40 318.87 436.54 327.62 437.64 336.36 C 433.01 336.43 428.38 336.41 423.76 336.36 Z" />
</g>
<g id="#020202ff">
<path fill="#020202" opacity="1.00" d=" M 106.04 156.95 C 133.69 156.54 161.36 156.93 189.02 156.76 C 190.97 156.73 192.93 156.83 194.88 156.97 C 193.23 163.23 192.00 169.62 190.03 175.79 C 160.48 175.67 130.93 175.83 101.38 175.71 C 102.97 169.47 104.49 163.21 106.04 156.95 Z" />
</g>
<g id="#ec6d64ff">
<path fill="#ec6d64" opacity="1.00" d=" M 47.80 208.71 C 63.22 193.33 78.50 177.82 94.07 162.60 C 91.17 175.10 87.75 187.47 85.00 200.00 C 84.38 210.21 83.26 220.41 83.12 230.64 C 78.70 258.39 74.91 286.25 70.74 314.04 C 65.31 318.80 60.51 324.21 55.29 329.18 C 48.50 310.48 44.58 290.77 42.96 270.96 C 42.86 264.64 43.02 258.33 42.94 252.01 C 42.38 237.42 45.19 222.99 47.80 208.71 Z" />
</g>
<g id="#5db7f0ff">
<path fill="#5db7f0" opacity="1.00" d=" M 427.32 213.23 C 439.03 201.35 450.91 189.64 462.69 177.83 C 469.86 196.83 474.38 216.80 476.26 237.02 C 477.51 246.62 476.90 256.32 477.11 265.97 C 476.59 275.47 475.08 284.90 474.12 294.36 C 463.60 304.95 453.04 315.50 442.44 326.01 C 437.79 294.51 433.22 263.00 428.56 231.50 C 428.24 225.40 427.81 219.32 427.32 213.23 Z" />
</g>
<g id="#606060ff">
<path fill="#606060" opacity="1.00" d=" M 426.30 199.40 C 426.81 204.00 426.93 208.62 427.32 213.23 C 427.81 219.32 428.24 225.40 428.56 231.50 C 425.61 224.87 423.02 218.09 420.51 211.28 C 420.22 210.32 419.91 209.35 419.62 208.40 C 399.42 207.97 379.21 208.33 359.00 208.21 C 271.00 208.20 183.00 208.23 94.99 208.20 C 93.72 208.27 91.78 207.96 91.54 209.70 C 88.86 216.73 86.31 223.82 83.12 230.64 C 83.26 220.41 84.38 210.21 85.00 200.00 C 197.35 200.02 309.69 199.96 422.03 200.04 C 423.47 200.04 424.89 199.71 426.30 199.40 Z" />
</g>
<g id="#eb6157ff">
<path fill="#eb6157" opacity="1.00" d=" M 7.83 248.67 C 21.13 235.32 34.50 222.05 47.80 208.71 C 45.19 222.99 42.38 237.42 42.94 252.01 C 43.02 258.33 42.86 264.64 42.96 270.96 C 44.58 290.77 48.50 310.48 55.29 329.18 C 46.28 338.14 37.38 347.20 28.36 356.15 C 17.87 332.02 11.30 306.23 8.80 280.04 C 7.32 269.64 8.58 259.12 7.83 248.67 Z" />
</g>
<g id="#000000ff">
<path fill="#000000" opacity="1.00" d=" M 91.54 209.70 C 91.43 211.28 91.38 212.87 91.22 214.45 C 85.32 255.04 79.19 295.61 73.46 336.23 C 177.84 336.45 282.21 336.27 386.59 336.32 C 389.67 336.32 392.75 336.32 395.84 336.33 C 398.93 336.32 402.04 336.31 405.14 336.35 C 408.25 336.40 411.36 336.40 414.47 336.36 C 417.56 336.33 420.66 336.33 423.76 336.36 C 428.38 336.41 433.01 336.43 437.64 336.36 C 436.54 327.62 435.40 318.87 433.76 310.22 C 433.48 303.94 432.07 297.79 431.34 291.56 C 430.52 285.21 429.57 278.87 428.58 272.54 C 427.79 266.95 427.01 261.36 426.15 255.78 C 425.41 250.38 424.65 244.98 423.79 239.60 C 422.73 232.02 421.63 224.44 420.50 216.88 C 420.17 215.02 420.30 213.14 420.51 211.28 C 423.02 218.09 425.61 224.87 428.56 231.50 C 433.22 263.00 437.79 294.51 442.44 326.01 C 444.39 337.32 445.13 348.89 447.96 360.02 C 434.78 359.98 421.59 360.00 408.41 360.01 C 393.03 360.00 377.64 359.99 362.25 360.00 C 334.96 360.00 307.67 360.00 280.38 360.00 C 243.86 359.99 207.35 360.01 170.83 360.00 C 164.69 359.99 158.54 360.00 152.40 360.00 C 128.48 360.00 104.56 360.00 80.63 360.01 C 75.07 359.99 69.50 360.00 63.93 359.99 C 66.34 344.70 68.45 329.36 70.74 314.04 C 74.91 286.25 78.70 258.39 83.12 230.64 C 86.31 223.82 88.86 216.73 91.54 209.70 Z" />
</g>
<g id="#afafafff">
<path fill="#afafaf" opacity="1.00" d=" M 101.39 218.16 C 107.62 218.09 113.86 218.14 120.09 218.14 C 119.36 224.44 118.54 230.73 117.78 237.03 C 111.54 237.11 105.31 237.06 99.08 237.05 C 99.83 230.75 100.64 224.46 101.39 218.16 Z" />
<path fill="#afafaf" opacity="1.00" d=" M 132.04 218.12 C 138.21 218.35 144.39 217.99 150.55 218.35 C 149.76 224.51 149.05 230.69 148.47 236.88 C 142.22 237.29 135.95 236.97 129.70 237.06 C 130.43 230.74 131.23 224.43 132.04 218.12 Z" />
<path fill="#afafaf" opacity="1.00" d=" M 162.19 218.14 C 168.43 218.12 174.66 218.12 180.90 218.14 C 180.13 224.41 179.32 230.68 178.60 236.96 C 172.36 237.19 166.11 237.02 159.87 237.06 C 160.62 230.75 161.41 224.45 162.19 218.14 Z" />
<path fill="#afafaf" opacity="1.00" d=" M 192.83 218.12 C 198.97 218.26 205.11 218.18 211.25 218.19 C 210.63 224.49 209.86 230.77 209.15 237.05 C 202.92 237.08 196.70 237.07 190.48 237.06 C 191.23 230.74 192.00 224.42 192.83 218.12 Z" />
<path fill="#afafaf" opacity="1.00" d=" M 223.00 218.13 C 229.23 218.13 235.46 218.10 241.69 218.15 C 241.69 224.43 241.66 230.70 241.70 236.98 C 234.69 237.17 227.67 237.03 220.66 237.06 C 221.40 230.75 222.19 224.44 223.00 218.13 Z" />
<path fill="#afafaf" opacity="1.00" d=" M 251.05 218.13 C 257.27 218.13 263.50 218.11 269.73 218.15 C 270.51 224.45 271.31 230.75 272.06 237.06 C 265.05 237.07 258.04 237.08 251.03 237.05 C 251.02 230.74 251.00 224.43 251.05 218.13 Z" />
<path fill="#afafaf" opacity="1.00" d=" M 281.52 218.16 C 287.64 218.21 293.76 218.24 299.89 218.12 C 300.69 224.43 301.47 230.74 302.23 237.06 C 295.97 236.98 289.70 237.28 283.45 236.89 C 282.96 230.63 281.96 224.42 281.52 218.16 Z" />
<path fill="#afafaf" opacity="1.00" d=" M 311.85 218.13 C 318.08 218.16 324.31 218.05 330.55 218.20 C 331.27 224.48 332.10 230.76 332.85 237.04 C 326.62 237.09 320.39 237.07 314.16 237.05 C 313.38 230.75 312.56 224.45 311.85 218.13 Z" />
<path fill="#afafaf" opacity="1.00" d=" M 342.22 218.21 C 348.38 218.17 354.53 218.24 360.69 218.14 C 361.47 224.44 362.27 230.75 363.02 237.05 C 356.78 237.04 350.54 237.17 344.30 236.98 C 343.64 230.72 342.89 224.47 342.22 218.21 Z" />
<path fill="#afafaf" opacity="1.00" d=" M 372.64 218.12 C 378.86 218.14 385.07 218.12 391.29 218.13 C 392.08 224.44 392.90 230.75 393.60 237.07 C 387.38 237.06 381.17 237.08 374.95 237.06 C 374.16 230.75 373.33 224.44 372.64 218.12 Z" />
<path fill="#afafaf" opacity="1.00" d=" M 113.10 246.55 C 119.32 246.51 125.54 246.54 131.77 246.53 C 131.02 252.83 130.28 259.13 129.41 265.42 C 123.20 265.38 116.98 265.42 110.77 265.39 C 111.53 259.10 112.31 252.83 113.10 246.55 Z" />
<path fill="#afafaf" opacity="1.00" d=" M 141.39 265.40 C 142.14 259.11 142.90 252.82 143.73 246.53 C 149.87 246.53 156.02 246.49 162.17 246.63 C 161.48 252.88 160.77 259.13 160.07 265.38 C 153.84 265.42 147.61 265.39 141.39 265.40 Z" />
<path fill="#afafaf" opacity="1.00" d=" M 173.88 246.55 C 180.10 246.51 186.33 246.53 192.56 246.54 C 191.81 252.82 191.05 259.11 190.22 265.40 C 184.00 265.40 177.78 265.41 171.56 265.39 C 172.30 259.11 173.10 252.83 173.88 246.55 Z" />
<path fill="#afafaf" opacity="1.00" d=" M 204.53 246.52 C 210.68 246.54 216.83 246.48 222.97 246.63 C 222.26 252.88 221.55 259.13 220.86 265.39 C 214.62 265.35 208.38 265.54 202.14 265.28 C 203.00 259.03 203.65 252.76 204.53 246.52 Z" />
<path fill="#afafaf" opacity="1.00" d=" M 232.36 265.40 C 233.10 259.10 233.86 252.81 234.70 246.52 C 240.92 246.54 247.14 246.51 253.36 246.54 C 253.37 252.83 253.38 259.11 253.35 265.39 C 246.35 265.41 239.35 265.40 232.36 265.40 Z" />
<path fill="#afafaf" opacity="1.00" d=" M 265.05 246.55 C 271.30 246.53 277.55 246.47 283.80 246.58 C 284.51 252.86 285.35 259.11 286.08 265.39 C 279.08 265.41 272.07 265.41 265.06 265.39 C 265.05 259.11 265.06 252.83 265.05 246.55 Z" />
<path fill="#afafaf" opacity="1.00" d=" M 295.48 246.62 C 301.63 246.50 307.79 246.51 313.94 246.55 C 314.69 252.83 315.52 259.10 316.25 265.39 C 310.03 265.42 303.82 265.38 297.61 265.41 C 296.83 259.15 296.16 252.88 295.48 246.62 Z" />
<path fill="#afafaf" opacity="1.00" d=" M 325.86 246.55 C 332.07 246.51 338.29 246.54 344.51 246.52 C 345.37 252.79 346.07 259.07 346.88 265.35 C 340.65 265.45 334.41 265.40 328.18 265.38 C 327.41 259.10 326.61 252.83 325.86 246.55 Z" />
<path fill="#afafaf" opacity="1.00" d=" M 356.26 246.62 C 362.43 246.54 368.61 246.43 374.78 246.62 C 375.45 252.88 376.31 259.13 377.04 265.39 C 370.78 265.34 364.52 265.56 358.28 265.26 C 357.72 259.04 356.89 252.84 356.26 246.62 Z" />
<path fill="#afafaf" opacity="1.00" d=" M 386.65 246.54 C 392.87 246.52 399.09 246.53 405.31 246.53 C 406.12 252.82 406.91 259.11 407.64 265.40 C 401.42 265.39 395.19 265.42 388.97 265.38 C 388.18 259.10 387.40 252.82 386.65 246.54 Z" />
<path fill="#afafaf" opacity="1.00" d=" M 122.43 293.66 C 123.28 287.41 123.97 281.14 124.80 274.89 C 131.02 274.85 137.24 274.87 143.46 274.88 C 142.70 281.17 142.00 287.46 141.10 293.73 C 134.87 293.68 128.65 293.81 122.43 293.66 Z" />
<path fill="#afafaf" opacity="1.00" d=" M 155.34 275.00 C 161.52 274.70 167.70 274.99 173.87 274.97 C 173.16 281.23 172.48 287.49 171.73 293.74 C 165.51 293.71 159.29 293.73 153.07 293.73 C 153.81 287.48 154.64 281.25 155.34 275.00 Z" />
<path fill="#afafaf" opacity="1.00" d=" M 183.20 293.67 C 184.28 287.48 184.36 280.97 185.86 274.94 C 191.99 274.76 198.13 274.92 204.26 274.88 C 203.49 281.17 202.74 287.46 201.91 293.75 C 195.67 293.68 189.44 293.80 183.20 293.67 Z" />
<path fill="#afafaf" opacity="1.00" d=" M 216.19 274.88 C 222.34 274.82 228.49 274.96 234.64 274.94 C 233.99 281.20 233.23 287.45 232.55 293.71 C 226.35 293.74 220.14 293.72 213.94 293.73 C 214.52 287.43 215.44 281.16 216.19 274.88 Z" />
<path fill="#afafaf" opacity="1.00" d=" M 246.32 274.97 C 252.56 274.76 258.81 274.91 265.05 274.88 C 265.05 281.16 265.11 287.45 265.01 293.73 C 258.02 293.73 251.04 293.71 244.05 293.74 C 244.74 287.47 245.61 281.23 246.32 274.97 Z" />
<path fill="#afafaf" opacity="1.00" d=" M 276.77 274.88 C 283.02 274.96 289.29 274.65 295.53 275.05 C 296.17 281.29 297.06 287.50 297.77 293.73 C 290.80 293.73 283.83 293.70 276.85 293.75 C 276.63 287.46 276.79 281.17 276.77 274.88 Z" />
<path fill="#afafaf" opacity="1.00" d=" M 307.37 274.94 C 313.53 274.96 319.68 274.82 325.84 274.88 C 326.59 281.16 327.49 287.43 328.09 293.73 C 321.88 293.72 315.67 293.75 309.46 293.71 C 308.79 287.45 308.04 281.20 307.37 274.94 Z" />
<path fill="#afafaf" opacity="1.00" d=" M 337.55 274.88 C 343.77 274.90 350.00 274.78 356.22 274.95 C 357.07 281.18 357.74 287.43 358.59 293.66 C 352.39 293.82 346.18 293.67 339.98 293.75 C 338.95 287.49 338.37 281.17 337.55 274.88 Z" />
<path fill="#afafaf" opacity="1.00" d=" M 368.16 274.94 C 374.32 275.00 380.49 274.73 386.65 274.95 C 387.38 281.22 388.22 287.47 388.94 293.74 C 382.72 293.71 376.49 293.73 370.27 293.73 C 369.55 287.47 368.85 281.20 368.16 274.94 Z" />
<path fill="#afafaf" opacity="1.00" d=" M 398.34 274.88 C 402.28 274.86 406.23 274.87 410.18 274.87 C 412.45 274.86 414.73 274.87 417.00 274.88 C 417.20 276.15 417.38 277.43 417.56 278.71 C 418.05 283.73 418.79 288.72 419.31 293.74 C 416.95 293.72 414.59 293.68 412.25 293.78 C 412.03 294.01 411.59 294.47 411.38 294.70 L 411.73 293.71 C 408.79 293.71 405.85 293.78 402.92 293.74 C 402.35 293.71 401.22 293.66 400.66 293.63 C 399.81 287.39 399.10 281.13 398.34 274.88 Z" />
<path fill="#afafaf" opacity="1.00" d=" M 89.74 303.19 C 101.49 303.19 113.23 303.20 124.98 303.19 C 124.36 309.50 123.68 315.81 123.02 322.12 C 111.15 322.14 99.28 322.13 87.40 322.12 C 88.14 315.81 88.92 309.50 89.74 303.19 Z" />
<path fill="#afafaf" opacity="1.00" d=" M 136.76 303.16 C 142.85 303.32 148.95 303.28 155.04 303.25 C 154.62 309.56 153.71 315.83 153.04 322.12 C 146.81 322.14 140.59 322.13 134.37 322.12 C 135.15 315.80 135.85 309.47 136.76 303.16 Z" />
<path fill="#afafaf" opacity="1.00" d=" M 166.90 303.20 C 173.14 303.29 179.39 302.99 185.63 303.36 C 184.69 309.58 184.06 315.83 183.23 322.07 C 177.00 322.20 170.78 322.10 164.55 322.12 C 165.30 315.81 166.06 309.50 166.90 303.20 Z" />
<path fill="#afafaf" opacity="1.00" d=" M 197.47 303.21 C 203.62 303.27 209.78 303.30 215.94 303.25 C 215.28 309.54 214.54 315.82 213.84 322.11 C 207.61 322.14 201.38 322.15 195.15 322.10 C 195.90 315.80 196.72 309.51 197.47 303.21 Z" />
<path fill="#afafaf" opacity="1.00" d=" M 227.67 303.19 C 233.89 303.20 240.11 303.20 246.32 303.19 C 246.38 309.50 246.35 315.81 246.34 322.12 C 239.33 322.14 232.33 322.12 225.33 322.13 C 226.09 315.81 226.86 309.50 227.67 303.19 Z" />
<path fill="#afafaf" opacity="1.00" d=" M 258.06 303.20 C 264.28 303.19 270.51 303.19 276.74 303.20 C 277.52 309.50 278.32 315.81 279.07 322.12 C 272.06 322.14 265.06 322.13 258.05 322.12 C 258.04 315.81 258.03 309.51 258.06 303.20 Z" />
<path fill="#afafaf" opacity="1.00" d=" M 288.40 303.40 C 294.55 303.11 300.72 303.39 306.88 303.17 C 307.73 309.48 308.46 315.80 309.25 322.12 C 303.06 322.16 296.87 322.08 290.69 322.17 C 289.67 315.94 289.29 309.64 288.40 303.40 Z" />
<path fill="#afafaf" opacity="1.00" d=" M 318.90 303.20 C 325.12 303.21 331.33 303.16 337.55 303.22 C 338.29 309.52 339.11 315.81 339.86 322.11 C 333.63 322.12 327.39 322.17 321.16 322.09 C 320.42 315.79 319.52 309.51 318.90 303.20 Z" />
<path fill="#afafaf" opacity="1.00" d=" M 349.41 303.36 C 355.57 303.15 361.72 303.38 367.88 303.16 C 368.74 309.47 369.48 315.80 370.25 322.12 C 364.05 321.88 357.58 322.64 351.55 321.75 C 350.74 315.63 350.23 309.48 349.41 303.36 Z" />
<path fill="#afafaf" opacity="1.00" d=" M 379.66 303.19 C 386.21 303.20 392.77 303.19 399.33 303.20 C 402.30 303.20 405.28 303.19 408.25 303.19 C 411.21 303.20 414.18 303.20 417.14 303.20 C 418.66 303.20 420.17 303.20 421.70 303.21 C 422.10 306.64 422.56 310.07 423.02 313.49 C 423.31 316.37 423.67 319.24 424.01 322.11 C 422.60 322.12 421.20 322.13 419.80 322.14 C 416.63 322.13 413.46 322.13 410.28 322.14 C 407.25 322.14 404.21 322.13 401.18 322.14 C 398.13 322.13 395.09 322.13 392.05 322.13 C 388.68 322.13 385.32 322.13 381.97 322.11 C 381.17 315.81 380.35 309.50 379.66 303.19 Z" />
</g>
<g id="#ff0000ff">
<path fill="#ff0000" opacity="1.00" d=" M 410.18 274.87 C 414.77 263.13 419.24 251.35 423.79 239.60 C 424.65 244.98 425.41 250.38 426.15 255.78 C 423.06 263.33 420.21 270.99 417.56 278.71 C 417.38 277.43 417.20 276.15 417.00 274.88 C 414.73 274.87 412.45 274.86 410.18 274.87 Z" />
<path fill="#ff0000" opacity="1.00" d=" M 402.92 293.74 C 405.85 293.78 408.79 293.71 411.73 293.71 L 411.38 294.70 C 410.35 297.54 409.33 300.38 408.25 303.19 C 405.28 303.19 402.30 303.20 399.33 303.20 C 400.53 300.05 401.74 296.90 402.92 293.74 Z" />
<path fill="#ff0000" opacity="1.00" d=" M 392.05 322.13 C 395.09 322.13 398.13 322.13 401.18 322.14 C 399.38 326.86 397.64 331.60 395.84 336.33 C 392.75 336.32 389.67 336.32 386.59 336.32 C 388.37 331.58 390.19 326.85 392.05 322.13 Z" />
</g>
<g id="#e9584dff">
<path fill="#e9584d" opacity="1.00" d=" M 0.00 256.66 C 2.47 253.86 5.23 251.34 7.83 248.67 C 8.58 259.12 7.32 269.64 8.80 280.04 C 11.30 306.23 17.87 332.02 28.36 356.15 C 27.97 356.53 27.19 357.31 26.79 357.70 C 17.82 366.58 9.02 375.64 0.00 384.47 L 0.00 256.66 Z" />
</g>
<g id="#fff800ff">
<path fill="#fff800" opacity="1.00" d=" M 417.56 278.71 C 420.21 270.99 423.06 263.33 426.15 255.78 C 427.01 261.36 427.79 266.95 428.58 272.54 C 424.37 282.61 421.08 293.03 417.14 303.20 C 414.18 303.20 411.21 303.20 408.25 303.19 C 409.33 300.38 410.35 297.54 411.38 294.70 C 411.59 294.47 412.03 294.01 412.25 293.78 C 414.59 293.68 416.95 293.72 419.31 293.74 C 418.79 288.72 418.05 283.73 417.56 278.71 Z" />
<path fill="#fff800" opacity="1.00" d=" M 401.18 322.14 C 404.21 322.13 407.25 322.14 410.28 322.14 C 408.57 326.87 406.80 331.59 405.14 336.35 C 402.04 336.31 398.93 336.32 395.84 336.33 C 397.64 331.60 399.38 326.86 401.18 322.14 Z" />
</g>
<g id="#2e8c0eff">
<path fill="#2e8c0e" opacity="1.00" d=" M 417.14 303.20 C 421.08 293.03 424.37 282.61 428.58 272.54 C 429.57 278.87 430.52 285.21 431.34 291.56 C 428.57 298.87 425.85 306.20 423.02 313.49 C 422.56 310.07 422.10 306.64 421.70 303.21 C 420.17 303.20 418.66 303.20 417.14 303.20 Z" />
<path fill="#2e8c0e" opacity="1.00" d=" M 410.28 322.14 C 413.46 322.13 416.63 322.13 419.80 322.14 C 418.03 326.88 416.22 331.61 414.47 336.36 C 411.36 336.40 408.25 336.40 405.14 336.35 C 406.80 331.59 408.57 326.87 410.28 322.14 Z" />
</g>
<g id="#00dbd5ff">
<path fill="#00dbd5" opacity="1.00" d=" M 431.34 291.56 C 432.07 297.79 433.48 303.94 433.76 310.22 C 430.04 318.78 427.14 327.66 423.76 336.36 C 420.66 336.33 417.56 336.33 414.47 336.36 C 416.22 331.61 418.03 326.88 419.80 322.14 C 421.20 322.13 422.60 322.12 424.01 322.11 C 423.67 319.24 423.31 316.37 423.02 313.49 C 425.85 306.20 428.57 298.87 431.34 291.56 Z" />
</g>
<g id="#ffd776ff">
<path fill="#ffd776" opacity="1.00" d=" M 55.29 329.18 C 60.51 324.21 65.31 318.80 70.74 314.04 C 68.45 329.36 66.34 344.70 63.93 359.99 C 69.50 360.00 75.07 359.99 80.63 360.01 C 85.05 368.66 91.02 376.42 96.87 384.14 C 101.32 390.11 106.60 395.39 112.11 400.38 C 108.28 404.24 104.40 408.05 100.58 411.92 C 93.95 418.61 87.23 425.21 80.60 431.90 C 80.23 432.27 79.48 433.02 79.11 433.40 C 70.13 425.48 62.52 416.22 55.28 406.73 C 44.34 391.31 34.09 375.20 26.79 357.70 C 27.19 357.31 27.97 356.53 28.36 356.15 C 37.38 347.20 46.28 338.14 55.29 329.18 Z" />
</g>
<g id="#ffd369ff">
<path fill="#ffd369" opacity="1.00" d=" M 0.00 384.47 C 9.02 375.64 17.82 366.58 26.79 357.70 C 34.09 375.20 44.34 391.31 55.28 406.73 C 62.52 416.22 70.13 425.48 79.11 433.40 C 73.63 438.92 68.08 444.37 62.60 449.91 C 56.47 456.07 50.29 462.19 44.14 468.34 C 40.15 464.85 36.35 461.13 33.13 456.91 C 20.60 443.34 9.81 428.26 0.00 412.63 L 0.00 384.47 Z" />
</g>
<g id="#ffdb83ff">
<path fill="#ffdb83" opacity="1.00" d=" M 80.63 360.01 C 104.56 360.00 128.48 360.00 152.40 360.00 C 149.53 363.03 146.53 365.94 143.61 368.91 C 137.41 375.16 131.12 381.32 124.93 387.58 C 120.68 391.87 116.38 396.11 112.11 400.38 C 106.60 395.39 101.32 390.11 96.87 384.14 C 91.02 376.42 85.05 368.66 80.63 360.01 Z" />
</g>
<g id="#8ec07aff">
<path fill="#8ec07a" opacity="1.00" d=" M 152.40 360.00 C 158.54 360.00 164.69 359.99 170.83 360.00 C 189.51 375.75 212.70 385.70 236.78 389.40 C 240.97 389.96 245.25 389.98 249.35 391.12 C 245.35 395.15 241.31 399.14 237.34 403.20 C 233.92 406.57 230.55 409.99 227.14 413.37 C 199.46 408.82 173.61 395.73 152.27 377.72 C 149.26 374.91 146.42 371.91 143.61 368.91 C 146.53 365.94 149.53 363.03 152.40 360.00 Z" />
</g>
<g id="#95c483ff">
<path fill="#95c483" opacity="1.00" d=" M 170.83 360.00 C 207.35 360.01 243.86 359.99 280.38 360.00 C 270.14 370.47 259.73 380.78 249.35 391.12 C 245.25 389.98 240.97 389.96 236.78 389.40 C 212.70 385.70 189.51 375.75 170.83 360.00 Z" />
</g>
<g id="#75c2f2ff">
<path fill="#75c2f2" opacity="1.00" d=" M 280.38 360.00 C 307.67 360.00 334.96 360.00 362.25 360.00 C 358.22 365.09 352.89 368.85 347.98 373.02 C 327.86 389.05 303.35 399.31 277.95 403.15 C 272.00 404.14 265.93 403.92 259.98 404.89 C 254.95 405.70 249.99 404.21 244.98 404.13 C 242.40 404.09 239.83 403.85 237.34 403.20 C 241.31 399.14 245.35 395.15 249.35 391.12 C 259.73 380.78 270.14 370.47 280.38 360.00 Z" />
</g>
<g id="#69bcf1ff">
<path fill="#69bcf1" opacity="1.00" d=" M 362.25 360.00 C 377.64 359.99 393.03 360.00 408.41 360.01 C 389.49 379.09 370.49 398.09 351.42 417.02 C 345.27 418.25 340.67 422.92 334.75 424.78 C 294.77 443.57 248.05 447.34 205.60 435.04 C 212.67 427.70 219.95 420.58 227.14 413.37 C 230.55 409.99 233.92 406.57 237.34 403.20 C 239.83 403.85 242.40 404.09 244.98 404.13 C 249.99 404.21 254.95 405.70 259.98 404.89 C 265.93 403.92 272.00 404.14 277.95 403.15 C 303.35 399.31 327.86 389.05 347.98 373.02 C 352.89 368.85 358.22 365.09 362.25 360.00 Z" />
</g>
<g id="#86bb71ff">
<path fill="#86bb71" opacity="1.00" d=" M 124.93 387.58 C 131.12 381.32 137.41 375.16 143.61 368.91 C 146.42 371.91 149.26 374.91 152.27 377.72 C 173.61 395.73 199.46 408.82 227.14 413.37 C 219.95 420.58 212.67 427.70 205.60 435.04 L 205.39 434.97 C 175.12 426.30 147.15 409.89 124.93 387.58 Z" />
</g>
<g id="#73b15bff">
<path fill="#73b15b" opacity="1.00" d=" M 80.60 431.90 C 87.23 425.21 93.95 418.61 100.58 411.92 C 104.76 416.30 108.91 420.73 113.61 424.55 C 132.62 440.78 154.39 453.85 177.85 462.55 L 178.01 462.62 C 170.56 469.73 163.44 477.18 156.09 484.41 C 134.81 474.70 114.54 462.56 96.76 447.29 C 90.86 442.72 85.68 437.34 80.60 431.90 Z" />
</g>
<g id="#ffd05cff">
<path fill="#ffd05c" opacity="1.00" d=" M 0.00 412.63 C 9.81 428.26 20.60 443.34 33.13 456.91 C 36.35 461.13 40.15 464.85 44.14 468.34 C 40.74 471.76 37.30 475.14 33.92 478.58 C 22.75 489.73 11.62 500.92 0.38 512.00 L 0.00 512.00 L 0.00 412.63 Z" />
</g>
<g id="#5cb6f0ff">
<path fill="#5cb6f0" opacity="1.00" d=" M 334.75 424.78 C 340.67 422.92 345.27 418.25 351.42 417.02 C 332.42 436.08 313.40 455.13 294.35 474.14 C 283.23 475.11 272.18 477.44 260.97 476.97 C 254.09 476.70 247.17 477.60 240.33 476.57 C 219.07 474.77 197.91 470.42 178.01 462.62 L 177.85 462.55 C 187.12 453.46 196.31 444.26 205.39 434.97 L 205.60 435.04 C 248.05 447.34 294.77 443.57 334.75 424.78 Z" />
</g>
<g id="#6cad52ff">
<path fill="#6cad52" opacity="1.00" d=" M 79.11 433.40 C 79.48 433.02 80.23 432.27 80.60 431.90 C 85.68 437.34 90.86 442.72 96.76 447.29 C 114.54 462.56 134.81 474.70 156.09 484.41 C 152.02 488.45 147.98 492.51 143.93 496.58 C 141.65 498.86 139.37 501.14 137.08 503.41 C 126.64 498.84 117.04 492.63 107.25 486.86 C 91.31 475.91 75.56 464.37 62.60 449.91 C 68.08 444.37 73.63 438.92 79.11 433.40 Z" />
</g>
<g id="#63a847ff">
<path fill="#63a847" opacity="1.00" d=" M 44.14 468.34 C 50.29 462.19 56.47 456.07 62.60 449.91 C 75.56 464.37 91.31 475.91 107.25 486.86 C 117.04 492.63 126.64 498.84 137.08 503.41 C 134.21 506.26 131.35 509.10 128.53 512.00 L 73.34 512.00 C 59.46 501.77 46.19 490.68 33.92 478.58 C 37.30 475.14 40.74 471.76 44.14 468.34 Z" />
</g>
<g id="#4eb0eeff">
<path fill="#4eb0ee" opacity="1.00" d=" M 156.09 484.41 C 163.44 477.18 170.56 469.73 178.01 462.62 C 197.91 470.42 219.07 474.77 240.33 476.57 C 247.17 477.60 254.09 476.70 260.97 476.97 C 272.18 477.44 283.23 475.11 294.35 474.14 C 281.76 486.76 269.10 499.30 256.60 512.00 L 184.58 512.00 C 170.80 507.48 157.09 502.69 143.93 496.58 C 147.98 492.51 152.02 488.45 156.09 484.41 Z" />
</g>
<g id="#58a23bff">
<path fill="#58a23b" opacity="1.00" d=" M 0.38 512.00 C 11.62 500.92 22.75 489.73 33.92 478.58 C 46.19 490.68 59.46 501.77 73.34 512.00 L 0.38 512.00 Z" />
</g>
<g id="#43abedff">
<path fill="#43abed" opacity="1.00" d=" M 137.08 503.41 C 139.37 501.14 141.65 498.86 143.93 496.58 C 157.09 502.69 170.80 507.48 184.58 512.00 L 128.53 512.00 C 131.35 509.10 134.21 506.26 137.08 503.41 Z" />
</g>
</svg>
