<?xml version="1.0" encoding="UTF-8" standalone="no"?>
<svg
   width="113.32pt"
   height="120.66568pt"
   viewBox="0 0 113.32 120.66568"
   version="1.1"
   id="svg22"
   sodipodi:docname="stella.svg"
   inkscape:version="1.4.2 (ebf0e940d0, 2025-05-08)"
   xmlns:inkscape="http://www.inkscape.org/namespaces/inkscape"
   xmlns:sodipodi="http://sodipodi.sourceforge.net/DTD/sodipodi-0.dtd"
   xmlns="http://www.w3.org/2000/svg"
   xmlns:svg="http://www.w3.org/2000/svg">
  <defs
     id="defs22" />
  <sodipodi:namedview
     id="namedview22"
     pagecolor="#505050"
     bordercolor="#ffffff"
     borderopacity="1"
     inkscape:showpageshadow="0"
     inkscape:pageopacity="0"
     inkscape:pagecheckerboard="1"
     inkscape:deskcolor="#505050"
     inkscape:document-units="pt"
     inkscape:zoom="4.9453125"
     inkscape:cx="77.14376"
     inkscape:cy="78.660348"
     inkscape:window-width="1920"
     inkscape:window-height="1052"
     inkscape:window-x="0"
     inkscape:window-y="0"
     inkscape:window-maximized="1"
     inkscape:current-layer="svg22" />
  <g
     id="#00000080"
     transform="translate(-6.2,-5.076318)">
    <path
       fill="#000000"
       opacity="0.5"
       d="m 77.39,12.3 c 0.66,-2.95 2.17,-6.79 5.66,-7.09 5.91,-0.48 11.82,0.49 17.74,0.45 2.57,0.04 5.65,-0.11 7.4,2.17 2.77,3.36 4.55,7.39 6.94,11.01 1.67,2.92 3.94,5.73 4.39,9.15 -1.06,4.53 -4.08,8.27 -6.23,12.32 -5.43,9.9 -12.31,19.45 -14.08,30.86 -1.63,8.54 0.84,17.62 6.18,24.42 3.08,3.89 7.25,6.88 9.78,11.21 1.57,2.92 -0.36,6.07 -1.54,8.76 -1.83,3.37 -3.15,7.36 -6.39,9.67 -2.35,1.37 -4.87,-0.27 -6.59,-1.86 -5.64,-5.05 -11.1,-10.29 -16.73,-15.34 -4.75,-4.19 -8.19,-9.56 -12.3,-14.31 -3.02,3.32 -4.03,7.81 -6.43,11.49 -1.32,2.09 -4.05,2.92 -6.31,1.93 C 50.79,104.26 45.28,97.27 38.63,92.24 33.35,90.44 26.95,93.46 22.1,89.86 17.07,86.35 11.96,82.77 7.79,78.23 6.08,76.68 6.29,74.29 6.2,72.2 c 3.75,6.98 10.72,11.12 16.9,15.67 5.08,3.66 11.95,-0.11 17.17,2.8 5.39,4.64 10.34,10 16.81,13.18 1.43,0.7 3.01,1.14 4.61,1.07 4.51,-4.77 4.63,-12.36 10.09,-16.51 0.41,0.48 1.23,1.45 1.65,1.93 2.78,8.42 9.86,14.22 16.06,20.12 5.24,4.44 9.86,9.6 15.57,13.47 3.43,-4.53 6.64,-9.47 7.97,-15.07 0.37,-1.46 -0.83,-2.72 -1.43,-3.95 -0.3,-0.28 -0.9,-0.85 -1.2,-1.13 -4.41,-5.11 -9.58,-9.99 -11.63,-16.62 -2.56,-7.13 -2.38,-15.05 0.07,-22.18 2.82,-9.11 8.41,-16.97 12.86,-25.31 2.23,-4.36 5.93,-8.45 5.73,-13.63 -3.86,-5.9 -7.17,-12.17 -11.59,-17.68 L 105.42,7.8 c -0.6,-0.19 -1.79,-0.57 -2.39,-0.75 -0.72,0.02 -2.18,0.08 -2.9,0.1 C 98.36,7.22 96.59,7.06 94.84,6.88 90.64,6.47 86.42,6.45 82.21,6.1 80.6,8.16 78.95,10.2 77.39,12.3 Z"
       id="path1" />
  </g>
  <g
     id="#c38400ff"
     transform="translate(-6.2,-5.076318)">
    <path
       fill="#c38400"
       opacity="1"
       d="m 82.21,6.1 c 4.21,0.35 8.43,0.37 12.63,0.78 -8.51,12.62 -16.3,25.72 -24.32,38.65 -2.23,4.16 -6.26,7.98 -5.51,13.11 -1.87,3.53 -3.76,7.06 -6,10.38 -4.74,7.04 -8.7,14.59 -13.81,21.39 -1.16,-0.4 -2.32,-0.81 -3.47,-1.24 -1.47,-0.89 -2.95,-1.75 -4.44,-2.6 1.09,-3.99 3.38,-7.46 5.68,-10.83 6.6,-10.3 13.64,-20.32 19.66,-30.98 -4.67,4.62 -8.74,9.93 -14.21,13.68 -11.94,8.44 -26,14.93 -40.86,14.94 1.76,-3.1 3.66,-6.13 5.51,-9.19 0.22,-0.26 0.67,-0.77 0.89,-1.03 1.98,-0.03 3.96,-0.04 5.94,-0.09 1.48,0.55 3.09,0.26 4.26,-0.82 C 39.52,58.59 52.56,48.37 61.89,35.89 67.37,28.25 72.8,20.52 77.39,12.3 78.95,10.2 80.6,8.16 82.21,6.1 m -8.59,17.59 c -3.38,5.37 -7.84,10.21 -9.68,16.4 2.23,-1.87 4.13,-4.11 5.62,-6.61 3.77,-6.14 7.69,-12.19 11.94,-18.01 1.72,-2.76 4.36,-5.47 3.91,-8.99 -5.08,4.89 -7.82,11.51 -11.79,17.21 z"
       id="path2" />
  </g>
  <g
     id="#d6ad20ff"
     transform="translate(-6.2,-5.076318)">
    <path
       fill="#d6ad20"
       opacity="1"
       d="m 73.62,23.69 c 3.97,-5.7 6.71,-12.32 11.79,-17.21 0.45,3.52 -2.19,6.23 -3.91,8.99 -4.25,5.82 -8.17,11.87 -11.94,18.01 -1.49,2.5 -3.39,4.74 -5.62,6.61 1.84,-6.19 6.3,-11.03 9.68,-16.4 z"
       id="path3" />
  </g>
  <g
     id="#d2a112fe"
     transform="translate(-6.2,-5.076318)">
    <path
       fill="#d2a112"
       opacity="1"
       d="m 94.84,6.88 c 1.75,0.18 3.52,0.34 5.29,0.27 -6.13,2.39 -8.21,9.18 -11.76,14.13 -5.53,9.2 -12.62,17.53 -16.99,27.39 -1.97,3.42 -4.29,6.62 -6.37,9.97 -0.75,-5.13 3.28,-8.95 5.51,-13.11 C 78.54,32.6 86.33,19.5 94.84,6.88 Z"
       id="path4" />
  </g>
  <g
     id="#c48600ff"
     transform="translate(-6.2,-5.076318)">
    <path
       fill="#c48600"
       opacity="1"
       d="m 100.13,7.15 c 0.72,-0.02 2.18,-0.08 2.9,-0.1 -6.4,10.62 -13.01,21.11 -19.1,31.91 -1.92,3.22 -3.62,7.01 -1.75,10.68 -0.17,1.04 -0.3,2.08 -0.39,3.13 -0.42,4.52 -0.95,9.14 0.07,13.62 2.17,8.77 7.63,16.59 15.23,21.5 0.71,1.12 1.41,2.25 2.1,3.39 -1.79,6.46 -5.62,12.04 -8.75,17.9 C 84.38,103.65 78.76,97.69 73.99,91 71.99,87.19 70.14,83.28 68.83,79.17 68.49,75.46 68.25,71.73 68.23,68.01 68.02,61.38 70.9,55.22 71.38,48.67 75.75,38.81 82.84,30.48 88.37,21.28 91.92,16.33 94,9.54 100.13,7.15 Z"
       id="path5" />
  </g>
  <g
     id="#d3a61dff"
     transform="translate(-6.2,-5.076318)">
    <path
       fill="#d3a61d"
       opacity="1"
       d="m 103.03,7.05 c 0.6,0.18 1.79,0.56 2.39,0.75 -5.08,10.5 -12.4,19.7 -17.77,30.04 -1.03,1.99 -1.98,4.01 -2.86,6.07 -0.85,1.92 -1.77,3.81 -2.61,5.73 -1.87,-3.67 -0.17,-7.46 1.75,-10.68 6.09,-10.8 12.7,-21.29 19.1,-31.91 z"
       id="path6" />
  </g>
  <g
     id="#754600ff"
     transform="translate(-6.2,-5.076318)">
    <path
       fill="#754600"
       opacity="1"
       d="m 105.42,7.8 0.42,0.56 c 2.3,5.43 5.83,10.17 8.64,15.31 1.82,2.51 -0.01,5.3 -1.23,7.6 -4.87,8.08 -9.75,16.18 -13.83,24.7 C 96.71,49.19 91.78,43.74 87.65,37.84 93.02,27.5 100.34,18.3 105.42,7.8 Z"
       id="path7" />
  </g>
  <g
     id="#000000ee"
     transform="translate(-6.2,-5.076318)">
    <path
       fill="#000000"
       opacity="0.93"
       d="m 105.84,8.36 c 4.42,5.51 7.73,11.78 11.59,17.68 -6.12,12.84 -15.17,24.22 -19.7,37.81 -2.54,7.2 -1.93,14.96 -1.14,22.41 -0.6,-2 -1.18,-4.01 -1.57,-6.06 -0.38,-4.37 0.06,-8.76 0.5,-13.12 0.84,-3.85 2.24,-7.55 3.9,-11.11 4.08,-8.52 8.96,-16.62 13.83,-24.7 1.22,-2.3 3.05,-5.09 1.23,-7.6 -2.81,-5.14 -6.34,-9.88 -8.64,-15.31 z"
       id="path8" />
    <path
       fill="#000000"
       opacity="0.93"
       d="M 73.69,16.58 C 74.74,15.01 76,13.59 77.39,12.3 72.8,20.52 67.37,28.25 61.89,35.89 52.56,48.37 39.52,58.59 24.16,62.25 22.7,61.49 20.95,61.77 19.9,63.07 c -1.98,0.05 -3.96,0.06 -5.94,0.09 4.69,-1.99 9.96,-1.62 14.72,-3.37 C 41.11,55.95 51.23,47.14 59.4,37.3 64.62,30.72 69.06,23.58 73.69,16.58 Z"
       id="path9" />
    <path
       fill="#000000"
       opacity="0.93"
       d="m 6.2,72.2 c 2.32,-2.64 4.3,-5.59 6.87,-8.01 -1.85,3.06 -3.75,6.09 -5.51,9.19 1.03,1 2.05,2 3.1,2.99 3.82,3.57 7.96,6.81 12.39,9.6 3.08,2.13 6.97,1.4 10.45,1.09 1.26,-0.15 2.53,-0.32 3.79,-0.49 1.49,0.85 2.97,1.71 4.44,2.6 4.92,6.49 11.57,11.78 19.29,14.49 0.69,-1.54 1.38,-3.09 2.03,-4.65 1.9,-4.38 4.23,-8.58 7.26,-12.28 0.37,0.42 1.1,1.26 1.47,1.68 -5.46,4.15 -5.58,11.74 -10.09,16.51 -1.6,0.07 -3.18,-0.37 -4.61,-1.07 C 50.61,100.67 45.66,95.31 40.27,90.67 35.05,87.76 28.18,91.53 23.1,87.87 16.92,83.32 9.95,79.18 6.2,72.2 Z"
       id="path10" />
    <path
       fill="#000000"
       opacity="0.93"
       d="M 73.43,90.34 73.99,91 c 4.77,6.69 10.39,12.65 16.45,18.18 4.55,4.49 9.09,9.06 14.41,12.67 2.9,-5.32 7.19,-10.53 6.75,-16.94 0.6,1.23 1.8,2.49 1.43,3.95 -1.33,5.6 -4.54,10.54 -7.97,15.07 -5.71,-3.87 -10.33,-9.03 -15.57,-13.47 -6.2,-5.9 -13.28,-11.7 -16.06,-20.12 z"
       id="path11" />
  </g>
  <g
     id="#030202b8"
     transform="translate(-6.2,-5.076318)">
    <path
       fill="#030202"
       opacity="0.72"
       d="m 117.43,26.04 c 0.2,5.18 -3.5,9.27 -5.73,13.63 -4.45,8.34 -10.04,16.2 -12.86,25.31 -2.45,7.13 -2.63,15.05 -0.07,22.18 2.05,6.63 7.22,11.51 11.63,16.62 -4.67,-3.23 -8.62,-7.42 -11.21,-12.5 -0.69,-1.14 -1.39,-2.27 -2.1,-3.39 -0.13,-0.41 -0.38,-1.22 -0.5,-1.63 -0.79,-7.45 -1.4,-15.21 1.14,-22.41 4.53,-13.59 13.58,-24.97 19.7,-37.81 z"
       id="path12" />
  </g>
  <g
     id="#895a00ff"
     transform="translate(-6.2,-5.076318)">
    <path
       fill="#895a00"
       opacity="1"
       d="m 84.79,43.91 c 0.88,-2.06 1.83,-4.08 2.86,-6.07 4.13,5.9 9.06,11.35 11.77,18.13 -1.66,3.56 -3.06,7.26 -3.9,11.11 C 94.9,60.46 89.45,56.2 85.81,51.19 84.11,49.14 84.57,46.34 84.79,43.91 Z"
       id="path13" />
  </g>
  <g
     id="#9c6700ff"
     transform="translate(-6.2,-5.076318)">
    <path
       fill="#9c6700"
       opacity="1"
       d="m 82.18,49.64 c 0.84,-1.92 1.76,-3.81 2.61,-5.73 -0.22,2.43 -0.68,5.23 1.02,7.28 3.64,5.01 9.09,9.27 9.71,15.89 -0.44,4.36 -0.88,8.75 -0.5,13.12 C 94.45,77.4 93.93,74.59 93.37,71.79 87.7,66.94 81.51,60.83 81.79,52.77 c 0.09,-1.05 0.22,-2.09 0.39,-3.13 z"
       id="path14" />
  </g>
  <g
     id="#432100ff"
     transform="translate(-6.2,-5.076318)">
    <path
       fill="#432100"
       opacity="1"
       d="M 48.42,58.44 C 53.89,54.69 57.96,49.38 62.63,44.76 56.61,55.42 49.57,65.44 42.97,75.74 39.66,74.79 36.9,72.67 33.85,71.18 29,71.32 24.56,73.73 19.79,74.45 16.73,74.99 13.66,75.53 10.66,76.37 9.61,75.38 8.59,74.38 7.56,73.38 22.42,73.37 36.48,66.88 48.42,58.44 Z"
       id="path15" />
  </g>
  <g
     id="#774800ff"
     transform="translate(-6.2,-5.076318)">
    <path
       fill="#774800"
       opacity="1"
       d="m 71.38,48.67 c -0.48,6.55 -3.36,12.71 -3.15,19.34 0.02,3.72 0.26,7.45 0.6,11.16 -0.6,-1.47 -1.27,-2.91 -1.94,-4.35 -2.13,7.91 -3.66,15.98 -3.84,24.19 -0.65,1.56 -1.34,3.11 -2.03,4.65 -7.72,-2.71 -14.37,-8 -19.29,-14.49 1.15,0.43 2.31,0.84 3.47,1.24 5.11,-6.8 9.07,-14.35 13.81,-21.39 2.24,-3.32 4.13,-6.85 6,-10.38 2.08,-3.35 4.4,-6.55 6.37,-9.97 z"
       id="path16" />
  </g>
  <g
     id="#ad7600ff"
     transform="translate(-6.2,-5.076318)">
    <path
       fill="#ad7600"
       opacity="1"
       d="m 81.86,66.39 c -1.02,-4.48 -0.49,-9.1 -0.07,-13.62 -0.28,8.06 5.91,14.17 11.58,19.02 0.56,2.8 1.08,5.61 1.65,8.41 0.39,2.05 0.97,4.06 1.57,6.06 0.12,0.41 0.37,1.22 0.5,1.63 -7.6,-4.91 -13.06,-12.73 -15.23,-21.5 z"
       id="path17" />
  </g>
  <g
     id="#51390bf6"
     transform="translate(-6.2,-5.076318)">
    <path
       fill="#51390b"
       opacity="0.96"
       d="m 19.9,63.07 c 1.05,-1.3 2.8,-1.58 4.26,-0.82 -1.17,1.08 -2.78,1.37 -4.26,0.82 z"
       id="path18" />
  </g>
  <g
     id="#6d4600ff"
     transform="translate(-6.2,-5.076318)">
    <path
       fill="#6d4600"
       opacity="1"
       d="m 19.79,74.45 c 4.77,-0.72 9.21,-3.13 14.06,-3.27 3.05,1.49 5.81,3.61 9.12,4.56 -2.3,3.37 -4.59,6.84 -5.68,10.83 -1.26,0.17 -2.53,0.34 -3.79,0.49 C 29.66,82.1 24.22,78.81 19.79,74.45 Z"
       id="path19" />
  </g>
  <g
     id="#875900ff"
     transform="translate(-6.2,-5.076318)">
    <path
       fill="#875900"
       opacity="1"
       d="m 10.66,76.37 c 3,-0.84 6.07,-1.38 9.13,-1.92 4.43,4.36 9.87,7.65 13.71,12.61 -3.48,0.31 -7.37,1.04 -10.45,-1.09 -4.43,-2.79 -8.57,-6.03 -12.39,-9.6 z"
       id="path20" />
  </g>
  <g
     id="#2c1100ff"
     transform="translate(-6.2,-5.076318)">
    <path
       fill="#2c1100"
       opacity="1"
       d="m 66.89,74.82 c 0.67,1.44 1.34,2.88 1.94,4.35 1.31,4.11 3.16,8.02 5.16,11.83 l -0.56,-0.66 c -0.42,-0.48 -1.24,-1.45 -1.65,-1.93 -0.37,-0.42 -1.1,-1.26 -1.47,-1.68 -3.03,3.7 -5.36,7.9 -7.26,12.28 0.18,-8.21 1.71,-16.28 3.84,-24.19 z"
       id="path21" />
  </g>
  <g
     id="#593400ff"
     transform="translate(-6.2,-5.076318)">
    <path
       fill="#593400"
       opacity="1"
       d="m 99.19,91.28 c 2.59,5.08 6.54,9.27 11.21,12.5 0.3,0.28 0.9,0.85 1.2,1.13 0.44,6.41 -3.85,11.62 -6.75,16.94 -5.32,-3.61 -9.86,-8.18 -14.41,-12.67 3.13,-5.86 6.96,-11.44 8.75,-17.9 z"
       id="path22" />
  </g>
</svg>
