<?xml version="1.0" encoding="UTF-8" ?>
<!DOCTYPE svg PUBLIC "-//W3C//DTD SVG 1.1//EN" "http://www.w3.org/Graphics/SVG/1.1/DTD/svg11.dtd">
<svg width="512pt" height="261pt" viewBox="0 0 512 261" version="1.1" xmlns="http://www.w3.org/2000/svg">
<g id="#1e181bfe">
<path fill="#1e181b" opacity="1.00" d=" M 332.69 6.77 C 338.43 1.60 346.69 1.32 353.99 1.49 C 358.76 1.50 364.50 2.30 367.23 6.72 C 369.04 9.75 373.02 8.98 375.97 9.63 C 380.60 10.70 385.22 13.24 387.65 17.48 C 389.15 19.92 389.79 23.30 392.87 24.28 C 400.83 27.93 408.59 33.30 412.41 41.45 C 414.18 44.67 413.88 48.45 413.94 52.00 C 413.86 57.34 414.00 62.80 412.28 67.92 C 409.46 66.88 408.65 63.57 406.67 61.54 C 403.54 57.22 399.68 51.65 393.55 52.61 C 394.90 56.55 394.59 60.70 394.41 64.78 C 394.59 62.17 394.74 59.55 395.14 56.96 C 395.38 62.39 395.96 67.89 395.13 73.29 C 394.35 77.93 391.20 81.51 388.72 85.32 C 388.57 84.18 387.94 83.45 386.83 83.12 C 386.33 80.23 385.49 77.42 384.56 74.64 C 382.49 72.93 380.68 70.96 378.93 68.95 C 379.33 67.44 379.70 65.93 380.08 64.41 C 378.96 65.20 377.86 65.99 376.76 66.80 C 374.44 64.36 371.04 62.22 371.16 58.42 L 369.95 59.04 C 368.63 58.39 364.32 58.82 366.64 60.80 C 374.29 67.21 379.77 75.65 386.04 83.28 C 385.51 84.62 386.71 85.65 387.62 86.40 C 393.37 93.92 395.99 103.23 400.69 111.32 L 400.10 111.40 C 399.17 111.53 398.26 111.68 397.35 111.85 C 391.10 95.92 382.39 80.85 370.71 68.28 C 366.74 63.80 362.17 59.91 357.91 55.72 C 361.52 55.56 365.10 56.19 368.63 56.85 C 370.06 55.15 371.53 53.48 373.04 51.85 C 373.98 55.83 373.21 60.66 376.81 63.46 C 378.86 61.87 380.95 60.32 383.11 58.87 C 383.50 62.91 380.71 67.63 383.82 71.02 C 385.30 69.74 386.78 68.46 388.25 67.16 C 387.95 70.43 387.33 73.74 387.78 77.02 C 388.11 78.11 387.95 80.05 389.58 79.93 C 396.31 69.38 391.93 56.77 390.32 45.45 C 393.20 47.19 396.01 49.02 398.81 50.88 C 400.05 49.39 401.31 47.90 402.58 46.43 C 403.41 49.10 403.88 51.86 404.63 54.55 C 406.13 57.63 408.63 60.06 410.80 62.67 C 412.49 56.17 413.28 48.99 410.17 42.77 C 406.03 33.73 396.70 29.06 388.28 24.80 C 387.11 21.09 385.29 17.39 381.96 15.16 C 377.81 11.93 372.37 11.47 367.30 11.49 C 366.00 9.31 364.81 6.81 362.37 5.70 C 358.23 3.77 353.51 3.87 349.05 4.02 C 343.75 4.30 337.87 4.97 333.98 9.00 C 330.56 12.36 330.76 17.48 330.54 21.90 C 326.76 19.35 322.66 16.90 317.99 16.58 C 312.28 16.13 305.98 17.63 301.91 21.87 C 299.57 24.15 299.56 27.59 298.54 30.50 C 295.25 33.89 291.21 36.58 288.50 40.54 C 282.84 48.41 278.64 58.01 279.44 67.89 C 279.81 75.19 282.76 82.42 287.99 87.57 C 288.72 84.82 289.84 82.08 289.86 79.20 C 288.78 75.73 287.26 72.36 287.09 68.68 C 289.11 69.91 291.07 71.25 293.03 72.59 C 294.50 69.73 296.35 67.02 297.32 63.92 C 297.06 60.87 296.42 57.85 296.18 54.79 C 298.24 56.05 300.24 57.40 302.21 58.80 C 305.39 56.73 308.75 54.97 312.31 53.65 C 306.67 62.53 303.03 73.40 305.65 83.92 C 307.03 90.94 311.75 97.17 318.42 99.93 C 318.74 96.65 319.56 93.12 317.99 90.03 C 316.77 87.42 315.95 84.66 315.52 81.82 C 316.98 82.46 318.44 83.11 319.89 83.77 C 319.98 83.07 320.15 81.66 320.24 80.96 C 318.49 77.79 317.36 74.33 317.10 70.70 C 318.81 71.51 320.51 72.34 322.21 73.18 C 323.62 71.16 325.22 69.21 326.07 66.88 C 326.36 63.80 325.88 60.71 325.78 57.62 C 327.50 59.13 329.23 60.64 330.95 62.15 C 333.66 61.13 336.42 60.25 339.18 59.38 C 336.17 62.78 333.38 67.25 334.62 71.99 C 335.96 78.83 345.03 83.02 350.85 78.87 C 354.09 76.62 354.80 72.51 355.13 68.86 C 356.15 70.33 357.44 71.60 358.73 72.85 C 358.15 72.67 356.99 72.32 356.41 72.15 C 357.36 77.06 353.44 81.46 349.03 82.94 C 340.18 85.67 329.51 76.92 331.98 67.56 C 332.29 66.45 332.61 65.33 332.94 64.22 C 331.41 64.26 329.89 64.31 328.37 64.35 C 328.45 65.09 328.53 65.83 328.60 66.57 C 327.85 70.46 324.97 73.92 322.47 77.01 C 322.66 80.23 322.68 83.47 322.37 86.69 C 322.06 86.73 321.42 86.81 321.10 86.85 C 318.81 86.32 319.01 89.53 321.20 88.50 C 321.48 93.15 321.39 97.80 321.38 102.45 C 315.47 102.73 310.45 98.39 307.08 93.93 C 301.04 84.69 301.07 72.53 304.91 62.45 C 306.59 61.96 305.99 58.61 304.25 60.15 C 304.20 60.62 304.10 61.57 304.05 62.04 C 303.35 62.00 301.96 61.92 301.26 61.87 C 301.81 60.24 298.98 58.85 299.04 61.11 C 299.40 61.43 300.12 62.08 300.48 62.40 C 299.51 67.02 296.48 70.79 295.04 75.23 C 294.64 75.38 293.83 75.66 293.43 75.81 C 291.90 73.39 289.76 76.43 292.35 77.32 C 293.13 79.92 291.72 82.39 291.14 84.86 C 290.34 87.53 291.19 90.70 289.15 92.94 C 285.40 88.73 281.43 84.44 279.43 79.08 C 277.77 73.91 276.03 68.57 276.66 63.06 C 278.24 50.47 284.69 38.39 294.83 30.63 C 297.87 28.64 296.71 24.44 298.69 21.78 C 301.99 16.62 308.32 14.84 314.01 13.87 C 318.97 13.13 323.48 15.69 328.14 16.87 C 328.57 13.13 329.75 9.30 332.69 6.77 M 400.15 52.32 C 399.62 53.97 400.17 54.52 401.79 53.97 C 402.30 52.32 401.75 51.77 400.15 52.32 M 321.29 76.35 C 321.74 76.83 321.74 76.83 321.29 76.35 Z" />
</g>
<g id="#15a252ff">
<path fill="#15a252" opacity="1.00" d=" M 333.98 9.00 C 337.87 4.97 343.75 4.30 349.05 4.02 C 353.51 3.87 358.23 3.77 362.37 5.70 C 364.81 6.81 366.00 9.31 367.30 11.49 C 372.37 11.47 377.81 11.93 381.96 15.16 C 385.29 17.39 387.11 21.09 388.28 24.80 C 396.70 29.06 406.03 33.73 410.17 42.77 C 413.28 48.99 412.49 56.17 410.80 62.67 C 408.63 60.06 406.13 57.63 404.63 54.55 C 403.88 51.86 403.41 49.10 402.58 46.43 C 401.31 47.90 400.05 49.39 398.81 50.88 C 396.01 49.02 393.20 47.19 390.32 45.45 C 391.93 56.77 396.31 69.38 389.58 79.93 C 387.95 80.05 388.11 78.11 387.78 77.02 C 387.33 73.74 387.95 70.43 388.25 67.16 C 386.78 68.46 385.30 69.74 383.82 71.02 C 380.71 67.63 383.50 62.91 383.11 58.87 C 380.95 60.32 378.86 61.87 376.81 63.46 C 373.21 60.66 373.98 55.83 373.04 51.85 C 371.53 53.48 370.06 55.15 368.63 56.85 C 365.10 56.19 361.52 55.56 357.91 55.72 C 355.33 55.84 352.75 56.06 350.17 56.12 C 346.15 55.70 342.30 56.83 339.18 59.38 C 336.42 60.25 333.66 61.13 330.95 62.15 C 329.23 60.64 327.50 59.13 325.78 57.62 C 325.88 60.71 326.36 63.80 326.07 66.88 C 325.22 69.21 323.62 71.16 322.21 73.18 C 320.51 72.34 318.81 71.51 317.10 70.70 C 317.36 74.33 318.49 77.79 320.24 80.96 C 320.15 81.66 319.98 83.07 319.89 83.77 C 318.44 83.11 316.98 82.46 315.52 81.82 C 315.95 84.66 316.77 87.42 317.99 90.03 C 319.56 93.12 318.74 96.65 318.42 99.93 C 311.75 97.17 307.03 90.94 305.65 83.92 C 303.03 73.40 306.67 62.53 312.31 53.65 C 308.75 54.97 305.39 56.73 302.21 58.80 C 300.24 57.40 298.24 56.05 296.18 54.79 C 296.42 57.85 297.06 60.87 297.32 63.92 C 296.35 67.02 294.50 69.73 293.03 72.59 C 291.07 71.25 289.11 69.91 287.09 68.68 C 287.26 72.36 288.78 75.73 289.86 79.20 C 289.84 82.08 288.72 84.82 287.99 87.57 C 282.76 82.42 279.81 75.19 279.44 67.89 C 278.64 58.01 282.84 48.41 288.50 40.54 C 291.21 36.58 295.25 33.89 298.54 30.50 C 299.56 27.59 299.57 24.15 301.91 21.87 C 305.98 17.63 312.28 16.13 317.99 16.58 C 322.66 16.90 326.76 19.35 330.54 21.90 C 330.76 17.48 330.56 12.36 333.98 9.00 Z" />
</g>
<g id="#5d271cf7">
<path fill="#5d271c" opacity="0.97" d=" M 400.15 52.32 C 401.75 51.77 402.30 52.32 401.79 53.97 C 400.17 54.52 399.62 53.97 400.15 52.32 Z" />
</g>
<g id="#eb1557ff">
<path fill="#eb1557" opacity="1.00" d=" M 339.18 59.38 C 342.30 56.83 346.15 55.70 350.17 56.12 C 351.68 57.91 353.05 59.81 354.25 61.83 C 354.65 64.15 354.92 66.50 355.13 68.86 C 354.80 72.51 354.09 76.62 350.85 78.87 C 345.03 83.02 335.96 78.83 334.62 71.99 C 333.38 67.25 336.17 62.78 339.18 59.38 Z" />
</g>
<g id="#a28f46ff">
<path fill="#a28f46" opacity="1.00" d=" M 350.17 56.12 C 352.75 56.06 355.33 55.84 357.91 55.72 C 362.17 59.91 366.74 63.80 370.71 68.28 C 382.39 80.85 391.10 95.92 397.35 111.85 C 392.96 112.45 388.89 114.23 384.87 116.00 C 378.05 96.28 366.60 78.50 354.25 61.83 C 353.05 59.81 351.68 57.91 350.17 56.12 Z" />
<path fill="#a28f46" opacity="1.00" d=" M 358.25 117.87 C 359.53 119.64 357.29 124.23 360.73 123.41 C 359.63 124.55 358.52 125.69 357.43 126.84 C 357.84 123.86 358.15 120.87 358.25 117.87 Z" />
</g>
<g id="#4a1b16cf">
<path fill="#4a1b16" opacity="0.81" d=" M 366.64 60.80 C 364.32 58.82 368.63 58.39 369.95 59.04 C 368.95 59.81 367.94 60.68 366.64 60.80 Z" />
</g>
<g id="#63281dfb">
<path fill="#63281d" opacity="1.00" d=" M 299.04 61.11 C 298.98 58.85 301.81 60.24 301.26 61.87 L 300.48 62.40 C 300.12 62.08 299.40 61.43 299.04 61.11 Z" />
</g>
<g id="#892a1dfb">
<path fill="#892a1d" opacity="1.00" d=" M 304.25 60.15 C 305.99 58.61 306.59 61.96 304.91 62.45 L 304.05 62.04 C 304.10 61.57 304.20 60.62 304.25 60.15 Z" />
</g>
<g id="#1f1d1dfe">
<path fill="#1f1d1d" opacity="1.00" d=" M 354.25 61.83 C 366.60 78.50 378.05 96.28 384.87 116.00 C 384.46 116.15 383.66 116.45 383.25 116.59 C 383.01 116.27 382.53 115.61 382.28 115.29 C 380.54 112.85 379.84 109.88 378.61 107.18 C 373.45 95.61 366.81 84.76 359.92 74.15 C 359.62 73.82 359.03 73.17 358.73 72.85 C 357.44 71.60 356.15 70.33 355.13 68.86 C 354.92 66.50 354.65 64.15 354.25 61.83 Z" />
</g>
<g id="#59231adf">
<path fill="#59231a" opacity="0.87" d=" M 328.37 64.35 C 329.89 64.31 331.41 64.26 332.94 64.22 C 332.61 65.33 332.29 66.45 331.98 67.56 C 331.13 67.31 329.45 66.82 328.60 66.57 C 328.53 65.83 328.45 65.09 328.37 64.35 Z" />
</g>
<g id="#552918e7">
<path fill="#552918" opacity="0.91" d=" M 292.35 77.32 C 289.76 76.43 291.90 73.39 293.43 75.81 C 293.16 76.18 292.62 76.94 292.35 77.32 Z" />
</g>
<g id="#8e3516f0">
<path fill="#8e3516" opacity="0.94" d=" M 321.29 76.35 C 321.74 76.83 321.74 76.83 321.29 76.35 Z" />
</g>
<g id="#572410ce">
<path fill="#572410" opacity="0.81" d=" M 386.04 83.28 L 386.83 83.12 C 387.94 83.45 388.57 84.18 388.72 85.32 C 388.45 85.59 387.90 86.13 387.62 86.40 C 386.71 85.65 385.51 84.62 386.04 83.28 Z" />
</g>
<g id="#632917e6">
<path fill="#632917" opacity="0.90" d=" M 321.20 88.50 C 319.01 89.53 318.81 86.32 321.10 86.85 C 321.12 87.26 321.17 88.09 321.20 88.50 Z" />
</g>
<g id="#000000ff">
<path fill="#000000" opacity="1.00" d=" M 54.17 125.15 C 69.16 108.03 90.50 96.63 113.04 93.61 C 119.78 93.15 126.99 92.69 133.15 96.00 C 137.74 97.95 141.57 101.97 142.53 106.94 C 143.41 114.43 138.54 121.04 133.38 125.91 C 131.06 127.22 128.42 127.47 125.80 127.42 C 124.52 124.76 123.50 121.56 124.91 118.73 C 125.87 116.16 128.61 113.77 127.25 110.85 C 125.19 110.42 123.17 109.78 121.07 109.65 C 102.15 110.20 84.49 120.05 71.99 133.94 C 69.40 137.10 64.36 140.33 65.92 145.03 C 66.08 145.37 66.40 146.05 66.56 146.40 C 73.98 148.58 81.86 148.18 89.46 149.29 C 98.57 150.19 107.53 152.06 116.60 153.19 C 119.02 153.50 121.29 154.42 123.56 155.30 C 127.50 156.84 131.53 154.85 135.38 153.97 C 136.84 153.54 138.38 153.28 139.75 152.57 C 143.11 146.77 145.74 140.31 150.49 135.44 C 152.94 132.54 158.26 132.13 160.51 135.48 C 159.84 140.21 157.16 144.32 156.05 148.94 L 155.77 149.87 C 166.06 149.14 176.16 146.85 186.33 145.26 C 187.12 140.40 186.90 135.49 186.86 130.59 C 188.94 126.95 193.53 128.63 196.15 130.65 C 200.56 127.02 205.61 123.96 211.37 123.16 C 217.39 122.49 223.46 121.01 229.54 122.15 C 233.15 122.69 236.18 124.77 239.08 126.84 C 239.71 125.82 240.35 124.79 240.98 123.77 C 246.27 122.03 251.77 121.03 257.24 120.03 C 260.64 119.70 263.99 118.99 267.31 118.14 L 267.32 118.14 C 271.08 117.66 274.80 116.93 278.52 116.24 C 279.98 116.47 281.38 117.13 282.87 117.13 C 285.95 115.78 288.66 113.43 292.09 112.98 C 293.80 112.75 295.41 112.11 296.94 111.33 C 303.98 109.32 312.73 107.91 318.65 113.32 C 323.67 117.52 324.94 124.39 324.49 130.62 C 326.55 131.46 329.13 131.65 330.86 129.98 C 336.32 124.09 340.94 117.35 347.03 112.06 C 349.67 110.82 353.77 110.68 355.62 113.40 C 356.65 114.79 357.47 116.33 358.25 117.87 C 358.15 120.87 357.84 123.86 357.43 126.84 C 358.52 125.69 359.63 124.55 360.73 123.41 C 363.47 120.63 366.56 116.42 371.05 117.72 C 373.89 117.97 375.24 121.18 377.85 121.71 C 380.40 120.89 383.22 118.25 382.28 115.29 C 382.53 115.61 383.01 116.27 383.25 116.59 C 383.66 116.45 384.46 116.15 384.87 116.00 C 388.89 114.23 392.96 112.45 397.35 111.85 C 398.26 111.68 399.17 111.53 400.10 111.40 C 403.82 110.80 406.94 113.22 410.21 114.51 C 412.15 114.27 413.32 112.08 415.16 111.37 C 420.11 109.12 425.84 108.95 431.12 109.89 C 436.45 111.67 441.14 115.37 444.61 119.75 C 444.94 120.41 445.59 121.74 445.91 122.40 C 446.37 122.48 447.29 122.62 447.75 122.70 C 448.21 118.74 447.31 114.82 447.20 110.87 L 447.18 110.43 C 455.42 107.22 464.45 106.69 473.00 104.55 C 474.34 103.65 475.46 102.46 476.90 101.70 C 478.59 101.44 480.04 102.59 481.14 103.73 C 483.73 112.78 483.44 122.26 483.73 131.57 C 483.86 133.30 485.97 132.51 486.96 132.05 C 490.27 130.61 493.65 129.28 497.11 128.23 C 497.50 128.24 498.28 128.25 498.67 128.25 C 499.57 128.51 500.36 128.98 501.03 129.67 C 501.40 132.60 500.71 135.67 501.41 138.53 C 501.75 138.73 502.44 139.14 502.79 139.35 C 506.16 140.39 509.25 142.17 511.67 144.77 C 511.61 146.19 511.49 147.60 511.33 149.01 C 509.81 151.02 507.30 151.75 504.96 152.24 C 491.53 154.76 477.89 155.85 464.39 157.80 C 450.48 158.73 436.62 160.49 422.89 162.87 C 419.26 163.51 415.58 163.86 412.04 164.91 C 411.39 165.05 410.10 165.32 409.45 165.45 C 402.84 165.97 396.22 166.66 389.73 168.05 C 389.19 168.17 388.12 168.42 387.58 168.55 C 387.19 168.39 386.42 168.08 386.03 167.93 C 384.95 168.21 383.87 168.50 382.79 168.77 C 361.51 172.39 340.20 175.85 319.00 179.96 C 308.72 181.50 298.51 183.48 288.38 185.81 L 287.76 185.84 C 286.74 185.74 285.82 186.01 285.03 186.67 L 284.53 186.88 C 278.05 187.91 271.53 188.95 265.33 191.15 C 263.90 191.60 262.40 191.76 260.92 191.79 C 259.59 191.70 258.31 192.04 257.13 192.61 L 256.73 192.76 C 249.91 194.43 242.95 195.60 236.27 197.79 C 236.06 197.84 235.65 197.95 235.44 198.00 C 232.73 198.49 230.04 199.11 227.43 199.99 C 225.16 200.68 222.86 201.28 220.53 201.74 C 217.42 202.24 214.36 203.00 211.31 203.80 L 210.62 203.86 C 208.88 203.86 206.92 204.09 205.87 205.66 L 204.76 205.69 C 203.73 205.64 202.81 205.94 202.00 206.59 L 201.51 206.72 C 195.93 207.51 190.65 209.50 185.20 210.85 L 184.62 210.87 C 182.85 210.65 181.20 211.32 179.90 212.50 C 132.84 225.87 86.13 240.86 40.43 258.43 C 37.50 259.52 34.34 261.33 31.16 260.09 C 26.34 258.26 22.74 254.21 19.85 250.09 C 13.29 240.15 8.43 229.17 4.68 217.89 C 2.74 210.81 0.24 203.47 1.55 196.05 C 2.11 193.22 4.58 191.35 7.13 190.36 C 28.94 181.52 51.37 174.27 74.09 168.12 C 76.45 167.60 78.81 166.98 80.98 165.88 C 71.42 163.53 60.93 164.80 52.09 159.81 C 46.93 157.35 43.28 151.80 43.74 146.01 C 43.73 137.80 49.25 131.17 54.17 125.15 M 97.87 100.46 C 78.81 106.49 61.64 118.84 50.55 135.55 C 46.96 140.65 45.82 147.98 49.18 153.46 C 53.86 158.65 60.95 160.12 67.60 160.78 C 82.18 163.35 97.24 162.07 111.66 165.77 L 111.80 166.04 C 114.23 166.62 116.51 167.66 118.66 168.93 C 120.15 170.35 121.64 171.77 123.14 173.19 C 123.23 175.17 123.42 177.36 122.07 179.00 C 116.49 185.90 108.47 190.21 100.36 193.48 C 91.49 197.21 82.22 199.91 72.96 202.49 C 60.17 205.31 47.17 208.51 33.97 207.33 C 31.81 206.93 29.48 205.34 29.34 202.96 C 28.67 198.77 31.24 195.10 31.62 191.03 C 27.56 193.65 25.26 198.02 23.39 202.31 C 22.31 205.03 22.10 208.15 22.86 210.97 C 24.54 214.98 29.08 216.47 33.02 217.11 C 40.52 217.97 48.06 217.04 55.52 216.26 C 63.72 215.09 72.00 214.33 80.05 212.34 C 94.15 209.30 108.33 205.36 120.78 197.87 C 127.10 193.93 133.35 189.04 136.46 182.08 C 138.04 178.75 137.79 174.95 137.49 171.38 L 137.19 171.43 C 136.63 170.13 136.08 168.83 135.51 167.54 C 133.48 165.25 131.33 163.07 128.99 161.08 L 128.74 161.13 C 122.85 157.26 115.70 155.91 108.83 155.03 C 96.31 152.47 83.52 151.88 70.87 150.33 C 68.70 150.12 66.57 149.52 64.69 148.40 L 64.16 148.45 C 61.91 145.53 61.87 141.17 64.27 138.33 C 75.46 124.38 90.37 112.60 107.99 108.27 C 114.23 107.17 120.85 105.69 127.06 107.73 C 129.31 108.51 131.21 110.59 131.24 113.06 C 130.51 116.25 127.49 118.59 127.52 121.98 C 126.98 123.96 129.20 125.58 130.76 124.03 C 135.96 119.81 141.03 113.19 139.14 106.09 C 137.30 101.95 133.29 99.10 129.05 97.80 C 118.72 94.92 107.87 97.44 97.87 100.46 M 475.73 110.98 C 476.67 115.16 476.18 119.42 476.33 123.66 C 475.64 126.73 475.49 129.89 475.68 133.02 C 475.40 136.21 475.22 139.41 475.39 142.61 C 480.66 142.96 485.77 141.31 491.01 141.19 C 493.24 141.19 495.36 140.43 497.24 139.26 C 498.33 136.83 498.71 134.20 498.46 131.55 C 492.65 132.27 487.69 135.88 481.88 136.54 C 481.62 136.16 481.09 135.41 480.83 135.03 L 480.69 135.04 C 480.68 133.54 480.94 132.00 480.59 130.53 C 480.62 122.04 481.61 112.99 478.14 105.01 C 476.00 106.18 475.15 108.67 475.73 110.98 M 456.00 111.17 C 454.15 111.59 452.17 111.67 450.49 112.62 C 449.40 114.67 451.66 116.78 451.21 118.93 C 450.91 121.45 450.52 123.97 450.48 126.51 L 449.98 127.63 L 449.84 127.59 C 449.76 130.09 449.58 132.59 449.27 135.07 C 449.02 137.34 448.80 139.61 448.51 141.88 C 448.94 143.69 449.55 146.16 451.86 146.28 C 456.65 146.11 461.29 144.47 466.11 144.33 C 468.46 143.98 472.18 144.19 472.02 140.83 C 472.14 139.62 471.91 138.46 471.37 137.37 C 466.49 137.94 461.66 138.76 456.83 139.65 C 456.51 139.27 455.88 138.53 455.56 138.16 C 455.69 135.84 456.03 133.53 456.09 131.21 C 456.21 130.54 456.45 129.21 456.57 128.54 C 458.66 127.94 460.84 127.64 462.89 126.92 C 463.89 125.79 465.12 123.57 463.50 122.43 C 461.21 122.29 458.86 123.23 456.64 122.48 C 456.68 120.17 457.05 117.90 457.67 115.68 C 462.80 114.32 468.22 114.87 473.32 113.33 C 473.53 111.66 473.60 109.97 473.38 108.29 C 467.46 108.34 461.78 110.14 456.00 111.17 M 289.88 116.92 C 287.45 118.18 284.27 119.46 284.01 122.60 C 288.73 122.21 293.13 120.33 297.78 119.57 C 301.43 119.00 305.66 117.62 308.95 120.03 C 313.72 123.90 313.90 131.69 310.44 136.47 C 306.10 139.25 301.07 140.27 296.06 141.06 C 294.26 140.76 292.38 140.87 290.68 140.14 C 290.39 135.16 292.24 128.63 287.81 125.04 C 285.70 130.84 286.22 137.20 285.10 143.23 C 284.35 145.53 284.45 148.01 284.25 150.40 L 284.01 150.45 C 283.33 151.98 282.58 153.49 281.97 155.05 C 281.51 157.78 281.34 160.56 281.04 163.31 C 280.41 166.68 279.84 170.15 280.60 173.55 C 286.05 174.07 290.47 169.17 289.59 163.80 C 289.67 161.86 289.81 159.93 290.09 158.02 C 290.25 156.17 290.73 154.28 290.35 152.43 C 290.50 150.68 290.65 148.93 290.82 147.19 C 292.10 148.15 293.35 149.17 294.54 150.26 C 296.81 153.19 299.32 155.93 301.75 158.72 L 301.90 158.68 C 302.93 160.06 303.98 161.42 305.06 162.77 L 305.60 162.80 C 306.56 164.70 307.35 166.71 308.62 168.44 C 309.70 170.10 312.46 170.26 313.62 168.61 C 315.64 166.58 317.34 164.25 318.72 161.74 L 319.03 161.70 C 320.80 159.44 322.49 157.11 324.17 154.78 C 325.94 152.46 327.72 150.16 329.37 147.77 C 331.65 144.82 334.00 141.93 336.22 138.94 C 338.15 136.51 340.18 134.17 342.26 131.87 C 342.66 131.67 343.45 131.28 343.84 131.08 C 343.67 132.84 343.51 134.60 343.38 136.36 C 342.57 137.81 342.44 139.53 342.32 141.16 C 341.10 144.69 340.26 148.34 340.12 152.08 C 341.58 153.49 343.35 155.52 345.63 154.53 C 347.61 152.96 349.00 150.81 350.46 148.79 C 352.02 146.84 353.58 144.90 354.97 142.82 C 357.52 139.28 360.66 136.25 363.71 133.15 C 363.17 135.14 362.69 137.14 362.26 139.16 C 361.85 140.20 361.49 141.26 361.19 142.33 L 361.08 142.34 C 360.50 144.04 359.86 145.73 359.24 147.43 L 358.86 147.43 C 358.10 149.76 357.57 152.15 357.41 154.60 C 360.16 158.54 366.40 157.99 369.50 154.77 L 369.85 154.87 C 370.79 153.54 371.73 152.22 372.69 150.90 C 371.69 149.42 370.46 147.97 368.53 147.87 C 368.78 146.07 369.15 144.29 369.61 142.53 C 369.75 141.91 369.89 141.28 370.04 140.66 C 370.84 138.58 371.50 136.45 372.09 134.29 C 372.79 131.19 373.75 128.12 373.86 124.92 C 373.81 123.26 372.60 121.62 370.95 121.27 C 365.62 120.08 363.49 126.40 360.11 129.22 C 357.10 133.09 353.37 136.40 350.75 140.57 C 350.60 140.52 350.30 140.43 350.15 140.39 C 350.46 138.73 350.77 137.07 351.07 135.41 C 352.33 130.59 354.16 125.91 355.13 121.02 C 355.40 118.45 353.46 116.44 352.15 114.46 C 350.38 114.61 348.39 114.62 347.18 116.14 C 342.98 120.66 338.99 125.36 335.14 130.17 L 335.03 130.15 C 333.16 132.54 331.26 134.92 329.33 137.27 C 326.58 140.51 323.97 143.88 321.46 147.32 L 321.14 147.36 C 319.43 149.65 317.66 151.90 316.06 154.27 L 315.88 154.26 C 314.67 155.81 313.44 157.35 312.17 158.86 C 311.68 158.54 310.68 157.90 310.19 157.57 C 307.45 154.32 304.38 151.35 301.85 147.92 L 301.17 148.12 C 301.27 147.70 301.46 146.85 301.56 146.43 C 305.57 145.33 310.18 145.61 313.71 143.24 C 316.13 141.86 317.85 139.67 319.30 137.35 C 321.20 131.61 322.48 124.97 319.42 119.38 C 316.58 113.97 309.68 111.79 303.96 113.10 C 299.20 114.08 294.35 114.97 289.88 116.92 M 419.95 113.33 C 417.55 113.95 412.92 114.90 414.55 118.34 C 416.25 118.09 417.95 117.84 419.66 117.60 C 419.43 120.73 419.20 123.85 418.99 126.98 C 418.39 131.31 416.46 135.33 416.04 139.69 C 415.49 141.52 416.07 144.20 414.10 145.26 C 412.85 145.41 411.60 145.50 410.35 145.55 C 410.30 146.12 410.20 147.25 410.15 147.82 L 410.53 147.72 C 412.38 151.24 416.81 150.21 420.06 150.34 C 426.21 149.83 432.61 149.44 438.35 146.97 C 442.17 145.75 445.35 142.60 446.63 138.79 C 446.66 137.45 446.71 136.12 446.77 134.79 C 446.44 133.19 446.41 131.51 445.75 130.01 C 445.11 127.66 444.37 125.31 443.14 123.19 C 438.63 115.40 428.77 110.69 419.95 113.33 M 379.18 126.48 C 377.69 128.10 376.90 130.19 376.06 132.18 L 375.78 132.21 C 375.25 134.78 374.70 137.34 374.36 139.94 C 374.56 141.46 374.78 142.98 375.02 144.50 L 375.68 144.19 C 375.03 145.45 376.27 146.66 376.54 147.87 C 377.65 149.08 378.77 150.29 379.90 151.49 L 380.25 151.36 C 386.76 155.50 395.43 153.81 401.79 150.14 C 404.74 148.23 407.50 145.97 409.57 143.10 C 410.21 141.97 410.87 140.85 411.54 139.73 C 413.12 137.09 413.82 134.09 414.47 131.12 C 414.44 128.47 413.97 125.88 413.30 123.33 L 413.16 123.34 C 412.45 121.61 410.73 121.63 409.15 121.50 C 408.06 118.79 406.61 115.15 403.12 115.22 C 393.98 114.60 384.41 118.90 379.18 126.48 M 464.91 118.29 C 468.31 121.18 467.66 125.86 465.41 129.26 C 463.38 129.73 461.33 130.05 459.28 130.35 C 459.30 130.92 459.33 132.05 459.35 132.62 C 463.72 133.17 468.09 133.88 472.51 133.68 C 472.88 128.04 474.31 122.01 472.63 116.51 C 471.70 116.73 469.83 117.17 468.89 117.39 C 467.89 116.24 464.91 116.51 464.91 118.29 M 264.11 121.85 C 257.17 123.22 250.13 124.38 243.39 126.47 C 242.91 129.27 244.77 131.89 244.49 134.76 C 243.42 139.50 243.46 144.38 243.18 149.21 C 242.80 150.75 242.58 152.32 242.31 153.89 C 242.30 155.06 242.29 156.23 242.28 157.40 C 242.02 158.85 241.77 160.30 241.52 161.76 C 241.43 163.44 241.35 165.12 241.27 166.81 C 241.00 169.51 240.31 172.28 240.87 174.99 C 241.67 178.05 244.90 179.83 247.95 179.43 C 255.91 178.63 263.76 176.93 271.62 175.46 C 273.70 174.92 276.76 174.75 276.92 171.97 C 277.26 169.67 278.69 164.85 275.08 164.80 C 267.13 166.95 259.08 168.73 251.02 170.42 C 250.68 170.01 250.01 169.19 249.67 168.79 C 249.51 166.30 249.61 163.82 249.83 161.34 C 250.02 159.82 250.19 158.29 250.34 156.76 C 250.39 155.37 250.44 153.98 250.50 152.59 C 250.77 152.37 251.31 151.92 251.58 151.69 C 254.34 151.18 257.08 150.57 259.83 150.01 C 263.27 149.86 265.74 146.52 264.42 143.22 C 260.07 144.06 255.82 145.30 251.55 146.46 C 251.42 144.96 251.31 143.45 251.21 141.96 C 251.28 140.63 251.36 139.30 251.43 137.98 C 251.56 135.16 251.20 132.18 252.52 129.58 C 260.68 128.07 268.67 125.30 277.06 125.40 C 279.84 124.99 279.61 121.63 279.47 119.54 C 274.26 119.59 269.20 120.95 264.11 121.85 M 292.32 123.53 C 292.33 124.78 292.23 126.11 293.19 127.09 L 293.23 127.40 C 293.37 129.41 293.52 131.41 293.72 133.42 C 298.95 133.87 304.20 133.29 309.38 132.55 C 309.83 129.92 310.52 127.08 308.96 124.67 C 308.51 123.89 308.01 123.15 307.45 122.44 C 302.70 119.93 297.22 122.78 292.32 123.53 M 198.96 133.32 C 200.81 133.63 202.64 134.04 204.49 134.37 C 204.18 136.26 203.57 138.13 203.68 140.06 C 203.27 141.33 202.88 142.60 202.52 143.89 L 202.64 144.44 L 202.47 144.22 C 202.41 148.07 201.54 151.83 201.26 155.66 L 200.90 155.69 C 200.71 157.71 200.51 159.74 200.31 161.78 C 200.09 163.32 199.86 164.87 199.64 166.42 C 199.20 177.31 197.20 188.18 197.75 199.09 C 199.37 201.67 202.71 199.24 202.98 196.93 C 203.92 190.13 204.24 183.15 206.47 176.60 C 207.67 173.23 207.73 169.61 208.21 166.09 C 208.96 165.23 209.64 163.97 210.99 164.01 C 215.60 163.45 220.35 163.21 224.64 161.25 L 224.93 161.38 C 229.89 159.40 234.62 156.23 237.01 151.30 C 238.25 148.42 239.08 145.40 239.56 142.31 C 239.59 138.30 239.89 133.92 237.30 130.54 C 233.70 124.87 226.06 124.25 220.01 125.00 C 212.59 126.06 203.77 126.72 198.96 133.32 M 279.13 128.12 C 272.85 127.97 266.04 128.15 260.36 131.05 L 259.93 131.32 C 258.58 130.21 257.67 130.42 257.20 131.95 L 255.79 131.41 C 253.62 132.53 254.06 134.83 254.16 136.86 C 256.25 137.02 258.40 137.18 260.34 136.21 C 260.88 136.14 261.95 135.99 262.49 135.91 C 266.36 136.27 270.16 135.34 274.01 135.19 C 277.06 134.96 280.28 135.22 283.14 133.89 C 283.39 131.08 283.62 128.26 283.47 125.43 C 281.91 126.16 280.52 127.14 279.13 128.12 M 189.88 133.02 C 189.69 138.55 189.49 144.10 189.51 149.64 C 188.65 151.46 188.69 153.52 188.46 155.49 C 188.38 156.19 188.20 157.61 188.11 158.32 C 187.67 160.84 187.18 163.36 186.53 165.83 C 186.23 166.85 185.93 167.88 185.64 168.91 C 183.77 175.58 180.30 183.05 173.05 185.10 C 167.15 186.36 160.48 186.11 155.34 182.60 C 150.76 179.89 148.11 174.58 148.23 169.31 C 148.32 167.42 148.41 165.53 148.49 163.64 C 148.69 162.71 148.89 161.78 149.09 160.85 C 149.90 157.80 150.80 154.78 151.59 151.73 C 153.20 146.84 155.57 142.22 156.81 137.20 C 155.34 137.50 153.45 137.03 152.37 138.33 C 148.85 142.10 146.44 146.74 144.12 151.31 L 143.93 151.36 C 142.89 154.16 141.85 156.96 140.92 159.80 C 140.68 161.08 140.45 162.37 140.22 163.66 C 139.95 165.56 139.71 167.46 139.52 169.38 C 139.65 176.87 141.63 185.24 148.02 189.88 C 156.23 195.75 167.06 197.86 176.88 195.54 C 181.56 194.35 185.52 191.16 188.15 187.17 C 191.87 181.64 194.60 175.34 195.67 168.75 C 196.09 167.77 196.37 166.73 196.51 165.63 C 196.65 163.32 197.05 161.03 197.45 158.75 C 197.54 157.40 197.63 156.04 197.72 154.70 C 197.69 154.29 197.63 153.47 197.59 153.06 C 197.81 148.07 197.84 143.03 197.30 138.06 C 196.71 134.75 193.74 132.62 190.83 131.40 C 190.59 131.81 190.11 132.62 189.88 133.02 M 321.69 140.55 C 323.93 139.28 325.30 137.08 326.32 134.79 C 323.18 134.80 322.50 138.21 321.69 140.55 M 254.76 140.22 C 254.95 140.60 255.33 141.38 255.52 141.77 C 257.23 141.54 261.33 141.88 260.76 139.34 C 258.73 139.43 256.74 139.85 254.76 140.22 M 266.74 140.18 C 270.34 143.43 268.32 149.32 265.07 152.07 C 261.81 154.01 257.52 153.30 254.40 155.44 C 253.11 158.71 253.60 162.37 253.49 165.82 C 261.62 164.79 269.51 162.43 277.45 160.46 C 277.44 154.38 281.21 149.27 281.32 143.23 C 281.43 141.58 281.53 139.93 281.61 138.29 C 277.86 138.18 274.08 138.19 270.40 138.97 C 268.38 138.49 266.03 141.07 264.39 138.88 C 264.28 140.10 265.67 140.46 266.74 140.18 M 492.89 144.57 C 487.89 144.69 483.05 146.12 478.07 146.34 C 473.31 146.04 468.82 147.89 464.11 148.22 C 458.94 148.52 453.83 150.82 448.65 149.33 L 448.74 148.94 C 447.80 148.35 446.86 147.76 445.94 147.17 C 442.70 148.75 439.68 150.87 436.12 151.67 C 428.54 153.44 420.70 154.34 412.92 153.66 C 410.40 153.62 408.41 150.12 405.87 151.82 C 399.75 155.87 392.30 158.37 384.91 157.23 C 381.71 156.35 378.68 155.00 375.96 153.09 C 373.81 155.45 371.96 158.36 368.90 159.64 C 365.60 161.28 361.81 160.89 358.28 160.47 C 357.40 159.00 355.31 158.52 354.71 156.81 C 354.14 155.15 353.79 153.43 353.39 151.73 C 351.31 153.57 349.74 155.93 347.61 157.71 C 344.62 159.68 340.63 158.19 338.54 155.59 C 335.12 152.25 336.51 147.09 337.70 143.08 C 336.30 146.06 333.64 148.09 331.73 150.70 C 327.83 155.88 324.03 161.13 320.10 166.28 C 318.53 168.32 317.09 170.50 315.16 172.22 C 311.99 174.73 307.02 173.26 305.14 169.85 C 302.43 164.83 298.91 160.02 294.20 156.71 C 293.17 161.07 293.39 165.61 292.31 169.95 C 291.32 173.62 287.73 175.69 284.38 176.85 C 281.51 176.60 278.59 176.70 275.95 177.97 C 267.47 180.30 258.70 181.36 250.10 183.12 C 247.84 183.15 245.53 183.15 243.35 182.47 C 239.49 181.14 236.85 177.03 237.11 172.97 C 237.38 167.37 237.90 161.78 238.46 156.20 C 238.17 156.69 237.59 157.67 237.30 158.16 C 233.51 161.00 229.54 163.59 225.09 165.30 C 221.06 166.35 216.88 166.76 212.87 167.82 C 210.23 170.13 211.49 174.37 210.09 177.39 C 207.10 185.30 208.13 194.13 205.09 201.97 C 209.76 201.32 214.27 199.87 218.90 198.97 L 218.79 198.68 C 222.69 197.67 226.81 197.14 230.54 195.65 C 246.38 192.31 262.08 188.16 277.96 184.94 C 290.94 182.12 303.94 179.39 317.00 176.95 C 329.99 174.47 342.97 171.80 356.07 170.01 L 355.88 169.68 C 363.59 168.76 371.20 166.96 378.94 166.13 L 379.12 165.83 C 405.75 161.90 432.43 158.12 459.18 154.95 C 473.72 152.80 488.43 151.87 502.88 149.15 C 504.95 148.66 507.58 148.55 508.22 146.06 C 505.76 144.29 503.10 142.51 500.02 142.17 C 497.65 143.00 495.49 144.64 492.89 144.57 M 308.21 149.76 C 309.25 150.91 310.30 152.05 311.37 153.17 C 314.58 150.83 316.18 146.98 319.05 144.27 C 316.41 147.91 311.61 147.39 308.21 149.76 M 168.88 151.46 C 164.27 152.29 159.51 152.51 155.09 154.19 C 152.68 159.76 151.25 166.02 152.13 172.08 C 152.83 176.61 156.64 179.66 160.61 181.41 C 164.32 182.04 168.18 182.63 171.88 181.58 C 176.08 180.68 178.66 176.77 180.31 173.11 C 183.36 165.54 185.02 157.44 185.40 149.29 C 179.79 149.02 174.39 150.78 168.88 151.46 M 132.15 158.73 C 133.56 159.77 134.62 161.80 136.57 161.81 C 136.94 160.44 137.25 159.05 137.50 157.65 C 135.63 157.49 133.77 157.75 132.15 158.73 M 85.20 169.33 C 84.12 169.14 83.05 169.48 82.01 169.72 C 72.83 172.11 63.73 174.80 54.66 177.54 C 46.34 179.87 38.27 182.99 30.03 185.51 C 29.97 186.01 29.86 187.01 29.80 187.50 C 32.66 186.54 36.25 188.78 35.54 192.00 C 34.86 195.48 33.19 198.68 32.52 202.17 C 33.56 202.88 34.57 203.85 35.94 203.75 C 42.34 204.05 48.81 203.74 55.10 202.51 C 65.92 200.51 76.71 198.06 87.09 194.41 C 98.10 190.57 109.91 186.83 118.11 178.08 C 119.47 176.91 119.92 174.84 118.40 173.56 C 114.40 169.59 108.49 168.90 103.21 167.87 C 97.22 167.02 90.76 166.42 85.20 169.33 M 194.50 184.21 C 192.79 187.75 190.13 190.69 187.47 193.54 C 184.02 197.14 179.16 198.80 174.41 199.84 C 162.13 200.95 148.49 197.57 140.50 187.59 C 140.58 185.58 138.23 186.08 137.64 187.52 C 131.68 196.26 122.22 201.44 113.10 206.25 C 108.27 207.43 103.84 209.97 98.99 211.15 C 89.99 214.18 80.60 215.72 71.41 218.04 C 63.69 218.44 55.98 220.09 48.26 220.95 C 39.88 220.64 30.23 222.53 22.97 217.00 C 17.47 212.68 18.06 204.58 20.97 198.93 C 23.09 194.86 25.29 190.27 29.52 188.05 C 28.92 187.52 28.31 187.01 27.70 186.50 C 20.89 189.00 14.00 191.35 7.40 194.36 C 4.25 195.96 4.48 200.04 4.90 203.02 C 6.58 214.07 10.63 224.61 15.30 234.71 C 18.48 241.24 21.97 247.78 26.92 253.17 C 29.20 255.50 32.45 258.29 35.93 256.77 C 41.19 254.99 46.24 252.63 51.55 250.99 L 51.54 250.75 C 61.79 247.21 71.89 243.26 82.19 239.89 L 81.51 239.50 L 82.88 239.53 C 93.57 235.95 104.19 232.10 115.00 228.90 L 114.82 228.58 C 123.26 226.43 131.45 223.28 139.87 220.99 C 149.16 217.81 158.72 215.49 168.04 212.42 C 177.64 209.77 187.33 207.37 196.82 204.34 C 195.54 202.45 193.84 200.56 194.04 198.11 C 193.96 193.47 194.05 188.83 194.50 184.21 Z" />
<path fill="#000000" opacity="1.00" d=" M 420.39 117.45 C 425.98 117.34 431.47 119.63 435.02 124.00 C 436.64 126.18 437.99 128.57 438.81 131.16 C 439.20 132.84 439.46 134.54 439.64 136.26 C 439.60 136.85 439.50 138.03 439.46 138.62 C 435.40 144.55 427.53 144.63 421.09 144.74 C 421.16 143.07 421.21 141.40 421.29 139.74 C 421.45 136.78 421.62 133.83 421.66 130.87 C 421.78 126.36 421.95 121.75 420.39 117.45 M 425.05 121.43 C 425.05 124.05 425.00 126.67 424.68 129.28 C 426.46 131.89 430.23 130.88 432.94 131.02 C 434.05 131.55 435.66 129.90 434.82 129.43 C 432.52 125.87 429.59 121.95 425.05 121.43 M 426.12 134.29 C 424.53 135.97 425.41 138.67 425.29 140.78 C 428.67 140.53 432.55 140.56 435.15 138.00 C 436.02 137.06 435.46 135.72 435.47 134.60 C 432.36 134.33 429.24 134.05 426.12 134.29 Z" />
<path fill="#000000" opacity="1.00" d=" M 386.81 127.28 C 391.29 123.74 396.71 120.94 402.60 121.39 C 402.42 122.33 402.07 124.22 401.89 125.16 C 400.91 127.02 400.79 128.99 401.60 130.95 C 404.51 130.88 406.14 127.90 408.57 127.25 C 408.61 128.80 408.51 130.35 408.35 131.90 C 407.04 134.28 405.77 136.71 404.06 138.85 C 402.91 140.15 401.66 141.37 400.39 142.56 C 395.87 145.84 389.70 149.88 384.17 146.39 C 383.16 145.03 382.29 143.57 381.74 141.97 C 381.64 141.57 381.44 140.77 381.34 140.37 C 381.54 138.56 381.80 136.75 382.21 134.97 C 383.03 132.05 384.68 129.43 386.81 127.28 M 389.92 129.58 C 392.28 129.63 394.87 130.18 397.08 129.05 C 397.26 127.74 397.10 126.46 396.61 125.22 C 394.24 126.44 391.81 127.65 389.92 129.58 M 387.98 144.13 C 391.92 144.27 395.42 141.77 398.36 139.41 C 399.89 137.99 403.03 135.48 400.08 133.75 C 395.66 133.36 391.21 133.65 386.78 133.63 C 384.93 136.73 383.76 142.49 387.98 144.13 Z" />
<path fill="#000000" opacity="1.00" d=" M 215.21 132.18 C 218.20 130.60 222.07 130.46 225.17 131.87 C 228.88 133.68 230.58 137.92 230.60 141.86 C 230.67 144.93 230.29 148.01 229.27 150.92 C 224.71 156.57 216.72 158.93 209.73 158.16 C 209.93 155.84 210.20 153.53 210.51 151.22 C 210.94 148.18 211.59 145.18 212.25 142.18 C 213.18 138.86 213.28 135.11 215.21 132.18 M 216.65 134.60 C 216.49 136.66 216.26 138.72 216.05 140.78 C 219.87 140.65 223.84 140.76 227.40 139.12 C 226.47 137.48 225.48 135.89 224.43 134.33 C 221.95 133.45 218.89 132.84 216.65 134.60 M 215.93 144.93 C 214.11 147.58 214.54 151.07 214.16 154.12 C 218.23 153.91 222.88 153.01 225.55 149.65 C 227.02 147.94 226.68 145.63 226.47 143.58 C 222.96 143.88 219.26 143.65 215.93 144.93 Z" />
</g>
<g id="#fefe00ff">
<path fill="#fefe00" opacity="1.00" d=" M 97.87 100.46 C 107.87 97.44 118.72 94.92 129.05 97.80 C 133.29 99.10 137.30 101.95 139.14 106.09 C 141.03 113.19 135.96 119.81 130.76 124.03 C 129.20 125.58 126.98 123.96 127.52 121.98 C 127.49 118.59 130.51 116.25 131.24 113.06 C 131.21 110.59 129.31 108.51 127.06 107.73 C 120.85 105.69 114.23 107.17 107.99 108.27 C 90.37 112.60 75.46 124.38 64.27 138.33 C 61.87 141.17 61.91 145.53 64.16 148.45 C 59.57 148.83 55.05 149.67 50.51 150.41 C 50.18 151.17 49.51 152.70 49.18 153.46 C 45.82 147.98 46.96 140.65 50.55 135.55 C 61.64 118.84 78.81 106.49 97.87 100.46 Z" />
</g>
<g id="#170e0788">
<path fill="#170e07" opacity="0.53" d=" M 481.14 103.73 C 483.86 107.18 483.22 111.89 483.92 115.98 C 484.72 121.21 483.90 126.54 484.65 131.76 C 485.23 131.83 486.38 131.98 486.96 132.05 C 485.97 132.51 483.86 133.30 483.73 131.57 C 483.44 122.26 483.73 112.78 481.14 103.73 Z" />
</g>
<g id="#fff600ff">
<path fill="#fff600" opacity="1.00" d=" M 475.73 110.98 C 475.15 108.67 476.00 106.18 478.14 105.01 C 481.61 112.99 480.62 122.04 480.59 130.53 C 479.99 129.06 479.36 127.60 478.76 126.13 C 478.18 126.68 477.61 127.24 477.04 127.79 C 476.78 126.41 476.53 125.04 476.33 123.66 C 476.18 119.42 476.67 115.16 475.73 110.98 Z" />
</g>
<g id="#fefb00ff">
<path fill="#fefb00" opacity="1.00" d=" M 456.00 111.17 C 461.78 110.14 467.46 108.34 473.38 108.29 C 473.60 109.97 473.53 111.66 473.32 113.33 C 468.22 114.87 462.80 114.32 457.67 115.68 C 457.05 117.90 456.68 120.17 456.64 122.48 C 455.58 122.02 454.54 121.55 453.51 121.07 C 452.43 122.85 451.35 124.62 450.48 126.51 C 450.52 123.97 450.91 121.45 451.21 118.93 C 451.66 116.78 449.40 114.67 450.49 112.62 C 452.17 111.67 454.15 111.59 456.00 111.17 Z" />
<path fill="#fefb00" opacity="1.00" d=" M 198.96 133.32 C 203.77 126.72 212.59 126.06 220.01 125.00 C 226.06 124.25 233.70 124.87 237.30 130.54 C 239.89 133.92 239.59 138.30 239.56 142.31 C 238.88 141.30 238.21 140.28 237.55 139.27 C 235.14 139.86 232.79 140.68 230.60 141.86 C 230.58 137.92 228.88 133.68 225.17 131.87 C 222.07 130.46 218.20 130.60 215.21 132.18 C 213.28 135.11 213.18 138.86 212.25 142.18 C 211.03 139.89 208.84 138.76 206.38 138.31 C 205.76 139.55 205.15 140.79 204.53 142.03 C 204.31 141.54 203.89 140.56 203.68 140.06 C 203.57 138.13 204.18 136.26 204.49 134.37 C 202.64 134.04 200.81 133.63 198.96 133.32 Z" />
</g>
<g id="#1f0f0464">
<path fill="#1f0f04" opacity="0.39" d=" M 292.09 112.98 C 291.83 110.85 295.56 110.05 296.94 111.33 C 295.41 112.11 293.80 112.75 292.09 112.98 Z" />
</g>
<g id="#18100a6e">
<path fill="#18100a" opacity="0.43" d=" M 447.24 122.26 C 447.66 118.52 445.24 114.24 447.20 110.87 C 447.31 114.82 448.21 118.74 447.75 122.70 C 447.29 122.62 446.37 122.48 445.91 122.40 C 445.59 121.74 444.94 120.41 444.61 119.75 C 445.48 120.58 446.36 121.42 447.24 122.26 Z" />
</g>
<g id="#fefc00ff">
<path fill="#fefc00" opacity="1.00" d=" M 289.88 116.92 C 294.35 114.97 299.20 114.08 303.96 113.10 C 309.68 111.79 316.58 113.97 319.42 119.38 C 322.48 124.97 321.20 131.61 319.30 137.35 C 318.88 136.81 318.06 135.74 317.65 135.21 C 315.23 135.53 312.80 135.84 310.44 136.47 C 313.90 131.69 313.72 123.90 308.95 120.03 C 305.66 117.62 301.43 119.00 297.78 119.57 C 293.13 120.33 288.73 122.21 284.01 122.60 C 284.27 119.46 287.45 118.18 289.88 116.92 Z" />
<path fill="#fefc00" opacity="1.00" d=" M 264.11 121.85 C 269.20 120.95 274.26 119.59 279.47 119.54 C 279.61 121.63 279.84 124.99 277.06 125.40 C 268.67 125.30 260.68 128.07 252.52 129.58 C 251.20 132.18 251.56 135.16 251.43 137.98 C 249.93 137.43 248.43 136.90 246.93 136.37 C 246.24 136.81 245.55 137.25 244.86 137.69 C 244.72 136.71 244.60 135.74 244.49 134.76 C 244.77 131.89 242.91 129.27 243.39 126.47 C 250.13 124.38 257.17 123.22 264.11 121.85 Z" />
</g>
<g id="#fef900ff">
<path fill="#fef900" opacity="1.00" d=" M 419.95 113.33 C 428.77 110.69 438.63 115.40 443.14 123.19 C 441.64 122.55 440.17 121.65 438.51 121.58 C 437.09 121.89 436.18 123.23 435.02 124.00 C 431.47 119.63 425.98 117.34 420.39 117.45 C 421.95 121.75 421.78 126.36 421.66 130.87 C 419.99 130.14 419.08 128.76 418.99 126.98 C 419.20 123.85 419.43 120.73 419.66 117.60 C 417.95 117.84 416.25 118.09 414.55 118.34 C 412.92 114.90 417.55 113.95 419.95 113.33 Z" />
</g>
<g id="#fef800ff">
<path fill="#fef800" opacity="1.00" d=" M 347.18 116.14 C 348.39 114.62 350.38 114.61 352.15 114.46 C 353.46 116.44 355.40 118.45 355.13 121.02 C 354.16 125.91 352.33 130.59 351.07 135.41 C 350.55 134.44 350.03 133.47 349.52 132.49 C 348.47 132.51 347.42 132.52 346.37 132.53 C 345.36 133.80 344.35 135.06 343.38 136.36 C 343.51 134.60 343.67 132.84 343.84 131.08 C 343.45 131.28 342.66 131.67 342.26 131.87 C 339.89 131.30 337.51 130.74 335.14 130.17 C 338.99 125.36 342.98 120.66 347.18 116.14 Z" />
</g>
<g id="#fef700ff">
<path fill="#fef700" opacity="1.00" d=" M 379.18 126.48 C 384.41 118.90 393.98 114.60 403.12 115.22 C 406.61 115.15 408.06 118.79 409.15 121.50 C 410.73 121.63 412.45 121.61 413.16 123.34 C 409.31 123.34 405.65 124.56 401.89 125.16 C 402.07 124.22 402.42 122.33 402.60 121.39 C 396.71 120.94 391.29 123.74 386.81 127.28 C 384.58 125.41 381.74 125.51 379.18 126.48 Z" />
</g>
<g id="#1c0f077b">
<path fill="#1c0f07" opacity="0.48" d=" M 267.32 118.14 C 270.68 116.23 274.76 116.34 278.52 116.24 C 274.80 116.93 271.08 117.66 267.32 118.14 Z" />
</g>
<g id="#28190c70">
<path fill="#28190c" opacity="0.44" d=" M 464.91 118.29 C 464.91 116.51 467.89 116.24 468.89 117.39 C 467.61 117.83 466.30 118.50 464.91 118.29 Z" />
</g>
<g id="#1b0f068a">
<path fill="#1b0f06" opacity="0.54" d=" M 472.63 116.51 C 474.31 122.01 472.88 128.04 472.51 133.68 C 468.09 133.88 463.72 133.17 459.35 132.62 C 459.33 132.05 459.30 130.92 459.28 130.35 C 461.33 130.05 463.38 129.73 465.41 129.26 C 463.70 130.69 461.44 131.01 459.38 131.61 C 463.47 132.67 467.69 132.93 471.90 133.04 C 472.44 127.55 472.80 122.03 472.63 116.51 Z" />
</g>
<g id="#1d0f0575">
<path fill="#1d0f05" opacity="0.46" d=" M 257.24 120.03 C 260.28 118.28 263.91 118.38 267.31 118.14 C 263.99 118.99 260.64 119.70 257.24 120.03 Z" />
</g>
<g id="#150b0578">
<path fill="#150b05" opacity="0.47" d=" M 211.37 123.16 C 217.10 121.39 223.72 120.24 229.54 122.15 C 223.46 121.01 217.39 122.49 211.37 123.16 Z" />
</g>
<g id="#1c120880">
<path fill="#1c1208" opacity="0.50" d=" M 292.32 123.53 C 297.22 122.78 302.70 119.93 307.45 122.44 C 302.53 121.81 297.68 122.99 292.93 124.14 C 292.99 124.87 293.12 126.35 293.19 127.09 C 292.23 126.11 292.33 124.78 292.32 123.53 Z" />
</g>
<g id="#fef100ff">
<path fill="#fef100" opacity="1.00" d=" M 360.11 129.22 C 363.49 126.40 365.62 120.08 370.95 121.27 C 372.60 121.62 373.81 123.26 373.86 124.92 C 373.75 128.12 372.79 131.19 372.09 134.29 C 371.56 132.85 371.05 131.41 370.55 129.96 C 368.03 129.89 365.63 130.62 363.21 131.20 C 362.10 130.66 361.12 129.88 360.11 129.22 Z" />
</g>
<g id="#fed700ff">
<path fill="#fed700" opacity="1.00" d=" M 438.51 121.58 C 440.17 121.65 441.64 122.55 443.14 123.19 C 444.37 125.31 445.11 127.66 445.75 130.01 C 444.21 129.20 442.66 128.45 441.10 127.69 C 440.33 128.85 439.57 130.00 438.81 131.16 C 437.99 128.57 436.64 126.18 435.02 124.00 C 436.18 123.23 437.09 121.89 438.51 121.58 Z" />
</g>
<g id="#fed300ff">
<path fill="#fed300" opacity="1.00" d=" M 450.48 126.51 C 451.35 124.62 452.43 122.85 453.51 121.07 C 454.54 121.55 455.58 122.02 456.64 122.48 C 458.86 123.23 461.21 122.29 463.50 122.43 C 465.12 123.57 463.89 125.79 462.89 126.92 C 460.84 127.64 458.66 127.94 456.57 128.54 C 456.45 129.21 456.21 130.54 456.09 131.21 C 455.55 130.35 455.01 129.52 454.45 128.69 C 452.93 128.45 451.43 128.11 449.98 127.63 L 450.48 126.51 Z" />
</g>
<g id="#fedc02ff">
<path fill="#fedc02" opacity="1.00" d=" M 401.89 125.16 C 405.65 124.56 409.31 123.34 413.16 123.34 L 413.30 123.33 C 413.97 125.88 414.44 128.47 414.47 131.12 C 413.43 130.57 412.40 130.02 411.37 129.48 C 410.35 130.27 409.33 131.06 408.35 131.90 C 408.51 130.35 408.61 128.80 408.57 127.25 C 406.14 127.90 404.51 130.88 401.60 130.95 C 400.79 128.99 400.91 127.02 401.89 125.16 Z" />
</g>
<g id="#ff9f03ff">
<path fill="#ff9f03" opacity="1.00" d=" M 476.33 123.66 C 476.53 125.04 476.78 126.41 477.04 127.79 C 477.61 127.24 478.18 126.68 478.76 126.13 C 479.36 127.60 479.99 129.06 480.59 130.53 C 480.94 132.00 480.68 133.54 480.69 135.04 C 479.54 135.11 478.41 135.19 477.27 135.27 C 476.96 135.77 476.33 136.79 476.01 137.30 C 475.90 135.87 475.79 134.45 475.68 133.02 C 475.49 129.89 475.64 126.73 476.33 123.66 Z" />
</g>
<g id="#17100882">
<path fill="#171008" opacity="0.51" d=" M 308.96 124.67 C 310.52 127.08 309.83 129.92 309.38 132.55 C 304.20 133.29 298.95 133.87 293.72 133.42 C 293.52 131.41 293.37 129.41 293.23 127.40 C 293.54 129.12 293.90 130.83 294.25 132.54 C 299.16 133.07 304.09 132.68 308.96 131.97 C 309.04 129.54 309.10 127.10 308.96 124.67 Z" />
</g>
<g id="#fed503ff">
<path fill="#fed503" opacity="1.00" d=" M 379.18 126.48 C 381.74 125.51 384.58 125.41 386.81 127.28 C 384.68 129.43 383.03 132.05 382.21 134.97 C 380.95 132.64 378.70 131.25 376.06 132.18 C 376.90 130.19 377.69 128.10 379.18 126.48 Z" />
</g>
<g id="#ae9b4bff">
<path fill="#ae9b4b" opacity="1.00" d=" M 389.92 129.58 C 391.81 127.65 394.24 126.44 396.61 125.22 C 397.10 126.46 397.26 127.74 397.08 129.05 C 394.87 130.18 392.28 129.63 389.92 129.58 Z" />
</g>
<g id="#190f077a">
<path fill="#190f07" opacity="0.48" d=" M 125.80 127.42 C 128.42 127.47 131.06 127.22 133.38 125.91 C 131.67 128.34 128.33 128.88 125.80 127.42 Z" />
</g>
<g id="#fce300ff">
<path fill="#fce300" opacity="1.00" d=" M 285.10 143.23 C 286.22 137.20 285.70 130.84 287.81 125.04 C 292.24 128.63 290.39 135.16 290.68 140.14 C 288.45 140.38 286.58 141.60 285.10 143.23 Z" />
</g>
<g id="#fca501ff">
<path fill="#fca501" opacity="1.00" d=" M 416.04 139.69 C 416.46 135.33 418.39 131.31 418.99 126.98 C 419.08 128.76 419.99 130.14 421.66 130.87 C 421.62 133.83 421.45 136.78 421.29 139.74 C 419.54 139.71 417.79 139.70 416.04 139.69 Z" />
</g>
<g id="#feb001ff">
<path fill="#feb001" opacity="1.00" d=" M 449.84 127.59 L 449.98 127.63 C 451.43 128.11 452.93 128.45 454.45 128.69 C 455.01 129.52 455.55 130.35 456.09 131.21 C 456.03 133.53 455.69 135.84 455.56 138.16 C 454.57 136.85 453.70 135.46 452.82 134.08 C 451.63 134.41 450.45 134.74 449.27 135.07 C 449.58 132.59 449.76 130.09 449.84 127.59 Z" />
</g>
<g id="#361f0e47">
<path fill="#361f0e" opacity="0.28" d=" M 497.08 127.40 L 497.90 126.95 C 498.09 127.27 498.47 127.93 498.67 128.25 C 498.28 128.25 497.50 128.24 497.11 128.23 L 497.08 127.40 Z" />
</g>
<g id="#20110594">
<path fill="#201105" opacity="0.58" d=" M 260.36 131.05 C 266.04 128.15 272.85 127.97 279.13 128.12 C 272.90 129.26 266.52 129.43 260.36 131.05 Z" />
</g>
<g id="#feb601ff">
<path fill="#feb601" opacity="1.00" d=" M 438.81 131.16 C 439.57 130.00 440.33 128.85 441.10 127.69 C 442.66 128.45 444.21 129.20 445.75 130.01 C 446.41 131.51 446.44 133.19 446.77 134.79 C 445.07 134.04 443.29 133.56 441.47 133.29 C 440.84 134.27 440.24 135.26 439.64 136.26 C 439.46 134.54 439.20 132.84 438.81 131.16 Z" />
</g>
<g id="#fed104ff">
<path fill="#fed104" opacity="1.00" d=" M 350.75 140.57 C 353.37 136.40 357.10 133.09 360.11 129.22 C 361.12 129.88 362.10 130.66 363.21 131.20 C 365.63 130.62 368.03 129.89 370.55 129.96 C 371.05 131.41 371.56 132.85 372.09 134.29 C 371.50 136.45 370.84 138.58 370.04 140.66 C 369.70 138.87 369.54 137.05 369.49 135.23 C 366.81 135.98 364.20 137.08 362.26 139.16 C 362.69 137.14 363.17 135.14 363.71 133.15 C 360.66 136.25 357.52 139.28 354.97 142.82 C 353.81 142.06 352.63 141.34 351.38 140.77 L 350.75 140.57 Z" />
</g>
<g id="#feac02ff">
<path fill="#feac02" opacity="1.00" d=" M 411.37 129.48 C 412.40 130.02 413.43 130.57 414.47 131.12 C 413.82 134.09 413.12 137.09 411.54 139.73 C 409.11 138.99 406.59 138.72 404.06 138.85 C 405.77 136.71 407.04 134.28 408.35 131.90 C 409.33 131.06 410.35 130.27 411.37 129.48 Z" />
<path fill="#feac02" opacity="1.00" d=" M 321.46 147.32 C 323.97 143.88 326.58 140.51 329.33 137.27 C 331.71 137.39 334.25 137.36 336.22 138.94 C 334.00 141.93 331.65 144.82 329.37 147.77 C 326.79 147.01 324.10 146.80 321.46 147.32 Z" />
</g>
<g id="#321f0e8d">
<path fill="#321f0e" opacity="0.55" d=" M 424.68 129.28 C 427.99 130.32 431.48 130.43 434.82 129.43 C 435.66 129.90 434.05 131.55 432.94 131.02 C 430.23 130.88 426.46 131.89 424.68 129.28 Z" />
</g>
<g id="#fed903ff">
<path fill="#fed903" opacity="1.00" d=" M 335.03 130.15 L 335.14 130.17 C 337.51 130.74 339.89 131.30 342.26 131.87 C 340.18 134.17 338.15 136.51 336.22 138.94 C 334.25 137.36 331.71 137.39 329.33 137.27 C 331.26 134.92 333.16 132.54 335.03 130.15 Z" />
</g>
<g id="#1f13087f">
<path fill="#1f1308" opacity="0.50" d=" M 501.03 129.67 C 502.49 131.87 501.93 134.55 501.78 137.01 C 502.03 137.59 502.54 138.76 502.79 139.35 C 502.44 139.14 501.75 138.73 501.41 138.53 C 500.71 135.67 501.40 132.60 501.03 129.67 Z" />
</g>
<g id="#1a11086d">
<path fill="#1a1108" opacity="0.43" d=" M 185.58 144.46 C 187.04 140.04 184.68 134.86 186.86 130.59 C 186.90 135.49 187.12 140.40 186.33 145.26 C 176.16 146.85 166.06 149.14 155.77 149.87 L 156.05 148.94 C 161.42 149.13 166.60 147.51 171.89 146.89 C 176.45 146.06 181.11 145.73 185.58 144.46 Z" />
</g>
<g id="#2c190b68">
<path fill="#2c190b" opacity="0.41" d=" M 257.20 131.95 C 257.67 130.42 258.58 130.21 259.93 131.32 C 259.11 132.16 258.20 132.37 257.20 131.95 Z" />
</g>
<g id="#feb505ff">
<path fill="#feb505" opacity="1.00" d=" M 376.06 132.18 C 378.70 131.25 380.95 132.64 382.21 134.97 C 381.80 136.75 381.54 138.56 381.34 140.37 C 380.60 139.28 379.83 138.22 379.06 137.17 C 377.49 138.09 375.92 139.02 374.36 139.94 C 374.70 137.34 375.25 134.78 375.78 132.21 L 376.06 132.18 Z" />
</g>
<g id="#fdf100ff">
<path fill="#fdf100" opacity="1.00" d=" M 189.88 133.02 C 190.11 132.62 190.59 131.81 190.83 131.40 C 193.74 132.62 196.71 134.75 197.30 138.06 C 197.84 143.03 197.81 148.07 197.59 153.06 C 196.82 148.90 195.83 144.76 195.51 140.53 C 194.25 140.60 193.00 140.66 191.74 140.73 C 191.51 143.81 191.03 146.90 189.51 149.64 C 189.49 144.10 189.69 138.55 189.88 133.02 Z" />
</g>
<g id="#28170a94">
<path fill="#28170a" opacity="0.58" d=" M 254.16 136.86 C 254.06 134.83 253.62 132.53 255.79 131.41 C 255.41 132.95 255.01 134.49 254.63 136.03 C 256.53 136.11 258.43 136.20 260.34 136.21 C 258.40 137.18 256.25 137.02 254.16 136.86 Z" />
</g>
<g id="#febf04ff">
<path fill="#febf04" opacity="1.00" d=" M 346.37 132.53 C 347.42 132.52 348.47 132.51 349.52 132.49 C 350.03 133.47 350.55 134.44 351.07 135.41 C 350.77 137.07 350.46 138.73 350.15 140.39 C 349.36 141.08 348.58 141.77 347.80 142.46 C 346.23 142.47 344.67 142.48 343.11 142.40 C 342.91 142.09 342.52 141.47 342.32 141.16 C 342.44 139.53 342.57 137.81 343.38 136.36 C 344.35 135.06 345.36 133.80 346.37 132.53 Z" />
</g>
<g id="#fd8005ff">
<path fill="#fd8005" opacity="1.00" d=" M 481.88 136.54 C 487.69 135.88 492.65 132.27 498.46 131.55 C 498.71 134.20 498.33 136.83 497.24 139.26 C 496.08 138.10 494.81 136.83 493.02 137.08 C 487.32 137.04 481.69 138.14 476.02 138.56 C 476.02 138.25 476.02 137.61 476.01 137.30 C 476.33 136.79 476.96 135.77 477.27 135.27 C 478.41 135.19 479.54 135.11 480.69 135.04 L 480.83 135.03 C 481.09 135.41 481.62 136.16 481.88 136.54 Z" />
</g>
<g id="#170c0481">
<path fill="#170c04" opacity="0.51" d=" M 216.65 134.60 C 218.89 132.84 221.95 133.45 224.43 134.33 C 221.83 134.36 219.24 134.46 216.65 134.60 Z" />
</g>
<g id="#fe9103ff">
<path fill="#fe9103" opacity="1.00" d=" M 441.47 133.29 C 443.29 133.56 445.07 134.04 446.77 134.79 C 446.71 136.12 446.66 137.45 446.63 138.79 C 444.25 138.55 441.85 138.50 439.46 138.62 C 439.50 138.03 439.60 136.85 439.64 136.26 C 440.24 135.26 440.84 134.27 441.47 133.29 Z" />
</g>
<g id="#fe6408ff">
<path fill="#fe6408" opacity="1.00" d=" M 475.39 142.61 C 475.22 139.41 475.40 136.21 475.68 133.02 C 475.79 134.45 475.90 135.87 476.01 137.30 C 476.02 137.61 476.02 138.25 476.02 138.56 C 481.69 138.14 487.32 137.04 493.02 137.08 C 494.81 136.83 496.08 138.10 497.24 139.26 C 495.36 140.43 493.24 141.19 491.01 141.19 C 485.77 141.31 480.66 142.96 475.39 142.61 Z" />
<path fill="#fe6408" opacity="1.00" d=" M 284.25 150.40 C 285.72 150.10 287.20 149.82 288.68 149.53 C 289.24 150.49 289.80 151.45 290.35 152.43 C 290.73 154.28 290.25 156.17 290.09 158.02 C 287.44 158.03 284.79 158.18 282.16 158.51 C 282.08 157.35 282.02 156.20 281.97 155.05 C 282.58 153.49 283.33 151.98 284.01 150.45 L 284.25 150.40 Z" />
</g>
<g id="#1f12076f">
<path fill="#1f1207" opacity="0.44" d=" M 262.49 135.91 C 269.29 134.62 276.23 134.16 283.14 133.89 C 280.28 135.22 277.06 134.96 274.01 135.19 C 270.16 135.34 266.36 136.27 262.49 135.91 Z" />
</g>
<g id="#ccdbebff">
<path fill="#ccdbeb" opacity="1.00" d=" M 387.98 144.13 C 383.76 142.49 384.93 136.73 386.78 133.63 C 391.21 133.65 395.66 133.36 400.08 133.75 C 403.03 135.48 399.89 137.99 398.36 139.41 C 395.42 141.77 391.92 144.27 387.98 144.13 Z" />
</g>
<g id="#e5eef6ff">
<path fill="#e5eef6" opacity="1.00" d=" M 426.12 134.29 C 429.24 134.05 432.36 134.33 435.47 134.60 C 435.46 135.72 436.02 137.06 435.15 138.00 C 432.55 140.56 428.67 140.53 425.29 140.78 C 425.41 138.67 424.53 135.97 426.12 134.29 Z" />
</g>
<g id="#fe7d05ff">
<path fill="#fe7d05" opacity="1.00" d=" M 449.27 135.07 C 450.45 134.74 451.63 134.41 452.82 134.08 C 453.70 135.46 454.57 136.85 455.56 138.16 C 455.88 138.53 456.51 139.27 456.83 139.65 C 461.66 138.76 466.49 137.94 471.37 137.37 C 471.91 138.46 472.14 139.62 472.02 140.83 C 464.24 139.02 456.37 141.92 448.51 141.88 C 448.80 139.61 449.02 137.34 449.27 135.07 Z" />
<path fill="#fe7d05" opacity="1.00" d=" M 188.46 155.49 C 191.36 154.07 194.62 154.37 197.72 154.70 C 197.63 156.04 197.54 157.40 197.45 158.75 C 194.34 158.48 191.23 158.35 188.11 158.32 C 188.20 157.61 188.38 156.19 188.46 155.49 Z" />
</g>
<g id="#feda00ff">
<path fill="#feda00" opacity="1.00" d=" M 244.49 134.76 C 244.60 135.74 244.72 136.71 244.86 137.69 C 245.55 137.25 246.24 136.81 246.93 136.37 C 248.43 136.90 249.93 137.43 251.43 137.98 C 251.36 139.30 251.28 140.63 251.21 141.96 C 250.85 142.32 250.13 143.04 249.78 143.39 C 248.96 143.00 248.14 142.61 247.33 142.22 C 245.01 143.48 243.94 145.83 243.42 148.30 L 243.18 149.21 C 243.46 144.38 243.42 139.50 244.49 134.76 Z" />
</g>
<g id="#fecb05ff">
<path fill="#fecb05" opacity="1.00" d=" M 310.44 136.47 C 312.80 135.84 315.23 135.53 317.65 135.21 C 318.06 135.74 318.88 136.81 319.30 137.35 C 317.85 139.67 316.13 141.86 313.71 143.24 C 314.05 142.18 314.38 141.12 314.71 140.06 C 310.36 139.89 306.10 140.68 301.92 141.77 C 299.92 142.47 297.96 141.55 296.06 141.06 C 301.07 140.27 306.10 139.25 310.44 136.47 Z" />
</g>
<g id="#363a42ff">
<path fill="#363a42" opacity="1.00" d=" M 321.69 140.55 C 322.50 138.21 323.18 134.80 326.32 134.79 C 325.30 137.08 323.93 139.28 321.69 140.55 Z" />
</g>
<g id="#feb001fe">
<path fill="#feb001" opacity="1.00" d=" M 362.26 139.16 C 364.20 137.08 366.81 135.98 369.49 135.23 C 369.54 137.05 369.70 138.87 370.04 140.66 C 369.89 141.28 369.75 141.91 369.61 142.53 C 366.81 142.25 363.99 142.16 361.19 142.33 C 361.49 141.26 361.85 140.20 362.26 139.16 Z" />
</g>
<g id="#fedb00ff">
<path fill="#fedb00" opacity="1.00" d=" M 152.37 138.33 C 153.45 137.03 155.34 137.50 156.81 137.20 C 155.57 142.22 153.20 146.84 151.59 151.73 C 149.31 150.13 146.61 150.52 144.12 151.31 C 146.44 146.74 148.85 142.10 152.37 138.33 Z" />
</g>
<g id="#fe9204ff">
<path fill="#fe9204" opacity="1.00" d=" M 379.06 137.17 C 379.83 138.22 380.60 139.28 381.34 140.37 C 381.44 140.77 381.64 141.57 381.74 141.97 C 379.65 142.52 377.61 143.23 375.68 144.19 L 375.02 144.50 C 374.78 142.98 374.56 141.46 374.36 139.94 C 375.92 139.02 377.49 138.09 379.06 137.17 Z" />
</g>
<g id="#ffd100ff">
<path fill="#ffd100" opacity="1.00" d=" M 206.38 138.31 C 208.84 138.76 211.03 139.89 212.25 142.18 C 211.59 145.18 210.94 148.18 210.51 151.22 C 209.82 150.27 209.14 149.32 208.46 148.36 C 206.53 148.54 204.61 148.85 202.79 149.54 C 202.89 148.08 203.00 146.62 203.12 145.16 C 203.00 144.98 202.76 144.62 202.64 144.44 L 202.52 143.89 C 202.88 142.60 203.27 141.33 203.68 140.06 C 203.89 140.56 204.31 141.54 204.53 142.03 C 205.15 140.79 205.76 139.55 206.38 138.31 Z" />
</g>
<g id="#fe6708ff">
<path fill="#fe6708" opacity="1.00" d=" M 439.46 138.62 C 441.85 138.50 444.25 138.55 446.63 138.79 C 445.35 142.60 442.17 145.75 438.35 146.97 C 437.83 147.00 436.80 147.06 436.28 147.08 C 436.86 146.35 437.45 145.63 438.05 144.91 C 428.93 146.30 419.52 145.45 410.53 147.72 L 410.15 147.82 C 410.20 147.25 410.30 146.12 410.35 145.55 C 411.60 145.50 412.85 145.41 414.10 145.26 C 416.07 144.20 415.49 141.52 416.04 139.69 C 417.79 139.70 419.54 139.71 421.29 139.74 C 421.21 141.40 421.16 143.07 421.09 144.74 C 427.53 144.63 435.40 144.55 439.46 138.62 Z" />
</g>
<g id="#fec501ff">
<path fill="#fec501" opacity="1.00" d=" M 230.60 141.86 C 232.79 140.68 235.14 139.86 237.55 139.27 C 238.21 140.28 238.88 141.30 239.56 142.31 C 239.08 145.40 238.25 148.42 237.01 151.30 C 236.47 150.68 235.93 150.07 235.39 149.45 C 233.35 149.94 231.31 150.43 229.27 150.92 C 230.29 148.01 230.67 144.93 230.60 141.86 Z" />
</g>
<g id="#19212eff">
<path fill="#19212e" opacity="1.00" d=" M 254.76 140.22 C 256.74 139.85 258.73 139.43 260.76 139.34 C 261.33 141.88 257.23 141.54 255.52 141.77 C 255.33 141.38 254.95 140.60 254.76 140.22 Z" />
</g>
<g id="#8cadd1ff">
<path fill="#8cadd1" opacity="1.00" d=" M 266.74 140.18 C 265.67 140.46 264.28 140.10 264.39 138.88 C 266.03 141.07 268.38 138.49 270.40 138.97 C 273.35 139.98 276.51 139.77 279.52 140.41 C 280.18 141.30 280.78 142.25 281.32 143.23 C 281.21 149.27 277.44 154.38 277.45 160.46 C 269.51 162.43 261.62 164.79 253.49 165.82 C 253.60 162.37 253.11 158.71 254.40 155.44 C 257.52 153.30 261.81 154.01 265.07 152.07 C 268.32 149.32 270.34 143.43 266.74 140.18 Z" />
</g>
<g id="#a1c3e8ff">
<path fill="#a1c3e8" opacity="1.00" d=" M 270.40 138.97 C 274.08 138.19 277.86 138.18 281.61 138.29 C 281.53 139.93 281.43 141.58 281.32 143.23 C 280.78 142.25 280.18 141.30 279.52 140.41 C 276.51 139.77 273.35 139.98 270.40 138.97 Z" />
</g>
<g id="#ff8205ff">
<path fill="#ff8205" opacity="1.00" d=" M 404.06 138.85 C 406.59 138.72 409.11 138.99 411.54 139.73 C 410.87 140.85 410.21 141.97 409.57 143.10 C 406.50 142.95 403.38 143.41 400.39 142.56 C 401.66 141.37 402.91 140.15 404.06 138.85 Z" />
</g>
<g id="#ffb201ff">
<path fill="#ffb201" opacity="1.00" d=" M 191.74 140.73 C 193.00 140.66 194.25 140.60 195.51 140.53 C 195.83 144.76 196.82 148.90 197.59 153.06 C 197.63 153.47 197.69 154.29 197.72 154.70 C 194.62 154.37 191.36 154.07 188.46 155.49 C 188.69 153.52 188.65 151.46 189.51 149.64 C 191.03 146.90 191.51 143.81 191.74 140.73 Z" />
</g>
<g id="#feaf02ff">
<path fill="#feaf02" opacity="1.00" d=" M 285.10 143.23 C 286.58 141.60 288.45 140.38 290.68 140.14 C 292.38 140.87 294.26 140.76 296.06 141.06 C 297.96 141.55 299.92 142.47 301.92 141.77 C 306.10 140.68 310.36 139.89 314.71 140.06 C 314.38 141.12 314.05 142.18 313.71 143.24 C 310.18 145.61 305.57 145.33 301.56 146.43 C 301.46 146.85 301.27 147.70 301.17 148.12 C 298.94 148.76 296.71 149.44 294.54 150.26 C 293.35 149.17 292.10 148.15 290.82 147.19 C 290.65 148.93 290.50 150.68 290.35 152.43 C 289.80 151.45 289.24 150.49 288.68 149.53 C 287.20 149.82 285.72 150.10 284.25 150.40 C 284.45 148.01 284.35 145.53 285.10 143.23 Z" />
</g>
<g id="#fe8d04ff">
<path fill="#fe8d04" opacity="1.00" d=" M 347.80 142.46 C 348.58 141.77 349.36 141.08 350.15 140.39 C 350.30 140.43 350.60 140.52 350.75 140.57 L 351.38 140.77 C 352.63 141.34 353.81 142.06 354.97 142.82 C 353.58 144.90 352.02 146.84 350.46 148.79 C 348.02 148.69 345.53 148.43 343.14 148.97 C 342.03 149.91 341.09 151.02 340.12 152.08 C 340.26 148.34 341.10 144.69 342.32 141.16 C 342.52 141.47 342.91 142.09 343.11 142.40 C 344.67 142.48 346.23 142.47 347.80 142.46 Z" />
</g>
<g id="#fe550aff">
<path fill="#fe550a" opacity="1.00" d=" M 448.51 141.88 C 456.37 141.92 464.24 139.02 472.02 140.83 C 472.18 144.19 468.46 143.98 466.11 144.33 C 461.29 144.47 456.65 146.11 451.86 146.28 C 449.55 146.16 448.94 143.69 448.51 141.88 Z" />
</g>
<g id="#feba01ff">
<path fill="#feba01" opacity="1.00" d=" M 247.33 142.22 C 248.14 142.61 248.96 143.00 249.78 143.39 C 250.13 143.04 250.85 142.32 251.21 141.96 C 251.31 143.45 251.42 144.96 251.55 146.46 C 255.82 145.30 260.07 144.06 264.42 143.22 C 265.74 146.52 263.27 149.86 259.83 150.01 C 260.45 148.93 261.07 147.86 261.70 146.78 C 255.63 147.56 249.54 148.17 243.42 148.30 C 243.94 145.83 245.01 143.48 247.33 142.22 Z" />
</g>
<g id="#fe8c04ff">
<path fill="#fe8c04" opacity="1.00" d=" M 361.08 142.34 L 361.19 142.33 C 363.99 142.16 366.81 142.25 369.61 142.53 C 369.15 144.29 368.78 146.07 368.53 147.87 C 365.45 147.41 362.34 147.44 359.24 147.43 C 359.86 145.73 360.50 144.04 361.08 142.34 Z" />
</g>
<g id="#fe6b07ff">
<path fill="#fe6b07" opacity="1.00" d=" M 375.68 144.19 C 377.61 143.23 379.65 142.52 381.74 141.97 C 382.29 143.57 383.16 145.03 384.17 146.39 C 381.60 146.75 379.05 147.24 376.54 147.87 C 376.27 146.66 375.03 145.45 375.68 144.19 Z" />
</g>
<g id="#fe540aff">
<path fill="#fe540a" opacity="1.00" d=" M 384.17 146.39 C 389.70 149.88 395.87 145.84 400.39 142.56 C 403.38 143.41 406.50 142.95 409.57 143.10 C 407.50 145.97 404.74 148.23 401.79 150.14 C 399.31 149.24 396.68 148.79 394.06 149.22 C 389.44 149.84 384.56 149.30 380.25 151.36 L 379.90 151.49 C 378.77 150.29 377.65 149.08 376.54 147.87 C 379.05 147.24 381.60 146.75 384.17 146.39 Z" />
</g>
<g id="#fcfdfeff">
<path fill="#fcfdfe" opacity="1.00" d=" M 492.89 144.57 C 495.49 144.64 497.65 143.00 500.02 142.17 C 503.10 142.51 505.76 144.29 508.22 146.06 C 507.58 148.55 504.95 148.66 502.88 149.15 C 488.43 151.87 473.72 152.80 459.18 154.95 C 458.34 154.28 457.51 153.62 456.69 152.96 C 459.15 152.79 461.61 152.64 464.08 152.44 C 458.91 150.89 453.50 151.94 448.24 151.15 C 448.34 150.69 448.55 149.78 448.65 149.33 C 453.83 150.82 458.94 148.52 464.11 148.22 C 468.82 147.89 473.31 146.04 478.07 146.34 C 483.05 146.12 487.89 144.69 492.89 144.57 Z" />
</g>
<g id="#b4c9e0ff">
<path fill="#b4c9e0" opacity="1.00" d=" M 331.73 150.70 C 333.64 148.09 336.30 146.06 337.70 143.08 C 336.51 147.09 335.12 152.25 338.54 155.59 C 340.63 158.19 344.62 159.68 347.61 157.71 C 349.74 155.93 351.31 153.57 353.39 151.73 C 353.79 153.43 354.14 155.15 354.71 156.81 C 355.31 158.52 357.40 159.00 358.28 160.47 C 358.37 160.89 358.54 161.75 358.63 162.17 C 361.17 163.23 363.95 163.23 366.66 163.29 C 366.14 163.77 365.63 164.26 365.13 164.75 C 366.41 164.99 367.71 165.23 369.01 165.47 C 364.33 166.38 359.62 167.14 354.95 168.14 C 355.18 168.52 355.65 169.29 355.88 169.68 L 356.07 170.01 C 342.97 171.80 329.99 174.47 317.00 176.95 C 316.79 176.51 316.35 175.62 316.13 175.18 C 320.35 174.12 324.57 173.06 328.89 172.53 C 327.09 172.13 325.34 171.53 323.73 170.63 C 328.56 168.99 333.33 167.19 338.17 165.57 C 337.84 160.99 332.47 160.15 328.82 160.76 C 327.21 162.26 327.41 164.94 326.73 166.98 C 324.63 165.94 322.35 165.90 320.10 166.28 C 324.03 161.13 327.83 155.88 331.73 150.70 Z" />
</g>
<g id="#fe9c02ff">
<path fill="#fe9c02" opacity="1.00" d=" M 202.47 144.22 L 202.64 144.44 C 202.76 144.62 203.00 144.98 203.12 145.16 C 203.00 146.62 202.89 148.08 202.79 149.54 C 204.61 148.85 206.53 148.54 208.46 148.36 C 209.14 149.32 209.82 150.27 210.51 151.22 C 210.20 153.53 209.93 155.84 209.73 158.16 C 207.93 155.02 204.38 155.27 201.26 155.66 C 201.54 151.83 202.41 148.07 202.47 144.22 Z" />
</g>
<g id="#6f99c6ff">
<path fill="#6f99c6" opacity="1.00" d=" M 215.93 144.93 C 219.26 143.65 222.96 143.88 226.47 143.58 C 226.68 145.63 227.02 147.94 225.55 149.65 C 222.88 153.01 218.23 153.91 214.16 154.12 C 214.54 151.07 214.11 147.58 215.93 144.93 Z" />
</g>
<g id="#a8c3e0ff">
<path fill="#a8c3e0" opacity="1.00" d=" M 308.21 149.76 C 311.61 147.39 316.41 147.91 319.05 144.27 C 316.18 146.98 314.58 150.83 311.37 153.17 C 310.30 152.05 309.25 150.91 308.21 149.76 Z" />
</g>
<g id="#0e0b0582">
<path fill="#0e0b05" opacity="0.51" d=" M 65.92 145.03 C 70.76 147.20 76.16 146.75 81.27 147.73 C 93.13 148.75 105.17 149.78 116.60 153.19 C 107.53 152.06 98.57 150.19 89.46 149.29 C 81.86 148.18 73.98 148.58 66.56 146.40 C 66.40 146.05 66.08 145.37 65.92 145.03 Z" />
</g>
<g id="#ff3e0dff">
<path fill="#ff3e0d" opacity="1.00" d=" M 410.53 147.72 C 419.52 145.45 428.93 146.30 438.05 144.91 C 437.45 145.63 436.86 146.35 436.28 147.08 C 436.80 147.06 437.83 147.00 438.35 146.97 C 432.61 149.44 426.21 149.83 420.06 150.34 C 416.81 150.21 412.38 151.24 410.53 147.72 Z" />
</g>
<g id="#ff9d03ff">
<path fill="#ff9d03" opacity="1.00" d=" M 243.42 148.30 C 249.54 148.17 255.63 147.56 261.70 146.78 C 261.07 147.86 260.45 148.93 259.83 150.01 C 257.08 150.57 254.34 151.18 251.58 151.69 C 251.31 151.92 250.77 152.37 250.50 152.59 C 247.66 152.03 244.71 152.05 242.31 153.89 C 242.58 152.32 242.80 150.75 243.18 149.21 L 243.42 148.30 Z" />
</g>
<g id="#fe7407ff">
<path fill="#fe7407" opacity="1.00" d=" M 321.14 147.36 L 321.46 147.32 C 324.10 146.80 326.79 147.01 329.37 147.77 C 327.72 150.16 325.94 152.46 324.17 154.78 C 321.47 154.57 318.76 154.45 316.06 154.27 C 317.66 151.90 319.43 149.65 321.14 147.36 Z" />
</g>
<g id="#ff560aff">
<path fill="#ff560a" opacity="1.00" d=" M 358.86 147.43 L 359.24 147.43 C 362.34 147.44 365.45 147.41 368.53 147.87 C 370.46 147.97 371.69 149.42 372.69 150.90 C 371.73 152.22 370.79 153.54 369.85 154.87 L 369.50 154.77 C 365.60 153.22 361.43 154.44 357.41 154.60 C 357.57 152.15 358.10 149.76 358.86 147.43 Z" />
</g>
<g id="#fec205ff">
<path fill="#fec205" opacity="1.00" d=" M 50.51 150.41 C 55.05 149.67 59.57 148.83 64.16 148.45 L 64.69 148.40 C 66.57 149.52 68.70 150.12 70.87 150.33 C 83.52 151.88 96.31 152.47 108.83 155.03 C 105.48 156.87 101.62 156.04 97.99 156.16 C 86.97 156.71 75.99 158.33 64.95 158.10 C 66.05 158.77 67.32 159.38 67.60 160.78 C 60.95 160.12 53.86 158.65 49.18 153.46 C 49.51 152.70 50.18 151.17 50.51 150.41 Z" />
</g>
<g id="#fe6607ff">
<path fill="#fe6607" opacity="1.00" d=" M 294.54 150.26 C 296.71 149.44 298.94 148.76 301.17 148.12 L 301.85 147.92 C 304.38 151.35 307.45 154.32 310.19 157.57 C 307.37 157.18 304.55 157.73 301.90 158.68 L 301.75 158.72 C 299.32 155.93 296.81 153.19 294.54 150.26 Z" />
</g>
<g id="#fe6508ff">
<path fill="#fe6508" opacity="1.00" d=" M 343.14 148.97 C 345.53 148.43 348.02 148.69 350.46 148.79 C 349.00 150.81 347.61 152.96 345.63 154.53 C 343.35 155.52 341.58 153.49 340.12 152.08 C 341.09 151.02 342.03 149.91 343.14 148.97 Z" />
</g>
<g id="#dee7f0ff">
<path fill="#dee7f0" opacity="1.00" d=" M 436.12 151.67 C 439.68 150.87 442.70 148.75 445.94 147.17 C 446.86 147.76 447.80 148.35 448.74 148.94 L 448.65 149.33 C 448.55 149.78 448.34 150.69 448.24 151.15 C 453.50 151.94 458.91 150.89 464.08 152.44 C 461.61 152.64 459.15 152.79 456.69 152.96 C 457.51 153.62 458.34 154.28 459.18 154.95 C 432.43 158.12 405.75 161.90 379.12 165.83 C 379.38 165.47 379.91 164.76 380.18 164.41 C 386.27 162.13 393.10 162.86 399.05 160.10 C 398.76 159.60 398.19 158.61 397.91 158.12 C 393.34 159.11 388.66 159.58 384.01 159.02 C 384.23 158.57 384.68 157.68 384.91 157.23 C 392.30 158.37 399.75 155.87 405.87 151.82 C 408.41 150.12 410.40 153.62 412.92 153.66 C 420.70 154.34 428.54 153.44 436.12 151.67 Z" />
</g>
<g id="#fe7706ff">
<path fill="#fe7706" opacity="1.00" d=" M 235.39 149.45 C 235.93 150.07 236.47 150.68 237.01 151.30 C 234.62 156.23 229.89 159.40 224.93 161.38 L 224.64 161.25 C 219.57 157.97 213.73 160.68 208.24 160.40 C 205.52 160.26 202.86 160.86 200.31 161.78 C 200.51 159.74 200.71 157.71 200.90 155.69 L 201.26 155.66 C 204.38 155.27 207.93 155.02 209.73 158.16 C 216.72 158.93 224.71 156.57 229.27 150.92 C 231.31 150.43 233.35 149.94 235.39 149.45 Z" />
</g>
<g id="#ff2f0eff">
<path fill="#ff2f0e" opacity="1.00" d=" M 380.25 151.36 C 384.56 149.30 389.44 149.84 394.06 149.22 C 396.68 148.79 399.31 149.24 401.79 150.14 C 395.43 153.81 386.76 155.50 380.25 151.36 Z" />
</g>
<g id="#fea002ff">
<path fill="#fea002" opacity="1.00" d=" M 144.12 151.31 C 146.61 150.52 149.31 150.13 151.59 151.73 C 150.80 154.78 149.90 157.80 149.09 160.85 C 147.18 157.75 143.75 158.95 140.92 159.80 C 141.85 156.96 142.89 154.16 143.93 151.36 L 144.12 151.31 Z" />
</g>
<g id="#5789bdff">
<path fill="#5789bd" opacity="1.00" d=" M 168.88 151.46 C 174.39 150.78 179.79 149.02 185.40 149.29 C 185.02 157.44 183.36 165.54 180.31 173.11 C 178.66 176.77 176.08 180.68 171.88 181.58 C 168.18 182.63 164.32 182.04 160.61 181.41 C 162.08 180.38 163.57 179.37 165.05 178.36 C 164.50 177.65 163.95 176.94 163.41 176.24 C 167.21 176.14 172.14 176.19 174.28 172.41 C 175.18 167.27 176.67 162.22 177.11 157.01 C 172.32 157.28 167.20 158.84 162.73 156.29 C 164.47 155.61 166.22 154.94 167.98 154.27 C 163.66 153.84 159.25 155.85 155.09 154.19 C 159.51 152.51 164.27 152.29 168.88 151.46 Z" />
</g>
<g id="#fe7b06ff">
<path fill="#fe7b06" opacity="1.00" d=" M 242.31 153.89 C 244.71 152.05 247.66 152.03 250.50 152.59 C 250.44 153.98 250.39 155.37 250.34 156.76 C 247.65 156.94 244.96 157.15 242.28 157.40 C 242.29 156.23 242.30 155.06 242.31 153.89 Z" />
</g>
<g id="#1911077b">
<path fill="#191107" opacity="0.48" d=" M 123.56 155.30 C 127.53 155.16 131.43 154.36 135.38 153.97 C 131.53 154.85 127.50 156.84 123.56 155.30 Z" />
</g>
<g id="#4b7eb3ff">
<path fill="#4b7eb3" opacity="1.00" d=" M 152.13 172.08 C 151.25 166.02 152.68 159.76 155.09 154.19 C 159.25 155.85 163.66 153.84 167.98 154.27 C 166.22 154.94 164.47 155.61 162.73 156.29 C 167.20 158.84 172.32 157.28 177.11 157.01 C 176.67 162.22 175.18 167.27 174.28 172.41 C 172.14 176.19 167.21 176.14 163.41 176.24 C 163.95 176.94 164.50 177.65 165.05 178.36 C 163.57 179.37 162.08 180.38 160.61 181.41 C 156.64 179.66 152.83 176.61 152.13 172.08 Z" />
<path fill="#4b7eb3" opacity="1.00" d=" M 132.15 158.73 C 133.77 157.75 135.63 157.49 137.50 157.65 C 137.25 159.05 136.94 160.44 136.57 161.81 C 134.62 161.80 133.56 159.77 132.15 158.73 Z" />
</g>
<g id="#fe280fff">
<path fill="#fe280f" opacity="1.00" d=" M 315.88 154.26 L 316.06 154.27 C 318.76 154.45 321.47 154.57 324.17 154.78 C 322.49 157.11 320.80 159.44 319.03 161.70 L 318.72 161.74 C 314.35 162.28 310.05 163.65 305.60 162.80 L 305.06 162.77 C 303.98 161.42 302.93 160.06 301.90 158.68 C 304.55 157.73 307.37 157.18 310.19 157.57 C 310.68 157.90 311.68 158.54 312.17 158.86 C 313.44 157.35 314.67 155.81 315.88 154.26 Z" />
</g>
<g id="#ff350eff">
<path fill="#ff350e" opacity="1.00" d=" M 357.41 154.60 C 361.43 154.44 365.60 153.22 369.50 154.77 C 366.40 157.99 360.16 158.54 357.41 154.60 Z" />
</g>
<g id="#c5d6e7ff">
<path fill="#c5d6e7" opacity="1.00" d=" M 368.90 159.64 C 371.96 158.36 373.81 155.45 375.96 153.09 C 378.68 155.00 381.71 156.35 384.91 157.23 C 384.68 157.68 384.23 158.57 384.01 159.02 C 388.66 159.58 393.34 159.11 397.91 158.12 C 398.19 158.61 398.76 159.60 399.05 160.10 C 393.10 162.86 386.27 162.13 380.18 164.41 C 379.91 164.76 379.38 165.47 379.12 165.83 L 378.94 166.13 C 371.20 166.96 363.59 168.76 355.88 169.68 C 355.65 169.29 355.18 168.52 354.95 168.14 C 359.62 167.14 364.33 166.38 369.01 165.47 C 367.71 165.23 366.41 164.99 365.13 164.75 C 365.63 164.26 366.14 163.77 366.66 163.29 C 363.95 163.23 361.17 163.23 358.63 162.17 C 358.54 161.75 358.37 160.89 358.28 160.47 C 361.81 160.89 365.60 161.28 368.90 159.64 Z" />
</g>
<g id="#ff9505ff">
<path fill="#ff9505" opacity="1.00" d=" M 108.83 155.03 C 115.70 155.91 122.85 157.26 128.74 161.13 C 122.63 162.37 116.39 162.81 110.16 162.86 C 110.66 163.83 111.16 164.80 111.66 165.77 C 97.24 162.07 82.18 163.35 67.60 160.78 C 67.32 159.38 66.05 158.77 64.95 158.10 C 75.99 158.33 86.97 156.71 97.99 156.16 C 101.62 156.04 105.48 156.87 108.83 155.03 Z" />
</g>
<g id="#ff2f0fff">
<path fill="#ff2f0f" opacity="1.00" d=" M 281.04 163.31 C 281.34 160.56 281.51 157.78 281.97 155.05 C 282.02 156.20 282.08 157.35 282.16 158.51 C 284.79 158.18 287.44 158.03 290.09 158.02 C 289.81 159.93 289.67 161.86 289.59 163.80 C 286.74 163.66 283.89 163.50 281.04 163.31 Z" />
</g>
<g id="#799fcaff">
<path fill="#799fca" opacity="1.00" d=" M 238.46 156.20 C 237.90 161.78 237.38 167.37 237.11 172.97 C 236.85 177.03 239.49 181.14 243.35 182.47 C 245.53 183.15 247.84 183.15 250.10 183.12 C 248.31 183.56 246.55 184.08 244.79 184.60 C 247.44 185.02 250.12 185.20 252.80 185.12 C 251.08 186.20 249.63 187.63 249.19 189.68 C 243.07 191.92 235.78 191.38 230.54 195.65 C 226.81 197.14 222.69 197.67 218.79 198.68 C 218.65 198.30 218.36 197.52 218.22 197.14 C 221.49 196.32 224.75 195.43 227.98 194.43 C 227.50 193.30 227.01 192.18 226.51 191.06 C 230.17 189.80 233.79 188.42 237.18 186.54 C 235.25 184.20 233.18 181.97 231.47 179.46 C 229.68 177.16 231.16 174.08 230.40 171.48 C 229.64 170.46 228.72 169.57 227.86 168.64 C 228.55 167.67 229.24 166.71 229.94 165.76 C 228.31 165.84 226.64 165.93 225.09 165.30 C 229.54 163.59 233.51 161.00 237.30 158.16 C 237.59 157.67 238.17 156.69 238.46 156.20 Z" />
</g>
<g id="#ff580aff">
<path fill="#ff580a" opacity="1.00" d=" M 242.28 157.40 C 244.96 157.15 247.65 156.94 250.34 156.76 C 250.19 158.29 250.02 159.82 249.83 161.34 C 247.06 161.42 244.29 161.52 241.52 161.76 C 241.77 160.30 242.02 158.85 242.28 157.40 Z" />
</g>
<g id="#9bb7d8ff">
<path fill="#9bb7d8" opacity="1.00" d=" M 294.20 156.71 C 298.91 160.02 302.43 164.83 305.14 169.85 C 307.02 173.26 311.99 174.73 315.16 172.22 C 317.09 170.50 318.53 168.32 320.10 166.28 C 322.35 165.90 324.63 165.94 326.73 166.98 C 327.41 164.94 327.21 162.26 328.82 160.76 C 332.47 160.15 337.84 160.99 338.17 165.57 C 333.33 167.19 328.56 168.99 323.73 170.63 C 325.34 171.53 327.09 172.13 328.89 172.53 C 324.57 173.06 320.35 174.12 316.13 175.18 C 316.35 175.62 316.79 176.51 317.00 176.95 C 303.94 179.39 290.94 182.12 277.96 184.94 C 277.76 184.53 277.36 183.69 277.16 183.27 C 281.07 182.25 285.02 181.36 288.94 180.39 C 286.42 177.89 282.83 179.09 279.69 178.79 C 281.24 178.11 282.80 177.46 284.38 176.85 C 287.73 175.69 291.32 173.62 292.31 169.95 C 293.39 165.61 293.17 161.07 294.20 156.71 Z" />
</g>
<g id="#fe560aff">
<path fill="#fe560a" opacity="1.00" d=" M 188.11 158.32 C 191.23 158.35 194.34 158.48 197.45 158.75 C 197.05 161.03 196.65 163.32 196.51 165.63 C 193.23 164.43 189.78 164.71 186.53 165.83 C 187.18 163.36 187.67 160.84 188.11 158.32 Z" />
</g>
<g id="#0707077a">
<path fill="#070707" opacity="0.48" d=" M 422.89 162.87 C 436.62 160.49 450.48 158.73 464.39 157.80 C 460.61 159.72 456.10 158.73 452.03 159.69 C 442.29 160.48 432.69 162.97 422.89 162.87 Z" />
</g>
<g id="#fe7107ff">
<path fill="#fe7107" opacity="1.00" d=" M 140.92 159.80 C 143.75 158.95 147.18 157.75 149.09 160.85 C 148.89 161.78 148.69 162.71 148.49 163.64 C 145.74 163.46 142.97 163.46 140.22 163.66 C 140.45 162.37 140.68 161.08 140.92 159.80 Z" />
</g>
<g id="#ff4d0bff">
<path fill="#ff4d0b" opacity="1.00" d=" M 208.24 160.40 C 213.73 160.68 219.57 157.97 224.64 161.25 C 220.35 163.21 215.60 163.45 210.99 164.01 C 209.64 163.97 208.96 165.23 208.21 166.09 C 205.36 166.38 202.50 166.51 199.64 166.42 C 199.86 164.87 200.09 163.32 200.31 161.78 C 202.86 160.86 205.52 160.26 208.24 160.40 Z" />
</g>
<g id="#ff5d09ff">
<path fill="#ff5d09" opacity="1.00" d=" M 128.74 161.13 L 128.99 161.08 C 131.33 163.07 133.48 165.25 135.51 167.54 C 129.84 166.73 124.20 167.79 118.66 168.93 C 116.51 167.66 114.23 166.62 111.80 166.04 L 111.66 165.77 C 111.16 164.80 110.66 163.83 110.16 162.86 C 116.39 162.81 122.63 162.37 128.74 161.13 Z" />
</g>
<g id="#ff2210ff">
<path fill="#ff2210" opacity="1.00" d=" M 241.52 161.76 C 244.29 161.52 247.06 161.42 249.83 161.34 C 249.61 163.82 249.51 166.30 249.67 168.79 C 247.90 165.78 244.13 166.98 241.27 166.81 C 241.35 165.12 241.43 163.44 241.52 161.76 Z" />
</g>
<g id="#fe0017ff">
<path fill="#fe0017" opacity="1.00" d=" M 305.60 162.80 C 310.05 163.65 314.35 162.28 318.72 161.74 C 317.34 164.25 315.64 166.58 313.62 168.61 C 312.46 170.26 309.70 170.10 308.62 168.44 C 307.35 166.71 306.56 164.70 305.60 162.80 Z" />
<path fill="#fe0017" opacity="1.00" d=" M 281.04 163.31 C 283.89 163.50 286.74 163.66 289.59 163.80 C 290.47 169.17 286.05 174.07 280.60 173.55 C 279.84 170.15 280.41 166.68 281.04 163.31 Z" />
<path fill="#fe0017" opacity="1.00" d=" M 199.64 166.42 C 202.50 166.51 205.36 166.38 208.21 166.09 C 207.73 169.61 207.67 173.23 206.47 176.60 C 204.24 183.15 203.92 190.13 202.98 196.93 C 202.71 199.24 199.37 201.67 197.75 199.09 C 197.20 188.18 199.20 177.31 199.64 166.42 Z" />
<path fill="#fe0017" opacity="1.00" d=" M 139.52 169.38 C 142.42 169.39 145.32 169.37 148.23 169.31 C 148.11 174.58 150.76 179.89 155.34 182.60 C 160.48 186.11 167.15 186.36 173.05 185.10 C 180.30 183.05 183.77 175.58 185.64 168.91 C 188.98 169.00 192.33 169.02 195.67 168.75 C 194.60 175.34 191.87 181.64 188.15 187.17 C 185.52 191.16 181.56 194.35 176.88 195.54 C 167.06 197.86 156.23 195.75 148.02 189.88 C 141.63 185.24 139.65 176.87 139.52 169.38 Z" />
</g>
<g id="#fe440bff">
<path fill="#fe440b" opacity="1.00" d=" M 140.22 163.66 C 142.97 163.46 145.74 163.46 148.49 163.64 C 148.41 165.53 148.32 167.42 148.23 169.31 C 145.32 169.37 142.42 169.39 139.52 169.38 C 139.71 167.46 139.95 165.56 140.22 163.66 Z" />
</g>
<g id="#ff1f10ff">
<path fill="#ff1f10" opacity="1.00" d=" M 186.53 165.83 C 189.78 164.71 193.23 164.43 196.51 165.63 C 196.37 166.73 196.09 167.77 195.67 168.75 C 192.33 169.02 188.98 169.00 185.64 168.91 C 185.93 167.88 186.23 166.85 186.53 165.83 Z" />
</g>
<g id="#6c96c3ff">
<path fill="#6c96c3" opacity="1.00" d=" M 212.87 167.82 C 216.88 166.76 221.06 166.35 225.09 165.30 C 226.64 165.93 228.31 165.84 229.94 165.76 C 229.24 166.71 228.55 167.67 227.86 168.64 C 228.72 169.57 229.64 170.46 230.40 171.48 C 231.16 174.08 229.68 177.16 231.47 179.46 C 233.18 181.97 235.25 184.20 237.18 186.54 C 233.79 188.42 230.17 189.80 226.51 191.06 C 227.01 192.18 227.50 193.30 227.98 194.43 C 224.75 195.43 221.49 196.32 218.22 197.14 C 218.36 197.52 218.65 198.30 218.79 198.68 L 218.90 198.97 C 214.27 199.87 209.76 201.32 205.09 201.97 C 208.13 194.13 207.10 185.30 210.09 177.39 C 211.49 174.37 210.23 170.13 212.87 167.82 Z" />
</g>
<g id="#fe0018ff">
<path fill="#fe0018" opacity="1.00" d=" M 251.02 170.42 C 259.08 168.73 267.13 166.95 275.08 164.80 C 278.69 164.85 277.26 169.67 276.92 171.97 C 276.76 174.75 273.70 174.92 271.62 175.46 C 263.76 176.93 255.91 178.63 247.95 179.43 C 244.90 179.83 241.67 178.05 240.87 174.99 C 240.31 172.28 241.00 169.51 241.27 166.81 C 244.13 166.98 247.90 165.78 249.67 168.79 C 250.01 169.19 250.68 170.01 251.02 170.42 Z" />
</g>
<g id="#a39046ff">
<path fill="#a39046" opacity="1.00" d=" M 389.73 168.05 C 396.22 166.66 402.84 165.97 409.45 165.45 C 410.51 178.02 412.45 190.51 413.29 203.11 C 404.99 203.07 396.69 203.29 388.39 202.89 C 388.87 191.28 389.75 179.68 389.73 168.05 Z" />
</g>
<g id="#191517ff">
<path fill="#191517" opacity="1.00" d=" M 409.45 165.45 C 410.10 165.32 411.39 165.05 412.04 164.91 C 412.32 170.47 413.22 175.98 413.68 181.53 C 414.67 187.80 414.47 194.28 416.35 200.39 C 435.00 203.80 451.76 213.76 466.33 225.55 C 463.52 226.20 460.54 226.27 459.04 223.39 C 451.07 217.16 442.17 212.10 432.87 208.13 C 426.58 205.71 420.11 203.27 413.29 203.11 C 412.45 190.51 410.51 178.02 409.45 165.45 Z" />
</g>
<g id="#306cadff">
<path fill="#306cad" opacity="1.00" d=" M 85.20 169.33 C 90.76 166.42 97.22 167.02 103.21 167.87 C 108.49 168.90 114.40 169.59 118.40 173.56 C 119.92 174.84 119.47 176.91 118.11 178.08 C 109.91 186.83 98.10 190.57 87.09 194.41 C 86.51 194.21 85.35 193.81 84.77 193.61 C 88.11 191.90 91.66 190.67 95.29 189.76 C 95.03 188.66 94.01 187.49 94.64 186.37 C 99.84 182.51 106.43 180.82 111.17 176.28 C 105.49 174.15 98.67 174.96 93.79 170.97 C 94.82 170.39 95.86 169.82 96.89 169.25 C 92.99 169.20 89.07 170.15 85.20 169.33 Z" />
</g>
<g id="#ff2c0fff">
<path fill="#ff2c0f" opacity="1.00" d=" M 118.66 168.93 C 124.20 167.79 129.84 166.73 135.51 167.54 C 136.08 168.83 136.63 170.13 137.19 171.43 C 132.53 172.18 127.84 172.73 123.14 173.19 C 121.64 171.77 120.15 170.35 118.66 168.93 Z" />
</g>
<g id="#22190b95">
<path fill="#22190b" opacity="0.58" d=" M 382.79 168.77 C 383.87 168.50 384.95 168.21 386.03 167.93 C 386.42 168.08 387.19 168.39 387.58 168.55 C 386.44 178.74 387.95 189.11 386.15 199.23 C 386.06 189.11 386.97 179.01 386.93 168.89 C 385.54 168.85 384.16 168.81 382.79 168.77 Z" />
</g>
<g id="#0e0c13ff">
<path fill="#0e0c13" opacity="1.00" d=" M 387.58 168.55 C 388.12 168.42 389.19 168.17 389.73 168.05 C 389.75 179.68 388.87 191.28 388.39 202.89 L 388.08 202.88 C 386.22 202.25 384.40 201.50 382.56 200.84 C 383.39 200.76 385.04 200.60 385.87 200.52 C 385.94 200.20 386.08 199.55 386.15 199.23 C 387.95 189.11 386.44 178.74 387.58 168.55 Z" />
</g>
<g id="#215ea1ff">
<path fill="#215ea1" opacity="1.00" d=" M 82.01 169.72 C 83.05 169.48 84.12 169.14 85.20 169.33 C 89.07 170.15 92.99 169.20 96.89 169.25 C 95.86 169.82 94.82 170.39 93.79 170.97 C 98.67 174.96 105.49 174.15 111.17 176.28 C 106.43 180.82 99.84 182.51 94.64 186.37 C 94.01 187.49 95.03 188.66 95.29 189.76 C 91.66 190.67 88.11 191.90 84.77 193.61 C 85.35 193.81 86.51 194.21 87.09 194.41 C 76.71 198.06 65.92 200.51 55.10 202.51 C 53.75 202.19 52.40 201.85 51.06 201.50 C 53.20 200.93 55.34 200.39 57.49 199.86 C 56.92 198.70 56.35 197.55 55.79 196.39 C 56.55 196.83 57.30 197.27 58.06 197.71 C 60.04 196.04 61.46 193.88 62.38 191.47 C 63.15 192.09 63.93 192.71 64.71 193.32 C 64.58 191.51 63.27 190.24 62.09 189.01 C 61.39 189.57 60.70 190.12 60.00 190.67 C 60.06 189.68 60.11 188.68 60.17 187.69 C 60.62 187.60 61.52 187.42 61.98 187.33 C 62.10 185.76 62.24 184.19 62.43 182.63 C 60.25 183.20 58.01 182.86 55.84 182.38 C 56.39 181.44 56.95 180.51 57.51 179.58 C 56.56 178.90 55.61 178.22 54.66 177.54 C 63.73 174.80 72.83 172.11 82.01 169.72 Z" />
</g>
<g id="#fe001dff">
<path fill="#fe001d" opacity="1.00" d=" M 137.19 171.43 L 137.49 171.38 C 137.79 174.95 138.04 178.75 136.46 182.08 C 133.35 189.04 127.10 193.93 120.78 197.87 C 108.33 205.36 94.15 209.30 80.05 212.34 C 72.00 214.33 63.72 215.09 55.52 216.26 C 48.06 217.04 40.52 217.97 33.02 217.11 C 29.08 216.47 24.54 214.98 22.86 210.97 C 22.10 208.15 22.31 205.03 23.39 202.31 C 25.26 198.02 27.56 193.65 31.62 191.03 C 31.24 195.10 28.67 198.77 29.34 202.96 C 29.48 205.34 31.81 206.93 33.97 207.33 C 47.17 208.51 60.17 205.31 72.96 202.49 C 82.22 199.91 91.49 197.21 100.36 193.48 C 108.47 190.21 116.49 185.90 122.07 179.00 C 123.42 177.36 123.23 175.17 123.14 173.19 C 127.84 172.73 132.53 172.18 137.19 171.43 Z" />
</g>
<g id="#89abcfff">
<path fill="#89abcf" opacity="1.00" d=" M 275.95 177.97 C 278.59 176.70 281.51 176.60 284.38 176.85 C 282.80 177.46 281.24 178.11 279.69 178.79 C 282.83 179.09 286.42 177.89 288.94 180.39 C 285.02 181.36 281.07 182.25 277.16 183.27 C 277.36 183.69 277.76 184.53 277.96 184.94 C 262.08 188.16 246.38 192.31 230.54 195.65 C 235.78 191.38 243.07 191.92 249.19 189.68 C 249.63 187.63 251.08 186.20 252.80 185.12 C 250.12 185.20 247.44 185.02 244.79 184.60 C 246.55 184.08 248.31 183.56 250.10 183.12 C 258.70 181.36 267.47 180.30 275.95 177.97 Z" />
</g>
<g id="#10529cff">
<path fill="#10529c" opacity="1.00" d=" M 30.03 185.51 C 38.27 182.99 46.34 179.87 54.66 177.54 C 55.61 178.22 56.56 178.90 57.51 179.58 C 56.95 180.51 56.39 181.44 55.84 182.38 C 58.01 182.86 60.25 183.20 62.43 182.63 C 62.24 184.19 62.10 185.76 61.98 187.33 C 61.52 187.42 60.62 187.60 60.17 187.69 C 60.11 188.68 60.06 189.68 60.00 190.67 C 60.70 190.12 61.39 189.57 62.09 189.01 C 63.27 190.24 64.58 191.51 64.71 193.32 C 63.93 192.71 63.15 192.09 62.38 191.47 C 61.46 193.88 60.04 196.04 58.06 197.71 C 57.30 197.27 56.55 196.83 55.79 196.39 C 56.35 197.55 56.92 198.70 57.49 199.86 C 55.34 200.39 53.20 200.93 51.06 201.50 C 52.40 201.85 53.75 202.19 55.10 202.51 C 48.81 203.74 42.34 204.05 35.94 203.75 C 34.57 203.85 33.56 202.88 32.52 202.17 C 33.19 198.68 34.86 195.48 35.54 192.00 C 36.25 188.78 32.66 186.54 29.80 187.50 C 29.86 187.01 29.97 186.01 30.03 185.51 Z" />
</g>
<g id="#1511077d">
<path fill="#151107" opacity="0.49" d=" M 288.38 185.81 C 298.51 183.48 308.72 181.50 319.00 179.96 C 312.97 182.01 306.59 182.62 300.41 184.05 C 296.41 184.69 292.49 186.15 288.38 185.81 Z" />
</g>
<g id="#5a8bbeff">
<path fill="#5a8bbe" opacity="1.00" d=" M 194.50 184.21 C 194.05 188.83 193.96 193.47 194.04 198.11 C 193.84 200.56 195.54 202.45 196.82 204.34 C 187.33 207.37 177.64 209.77 168.04 212.42 C 167.44 212.27 166.22 211.95 165.62 211.79 C 168.78 210.24 172.19 209.31 175.63 208.61 C 174.87 206.84 174.13 205.06 173.39 203.29 C 174.22 202.96 175.04 202.63 175.88 202.31 C 173.88 202.12 171.90 201.93 169.91 201.73 C 171.40 201.07 172.88 200.41 174.41 199.84 C 179.16 198.80 184.02 197.14 187.47 193.54 C 190.13 190.69 192.79 187.75 194.50 184.21 Z" />
</g>
<g id="#4074aeff">
<path fill="#4074ae" opacity="1.00" d=" M 137.64 187.52 C 138.23 186.08 140.58 185.58 140.50 187.59 C 140.47 188.14 140.41 189.25 140.38 189.80 C 143.00 192.87 146.26 195.28 149.64 197.44 C 148.69 197.94 147.75 198.44 146.81 198.95 C 150.96 202.74 156.18 204.84 161.13 207.36 C 156.35 208.32 152.52 211.89 147.67 212.43 C 148.23 213.65 148.86 215.30 147.52 216.30 C 144.93 217.67 142.05 218.35 139.28 219.26 C 139.43 219.69 139.73 220.56 139.87 220.99 C 131.45 223.28 123.26 226.43 114.82 228.58 C 114.64 228.27 114.28 227.63 114.10 227.31 C 115.38 226.84 116.66 226.38 117.94 225.91 C 119.11 224.10 120.15 222.17 121.70 220.63 C 123.61 219.12 126.04 218.48 128.08 217.18 C 128.57 216.05 128.62 214.79 128.81 213.59 C 126.26 211.72 124.36 209.18 122.95 206.37 C 122.68 206.63 122.13 207.16 121.85 207.42 C 120.93 206.79 120.15 205.83 119.08 205.50 C 117.74 205.76 116.46 206.20 115.14 206.50 C 114.63 206.44 113.61 206.31 113.10 206.25 C 122.22 201.44 131.68 196.26 137.64 187.52 Z" />
</g>
<g id="#231d0e7d">
<path fill="#231d0e" opacity="0.49" d=" M 285.03 186.67 C 285.82 186.01 286.74 185.74 287.76 185.84 C 287.39 187.55 286.48 187.82 285.03 186.67 Z" />
</g>
<g id="#064b9aff">
<path fill="#064b9a" opacity="1.00" d=" M 7.40 194.36 C 14.00 191.35 20.89 189.00 27.70 186.50 C 28.31 187.01 28.92 187.52 29.52 188.05 C 25.29 190.27 23.09 194.86 20.97 198.93 C 18.06 204.58 17.47 212.68 22.97 217.00 C 30.23 222.53 39.88 220.64 48.26 220.95 C 50.58 222.35 53.27 222.51 55.91 222.43 C 54.63 222.98 53.36 223.55 52.09 224.13 C 53.61 225.58 55.47 226.56 57.42 227.28 C 57.02 227.84 56.63 228.41 56.23 228.97 C 57.14 231.06 57.39 233.26 56.24 235.32 C 57.30 237.11 58.41 238.88 59.52 240.64 C 57.44 242.63 55.19 244.43 52.67 245.83 C 53.32 246.44 53.97 247.07 54.63 247.69 C 53.57 248.14 52.51 248.58 51.47 249.06 C 51.49 249.48 51.52 250.33 51.54 250.75 L 51.55 250.99 C 46.24 252.63 41.19 254.99 35.93 256.77 C 32.45 258.29 29.20 255.50 26.92 253.17 C 21.97 247.78 18.48 241.24 15.30 234.71 C 10.63 224.61 6.58 214.07 4.90 203.02 C 4.48 200.04 4.25 195.96 7.40 194.36 Z" />
</g>
<g id="#1d170978">
<path fill="#1d1709" opacity="0.47" d=" M 265.33 191.15 C 271.53 188.95 278.05 187.91 284.53 186.88 C 282.21 188.21 279.54 188.50 276.97 188.95 C 273.07 189.59 269.30 190.94 265.33 191.15 Z" />
</g>
<g id="#4f81b7ff">
<path fill="#4f81b7" opacity="1.00" d=" M 140.38 189.80 C 140.41 189.25 140.47 188.14 140.50 187.59 C 148.49 197.57 162.13 200.95 174.41 199.84 C 172.88 200.41 171.40 201.07 169.91 201.73 C 171.90 201.93 173.88 202.12 175.88 202.31 C 175.04 202.63 174.22 202.96 173.39 203.29 C 174.13 205.06 174.87 206.84 175.63 208.61 C 172.19 209.31 168.78 210.24 165.62 211.79 C 166.22 211.95 167.44 212.27 168.04 212.42 C 158.72 215.49 149.16 217.81 139.87 220.99 C 139.73 220.56 139.43 219.69 139.28 219.26 C 142.05 218.35 144.93 217.67 147.52 216.30 C 148.86 215.30 148.23 213.65 147.67 212.43 C 152.52 211.89 156.35 208.32 161.13 207.36 C 156.18 204.84 150.96 202.74 146.81 198.95 C 147.75 198.44 148.69 197.94 149.64 197.44 C 146.26 195.28 143.00 192.87 140.38 189.80 Z" />
</g>
<g id="#241d0985">
<path fill="#241d09" opacity="0.52" d=" M 257.13 192.61 C 258.31 192.04 259.59 191.70 260.92 191.79 C 261.10 193.61 258.00 193.84 257.13 192.61 Z" />
</g>
<g id="#1b170a7e">
<path fill="#1b170a" opacity="0.49" d=" M 236.27 197.79 C 242.95 195.60 249.91 194.43 256.73 192.76 C 254.71 194.48 251.95 194.60 249.50 195.26 C 245.09 196.12 240.78 197.54 236.27 197.79 Z" />
</g>
<g id="#1f1a087a">
<path fill="#1f1a08" opacity="0.48" d=" M 227.43 199.99 C 230.04 199.11 232.73 198.49 235.44 198.00 C 233.09 199.65 230.20 199.87 227.43 199.99 Z" />
</g>
<g id="#1d1a1bff">
<path fill="#1d1a1b" opacity="1.00" d=" M 277.69 225.55 C 310.26 209.77 346.50 201.78 382.56 200.84 C 384.40 201.50 386.22 202.25 388.08 202.88 C 353.88 204.04 319.58 210.23 288.01 223.73 L 288.01 223.74 C 287.70 224.40 287.43 225.07 287.16 225.75 C 284.00 225.84 280.85 225.69 277.69 225.55 Z" />
</g>
<g id="#1c180883">
<path fill="#1c1808" opacity="0.51" d=" M 211.31 203.80 C 214.36 203.00 217.42 202.24 220.53 201.74 C 217.82 203.50 214.48 203.95 211.31 203.80 Z" />
</g>
<g id="#bfb07bff">
<path fill="#bfb07b" opacity="1.00" d=" M 288.01 223.73 C 319.58 210.23 353.88 204.04 388.08 202.88 L 388.39 202.89 C 396.69 203.29 404.99 203.07 413.29 203.11 C 420.11 203.27 426.58 205.71 432.87 208.13 C 442.17 212.10 451.07 217.16 459.04 223.39 L 458.72 223.70 C 456.61 224.69 454.20 224.15 451.97 224.22 C 398.31 224.21 344.65 224.22 290.99 224.22 C 290.25 224.10 288.76 223.85 288.01 223.73 Z" />
</g>
<g id="#201b0b96">
<path fill="#201b0b" opacity="0.59" d=" M 205.87 205.66 C 206.92 204.09 208.88 203.86 210.62 203.86 C 210.53 205.75 207.35 206.29 205.87 205.66 Z" />
</g>
<g id="#2e68a9ff">
<path fill="#2e68a9" opacity="1.00" d=" M 115.14 206.50 C 116.46 206.20 117.74 205.76 119.08 205.50 C 120.15 205.83 120.93 206.79 121.85 207.42 C 122.13 207.16 122.68 206.63 122.95 206.37 C 124.36 209.18 126.26 211.72 128.81 213.59 C 128.62 214.79 128.57 216.05 128.08 217.18 C 126.04 218.48 123.61 219.12 121.70 220.63 C 120.15 222.17 119.11 224.10 117.94 225.91 C 116.66 226.38 115.38 226.84 114.10 227.31 C 114.28 227.63 114.64 228.27 114.82 228.58 L 115.00 228.90 C 104.19 232.10 93.57 235.95 82.88 239.53 L 81.51 239.50 C 81.17 239.30 80.48 238.90 80.14 238.70 C 81.11 238.17 82.08 237.65 83.05 237.13 C 81.71 236.87 80.36 236.60 79.02 236.33 C 81.91 233.71 85.53 232.23 89.17 230.96 C 89.46 229.34 89.73 227.71 89.99 226.08 C 88.32 226.64 86.64 227.19 84.96 227.73 C 85.98 226.00 87.34 224.51 89.17 223.64 C 88.97 223.13 88.58 222.11 88.38 221.60 C 86.12 221.34 83.86 221.06 81.60 220.80 C 81.59 219.88 81.58 218.96 81.57 218.04 C 78.21 218.51 74.71 219.28 71.41 218.04 C 80.60 215.72 89.99 214.18 98.99 211.15 C 103.84 209.97 108.27 207.43 113.10 206.25 C 113.61 206.31 114.63 206.44 115.14 206.50 Z" />
</g>
<g id="#28210a5a">
<path fill="#28210a" opacity="0.35" d=" M 202.00 206.59 C 202.81 205.94 203.73 205.64 204.76 205.69 C 204.43 207.41 203.51 207.71 202.00 206.59 Z" />
</g>
<g id="#1915076d">
<path fill="#191507" opacity="0.43" d=" M 185.20 210.85 C 190.65 209.50 195.93 207.51 201.51 206.72 C 196.36 208.85 190.82 210.71 185.20 210.85 Z" />
</g>
<g id="#27210da9">
<path fill="#27210d" opacity="0.66" d=" M 179.90 212.50 C 181.20 211.32 182.85 210.65 184.62 210.87 C 184.62 212.68 181.25 213.50 179.90 212.50 Z" />
</g>
<g id="#1b5ba0ff">
<path fill="#1b5ba0" opacity="1.00" d=" M 48.26 220.95 C 55.98 220.09 63.69 218.44 71.41 218.04 C 74.71 219.28 78.21 218.51 81.57 218.04 C 81.58 218.96 81.59 219.88 81.60 220.80 C 83.86 221.06 86.12 221.34 88.38 221.60 C 88.58 222.11 88.97 223.13 89.17 223.64 C 87.34 224.51 85.98 226.00 84.96 227.73 C 86.64 227.19 88.32 226.64 89.99 226.08 C 89.73 227.71 89.46 229.34 89.17 230.96 C 85.53 232.23 81.91 233.71 79.02 236.33 C 80.36 236.60 81.71 236.87 83.05 237.13 C 82.08 237.65 81.11 238.17 80.14 238.70 C 80.48 238.90 81.17 239.30 81.51 239.50 L 82.19 239.89 C 71.89 243.26 61.79 247.21 51.54 250.75 C 51.52 250.33 51.49 249.48 51.47 249.06 C 52.51 248.58 53.57 248.14 54.63 247.69 C 53.97 247.07 53.32 246.44 52.67 245.83 C 55.19 244.43 57.44 242.63 59.52 240.64 C 58.41 238.88 57.30 237.11 56.24 235.32 C 57.39 233.26 57.14 231.06 56.23 228.97 C 56.63 228.41 57.02 227.84 57.42 227.28 C 55.47 226.56 53.61 225.58 52.09 224.13 C 53.36 223.55 54.63 222.98 55.91 222.43 C 53.27 222.51 50.58 222.35 48.26 220.95 Z" />
</g>
<g id="#100f1bff">
<path fill="#100f1b" opacity="1.00" d=" M 288.01 223.74 L 288.01 223.73 C 288.76 223.85 290.25 224.10 290.99 224.22 C 344.65 224.22 398.31 224.21 451.97 224.22 C 454.20 224.15 456.61 224.69 458.72 223.70 L 459.04 223.39 C 460.54 226.27 463.52 226.20 466.33 225.55 L 466.77 225.50 C 466.75 225.78 466.71 226.35 466.69 226.64 C 408.13 226.48 349.56 226.68 291.00 226.57 C 285.66 226.57 280.31 226.80 274.99 226.34 C 275.88 226.05 276.75 225.66 277.69 225.55 C 280.85 225.69 284.00 225.84 287.16 225.75 C 287.43 225.07 287.70 224.40 288.01 223.74 Z" />
</g>
</svg>
