<?xml version="1.0" encoding="UTF-8" ?>
<!DOCTYPE svg PUBLIC "-//W3C//DTD SVG 1.1//EN" "http://www.w3.org/Graphics/SVG/1.1/DTD/svg11.dtd">
<svg width="1024pt" height="1024pt" viewBox="0 0 1024 1024" version="1.1" xmlns="http://www.w3.org/2000/svg">
<g id="#f4f4f4ff">
<path fill="#f4f4f4" opacity="1.00" d=" M 63.99 0.00 L 832.01 0.00 C 831.95 21.33 832.00 42.67 832.01 64.00 C 853.33 63.95 874.66 64.04 895.99 64.00 C 896.04 128.00 895.95 191.99 896.01 255.99 C 938.67 256.03 981.34 255.98 1024.00 256.00 L 1024.00 576.01 C 1002.66 575.95 981.33 576.00 960.00 576.01 C 960.04 597.34 959.95 618.67 960.00 640.00 C 938.66 639.95 917.33 640.04 896.01 640.00 C 895.96 725.33 896.04 810.66 895.98 896.00 C 874.65 895.95 853.32 896.04 832.00 896.00 C 832.05 917.33 831.95 938.66 832.00 960.00 C 810.66 959.94 789.33 960.04 768.01 960.00 C 768.00 981.33 767.96 1002.66 768.01 1024.00 L 447.99 1024.00 C 448.04 1002.67 447.99 981.34 447.99 960.02 C 426.66 959.95 405.33 959.97 384.01 960.02 C 384.00 981.34 383.96 1002.67 384.01 1024.00 L 63.99 1024.00 C 64.04 1002.66 63.99 981.33 63.99 960.01 C 42.66 960.00 21.33 959.96 0.00 960.01 L 0.00 63.99 C 21.33 64.03 42.66 64.00 63.99 63.99 C 63.99 42.66 64.04 21.33 63.99 0.00 M 128.01 64.01 C 127.98 85.34 127.98 106.67 128.01 128.00 C 106.67 127.98 85.34 127.99 64.01 128.01 C 63.99 362.67 64.00 597.34 64.01 832.00 C 63.98 853.33 63.98 874.66 64.01 895.99 C 85.34 896.00 106.67 896.02 128.01 896.00 C 127.98 917.32 127.98 938.65 128.01 959.99 C 192.00 960.01 256.00 960.00 319.99 959.99 C 320.02 938.66 320.02 917.33 319.99 896.00 C 384.00 896.00 448.00 896.00 512.01 896.00 C 511.98 917.33 511.98 938.66 512.01 959.99 C 576.00 960.01 640.00 960.00 703.99 959.99 C 704.01 938.66 704.02 917.33 703.99 896.00 C 725.32 896.01 746.65 896.00 767.99 895.99 C 768.01 874.66 768.02 853.33 768.00 832.00 C 789.32 832.02 810.65 832.01 831.99 831.99 C 832.02 746.66 831.97 661.33 832.01 576.00 C 853.33 576.00 874.66 575.99 895.99 576.00 C 896.01 554.66 896.02 533.33 896.00 512.00 C 874.66 511.99 853.33 512.01 832.01 511.99 C 831.98 384.00 832.01 256.00 831.99 128.01 C 810.66 127.98 789.32 127.98 768.00 128.01 C 768.02 106.67 768.01 85.34 767.99 64.01 C 554.66 63.99 341.34 64.00 128.01 64.01 M 896.01 320.02 C 895.98 384.01 896.01 448.00 896.00 512.00 C 917.32 512.03 938.65 512.00 959.99 511.99 C 960.01 448.00 960.01 384.00 959.99 320.01 C 938.66 319.98 917.33 319.97 896.01 320.02 Z" />
<path fill="#f4f4f4" opacity="1.00" d=" M 128.01 256.00 C 320.00 256.00 512.00 256.00 703.99 256.00 C 704.01 362.66 704.00 469.33 703.99 575.99 C 512.00 576.00 320.01 576.01 128.01 575.99 C 127.99 469.33 128.00 362.66 128.01 256.00 M 256.01 320.01 C 255.99 384.01 255.99 448.00 256.01 511.99 C 277.33 512.01 298.66 512.02 319.99 511.99 C 320.01 447.99 320.01 384.00 319.99 320.01 C 298.66 319.98 277.34 319.97 256.01 320.01 M 512.01 320.01 C 511.99 384.01 511.99 448.00 512.01 511.99 C 533.33 512.01 554.66 512.02 575.99 511.99 C 576.01 447.99 576.01 384.00 575.99 320.01 C 554.66 319.98 533.33 319.97 512.01 320.01 Z" />
<path fill="#f4f4f4" opacity="1.00" d=" M 256.01 640.02 C 277.34 639.97 298.66 639.98 319.99 640.01 C 320.01 661.34 320.03 682.66 320.00 704.00 C 298.67 704.02 277.34 704.01 256.01 703.99 C 255.97 682.66 255.98 661.34 256.01 640.02 Z" />
<path fill="#f4f4f4" opacity="1.00" d=" M 512.01 640.01 C 533.33 639.97 554.66 639.98 575.98 640.01 C 576.02 661.33 576.02 682.66 575.99 703.99 C 554.66 704.01 533.33 704.02 512.00 704.00 C 511.98 682.67 511.98 661.34 512.01 640.01 Z" />
<path fill="#f4f4f4" opacity="1.00" d=" M 320.00 704.00 C 384.00 704.00 448.00 704.00 512.00 704.00 C 512.02 725.33 512.01 746.66 511.99 767.99 C 448.00 768.00 384.00 768.01 320.01 767.99 C 319.99 746.66 319.97 725.32 320.00 704.00 Z" />
</g>
<g id="#29366fff">
<path fill="#29366f" opacity="1.00" d=" M 128.01 64.01 C 341.34 64.00 554.66 63.99 767.99 64.01 C 768.01 85.34 768.02 106.67 768.00 128.01 C 554.67 127.99 341.34 128.00 128.01 128.00 C 127.98 106.67 127.98 85.34 128.01 64.01 Z" />
<path fill="#29366f" opacity="1.00" d=" M 128.01 192.01 C 320.00 192.00 511.99 191.99 703.98 192.01 C 704.02 213.34 704.01 234.67 703.99 256.00 C 512.00 256.00 320.00 256.00 128.01 256.00 C 127.98 234.67 127.98 213.34 128.01 192.01 Z" />
<path fill="#29366f" opacity="1.00" d=" M 64.01 832.00 C 298.67 832.00 533.33 832.00 768.00 832.00 C 768.02 853.33 768.01 874.66 767.99 895.99 C 746.65 896.00 725.32 896.01 703.99 896.00 C 640.00 896.00 576.00 896.00 512.01 896.00 C 448.00 896.00 384.00 896.00 319.99 896.00 C 256.00 895.99 192.00 896.00 128.01 896.00 C 106.67 896.02 85.34 896.00 64.01 895.99 C 63.98 874.66 63.98 853.33 64.01 832.00 Z" />
</g>
<g id="#41a6f6ff">
<path fill="#41a6f6" opacity="1.00" d=" M 64.01 128.01 C 85.34 127.99 106.67 127.98 128.01 128.00 C 341.34 128.00 554.67 127.99 768.00 128.01 C 768.00 362.67 768.00 597.33 768.00 832.00 C 533.33 832.00 298.67 832.00 64.01 832.00 C 64.00 597.34 63.99 362.67 64.01 128.01 M 128.01 192.01 C 127.98 213.34 127.98 234.67 128.01 256.00 C 128.00 362.66 127.99 469.33 128.01 575.99 C 320.01 576.01 512.00 576.00 703.99 575.99 C 704.00 469.33 704.01 362.66 703.99 256.00 C 704.01 234.67 704.02 213.34 703.98 192.01 C 511.99 191.99 320.00 192.00 128.01 192.01 M 256.01 640.02 C 255.98 661.34 255.97 682.66 256.01 703.99 C 277.34 704.01 298.67 704.02 320.00 704.00 C 320.03 682.66 320.01 661.34 319.99 640.01 C 298.66 639.98 277.34 639.97 256.01 640.02 M 512.01 640.01 C 511.98 661.34 511.98 682.67 512.00 704.00 C 533.33 704.02 554.66 704.01 575.99 703.99 C 576.02 682.66 576.02 661.33 575.98 640.01 C 554.66 639.98 533.33 639.97 512.01 640.01 M 320.00 704.00 C 319.97 725.32 319.99 746.66 320.01 767.99 C 384.00 768.01 448.00 768.00 511.99 767.99 C 512.01 746.66 512.02 725.33 512.00 704.00 C 448.00 704.00 384.00 704.00 320.00 704.00 Z" />
</g>
<g id="#1a1c2cff">
<path fill="#1a1c2c" opacity="1.00" d=" M 768.00 128.01 C 789.32 127.98 810.66 127.98 831.99 128.01 C 832.01 256.00 831.98 384.00 832.01 511.99 C 853.33 512.01 874.66 511.99 896.00 512.00 C 896.02 533.33 896.01 554.66 895.99 576.00 C 874.66 575.99 853.33 576.00 832.01 576.00 C 831.97 661.33 832.02 746.66 831.99 831.99 C 810.65 832.01 789.32 832.02 768.00 832.00 C 768.00 597.33 768.00 362.67 768.00 128.01 Z" />
<path fill="#1a1c2c" opacity="1.00" d=" M 256.01 320.01 C 277.34 319.97 298.66 319.98 319.99 320.01 C 320.01 384.00 320.01 447.99 319.99 511.99 C 298.66 512.02 277.33 512.01 256.01 511.99 C 255.99 448.00 255.99 384.01 256.01 320.01 Z" />
<path fill="#1a1c2c" opacity="1.00" d=" M 512.01 320.01 C 533.33 319.97 554.66 319.98 575.99 320.01 C 576.01 384.00 576.01 447.99 575.99 511.99 C 554.66 512.02 533.33 512.01 512.01 511.99 C 511.99 448.00 511.99 384.01 512.01 320.01 Z" />
<path fill="#1a1c2c" opacity="1.00" d=" M 896.01 320.02 C 917.33 319.97 938.66 319.98 959.99 320.01 C 960.01 384.00 960.01 448.00 959.99 511.99 C 938.65 512.00 917.32 512.03 896.00 512.00 C 896.01 448.00 895.98 384.01 896.01 320.02 Z" />
<path fill="#1a1c2c" opacity="1.00" d=" M 128.01 896.00 C 192.00 896.00 256.00 895.99 319.99 896.00 C 320.02 917.33 320.02 938.66 319.99 959.99 C 256.00 960.00 192.00 960.01 128.01 959.99 C 127.98 938.65 127.98 917.32 128.01 896.00 Z" />
<path fill="#1a1c2c" opacity="1.00" d=" M 512.01 896.00 C 576.00 896.00 640.00 896.00 703.99 896.00 C 704.02 917.33 704.01 938.66 703.99 959.99 C 640.00 960.00 576.00 960.01 512.01 959.99 C 511.98 938.66 511.98 917.33 512.01 896.00 Z" />
</g>
</svg>
