<?xml version="1.0" encoding="UTF-8" standalone="no"?>
<svg
   width="275.30362pt"
   height="286.7619pt"
   viewBox="0 0 275.30362 286.7619"
   version="1.1"
   id="svg4"
   sodipodi:docname="ubisoft.svg"
   inkscape:version="1.4.2 (ebf0e940d0, 2025-05-08)"
   xmlns:inkscape="http://www.inkscape.org/namespaces/inkscape"
   xmlns:sodipodi="http://sodipodi.sourceforge.net/DTD/sodipodi-0.dtd"
   xmlns="http://www.w3.org/2000/svg"
   xmlns:svg="http://www.w3.org/2000/svg">
  <defs
     id="defs4" />
  <sodipodi:namedview
     id="namedview4"
     pagecolor="#505050"
     bordercolor="#ffffff"
     borderopacity="1"
     inkscape:showpageshadow="0"
     inkscape:pageopacity="0"
     inkscape:pagecheckerboard="1"
     inkscape:deskcolor="#505050"
     inkscape:document-units="pt"
     inkscape:zoom="1.3718354"
     inkscape:cx="183.33103"
     inkscape:cy="86.380623"
     inkscape:window-width="1920"
     inkscape:window-height="1052"
     inkscape:window-x="0"
     inkscape:window-y="0"
     inkscape:window-maximized="1"
     inkscape:current-layer="svg4" />
  <g
     id="#ffffffff"
     transform="translate(-99.495649,-41.091397)">
    <path
       fill="#ffffff"
       opacity="1"
       d="m 177.21,78.18 c 17.69,-9.3 37.97,-13.6 57.9,-12.23 17.97,1.21 35.48,6.49 51.74,14.11 9.92,5.36 18.66,12.6 26.99,20.14 18.46,17.58 32.54,40.47 36.92,65.8 3.77,20.88 1.14,42.6 -6.02,62.48 -9.06,22.35 -24.18,42.53 -44.13,56.26 -18.51,12.71 -41.25,18.66 -63.6,17.75 -10.21,0.18 -20.19,-2.78 -29.43,-6.93 -19.99,-8.72 -36.66,-25.29 -44.39,-45.82 -4.52,-12.65 -7.96,-26.52 -4.76,-39.9 3.59,-16.49 14.73,-30.24 27.75,-40.47 0.81,-0.55 1.68,-0.99 2.61,-1.33 0,1.81 -0.22,3.71 -1.69,4.95 -9.83,10.06 -13.01,24.44 -14.69,37.93 -1.67,14.11 3.29,28.45 12.48,39.14 3.74,4.9 8.49,8.85 13.28,12.68 7.41,5.94 16.79,8.68 25.97,10.44 17.27,3.33 36.05,0.69 50.9,-9.06 25.13,-16.98 39.24,-47.94 37.9,-77.95 -0.96,-24.79 -13.21,-48.24 -30.91,-65.26 -23.36,-23.62 -58.71,-33.01 -91.09,-27.73 -15.1,2.93 -29.06,9.9 -42.17,17.73 -2.7,1.62 -5.58,3.06 -7.72,5.42 -1.7,1.62 -5.74,1.59 -5.39,-1.53 1.31,-3.7 4.85,-5.87 7.24,-8.81 9.26,-11.61 21.27,-20.83 34.31,-27.81 z"
       id="path1" />
    <path
       fill="#ffffff"
       opacity="1"
       d="m 171.45,125.44 c 10.62,-5.66 22.49,-8.95 34.52,-9.48 14.43,-0.59 28.83,2.99 41.91,8.99 9.29,4.52 17.43,11.2 24.37,18.81 6.23,7.14 12.16,14.96 15.07,24.09 0.48,2.22 1.94,5.94 -1.23,6.86 -1.54,-1.38 -3.11,-2.76 -4.29,-4.47 -2.43,-3.53 -5.77,-6.27 -8.9,-9.14 -4.96,-4.06 -9.74,-8.38 -15.15,-11.84 -16.2,-10.7 -36.33,-15.12 -55.52,-12.31 -21.31,3.72 -40.71,16.42 -53.41,33.83 -10.5,14.47 -15.42,32.51 -15.47,50.26 -0.08,3.51 0.24,7.14 -1.19,10.46 -0.85,-0.36 -1.69,-0.73 -2.54,-1.07 -2.88,-4.27 -4.15,-9.35 -4.92,-14.37 -1.25,-8.63 -1.54,-17.42 -0.83,-26.11 2.41,-11.26 5.99,-22.4 11.55,-32.53 2.3,-4.49 6.23,-7.75 9.32,-11.65 7.12,-8.81 16.73,-15.18 26.71,-20.33 z"
       id="path2" />
    <path
       fill="#ffffff"
       opacity="1"
       d="m 226.94,175.33 c 6.49,-1.5 13.33,-0.12 19.34,2.52 10.26,5.23 17.35,16.54 16.97,28.14 -0.61,7.11 -3.22,14.1 -7.69,19.7 -0.03,0.33 -0.09,0.99 -0.12,1.32 3.05,1.86 5.78,4.18 8.79,6.11 -4.16,6.36 -10.96,10.8 -17.88,13.76 -11.27,4.67 -24.54,1.92 -34.03,-5.39 -7.92,-5.38 -13.77,-14 -14.92,-23.6 -0.88,-8.75 0.37,-17.97 4.84,-25.64 6.19,-7.97 14.5,-15.08 24.7,-16.92 z"
       id="path3" />
  </g>
  <g
     id="#1e1e1cff"
     transform="translate(-99.495649,-41.091397)">
    <path
       fill="#1e1e1c"
       opacity="1"
       d="m 207.98,42.9 c 18.85,-2.94 38.24,-2.26 56.87,1.78 12.84,3.11 24.92,8.74 36.34,15.28 26.28,15.16 48.54,38.05 60.6,66.11 6.96,15.13 9.79,31.69 12.09,48.07 3.21,27.32 -2.03,55.59 -15.04,79.86 -8.58,16.19 -20.59,30.38 -34.42,42.31 -20.88,16.39 -46.12,27.52 -72.55,30.61 -33.57,4.21 -67.86,-6.11 -95.46,-25.17 -16.64,-12.8 -30.22,-29.41 -40.39,-47.73 -12.56,-22.67 -18.48,-49.1 -15.95,-74.94 1.48,-16.33 6.07,-32.29 12.73,-47.24 0.53,-1.18 0.85,-2.42 1.16,-3.66 -4.37,-2.05 -8.24,-5 -12.56,-7.15 11.15,-20.4 26.85,-38.26 45.45,-52.18 17.95,-13.3 39.03,-22.46 61.13,-25.95 m -30.77,35.28 c -13.04,6.98 -25.05,16.2 -34.31,27.81 -2.39,2.94 -5.93,5.11 -7.24,8.81 -0.35,3.12 3.69,3.15 5.39,1.53 2.14,-2.36 5.02,-3.8 7.72,-5.42 13.11,-7.83 27.07,-14.8 42.17,-17.73 32.38,-5.28 67.73,4.11 91.09,27.73 17.7,17.02 29.95,40.47 30.91,65.26 1.34,30.01 -12.77,60.97 -37.9,77.95 -14.85,9.75 -33.63,12.39 -50.9,9.06 -9.18,-1.76 -18.56,-4.5 -25.97,-10.44 -4.79,-3.83 -9.54,-7.78 -13.28,-12.68 -9.19,-10.69 -14.15,-25.03 -12.48,-39.14 1.68,-13.49 4.86,-27.87 14.69,-37.93 1.47,-1.24 1.69,-3.14 1.69,-4.95 -0.93,0.34 -1.8,0.78 -2.61,1.33 -13.02,10.23 -24.16,23.98 -27.75,40.47 -3.2,13.38 0.24,27.25 4.76,39.9 7.73,20.53 24.4,37.1 44.39,45.82 9.24,4.15 19.22,7.11 29.43,6.93 22.35,0.91 45.09,-5.04 63.6,-17.75 19.95,-13.73 35.07,-33.91 44.13,-56.26 7.16,-19.88 9.79,-41.6 6.02,-62.48 -4.38,-25.33 -18.46,-48.22 -36.92,-65.8 -8.33,-7.54 -17.07,-14.78 -26.99,-20.14 -16.26,-7.62 -33.77,-12.9 -51.74,-14.11 -19.93,-1.37 -40.21,2.93 -57.9,12.23 m -5.76,47.26 c -9.98,5.15 -19.59,11.52 -26.71,20.33 -3.09,3.9 -7.02,7.16 -9.32,11.65 -5.56,10.13 -9.14,21.27 -11.55,32.53 -0.71,8.69 -0.42,17.48 0.83,26.11 0.77,5.02 2.04,10.1 4.92,14.37 0.85,0.34 1.69,0.71 2.54,1.07 1.43,-3.32 1.11,-6.95 1.19,-10.46 0.05,-17.75 4.97,-35.79 15.47,-50.26 12.7,-17.41 32.1,-30.11 53.41,-33.83 19.19,-2.81 39.32,1.61 55.52,12.31 5.41,3.46 10.19,7.78 15.15,11.84 3.13,2.87 6.47,5.61 8.9,9.14 1.18,1.71 2.75,3.09 4.29,4.47 3.17,-0.92 1.71,-4.64 1.23,-6.86 -2.91,-9.13 -8.84,-16.95 -15.07,-24.09 -6.94,-7.61 -15.08,-14.29 -24.37,-18.81 -13.08,-6 -27.48,-9.58 -41.91,-8.99 -12.03,0.53 -23.9,3.82 -34.52,9.48 m 55.49,49.89 c -10.2,1.84 -18.51,8.95 -24.7,16.92 -4.47,7.67 -5.72,16.89 -4.84,25.64 1.15,9.6 7,18.22 14.92,23.6 9.49,7.31 22.76,10.06 34.03,5.39 6.92,-2.96 13.72,-7.4 17.88,-13.76 -3.01,-1.93 -5.74,-4.25 -8.79,-6.11 0.03,-0.33 0.09,-0.99 0.12,-1.32 4.47,-5.6 7.08,-12.59 7.69,-19.7 0.38,-11.6 -6.71,-22.91 -16.97,-28.14 -6.01,-2.64 -12.85,-4.02 -19.34,-2.52 z"
       id="path4"
       style="fill:#000000;fill-opacity:1" />
  </g>
</svg>
