<?xml version="1.0" encoding="UTF-8" ?>
<!DOCTYPE svg PUBLIC "-//W3C//DTD SVG 1.1//EN" "http://www.w3.org/Graphics/SVG/1.1/DTD/svg11.dtd">
<svg width="32pt" height="32pt" viewBox="0 0 32 32" version="1.1" xmlns="http://www.w3.org/2000/svg">
<g id="#ffffffff">
</g>
<g id="#00003cff">
<path fill="#00003c" opacity="1.00" d=" M 14.70 0.00 L 17.12 0.00 C 18.41 0.46 19.70 0.89 21.01 1.31 C 20.86 4.38 21.51 7.61 20.52 10.57 C 18.24 10.58 15.80 9.33 13.67 10.60 C 8.74 12.42 8.76 20.61 13.69 22.41 C 16.00 23.77 18.65 22.50 21.00 21.98 C 21.00 24.88 21.00 27.78 21.00 30.68 C 19.73 31.10 18.47 31.54 17.21 32.00 L 14.76 32.00 C 11.18 31.02 7.60 29.74 4.83 27.17 C 2.58 24.61 1.16 21.47 0.00 18.30 L 0.00 13.79 C 1.13 10.58 2.56 7.41 4.83 4.83 C 7.58 2.28 11.14 1.00 14.70 0.00 M 2.17 20.83 C 4.47 27.90 12.87 32.41 19.95 29.96 C 19.98 27.91 19.99 25.86 20.00 23.81 C 17.58 23.94 14.93 24.54 12.75 23.12 C 8.43 20.91 7.55 14.42 11.11 11.11 C 13.39 8.61 16.94 8.79 20.00 9.20 C 19.99 6.81 19.98 4.43 19.96 2.04 C 9.40 -1.88 -2.56 10.51 2.17 20.83 Z" />
</g>
<g id="#0000ffff">
<path fill="#0000ff" opacity="1.00" d=" M 2.17 20.83 C -2.56 10.51 9.40 -1.88 19.96 2.04 C 19.98 4.43 19.99 6.81 20.00 9.20 C 16.94 8.79 13.39 8.61 11.11 11.11 C 7.55 14.42 8.43 20.91 12.75 23.12 C 14.93 24.54 17.58 23.94 20.00 23.81 C 19.99 25.86 19.98 27.91 19.95 29.96 C 12.87 32.41 4.47 27.90 2.17 20.83 Z" />
<path fill="#0000ff" opacity="1.00" d=" M 22.00 12.00 C 24.74 11.99 27.47 12.02 30.21 12.15 C 28.42 15.14 25.13 15.19 22.03 15.06 C 22.02 14.29 22.01 12.76 22.00 12.00 Z" />
</g>
<g id="#00001cff">
<path fill="#00001c" opacity="1.00" d=" M 21.20 11.18 C 24.78 10.75 28.40 11.07 32.00 10.98 L 32.00 11.58 C 30.57 13.06 29.15 14.57 27.53 15.85 C 25.32 16.15 23.09 15.98 20.87 15.99 C 20.96 14.39 20.93 12.77 21.20 11.18 M 22.00 12.00 C 22.01 12.76 22.02 14.29 22.03 15.06 C 25.13 15.19 28.42 15.14 30.21 12.15 C 27.47 12.02 24.74 11.99 22.00 12.00 Z" />
</g>
<g id="#1c0000ff">
<path fill="#1c0000" opacity="1.00" d=" M 21.00 16.98 C 23.17 17.01 25.36 16.86 27.52 17.15 C 29.14 18.43 30.56 19.93 32.00 21.40 L 32.00 22.04 C 28.33 21.98 24.67 22.02 21.00 21.98 C 21.00 20.31 21.00 18.65 21.00 16.98 M 22.03 17.94 C 22.02 18.71 22.01 20.24 22.00 21.00 C 24.74 21.01 27.47 20.98 30.21 20.85 C 28.42 17.86 25.13 17.81 22.03 17.94 Z" />
</g>
<g id="#ff0000ff">
<path fill="#ff0000" opacity="1.00" d=" M 22.03 17.94 C 25.13 17.81 28.42 17.86 30.21 20.85 C 27.47 20.98 24.74 21.01 22.00 21.00 C 22.01 20.24 22.02 18.71 22.03 17.94 Z" />
</g>
</svg>
