<?xml version="1.0" encoding="UTF-8" ?>
<!DOCTYPE svg PUBLIC "-//W3C//DTD SVG 1.1//EN" "http://www.w3.org/Graphics/SVG/1.1/DTD/svg11.dtd">
<svg width="224pt" height="224pt" viewBox="0 0 224 224" version="1.1" xmlns="http://www.w3.org/2000/svg">
<g id="#000000ff">
</g>
<g id="#0074beff">
<path fill="#0074be" opacity="1.00" d=" M 2.07 66.05 C 3.49 63.66 7.61 63.40 8.91 66.04 C 9.51 72.40 8.99 78.80 9.15 85.17 C 10.74 85.28 12.34 85.37 13.93 85.44 C 14.05 81.78 13.18 77.41 16.78 75.08 C 16.87 71.65 16.87 68.21 16.88 64.78 C 18.34 64.54 20.01 63.51 21.08 65.12 C 21.91 69.32 21.63 73.67 21.43 77.92 C 21.41 79.46 19.89 80.35 19.15 81.56 C 18.92 83.89 19.28 86.38 18.41 88.59 C 17.08 90.77 14.13 89.92 12.01 90.18 C 9.68 89.95 6.84 90.70 4.99 88.89 C 4.33 86.52 4.44 84.03 4.33 81.59 C 3.52 80.43 1.97 79.58 1.93 78.03 C 1.66 74.05 1.60 70.02 2.07 66.05 M 3.74 66.01 C 3.32 70.25 3.32 74.51 3.56 78.76 C 4.16 79.12 5.38 79.85 5.98 80.22 C 6.02 82.85 6.07 85.48 6.15 88.11 C 9.73 88.62 13.36 88.66 16.96 88.29 C 17.21 84.80 16.27 80.43 19.84 78.30 C 20.03 74.21 20.02 70.11 19.95 66.01 L 18.48 66.00 C 18.50 69.58 18.47 73.16 18.12 76.72 C 17.58 77.04 16.51 77.69 15.97 78.02 C 15.75 80.72 16.43 83.70 15.21 86.20 C 13.40 87.61 10.74 86.83 8.59 87.21 C 6.38 80.37 8.29 73.05 7.25 66.02 C 6.37 66.02 4.61 66.01 3.74 66.01 Z" />
<path fill="#0074be" opacity="1.00" d=" M 22.99 65.26 C 23.57 64.83 24.71 63.96 25.29 63.53 C 29.48 66.38 25.41 72.66 29.98 75.32 C 30.00 79.23 30.14 83.15 29.99 87.07 C 30.37 91.23 22.52 91.22 22.93 87.04 C 22.73 79.79 23.06 72.52 22.99 65.26 M 24.42 68.98 C 24.45 75.37 24.53 81.75 24.45 88.14 C 25.71 88.28 26.96 88.24 28.19 88.04 C 28.62 84.06 28.37 80.05 28.43 76.06 C 27.62 75.37 26.80 74.68 25.99 73.99 C 25.98 71.09 25.96 68.19 25.69 65.31 C 24.68 66.29 24.29 67.60 24.42 68.98 Z" />
<path fill="#0074be" opacity="1.00" d=" M 31.76 64.82 C 36.68 63.98 41.75 63.81 46.70 64.43 C 50.32 65.51 48.69 70.09 49.11 72.86 C 49.97 73.91 51.46 74.67 51.63 76.14 C 52.02 79.95 51.98 83.82 51.58 87.64 C 51.45 88.63 51.31 89.62 51.16 90.60 C 49.71 90.12 48.27 89.63 46.84 89.09 C 46.98 85.59 47.00 82.09 46.99 78.59 C 44.31 78.42 41.63 78.35 38.94 78.33 C 38.69 81.62 38.96 84.99 38.28 88.24 C 37.62 90.54 34.89 90.17 33.04 89.95 C 30.62 88.49 31.34 85.34 31.18 82.98 C 31.36 76.93 30.73 70.82 31.76 64.82 M 33.10 66.09 C 32.92 73.35 33.04 80.61 33.00 87.88 C 33.51 88.06 34.52 88.44 35.03 88.63 C 35.51 88.41 36.47 87.98 36.95 87.76 C 36.94 84.13 36.64 80.43 37.74 76.91 C 41.00 77.07 44.50 76.27 47.61 77.39 C 49.98 80.93 47.59 85.72 49.68 89.48 C 50.08 85.32 50.14 81.11 49.87 76.93 C 49.57 75.35 47.95 74.44 47.58 72.89 C 47.21 70.62 47.21 68.31 47.05 66.03 C 42.40 65.94 37.75 65.95 33.10 66.09 Z" />
<path fill="#0074be" opacity="1.00" d=" M 51.83 66.86 C 52.07 65.40 53.37 64.17 54.90 64.27 C 59.63 64.06 64.39 64.04 69.13 64.28 C 70.67 64.16 72.64 65.98 71.54 67.50 C 70.01 69.99 66.48 68.67 64.05 69.16 C 64.06 70.41 64.07 71.66 64.09 72.91 C 65.09 74.12 66.76 75.09 66.65 76.87 C 66.86 80.43 67.00 84.05 66.47 87.59 C 66.10 91.23 59.68 91.03 59.42 87.42 C 59.39 87.17 59.34 86.67 59.32 86.42 C 59.10 80.66 59.46 74.88 59.11 69.12 C 56.60 68.81 53.05 69.84 51.83 66.86 M 53.15 66.30 C 55.56 67.60 59.27 66.56 60.86 69.10 C 61.30 74.84 60.81 80.61 61.06 86.37 L 61.07 87.10 C 61.65 87.69 62.22 88.27 62.80 88.85 C 63.34 88.59 64.41 88.05 64.94 87.79 C 65.00 83.90 65.02 80.00 64.92 76.11 C 62.22 74.34 61.50 70.84 63.02 68.03 C 65.21 67.07 67.67 67.31 70.00 67.08 L 70.00 66.00 C 64.38 66.04 58.74 65.66 53.15 66.30 Z" />
<path fill="#0074be" opacity="1.00" d=" M 72.82 66.04 C 72.82 63.71 75.69 64.14 77.15 64.73 C 77.17 67.38 77.20 70.04 77.28 72.69 C 81.52 75.53 79.63 80.99 80.01 85.23 C 82.35 85.31 84.71 85.39 87.05 85.17 C 88.47 78.60 86.74 71.71 87.90 65.07 C 89.06 63.74 90.71 64.33 92.14 64.73 C 92.12 72.49 92.28 80.27 91.94 88.01 C 92.04 89.46 90.18 89.92 89.06 89.99 C 83.65 90.16 78.11 90.59 72.80 89.28 C 72.56 81.54 72.35 73.77 72.82 66.04 M 74.13 66.00 C 74.17 73.36 74.22 80.71 74.22 88.06 C 79.63 88.78 85.13 88.80 90.54 88.04 C 90.59 81.68 90.63 75.32 90.62 68.96 C 90.72 67.58 90.37 66.25 89.29 65.32 C 88.70 72.13 89.54 78.98 88.85 85.78 C 87.79 87.44 85.65 86.95 83.99 87.10 C 82.19 86.94 79.65 87.56 78.62 85.60 C 77.52 82.14 79.18 78.04 76.98 74.91 C 74.91 72.40 75.82 68.97 75.61 66.00 L 74.13 66.00 Z" />
<path fill="#0074be" opacity="1.00" d=" M 97.07 65.11 C 100.71 63.41 105.03 64.15 108.92 64.41 C 112.47 65.45 111.00 70.10 111.49 72.83 C 112.52 74.06 114.20 75.10 113.97 76.94 C 114.07 80.90 114.22 84.88 113.83 88.83 C 113.20 90.50 111.10 90.00 109.75 90.44 C 109.14 86.42 109.10 82.35 108.97 78.30 C 106.36 78.24 103.75 78.24 101.14 78.29 C 100.84 82.35 101.85 86.86 99.24 90.36 C 97.08 90.04 93.31 90.17 93.66 86.98 C 93.65 82.37 92.29 77.04 95.47 73.16 C 96.53 70.62 95.55 67.51 97.07 65.11 M 98.10 66.07 C 98.03 68.36 98.10 70.67 97.78 72.94 C 97.14 74.76 94.88 75.82 95.11 77.96 C 94.95 81.33 95.09 84.70 95.17 88.06 C 96.45 88.17 97.73 88.27 99.01 88.35 C 99.09 84.54 99.08 80.71 99.82 76.95 C 103.27 76.81 106.73 76.76 110.19 76.85 C 111.53 80.98 110.44 85.41 111.72 89.54 C 112.20 85.18 112.69 80.61 111.77 76.31 C 109.44 73.35 109.73 69.53 109.38 65.98 C 105.62 65.92 101.86 65.98 98.10 66.07 Z" />
<path fill="#0074be" opacity="1.00" d=" M 115.15 66.83 C 115.10 65.35 116.46 64.05 117.88 63.94 C 121.23 65.61 119.59 70.01 120.09 72.99 C 123.86 75.77 122.08 80.77 122.69 84.72 C 125.44 86.65 130.88 83.73 131.89 87.96 C 131.43 89.38 130.48 90.07 129.02 90.03 C 124.90 90.29 120.77 90.03 116.65 90.11 C 115.79 88.54 114.89 86.90 115.07 85.04 C 115.10 78.97 114.93 72.89 115.15 66.83 M 117.00 65.94 C 116.98 73.37 116.92 80.80 117.02 88.23 C 121.48 88.16 126.65 89.88 130.63 87.28 C 127.60 86.49 123.56 88.18 121.19 85.81 C 120.65 82.64 120.95 79.41 120.86 76.22 C 117.19 74.03 118.20 69.56 118.01 65.98 L 117.00 65.94 Z" />
<path fill="#0074be" opacity="1.00" d=" M 35.01 68.01 C 37.94 66.79 41.34 67.04 44.38 67.62 C 47.20 69.11 45.79 72.74 45.30 75.16 C 41.95 75.21 38.53 75.62 35.22 74.88 C 33.82 72.88 33.89 70.12 35.01 68.01 M 36.08 69.05 C 36.05 70.58 36.03 72.12 36.02 73.65 C 38.72 73.76 41.42 73.80 44.12 73.79 C 44.13 72.19 44.13 70.60 44.11 69.01 C 41.43 69.00 38.76 69.01 36.08 69.05 Z" />
<path fill="#0074be" opacity="1.00" d=" M 100.01 67.98 C 102.41 66.93 105.45 66.81 107.76 68.18 C 108.16 70.34 109.06 73.45 106.97 74.99 C 104.58 75.34 102.16 75.19 99.76 75.17 C 99.41 72.80 98.56 70.17 100.01 67.98 M 101.02 68.98 C 101.05 70.61 101.08 72.25 101.13 73.88 C 102.92 73.52 105.42 74.51 106.67 72.81 C 106.73 71.64 106.70 70.47 106.55 69.31 C 104.72 69.02 102.87 68.99 101.02 68.98 Z" />
</g>
<g id="#940000ff">
<path fill="#940000" opacity="1.00" d=" M 51.58 87.64 C 54.16 87.25 56.74 86.84 59.32 86.42 C 59.34 86.67 59.39 87.17 59.42 87.42 C 57.99 87.59 56.57 87.75 55.14 87.92 C 55.29 88.70 55.58 90.27 55.73 91.05 C 50.99 93.18 46.18 95.20 41.67 97.82 C 38.41 110.62 35.79 124.49 26.66 134.63 C 23.51 138.24 19.10 142.01 13.93 141.04 C 9.00 139.87 3.52 137.62 1.60 132.50 C 5.30 134.59 8.80 139.05 13.52 137.46 C 19.32 135.49 22.93 130.00 25.76 124.88 C 29.90 116.70 31.76 107.63 34.00 98.80 C 28.64 99.24 23.31 99.92 17.97 100.51 C 17.12 98.82 16.31 97.12 15.50 95.42 C 16.08 95.40 17.24 95.37 17.82 95.35 C 17.44 94.54 17.05 93.72 16.67 92.91 C 26.89 93.17 36.78 90.32 46.84 89.09 C 48.27 89.63 49.71 90.12 51.16 90.60 C 51.31 89.62 51.45 88.63 51.58 87.64 Z" />
<path fill="#940000" opacity="1.00" d=" M 61.06 86.37 C 61.48 86.22 62.32 85.94 62.74 85.80 C 64.67 86.53 62.00 88.21 61.07 87.10 L 61.06 86.37 Z" />
<path fill="#940000" opacity="1.00" d=" M 98.94 101.97 C 100.92 97.81 102.30 92.84 106.86 90.75 C 107.62 92.50 108.39 94.26 109.17 96.01 C 106.31 100.98 104.00 106.23 101.33 111.30 C 98.79 116.02 96.17 120.90 95.85 126.38 C 100.29 125.18 103.37 121.61 106.53 118.52 C 109.28 115.97 109.75 112.07 110.86 108.68 C 112.16 103.82 114.59 99.37 117.25 95.12 C 118.78 95.31 120.31 95.50 121.84 95.68 C 122.24 97.12 122.65 98.56 123.07 99.99 C 118.89 107.59 115.44 115.59 112.76 123.84 C 112.01 125.44 113.59 126.78 114.12 128.18 C 116.09 125.81 117.95 123.36 119.79 120.90 C 119.07 120.70 117.61 120.30 116.88 120.10 C 119.25 117.70 122.29 116.02 124.43 113.39 C 128.75 107.15 133.19 100.85 139.00 95.88 C 139.23 94.84 139.47 93.80 139.71 92.76 C 141.77 93.55 143.84 94.32 145.91 95.09 C 142.74 108.99 143.82 123.41 141.22 137.37 C 138.97 129.34 136.77 121.17 137.60 112.74 C 133.82 114.02 130.11 115.61 126.84 117.93 C 124.57 120.15 123.57 123.29 122.00 126.00 C 119.82 130.33 116.55 133.96 113.89 137.99 C 111.71 138.94 109.54 139.88 107.33 140.77 C 108.81 137.28 110.58 133.93 112.67 130.78 C 110.59 130.79 108.12 132.25 106.26 130.80 C 104.87 127.88 106.07 124.63 106.39 121.64 C 102.80 124.75 99.71 130.86 94.04 129.21 C 91.78 127.25 92.19 123.79 92.45 121.12 C 93.77 114.49 96.11 108.09 98.94 101.97 M 130.62 110.42 C 132.61 109.54 134.59 108.62 136.58 107.72 C 137.02 105.72 137.45 103.71 137.80 101.69 C 134.35 103.58 132.49 107.13 130.62 110.42 Z" />
<path fill="#940000" opacity="1.00" d=" M 145.96 103.16 C 151.87 95.56 162.09 94.08 170.97 92.49 C 177.35 91.00 185.15 96.05 184.64 103.00 C 184.21 108.95 178.64 112.29 174.11 115.14 C 182.84 125.83 194.29 133.75 204.12 143.31 C 201.40 142.01 198.95 140.25 196.71 138.25 C 190.88 133.05 184.14 128.89 178.88 123.05 C 175.87 119.66 172.01 117.17 167.92 115.28 C 177.34 126.45 190.07 134.27 199.92 145.04 C 194.00 140.71 187.91 136.51 182.71 131.29 C 179.39 127.87 175.09 125.60 171.95 121.99 C 169.45 119.17 166.23 117.17 163.44 114.66 C 164.92 114.22 166.41 113.78 167.90 113.36 C 167.13 112.57 165.59 110.99 164.82 110.21 C 166.17 110.45 167.43 110.98 168.67 111.57 C 169.20 111.66 170.28 111.85 170.82 111.94 C 172.80 109.44 174.53 106.74 175.94 103.87 C 172.91 101.35 168.91 99.91 165.21 101.96 C 158.05 109.96 156.85 120.89 154.67 130.95 C 154.13 131.09 153.05 131.38 152.51 131.53 C 151.64 133.61 150.75 135.69 149.86 137.76 C 149.35 137.97 148.32 138.39 147.81 138.60 C 147.08 139.89 146.35 141.17 145.60 142.44 C 145.36 140.55 144.81 138.57 145.70 136.75 C 149.80 126.27 152.47 115.32 156.57 104.84 C 155.00 105.52 153.44 106.22 151.88 106.91 C 149.90 105.67 147.92 104.43 145.96 103.16 Z" />
<path fill="#940000" opacity="1.00" d=" M 55.38 95.17 C 58.05 94.45 60.69 93.57 63.30 92.64 C 64.03 95.03 65.06 97.44 64.73 100.01 C 63.87 110.39 63.20 120.84 63.96 131.25 C 63.37 131.25 62.18 131.24 61.59 131.24 C 61.50 131.58 61.31 132.27 61.21 132.61 C 60.22 131.55 59.28 130.44 58.35 129.33 C 57.67 124.57 57.64 119.75 57.54 114.95 C 53.38 116.02 47.86 116.42 45.92 120.91 C 43.45 125.70 41.52 130.75 39.35 135.68 C 38.69 135.50 38.04 135.33 37.38 135.15 C 36.01 136.86 34.44 138.40 32.67 139.69 C 34.48 132.61 39.15 126.74 41.64 119.96 C 41.37 119.42 40.83 118.35 40.56 117.81 C 45.20 116.67 45.72 111.50 48.00 108.07 C 50.61 103.86 52.86 99.44 55.38 95.17 M 49.54 114.70 C 52.22 113.23 54.89 111.73 57.54 110.19 C 57.44 107.57 57.33 104.96 57.10 102.35 C 53.31 105.56 51.70 110.40 49.54 114.70 Z" />
<path fill="#940000" opacity="1.00" d=" M 69.86 104.95 C 72.88 100.11 76.89 94.98 82.96 94.20 C 86.27 93.40 87.83 97.25 89.82 99.12 C 82.18 101.27 73.77 105.68 71.69 114.00 C 70.05 119.91 73.97 126.39 79.90 127.75 C 82.05 128.38 83.90 126.93 85.69 125.98 C 84.49 122.42 85.25 118.76 86.37 115.30 C 83.18 115.44 80.13 116.33 77.17 117.49 C 80.23 113.27 85.45 112.06 89.70 109.50 C 90.66 109.95 91.63 110.40 92.60 110.85 C 90.91 117.48 88.90 124.23 90.14 131.14 C 88.87 129.96 87.59 128.79 86.31 127.62 C 84.47 129.29 82.74 131.61 79.99 131.57 C 74.11 131.35 68.44 126.96 67.27 121.11 C 66.19 115.66 66.75 109.67 69.86 104.95 Z" />
<path fill="#940000" opacity="1.00" d=" M 160.50 115.63 C 166.70 117.39 170.31 123.00 174.81 127.14 C 178.29 130.35 181.46 133.99 185.61 136.40 C 189.32 138.67 192.33 141.87 195.15 145.15 C 192.59 143.70 190.11 142.10 187.90 140.16 C 181.69 134.69 174.53 130.28 169.09 123.97 C 166.93 121.32 163.99 119.58 161.09 117.88 C 160.94 117.32 160.65 116.19 160.50 115.63 Z" />
<path fill="#940000" opacity="1.00" d=" M 159.55 120.28 C 162.30 120.80 165.10 121.83 166.97 124.04 C 173.92 133.73 183.72 140.78 192.96 148.11 C 198.12 152.70 204.23 156.10 209.14 161.00 C 199.15 153.61 188.81 146.67 179.31 138.63 C 171.82 133.50 166.81 125.68 159.55 120.28 Z" />
<path fill="#940000" opacity="1.00" d=" M 205.43 144.32 C 206.82 143.82 209.11 145.42 208.64 146.96 C 207.26 147.52 205.15 145.75 205.43 144.32 Z" />
<path fill="#940000" opacity="1.00" d=" M 199.95 148.83 C 203.32 150.08 206.03 152.48 208.22 155.29 C 205.25 153.41 202.44 151.29 199.95 148.83 Z" />
</g>
</svg>
