<?xml version="1.0" encoding="UTF-8" standalone="no"?>
<svg
   width="190.89433pt"
   height="313.60605pt"
   viewBox="0 0 190.89433 313.60605"
   version="1.1"
   id="svg3"
   sodipodi:docname="clipboard.svg"
   inkscape:version="1.4.2 (ebf0e940d0, 2025-05-08)"
   xmlns:inkscape="http://www.inkscape.org/namespaces/inkscape"
   xmlns:sodipodi="http://sodipodi.sourceforge.net/DTD/sodipodi-0.dtd"
   xmlns="http://www.w3.org/2000/svg"
   xmlns:svg="http://www.w3.org/2000/svg">
  <defs
     id="defs3" />
  <sodipodi:namedview
     id="namedview3"
     pagecolor="#505050"
     bordercolor="#ffffff"
     borderopacity="1"
     inkscape:showpageshadow="0"
     inkscape:pageopacity="0"
     inkscape:pagecheckerboard="1"
     inkscape:deskcolor="#505050"
     inkscape:document-units="pt"
     inkscape:zoom="1.9991138"
     inkscape:cx="240.3565"
     inkscape:cy="187.83322"
     inkscape:window-width="1920"
     inkscape:window-height="1052"
     inkscape:window-x="0"
     inkscape:window-y="0"
     inkscape:window-maximized="1"
     inkscape:current-layer="svg3" />
  <g
     id="#ffffffff"
     transform="translate(-173.5,-76.69)">
    <path
       fill="#ffffff"
       opacity="1"
       d="m 266.71,90.02 c 0.99,-4.02 5.73,-5 9.27,-5.51 15.4,-1.47 30.88,1.98 45.25,7.35 8.98,3.76 18.04,7.53 26.23,12.87 3.33,2.19 6.57,4.71 8.79,8.07 0.62,2.81 -0.29,5.62 -0.87,8.36 -1.44,5.72 -3.12,11.4 -5.12,16.96 -1.08,2.61 -2.06,5.27 -3.05,7.93 -0.41,1.07 -0.8,2.15 -1.18,3.23 -0.27,0.08 -0.79,0.22 -1.06,0.29 -5.25,-5.41 -13.63,-4.5 -19.83,-1.41 -6.19,2.69 -12.08,5.98 -18.27,8.66 -8.52,3.46 -18.18,5.66 -27.18,2.64 -10.23,-2.87 -18.38,-10.16 -25.59,-17.64 -0.71,-1.16 -1.4,-2.42 -0.75,-3.8 1.71,-7.36 3.92,-14.58 5.8,-21.89 2.44,-8.73 4.89,-17.45 7.56,-26.11 z"
       id="path1" />
  </g>
  <g
     id="#010101ff"
     transform="translate(-173.5,-76.69)">
    <path
       fill="#010101"
       opacity="1"
       d="m 262.64,81.66 c 5.26,-4.6 12.7,-4.86 19.33,-4.97 13.62,0.35 27.14,3.09 40.11,7.18 1.27,0.45 2.55,0.88 3.83,1.34 12.55,4.53 25.15,10.58 34.14,20.73 2.07,2.66 4.72,5.52 4.3,9.16 -3.87,16.02 -9.81,31.45 -15.22,46.99 -0.44,1.3 -0.86,2.61 -1.3,3.91 -0.53,1.43 -1.07,2.86 -1.56,4.3 -4.3,12.31 -8.35,24.71 -13.09,36.85 -6.38,16.25 -14.73,31.78 -25.43,45.61 -5.08,6.6 -11.49,12.08 -18.52,16.52 -5.21,3.04 -10.56,5.88 -15.46,9.42 -3,2.36 -5.69,5.07 -8.12,8 -2.58,3.91 -5.02,7.92 -6.86,12.23 -5.53,14.28 -10.29,29.64 -8.1,45.13 0.49,1.33 0.96,2.67 1.44,4.02 3.44,6.19 8.19,12.15 14.84,15.05 7.52,3.79 14.77,8.32 20.98,14.05 2.05,2.19 4.33,4.81 4.38,7.95 -1.11,3.67 -5.4,4.55 -8.72,4.99 -7.62,0.65 -15.23,-0.61 -22.71,-1.98 -10.93,-2.02 -21.55,-5.4 -32.08,-8.92 -6.72,-2.54 -13.44,-5.08 -19.97,-8.11 -0.5,-0.24 -1.5,-0.71 -2,-0.94 -2.92,-1.47 -5.88,-2.88 -8.8,-4.35 -7.09,-3.94 -14.19,-8.12 -20.06,-13.8 -2.12,-1.93 -3.37,-4.57 -4.49,-7.16 0.77,-1.47 1.69,-2.85 2.74,-4.12 6.74,-1.8 13.82,-1.73 20.68,-0.66 5.11,0.36 10.12,1.49 15.09,2.68 2.85,0.71 5.56,-0.71 8.25,-1.42 5.54,-2.52 9.7,-7.15 13,-12.14 1.35,-2.36 2.63,-4.75 3.97,-7.11 5.94,-13.35 11.79,-27.62 10.47,-42.55 -0.78,-12.3 -9.39,-22.05 -12.61,-33.63 -1.6,-5.55 -3.07,-11.17 -3.51,-16.95 -1.02,-14.67 -0.41,-29.53 2.87,-43.91 4.98,-23.1 10.57,-46.08 16.69,-68.91 2.01,-7.5 4.19,-14.97 6.61,-22.35 0.44,-1.25 0.87,-2.52 1.3,-3.78 1.03,-2.85 2.31,-5.6 3.59,-8.35 m 4.07,8.36 c -2.67,8.66 -5.12,17.38 -7.56,26.11 -1.88,7.31 -4.09,14.53 -5.8,21.89 -0.65,1.38 0.04,2.64 0.75,3.8 7.21,7.48 15.36,14.77 25.59,17.64 9,3.02 18.66,0.82 27.18,-2.64 6.19,-2.68 12.08,-5.97 18.27,-8.66 6.2,-3.09 14.58,-4 19.83,1.41 0.27,-0.07 0.79,-0.21 1.06,-0.29 0.38,-1.08 0.77,-2.16 1.18,-3.23 0.99,-2.66 1.97,-5.32 3.05,-7.93 2,-5.56 3.68,-11.24 5.12,-16.96 0.58,-2.74 1.49,-5.55 0.87,-8.36 -2.22,-3.36 -5.46,-5.88 -8.79,-8.07 -8.19,-5.34 -17.25,-9.11 -26.23,-12.87 -14.37,-5.37 -29.85,-8.82 -45.25,-7.35 -3.54,0.51 -8.28,1.49 -9.27,5.51 m -15.91,59.27 c -5.03,14.19 -8.45,28.89 -10.84,43.74 -1.51,12.36 -2.97,24.87 -1.43,37.31 0.98,11.09 3.89,23.01 12.33,30.88 4.46,4.67 10.79,7.16 17.09,8.05 8.56,0.37 16.76,-3.66 23.05,-9.23 10.49,-9.15 18.01,-21.12 24.58,-33.25 11.11,-20.85 19.37,-43.1 26.4,-65.62 0.4,-1.82 1.58,-4.39 -0.34,-5.75 C 337,151.16 330,152.73 324.8,155 c -11.94,5.77 -24.07,12.84 -37.75,12.71 -13.65,-0.32 -25.6,-8.49 -34.55,-18.21 -0.42,-0.06 -1.28,-0.16 -1.7,-0.21 z"
       id="path2" />
  </g>
  <g
     id="#992b2aff"
     transform="translate(-173.5,-76.69)">
    <path
       fill="#992b2a"
       opacity="1"
       d="m 250.8,149.29 c 0.42,0.05 1.28,0.15 1.7,0.21 8.95,9.72 20.9,17.89 34.55,18.21 13.68,0.13 25.81,-6.94 37.75,-12.71 5.2,-2.27 12.2,-3.84 16.84,0.42 1.92,1.36 0.74,3.93 0.34,5.75 -7.03,22.52 -15.29,44.77 -26.4,65.62 -6.57,12.13 -14.09,24.1 -24.58,33.25 -6.29,5.57 -14.49,9.6 -23.05,9.23 -6.3,-0.89 -12.63,-3.38 -17.09,-8.05 -8.44,-7.87 -11.35,-19.79 -12.33,-30.88 -1.54,-12.44 -0.08,-24.95 1.43,-37.31 2.39,-14.85 5.81,-29.55 10.84,-43.74 z"
       id="path3" />
  </g>
</svg>
