<?xml version="1.0" encoding="UTF-8" ?>
<!DOCTYPE svg PUBLIC "-//W3C//DTD SVG 1.1//EN" "http://www.w3.org/Graphics/SVG/1.1/DTD/svg11.dtd">
<svg width="256pt" height="256pt" viewBox="0 0 256 256" version="1.1" xmlns="http://www.w3.org/2000/svg">
<g id="#81dc8aff">
<path fill="#81dc8a" opacity="1.00" d=" M 112.60 8.88 C 129.35 7.14 146.53 8.12 162.66 13.21 C 194.21 22.64 221.28 45.78 235.72 75.35 C 251.80 107.61 252.18 147.13 236.71 179.68 C 225.42 203.86 205.84 224.06 182.02 236.09 C 163.90 245.33 143.37 249.81 123.06 249.02 C 94.38 248.08 66.21 236.37 45.34 216.68 C 23.43 196.46 9.51 167.78 7.36 138.03 C 6.79 126.95 6.98 115.76 9.28 104.87 C 14.77 77.02 30.57 51.43 52.87 33.90 C 70.00 20.31 90.91 11.59 112.60 8.88 M 112.06 10.08 C 82.62 13.83 54.83 29.11 35.89 51.96 C 17.97 73.30 7.72 101.12 8.19 129.04 C 7.96 154.46 16.64 179.73 31.85 200.04 C 48.47 222.37 73.12 238.57 100.25 244.85 C 109.02 247.11 118.07 247.60 127.06 248.23 C 129.39 248.29 131.71 247.93 134.03 247.75 C 159.55 246.60 184.51 236.63 204.05 220.23 C 225.90 202.11 240.90 175.94 245.40 147.90 C 249.62 121.49 245.05 93.65 231.82 70.32 C 216.65 42.95 190.30 22.06 160.16 13.62 C 144.59 9.08 128.11 8.24 112.06 10.08 Z" />
<path fill="#81dc8a" opacity="1.00" d=" M 114.49 18.82 C 134.84 16.61 155.84 19.64 174.37 28.48 C 199.40 40.12 219.67 61.53 229.96 87.14 C 240.62 113.40 240.62 143.82 229.91 170.06 C 220.65 193.02 203.37 212.62 181.81 224.76 C 164.05 234.86 143.41 239.82 123.00 238.84 C 95.55 237.99 68.66 226.09 49.39 206.56 C 28.95 186.35 16.92 157.77 17.16 128.99 C 16.75 103.66 25.84 78.41 41.85 58.82 C 59.68 36.75 86.30 22.09 114.49 18.82 M 111.47 23.73 C 83.91 27.85 58.30 43.40 41.94 65.96 C 25.99 87.57 18.81 115.42 22.37 142.04 C 25.22 165.35 36.29 187.48 52.99 203.96 C 72.19 223.03 98.91 234.33 126.00 234.54 C 149.08 235.00 172.20 227.51 190.69 213.71 C 209.76 199.63 223.86 178.95 229.94 156.04 C 236.15 133.06 234.31 108.00 224.74 86.20 C 215.65 65.24 199.58 47.40 179.66 36.21 C 159.19 24.55 134.74 20.12 111.47 23.73 Z" />
<path fill="#81dc8a" opacity="1.00" d=" M 58.83 111.39 C 61.44 111.34 64.04 111.33 66.65 111.33 C 69.82 114.82 72.05 119.17 75.67 122.23 C 78.18 118.58 80.77 114.99 83.32 111.37 C 85.88 111.33 88.44 111.33 91.00 111.39 C 87.48 116.71 83.37 121.65 80.07 127.11 C 83.56 133.49 88.88 138.95 91.95 145.69 C 89.36 145.74 86.76 145.74 84.16 145.73 C 81.58 141.39 79.05 136.95 75.70 133.15 L 74.94 133.04 C 71.38 136.86 68.51 141.27 65.75 145.68 C 63.25 145.81 60.75 145.75 58.27 145.52 C 61.86 139.30 66.35 133.68 70.68 127.98 L 70.70 127.37 C 66.92 121.92 62.53 116.90 58.83 111.39 Z" />
<path fill="#81dc8a" opacity="1.00" d=" M 101.85 113.88 C 107.63 109.29 117.09 109.13 122.31 114.67 C 126.22 118.94 126.40 125.05 126.50 130.51 C 118.49 130.86 110.46 130.54 102.44 130.67 C 103.01 133.55 103.95 136.74 106.65 138.34 C 111.73 141.30 117.94 140.19 123.25 138.49 C 123.44 140.54 124.04 142.62 123.69 144.67 C 115.42 147.97 103.86 147.64 98.41 139.58 C 93.51 131.74 94.33 119.84 101.85 113.88 M 102.87 124.65 C 108.26 124.71 113.65 124.68 119.03 124.69 C 119.13 121.35 117.32 117.94 113.97 116.97 C 108.87 115.27 103.41 119.52 102.87 124.65 Z" />
<path fill="#81dc8a" opacity="1.00" d=" M 131.43 112.37 C 136.00 110.71 141.34 109.48 145.83 112.04 C 148.29 113.53 150.46 110.27 153.03 110.57 C 158.28 109.98 162.86 114.82 162.78 119.93 C 162.97 128.53 162.82 137.15 162.84 145.76 C 160.70 145.74 158.57 145.73 156.44 145.72 C 156.36 137.11 156.63 128.50 156.32 119.91 C 156.10 116.78 152.35 115.54 150.17 117.73 C 150.66 122.74 150.39 127.77 150.49 132.79 C 148.31 132.82 146.14 132.84 143.97 132.85 C 143.59 128.24 144.14 123.61 143.62 119.03 C 143.66 115.89 137.37 115.40 137.85 118.95 C 137.79 127.89 137.91 136.83 137.81 145.77 C 135.68 145.75 133.55 145.73 131.42 145.71 C 131.45 134.60 131.43 123.49 131.43 112.37 Z" />
<path fill="#81dc8a" opacity="1.00" d=" M 169.34 111.34 C 171.70 111.30 174.07 111.35 176.43 111.47 C 176.34 117.98 176.33 124.49 176.41 131.00 C 176.55 133.80 176.76 137.20 179.25 139.00 C 182.32 140.86 186.02 140.10 189.35 139.56 C 189.31 130.15 189.33 120.74 189.34 111.34 C 191.72 111.28 194.11 111.35 196.49 111.50 C 196.25 122.60 196.57 133.71 196.32 144.81 C 190.05 146.12 183.33 147.59 177.06 145.54 C 172.13 143.84 169.65 138.53 169.45 133.61 C 169.21 126.19 169.40 118.76 169.34 111.34 Z" />
</g>
<g id="#0f3612ff">
<path fill="#0f3612" opacity="1.00" d=" M 112.06 10.08 C 128.11 8.24 144.59 9.08 160.16 13.62 C 190.30 22.06 216.65 42.95 231.82 70.32 C 245.05 93.65 249.62 121.49 245.40 147.90 C 240.90 175.94 225.90 202.11 204.05 220.23 C 184.51 236.63 159.55 246.60 134.03 247.75 C 131.71 247.93 129.39 248.29 127.06 248.23 C 118.07 247.60 109.02 247.11 100.25 244.85 C 73.12 238.57 48.47 222.37 31.85 200.04 C 16.64 179.73 7.96 154.46 8.19 129.04 C 7.72 101.12 17.97 73.30 35.89 51.96 C 54.83 29.11 82.62 13.83 112.06 10.08 M 114.49 18.82 C 86.30 22.09 59.68 36.75 41.85 58.82 C 25.84 78.41 16.75 103.66 17.16 128.99 C 16.92 157.77 28.95 186.35 49.39 206.56 C 68.66 226.09 95.55 237.99 123.00 238.84 C 143.41 239.82 164.05 234.86 181.81 224.76 C 203.37 212.62 220.65 193.02 229.91 170.06 C 240.62 143.82 240.62 113.40 229.96 87.14 C 219.67 61.53 199.40 40.12 174.37 28.48 C 155.84 19.64 134.84 16.61 114.49 18.82 Z" />
<path fill="#0f3612" opacity="1.00" d=" M 111.47 23.73 C 134.74 20.12 159.19 24.55 179.66 36.21 C 199.58 47.40 215.65 65.24 224.74 86.20 C 234.31 108.00 236.15 133.06 229.94 156.04 C 223.86 178.95 209.76 199.63 190.69 213.71 C 172.20 227.51 149.08 235.00 126.00 234.54 C 98.91 234.33 72.19 223.03 52.99 203.96 C 36.29 187.48 25.22 165.35 22.37 142.04 C 18.81 115.42 25.99 87.57 41.94 65.96 C 58.30 43.40 83.91 27.85 111.47 23.73 M 58.83 111.39 C 62.53 116.90 66.92 121.92 70.70 127.37 L 70.68 127.98 C 66.35 133.68 61.86 139.30 58.27 145.52 C 60.75 145.75 63.25 145.81 65.75 145.68 C 68.51 141.27 71.38 136.86 74.94 133.04 L 75.70 133.15 C 79.05 136.95 81.58 141.39 84.16 145.73 C 86.76 145.74 89.36 145.74 91.95 145.69 C 88.88 138.95 83.56 133.49 80.07 127.11 C 83.37 121.65 87.48 116.71 91.00 111.39 C 88.44 111.33 85.88 111.33 83.32 111.37 C 80.77 114.99 78.18 118.58 75.67 122.23 C 72.05 119.17 69.82 114.82 66.65 111.33 C 64.04 111.33 61.44 111.34 58.83 111.39 M 101.85 113.88 C 94.33 119.84 93.51 131.74 98.41 139.58 C 103.86 147.64 115.42 147.97 123.69 144.67 C 124.04 142.62 123.44 140.54 123.25 138.49 C 117.94 140.19 111.73 141.30 106.65 138.34 C 103.95 136.74 103.01 133.55 102.44 130.67 C 110.46 130.54 118.49 130.86 126.50 130.51 C 126.40 125.05 126.22 118.94 122.31 114.67 C 117.09 109.13 107.63 109.29 101.85 113.88 M 131.43 112.37 C 131.43 123.49 131.45 134.60 131.42 145.71 C 133.55 145.73 135.68 145.75 137.81 145.77 C 137.91 136.83 137.79 127.89 137.85 118.95 C 137.37 115.40 143.66 115.89 143.62 119.03 C 144.14 123.61 143.59 128.24 143.97 132.85 C 146.14 132.84 148.31 132.82 150.49 132.79 C 150.39 127.77 150.66 122.74 150.17 117.73 C 152.35 115.54 156.10 116.78 156.32 119.91 C 156.63 128.50 156.36 137.11 156.44 145.72 C 158.57 145.73 160.70 145.74 162.84 145.76 C 162.82 137.15 162.97 128.53 162.78 119.93 C 162.86 114.82 158.28 109.98 153.03 110.57 C 150.46 110.27 148.29 113.53 145.83 112.04 C 141.34 109.48 136.00 110.71 131.43 112.37 M 169.34 111.34 C 169.40 118.76 169.21 126.19 169.45 133.61 C 169.65 138.53 172.13 143.84 177.06 145.54 C 183.33 147.59 190.05 146.12 196.32 144.81 C 196.57 133.71 196.25 122.60 196.49 111.50 C 194.11 111.35 191.72 111.28 189.34 111.34 C 189.33 120.74 189.31 130.15 189.35 139.56 C 186.02 140.10 182.32 140.86 179.25 139.00 C 176.76 137.20 176.55 133.80 176.41 131.00 C 176.33 124.49 176.34 117.98 176.43 111.47 C 174.07 111.35 171.70 111.30 169.34 111.34 Z" />
<path fill="#0f3612" opacity="1.00" d=" M 102.87 124.65 C 103.41 119.52 108.87 115.27 113.97 116.97 C 117.32 117.94 119.13 121.35 119.03 124.69 C 113.65 124.68 108.26 124.71 102.87 124.65 Z" />
</g>
</svg>
